<?xml version="1.0" encoding="UTF-8"?>
<svg width="120px" height="164px" viewBox="0 0 120 164" version="1.1" xmlns="http://www.w3.org/2000/svg" xmlns:xlink="http://www.w3.org/1999/xlink">
    <!-- Generator: Sketch 49 (51002) - http://www.bohemiancoding.com/sketch -->
    <title>btn_aud</title>
    <desc>Created with Sketch.</desc>
    <defs></defs>
    <g id="btn_aud" stroke="none" stroke-width="1" fill="none" fill-rule="evenodd">
        <g id="澳幣">
            <path d="M118.518769,60.1036923 C118.518769,92.4821538 92.2726154,118.725231 59.8987692,118.725231 C27.5233846,118.725231 1.27723077,92.4821538 1.27723077,60.1036923 C1.27723077,27.7329231 27.5233846,1.48523077 59.8987692,1.48523077 C92.2726154,1.48523077 118.518769,27.7329231 118.518769,60.1036923" id="Fill-4" fill="#FEFEFE"></path>
            <path d="M35.5875385,6.75030769 C31.6183077,8.558 27.8890769,10.798 24.4598462,13.4118462 L35.5875385,20.2503077 L35.5875385,6.75030769 Z" id="Fill-6" fill="#023673"></path>
            <path d="M50.1729231,20.2509231 L76.5883077,3.89861538 C71.2975385,2.33246154 65.6990769,1.48630769 59.8990769,1.48630769 L59.8913846,1.48630769 C56.5821538,1.48630769 53.3375385,1.76169231 50.1729231,2.28938462 L50.1729231,20.2509231 Z" id="Fill-8" fill="#023673"></path>
            <path d="M104.127231,50.3590769 L108.364154,51.8821538 L109.818,47.6190769 L111.270308,51.8821538 L115.507231,50.3590769 L113.082615,54.1513846 L116.911846,56.5144615 L112.428769,56.9836923 L112.971846,61.4529231 L109.818,58.2483077 L106.664154,61.4529231 L107.198,56.9836923 L102.724154,56.5144615 L106.550308,54.1513846 L104.127231,50.3590769 Z M49.2995385,107.988308 L41.8041538,100.371385 L34.3118462,107.988308 L35.5964615,97.3821538 L24.9687692,96.2698462 L34.058,90.6590769 L28.298,81.6636923 L38.3533846,85.2667692 L41.8041538,75.1575385 L45.2487692,85.2667692 L55.3041538,81.6636923 L49.5441538,90.6590769 L58.638,96.2698462 L48.0149231,97.3821538 L49.2995385,107.988308 Z M91.7456923,23.4698462 L91.7456923,26.0390769 L91.7456923,35.5683077 L91.7456923,38.1375385 L66.0410769,38.1375385 L91.7456923,53.4483077 L91.7456923,56.2621538 L91.7456923,60.1236923 L80.5749231,60.1236923 L50.1733846,41.3621538 L50.1733846,60.1236923 L47.6195385,60.1236923 L38.1395385,60.1236923 L35.5872308,60.1236923 L35.5872308,41.3621538 L4.97184615,60.1236923 L1.27646154,60.1236923 C1.29338462,92.4913846 27.5272308,118.725231 59.8918462,118.725231 L59.8995385,118.725231 C92.2687692,118.725231 118.518,92.4821538 118.518,60.1036923 C118.518,38.5298462 106.853385,19.6790769 89.498,9.49753846 L66.0410769,23.4698462 L91.7456923,23.4698462 Z" id="Fill-10" fill="#023673"></path>
            <path d="M5.538,38.1370769 C4.20569231,41.4324615 3.16415385,44.8724615 2.44107692,48.4263077 L19.7164615,38.1370769 L5.538,38.1370769 Z" id="Fill-12" fill="#023673"></path>
            <path d="M15.9961538,21.262 C15.3592308,21.9835385 14.7346154,22.7189231 14.13,23.4712308 L19.7161538,23.4712308 L15.9961538,21.262 Z" id="Fill-14" fill="#023673"></path>
            <polygon id="Fill-16" fill="#FEFEFE" points="58.2001538 96.1704615 49.3463077 90.7043077 49.3847692 90.6443077 54.9509231 81.9427692 45.1586154 85.4566154 41.8047692 75.6166154 38.4463077 85.4566154 28.6570769 81.9427692 34.2601538 90.7043077 34.1970769 90.7427692 25.4109231 96.1704615 35.754 97.2489231 34.5109231 107.579692 41.8047692 100.167385 41.8524615 100.218154 49.0970769 107.579692 47.8509231 97.2489231 47.9216923 97.2396923"></polygon>
            <path d="M49.1947692,107.778 L41.804,100.265692 L34.4116923,107.778 L35.6763077,97.3149231 L25.1870769,96.218 L34.1578462,90.6856923 L28.4778462,81.8026154 L38.4024615,85.3626154 L41.804,75.3872308 L45.2009231,85.3626154 L55.1286154,81.8026154 L49.444,90.6856923 L58.4193846,96.218 L47.9316923,97.3149231 L49.1947692,107.778 Z M49.544,90.6595385 L55.304,81.6626154 L45.2486154,85.2672308 L41.804,75.158 L38.3532308,85.2672308 L28.2978462,81.6626154 L34.0578462,90.6595385 L24.9686154,96.2703077 L35.5963077,97.3826154 L34.3116923,107.988769 L41.804,100.371846 L49.2993846,107.988769 L48.0147692,97.3826154 L58.6378462,96.2703077 L49.544,90.6595385 Z" id="Fill-18" fill="#FEFEFE"></path>
            <path d="M49.0970769,107.579692 L41.8524615,100.218154 L41.8047692,100.167385 L34.5109231,107.579692 L35.754,97.2489231 L25.4109231,96.1704615 L34.1970769,90.7427692 L34.2601538,90.7043077 L28.6570769,81.9427692 L38.4463077,85.4566154 L41.8047692,75.6166154 L45.1586154,85.4566154 L54.9509231,81.9427692 L49.3847692,90.6443077 L49.3463077,90.7043077 L58.2001538,96.1704615 L47.9216923,97.2396923 L47.8509231,97.2489231 L49.0970769,107.579692 Z M49.4447692,90.6858462 L55.1293846,81.8027692 L45.2016923,85.3627692 L41.8047692,75.3873846 L38.4032308,85.3627692 L28.4786154,81.8027692 L34.1570769,90.6858462 L25.1863077,96.2181538 L35.6755385,97.3150769 L34.4109231,107.778154 L41.8047692,100.265846 L49.194,107.778154 L47.9309231,97.3150769 L58.4201538,96.2181538 L49.4447692,90.6858462 Z" id="Fill-20" fill="#FEFEFE"></path>
            <path d="M24.4592308,23.4706154 L25.5853846,23.4706154 L17.9946154,19.1121538 C17.3115385,19.8121538 16.6438462,20.526 15.9961538,21.2613846 L19.7161538,23.4706154 L24.4592308,23.4706154 Z" id="Fill-22" fill="#FEFEFE"></path>
            <path d="M50.296,23.4706154 L80.0698462,5.04292308 C78.9221538,4.626 77.7636923,4.246 76.5883077,3.89830769 L50.1729231,20.2506154 L50.1729231,23.4706154 L50.296,23.4706154 Z" id="Fill-24" fill="#FEFEFE"></path>
            <path d="M30.6626154,23.4706154 L32.018,23.4706154 L20.4241538,16.7675385 C19.5918462,17.5244615 18.7841538,18.3090769 17.9949231,19.1121538 L25.5856923,23.4706154 L30.6626154,23.4706154 Z" id="Fill-26" fill="#E50F16"></path>
            <polygon id="Fill-28" fill="#E50F16" points="55.0992308 38.1370769 53.8838462 38.1370769 91.7453846 60.1232308 91.7453846 56.2616923 60.3069231 38.1370769"></polygon>
            <path d="M51.4995385,23.4706154 L56.2241538,23.4706154 L83.6472308,6.49676923 C82.4733846,5.97830769 81.278,5.48753846 80.0687692,5.04292308 L50.2964615,23.4706154 L51.4995385,23.4706154 Z" id="Fill-30" fill="#E50113"></path>
            <path d="M34.2609231,38.1370769 L29.5978462,38.1370769 L1.45784615,55.5263077 C1.35784615,56.774 1.30246154,58.034 1.28861538,59.3032308 L35.5347692,38.1370769 L34.2609231,38.1370769 Z" id="Fill-32" fill="#E50113"></path>
            <path d="M35.5875385,41.3627692 L35.5875385,60.1227692 L38.1398462,60.1227692 L38.1398462,35.5673846 L6.64446154,35.5673846 C6.25676923,36.4135385 5.88753846,37.2704615 5.53830769,38.1366154 L19.7167692,38.1366154 L2.44138462,48.4273846 C1.97523077,50.7473846 1.63676923,53.1166154 1.45676923,55.5258462 L29.5967692,38.1366154 L34.2613846,38.1366154 L35.5352308,38.1366154 L1.28907692,59.3027692 C1.28138462,59.572 1.27676923,59.8427692 1.27676923,60.1043077 L1.27676923,60.1227692 L4.97215385,60.1227692 L35.5875385,41.3627692 Z" id="Fill-34" fill="#FEFEFE"></path>
            <path d="M56.2246154,23.4706154 L51.5,23.4706154 L50.2953846,23.4706154 L50.1723077,23.4706154 L50.1723077,20.2506154 L50.1723077,2.28907692 C49.3153846,2.43523077 48.4692308,2.59369231 47.6184615,2.77369231 L47.6184615,26.0398462 L91.7461538,26.0398462 L91.7461538,23.4706154 L66.0415385,23.4706154 L89.4984615,9.49830769 C87.6092308,8.39215385 85.6584615,7.39369231 83.6476923,6.49676923 L56.2246154,23.4706154 Z" id="Fill-36" fill="#FEFEFE"></path>
            <polygon id="Fill-38" fill="#FEFEFE" points="47.6187692 60.1232308 50.1726154 60.1232308 50.1726154 41.3632308 80.5756923 60.1232308 91.7464615 60.1232308 53.8833846 38.1370769 55.0987692 38.1370769 60.3064615 38.1370769 91.7464615 56.2616923 91.7464615 53.4478462 66.0418462 38.1370769 91.7464615 38.1370769 91.7464615 35.5678462 47.6187692 35.5678462"></polygon>
            <path d="M38.1401538,5.66107692 C37.2786154,6.00415385 36.4293846,6.36723077 35.5878462,6.75030769 L35.5878462,20.2503077 L24.4586154,13.4118462 C23.0663077,14.4733846 21.7186154,15.5872308 20.4232308,16.7672308 L32.0186154,23.4703077 L30.6632308,23.4703077 L25.5863077,23.4703077 L24.4586154,23.4703077 L19.7155385,23.4703077 L14.1309231,23.4703077 C13.4601538,24.3118462 12.8109231,25.1687692 12.1847692,26.0395385 L38.1401538,26.0395385 L38.1401538,5.66107692 Z" id="Fill-40" fill="#FEFEFE"></path>
            <path d="M38.1401538,60.1232308 L47.6186154,60.1232308 L47.6186154,35.5678462 L91.7463077,35.5678462 L91.7463077,26.0401538 L47.6186154,26.0401538 L47.6186154,2.774 C44.3509231,3.47092308 41.1832308,4.44169231 38.1401538,5.66169231 L38.1401538,26.0401538 L12.1847692,26.0401538 C10.0586154,29.0216923 8.19707692,32.2078462 6.64323077,35.5678462 L38.1401538,35.5678462 L38.1401538,60.1232308 Z" id="Fill-42" fill="#E50F16"></path>
        </g>
        <path d="M53.432,145.328 L54.104,146.48 C53.096,146.768 51.968,147.008 50.72,147.152 L50.72,149.672 L51.512,149.672 C51.992,148.928 52.376,148.184 52.664,147.464 L53.84,147.944 C53.528,148.568 53.192,149.144 52.832,149.672 L54.32,149.672 L54.32,150.92 L50.72,150.92 L50.72,151.112 C51.8,151.64 52.904,152.264 54.032,152.936 L53.264,154.088 C52.28,153.272 51.44,152.624 50.72,152.144 L50.72,154.376 L49.28,154.376 L49.28,151.928 C48.344,152.936 47.264,153.824 46.04,154.544 L45.32,153.296 C46.76,152.672 48.008,151.88 49.112,150.92 L45.512,150.92 L45.512,149.672 L47,149.672 C46.76,149.168 46.496,148.712 46.256,148.304 L47.36,147.848 C47.696,148.424 48.008,149.024 48.272,149.672 L49.28,149.672 L49.28,147.272 C48.248,147.344 47.168,147.392 46.016,147.392 L45.584,146.168 C48.752,146.144 51.368,145.856 53.432,145.328 Z M51.104,158.96 C53.648,159.824 56,160.856 58.112,162.056 L57.176,163.496 C54.92,162.104 52.616,161.024 50.264,160.208 L51.104,158.96 Z M38.024,141.8 C39.608,142.928 40.976,144.056 42.08,145.208 L40.832,146.432 C39.848,145.352 38.504,144.2 36.8,142.976 L38.024,141.8 Z M37.4,147.536 C38.984,148.688 40.328,149.84 41.432,150.992 L40.184,152.216 C39.224,151.112 37.88,149.96 36.152,148.736 L37.4,147.536 Z M39.992,153.92 L41.504,154.496 C40.496,157.544 39.344,160.424 38.072,163.112 L36.464,162.392 C37.808,159.632 38.984,156.8 39.992,153.92 Z M41.84,156.608 L48.848,156.608 C49.016,156.056 49.136,155.48 49.232,154.88 L50.864,154.88 C50.768,155.504 50.672,156.08 50.528,156.608 L57.92,156.608 L57.92,158.096 L50,158.096 C49.568,159.008 49.04,159.8 48.368,160.472 C47.072,161.72 44.912,162.68 41.888,163.4 L41.24,161.864 C43.928,161.288 45.848,160.448 47.048,159.392 C47.48,159.008 47.84,158.576 48.152,158.096 L41.84,158.096 L41.84,156.608 Z M48.968,141.176 L50.672,141.416 C50.48,142.04 50.24,142.64 49.928,143.216 L57.008,143.216 L57.008,153.752 C57.008,154.784 56.456,155.312 55.352,155.312 L54.032,155.312 L53.648,153.944 L54.896,153.992 C55.208,153.992 55.376,153.776 55.376,153.392 L55.376,144.656 L44.552,144.656 L44.552,155.36 L42.896,155.36 L42.896,143.216 L48.2,143.216 C48.536,142.568 48.776,141.896 48.968,141.176 Z M78.344,161.96 L76.184,161.96 L75.752,160.352 L77.792,160.424 C78.368,160.424 78.68,160.112 78.68,159.536 L78.68,156.752 L72.584,156.752 L72.584,163.4 L70.856,163.4 L70.856,156.752 L64.76,156.752 L64.76,161.672 L63.056,161.672 L63.056,155.216 L70.856,155.216 L70.856,153.44 L72.584,153.44 L72.584,155.216 L80.384,155.216 L80.384,159.92 C80.384,161.264 79.688,161.96 78.344,161.96 Z M70.544,153.416 L69.296,153.416 L68.96,152.072 L70.088,152.144 C70.52,152.144 70.736,151.904 70.736,151.424 L70.736,146.168 L67.76,146.168 L67.76,153.2 L66.416,153.2 L66.416,146.168 L63.296,146.168 L63.296,153.392 L61.856,153.392 L61.856,144.776 L66.368,144.776 L66.368,141.44 L67.832,141.44 L67.832,144.776 L72.176,144.776 L72.176,151.736 C72.176,152.84 71.624,153.416 70.544,153.416 Z M75.752,145.304 C75.104,146.504 74.312,147.608 73.352,148.568 L72.416,147.32 C73.952,145.736 75.008,143.768 75.536,141.44 L77.12,141.632 C76.928,142.4 76.712,143.12 76.448,143.792 L82.04,143.792 L82.04,145.304 L80.96,145.304 C80.432,147.2 79.664,148.784 78.656,150.08 C79.808,150.944 81.152,151.736 82.64,152.432 L81.824,153.824 C80.192,153.032 78.8,152.144 77.648,151.184 C76.52,152.24 75.176,153.032 73.64,153.56 L72.848,152.24 C74.288,151.784 75.536,151.088 76.544,150.176 C75.848,149.504 75.248,148.832 74.744,148.112 L75.488,146.96 C76.064,147.752 76.736,148.472 77.504,149.144 C78.344,148.064 78.968,146.792 79.4,145.304 L75.752,145.304 Z M64.592,147.32 L65.696,147.464 C65.6,149 65.36,150.392 64.976,151.592 L63.824,151.232 C64.208,150.104 64.472,148.808 64.592,147.32 Z M69.296,147.104 C69.656,148.064 69.968,149.192 70.256,150.464 L69.152,150.752 C68.912,149.6 68.648,148.496 68.312,147.44 L69.296,147.104 Z M63.632,141.584 C64.184,142.328 64.688,143.144 65.168,144.056 L63.968,144.656 C63.464,143.744 62.936,142.904 62.36,142.16 L63.632,141.584 Z M70.496,141.56 L71.816,142.184 C71.408,143.048 70.904,143.864 70.28,144.68 L69.056,144.032 C69.656,143.192 70.136,142.376 70.496,141.56 Z" id="澳幣" fill="#4A4A4A"></path>
    </g>
</svg>