<?xml version="1.0" encoding="UTF-8"?>
<svg width="120px" height="164px" viewBox="0 0 120 164" version="1.1" xmlns="http://www.w3.org/2000/svg" xmlns:xlink="http://www.w3.org/1999/xlink">
    <!-- Generator: Sketch 49 (51002) - http://www.bohemiancoding.com/sketch -->
    <title>btn_zar</title>
    <desc>Created with Sketch.</desc>
    <defs></defs>
    <g id="btn_zar" stroke="none" stroke-width="1" fill="none" fill-rule="evenodd">
        <g id="南非幣">
            <path d="M59.8032308,70.8578462 L43.1309231,80.4855385 L14.3970769,97.0716923 C16.1616923,99.2316923 18.0709231,101.273231 20.1232308,103.165538 L59.414,80.4855385 L114.874,80.4855385 C116.027846,77.3793846 116.917077,74.1624615 117.535538,70.8578462 L76.0878462,70.8578462 L59.8032308,70.8578462 Z" id="Fill-4" fill="#FEFEFE"></path>
            <path d="M59.8032308,70.8578462 L43.1309231,80.4855385 L14.3970769,97.0716923 C16.1616923,99.2316923 18.0709231,101.273231 20.1232308,103.165538 L59.414,80.4855385 L114.874,80.4855385 C116.027846,77.3793846 116.917077,74.1624615 117.535538,70.8578462 L76.0878462,70.8578462 L59.8032308,70.8578462 Z" id="Fill-6" fill="#FEFEFE"></path>
            <path d="M14.3975385,23.1489231 L43.1313846,39.7350769 L59.8036923,49.3627692 L76.0883077,49.3627692 L117.536,49.3627692 C116.917538,46.0473846 116.028308,42.832 114.874462,39.7350769 L59.4144615,39.7350769 L20.1236923,17.0458462 C18.0713846,18.9489231 16.1606154,20.9889231 14.3975385,23.1489231" id="Fill-8" fill="#FEFEFE"></path>
            <path d="M114.873846,80.4852308 L59.4138462,80.4852308 L20.1230769,103.165231 C30.5707692,112.822154 44.5492308,118.723692 59.8969231,118.723692 L59.9030769,118.723692 C85.1076923,118.723692 106.604615,102.806769 114.873846,80.4852308" id="Fill-10" fill="#182A87"></path>
            <path d="M114.873846,39.7355385 C106.604615,17.4032308 85.1076923,1.48476923 59.9030769,1.48476923 L59.8969231,1.48476923 C44.5492308,1.48476923 30.5707692,7.38784615 20.1230769,17.0463077 L59.4138462,39.7355385 L114.873846,39.7355385 Z" id="Fill-12" fill="#E50113"></path>
            <path d="M59.8032308,49.3629231 L43.1309231,39.7352308 L14.3970769,23.1490769 C10.8478462,27.5198462 7.90784615,32.4075385 5.72323077,37.6936923 L9.21553846,39.7352308 L25.6878462,49.3629231 L44.0724615,60.1044615 L25.6816923,70.8583077 L9.21553846,80.4844615 L5.71861538,82.5275385 C7.90784615,87.8029231 10.8478462,92.6906154 14.3970769,97.0721538 L43.1309231,80.4844615 L59.8032308,70.8583077 L76.0878462,70.8583077 L117.535538,70.8583077 C118.178615,67.3736923 118.515538,63.7783077 118.515538,60.1044615 C118.515538,56.4429231 118.178615,52.8475385 117.535538,49.3629231 L76.0878462,49.3629231 L59.8032308,49.3629231 Z" id="Fill-14" fill="#006834"></path>
            <path d="M25.6821538,70.8578462 L44.0729231,60.1055385 L25.6883077,49.3624615 L9.216,39.7363077 L5.72215385,37.6932308 C4.66676923,40.2332308 3.79138462,42.8609231 3.09753846,45.5701538 L9.59446154,49.3624615 L27.9836923,60.1055385 L9.58984615,70.8578462 L3.09753846,74.6516923 C3.79138462,77.3486154 4.66676923,79.9778462 5.71753846,82.5270769 L9.216,80.4855385 L25.6821538,70.8578462 Z" id="Fill-16" fill="#F8BA00"></path>
            <path d="M27.9838462,60.1050769 L9.59461538,49.3635385 L3.09769231,45.5696923 C1.90846154,50.2081538 1.28230769,55.0866154 1.28230769,60.1050769 C1.28230769,65.1235385 1.90846154,70.002 3.09769231,74.6512308 L9.59,70.8573846 L27.9838462,60.1050769 Z" id="Fill-18" fill="#0C0808"></path>
        </g>
        <path d="M24.32,143.648 L34.256,143.648 L34.544,141.248 L36.296,141.488 C36.224,142.232 36.152,142.952 36.056,143.648 L45.68,143.648 L45.68,145.28 L35.792,145.28 C35.648,146.144 35.48,146.936 35.312,147.704 L44.408,147.704 L44.408,160.952 C44.408,162.464 43.688,163.232 42.272,163.232 L39.92,163.232 L39.464,161.552 L41.696,161.6 C42.368,161.6 42.704,161.24 42.704,160.568 L42.704,149.336 L27.344,149.336 L27.344,163.376 L25.64,163.376 L25.64,147.704 L33.536,147.704 C33.704,146.888 33.872,146.072 34.016,145.28 L24.32,145.28 L24.32,143.648 Z M32.312,150.104 C32.816,150.944 33.296,151.952 33.728,153.104 L36.248,153.104 C36.776,152.12 37.256,151.088 37.688,149.984 L39.272,150.56 C38.84,151.496 38.384,152.336 37.904,153.104 L40.64,153.104 L40.64,154.616 L35.84,154.616 L35.84,157.136 L41.36,157.136 L41.36,158.672 L35.84,158.672 L35.84,163.016 L34.16,163.016 L34.16,158.672 L28.664,158.672 L28.664,157.136 L34.16,157.136 L34.16,154.616 L29.432,154.616 L29.432,153.104 L32.072,153.104 C31.712,152.24 31.28,151.424 30.776,150.68 L32.312,150.104 Z M61.616,141.416 L63.368,141.416 L63.368,145.208 L70.064,145.208 L70.064,146.864 L63.368,146.864 L63.368,150.584 L69.536,150.584 L69.536,152.264 L63.368,152.264 L63.368,156.08 L70.448,156.08 L70.448,157.736 L63.368,157.736 L63.368,163.4 L61.616,163.4 L61.616,141.416 Z M49.352,145.208 L56.072,145.208 L56.072,141.416 L57.776,141.416 L57.776,153.104 C57.728,157.808 56.384,161.24 53.744,163.4 L52.424,162.224 C54.008,160.976 55.064,159.224 55.616,157.016 C53.6,157.544 51.464,157.976 49.208,158.36 L48.8,156.632 C51.272,156.344 53.648,155.936 55.928,155.36 C56.024,154.64 56.072,153.872 56.072,153.104 L56.072,152.264 L49.904,152.264 L49.904,150.584 L56.072,150.584 L56.072,146.864 L49.352,146.864 L49.352,145.208 Z M91.0640001,161.96 L88.9040001,161.96 L88.4720001,160.352 L90.5120001,160.424 C91.0880001,160.424 91.4000001,160.112 91.4000001,159.536 L91.4000001,156.752 L85.3040001,156.752 L85.3040001,163.4 L83.5760001,163.4 L83.5760001,156.752 L77.4800001,156.752 L77.4800001,161.672 L75.7760001,161.672 L75.7760001,155.216 L83.5760001,155.216 L83.5760001,153.44 L85.3040001,153.44 L85.3040001,155.216 L93.1040001,155.216 L93.1040001,159.92 C93.1040001,161.264 92.4080001,161.96 91.0640001,161.96 Z M83.2640001,153.416 L82.0160001,153.416 L81.6800001,152.072 L82.8080001,152.144 C83.2400001,152.144 83.4560001,151.904 83.4560001,151.424 L83.4560001,146.168 L80.4800001,146.168 L80.4800001,153.2 L79.1360001,153.2 L79.1360001,146.168 L76.0160001,146.168 L76.0160001,153.392 L74.5760001,153.392 L74.5760001,144.776 L79.0880001,144.776 L79.0880001,141.44 L80.5520001,141.44 L80.5520001,144.776 L84.8960001,144.776 L84.8960001,151.736 C84.8960001,152.84 84.3440001,153.416 83.2640001,153.416 Z M88.4720001,145.304 C87.8240001,146.504 87.0320001,147.608 86.0720001,148.568 L85.1360001,147.32 C86.6720001,145.736 87.7280001,143.768 88.2560001,141.44 L89.8400001,141.632 C89.6480001,142.4 89.4320001,143.12 89.1680001,143.792 L94.7600001,143.792 L94.7600001,145.304 L93.6800001,145.304 C93.1520001,147.2 92.3840001,148.784 91.3760001,150.08 C92.5280001,150.944 93.8720001,151.736 95.3600001,152.432 L94.5440001,153.824 C92.9120001,153.032 91.5200001,152.144 90.3680001,151.184 C89.2400001,152.24 87.8960001,153.032 86.3600001,153.56 L85.5680001,152.24 C87.0080001,151.784 88.2560001,151.088 89.2640001,150.176 C88.5680001,149.504 87.9680001,148.832 87.4640001,148.112 L88.2080001,146.96 C88.7840001,147.752 89.4560001,148.472 90.2240001,149.144 C91.0640001,148.064 91.6880001,146.792 92.1200001,145.304 L88.4720001,145.304 Z M77.3120001,147.32 L78.4160001,147.464 C78.3200001,149 78.0800001,150.392 77.6960001,151.592 L76.5440001,151.232 C76.9280001,150.104 77.1920001,148.808 77.3120001,147.32 Z M82.0160001,147.104 C82.3760001,148.064 82.6880001,149.192 82.9760001,150.464 L81.8720001,150.752 C81.6320001,149.6 81.3680001,148.496 81.0320001,147.44 L82.0160001,147.104 Z M76.3520001,141.584 C76.9040001,142.328 77.4080001,143.144 77.8880001,144.056 L76.6880001,144.656 C76.1840001,143.744 75.6560001,142.904 75.0800001,142.16 L76.3520001,141.584 Z M83.2160001,141.56 L84.5360001,142.184 C84.1280001,143.048 83.6240001,143.864 83.0000001,144.68 L81.7760001,144.032 C82.3760001,143.192 82.8560001,142.376 83.2160001,141.56 Z" id="南非幣" fill="#4A4A4A"></path>
    </g>
</svg>