<?xml version="1.0" encoding="UTF-8"?>
<svg width="48px" height="44px" viewBox="0 0 48 44" version="1.1" xmlns="http://www.w3.org/2000/svg" xmlns:xlink="http://www.w3.org/1999/xlink">
    <!-- Generator: Sketch 49 (51002) - http://www.bohemiancoding.com/sketch -->
    <title>btn_arrow_r</title>
    <desc>Created with Sketch.</desc>
    <defs></defs>
    <g id="btn_arrow_r" stroke="none" stroke-width="1" fill="none" fill-rule="evenodd">
        <path d="M14.8519321,19.5708938 L14.8519321,20.6508832 C18.7894321,20.6508832 22.7269321,18.8957553 26.1115923,17.1406275 C27.7013031,16.3309254 29.6350557,15.3866596 31.3623832,15.3866596 C33.434939,15.3866596 35.7139199,16.3309254 38.2005122,17.6812022 C40.6182962,18.9641972 44.9617543,20.7854469 48,22.00116 C44.9617543,23.2145531 40.6182962,25.0369628 38.2005122,26.3187978 C35.7139199,27.6690746 33.434939,28.6133404 31.3623832,28.6133404 C29.6350557,28.6133404 27.7013031,27.6690746 26.1115923,26.8593725 C22.7269321,25.1054047 18.7894321,23.3502768 14.8519321,23.3502768 L14.8519321,24.4291062 C16.5104512,24.4291062 20.8619878,24.969681 23.5561916,26.9266544 C27.0108466,29.4230424 29.1510244,31.717585 29.1510244,37.252096 C29.1510244,41.031479 25.559939,44 21.6912474,44 C17.8225557,44 13.6774443,41.5708938 12.0889199,38.939942 C16.6480679,38.939942 19.4798885,37.1163723 19.4798885,32.1908779 C19.4798885,29.0866333 17.2009077,26.8593725 14.8519321,26.8593725 C14.8519321,28.2757712 13.9538641,29.7606117 12.1577282,29.7606117 C12.7793763,28.7490641 13.1945993,27.8709201 13.1945993,26.8593725 C11.5360801,26.8593725 9.60232751,27.3999473 8.22141458,28.6817822 C9.60232751,28.9520696 10.7068206,29.4914843 10.7068206,30.5703137 C10.7068206,31.8533087 9.25709928,33.0678619 7.66738852,33.0678619 C6.01005574,33.0678619 4.69795119,32.1224361 4.69795119,30.5041919 C4.69795119,27.8047983 8.22141458,24.969681 13.1945993,24.6993936 L13.1945993,23.3502768 C11.4660854,23.3502768 10.0851725,23.4860005 9.0494878,23.8908516 C8.29022296,24.1599789 7.59858014,24.4291062 6.90812368,24.4291062 C5.94124736,24.4291062 2.48659235,23.0799895 0,22.00116 C2.48659235,20.9200105 5.94124736,19.5708938 6.90812368,19.5708938 C7.59858014,19.5708938 8.29022296,19.8400211 9.0494878,20.1114685 C10.0851725,20.5163195 11.4660854,20.6508832 13.1945993,20.6508832 L13.1945993,19.3017664 C8.22141458,19.030319 4.69795119,16.1963617 4.69795119,13.4969681 C4.69795119,11.8775639 6.01005574,10.9321381 7.66738852,10.9321381 C9.25709928,10.9321381 10.7068206,12.1478513 10.7068206,13.4296863 C10.7068206,14.5096757 9.60232751,15.0502505 8.22141458,15.3193778 C9.60232751,16.6012128 11.5360801,17.1406275 13.1945993,17.1406275 C13.1945993,16.1290799 12.7793763,15.2509359 12.1577282,14.2393883 C13.9538641,14.2393883 14.8519321,15.7242288 14.8519321,17.1406275 C17.2009077,17.1406275 19.4798885,14.9145268 19.4798885,11.8102821 C19.4798885,6.88362774 16.6480679,5.06121803 12.0889199,5.06121803 C13.6774443,2.43026628 17.8225557,0 21.6912474,0 C25.559939,0 29.1510244,2.96852096 29.1510244,6.74790403 C29.1510244,12.282415 27.0108466,14.5769576 23.5561916,17.0733456 C20.8619878,19.030319 16.5104512,19.5708938 14.8519321,19.5708938 Z" id="Fill-1-Copy" fill="#004483"></path>
    </g>
</svg>