<?xml version="1.0" encoding="UTF-8"?>
<svg width="152px" height="200px" viewBox="0 0 152 200" version="1.1" xmlns="http://www.w3.org/2000/svg" xmlns:xlink="http://www.w3.org/1999/xlink">
    <!-- Generator: Sketch 49 (51002) - http://www.bohemiancoding.com/sketch -->
    <title>f_pop1_2</title>
    <desc>Created with Sketch.</desc>
    <defs>
        <polygon id="path-1" points="0 0 152 0 152 210 76 166 8.22876159e-14 210"></polygon>
    </defs>
    <g id="f_pop1_2" stroke="none" stroke-width="1" fill="none" fill-rule="evenodd">
        <g id="Group-39" transform="translate(0.000000, -10.000000)">
            <g id="Group-35-Copy-4">
                <g id="Combined-Shape">
                    <use fill="#60828B" fill-rule="evenodd" xlink:href="#path-1"></use>
                    <path stroke="#FFBD46" stroke-width="10" d="M5,5 L5,201.327764 L76,160.2225 L147,201.327764 L147,5 L5,5 Z"></path>
                    <path stroke="#60828B" stroke-width="6" d="M3,3 L3,204.796658 L76,162.5335 L149,204.796658 L149,3 L3,3 Z"></path>
                </g>
            </g>
            <g id="section_B_float_view_icon_2" transform="translate(36.000000, 42.000000)" fill="#FFFFFF" fill-rule="nonzero">
                <path d="M55.3178022,48.3434565 C54.4316484,48.3434565 53.7142857,47.6161522 53.7142857,46.7177174 L53.7142857,41.7896957 C53.7142857,40.8912609 54.4316484,40.1639565 55.3178022,40.1639565 C56.203956,40.1639565 56.9213187,40.8912609 56.9213187,41.7896957 L56.9213187,46.7177174 C56.9213187,47.6161522 56.203956,48.3434565 55.3178022,48.3434565 Z" id="XMLID_1946_"></path>
                <path d="M55.3178022,74.7768696 C54.4316484,74.7768696 53.7142857,74.0495652 53.7142857,73.1511304 L53.7142857,68.2222174 C53.7142857,67.3237826 54.4316484,66.5964783 55.3178022,66.5964783 C56.203956,66.5964783 56.9213187,67.3237826 56.9213187,68.2222174 L56.9213187,73.1511304 C56.9213187,74.0486739 56.203956,74.7768696 55.3178022,74.7768696 Z" id="XMLID_1945_"></path>
                <path d="M55.3195604,81.8003478 C42.0879121,81.8003478 31.3230769,70.8863261 31.3230769,57.4695217 C31.3230769,44.0527174 42.0879121,33.1386957 55.3195604,33.1386957 C68.5512088,33.1386957 79.316044,44.0527174 79.316044,57.4695217 C79.316044,70.8863261 68.5512088,81.8003478 55.3195604,81.8003478 Z M55.3195604,36.3910652 C43.8558242,36.3910652 34.5301099,45.8478043 34.5301099,57.470413 C34.5301099,69.0930217 43.8558242,78.5497609 55.3195604,78.5497609 C66.7832967,78.5497609 76.109011,69.0930217 76.109011,57.470413 C76.109011,45.8478043 66.7824176,36.3910652 55.3195604,36.3910652 Z" id="XMLID_1940_"></path>
                <path d="M56.2883516,69.0671739 C55.7046154,69.0671739 55.1032967,69.032413 54.487033,68.9628913 C52.4272527,68.727587 50.4351648,68.0546522 48.3279121,67.3398261 L47.8892308,67.1936522 C47.0496703,66.9111087 46.5942857,65.9903913 46.872967,65.1391957 C47.1516484,64.2853261 48.0597802,63.8245217 48.9010989,64.1070652 L49.3415385,64.255913 C51.3714286,64.9413261 53.1217582,65.5322609 54.8474725,65.7292391 C58.4386813,66.1392391 60.567033,65.0277826 61.3608791,63.845913 C61.8584615,63.1061304 61.9138462,62.2772174 61.5138462,61.5151522 C60.72,59.9972609 58.4474725,59.0952609 55.432967,59.0952609 C55.3969231,59.0952609 55.3643956,59.0952609 55.3283516,59.0952609 C50.952967,59.0952609 47.6562637,57.5898478 46.2795604,54.9640652 C45.3353846,53.1636304 45.4654945,51.0548043 46.6241758,49.3274565 C48.3613187,46.7426739 51.9551648,45.4823696 56.2575824,45.9770435 C58.3481319,46.2150217 60.3762637,46.9013261 62.5230769,47.6286304 L62.8720879,47.7462826 C63.7134066,48.0315 64.167033,48.9495435 63.8883516,49.8043043 C63.6079121,50.6519348 62.6997802,51.1216522 61.8602198,50.8328696 L61.5076923,50.7125435 C59.4391209,50.0137609 57.6518681,49.4103478 55.898022,49.2098043 C52.2646154,48.781087 50.0914286,49.9433478 49.2773626,51.1537391 C48.7841758,51.8908478 48.7261538,52.7001522 49.1112088,53.4372609 C49.9024176,54.9453478 52.2241758,55.8437826 55.3283516,55.8437826 C55.3626374,55.8402174 55.3969231,55.8402174 55.432967,55.8437826 C59.7195604,55.8437826 62.9661538,57.3518696 64.3472527,59.9910217 C65.3028571,61.8173043 65.1771429,63.9412826 64.0123077,65.6748696 C62.5512088,67.8532174 59.7336264,69.0671739 56.2883516,69.0671739 Z" id="XMLID_1936_"></path>
                <path d="M52.4703297,12.3739783 C51.5841758,12.3739783 50.8668132,11.6466739 50.8668132,10.7482391 L50.8668132,3.45113043 L8.50549451,3.45113043 L8.50549451,9.1225 L15.6483516,9.1225 C16.5345055,9.1225 17.2518681,9.84980435 17.2518681,10.7482391 C17.2518681,11.6466739 16.5345055,12.3739783 15.6483516,12.3739783 L6.90197802,12.3739783 C6.01582418,12.3739783 5.29846154,11.6466739 5.29846154,10.7482391 L5.29846154,1.8253913 C5.29846154,0.926956522 6.01582418,0.199652174 6.90197802,0.199652174 L52.4712088,0.199652174 C53.3573626,0.199652174 54.0747253,0.926956522 54.0747253,1.8253913 L54.0747253,10.7482391 C54.0738462,11.6475652 53.3573626,12.3739783 52.4703297,12.3739783 Z" id="XMLID_1934_"></path>
                <path d="M61.04,21.3003913 L48.0553846,21.3003913 C47.1692308,21.3003913 46.4518681,20.573087 46.4518681,19.6746522 C46.4518681,18.7762174 47.1692308,18.048913 48.0553846,18.048913 L59.4364835,18.048913 L59.4364835,12.3739783 L17.0751648,12.3739783 L17.0751648,19.6746522 C17.0751648,20.573087 16.3578022,21.3003913 15.4716484,21.3003913 C14.5854945,21.3003913 13.8681319,20.573087 13.8681319,19.6746522 L13.8681319,10.7482391 C13.8681319,9.84980435 14.5854945,9.1225 15.4716484,9.1225 L61.0408791,9.1225 C61.927033,9.1225 62.6443956,9.84980435 62.6443956,10.7482391 L62.6443956,19.6746522 C62.6435165,20.573087 61.9261538,21.3003913 61.04,21.3003913 Z" id="XMLID_1511_"></path>
                <path d="M47.8549451,30.2268043 C46.9687912,30.2268043 46.2514286,29.4995 46.2514286,28.6010652 L46.2514286,21.3003913 L3.89186813,21.3003913 L3.89186813,28.6010652 C3.89186813,29.4995 3.17450549,30.2268043 2.28835165,30.2268043 C1.4021978,30.2268043 0.684835165,29.4995 0.684835165,28.6010652 L0.684835165,19.6746522 C0.684835165,18.7762174 1.4021978,18.048913 2.28835165,18.048913 L47.8558242,18.048913 C48.741978,18.048913 49.4593407,18.7762174 49.4593407,19.6746522 L49.4593407,28.6010652 C49.4584615,29.4995 48.741978,30.2268043 47.8549451,30.2268043 Z" id="XMLID_1134_"></path>
                <path d="M2.28747253,39.1505435 C1.40131868,39.1505435 0.683956044,38.4232391 0.683956044,37.5248043 L0.683956044,28.6010652 C0.683956044,27.7026304 1.40131868,26.9753261 2.28747253,26.9753261 L47.8549451,26.9753261 C48.7410989,26.9753261 49.4584615,27.7026304 49.4584615,28.6010652 L49.4584615,35.1102609 C49.4584615,36.0086957 48.7410989,36.736 47.8549451,36.736 C46.9687912,36.736 46.2514286,36.0086957 46.2514286,35.1102609 L46.2514286,30.2268043 L3.89186813,30.2268043 L3.89186813,37.523913 C3.89186813,38.4232391 3.17450549,39.1505435 2.28747253,39.1505435 Z" id="XMLID_961_"></path>
                <path d="M2.28747253,48.0769565 C1.40131868,48.0769565 0.683956044,47.3496522 0.683956044,46.4512174 L0.683956044,37.5248043 C0.683956044,36.6263696 1.40131868,35.8990652 2.28747253,35.8990652 L44.2153846,35.8990652 C45.1015385,35.8990652 45.8189011,36.6263696 45.8189011,37.5248043 C45.8189011,38.4232391 45.1015385,39.1505435 44.2153846,39.1505435 L3.89186813,39.1505435 L3.89186813,46.4512174 C3.89186813,47.3496522 3.17450549,48.0769565 2.28747253,48.0769565 Z" id="XMLID_959_"></path>
                <path d="M2.28747253,56.9998043 C1.40131868,56.9998043 0.683956044,56.2725 0.683956044,55.3740652 L0.683956044,46.4503261 C0.683956044,45.5518913 1.40131868,44.824587 2.28747253,44.824587 L35.5208791,44.824587 C36.407033,44.824587 37.1243956,45.5518913 37.1243956,46.4503261 C37.1243956,47.3487609 36.407033,48.0760652 35.5208791,48.0760652 L3.89186813,48.0760652 L3.89186813,55.3731739 C3.89186813,56.2725 3.17450549,56.9998043 2.28747253,56.9998043 Z" id="XMLID_847_"></path>
                <path d="M2.28747253,65.9262174 C1.40131868,65.9262174 0.683956044,65.198913 0.683956044,64.3004783 L0.683956044,55.3740652 C0.683956044,54.4756304 1.40131868,53.7483261 2.28747253,53.7483261 L32.5846154,53.7483261 C33.4707692,53.7483261 34.1881319,54.4756304 34.1881319,55.3740652 C34.1881319,56.2725 33.4707692,56.9998043 32.5846154,56.9998043 L3.89186813,56.9998043 L3.89186813,64.3004783 C3.89186813,65.198913 3.17450549,65.9262174 2.28747253,65.9262174 Z" id="XMLID_813_"></path>
                <path d="M38.7015385,74.8490652 L2.28747253,74.8490652 C1.40131868,74.8490652 0.683956044,74.1217609 0.683956044,73.2233261 L0.683956044,64.3004783 C0.683956044,63.4020435 1.40131868,62.6747391 2.28747253,62.6747391 L33.7142857,62.6747391 C34.6004396,62.6747391 35.3178022,63.4020435 35.3178022,64.3004783 C35.3178022,65.198913 34.6004396,65.9262174 33.7142857,65.9262174 L3.89186813,65.9262174 L3.89186813,71.597587 L38.7024176,71.597587 C39.5885714,71.597587 40.3059341,72.3248913 40.3059341,73.2233261 C40.3050549,74.1226522 39.5885714,74.8490652 38.7015385,74.8490652 Z" id="XMLID_797_"></path>
            </g>
        </g>
    </g>
</svg>