<?xml version="1.0" encoding="UTF-8"?>
<svg width="152px" height="200px" viewBox="0 0 152 200" version="1.1" xmlns="http://www.w3.org/2000/svg" xmlns:xlink="http://www.w3.org/1999/xlink">
    <!-- Generator: Sketch 49 (51002) - http://www.bohemiancoding.com/sketch -->
    <title>f_pop1_1</title>
    <desc>Created with Sketch.</desc>
    <defs>
        <polygon id="path-1" points="0 0 152 0 152 210 76 166 8.22876159e-14 210"></polygon>
    </defs>
    <g id="f_pop1_1" stroke="none" stroke-width="1" fill="none" fill-rule="evenodd">
        <g id="Group-38" transform="translate(0.000000, -10.000000)">
            <g id="Group-35-Copy-5">
                <g id="Combined-Shape">
                    <use fill="#0B406C" fill-rule="evenodd" xlink:href="#path-1"></use>
                    <path stroke="#FFBD46" stroke-width="10" d="M5,5 L5,201.327764 L76,160.2225 L147,201.327764 L147,5 L5,5 Z"></path>
                    <path stroke="#0B406C" stroke-width="6" d="M3,3 L3,204.796658 L76,162.5335 L149,204.796658 L149,3 L3,3 Z"></path>
                </g>
            </g>
            <path d="M101.914654,53.9111475 L95.1968031,53.9111475 C94.8489056,53.9111475 94.4961082,53.9484814 94.1457608,54.023149 L93.7406971,54.1094316 L93.6606643,53.6962707 C93.1976177,51.2762096 91.0987998,49.5206904 88.6708676,49.5206904 L81.9530169,49.5206904 C81.5561198,49.5206904 81.1559561,49.5688096 80.763959,49.6625589 L80.3940117,49.7513305 L80.2804959,49.3829701 C79.623084,47.2483053 77.6271653,45.7574415 75.4262648,45.7574415 L68.7059641,45.7574415 C68.2592508,45.7574415 67.8084541,45.8180052 67.365824,45.9383031 L66.9852601,46.0420081 L66.870111,45.6595439 C66.222499,43.5049677 64.222497,42 62.00608,42 L55.286596,42 C52.4829999,42 50.2028833,44.3171857 50.2028833,47.1653413 L50.2028833,68.6414132 C50.2028833,69.1557903 50.6144802,69.5747587 51.1208099,69.5747587 L53.012196,69.5747587 L53.3560101,69.3656893 C53.6818577,69.1674052 53.8468232,68.923491 53.8468232,68.6422429 L53.8468232,47.1645116 C53.8468232,46.3547826 54.4928018,45.6968777 55.286596,45.6968777 L62.0068966,45.6968777 C62.8023241,45.6968777 63.4491194,46.3547826 63.4491194,47.1645116 L63.4491194,66.6560837 C63.4491194,66.9024869 63.5503853,67.1389344 63.7349506,67.3189664 L64.2886466,67.8623809 L56.2461723,69.5730994 L56.2478056,69.5730994 L48.9484925,71.1253566 C47.5683359,71.3925009 46.4143944,72.2719197 45.6940997,73.6034926 C45.060371,74.7840709 44.8513059,76.1894818 45.1052873,77.5592181 L49.5168883,97.4946478 C49.5462881,97.6190939 49.8296693,98.0115138 50.0305679,98.20482 L53.7994569,101.809608 C54.8921489,102.859103 55.8860249,103.823975 56.4919871,104.419656 L56.6169362,104.541614 L56.6169362,107.274449 L53.7961902,107.274449 C53.2898606,107.274449 52.8782636,107.693418 52.8782636,108.207795 L52.8782636,123.066655 C52.8782636,123.581032 53.2898606,124 53.7961902,124 L101.488357,124 C101.994687,124 102.4071,123.581032 102.4071,123.066655 L102.4071,108.207795 C102.4071,107.693418 101.994687,107.274449 101.488357,107.274449 L99.5153047,107.274449 L99.5398045,102.812643 L104.26827,89.6321455 C104.30502,89.531759 104.322986,89.4247354 104.322986,89.310245 L104.322986,79.5777333 C104.322986,79.4250794 104.230703,79.2774034 104.099221,79.0849268 L103.83789,78.7008033 L104.244587,78.4817783 C105.944058,77.5683442 107,75.8393735 107,73.9710233 L107,59.0764888 C107.000816,56.2283332 104.719067,53.9111475 101.914654,53.9111475 Z M80.5107942,54.6860317 C80.5107942,53.8796212 81.1575894,53.2233756 81.9530169,53.2233756 L88.6708676,53.2233756 C89.4662951,53.2233756 90.1130904,53.8796212 90.1130904,54.6860317 L90.1130904,73.9726826 C90.1130904,74.7790931 89.4662951,75.4353386 88.6708676,75.4353386 L81.9530169,75.4353386 C81.5683698,75.4353386 81.1959725,75.2793662 80.9321911,75.0064145 C80.6577931,74.7309739 80.5107942,74.3725693 80.5107942,73.9726826 L80.5107942,54.6860317 Z M67.0906093,66.5648232 L67.0906093,51.4861086 L67.1436923,51.3906999 C67.223725,51.2471721 67.2661914,51.0845626 67.2661914,50.9219531 C67.2661914,50.1155426 67.91217,49.459297 68.7059641,49.459297 L75.4262648,49.459297 C76.2216923,49.459297 76.8684876,50.1155426 76.8684876,50.9219531 L76.8684876,73.9718529 C76.8684876,74.5235638 76.5679564,75.0196888 76.0934766,75.2694106 L76.08531,75.2826848 L75.4899644,75.5655922 L74.6471705,71.0374148 C74.1939239,68.6115462 72.0640728,66.8502196 69.5838744,66.8502196 C69.2759933,66.8502196 68.9640289,66.8775977 68.6569645,66.9315243 L66.9942434,67.2849511 L67.0906093,66.5648232 Z M98.7321271,120.265788 L56.55242,120.265788 L56.55242,111.008661 L98.7321271,111.008661 L98.7321271,120.265788 Z M100.657813,88.8945952 L95.9293477,102.070115 C95.892598,102.170501 95.8746314,102.277525 95.8746314,102.392015 L95.8746314,107.275279 L60.2592428,107.275279 L60.2592428,103.460592 C60.2592428,103.307109 60.0330278,102.849147 59.8427459,102.613529 C59.5348648,102.234384 56.9689169,99.7396548 52.9795296,95.9407313 L52.8880636,95.8536191 L48.6740945,76.8117121 C48.5850785,76.3272021 48.6659279,75.8012101 48.8880596,75.3897084 C49.0881415,75.0279852 49.3486562,74.8155972 49.6647039,74.7550335 L69.3739926,70.566179 C69.4662752,70.5429491 69.5757078,70.5288452 69.683507,70.5288452 C70.3588853,70.5288452 70.9419811,71.0357555 71.0685635,71.7334831 L72.316421,78.438637 C72.3891038,78.8202716 72.3074377,79.2093729 72.087756,79.5312734 C71.8697076,79.8581517 71.5291601,80.0763472 71.1044965,80.1593112 L61.4728006,82.3205245 C60.9836208,82.430037 60.6732898,82.9070803 60.7672057,83.4065238 L61.8917475,89.4388393 C61.9129807,89.5566483 61.957897,89.6669904 62.0256798,89.7715251 L67.1093925,97.6414942 C67.3756239,98.0529958 67.9677029,98.1774419 68.3874665,97.9078087 L69.8917554,96.9064327 C70.0967373,96.7687124 70.2372029,96.5604727 70.2845692,96.3182177 C70.3360189,96.0734738 70.2886525,95.8204334 70.1563535,95.6204901 L65.3535721,88.1238592 L64.8366259,85.3536899 L71.8321412,83.7823509 C73.1796313,83.5218438 74.3352062,82.7535968 75.0987839,81.6169894 C75.5920469,80.8786094 75.8476617,79.9718125 75.8778782,78.8451608 L75.9007447,78.0204982 L76.5393733,78.5315567 C76.7394552,78.6908476 77.0881693,78.8717093 77.404217,78.7331593 C77.7741643,78.5705498 78.123695,78.3656286 78.443826,78.1233736 L78.6863742,77.9391934 L78.9297391,78.1217143 C79.8011161,78.775471 80.8750248,79.1355349 81.9522003,79.1355349 L88.670051,79.1355349 C89.7660096,79.1355349 90.8097019,78.7854267 91.6884288,78.122544 L91.9317937,77.9383638 L92.1759752,78.122544 C93.0522521,78.7854267 94.0967611,79.1355349 95.1959864,79.1355349 L100.692113,79.1355349 L100.657813,88.8945952 Z M103.35606,73.9726826 C103.35606,74.7790931 102.709265,75.4353386 101.913837,75.4353386 L95.1968031,75.4353386 C94.8056226,75.4353386 94.4528252,75.2876626 94.1776105,75.0080738 C93.9015792,74.7318036 93.7545803,74.3725693 93.7545803,73.9726826 L93.7545803,59.0764888 C93.7545803,58.2667597 94.4013756,57.6088549 95.1968031,57.6088549 L101.914654,57.6088549 C102.710081,57.6088549 103.356877,58.2667597 103.356877,59.0764888 L103.356877,73.9726826 L103.35606,73.9726826 Z" id="Shape" fill="#FFFFFF" fill-rule="nonzero"></path>
        </g>
    </g>
</svg>