<?xml version="1.0" encoding="UTF-8"?>
<svg width="152px" height="200px" viewBox="0 0 152 200" version="1.1" xmlns="http://www.w3.org/2000/svg" xmlns:xlink="http://www.w3.org/1999/xlink">
    <!-- Generator: Sketch 49 (51002) - http://www.bohemiancoding.com/sketch -->
    <title>f_pop1_4</title>
    <desc>Created with Sketch.</desc>
    <defs>
        <polygon id="path-1" points="0 0 152 0 152 210 76 166 8.22876159e-14 210"></polygon>
    </defs>
    <g id="f_pop1_4" stroke="none" stroke-width="1" fill="none" fill-rule="evenodd">
        <g id="Group-41" transform="translate(0.000000, -10.000000)">
            <g id="Group-35-Copy-4">
                <g id="Combined-Shape">
                    <use fill="#689BC8" fill-rule="evenodd" xlink:href="#path-1"></use>
                    <path stroke="#FFBD46" stroke-width="10" d="M5,5 L5,201.327764 L76,160.2225 L147,201.327764 L147,5 L5,5 Z"></path>
                    <path stroke="#689BC8" stroke-width="6" d="M3,3 L3,204.796658 L76,162.5335 L149,204.796658 L149,3 L3,3 Z"></path>
                </g>
                <g id="Group-20" transform="translate(34.000000, 44.000000)">
                    <path d="M41.273396,15.6494671 C39.8751084,15.6494671 38.7442077,14.5185664 38.7451234,13.1211945 L38.7451234,2.52827259 C38.7451234,1.13090063 39.8760241,0 41.273396,0 C42.670768,0 43.8016686,1.13090063 43.8016686,2.52827259 L43.8016686,13.1211945 C43.8016686,14.5185664 42.670768,15.6494671 41.273396,15.6494671 Z M61.656163,7.05645367 C62.354849,5.84680206 63.9033129,5.42191308 65.1102174,6.13250328 C66.319869,6.82935784 66.7346852,8.37507465 66.0359992,9.58472626 L60.7395383,18.7555521 C60.2706953,19.5659545 59.421833,20.0201462 58.5473309,20.0201462 C58.1178634,20.0201462 57.6829016,19.9111768 57.2854839,19.6795024 C56.0758323,18.9826479 55.6610161,17.4369311 56.359702,16.2272795 L61.656163,7.05645367 Z M79.2368604,22.4293766 C80.440102,21.7187864 81.9931445,22.1436754 82.6909148,23.353327 C83.3896008,24.5638943 82.9747846,26.1096112 81.765133,26.80555 L72.5924758,32.1047581 C72.195058,32.3364325 71.7600963,32.4454018 71.3306287,32.4454018 C70.4570423,32.4454018 69.6072644,31.9902945 69.1384214,31.1808077 C68.4397354,29.9702404 68.8545516,28.4245235 70.0642032,27.7285847 L79.2368604,22.4293766 Z M21.9345373,19.2399621 L16.6408235,10.0654735 C15.9421375,8.85490618 16.3569537,7.30918936 17.5666053,6.61325051 C18.7661841,5.9017446 20.3192266,6.32663359 21.0206597,7.5362852 L26.3143735,16.7116895 C27.0130595,17.9222568 26.5982433,19.4679737 25.3885917,20.1639125 C24.991174,20.3955869 24.5562122,20.5045563 24.1267447,20.5045563 C23.2531583,20.5045563 22.4033803,20.0494489 21.9345373,19.2399621 Z M10.4378106,32.938969 L1.26515343,27.6443395 C0.0555018185,26.9474849 -0.359314365,25.4017681 0.339371613,24.1921165 C1.03531046,22.9824649 2.58377441,22.5575759 3.79342602,23.2690818 L12.9660832,28.5627956 C14.1757348,29.2596502 14.590551,30.805367 13.891865,32.0150186 C13.423022,32.8254211 12.5741598,33.2796127 11.6996577,33.2796127 C11.2701901,33.2796127 10.8352283,33.1706434 10.4378106,32.938969 Z" id="Combined-Shape" fill="#FFFFFF" fill-rule="nonzero"></path>
                    <g id="Group-19" transform="translate(2.000000, 26.000000)" stroke="#FFFFFF" stroke-linecap="round" stroke-linejoin="round" stroke-width="3">
                        <polygon id="Rectangle-21" points="30.4666667 0 49.5333333 0 53 16 27 16"></polygon>
                        <polygon id="Rectangle-21-Copy-4" points="30.4666667 32 49.5333333 32 53 48 27 48"></polygon>
                        <polygon id="Rectangle-21-Copy-3" points="3.46666667 32 22.5333333 32 26 48 0 48"></polygon>
                        <polygon id="Rectangle-21-Copy-5" points="57.4666667 32 76.5333333 32 80 48 54 48"></polygon>
                        <polygon id="Rectangle-21-Copy" points="17.4666667 16 36.5333333 16 40 32 14 32"></polygon>
                        <polygon id="Rectangle-21-Copy-2" points="44.4666667 16 63.5333333 16 67 32 41 32"></polygon>
                    </g>
                </g>
            </g>
        </g>
    </g>
</svg>