<?xml version="1.0" encoding="UTF-8"?>
<svg width="43px" height="53px" viewBox="0 0 43 53" version="1.1" xmlns="http://www.w3.org/2000/svg" xmlns:xlink="http://www.w3.org/1999/xlink">
    <!-- Generator: Sketch 49 (51002) - http://www.bohemiancoding.com/sketch -->
    <title>img_logo</title>
    <desc>Created with Sketch.</desc>
    <defs></defs>
    <g id="img_logo" stroke="none" stroke-width="1" fill="none" fill-rule="evenodd">
        <g id="logo" transform="translate(0.000000, 0.969631)" fill-rule="nonzero">
            <path d="M0.5,33.4262473 L42.5,33.4262473 L42.5,0.5 L0.5,0.5 L0.5,33.4262473 Z M0.191318328,33.7436348 L0.191318328,0.181249946 L42.9455627,0.181249946 L42.9455627,33.7436348 L0.191318328,33.7436348 Z" id="Fill-1" stroke="#FFFFFF"></path>
            <polygon id="Fill-2" fill="#FFFFFF" points="22 27.9392625 22.499 27.9392625 22.499 6.98481562 22 6.98481562"></polygon>
            <g id="Group-11" transform="translate(0.000000, 11.475054)" fill="#FFFFFF">
                <path d="M17.8751375,2.82926023 L17.7376375,11.3566684 C17.7376375,11.631746 17.6001375,11.7692849 17.4626375,11.7692849 C17.3251375,11.7692849 17.0501375,11.631746 16.9126375,11.4942072 C15.9501375,10.6689742 14.3001375,8.88096925 12.7876375,7.36804202 C11.1376375,5.85511469 9.6251375,4.06710986 9.3501375,3.79203215 L9.2126375,3.79203215 L9.3501375,9.70620226 C9.3501375,10.806513 9.6251375,11.2191295 9.9001375,11.3566684 C10.1751375,11.3566684 10.3126375,11.4942072 10.5876375,11.4942072 C10.7251375,11.4942072 10.8626375,11.631746 10.8626375,11.631746 C10.8626375,11.7692849 10.7251375,11.7692849 10.5876375,11.7692849 L8.8001375,11.7692849 L7.2876375,11.7692849 C7.1501375,11.7692849 7.0126375,11.7692849 7.0126375,11.631746 C7.0126375,11.4942072 7.1501375,11.4942072 7.2876375,11.4942072 C7.4251375,11.4942072 7.5626375,11.4942072 7.8376375,11.3566684 C8.2501375,11.3566684 8.3876375,10.806513 8.3876375,9.56866346 L8.5251375,1.0412553 C8.5251375,0.628638794 8.5251375,0.491099991 8.8001375,0.491099991 C8.9376375,0.491099991 9.0751375,0.628638794 9.3501375,0.903716499 C9.4876375,1.0412553 11.8251375,3.37941564 13.8876375,5.58003708 C14.8501375,6.5428089 16.7751375,8.60589154 17.0501375,8.88096925 L17.1876375,8.88096925 L17.0501375,2.82926023 C17.0501375,1.72894951 16.7751375,1.31633301 16.5001375,1.1787942 C16.2251375,1.1787942 16.0876375,1.1787942 15.8126375,1.0412553 C15.6751375,1.0412553 15.5376375,0.903716499 15.5376375,0.903716499 C15.5376375,0.766177597 15.6751375,0.766177597 15.8126375,0.766177597 L17.6001375,0.766177597 L19.1126375,0.766177597 C19.2501375,0.766177597 19.3876375,0.766177597 19.3876375,0.903716499 C19.3876375,1.0412553 19.2501375,1.0412553 19.1126375,1.0412553 C18.8376375,1.0412553 18.8376375,1.0412553 18.5626375,1.1787942 C18.0126375,1.0412553 17.8751375,1.45387181 17.8751375,2.82926023" id="Fill-3"></path>
                <path d="M27.637775,9.56852586 C27.637775,10.8063755 27.500275,11.0814531 27.087775,11.218992 L26.537775,11.218992 C26.400275,11.218992 26.262775,11.3565308 26.262775,11.3565308 C26.262775,11.4940697 26.400275,11.4940697 26.537775,11.4940697 L28.462775,11.4940697 C28.875275,11.4940697 30.525275,11.6316085 30.800275,11.6316085 C33.550275,11.6316085 34.650275,9.98114236 34.650275,8.46821514 C34.650275,6.81774911 33.137775,5.71743839 32.037775,5.30482188 C32.862775,4.61712767 33.550275,3.92943345 33.550275,2.69158383 C33.550275,1.86635082 33.137775,0.49096239 30.387775,0.49096239 L28.325275,0.49096239 L26.400275,0.49096239 C26.262775,0.49096239 26.125275,0.628501293 26.125275,0.628501293 C26.125275,0.766040095 26.262775,0.766040095 26.400275,0.766040095 C26.675275,0.766040095 26.812775,0.766040095 27.087775,0.903578898 C27.500275,0.903578898 27.637775,1.31619551 27.637775,2.55404503 L27.637775,4.75466647 L27.637775,7.36790442 L27.637775,9.56852586 Z M33.137775,9.15590935 C33.137775,10.6688366 32.037775,11.0814531 31.350275,11.0814531 C31.075275,11.0814531 30.662775,11.0814531 30.250275,10.9439143 C29.837775,10.8063755 29.700275,10.5312978 29.700275,9.56852586 L29.700275,5.99251599 C29.700275,5.85497719 29.700275,5.85497719 29.837775,5.85497719 L30.525275,5.85497719 C31.075275,5.85497719 31.487775,5.99251599 31.762775,6.2675937 C32.862775,7.09282671 33.137775,8.19313743 33.137775,9.15590935 Z M29.837775,1.59127311 C29.837775,1.45373431 29.837775,1.31619551 29.975275,1.31619551 L30.525275,1.31619551 C31.762775,1.31619551 32.312775,2.55404503 32.312775,3.51681695 C32.312775,4.20451116 32.037775,4.75466647 31.762775,5.02974417 C31.487775,5.30482188 31.212775,5.30482188 30.662775,5.30482188 L29.975275,5.30482188 C29.975275,5.30482188 29.837775,5.30482188 29.837775,5.16728298 L29.837775,1.59127311 Z" id="Fill-5"></path>
                <path d="M7.2875,38.0389283 L8.8,38.0389283 L8.8,35.9758457 L7.2875,35.9758457 L7.2875,38.0389283 Z M7.975,31.8496805 C8.25,31.437064 8.3875,31.0244474 8.525,30.474292 L7.15,30.474292 L7.15,30.7493697 C7.2875,31.0244474 7.5625,31.437064 7.975,31.8496805 Z M7.2875,35.1506126 L8.6625,35.1506126 L9.075,34.6004573 L10.8625,35.0130738 L10.45,35.4256903 L10.45,39.2767779 L8.8,39.2767779 L8.8,38.7266225 L7.2875,38.7266225 L7.2875,39.2767779 L5.6375,39.2767779 L5.6375,34.875535 L7.2875,34.875535 L7.2875,35.1506126 Z M2.2,31.8496805 L3.3,31.8496805 L3.3,30.1992144 L2.2,30.1992144 L2.2,31.8496805 Z M2.2,29.3739813 L3.1625,29.3739813 L3.7125,28.823826 L5.3625,29.2364425 L4.95,29.649059 L4.95,33.0875301 L3.3,33.0875301 L3.3,32.5373747 L2.2,32.5373747 L2.2,33.0875301 L0.6875,33.0875301 L0.6875,28.9613648 L2.2,28.9613648 L2.2,29.3739813 Z M0.55,37.6263118 L0.55,33.7752242 L1.7875,33.7752242 L1.7875,37.3512341 L2.3375,37.2136953 L2.3375,33.2250689 L3.85,33.2250689 L3.85,34.1878408 L5.225,34.1878408 L5.225,34.4629184 C5.9125,34.0503019 6.7375,33.5001466 7.425,32.6749135 C7.15,32.262297 7.0125,31.7121417 6.7375,31.1619863 C6.1875,31.7121417 5.775,32.1247582 5.3625,32.5373747 L5.225,32.3998359 C5.775,31.437064 6.05,30.0616755 6.05,28.5487483 L7.975,28.5487483 L7.7,29.5115202 L8.9375,29.5115202 L9.35,28.9613648 L11.1375,29.3739813 L10.725,29.7865979 C10.3125,30.8869086 9.9,31.7121417 9.35,32.3998359 C10.0375,32.8124524 10.725,32.9499912 11.4125,32.9499912 L11.4125,33.5001466 C11,33.6376854 10.725,33.9127631 10.725,34.3253796 C10.725,34.4629184 10.725,34.6004573 10.8625,34.7379961 L10.5875,34.875535 C9.625,34.6004573 8.8,34.1878408 8.1125,33.6376854 C7.2875,34.1878408 6.1875,34.4629184 5.0875,34.7379961 L5.0875,35.1506126 L3.7125,35.1506126 L3.7125,36.9386176 C4.2625,36.8010788 4.95,36.526001 5.5,36.3884622 L5.5,36.526001 C4.675,37.3512341 3.9875,37.7638506 3.3,38.1764672 C2.75,38.4515448 1.7875,38.8641613 0.6875,39.139239 L0.275,37.6263118 L0.55,37.6263118 Z" id="Fill-7"></path>
                <path d="M24.337225,28.9616399 L24.337225,28.8227257 L24.887225,28.8227257 L25.437225,28.8227257 C25.987225,28.8227257 26.262225,28.9616399 26.262225,29.3742564 C26.262225,29.5104199 26.262225,29.6493341 26.124725,29.7868729 C25.987225,29.9244118 25.849725,29.9244118 25.712225,29.9244118 C25.574725,29.9244118 25.437225,29.7868729 25.024725,29.5104199 C24.749725,29.0991787 24.474725,28.9616399 24.337225,28.9616399 Z M23.924725,33.5004216 L24.749725,33.5004216 L24.749725,32.9502663 L23.924725,32.9502663 L23.924725,33.5004216 Z M23.924725,32.4001109 L24.749725,32.4001109 L24.749725,31.8499556 L23.924725,31.8499556 L23.924725,32.4001109 Z M21.724725,33.5004216 L22.412225,33.5004216 L22.412225,32.9502663 L21.724725,32.9502663 L21.724725,33.5004216 Z M21.724725,32.4001109 L22.412225,32.4001109 L22.412225,31.8499556 L21.724725,31.8499556 L21.724725,32.4001109 Z M20.074725,36.9388927 C20.212225,36.8013539 20.487225,36.8013539 20.899725,36.8013539 C21.312225,36.8013539 21.724725,36.8013539 21.862225,36.9388927 C22.137225,37.0750562 22.274725,37.0750562 22.274725,37.2139704 C22.412225,37.3515092 22.412225,37.489048 22.412225,37.6265869 C22.412225,37.7627503 22.274725,38.0392034 22.137225,38.1767422 C21.999725,38.3142811 21.862225,38.4504445 21.587225,38.4504445 C21.312225,38.4504445 20.899725,38.0392034 20.487225,37.3515092 C20.487225,37.2139704 20.349725,37.0750562 20.074725,36.9388927 Z M19.662225,30.4745671 L19.662225,29.7868729 L22.412225,29.7868729 L22.412225,28.8227257 L23.924725,28.8227257 L23.924725,29.7868729 L26.812225,29.7868729 L26.812225,30.4745671 L23.924725,30.4745671 L23.924725,31.1622614 L24.749725,31.1622614 L25.162225,30.612106 L26.812225,31.0247226 L26.262225,31.4373391 L26.262225,35.1508877 L24.612225,35.1508877 L24.612225,34.050577 L23.787225,34.050577 L23.787225,34.87581 L22.274725,34.87581 L22.274725,34.050577 L21.587225,34.050577 L21.587225,35.2884265 L19.937225,35.2884265 L19.937225,30.8858083 L21.587225,30.8858083 L21.587225,31.1622614 L22.274725,31.1622614 L22.274725,30.4745671 L19.662225,30.4745671 Z M24.062225,35.8385819 L24.062225,35.4259654 L25.712225,35.4259654 L25.712225,35.8385819 L26.674725,35.8385819 L26.674725,36.5262762 L25.712225,36.5262762 L25.712225,38.1767422 C25.712225,38.7268976 25.437225,39.0019753 25.024725,39.1381387 C24.612225,39.2770529 24.199725,39.2770529 23.924725,39.2770529 L23.649725,39.2770529 C23.649725,39.2770529 23.512225,39.1381387 23.512225,39.0019753 C23.512225,38.7268976 23.099725,38.4504445 22.549725,38.3142811 L22.549725,38.1767422 C23.099725,38.1767422 23.512225,38.3142811 23.649725,38.3142811 C24.062225,38.3142811 24.199725,38.1767422 24.199725,38.0392034 L24.199725,36.663815 L19.662225,36.663815 L19.662225,35.9761207 L24.062225,35.9761207 L24.062225,35.8385819 Z M16.087225,31.4373391 L16.087225,30.7496448 L17.187225,30.7496448 L17.187225,28.8227257 L18.974725,28.8227257 L18.974725,30.7496448 L19.799725,30.7496448 L19.799725,31.5735025 L18.974725,31.5735025 L18.974725,39.4145918 L17.187225,39.4145918 L17.187225,31.5735025 L16.087225,31.5735025 L16.087225,31.4373391 Z" id="Fill-9"></path>
                <path d="M38.9123625,35.7002178 C39.0498625,35.7002178 39.3248625,35.7002178 39.4623625,35.562679 C39.4623625,35.4265155 39.3248625,35.2876013 39.3248625,35.0125236 L39.4623625,35.0125236 L39.0498625,35.0125236 L39.0498625,35.7002178 L38.9123625,35.7002178 Z M38.9123625,34.4637437 L40.5623625,34.4637437 L40.8373625,34.1872906 L39.7373625,34.1872906 L39.7373625,33.9122129 L38.9123625,33.9122129 L38.9123625,34.4637437 Z M38.9123625,33.2245187 L39.7373625,33.2245187 L39.7373625,32.6757388 L38.9123625,32.6757388 L38.9123625,33.2245187 Z M38.9123625,31.9880446 L39.7373625,31.9880446 L39.7373625,31.4378892 L38.9123625,31.4378892 L38.9123625,31.9880446 Z M36.8498625,33.2245187 L37.6748625,33.2245187 L37.6748625,32.6757388 L36.8498625,32.6757388 L36.8498625,33.2245187 Z M36.8498625,31.9880446 L37.6748625,31.9880446 L37.6748625,31.4378892 L36.8498625,31.4378892 L36.8498625,31.9880446 Z M36.5748625,29.3734312 L36.5748625,28.685737 L37.8123625,28.685737 L37.8123625,29.3734312 L39.0498625,29.3734312 L39.0498625,28.685737 L40.2873625,28.685737 L40.2873625,29.3734312 L42.0748625,29.3734312 L42.0748625,30.0611254 L40.2873625,30.0611254 L40.2873625,30.4737419 L39.0498625,30.4737419 L39.0498625,30.0611254 L37.8123625,30.0611254 L37.8123625,30.4737419 L36.5748625,30.4737419 L36.5748625,30.0611254 L35.1998625,30.0611254 L35.1998625,29.3734312 L36.5748625,29.3734312 Z M32.1748625,28.685737 C33.2748625,28.8232758 33.6873625,28.9621901 33.8248625,28.9621901 C33.9623625,28.9621901 34.0998625,29.0983535 34.2373625,29.3734312 C34.3748625,29.51097 34.5123625,29.7860477 34.5123625,29.9249619 C34.5123625,30.1986642 34.3748625,30.3375784 34.2373625,30.4737419 C34.0998625,30.7488196 33.9623625,30.7488196 33.6873625,30.7488196 C33.4123625,30.7488196 33.1373625,30.1986642 32.5873625,29.2372677 C32.5873625,29.0983535 32.3123625,28.8232758 32.1748625,28.685737 Z M31.7623625,37.7633005 C32.1748625,37.4895982 32.5873625,37.0756063 32.8623625,36.9380675 L32.8623625,32.5368246 L31.6248625,32.5368246 L31.6248625,31.8491304 L32.8623625,31.8491304 L33.2748625,31.4365139 L34.9248625,31.7129669 L34.3748625,32.124208 L34.3748625,36.5268263 C34.5123625,36.801904 34.7873625,37.0756063 35.0623625,37.2145205 L35.0623625,34.0511272 L36.4373625,34.0511272 L36.4373625,34.1872906 L37.5373625,34.1872906 L37.5373625,33.6371353 L36.7123625,33.6371353 L36.7123625,33.9122129 L35.1998625,33.9122129 L35.1998625,30.4737419 L36.7123625,30.4737419 L36.7123625,30.7488196 L39.7373625,30.7488196 L40.1498625,30.4737419 L41.7998625,30.8863584 L41.1123625,31.1614361 L41.1123625,33.9122129 L42.3498625,34.3248294 L41.9373625,34.7388213 L41.9373625,36.9380675 C41.9373625,37.2145205 41.9373625,37.4895982 41.7998625,37.4895982 C41.6623625,37.6257617 41.5248625,37.6257617 41.2498625,37.7633005 C40.9748625,37.7633005 40.6998625,37.9022147 40.5623625,37.9022147 C40.4248625,37.9022147 40.2873625,37.7633005 40.2873625,37.6257617 C40.2873625,37.4895982 40.1498625,37.350684 40.0123625,37.350684 C39.8748625,37.2145205 39.4623625,37.2145205 38.9123625,37.0756063 L39.0498625,36.9380675 L40.1498625,36.9380675 L40.5623625,36.9380675 C40.6998625,36.9380675 40.6998625,36.801904 40.6998625,36.6629897 L40.6998625,35.1514379 L39.5998625,35.1514379 C40.2873625,35.4265155 40.5623625,35.839132 40.5623625,36.1142097 C40.5623625,36.2503732 40.5623625,36.387912 40.4248625,36.387912 C40.2873625,36.5268263 40.1498625,36.5268263 40.0123625,36.5268263 C39.7373625,36.5268263 39.5998625,36.387912 39.5998625,35.9752955 C38.7748625,36.2503732 38.0873625,36.5268263 37.3998625,36.6629897 L36.8498625,35.7002178 L37.8123625,35.7002178 L37.8123625,35.0125236 L36.7123625,35.0125236 L36.7123625,37.4895982 L35.4748625,37.4895982 C36.2998625,37.7633005 37.3998625,38.0383782 39.0498625,38.0383782 L42.6248625,38.0383782 L42.6248625,38.1772924 C42.0748625,38.3134558 41.9373625,38.5899089 41.9373625,38.8649866 L41.9373625,39.1386889 L41.7998625,39.2776031 L38.6373625,39.2776031 C37.5373625,39.2776031 36.7123625,39.1386889 36.2998625,39.00115 C35.8873625,38.8649866 35.4748625,38.7260724 35.1998625,38.4509947 C34.9248625,38.3134558 34.6498625,37.9022147 34.2373625,37.4895982 C34.0998625,37.350684 33.9623625,37.2145205 33.9623625,37.2145205 C33.8248625,37.2145205 33.6873625,37.4895982 33.4123625,37.9022147 L32.7248625,39.00115 L31.7623625,37.7633005 Z" id="Fill-10"></path>
            </g>
        </g>
    </g>
</svg>