<?xml version="1.0" encoding="utf-8"?>
<!-- Generator: Adobe Illustrator 22.0.1, SVG Export Plug-In . SVG Version: 6.00 Build 0)  -->
<svg version="1.1" id="圖層_1" xmlns="http://www.w3.org/2000/svg" xmlns:xlink="http://www.w3.org/1999/xlink" x="0px" y="0px"
	 viewBox="0 0 570 372" style="enable-background:new 0 0 570 372;" xml:space="preserve">
<style type="text/css">
	.st0{fill:none;stroke:#708CB1;stroke-width:4;stroke-linecap:round;stroke-linejoin:round;}
	.st1{fill:none;stroke:#D2BEA6;stroke-width:4;stroke-linecap:round;stroke-linejoin:round;}
	.st2{enable-background:new    ;}
	.st3{fill:#4A4A4A;}
	.st4{fill:#D2BEA6;}
	.st5{fill:#708CB1;}
	.st6{fill:#BCBCBC;}
</style>
<title>pop1_3 copy</title>
<desc>Created with Sketch.</desc>
<g id="pop1_3-copy">
	<g id="Group-19">
		<polyline id="Path-3-Copy" class="st0" points="58,214.8 73.2,162.6 111.1,247.3 153.5,237.6 164.8,237.6 178,241.7 189.3,253.7 
			218.2,207.4 230.8,201.7 244.3,207.4 257.9,195.1 282.3,205 296.9,205 311.5,186.5 326.5,196.3 363.8,195.1 376.9,182 403.1,182 
			418,186.5 430,155.7 442.4,170 456.9,177.9 469.2,177.9 482.3,164.4 495.1,189 506.1,189 523.2,199.2 536.2,212.4 551,214.8 		"/>
		<polyline id="Path-3" class="st1" points="58,136.5 73.2,33.7 84.9,98 98,127.5 111.1,199.7 125.5,172.1 138.1,182.9 153.5,141.1 
			164.8,141.1 178,122.5 189.3,130.5 203.7,104.8 218.2,47.3 244.3,136.5 257.9,116.7 269.9,154.4 282.9,154.4 296.9,141.1 
			311.5,80.6 326.5,65.4 337.5,60 351.4,47.3 363.8,60 376.9,39.3 388.6,62.6 403.1,68.2 418,65.4 430,77.1 442.4,104.8 
			456.9,116.7 469.2,92.2 482.3,104.8 495.1,133.2 523.2,159.3 536.2,175.6 551,154.4 		"/>
		<g class="st2">
			<path class="st3" d="M9.9,12.4c0.8,1.3,1.1,3,1.1,5.2s-0.4,3.9-1.1,5.2C9,24.2,7.7,25,6,25s-3-0.8-3.9-2.3
				c-0.8-1.3-1.1-3-1.1-5.2s0.4-3.9,1.1-5.2C3,10.9,4.3,10.2,6,10.2S9,10.9,9.9,12.4z M3.2,13.6c-0.4,1-0.6,2.3-0.6,4s0.2,3,0.6,4
				C3.8,23,4.7,23.7,6,23.7s2.2-0.7,2.8-2.1c0.4-1,0.6-2.3,0.6-4s-0.2-3-0.6-4c-0.6-1.4-1.5-2.1-2.8-2.1S3.8,12.2,3.2,13.6z"/>
			<path class="st3" d="M15.5,22.7c0.2,0.2,0.4,0.5,0.4,0.9c0,0.3-0.1,0.6-0.4,0.9c-0.2,0.2-0.5,0.4-0.9,0.4s-0.6-0.1-0.9-0.4
				c-0.2-0.2-0.4-0.5-0.4-0.9s0.1-0.6,0.4-0.9c0.2-0.2,0.5-0.4,0.9-0.4C15,22.3,15.3,22.5,15.5,22.7z"/>
			<path class="st3" d="M27.7,10.4v1.5h-7l-0.5,4.8h0.1c0.4-0.5,0.9-0.8,1.5-1.1c0.6-0.2,1.2-0.3,1.8-0.3c1.4,0,2.5,0.4,3.3,1.3
				s1.3,2.1,1.3,3.6c0,1.4-0.5,2.6-1.5,3.5S24.5,25,23.1,25c-1.3,0-2.3-0.3-3.2-1c-1-0.8-1.5-1.8-1.6-3.1h1.6
				c0.1,0.9,0.4,1.6,1.1,2.1c0.6,0.4,1.3,0.6,2.2,0.6c1,0,1.8-0.3,2.5-1c0.6-0.6,1-1.5,1-2.5c0-1.1-0.3-2-0.9-2.6s-1.4-0.9-2.4-0.9
				c-0.7,0-1.3,0.1-1.8,0.4c-0.6,0.3-1,0.7-1.3,1.3h-1.6l0.8-7.9H27.7z"/>
		</g>
		<g class="st2">
			<path class="st3" d="M9.9,141.4c0.8,1.3,1.1,3,1.1,5.2s-0.4,3.9-1.1,5.2C9,153.2,7.7,154,6,154s-3-0.8-3.9-2.3
				c-0.8-1.3-1.1-3-1.1-5.2s0.4-3.9,1.1-5.2C3,139.8,4.2,139,6,139C7.7,139.2,9,139.9,9.9,141.4z M3.2,142.6c-0.4,1-0.6,2.3-0.6,4
				s0.2,3,0.6,4c0.6,1.4,1.5,2.1,2.8,2.1s2.2-0.7,2.8-2.1c0.4-1,0.6-2.3,0.6-4s-0.2-3-0.6-4c-0.6-1.4-1.5-2.1-2.8-2.1
				S3.8,141.2,3.2,142.6z"/>
			<path class="st3" d="M15.5,151.7c0.2,0.2,0.4,0.5,0.4,0.9c0,0.3-0.1,0.6-0.4,0.9c-0.2,0.2-0.5,0.4-0.9,0.4s-0.6-0.1-0.9-0.4
				c-0.2-0.2-0.4-0.5-0.4-0.9s0.1-0.6,0.4-0.9c0.2-0.2,0.5-0.4,0.9-0.4S15.3,151.5,15.5,151.7z"/>
			<path class="st3" d="M26.5,139.4v9.7h2.3v1.3h-2.3v3.2h-1.6v-3.2h-7.2v-1.6l7.2-9.5h1.6V139.4z M19.1,149.1h5.8v-7.6h-0.1
				L19.1,149.1z"/>
		</g>
		<g class="st2">
			<path class="st3" d="M9.9,275.4c0.8,1.3,1.1,3,1.1,5.2s-0.4,3.9-1.1,5.2C9,287.2,7.7,288,6,288s-3-0.8-3.9-2.3
				c-0.8-1.3-1.1-3-1.1-5.2s0.4-3.9,1.1-5.2C3,273.8,4.2,273,6,273C7.7,273.2,9,273.9,9.9,275.4z M3.2,276.6c-0.4,1-0.6,2.3-0.6,4
				s0.2,3,0.6,4c0.6,1.4,1.5,2.1,2.8,2.1s2.2-0.7,2.8-2.1c0.4-1,0.6-2.3,0.6-4s-0.2-3-0.6-4c-0.6-1.4-1.5-2.1-2.8-2.1
				S3.8,275.2,3.2,276.6z"/>
			<path class="st3" d="M15.5,285.7c0.2,0.2,0.4,0.5,0.4,0.9c0,0.3-0.1,0.6-0.4,0.9c-0.2,0.2-0.5,0.4-0.9,0.4s-0.6-0.1-0.9-0.4
				c-0.2-0.2-0.4-0.5-0.4-0.9s0.1-0.6,0.4-0.9c0.2-0.2,0.5-0.4,0.9-0.4C15,285.3,15.3,285.5,15.5,285.7z"/>
			<path class="st3" d="M26.7,274.2c0.8,0.7,1.2,1.6,1.2,2.8c0,1.6-0.8,2.7-2.3,3.2c0.8,0.3,1.5,0.7,1.9,1.2
				c0.5,0.6,0.7,1.3,0.7,2.1c0,1.3-0.5,2.4-1.4,3.2c-0.9,0.8-2.1,1.3-3.6,1.3c-1.4,0-2.5-0.4-3.3-1c-1-0.8-1.6-2.1-1.7-3.7H20
				c0,1.1,0.4,2,1.1,2.6c0.6,0.5,1.3,0.7,2.2,0.7c1,0,1.8-0.3,2.5-0.9c0.6-0.6,0.9-1.3,0.9-2.1c0-0.9-0.3-1.5-0.8-2
				c-0.6-0.5-1.3-0.7-2.3-0.7h-1.2v-1.3h1.1c1,0,1.7-0.2,2.2-0.6s0.8-1.1,0.8-1.9s-0.3-1.4-0.7-1.9c-0.5-0.5-1.3-0.7-2.2-0.7
				c-1,0-1.7,0.2-2.2,0.8c-0.6,0.5-0.9,1.3-1,2.2h-1.6c0.1-1.4,0.6-2.5,1.5-3.2c0.8-0.8,1.9-1.2,3.3-1.2
				C24.8,273.2,25.9,273.5,26.7,274.2z"/>
		</g>
		<g class="st2">
			<path class="st4" d="M246,5.8V2.4h1.9v3.5h7.6v1.8h-6.1c1.3,3,3.6,5.7,6.8,8.1l-1.3,1.6c-3.3-2.9-5.7-6.1-7-9.7l0,0V15h4.1v1.8
				h-4v3.9h-2v-3.9h-4V15h4V7.7l0,0c-1.4,4-3.9,7.4-7.3,10l-1.1-1.8c3.2-2.1,5.5-4.9,6.9-8.2h-6.2V5.8H246z"/>
			<path class="st4" d="M261.9,3.7V2.3h1.8v1.4h6.5V2.3h1.8v1.4h3.4v1.6H272v6.3h3.7v1.6h-3.8c1,1,2.4,1.8,4.1,2.4l-0.8,1.6
				c-1.4-0.6-2.5-1.3-3.4-2.1v1.6h-3.9v1.6h6.7v1.8h-15.4v-1.8h6.8v-1.6h-3.9v-1.6c-0.9,0.7-1.9,1.4-3.2,2l-1-1.6
				c1.8-0.6,3.1-1.4,4.1-2.4h-3.8v-1.6h3.7V5.3h-3.4V3.7H261.9z M266.1,15.1v-1.4h1.8v1.4h3.9c-0.7-0.6-1.3-1.2-1.7-1.9H264
				c-0.5,0.7-1,1.3-1.7,1.9H266.1z M270.2,6.4V5.3h-6.5v1.1H270.2z M270.2,9V7.9h-6.5V9H270.2z M270.2,11.5v-1.1h-6.5v1.1H270.2z"/>
			<path class="st4" d="M278.9,9.8l-1.1-1.6c3.5-1.5,6.3-3.5,8.4-5.8h1.5c1.9,2.3,4.6,4.2,8.4,5.8L295,9.8c-1-0.4-1.9-0.8-2.7-1.3v1
				H288v2.4h7v1.8h-7v4.9h1.9c0.6-1.2,1.2-2.6,1.6-4l1.7,0.6c-0.4,1.3-0.9,2.4-1.4,3.4h3.9v1.8h-17.2v-1.8h3.9
				c-0.4-1.1-0.9-2.2-1.4-3.2l1.7-0.6c0.6,1.1,1.1,2.4,1.6,3.9h1.9v-4.9h-7V12h7V9.6h-4.4V8.3C280.8,8.9,279.9,9.3,278.9,9.8z
				 M287,4.2c-1.3,1.4-2.8,2.6-4.4,3.6h8.6C289.6,6.7,288.2,5.5,287,4.2z"/>
			<path class="st4" d="M306,7.8h-4.7v12.8h-1.9V6h6.8V4.4h-2.3V2.6h4.2V6h6.8v12.3c0,1.4-0.7,2.1-2.1,2.1h-3.1l-0.5-1.8l3,0.1
				c0.5,0,0.7-0.3,0.7-0.8V7.8h-4.6c0.5,2.6,2,4.9,4.6,6.9l-1.3,1.7c-2.1-2-3.5-4.2-4.4-6.4c-0.9,2.4-2.4,4.6-4.5,6.6l-1.3-1.7
				C303.9,12.8,305.4,10.4,306,7.8z"/>
			<path class="st4" d="M335.9,11.7v1.6h-8.3l-0.6,1.2h7.7v4.4c0,1.2-0.6,1.8-1.9,1.8h-1.4l-0.4-1.6l1.3,0.1c0.4,0,0.6-0.2,0.6-0.7
				V16h-2.7v4.5h-1.8V16h-2.5v4.5h-1.8V16h-2.5v4.8h-1.8v-6.3h5.4l0.5-1.2h-7.6v-1.6C318.1,11.7,335.9,11.7,335.9,11.7z M334.7,2.9
				v1.5h-6.8v0.9h7.7v4.3h-1.8V6.8H328V11h-1.8V6.8h-5.8v2.8h-1.8V5.4h7.7V4.5h-6.8V2.9H334.7z M325.2,10.6
				c-0.8,0.2-2.1,0.3-3.9,0.5l-0.4-1.3c1.8-0.1,3.1-0.2,3.9-0.3L325.2,10.6z M325.3,7.8L324.8,9c-1.2-0.2-2.4-0.3-3.6-0.4l0.6-1.2
				C323,7.4,324.1,7.6,325.3,7.8z M333.1,10l-0.5,1.2c-1.2-0.3-2.5-0.5-3.8-0.6l0.6-1.1C330.6,9.6,331.9,9.7,333.1,10z M328.8,7.7
				c1.3-0.1,2.5-0.2,3.5-0.4l0.5,1.3c-1.1,0.2-2.3,0.3-3.7,0.5L328.8,7.7z"/>
			<path class="st4" d="M338.9,5.2V3.6h7.5c-0.2-0.4-0.4-0.8-0.6-1.1l1.9-0.3c0.2,0.4,0.4,0.9,0.6,1.4h6.8v1.6H352l0.8,0.5
				C351.9,6.2,351,6.6,350,7c1.4,0.4,2.7,0.8,3.9,1.2L353,9.1h2.3v1.6h-14.1v2.1c0,0.7-0.1,1.3-0.1,1.9c1.2-0.9,2.1-2.1,2.7-3.6
				l1.5,0.6l-0.4,0.9h3v-1.4h1.8v1.4h5v1.7h-5v1.5h4.6v1.6h-4.6v1.4h6v1.6h-14.5v-1.6h6.6v-1.4h-4.6v-1.6h4.6v-1.5h-4
				c-0.5,0.7-1,1.2-1.6,1.7l-1.2-1.1c-0.2,2.4-0.8,4.4-1.8,6l-1.4-1.3c1-1.6,1.5-3.9,1.5-6.8V9.1h12.8c-1.2-0.5-2.7-0.9-4.3-1.4
				c-2,0.6-4.2,1-6.6,1.3l-0.9-1.2c1.8-0.2,3.5-0.5,5-0.8c-1.2-0.3-2.5-0.6-3.8-1l0.9-0.9L338.9,5.2L338.9,5.2z M342.9,5.2
				c1.8,0.4,3.4,0.8,4.9,1.2C349,6,350,5.6,351,5.2H342.9z"/>
			<path class="st4" d="M366.1,2.3v2.9h1.7V2.3h1.8v2.9h1.4c0.5-0.8,1-1.7,1.4-2.6l1.8,0.7c-0.4,0.7-0.8,1.4-1.3,2h2.9V7h-5.6
				l1.5,0.5c-0.3,0.5-0.6,0.9-0.9,1.3h4v1.7H368v1.1h6V13h-6v1.1h7.8v1.7H368v5h-2v-5h-7.8v-1.7h7.8V13h-6v-1.6h6v-1.1h-6.9V8.7h4
				c-0.3-0.5-0.6-0.9-0.9-1.3l1.3-0.5h-5.3V5.2h2.8c-0.3-0.7-0.7-1.3-1.2-1.9l1.8-0.7c0.4,0.7,0.8,1.6,1.2,2.6h1.4V2.3H366.1z
				 M364.2,17.3c-1.2,1.2-2.7,2.3-4.5,3.2l-1.2-1.5c1.8-0.8,3.3-1.8,4.5-2.8L364.2,17.3z M364.2,6.9c0.3,0.5,0.7,1.1,1,1.8h3.6
				c0.4-0.6,0.8-1.2,1.1-1.8C369.9,6.9,364.2,6.9,364.2,6.9z M375.5,19.2l-1.4,1.4c-1-1-2.4-2-4.2-3.1l1.2-1.2
				C372.9,17.2,374.3,18.2,375.5,19.2z"/>
			<path class="st4" d="M381.1,18.2c1.7-0.4,3.3-0.9,5-1.4l0.5,1.8c-2.3,0.7-4.7,1.4-7.4,1.9l-0.6-1.8c0.4-0.2,0.6-0.6,0.6-1.1v-15
				h1.9V8h5v1.9h-5V18.2z M389.5,20.2c-1.4,0-2.1-0.8-2.1-2.3V2.6h1.9v5.6l6-0.4v1.8l-6,0.4v7.6c0,0.5,0.3,0.8,0.8,0.8h2.8
				c0.3,0,0.6-0.1,0.8-0.4c0.3-0.3,0.5-1.4,0.5-3.4l1.8,0.6c-0.2,2.4-0.5,3.9-0.9,4.3s-1,0.7-1.8,0.7H389.5z"/>
			<path class="st4" d="M406,8.1v-1h-7.6V5.6h7.6V4.5c-1.9,0.1-3.9,0.2-6.1,0.3l-0.3-1.5c5.2-0.2,9.8-0.4,13.8-0.8L414,4
				c-1.9,0.2-3.9,0.3-6.1,0.5v1.2h7.7v1.6h-7.7v1h6.1V15h-6.1v1.1h7v1.5h-7v1.1h8v1.6h-17.8v-1.6h7.9v-1.1h-6.9v-1.5h6.9V15h-6.1
				V8.1H406z M406,10.8V9.6h-4.3v1.2H406z M406,12.3h-4.3v1.2h4.3V12.3z M407.9,10.8h4.3V9.6h-4.3V10.8z M412.2,12.3h-4.3v1.2h4.3
				V12.3z"/>
			<path class="st4" d="M422.8,2.2c-0.8,1.4-1.5,2.7-1.9,4.1c-0.6,1.7-0.9,3.5-0.9,5.2s0.3,3.5,0.9,5.2c0.4,1.4,1.1,2.8,1.9,4.1H421
				c-0.9-1.3-1.7-2.7-2.2-4.1c-0.6-1.7-0.9-3.4-0.9-5.2s0.3-3.6,0.9-5.3c0.5-1.4,1.2-2.8,2.2-4.1L422.8,2.2L422.8,2.2z"/>
			<path class="st4" d="M442.3,3.2v1.9h-6.5c-0.4,0.8-0.7,1.5-1.2,2.2v0.9c3.1,1.8,5.9,3.8,8.1,5.9l-1.3,1.6c-1.9-2-4.1-3.8-6.8-5.5
				v10.6h-2V10c-1.8,2.1-4.2,4.1-7,5.7l-1.3-1.7c4.4-2.5,7.5-5.5,9.2-9H425V3.2H442.3z"/>
			<path class="st4" d="M454.4,2.4c1.7,2.1,4.5,3.9,8.6,5.5l-1,1.6c-1.7-0.7-3.2-1.4-4.5-2.2v0.8h-7.8V7.4c-1.3,0.8-2.8,1.5-4.4,2.1
				l-1.1-1.6c3.7-1.4,6.6-3.2,8.6-5.5C452.8,2.4,454.4,2.4,454.4,2.4z M460.3,20.8h-1.8V20h-9.7v0.8H447v-7h7.4
				c0.9-0.7,1.8-1.5,2.7-2.4h-9.5V9.7h11.9v1.5c-0.7,0.9-1.5,1.8-2.4,2.6h3.3v7H460.3z M458.5,18.2v-2.7h-9.7v2.7H458.5z M456.3,6.5
				c-1.1-0.8-1.9-1.6-2.7-2.4c-0.8,0.9-1.8,1.7-2.7,2.4H456.3z"/>
			<path class="st4" d="M465.6,9.8l-1.1-1.6c3.5-1.5,6.3-3.5,8.4-5.8h1.5c1.9,2.3,4.6,4.2,8.4,5.8l-1.1,1.6c-1-0.4-1.9-0.8-2.7-1.3
				v1h-4.4v2.4h7v1.8h-7v4.9h1.9c0.6-1.2,1.2-2.6,1.6-4l1.7,0.6c-0.4,1.3-0.9,2.4-1.4,3.4h3.9v1.8h-17.2v-1.8h3.9
				c-0.4-1.1-0.9-2.2-1.4-3.2l1.7-0.6c0.6,1.1,1.1,2.4,1.6,3.9h1.9v-4.9h-7V12h7V9.6h-4.4V8.3C467.5,8.9,466.6,9.3,465.6,9.8z
				 M473.7,4.2c-1.3,1.4-2.8,2.6-4.4,3.6h8.6C476.3,6.7,474.9,5.5,473.7,4.2z"/>
			<path class="st4" d="M494.4,3v1.7h-9.6V3H494.4z M491,20.6l-0.5-1.7l1.3,0.1c0.3,0,0.5-0.1,0.5-0.4v-6h-5.7v8.2H485v-9.7h9V19
				c0,1.1-0.5,1.6-1.6,1.6H491z M493.2,5.6v4.6h-7.4V5.6H493.2z M488,15.6c-0.2-0.7-0.5-1.4-0.8-2l1.2-0.4c0.3,0.6,0.6,1.3,0.8,2.1
				l-1,0.3h1.4c0.3-0.8,0.6-1.7,0.9-2.6l1.3,0.4c-0.2,0.8-0.5,1.5-0.8,2.1h0.9v1.4h-1.7v3.5h-1.5v-3.5h-1.5v-1.4h0.8V15.6z
				 M491.6,7.1h-4.1v1.6h4.1V7.1z M497.5,5.7V2.4h1.8v3.3h2.8v8.4h-2.8V18l1.4-0.3c-0.2-0.8-0.4-1.5-0.6-2.2l1.5-0.5
				c0.5,1.5,1,3.2,1.4,5.1l-1.6,0.4c-0.1-0.4-0.2-0.9-0.3-1.3c-1.9,0.5-4,0.9-6.2,1.2l-0.4-1.8c1-0.1,2-0.2,3-0.4V14h-2.7V5.7H497.5
				z M497.6,7.4h-1.2v5.1h1.2V7.4z M500.5,7.4h-1.3v5.1h1.3V7.4z"/>
			<path class="st4" d="M508.2,14.2c0-0.1,0-0.3,0-0.4v-1.9h1.8v1.9c0,0.1,0,0.3,0,0.4h1.9c-0.3-0.5-0.8-1.1-1.3-1.8l1.2-0.7
				c0.6,0.7,1.1,1.3,1.4,1.8l-1.1,0.7h1.4v1.6h-3.7l-0.1,0.2c1.4,1.1,2.6,2.1,3.6,3.2l-1.3,1.3c-0.7-1-1.7-1.9-2.9-3
				c-0.7,1.4-1.8,2.6-3.3,3.4l-1.4-1.2c1.8-0.9,2.9-2.2,3.4-3.9H505v-1.6C505,14.2,508.2,14.2,508.2,14.2z M508.1,9.3
				c-0.7,1.1-1.6,2-2.6,2.8l-1-1.3c1-0.7,1.8-1.6,2.5-2.5L508.1,9.3z M508.5,6.2V2.4h1.8v3.7h3.3v1.5h-3.3v3.8h-1.8V7.7h-3.4V6.2
				H508.5z M507.9,5.2l-1.3,0.6c-0.4-1-0.8-1.8-1.3-2.5l1.4-0.5C507.2,3.6,507.6,4.4,507.9,5.2z M513.9,10.6l-1,1.1
				c-0.8-1-1.5-1.8-2.3-2.5l0.9-1C512.4,8.9,513.2,9.7,513.9,10.6z M513.3,3.3c-0.4,0.9-0.8,1.7-1.3,2.4l-1.2-0.9
				c0.4-0.6,0.8-1.3,1.1-2.2L513.3,3.3z M516.6,16.9l1.2,1c-0.9,1.1-1.9,2.1-3.2,3l-1-1.3C514.8,18.8,515.7,17.9,516.6,16.9h-2.1V6
				h2.7l0.1-1.4h-3.6V2.9h9v1.7h-3.5L519,6h3.1v10.8H520c1.2,0.9,2.1,1.8,2.9,2.7l-1.2,1.2c-0.7-0.9-1.7-1.8-2.9-2.8l1.1-1.1
				L516.6,16.9L516.6,16.9z M520.3,9.1V7.6h-4.1v1.5H520.3z M520.3,12.1v-1.4h-4.1v1.4H520.3z M520.3,13.7h-4.1v1.5h4.1V13.7z"/>
			<path class="st4" d="M532,18.8c0,1.3-0.7,1.9-2,1.9h-1.5L528,19c0.5,0,1,0.1,1.5,0.1s0.7-0.3,0.7-1V14c-0.9,0.2-1.8,0.4-2.8,0.5
				c-0.2,2.5-0.7,4.6-1.6,6.3l-1.4-1.3c0.9-1.8,1.3-4,1.4-6.7V2.9h6.2L532,18.8L532,18.8z M530.2,8.2V4.6h-2.7v3
				C528.4,7.8,529.3,8,530.2,8.2z M530.2,12.3V9.9c-0.9-0.2-1.8-0.5-2.7-0.6v3.5C528.5,12.6,529.4,12.5,530.2,12.3z M541.6,10.7v1.8
				c-0.5,1.8-1.3,3.4-2.5,4.7c1.1,0.8,2.4,1.5,3.9,2.1l-1,1.6c-1.6-0.7-3-1.6-4.1-2.5c-1.3,1-2.8,1.9-4.6,2.5l-1-1.6
				c1.6-0.6,3-1.3,4.2-2.2c-1.3-1.4-2.1-2.9-2.6-4.5H533v-1.8h8.6V10.7z M540.7,2.9v4.2c0,0.4,0.2,0.7,0.6,0.7h1.4v1.8h-1.9
				c-1.3,0-2-0.7-2-2V4.7h-2.9v0.9c0,2-0.8,3.5-2.2,4.6l-1.3-1.4c1.1-0.7,1.7-1.7,1.7-3V2.9H540.7z M537.7,15.9
				c0.9-1,1.6-2.1,2.1-3.3h-4.2C536,13.8,536.7,14.9,537.7,15.9z"/>
			<path class="st4" d="M546.3,2.2c0.9,1.3,1.6,2.7,2.2,4.1c0.6,1.7,0.9,3.4,0.9,5.3c0,1.8-0.3,3.5-0.9,5.2
				c-0.5,1.4-1.2,2.8-2.2,4.1h-1.8c0.8-1.4,1.5-2.8,1.9-4.1c0.6-1.7,0.9-3.5,0.9-5.2s-0.3-3.5-0.9-5.2c-0.5-1.4-1.1-2.8-1.9-4.1
				L546.3,2.2L546.3,2.2z"/>
		</g>
		<g class="st2">
			<path class="st5" d="M342.6,237.7v-1.4h1.8v1.4h6.5v-1.4h1.8v1.4h3.4v1.6h-3.4v6.3h3.7v1.6h-3.8c1,1,2.4,1.8,4.1,2.4l-0.8,1.6
				c-1.4-0.6-2.5-1.3-3.4-2.1v1.6h-3.9v1.6h6.7v1.8h-15.4v-1.8h6.8v-1.6h-3.9v-1.6c-0.9,0.7-1.9,1.4-3.2,2l-1-1.6
				c1.8-0.6,3.1-1.4,4.1-2.4h-3.8v-1.6h3.7v-6.3h-3.4v-1.6h3.4V237.7z M346.8,249.1v-1.4h1.8v1.4h3.9c-0.7-0.6-1.3-1.2-1.7-1.9h-6.1
				c-0.5,0.7-1,1.3-1.7,1.9H346.8z M350.9,240.4v-1.1h-6.5v1.1H350.9z M350.9,243v-1.1h-6.5v1.1H350.9z M350.9,245.5v-1.1h-6.5v1.1
				H350.9z"/>
			<path class="st5" d="M362.5,241.4l-0.9,1.5c-1-0.8-2.1-1.3-3.1-1.8l1-1.4C360.5,240.1,361.5,240.7,362.5,241.4z M363.9,244.6
				c-1,1.4-2.3,2.6-3.9,3.8l-1.3-1.5c1.6-1.1,3-2.3,4.1-3.6L363.9,244.6z M366.7,249.3v-1.5h1.9v1.5h8v1.8h-8v3.7h-1.9v-3.7h-8v-1.8
				H366.7z M364,238.3l-0.9,1.4c-1.1-0.9-2.2-1.5-3.3-2l0.9-1.4C361.9,236.9,363,237.5,364,238.3z M363.7,243.5l-0.6-1.8
				c1.6-1.7,2.7-3.5,3.3-5.4l1.8,0.4c-0.2,0.5-0.4,1-0.6,1.5h2.6c-0.2-0.6-0.4-1.1-0.6-1.6l1.9-0.3c0.2,0.6,0.4,1.2,0.6,1.9h4.1v1.6
				h-4v1h3.6v1.5h-3.6v1h3.6v1.5h-3.6v1.1h4.2v1.6h-11.2V242C364.7,242.5,364.2,243,363.7,243.5z M366.9,239.7v1h3.4v-1H366.9z
				 M366.9,242.3v1h3.4v-1H366.9z M366.9,244.8v1.1h3.4v-1.1H366.9z"/>
			<path class="st5" d="M379.2,254.6l-0.4-1.8c0.6,0.1,1.3,0.1,1.8,0.1s0.7-0.3,0.7-0.7v-4.3c-0.8,0.3-1.6,0.5-2.4,0.8l-0.5-1.9
				c1-0.2,1.9-0.5,2.9-0.8v-4.2h-2.5V240h2.5v-3.6h1.8v3.6h2.1v1.8h-2.1v3.5c0.8-0.3,1.5-0.6,2.2-1v1.9c-0.7,0.3-1.5,0.6-2.2,0.9
				v5.4c0,1.3-0.6,2-1.9,2h-2V254.6z M396.1,239.4l-8,0.4v1.3c0,0.5,0.2,0.7,0.8,0.7h7.6v1.7H388c-1.1,0-1.6-0.6-1.6-1.7v-5.4h1.8
				v1.6l8-0.4L396.1,239.4L396.1,239.4z M395.9,254.8H394v-0.9h-5.7v0.9h-1.9v-9.6h9.5V254.8z M394,248.7v-1.8h-5.7v1.8H394z
				 M394,252.2v-1.9h-5.7v1.9H394z"/>
			<path class="st5" d="M403.1,254.7h-1.8V245c-0.6,1.7-1.3,3.3-2.1,4.7l-0.8-2.1c1.3-1.8,2.2-3.8,2.8-6.1H399v-1.8h2.3v-3.5h1.8
				v3.5h2v1.8h-2v1c0.8,0.9,1.7,2,2.5,3.1l-1.1,1.7c-0.5-1.1-1-1.9-1.4-2.6L403.1,254.7L403.1,254.7z M408.8,251.3
				c-0.9,1.3-1.9,2.4-3.2,3.3l-1.1-1.4c1.2-0.8,2.2-1.8,3.1-3L408.8,251.3z M408.7,239.7v-1.2h-3.4v-1.6h11.2v1.6h-3.2v1.2h2.9v4.9
				h-10.4v-4.9H408.7z M416.6,248.2v1.6h-4.8v4.9H410v-4.9h-4.6v-1.6H416.6z M415.8,245.6v1.6h-9.4v-1.6H415.8z M408.9,241.2h-1.4v2
				h1.4V241.2z M410.3,238.5v1.2h1.5v-1.2H410.3z M411.8,241.2h-1.5v2h1.5V241.2z M417,253.3l-1.2,1.2c-0.7-1-1.6-2-2.8-3.1l1.1-1.1
				C415.3,251.3,416.2,252.3,417,253.3z M414.6,241.2h-1.4v2h1.4V241.2z"/>
			<path class="st5" d="M423.4,236.2c-0.8,1.4-1.5,2.7-1.9,4.1c-0.6,1.7-0.9,3.5-0.9,5.2s0.3,3.5,0.9,5.2c0.4,1.4,1.1,2.8,1.9,4.1
				h-1.8c-0.9-1.3-1.7-2.7-2.2-4.1c-0.6-1.7-0.9-3.4-0.9-5.2s0.3-3.6,0.9-5.3c0.5-1.4,1.2-2.8,2.2-4.1h1.8V236.2z"/>
			<path class="st5" d="M443,237.2v1.9h-6.5c-0.4,0.8-0.7,1.5-1.2,2.2v0.9c3.1,1.8,5.9,3.8,8.1,5.9l-1.3,1.6c-1.9-2-4.1-3.8-6.8-5.5
				v10.6h-2V244c-1.8,2.1-4.2,4.1-7,5.7L425,248c4.4-2.5,7.5-5.5,9.2-9h-8.6v-1.9L443,237.2L443,237.2z"/>
			<path class="st5" d="M455.1,236.4c1.7,2.1,4.5,3.9,8.6,5.5l-1,1.6c-1.7-0.7-3.2-1.4-4.5-2.2v0.8h-7.8v-0.8
				c-1.3,0.8-2.8,1.5-4.4,2.1l-1.1-1.6c3.7-1.4,6.6-3.2,8.6-5.5L455.1,236.4L455.1,236.4z M461,254.8h-1.8V254h-9.7v0.8h-1.8v-7h7.4
				c0.9-0.7,1.8-1.5,2.7-2.4h-9.5v-1.7h11.9v1.5c-0.7,0.9-1.5,1.8-2.4,2.6h3.3v7H461z M459.2,252.2v-2.7h-9.7v2.7H459.2z M457,240.5
				c-1.1-0.8-1.9-1.6-2.7-2.4c-0.8,0.9-1.8,1.7-2.7,2.4H457z"/>
			<path class="st5" d="M466.3,243.8l-1.1-1.6c3.5-1.5,6.3-3.5,8.4-5.8h1.5c1.9,2.3,4.6,4.2,8.4,5.8l-1.1,1.6
				c-1-0.4-1.9-0.8-2.7-1.3v1h-4.4v2.4h7v1.8h-7v4.9h1.9c0.6-1.2,1.2-2.6,1.6-4l1.7,0.6c-0.4,1.3-0.9,2.4-1.4,3.4h3.9v1.8h-17.2
				v-1.8h3.9c-0.4-1.1-0.9-2.2-1.4-3.2l1.7-0.6c0.6,1.1,1.1,2.4,1.6,3.9h1.9v-4.9h-7V246h7v-2.4H469v-1.1
				C468.2,242.9,467.2,243.3,466.3,243.8z M474.4,238.2c-1.3,1.4-2.8,2.6-4.4,3.6h8.6C476.9,240.7,475.5,239.5,474.4,238.2z"/>
			<path class="st5" d="M495,237v1.7h-9.6V237H495z M491.7,254.6l-0.5-1.7l1.3,0.1c0.3,0,0.5-0.1,0.5-0.4v-6h-5.7v8.2h-1.6v-9.7h9
				v7.9c0,1.1-0.5,1.6-1.6,1.6L491.7,254.6L491.7,254.6z M493.9,239.6v4.6h-7.4v-4.6H493.9z M488.7,249.6c-0.2-0.7-0.5-1.4-0.8-2
				l1.2-0.4c0.3,0.6,0.6,1.3,0.8,2.1l-1,0.3h1.4c0.3-0.8,0.6-1.7,0.9-2.6l1.3,0.4c-0.2,0.8-0.5,1.5-0.8,2.1h0.9v1.4h-1.7v3.5h-1.5
				v-3.5h-1.5v-1.4L488.7,249.6L488.7,249.6z M492.2,241.1h-4.1v1.6h4.1V241.1z M498.1,239.7v-3.3h1.8v3.3h2.8v8.4h-2.8v3.9l1.4-0.3
				c-0.2-0.8-0.4-1.5-0.6-2.2l1.5-0.5c0.5,1.5,1,3.2,1.4,5.1l-1.6,0.4c-0.1-0.4-0.2-0.9-0.3-1.3c-1.9,0.5-4,0.9-6.2,1.2l-0.4-1.8
				c1-0.1,2-0.2,3-0.4V248h-2.7v-8.4h2.7V239.7z M498.3,241.4H497v5.1h1.2L498.3,241.4L498.3,241.4z M501.1,241.4h-1.3v5.1h1.3
				V241.4z"/>
			<path class="st5" d="M508.8,248.2c0-0.1,0-0.3,0-0.4v-1.9h1.8v1.9c0,0.1,0,0.3,0,0.4h1.9c-0.3-0.5-0.8-1.1-1.3-1.8l1.2-0.7
				c0.6,0.7,1.1,1.3,1.4,1.8l-1.1,0.7h1.4v1.6h-3.7l-0.1,0.2c1.4,1.1,2.6,2.1,3.6,3.2l-1.3,1.3c-0.7-1-1.7-1.9-2.9-3
				c-0.7,1.4-1.8,2.6-3.3,3.4l-1.4-1.2c1.8-0.9,2.9-2.2,3.4-3.9h-2.9v-1.6H508.8z M508.8,243.3c-0.7,1.1-1.6,2-2.6,2.8l-1-1.3
				c1-0.7,1.8-1.6,2.5-2.5L508.8,243.3z M509.1,240.2v-3.7h1.8v3.7h3.3v1.5h-3.3v3.8h-1.8v-3.8h-3.4v-1.5H509.1z M508.6,239.2
				l-1.3,0.6c-0.4-1-0.8-1.8-1.3-2.5l1.4-0.5C507.8,237.6,508.2,238.4,508.6,239.2z M514.6,244.6l-1,1.1c-0.8-1-1.5-1.8-2.3-2.5
				l0.9-1C513.1,242.9,513.9,243.7,514.6,244.6z M513.9,237.3c-0.4,0.9-0.8,1.7-1.3,2.4l-1.2-0.9c0.4-0.6,0.8-1.3,1.1-2.2
				L513.9,237.3z M517.3,250.9l1.2,1c-0.9,1.1-1.9,2.1-3.2,3l-1-1.3C515.5,252.8,516.4,251.9,517.3,250.9h-2.1V240h2.7l0.1-1.4h-3.6
				v-1.7h9v1.7h-3.5l-0.1,1.4h3.1v10.8h-2.1c1.2,0.9,2.1,1.8,2.9,2.7l-1.2,1.2c-0.7-0.9-1.7-1.8-2.9-2.8l1.1-1.1h-3.4V250.9z
				 M521,243.1v-1.5h-4.1v1.5H521z M521,246.1v-1.4h-4.1v1.4H521z M521,247.7h-4.1v1.5h4.1V247.7z"/>
			<path class="st5" d="M532.6,252.8c0,1.3-0.7,1.9-2,1.9h-1.5l-0.5-1.7c0.5,0,1,0.1,1.5,0.1s0.7-0.3,0.7-1V248
				c-0.9,0.2-1.8,0.4-2.8,0.5c-0.2,2.5-0.7,4.6-1.6,6.3l-1.4-1.3c0.9-1.8,1.3-4,1.4-6.7v-9.9h6.2L532.6,252.8L532.6,252.8z
				 M530.9,242.2v-3.6h-2.7v3C529.1,241.8,530,242,530.9,242.2z M530.9,246.3v-2.4c-0.9-0.2-1.8-0.5-2.7-0.6v3.5
				C529.1,246.6,530,246.5,530.9,246.3z M542.3,244.7v1.8c-0.5,1.8-1.3,3.4-2.5,4.7c1.1,0.8,2.4,1.5,3.9,2.1l-1,1.6
				c-1.6-0.7-3-1.6-4.1-2.5c-1.3,1-2.8,1.9-4.6,2.5l-1-1.6c1.6-0.6,3-1.3,4.2-2.2c-1.3-1.4-2.1-2.9-2.6-4.5h-0.9v-1.8h8.6V244.7z
				 M541.3,236.9v4.2c0,0.4,0.2,0.7,0.6,0.7h1.4v1.8h-1.9c-1.3,0-2-0.7-2-2v-2.8h-2.9v0.9c0,2-0.8,3.5-2.2,4.6l-1.3-1.4
				c1.1-0.7,1.7-1.7,1.7-3V237h6.6V236.9z M538.4,249.9c0.9-1,1.6-2.1,2.1-3.3h-4.2C536.7,247.8,537.4,248.9,538.4,249.9z"/>
			<path class="st5" d="M547,236.2c0.9,1.3,1.6,2.7,2.2,4.1c0.6,1.7,0.9,3.4,0.9,5.3c0,1.8-0.3,3.5-0.9,5.2
				c-0.5,1.4-1.2,2.8-2.2,4.1h-1.8c0.8-1.4,1.5-2.8,1.9-4.1c0.6-1.7,0.9-3.5,0.9-5.2s-0.3-3.5-0.9-5.2c-0.5-1.4-1.1-2.8-1.9-4.1h1.8
				V236.2z"/>
		</g>
		<rect id="Rectangle-3-Copy-10" x="50" y="326.7" class="st6" width="512" height="2"/>
		<g id="Group" transform="translate(29.000000, 352.000000)">
			<g class="st2">
				<path class="st3" d="M9.5,5.3c0.8,0.8,1.3,1.8,1.3,3s-0.5,2.4-1.4,3.4c-0.5,0.5-1.5,1.3-3,2.3c-1.8,1.2-2.9,2.3-3.1,3.3h7.5v1.5
					H1.2c0-1.3,0.5-2.5,1.4-3.5c0.6-0.6,1.6-1.5,3.1-2.5C6.8,12,7.6,11.4,7.9,11C8.6,10.2,9,9.4,9,8.4c0-0.9-0.3-1.5-0.8-2
					C7.8,5.8,7.1,5.6,6.1,5.6s-1.7,0.3-2.3,1C3.3,7.2,3,8.2,3,9.4H1.4c0-1.6,0.5-2.9,1.3-3.8c0.9-1,2.1-1.4,3.5-1.4
					C7.5,4.2,8.6,4.5,9.5,5.3z"/>
				<path class="st3" d="M23.2,6.4c0.8,1.3,1.1,3,1.1,5.2s-0.4,3.9-1.1,5.2C22.3,18.2,21,19,19.3,19s-3-0.8-3.9-2.3
					c-0.8-1.3-1.1-3-1.1-5.2s0.4-3.9,1.1-5.2C16.3,4.8,17.5,4,19.3,4C21,4.2,22.3,4.9,23.2,6.4z M16.6,7.6c-0.4,1-0.6,2.3-0.6,4
					s0.2,3,0.6,4c0.6,1.4,1.5,2.1,2.8,2.1s2.2-0.7,2.8-2.1c0.4-1,0.6-2.3,0.6-4s-0.2-3-0.6-4c-0.6-1.4-1.5-2.1-2.8-2.1
					S17.1,6.2,16.6,7.6z"/>
				<path class="st3" d="M36.5,6.4c0.8,1.3,1.1,3,1.1,5.2s-0.4,3.9-1.1,5.2c-0.9,1.5-2.2,2.3-3.9,2.3s-3-0.8-3.9-2.3
					c-0.8-1.3-1.1-3-1.1-5.2s0.4-3.9,1.1-5.2c0.9-1.5,2.1-2.3,3.9-2.3C34.3,4.2,35.6,4.9,36.5,6.4z M29.9,7.6c-0.4,1-0.6,2.3-0.6,4
					s0.2,3,0.6,4c0.6,1.4,1.5,2.1,2.8,2.1c1.3,0,2.2-0.7,2.8-2.1c0.4-1,0.6-2.3,0.6-4s-0.2-3-0.6-4c-0.6-1.4-1.5-2.1-2.8-2.1
					S30.4,6.2,29.9,7.6z"/>
				<path class="st3" d="M49.5,5.3c0.8,0.7,1.2,1.6,1.2,2.6c0,0.8-0.2,1.4-0.5,1.9c-0.4,0.6-1,1-1.7,1.2l0,0
					c0.7,0.2,1.4,0.6,1.9,1.2c0.6,0.7,0.8,1.5,0.8,2.4c0,1.3-0.4,2.3-1.3,3c-1,1-2.3,1.4-3.9,1.4c-1.7,0-2.9-0.4-3.8-1.2
					c-0.9-0.8-1.3-1.8-1.3-3c0-0.9,0.3-1.7,0.8-2.4c0.5-0.6,1.1-1.1,1.9-1.2l0,0c-0.8-0.3-1.3-0.7-1.7-1.2s-0.5-1.2-0.5-1.9
					c0-1,0.4-1.9,1.2-2.6c0.8-0.8,2-1.2,3.5-1.2C47.4,4.2,48.6,4.5,49.5,5.3z M43.3,12.7c-0.6,0.5-0.9,1.2-0.9,2.1
					c0,0.8,0.3,1.5,0.9,2.1c0.6,0.5,1.5,0.8,2.7,0.8s2-0.3,2.7-0.8c0.6-0.5,0.9-1.2,0.9-2c0-0.9-0.3-1.6-0.9-2.1
					c-0.6-0.6-1.5-0.9-2.7-0.9C44.8,11.8,43.9,12.1,43.3,12.7z M43.6,6.3c-0.5,0.4-0.7,1-0.7,1.7s0.2,1.3,0.7,1.8s1.3,0.8,2.5,0.8
					c1.1,0,1.9-0.3,2.5-0.8c0.4-0.4,0.7-1,0.7-1.8c0-0.7-0.3-1.3-0.7-1.7C47.8,5.8,47,5.5,46,5.5C44.9,5.5,44.1,5.8,43.6,6.3z"/>
			</g>
			<g class="st2">
				<path class="st3" d="M173.5,5.3c0.8,0.8,1.3,1.8,1.3,3s-0.5,2.4-1.4,3.4c-0.5,0.5-1.5,1.3-3,2.3c-1.8,1.2-2.9,2.3-3.1,3.3h7.5
					v1.5h-9.5c0-1.3,0.5-2.5,1.4-3.5c0.6-0.6,1.6-1.5,3.1-2.5c1.1-0.8,1.9-1.4,2.2-1.8c0.7-0.8,1.1-1.6,1.1-2.6c0-0.9-0.3-1.5-0.8-2
					s-1.3-0.7-2.2-0.7c-1,0-1.7,0.3-2.3,1c-0.6,0.6-0.9,1.6-0.9,2.9h-1.6c0-1.6,0.5-2.9,1.3-3.8c0.9-1,2.1-1.4,3.5-1.4
					C171.5,4.2,172.6,4.5,173.5,5.3z"/>
				<path class="st3" d="M187.2,6.4c0.8,1.3,1.1,3,1.1,5.2s-0.4,3.9-1.1,5.2c-0.9,1.5-2.2,2.3-3.9,2.3s-3-0.8-3.9-2.3
					c-0.8-1.3-1.1-3-1.1-5.2s0.4-3.9,1.1-5.2c0.9-1.5,2.1-2.3,3.9-2.3C185,4.2,186.3,4.9,187.2,6.4z M180.6,7.6
					c-0.4,1-0.6,2.3-0.6,4s0.2,3,0.6,4c0.6,1.4,1.5,2.1,2.8,2.1s2.2-0.7,2.8-2.1c0.4-1,0.6-2.3,0.6-4s-0.2-3-0.6-4
					c-0.6-1.4-1.5-2.1-2.8-2.1S181.1,6.2,180.6,7.6z"/>
				<path class="st3" d="M196.5,4.4v14.3h-1.6V6.4c-0.9,0.9-2,1.6-3.4,2V6.8c0.6-0.2,1.3-0.5,2-0.9s1.2-0.9,1.7-1.5H196.5z"/>
				<path class="st3" d="M205.9,4.4v14.3h-1.6V6.4c-0.9,0.9-2,1.6-3.4,2V6.8c0.6-0.2,1.3-0.5,2-0.9s1.2-0.9,1.7-1.5H205.9z"/>
			</g>
			<g class="st2">
				<path class="st3" d="M337.5,5.3c0.8,0.8,1.3,1.8,1.3,3s-0.5,2.4-1.4,3.4c-0.5,0.5-1.5,1.3-3,2.3c-1.8,1.2-2.9,2.3-3.1,3.3h7.5
					v1.5h-9.5c0-1.3,0.5-2.5,1.4-3.5c0.6-0.6,1.6-1.5,3.1-2.5c1.1-0.8,1.9-1.4,2.2-1.8c0.7-0.8,1.1-1.6,1.1-2.6c0-0.9-0.3-1.5-0.8-2
					s-1.3-0.7-2.2-0.7c-1,0-1.7,0.3-2.3,1c-0.6,0.6-0.9,1.6-0.9,2.9h-1.6c0-1.6,0.5-2.9,1.3-3.8c0.9-1,2.1-1.4,3.5-1.4
					C335.5,4.2,336.6,4.5,337.5,5.3z"/>
				<path class="st3" d="M351.2,6.4c0.8,1.3,1.1,3,1.1,5.2s-0.4,3.9-1.1,5.2c-0.9,1.5-2.2,2.3-3.9,2.3c-1.7,0-3-0.8-3.9-2.3
					c-0.8-1.3-1.1-3-1.1-5.2s0.4-3.9,1.1-5.2c0.9-1.5,2.1-2.3,3.9-2.3C349,4.2,350.3,4.9,351.2,6.4z M344.6,7.6
					c-0.4,1-0.6,2.3-0.6,4s0.2,3,0.6,4c0.6,1.4,1.5,2.1,2.8,2.1s2.2-0.7,2.8-2.1c0.4-1,0.6-2.3,0.6-4s-0.2-3-0.6-4
					c-0.6-1.4-1.5-2.1-2.8-2.1S345.1,6.2,344.6,7.6z"/>
				<path class="st3" d="M360.5,4.4v14.3h-1.6V6.4c-0.9,0.9-2,1.6-3.4,2V6.8c0.6-0.2,1.3-0.5,2-0.9s1.2-0.9,1.7-1.5H360.5z"/>
				<path class="st3" d="M373.2,4.4v9.7h2.3v1.3h-2.3v3.2h-1.6v-3.2h-7.2v-1.6l7.2-9.5h1.6V4.4z M365.8,14.1h5.8V6.6h-0.1
					L365.8,14.1z"/>
			</g>
			<g class="st2">
				<path class="st3" d="M501.5,5.3c0.8,0.8,1.3,1.8,1.3,3s-0.5,2.4-1.4,3.4c-0.5,0.5-1.5,1.3-3,2.3c-1.8,1.2-2.9,2.3-3.1,3.3h7.5
					v1.5h-9.5c0-1.3,0.5-2.5,1.4-3.5c0.6-0.6,1.6-1.5,3.1-2.5c1.1-0.8,1.9-1.4,2.2-1.8c0.7-0.8,1.1-1.6,1.1-2.6c0-0.9-0.3-1.5-0.8-2
					s-1.3-0.7-2.2-0.7c-1,0-1.7,0.3-2.3,1c-0.6,0.6-0.9,1.6-0.9,2.9h-1.6c0-1.6,0.5-2.9,1.3-3.8c0.9-1,2.1-1.4,3.5-1.4
					C499.5,4.2,500.6,4.5,501.5,5.3z"/>
				<path class="st3" d="M515.2,6.4c0.8,1.3,1.1,3,1.1,5.2s-0.4,3.9-1.1,5.2c-0.9,1.5-2.2,2.3-3.9,2.3c-1.7,0-3-0.8-3.9-2.3
					c-0.8-1.3-1.1-3-1.1-5.2s0.4-3.9,1.1-5.2c0.9-1.5,2.1-2.3,3.9-2.3C513,4.2,514.3,4.9,515.2,6.4z M508.6,7.6
					c-0.4,1-0.6,2.3-0.6,4s0.2,3,0.6,4c0.6,1.4,1.5,2.1,2.8,2.1c1.3,0,2.2-0.7,2.8-2.1c0.4-1,0.6-2.3,0.6-4s-0.2-3-0.6-4
					c-0.6-1.4-1.5-2.1-2.8-2.1S509.1,6.2,508.6,7.6z"/>
				<path class="st3" d="M524.5,4.4v14.3h-1.6V6.4c-0.9,0.9-2,1.6-3.4,2V6.8c0.6-0.2,1.3-0.5,2-0.9s1.2-0.9,1.7-1.5H524.5z"/>
				<path class="st3" d="M538,4.4v1.3l-5.3,12.9H531l5.3-12.8h-7.7V4.4H538z"/>
			</g>
		</g>
		<g id="Group-2" transform="translate(58.000000, 330.000000)">
			<rect id="Rectangle-5" y="-2.3" class="st6" width="2" height="6"/>
			<rect id="Rectangle-5-Copy-11" x="325.7" y="-2.3" class="st6" width="2" height="6"/>
			<rect id="Rectangle-5-Copy-6" x="162.9" y="-2.3" class="st6" width="2" height="6"/>
			<rect id="Rectangle-5-Copy-18" x="488.6" y="-2.3" class="st6" width="2" height="6"/>
		</g>
	</g>
</g>
</svg>
