<?xml version="1.0" encoding="utf-8"?>
<!-- Generator: Adobe Illustrator 22.0.1, SVG Export Plug-In . SVG Version: 6.00 Build 0)  -->
<svg version="1.1" id="圖層_1" xmlns="http://www.w3.org/2000/svg" xmlns:xlink="http://www.w3.org/1999/xlink" x="0px" y="0px"
	 viewBox="0 0 788 390" style="enable-background:new 0 0 788 390;" xml:space="preserve">
<style type="text/css">
	.st0{fill:#BCBCBC;}
	.st1{enable-background:new    ;}
	.st2{fill:#4A4A4A;}
	.st3{fill:#708CB1;}
	.st4{fill:#D2BEA6;}
</style>
<g>
	<title>pop1_4 copy</title>
	<desc>Created with Sketch.</desc>
	<g id="pop1_4-copy">
		<g id="Group-4">
			<g id="Group-3" transform="translate(272.000000, 125.000000)">
				<rect id="Rectangle-3-Copy-11" y="225" class="st0" width="244" height="2"/>
				<g id="Group-2" transform="translate(20.000000, 97.000000)">
					<g class="st1">
						<path class="st2" d="M23.3,152.3v-3.6h1.5v3.6h7.8v1.4H26c1.3,3.2,3.7,6,7.2,8.5l-1,1.2c-3.5-2.9-6-6.1-7.3-9.8h-0.2v7.8H29
							v1.4h-4.3v4.1h-1.5v-4.1h-4.1v-1.4h4.1v-7.8h-0.1c-1.5,4.1-4,7.4-7.6,10l-0.8-1.3c3.4-2.2,5.8-5.1,7.2-8.7h-6.5v-1.4h7.9
							V152.3z"/>
						<path class="st2" d="M40.5,150.2v-1.5h1.4v1.5h6.9v-1.5h1.4v1.5h3.5v1.2h-3.5v6.6H54v1.3h-4.2c1,1.2,2.5,2.1,4.5,2.8l-0.6,1.2
							c-2.5-1-4.2-2.4-5.3-4.1h-6.3c-1,1.7-2.7,3-5,4.1l-0.7-1.2c2-0.8,3.4-1.7,4.4-2.9h-4.2V158h3.8v-6.6h-3.5v-1.2H40.5z M46,160
							v1.6h4.1v1.3H46v2.1h6.9v1.3H37.6V165h7v-2.1h-4.1v-1.3h4.1V160H46z M48.8,152.9v-1.5h-6.9v1.5H48.8z M48.8,155.4V154h-6.9
							v1.4H48.8z M48.8,158v-1.4h-6.9v1.4H48.8z"/>
						<path class="st2" d="M58.4,156l-0.8-1.2c3.5-1.6,6.3-3.5,8.5-6h1.2c1.9,2.4,4.7,4.3,8.5,5.9l-0.8,1.2c-1.1-0.4-2-0.9-3-1.5
							v1.1h-4.5v2.9h7.1v1.3h-7.1v5.3h2.2c0.7-1.3,1.3-2.7,1.8-4.2l1.3,0.5c-0.5,1.4-1.1,2.7-1.7,3.7h4.1v1.4H58.1V165h4.1
							c-0.4-1.3-1-2.5-1.6-3.6l1.3-0.5c0.6,1.1,1.2,2.5,1.7,4.1h2.3v-5.3h-7.1v-1.3h7.1v-2.9h-4.5v-1.2
							C60.4,155,59.4,155.5,58.4,156z M66.7,150.2c-1.5,1.6-3.2,2.9-5,4.1h10C69.6,153.1,68,151.7,66.7,150.2z"/>
					</g>
					<g class="st1">
						<path class="st2" d="M20.9,2.7V17h-1.6V4.7c-0.9,0.9-2,1.6-3.4,2V5c0.6-0.2,1.3-0.5,2-0.9s1.2-0.9,1.7-1.5h1.3V2.7z"/>
						<path class="st2" d="M34.1,4.4c0.8,1.2,1.3,2.9,1.3,5.1c0,2.3-0.5,4.1-1.3,5.6c-1,1.5-2.2,2.2-3.8,2.2c-2.7,0-4.2-1.3-4.6-3.8
							h1.6c0.3,1.6,1.3,2.4,3,2.4c1.1,0,2-0.6,2.6-1.7s0.9-2.4,0.9-4c0-0.1,0-0.3,0-0.5h-0.1c-0.4,0.7-0.9,1.3-1.5,1.7
							C31.6,11.8,30.8,12,30,12c-1.4,0-2.5-0.5-3.3-1.4s-1.2-2-1.2-3.4s0.4-2.6,1.4-3.5c0.9-0.9,2.1-1.4,3.5-1.4
							C31.9,2.4,33.2,3.1,34.1,4.4z M27.9,4.8C27.3,5.5,27,6.3,27,7.3s0.3,1.8,0.9,2.4s1.4,0.9,2.4,0.9c0.9,0,1.7-0.3,2.3-1
							c0.6-0.6,0.9-1.5,0.9-2.4c0-1-0.3-1.8-0.9-2.5c-0.6-0.7-1.4-1-2.4-1C29.2,3.8,28.5,4.1,27.9,4.8z"/>
						<path class="st2" d="M41.2,15c0.2,0.2,0.4,0.5,0.4,0.9c0,0.3-0.1,0.6-0.4,0.9c-0.2,0.2-0.5,0.4-0.9,0.4s-0.6-0.1-0.9-0.4
							c-0.2-0.2-0.4-0.5-0.4-0.9s0.1-0.6,0.4-0.9c0.2-0.2,0.5-0.4,0.9-0.4C40.6,14.6,40.9,14.7,41.2,15z"/>
						<path class="st2" d="M53.5,2.7v9.7h2.3v1.3h-2.3V17h-1.6v-3.2h-7.2v-1.6l7.2-9.5C51.9,2.7,53.5,2.7,53.5,2.7z M46.1,12.4h5.8
							V4.9h-0.1L46.1,12.4z"/>
						<path class="st2" d="M64.7,3.9c0.5,0.7,0.8,1.6,0.8,2.7s-0.3,2-0.8,2.7c-0.6,0.8-1.4,1.2-2.5,1.2s-1.9-0.4-2.5-1.2
							C59.2,8.7,59,7.8,59,6.6c0-1.1,0.2-2.1,0.8-2.7c0.6-0.8,1.4-1.2,2.5-1.2C63.3,2.7,64.1,3.1,64.7,3.9z M60.9,4.6
							c-0.3,0.5-0.4,1.1-0.4,2c0,0.8,0.1,1.5,0.4,2c0.3,0.6,0.7,0.9,1.3,0.9s1-0.3,1.3-0.9c0.2-0.5,0.4-1.1,0.4-1.9s-0.1-1.5-0.4-2
							c-0.3-0.6-0.7-0.9-1.3-0.9C61.6,3.8,61.1,4.1,60.9,4.6z M71.9,2.4l-8,14.8h-1.3l8-14.8C70.6,2.4,71.9,2.4,71.9,2.4z
							 M74.8,10.4c0.5,0.7,0.8,1.6,0.8,2.7s-0.3,2-0.8,2.7c-0.6,0.8-1.4,1.2-2.5,1.2s-1.9-0.4-2.5-1.2c-0.5-0.7-0.8-1.6-0.8-2.7
							s0.2-2.1,0.8-2.7c0.6-0.8,1.4-1.2,2.5-1.2S74.2,9.6,74.8,10.4z M71,11.1c-0.3,0.5-0.4,1.1-0.4,2c0,0.8,0.1,1.5,0.4,2
							c0.3,0.6,0.7,0.9,1.3,0.9c0.6,0,1-0.3,1.3-0.9c0.2-0.5,0.4-1.1,0.4-1.9c0-0.8-0.1-1.5-0.4-2c-0.3-0.6-0.7-0.9-1.3-0.9
							C71.7,10.3,71.3,10.5,71,11.1z"/>
					</g>
					<rect id="Rectangle-4" y="26" class="st3" width="92" height="102"/>
				</g>
				<g id="Group" transform="translate(132.000000, 70.000000)">
					<g class="st1">
						<path class="st2" d="M8.1,177.2v-1.5h1.4v1.5h6.9v-1.5h1.4v1.5h3.5v1.2h-3.5v6.6h3.8v1.3h-4.2c1,1.2,2.5,2.1,4.5,2.8l-0.6,1.2
							c-2.5-1-4.2-2.4-5.3-4.1H9.8c-1,1.7-2.7,3-5,4.1l-0.7-1.2c2-0.8,3.4-1.7,4.4-2.9H4.3V185h3.8v-6.6H4.6v-1.2H8.1z M13.7,187
							v1.6h4.1v1.3h-4.1v2.1h6.9v1.3H5.3V192h7v-2.1H8.2v-1.3h4.1V187H13.7z M16.4,179.9v-1.5H9.5v1.5H16.4z M16.4,182.4V181H9.5
							v1.4H16.4z M16.4,185v-1.4H9.5v1.4H16.4z"/>
						<path class="st2" d="M29,180.9l-0.7,1.1c-1-0.8-2-1.4-3.1-1.8l0.7-1.1C27,179.6,28.1,180.2,29,180.9z M33.6,188.8v-1.6H35v1.6
							h8.2v1.3H35v3.9h-1.4v-3.9h-8.1v-1.3H33.6z M30.4,183.7c-1,1.4-2.3,2.7-3.9,3.9l-1-1.1c1.6-1.1,3-2.4,4-3.7L30.4,183.7z
							 M30.6,177.8l-0.7,1.1c-1.1-0.9-2.2-1.6-3.3-2.1l0.7-1.1C28.4,176.3,29.5,177,30.6,177.8z M30.2,182.5l-0.4-1.3
							c1.7-1.7,2.8-3.5,3.5-5.5l1.3,0.3c-0.2,0.6-0.4,1.1-0.7,1.7h3.2c-0.2-0.6-0.5-1.2-0.7-1.8l1.4-0.2c0.2,0.6,0.4,1.3,0.6,2h4.2
							v1.2h-4.2v1.4h3.8v1.2h-3.8v1.4h3.8v1.2h-3.8v1.5h4.4v1.2H32v-5.9C31.4,181.3,30.9,181.9,30.2,182.5z M33.3,178.8v1.4h3.9
							v-1.4H33.3z M33.3,181.4v1.4h3.9v-1.4H33.3z M33.3,183.9v1.5h3.9v-1.5H33.3z"/>
						<path class="st2" d="M47.1,193.8l-0.3-1.4c0.7,0.1,1.3,0.1,1.9,0.1c0.5,0,0.8-0.3,0.8-0.8v-4.8c-0.9,0.3-1.8,0.6-2.7,0.8
							l-0.3-1.4c1-0.2,2-0.5,3-0.8v-4.6h-2.7v-1.4h2.7v-3.8h1.4v3.8h2.2v1.4h-2.2v4.1c0.8-0.3,1.6-0.7,2.4-1.1v1.5
							c-0.8,0.4-1.6,0.7-2.4,1v5.7c0,1.1-0.6,1.7-1.7,1.7H47.1z M63.9,178.6l-8.1,0.4v1.7c0,0.5,0.3,0.8,0.9,0.8h7.6v1.3H56
							c-1,0-1.5-0.5-1.5-1.5v-5.4h1.4v1.8l8.1-0.3v1.2H63.9z M63.7,194h-1.4v-1H56v1h-1.4v-9.4h9.1C63.7,184.6,63.7,194,63.7,194z
							 M62.3,188.1v-2.2H56v2.2H62.3z M62.3,191.7v-2.3H56v2.3H62.3z"/>
						<path class="st2" d="M72.2,194h-1.3v-10.5c-0.6,2-1.4,3.8-2.4,5.4l-0.6-1.6c1.4-2,2.4-4.2,3-6.6h-2.4v-1.3H71v-3.6h1.3v3.6
							h2.2v1.3h-2.2v1.1c0.9,1,1.8,2.1,2.7,3.4l-0.8,1.3c-0.7-1.3-1.3-2.3-1.8-3.1V194H72.2z M78,190.5c-0.9,1.3-2,2.4-3.3,3.4
							l-0.8-1.1c1.3-0.9,2.3-1.9,3.2-3.1L78,190.5z M78.2,179.1v-1.5h-3.5v-1.2h11.1v1.2h-3.3v1.5h3v4.7H75.2v-4.7H78.2z
							 M85.8,187.6v1.2h-5v5.1h-1.3v-5.1h-4.7v-1.2H85.8z M85,185v1.2h-9.3V185H85z M78.3,180.2h-1.8v2.5h1.8V180.2z M79.4,177.6
							v1.5h1.9v-1.5H79.4z M81.2,180.2h-1.9v2.5h1.9V180.2z M84.2,180.2h-1.8v2.5h1.8V180.2z M86.2,192.8l-1,0.9
							c-0.7-1-1.7-2.1-2.9-3.3l0.9-0.8C84.4,190.7,85.4,191.8,86.2,192.8z"/>
					</g>
					<g class="st1">
						<path class="st2" d="M23.5,3.6c0.8,0.8,1.3,1.8,1.3,3S24.3,9,23.3,10c-0.5,0.5-1.5,1.3-3,2.3c-1.8,1.2-2.9,2.3-3.1,3.3h7.5V17
							h-9.5c0-1.3,0.5-2.5,1.4-3.5c0.6-0.6,1.6-1.5,3.1-2.5c1.1-0.8,1.9-1.4,2.2-1.8C22.6,8.4,23,7.6,23,6.6c0-0.9-0.3-1.5-0.8-2
							S20.9,3.9,20,3.9c-1,0-1.7,0.3-2.3,1C17.3,5.5,17,6.4,17,7.7h-1.6c0-1.6,0.5-2.9,1.3-3.8c0.9-1,2.1-1.4,3.5-1.4
							C21.5,2.4,22.6,2.8,23.5,3.6z"/>
						<path class="st2" d="M36.8,3.6c0.8,0.8,1.3,1.8,1.3,3S37.6,9,36.7,10c-0.5,0.5-1.5,1.3-3,2.3c-1.8,1.2-2.9,2.3-3.1,3.3h7.5V17
							h-9.5c0-1.3,0.5-2.5,1.4-3.5c0.6-0.6,1.6-1.5,3.1-2.5c1.1-0.8,1.9-1.4,2.2-1.8c0.7-0.8,1.1-1.6,1.1-2.6c0-0.9-0.3-1.5-0.8-2
							s-1.3-0.7-2.2-0.7c-1,0-1.7,0.3-2.3,1c-0.6,0.6-0.9,1.6-0.9,2.9h-1.6c0-1.6,0.5-2.9,1.3-3.8c0.9-1,2.1-1.4,3.5-1.4
							C34.8,2.4,35.9,2.8,36.8,3.6z"/>
						<path class="st2" d="M44.1,15c0.2,0.2,0.4,0.5,0.4,0.9c0,0.3-0.1,0.6-0.4,0.9s-0.5,0.4-0.9,0.4s-0.6-0.1-0.9-0.4
							c-0.2-0.2-0.4-0.5-0.4-0.9s0.1-0.6,0.4-0.9c0.2-0.2,0.5-0.4,0.9-0.4S43.9,14.7,44.1,15z"/>
						<path class="st2" d="M53.1,2.7V17h-1.6V4.7c-0.9,0.9-2,1.6-3.4,2V5c0.6-0.2,1.3-0.5,2-0.9s1.2-0.9,1.7-1.5h1.3V2.7z"/>
						<path class="st2" d="M63.7,3.9c0.5,0.7,0.8,1.6,0.8,2.7s-0.3,2-0.8,2.7c-0.6,0.8-1.4,1.2-2.5,1.2s-1.9-0.4-2.5-1.2
							C58.2,8.7,58,7.8,58,6.6c0-1.1,0.2-2.1,0.8-2.7c0.6-0.8,1.4-1.2,2.5-1.2C62.3,2.7,63.1,3.1,63.7,3.9z M59.9,4.6
							c-0.3,0.5-0.4,1.1-0.4,2c0,0.8,0.1,1.5,0.4,2c0.3,0.6,0.7,0.9,1.3,0.9s1-0.3,1.3-0.9c0.2-0.5,0.4-1.1,0.4-1.9s-0.1-1.5-0.4-2
							c-0.3-0.6-0.7-0.9-1.3-0.9C60.6,3.8,60.1,4.1,59.9,4.6z M70.9,2.4l-8,14.8h-1.3l8-14.8C69.6,2.4,70.9,2.4,70.9,2.4z
							 M73.8,10.4c0.5,0.7,0.8,1.6,0.8,2.7s-0.3,2-0.8,2.7c-0.6,0.8-1.4,1.2-2.5,1.2s-1.9-0.4-2.5-1.2c-0.5-0.7-0.8-1.6-0.8-2.7
							s0.2-2.1,0.8-2.7c0.6-0.8,1.4-1.2,2.5-1.2S73.2,9.6,73.8,10.4z M70,11.1c-0.3,0.5-0.4,1.1-0.4,2c0,0.8,0.1,1.5,0.4,2
							c0.3,0.6,0.7,0.9,1.3,0.9c0.6,0,1-0.3,1.3-0.9c0.2-0.5,0.4-1.1,0.4-1.9c0-0.8-0.1-1.5-0.4-2c-0.3-0.6-0.7-0.9-1.3-0.9
							C70.7,10.3,70.3,10.5,70,11.1z"/>
					</g>
					<rect id="Rectangle-4-Copy" y="26" class="st4" width="92" height="129"/>
				</g>
				<g class="st1">
					<path class="st2" d="M92.8,7.1L91.9,6c2.4-1.4,4.3-3.3,5.8-5.6l1.5,0.3c-0.3,0.5-0.6,0.9-0.9,1.3h7.3v1.1
						c-0.6,0.8-1.2,1.5-1.7,2.1h3.9v10.1H94.7V5.8C94.1,6.3,93.5,6.7,92.8,7.1z M99.7,16.6c-1.6,1-3.6,1.8-6,2.5l-0.6-1.3
						c2.3-0.6,4.2-1.3,5.7-2.2L99.7,16.6z M103.8,3.3h-6.5c-0.6,0.7-1.2,1.3-1.8,1.9h6.6C102.6,4.6,103.2,4,103.8,3.3z M106.3,8.2
						V6.5H96.1v1.7H106.3z M106.3,11.1V9.3H96.1v1.8H106.3z M106.3,12.3H96.1V14h10.2C106.3,14,106.3,12.3,106.3,12.3z M109.4,17.8
						l-0.8,1.2c-1.8-1-3.7-1.8-5.7-2.3l0.7-1.1C105.7,16.2,107.6,17,109.4,17.8z"/>
					<path class="st2" d="M118,1.2c-0.4,1.3-0.9,2.6-1.5,3.8v14h-1.4V7.6c-0.6,1-1.4,1.9-2.1,2.8l-0.5-1.5c1.9-2.4,3.3-5.1,4.2-8.2
						L118,1.2z M123.2,17c-1.4,0.8-3.1,1.5-5.2,2l-0.6-1.2c2-0.4,3.7-1,5-1.7L123.2,17z M124.9,0.6v1.1h5.2v1.2h-5.2V4h4.5v1.2h-4.5
						v1.2h5.7v1.1H118V6.3h5.5V5.2h-4.4V4h4.4V2.9h-5.1V1.7h5.1V0.6H124.9z M129.2,8.4V16h-9.9V8.4H129.2z M127.9,10.7V9.6h-7.3v1.1
						H127.9z M127.9,12.8v-1.1h-7.3v1.1H127.9z M127.9,13.8h-7.3v1.1h7.3V13.8z M130.9,17.8l-0.5,1.2c-1.6-0.7-3.4-1.3-5.1-1.7
						l0.5-1.1C127.6,16.6,129.3,17.1,130.9,17.8z"/>
					<path class="st2" d="M136.2,16.9c1.8-0.4,3.5-0.9,5.2-1.4l0.4,1.3c-2.2,0.7-4.6,1.3-7.1,1.9l-0.4-1.3c0.3-0.2,0.5-0.5,0.5-0.8
						V1h1.4v5.5h5.1V8h-5.1L136.2,16.9L136.2,16.9z M144.8,18.4c-1.3,0-1.9-0.7-1.9-2V0.9h1.5v5.9l6.2-0.4v1.4l-6.2,0.4v8
						c0,0.6,0.3,0.9,0.9,0.9h3c0.4,0,0.7-0.1,0.9-0.4c0.3-0.3,0.5-1.5,0.6-3.6l1.4,0.4c-0.2,2.3-0.5,3.7-0.9,4.2
						c-0.4,0.4-1,0.6-1.7,0.6L144.8,18.4L144.8,18.4z"/>
				</g>
				<g class="st1">
					<path class="st2" d="M37.4,24.5c-0.8,1.3-1.4,2.7-1.9,4.1c-0.6,1.8-0.9,3.5-0.9,5.2s0.3,3.4,0.9,5.2c0.5,1.4,1.1,2.8,1.9,4.1
						H36c-0.9-1.3-1.6-2.7-2.1-4.1c-0.6-1.7-0.9-3.5-0.9-5.2c0-1.8,0.3-3.5,0.9-5.2c0.5-1.5,1.2-2.8,2.1-4.1
						C36,24.5,37.4,24.5,37.4,24.5z"/>
					<path class="st2" d="M45.6,31.2h9.8v1.2h-9.8v1.7h12.6v1.3h-13v5.9c1.7-0.3,3.4-0.8,5.1-1.4l0.3,1.3c-1.9,0.7-4.2,1.2-6.7,1.7
						l-0.6-1.2c0.3-0.1,0.5-0.3,0.5-0.6v-5.7H41v-1.3h3.2v-8.8h12.2v1.3H45.6v1.7h9.8v1.2h-9.8V31.2z M52.6,38.6
						c1.2-0.6,2.4-1.4,3.5-2.6l0.9,1c-1,1.1-2.1,1.9-3.4,2.5c1.4,1,3.1,1.8,5.2,2.4L57.9,43c-4-1.1-6.9-3.3-8.6-6.4l1.1-0.7
						C51,36.9,51.7,37.8,52.6,38.6z"/>
					<path class="st2" d="M64.9,39.2c-0.8,1.4-1.6,2.7-2.6,3.8l-1.1-0.8c1-1,1.9-2.1,2.6-3.5L64.9,39.2z M64.1,24.7V27H68v-2.2h1.4
						V27h1.2v1.3h-1.2v8.5h1.3v1.4h-9.5v-1.4h1.5v-8.5h-1.2V27h1.2v-2.2L64.1,24.7L64.1,24.7z M64.1,28.3v2H68v-2H64.1z M68,33.5v-2
						h-3.9v2H68z M68,36.8v-2h-3.9v2H68z M69.8,41.8c1.3-1.9,2-4.2,2-7v-9.4h6.6v15.7c0,1.1-0.6,1.7-1.8,1.7h-2.1l-0.4-1.4
						c0.7,0,1.4,0.1,2.1,0.1c0.5,0,0.8-0.3,0.8-0.9v-4.1h-3.9c-0.3,2.6-1.1,4.8-2.4,6.6l-1.1-1l0.1-0.1l-1.1,0.8
						c-0.5-1-1.2-2.1-2.1-3.3l1.1-0.7C68.6,39.8,69.3,40.9,69.8,41.8z M73.2,34.7c0,0.2,0,0.3,0,0.5H77v-3.6h-3.8V34.7z M77,26.8
						h-3.8v3.5H77V26.8z"/>
					<path class="st2" d="M82.5,31.1L81.6,30c2.4-1.4,4.3-3.3,5.8-5.6l1.5,0.3c-0.3,0.5-0.6,0.9-0.9,1.3h7.3v1.1
						c-0.6,0.8-1.2,1.5-1.7,2.1h3.9v10.1H84.4v-9.5C83.8,30.3,83.2,30.7,82.5,31.1z M89.4,40.6c-1.6,1-3.6,1.8-6,2.5l-0.6-1.3
						c2.3-0.6,4.2-1.3,5.7-2.2L89.4,40.6z M93.5,27.3H87c-0.6,0.7-1.2,1.3-1.8,1.9h6.6C92.3,28.6,92.9,28,93.5,27.3z M96,32.2v-1.7
						H85.8v1.7H96z M96,35.1v-1.8H85.8v1.8H96z M96,36.3H85.8V38H96V36.3z M99.1,41.8L98.3,43c-1.8-1-3.7-1.8-5.7-2.3l0.7-1.1
						C95.4,40.2,97.3,41,99.1,41.8z"/>
					<path class="st2" d="M107.7,25.2c-0.4,1.3-0.9,2.6-1.5,3.8v14h-1.4V31.6c-0.6,1-1.4,1.9-2.1,2.8l-0.5-1.5
						c1.9-2.4,3.3-5.1,4.2-8.2L107.7,25.2z M112.9,41c-1.4,0.8-3.1,1.5-5.2,2l-0.6-1.2c2-0.4,3.7-1,5-1.7L112.9,41z M114.6,24.6v1.1
						h5.2v1.2h-5.2V28h4.5v1.2h-4.5v1.2h5.7v1.1h-12.6v-1.1h5.5v-1.2h-4.4V28h4.4v-1.1h-5.1v-1.2h5.1v-1.1
						C113.2,24.6,114.6,24.6,114.6,24.6z M118.9,32.4V40H109v-7.6H118.9z M117.6,34.7v-1.1h-7.3v1.1H117.6z M117.6,36.8v-1.1h-7.3
						v1.1H117.6z M117.6,37.8h-7.3v1.1h7.3V37.8z M120.6,41.8l-0.5,1.2c-1.6-0.7-3.4-1.3-5.1-1.7l0.5-1.1
						C117.3,40.6,119,41.1,120.6,41.8z"/>
					<path class="st2" d="M129.2,25.1c-0.6,1.6-1.3,3.2-2.1,4.6V43h-1.4V31.9c-0.7,0.9-1.4,1.7-2.1,2.5l-0.5-1.5
						c2.2-2.4,3.8-5.2,4.9-8.4L129.2,25.1z M134.6,24.7v3.6h6.6v1.4h-6.6v3.7h5.1V43h-1.4v-0.9h-7.6V43h-1.4v-9.7h3.9v-8.7h1.4V24.7
						z M138.3,40.7v-6h-7.6v6H138.3z"/>
					<path class="st2" d="M149.5,29.4v1.3h-5.7v-1.3H149.5z M150.9,41.1c-1.5,0.8-3.6,1.5-6.4,1.9l-0.7-1.1c2.8-0.5,4.9-1,6.4-1.8
						L150.9,41.1z M149.1,25.8V27h-4.9v-1.2H149.1z M159.1,32.2v7.9h-12.9v-7.9H159.1z M157.7,34.5v-1.2h-10.1v1.2H157.7z
						 M157.7,36.7v-1.2h-10.1v1.2H157.7z M157.7,37.6h-10.1v1.3h10.1V37.6z M150.3,29.2l-0.8-1.1c1.5-1,2.5-2.2,3-3.6l1.3,0.2
						c-0.1,0.4-0.3,0.7-0.4,1.1h7.2v1c-0.5,1-1.1,1.9-1.7,2.6l-1-0.8c0.5-0.5,0.9-1,1.3-1.7h-6.4C152,27.8,151.3,28.6,150.3,29.2z
						 M156.2,27.6c-0.1,0.3-0.2,0.6-0.3,0.9c1.4,1.5,3.3,2.3,5.5,2.6l-0.6,1.2c-2.2-0.3-4-1.3-5.5-2.8c-1,1.3-2.5,2.2-4.6,2.6
						l-0.7-1c2.8-0.5,4.4-1.7,4.9-3.7L156.2,27.6z M161.4,42l-0.5,1.1c-2.1-0.8-4.4-1.4-6.7-1.8l0.5-1C157,40.7,159.3,41.2,161.4,42
						z"/>
					<path class="st2" d="M172.5,28.3v-3.6h1.5v3.6h7.8v1.4h-6.5c1.3,3.2,3.7,6,7.2,8.5l-1,1.2c-3.5-2.9-6-6.1-7.3-9.8H174v7.8h4.3
						v1.4H174V43h-1.5v-4.1h-4.1v-1.4h4.1v-7.8h-0.1c-1.5,4.1-4,7.4-7.6,10l-0.8-1.3c3.4-2.2,5.8-5.1,7.2-8.7h-6.5v-1.4
						C164.7,28.3,172.5,28.3,172.5,28.3z"/>
					<path class="st2" d="M187.7,40.9c1.8-0.4,3.5-0.9,5.2-1.4l0.4,1.3c-2.2,0.7-4.6,1.3-7.1,1.9l-0.4-1.3c0.3-0.2,0.5-0.5,0.5-0.8
						V25h1.4v5.5h5.1V32h-5.1L187.7,40.9L187.7,40.9z M196.3,42.4c-1.3,0-1.9-0.7-1.9-2V24.9h1.5v5.9l6.2-0.4v1.4l-6.2,0.4v8
						c0,0.6,0.3,0.9,0.9,0.9h3c0.4,0,0.7-0.1,0.9-0.4c0.3-0.3,0.5-1.5,0.6-3.6l1.4,0.4c-0.2,2.3-0.5,3.7-0.9,4.2
						c-0.4,0.4-1,0.6-1.7,0.6L196.3,42.4L196.3,42.4z"/>
					<path class="st2" d="M207.4,24.5c0.9,1.3,1.5,2.7,2.1,4.1c0.6,1.7,0.9,3.5,0.9,5.2s-0.3,3.5-0.9,5.2c-0.5,1.4-1.2,2.8-2.1,4.1
						H206c0.8-1.3,1.4-2.7,1.9-4.1c0.6-1.8,0.9-3.5,0.9-5.2s-0.3-3.4-0.9-5.2c-0.5-1.4-1.1-2.8-1.9-4.1
						C206,24.5,207.4,24.5,207.4,24.5z"/>
				</g>
			</g>
			<g id="Group-3-Copy-3" transform="translate(544.000000, 137.000000)">
				<rect id="Rectangle-3-Copy-11_1_" y="213" class="st0" width="244" height="2"/>
				<g id="Group-2_1_" transform="translate(20.000000, 47.000000)">
					<g class="st1">
						<path class="st2" d="M23.3,190.3v-3.6h1.5v3.6h7.8v1.4H26c1.3,3.2,3.7,6,7.2,8.5l-1,1.2c-3.5-2.9-6-6.1-7.3-9.8h-0.2v7.8H29
							v1.4h-4.3v4.1h-1.5v-4.1h-4.1v-1.4h4.1v-7.8h-0.1c-1.5,4.1-4,7.4-7.6,10l-0.8-1.3c3.4-2.2,5.8-5.1,7.2-8.7h-6.5v-1.4h7.9
							V190.3z"/>
						<path class="st2" d="M40.5,188.2v-1.5h1.4v1.5h6.9v-1.5h1.4v1.5h3.5v1.2h-3.5v6.6H54v1.3h-4.2c1,1.2,2.5,2.1,4.5,2.8l-0.6,1.2
							c-2.5-1-4.2-2.4-5.3-4.1h-6.3c-1,1.7-2.7,3-5,4.1l-0.7-1.2c2-0.8,3.4-1.7,4.4-2.9h-4.2V196h3.8v-6.6h-3.5v-1.2H40.5z M46,198
							v1.6h4.1v1.3H46v2.1h6.9v1.3H37.6V203h7v-2.1h-4.1v-1.3h4.1V198H46z M48.8,190.9v-1.5h-6.9v1.5H48.8z M48.8,193.4V192h-6.9
							v1.4H48.8z M48.8,196v-1.4h-6.9v1.4H48.8z"/>
						<path class="st2" d="M58.4,194l-0.8-1.2c3.5-1.6,6.3-3.5,8.5-6h1.2c1.9,2.4,4.7,4.3,8.5,5.9l-0.8,1.2c-1.1-0.4-2-0.9-3-1.5
							v1.1h-4.5v2.9h7.1v1.3h-7.1v5.3h2.2c0.7-1.3,1.3-2.7,1.8-4.2l1.3,0.5c-0.5,1.4-1.1,2.7-1.7,3.7h4.1v1.4H58.1V203h4.1
							c-0.4-1.3-1-2.5-1.6-3.6l1.3-0.5c0.6,1.1,1.2,2.5,1.7,4.1h2.3v-5.3h-7.1v-1.3h7.1v-2.9h-4.5v-1.2
							C60.4,193,59.4,193.5,58.4,194z M66.7,188.2c-1.5,1.6-3.2,2.9-5,4.1h10C69.6,191.1,68,189.7,66.7,188.2z"/>
					</g>
					<g class="st1">
						<path class="st2" d="M21.5,3.6c0.8,0.8,1.3,1.8,1.3,3S22.3,9,21.3,10c-0.5,0.5-1.5,1.3-3,2.3c-1.8,1.2-2.9,2.3-3.1,3.3h7.5V17
							h-9.5c0-1.3,0.5-2.5,1.4-3.5c0.6-0.6,1.6-1.5,3.1-2.5c1.1-0.8,1.9-1.4,2.2-1.8C20.6,8.4,21,7.6,21,6.6c0-0.9-0.3-1.5-0.8-2
							S18.9,3.9,18,3.9c-1,0-1.7,0.3-2.3,1C15.3,5.5,15,6.4,15,7.7h-1.6c0-1.6,0.5-2.9,1.3-3.8c0.9-1,2.1-1.4,3.5-1.4
							C19.5,2.4,20.6,2.8,21.5,3.6z"/>
						<path class="st2" d="M34.8,3.5C35.6,4.2,36,5.1,36,6.3c0,1.6-0.8,2.7-2.3,3.2c0.8,0.3,1.5,0.7,1.9,1.2
							c0.5,0.6,0.7,1.3,0.7,2.1c0,1.3-0.5,2.4-1.4,3.2c-0.9,0.8-2.1,1.3-3.6,1.3c-1.4,0-2.5-0.4-3.3-1c-1-0.8-1.6-2.1-1.7-3.7H28
							c0,1.1,0.4,2,1.1,2.6c0.6,0.5,1.3,0.7,2.2,0.7c1,0,1.8-0.3,2.5-0.9c0.6-0.6,0.9-1.3,0.9-2.1c0-0.9-0.3-1.5-0.8-2
							c-0.6-0.5-1.3-0.7-2.3-0.7h-1.2V8.9h1.1c1,0,1.7-0.2,2.2-0.6c0.5-0.4,0.8-1.1,0.8-1.9S34.2,5,33.8,4.5
							c-0.5-0.5-1.3-0.7-2.2-0.7c-1,0-1.7,0.2-2.2,0.8c-0.6,0.5-0.9,1.3-1,2.2h-1.6c0.1-1.4,0.6-2.5,1.5-3.2
							c0.8-0.8,1.9-1.2,3.3-1.2C32.8,2.4,33.9,2.8,34.8,3.5z"/>
						<path class="st2" d="M42.1,15c0.2,0.2,0.4,0.5,0.4,0.9c0,0.3-0.1,0.6-0.4,0.9s-0.5,0.4-0.9,0.4s-0.6-0.1-0.9-0.4
							c-0.2-0.2-0.4-0.5-0.4-0.9s0.1-0.6,0.4-0.9c0.2-0.2,0.5-0.4,0.9-0.4S41.9,14.7,42.1,15z"/>
						<path class="st2" d="M55,4.4c0.8,1.2,1.3,2.9,1.3,5.1c0,2.3-0.5,4.1-1.3,5.6c-1,1.5-2.2,2.2-3.8,2.2c-2.7,0-4.2-1.3-4.6-3.8
							h1.6c0.3,1.6,1.3,2.4,3,2.4c1.1,0,2-0.6,2.6-1.7s0.9-2.4,0.9-4c0-0.1,0-0.3,0-0.5h-0.1c-0.4,0.7-0.9,1.3-1.5,1.7
							S51.7,12,50.9,12c-1.4,0-2.5-0.5-3.3-1.4s-1.2-2-1.2-3.4s0.4-2.6,1.4-3.5c0.9-0.9,2.1-1.4,3.5-1.4C52.8,2.4,54.1,3.1,55,4.4z
							 M48.8,4.8c-0.6,0.7-0.9,1.5-0.9,2.5s0.3,1.8,0.9,2.4c0.6,0.6,1.4,0.9,2.4,0.9c0.9,0,1.7-0.3,2.3-1c0.6-0.6,0.9-1.5,0.9-2.4
							c0-1-0.3-1.8-0.9-2.5c-0.6-0.7-1.4-1-2.4-1C50.1,3.8,49.4,4.1,48.8,4.8z"/>
						<path class="st2" d="M65.6,3.9c0.5,0.7,0.8,1.6,0.8,2.7s-0.3,2-0.8,2.7c-0.6,0.8-1.4,1.2-2.5,1.2s-1.9-0.4-2.5-1.2
							C60.2,8.7,60,7.8,60,6.6c0-1.1,0.2-2.1,0.8-2.7c0.6-0.8,1.4-1.2,2.5-1.2C64.2,2.7,65.1,3.1,65.6,3.9z M61.8,4.6
							c-0.3,0.5-0.4,1.1-0.4,2c0,0.8,0.1,1.5,0.4,2c0.3,0.6,0.7,0.9,1.3,0.9s1-0.3,1.3-0.9c0.2-0.5,0.4-1.1,0.4-1.9s-0.1-1.5-0.4-2
							c-0.3-0.6-0.7-0.9-1.3-0.9C62.6,3.8,62.1,4.1,61.8,4.6z M72.9,2.4l-8,14.8h-1.3l8-14.8C71.6,2.4,72.9,2.4,72.9,2.4z
							 M75.8,10.4c0.5,0.7,0.8,1.6,0.8,2.7s-0.3,2-0.8,2.7c-0.6,0.8-1.4,1.2-2.5,1.2s-1.9-0.4-2.5-1.2c-0.5-0.7-0.8-1.6-0.8-2.7
							s0.2-2.1,0.8-2.7c0.6-0.8,1.4-1.2,2.5-1.2S75.2,9.6,75.8,10.4z M72,11.1c-0.3,0.5-0.4,1.1-0.4,2c0,0.8,0.1,1.5,0.4,2
							c0.3,0.6,0.7,0.9,1.3,0.9c0.6,0,1-0.3,1.3-0.9c0.2-0.5,0.4-1.1,0.4-1.9c0-0.8-0.1-1.5-0.4-2c-0.3-0.6-0.7-0.9-1.3-0.9
							C72.7,10.3,72.3,10.5,72,11.1z"/>
					</g>
					<rect id="Rectangle-4_1_" y="26" class="st3" width="92" height="140"/>
				</g>
				<g id="Group_1_" transform="translate(132.000000, 68.000000)">
					<g class="st1">
						<path class="st2" d="M8.1,167.2v-1.5h1.4v1.5h6.9v-1.5h1.4v1.5h3.5v1.2h-3.5v6.6h3.8v1.3h-4.2c1,1.2,2.5,2.1,4.5,2.8l-0.6,1.2
							c-2.5-1-4.2-2.4-5.3-4.1H9.8c-1,1.7-2.7,3-5,4.1l-0.7-1.2c2-0.8,3.4-1.7,4.4-2.9H4.3V175h3.8v-6.6H4.6v-1.2H8.1z M13.7,177
							v1.6h4.1v1.3h-4.1v2.1h6.9v1.3H5.3V182h7v-2.1H8.2v-1.3h4.1V177H13.7z M16.4,169.9v-1.5H9.5v1.5H16.4z M16.4,172.4V171H9.5
							v1.4H16.4z M16.4,175v-1.4H9.5v1.4H16.4z"/>
						<path class="st2" d="M29,170.9l-0.7,1.1c-1-0.8-2-1.4-3.1-1.8l0.7-1.1C27,169.6,28.1,170.2,29,170.9z M33.6,178.8v-1.6H35v1.6
							h8.2v1.3H35v3.9h-1.4v-3.9h-8.1v-1.3H33.6z M30.4,173.7c-1,1.4-2.3,2.7-3.9,3.9l-1-1.1c1.6-1.1,3-2.4,4-3.7L30.4,173.7z
							 M30.6,167.8l-0.7,1.1c-1.1-0.9-2.2-1.6-3.3-2.1l0.7-1.1C28.4,166.3,29.5,167,30.6,167.8z M30.2,172.5l-0.4-1.3
							c1.7-1.7,2.8-3.5,3.5-5.5l1.3,0.3c-0.2,0.6-0.4,1.1-0.7,1.7h3.2c-0.2-0.6-0.5-1.2-0.7-1.8l1.4-0.2c0.2,0.6,0.4,1.3,0.6,2h4.2
							v1.2h-4.2v1.4h3.8v1.2h-3.8v1.4h3.8v1.2h-3.8v1.5h4.4v1.2H32v-5.9C31.4,171.3,30.9,171.9,30.2,172.5z M33.3,168.8v1.4h3.9
							v-1.4H33.3z M33.3,171.4v1.4h3.9v-1.4H33.3z M33.3,173.9v1.5h3.9v-1.5H33.3z"/>
						<path class="st2" d="M47.1,183.8l-0.3-1.4c0.7,0.1,1.3,0.1,1.9,0.1c0.5,0,0.8-0.3,0.8-0.8v-4.8c-0.9,0.3-1.8,0.6-2.7,0.8
							l-0.3-1.4c1-0.2,2-0.5,3-0.8v-4.6h-2.7v-1.4h2.7v-3.8h1.4v3.8h2.2v1.4h-2.2v4.1c0.8-0.3,1.6-0.7,2.4-1.1v1.5
							c-0.8,0.4-1.6,0.7-2.4,1v5.7c0,1.1-0.6,1.7-1.7,1.7H47.1z M63.9,168.6l-8.1,0.4v1.7c0,0.5,0.3,0.8,0.9,0.8h7.6v1.3H56
							c-1,0-1.5-0.5-1.5-1.5v-5.4h1.4v1.8l8.1-0.3v1.2H63.9z M63.7,184h-1.4v-1H56v1h-1.4v-9.4h9.1C63.7,174.6,63.7,184,63.7,184z
							 M62.3,178.1v-2.2H56v2.2H62.3z M62.3,181.7v-2.3H56v2.3H62.3z"/>
						<path class="st2" d="M72.2,184h-1.3v-10.5c-0.6,2-1.4,3.8-2.4,5.4l-0.6-1.6c1.4-2,2.4-4.2,3-6.6h-2.4v-1.3H71v-3.6h1.3v3.6
							h2.2v1.3h-2.2v1.1c0.9,1,1.8,2.1,2.7,3.4l-0.8,1.3c-0.7-1.3-1.3-2.3-1.8-3.1V184H72.2z M78,180.5c-0.9,1.3-2,2.4-3.3,3.4
							l-0.8-1.1c1.3-0.9,2.3-1.9,3.2-3.1L78,180.5z M78.2,169.1v-1.5h-3.5v-1.2h11.1v1.2h-3.3v1.5h3v4.7H75.2v-4.7H78.2z
							 M85.8,177.6v1.2h-5v5.1h-1.3v-5.1h-4.7v-1.2H85.8z M85,175v1.2h-9.3V175H85z M78.3,170.2h-1.8v2.5h1.8V170.2z M79.4,167.6
							v1.5h1.9v-1.5H79.4z M81.2,170.2h-1.9v2.5h1.9V170.2z M84.2,170.2h-1.8v2.5h1.8V170.2z M86.2,182.8l-1,0.9
							c-0.7-1-1.7-2.1-2.9-3.3l0.9-0.8C84.4,180.7,85.4,181.8,86.2,182.8z"/>
					</g>
					<g class="st1">
						<path class="st2" d="M25.5,3.6c0.8,0.8,1.3,1.8,1.3,3S26.3,9,25.3,10c-0.5,0.5-1.5,1.3-3,2.3c-1.8,1.2-2.9,2.3-3.1,3.3h7.5V17
							h-9.5c0-1.3,0.5-2.5,1.4-3.5c0.6-0.6,1.6-1.5,3.1-2.5c1.1-0.8,1.9-1.4,2.2-1.8C24.6,8.4,25,7.6,25,6.6c0-0.9-0.3-1.5-0.8-2
							S22.9,3.9,22,3.9c-1,0-1.7,0.3-2.3,1C19.3,5.5,19,6.4,19,7.7h-1.6c0-1.6,0.5-2.9,1.3-3.8c0.9-1,2.1-1.4,3.5-1.4
							C23.5,2.4,24.6,2.8,25.5,3.6z"/>
						<path class="st2" d="M35.2,2.7V17h-1.6V4.7c-0.9,0.9-2,1.6-3.4,2V5c0.6-0.2,1.3-0.5,2-0.9c0.7-0.4,1.2-0.9,1.7-1.5h1.3V2.7z"
							/>
						<path class="st2" d="M42.2,15c0.2,0.2,0.4,0.5,0.4,0.9c0,0.3-0.1,0.6-0.4,0.9s-0.5,0.4-0.9,0.4s-0.6-0.1-0.9-0.4
							c-0.2-0.2-0.4-0.5-0.4-0.9s0.1-0.6,0.4-0.9c0.2-0.2,0.5-0.4,0.9-0.4C41.6,14.6,41.9,14.7,42.2,15z"/>
						<path class="st2" d="M51.1,2.7V17h-1.6V4.7c-0.9,0.9-2,1.6-3.4,2V5c0.6-0.2,1.3-0.5,2-0.9s1.2-0.9,1.7-1.5h1.3V2.7z"/>
						<path class="st2" d="M61.7,3.9c0.5,0.7,0.8,1.6,0.8,2.7s-0.3,2-0.8,2.7c-0.6,0.8-1.4,1.2-2.5,1.2s-1.9-0.4-2.5-1.2
							C56.2,8.7,56,7.8,56,6.6c0-1.1,0.2-2.1,0.8-2.7c0.6-0.8,1.4-1.2,2.5-1.2C60.3,2.7,61.1,3.1,61.7,3.9z M57.9,4.6
							c-0.3,0.5-0.4,1.1-0.4,2c0,0.8,0.1,1.5,0.4,2c0.3,0.6,0.7,0.9,1.3,0.9s1-0.3,1.3-0.9c0.2-0.5,0.4-1.1,0.4-1.9s-0.1-1.5-0.4-2
							c-0.3-0.6-0.7-0.9-1.3-0.9C58.6,3.8,58.2,4.1,57.9,4.6z M68.9,2.4l-8,14.8h-1.3l8-14.8C67.6,2.4,68.9,2.4,68.9,2.4z
							 M71.8,10.4c0.5,0.7,0.8,1.6,0.8,2.7s-0.3,2-0.8,2.7c-0.6,0.8-1.4,1.2-2.5,1.2s-1.9-0.4-2.5-1.2c-0.5-0.7-0.8-1.6-0.8-2.7
							s0.2-2.1,0.8-2.7c0.6-0.8,1.4-1.2,2.5-1.2S71.3,9.6,71.8,10.4z M68,11.1c-0.3,0.5-0.4,1.1-0.4,2c0,0.8,0.1,1.5,0.4,2
							c0.3,0.6,0.7,0.9,1.3,0.9c0.6,0,1-0.3,1.3-0.9c0.2-0.5,0.4-1.1,0.4-1.9c0-0.8-0.1-1.5-0.4-2c-0.3-0.6-0.7-0.9-1.3-0.9
							C68.8,10.3,68.3,10.5,68,11.1z"/>
					</g>
					<rect id="Rectangle-4-Copy_1_" y="26" class="st4" width="92" height="119"/>
				</g>
				<g class="st1">
					<path class="st2" d="M48.5,16.5v1.4h-18v-1.4H48.5z M47.1,2.2v1.4H32V2.2H47.1z M45.7,9.1v1.4H33.3V9.1H45.7z"/>
					<path class="st2" d="M52,7.9l-1-1.2c2-1.5,3.4-3.6,4.1-6.2l1.5,0.3c-0.2,0.8-0.5,1.5-0.8,2.1h12.4v1.4H62v3.2h5.6v1.4H62v4.3
						h6.9v1.4H62v4.5h-1.5v-4.5h-9.2v-1.4h3.3V7.5h5.9V4.3h-5.4C54.3,5.7,53.3,6.9,52,7.9z M60.5,13.2V8.9H56v4.3H60.5z"/>
					<path class="st2" d="M74.7,11.4h-3.2V10h3.4c0.1-1.5,0.2-3,0.2-4.6h12.4L87.4,10h2.5v1.4h-2.6c-0.1,1.4-0.1,2.5-0.2,3.4h2.2
						v1.3H87c0,0.5-0.1,0.9-0.1,1c-0.2,0.6-0.5,1.1-1,1.4s-1.2,0.4-2.2,0.4c-0.7,0-1.5,0-2.4,0l-0.4-1.3c1,0,1.8,0.1,2.6,0.1
						c0.5,0,0.9-0.1,1.3-0.2s0.6-0.4,0.8-0.9c0-0.1,0.1-0.3,0.1-0.6H74C74.3,14.6,74.6,13,74.7,11.4z M72.6,7.7l-0.9-1.1
						C73.4,5,74.8,3,75.9,0.5l1.5,0.3c-0.2,0.5-0.5,1-0.7,1.5H89v1.4H75.9C75,5.3,73.9,6.6,72.6,7.7z M86,11.4h-9.8
						c-0.1,1.2-0.3,2.4-0.5,3.4h10.1C85.9,13.9,85.9,12.8,86,11.4z M82.5,10c-1.3-0.8-2.6-1.4-3.9-1.9l0.7-1c1.5,0.5,2.8,1.1,4,1.9
						L82.5,10H86c0-1,0.1-2.1,0.1-3.3h-9.6c0,1.2-0.1,2.2-0.2,3.3H82.5z M83.2,13.7l-0.7,1c-1.3-0.8-2.7-1.5-4-2l0.7-0.9
						C80.6,12.3,81.9,12.9,83.2,13.7z"/>
					<path class="st2" d="M99.4,17.2c0,1.1-0.6,1.7-1.7,1.7h-1.6l-0.3-1.3c0.6,0,1.1,0.1,1.6,0.1s0.7-0.3,0.7-1V12
						c-1,0.2-2.1,0.5-3.2,0.6c-0.2,2.6-0.7,4.7-1.7,6.4l-1.1-1c1-1.8,1.4-4.2,1.5-7V1.4h5.9v15.8H99.4z M98.1,6.8V2.7h-3.2v3.4
						C96,6.3,97,6.5,98.1,6.8z M98.1,10.8V8c-1-0.3-2.1-0.5-3.2-0.7v4C96,11.2,97.1,11,98.1,10.8z M109,9.2v1.3
						c-0.5,1.9-1.4,3.5-2.7,4.9c1.2,0.9,2.6,1.7,4.2,2.4l-0.8,1.2c-1.8-0.8-3.2-1.7-4.4-2.7c-1.3,1.1-2.9,2-4.7,2.6l-0.8-1.2
						c1.8-0.6,3.2-1.4,4.4-2.4c-1.4-1.4-2.3-3-2.8-4.8h-1V9.1h8.6V9.2z M108,1.4v4.4c0,0.4,0.2,0.6,0.6,0.6h1.6v1.3h-1.9
						c-1.1,0-1.7-0.6-1.7-1.7V2.8h-3.4V4c0,1.9-0.7,3.4-2.1,4.4l-1-1.1c1.1-0.8,1.7-1.8,1.7-3.2V1.4H108z M105.3,14.4
						c1.1-1.1,1.9-2.4,2.4-3.9h-4.8C103.3,12,104.1,13.3,105.3,14.4z"/>
					<path class="st2" d="M128.8,17.1h2.1v1.3h-18.1v-1.3h2.2v-4.5h13.8V17.1z M120.9,8.3c0.7-0.6,1.2-1.3,1.6-2.1h-4.8
						c-0.2,0.7-0.5,1.3-0.7,1.9c-0.7,1.5-1.8,2.8-3.3,3.9l-0.8-1.1c1.2-1,2.2-2.2,2.8-3.4c0.6-1.2,1-2.8,1.3-4.8h-3V1.4h13v0.7
						c-0.1,1-0.3,1.9-0.5,2.7h3.2v0.8c-0.2,2.7-0.4,4.3-0.8,5c-0.3,0.5-0.8,0.8-1.5,0.9c-0.5,0-1.1,0-1.8,0l-0.5-1.4
						c0.6,0.1,1.1,0.2,1.4,0.2c0.5,0,0.9-0.2,1.2-0.5c0.3-0.4,0.4-1.6,0.6-3.6h-3.4c0.3-1,0.5-2.1,0.7-3.3h-7.3
						c-0.1,0.8-0.3,1.5-0.4,2.2h6v1.2c-0.4,1.1-0.9,2.1-1.8,2.9c0.9,0.5,1.7,1.1,2.4,1.6l-1.1,1.1c-0.7-0.6-1.5-1.2-2.4-1.8
						c-1.1,0.7-2.4,1.3-3.9,1.8l-0.7-1.2c1.3-0.4,2.4-0.8,3.3-1.3c-0.7-0.4-1.4-0.8-2.1-1.2l0.9-0.9C119.4,7.5,120.2,7.9,120.9,8.3z
						 M119.1,17.1v-3.2h-2.7v3.2H119.1z M123.2,17.1v-3.2h-2.8v3.2H123.2z M127.4,17.1v-3.2h-2.8v3.2H127.4z"/>
					<path class="st2" d="M134,6.2l-0.8-1.1c1.3-1.2,2.5-2.6,3.6-4.2h1c1.1,1.1,2.2,2.2,3.3,3.5l-0.9,1c-1-1.3-2-2.3-2.8-3.1
						c-0.5,0.7-1.1,1.4-1.6,2.1h3.4v1.1h-3.4V4.4C135.1,5,134.6,5.6,134,6.2z M140.4,17.7l-1.2,0.5c-0.1-0.4-0.2-0.7-0.4-1.1
						c-1.3,0.6-2.8,1-4.4,1.5l-0.4-1.1c0.3-0.1,0.4-0.3,0.4-0.6V6.6h5.6v7h-4.3v3.5c1-0.3,1.9-0.7,2.7-1c-0.2-0.6-0.5-1.1-0.8-1.6
						l1.2-0.4C139.4,15.2,139.9,16.4,140.4,17.7z M138.7,7.8h-3v1.8h3V7.8z M135.7,12.4h3v-1.8h-3V12.4z M143.7,18.9l-0.3-1.4
						c0.5,0.1,1,0.1,1.4,0.1s0.7-0.3,0.7-0.7v-5.8h-4.2V9.7h4.2V7.4H143V6.1c-0.5,0.5-1.1,1-1.7,1.4l-0.8-1.2c2-1.4,3.7-3.3,5-5.6
						h1.2c1.1,2.2,2.8,3.9,5.1,5.4L151,7.3c-2-1.3-3.7-3-4.9-5.2c-0.9,1.5-2,2.9-3.1,4h6.3v1.3h-2.5v2.4h4.2v1.4h-4.2v6.1
						c0,1.1-0.5,1.7-1.6,1.7h-1.5V18.9z M144.1,13.3c-0.6,1.7-1.4,3.2-2.3,4.5l-1.1-0.8c0.9-1.2,1.6-2.6,2.3-4.3L144.1,13.3z
						 M151.5,16.8l-1.1,0.8c-0.6-1.3-1.3-2.8-2.3-4.4l1.1-0.7C150.1,14.2,150.9,15.6,151.5,16.8z"/>
					<path class="st2" d="M170.4,2.8l-0.9,0.9h2.4v1.4h-6.2c0.1,2.5,0.4,4.4,0.8,5.9c0.1,0.5,0.3,1,0.4,1.4c1-1.6,1.8-3.5,2.4-5.6
						l1.3,0.6c-0.8,2.6-1.8,4.9-3.1,6.7c0.3,0.6,0.6,1.2,0.9,1.7c0.7,1,1.2,1.4,1.6,1.4c0.4,0,0.7-1.1,1-3.1l1.3,0.7
						c-0.5,2.7-1.2,4-2.1,4c-0.8,0-1.7-0.6-2.7-1.8c-0.4-0.5-0.7-1-1-1.7c-1.4,1.6-3,2.9-4.9,3.7l-0.8-1.2c2-0.9,3.7-2.2,5.1-4
						c-0.3-0.7-0.5-1.5-0.8-2.4c-0.4-1.7-0.7-3.8-0.9-6.3h-6.9v3.3h4.9c0,3.4-0.2,5.6-0.5,6.5s-0.9,1.3-1.9,1.3
						c-0.5,0-1.1,0-1.7-0.1l-0.4-1.3c0.8,0,1.4,0.1,2,0.1c0.4,0,0.7-0.3,0.8-0.9c0.1-0.7,0.2-2.1,0.2-4.3h-3.5v0.6
						c-0.1,3.6-0.9,6.5-2.4,8.6l-1.1-1c1.3-1.8,1.9-4.4,2-7.6V3.7h8.3c0-1-0.1-2-0.1-3.1h1.5c0,1.1,0,2.1,0.1,3.1h3.7
						c-0.6-0.7-1.4-1.5-2.4-2.2l0.9-0.9C168.9,1.3,169.8,2.1,170.4,2.8z"/>
					<path class="st2" d="M179.7,7.2h9.8v1.2h-9.8v1.7h12.6v1.3h-13v5.9c1.7-0.3,3.4-0.8,5.1-1.4l0.3,1.3c-1.9,0.7-4.2,1.2-6.7,1.7
						l-0.6-1.2c0.3-0.1,0.5-0.3,0.5-0.6v-5.7h-2.8v-1.3h3.2V1.4h12.2v1.3h-10.8v1.7h9.8v1.2h-9.8V7.2z M186.7,14.6
						c1.2-0.6,2.4-1.4,3.5-2.6l0.9,0.9c-1,1.1-2.1,1.9-3.4,2.5c1.4,1,3.1,1.8,5.2,2.4L192,19c-4-1.1-6.9-3.3-8.6-6.4l1.1-0.7
						C185.1,12.9,185.8,13.8,186.7,14.6z"/>
					<path class="st2" d="M203.6,2.3c-0.3-0.6-0.6-1.2-0.9-1.7l1.5-0.2c0.3,0.6,0.6,1.2,0.9,1.9h7.9v1.4h-8.4
						c-0.6,1.1-1.2,2.1-2,2.8l2.6-0.2c0.5-0.6,0.9-1.2,1.4-1.8l1.3,0.5c-1.9,2.4-3.6,4.3-5.1,5.5c1.3-0.2,2.5-0.3,3.7-0.5
						c-0.2-0.5-0.5-1-0.7-1.4l1.2-0.4c0.7,1.2,1.2,2.4,1.7,3.7l-1.3,0.6c-0.2-0.5-0.3-0.9-0.5-1.4c-0.6,0.1-1.3,0.2-2,0.3v2.3h8.2
						V15H205v4.1h-1.5V15h-8.2v-1.4h8.2v-2.2c-0.9,0.1-1.8,0.2-2.8,0.3l-0.3-1.3l0.5-0.1c0.9-0.5,1.9-1.5,3.2-2.9
						c-1.1,0.1-2.2,0.2-3.4,0.3l-0.3-1.2c1-0.6,1.9-1.6,2.5-2.9h-7.4V2.3H203.6z M200.1,9.2c-1,1.3-2.1,2.3-3.3,3.2l-1-1.1
						c1.2-0.8,2.2-1.8,3.2-2.9L200.1,9.2z M199.9,6.8l-1,1c-0.7-0.8-1.6-1.6-2.8-2.5l1-1C198.2,5.2,199.1,6,199.9,6.8z M212.3,5.1
						c-0.9,1.1-1.8,1.9-2.8,2.7l-0.9-1c1-0.7,1.8-1.5,2.6-2.4L212.3,5.1z M212.7,11.3l-1,1c-0.7-1-1.7-2-3-3.1l0.9-0.9
						C210.8,9.3,211.9,10.3,212.7,11.3z"/>
				</g>
			</g>
			<rect id="Rectangle-3-Copy-11_2_" y="350" class="st0" width="244" height="2"/>
			<g id="Group-2_2_" transform="translate(20.000000, 212.000000)">
				<g class="st1">
					<path class="st2" d="M23.3,162.3v-3.6h1.5v3.6h7.8v1.4H26c1.3,3.2,3.7,6,7.2,8.5l-1,1.2c-3.5-2.9-6-6.1-7.3-9.8h-0.2v7.8H29
						v1.4h-4.3v4.1h-1.5v-4.1h-4.1v-1.4h4.1v-7.8h-0.1c-1.5,4.1-4,7.4-7.6,10l-0.8-1.3c3.4-2.2,5.8-5.1,7.2-8.7h-6.5v-1.4h7.9V162.3
						z"/>
					<path class="st2" d="M40.5,160.2v-1.5h1.4v1.5h6.9v-1.5h1.4v1.5h3.5v1.2h-3.5v6.6H54v1.3h-4.2c1,1.2,2.5,2.1,4.5,2.8l-0.6,1.2
						c-2.5-1-4.2-2.4-5.3-4.1h-6.3c-1,1.7-2.7,3-5,4.1l-0.7-1.2c2-0.8,3.4-1.7,4.4-2.9h-4.2V168h3.8v-6.6h-3.5v-1.2H40.5z M46,170
						v1.6h4.1v1.3H46v2.1h6.9v1.3H37.6V175h7v-2.1h-4.1v-1.3h4.1V170H46z M48.8,162.9v-1.5h-6.9v1.5H48.8z M48.8,165.4V164h-6.9v1.4
						H48.8z M48.8,168v-1.4h-6.9v1.4H48.8z"/>
					<path class="st2" d="M58.4,166l-0.8-1.2c3.5-1.6,6.3-3.5,8.5-6h1.2c1.9,2.4,4.7,4.3,8.5,5.9l-0.8,1.2c-1.1-0.4-2-0.9-3-1.5v1.1
						h-4.5v2.9h7.1v1.3h-7.1v5.3h2.2c0.7-1.3,1.3-2.7,1.8-4.2l1.3,0.5c-0.5,1.4-1.1,2.7-1.7,3.7h4.1v1.4H58.1V175h4.1
						c-0.4-1.3-1-2.5-1.6-3.6l1.3-0.5c0.6,1.1,1.2,2.5,1.7,4.1h2.3v-5.3h-7.1v-1.3h7.1v-2.9h-4.5v-1.2C60.4,165,59.4,165.5,58.4,166
						z M66.7,160.2c-1.5,1.6-3.2,2.9-5,4.1h10C69.6,163.1,68,161.7,66.7,160.2z"/>
				</g>
				<g class="st1">
					<path class="st2" d="M19.9,2.7V17h-1.6V4.7c-0.9,0.9-2,1.6-3.4,2V5c0.6-0.2,1.3-0.5,2-0.9s1.2-0.9,1.7-1.5h1.3V2.7z"/>
					<path class="st2" d="M33.1,4.4c0.8,1.2,1.3,2.9,1.3,5.1c0,2.3-0.5,4.1-1.3,5.6c-1,1.5-2.2,2.2-3.8,2.2c-2.7,0-4.2-1.3-4.6-3.8
						h1.6c0.3,1.6,1.3,2.4,3,2.4c1.1,0,2-0.6,2.6-1.7s0.9-2.4,0.9-4c0-0.1,0-0.3,0-0.5h-0.1c-0.4,0.7-0.9,1.3-1.5,1.7S29.8,12,29,12
						c-1.4,0-2.5-0.5-3.3-1.4s-1.2-2-1.2-3.4s0.4-2.6,1.4-3.5c0.9-0.9,2.1-1.4,3.5-1.4C30.9,2.4,32.2,3.1,33.1,4.4z M26.9,4.8
						C26.3,5.5,26,6.3,26,7.3s0.3,1.8,0.9,2.4s1.4,0.9,2.4,0.9c0.9,0,1.7-0.3,2.3-1c0.6-0.6,0.9-1.5,0.9-2.4c0-1-0.3-1.8-0.9-2.5
						s-1.4-1-2.4-1C28.2,3.8,27.5,4.1,26.9,4.8z"/>
					<path class="st2" d="M40.2,15c0.2,0.2,0.4,0.5,0.4,0.9c0,0.3-0.1,0.6-0.4,0.9c-0.2,0.2-0.5,0.4-0.9,0.4s-0.6-0.1-0.9-0.4
						c-0.2-0.2-0.4-0.5-0.4-0.9s0.1-0.6,0.4-0.9c0.2-0.2,0.5-0.4,0.9-0.4C39.6,14.6,39.9,14.7,40.2,15z"/>
					<path class="st2" d="M54,6.3h-1.6c-0.3-1.6-1.3-2.4-3-2.4c-1.1,0-2,0.5-2.6,1.7c-0.6,1-0.9,2.4-0.9,4c0,0.1,0,0.3,0,0.5H46
						c0.4-0.7,0.9-1.3,1.5-1.7s1.4-0.6,2.2-0.6c1.4,0,2.5,0.4,3.3,1.3c0.8,0.9,1.2,2,1.2,3.4s-0.5,2.6-1.4,3.5s-2.1,1.4-3.5,1.4
						c-1.7,0-3-0.7-3.9-1.9c-0.8-1.2-1.2-2.9-1.2-5.1c0-2.3,0.4-4.1,1.3-5.6c0.9-1.5,2.2-2.2,3.8-2.2C52.1,2.4,53.6,3.7,54,6.3z
						 M47.1,10c-0.6,0.6-0.9,1.4-0.9,2.4s0.3,1.8,0.9,2.5c0.6,0.7,1.4,1,2.4,1s1.7-0.3,2.3-1c0.6-0.7,0.9-1.5,0.9-2.5
						s-0.3-1.8-0.9-2.4c-0.6-0.6-1.4-0.9-2.4-0.9C48.5,9,47.7,9.3,47.1,10z"/>
					<path class="st2" d="M63.7,3.9c0.5,0.7,0.8,1.6,0.8,2.7s-0.3,2-0.8,2.7c-0.6,0.8-1.4,1.2-2.5,1.2s-1.9-0.4-2.5-1.2
						C58.2,8.7,58,7.8,58,6.6c0-1.1,0.2-2.1,0.8-2.7c0.6-0.8,1.4-1.2,2.5-1.2C62.3,2.7,63.1,3.1,63.7,3.9z M59.9,4.6
						c-0.3,0.5-0.4,1.1-0.4,2c0,0.8,0.1,1.5,0.4,2c0.3,0.6,0.7,0.9,1.3,0.9s1-0.3,1.3-0.9c0.2-0.5,0.4-1.1,0.4-1.9s-0.1-1.5-0.4-2
						c-0.3-0.6-0.7-0.9-1.3-0.9C60.6,3.8,60.1,4.1,59.9,4.6z M70.9,2.4l-8,14.8h-1.3l8-14.8C69.6,2.4,70.9,2.4,70.9,2.4z M73.8,10.4
						c0.5,0.7,0.8,1.6,0.8,2.7s-0.3,2-0.8,2.7c-0.6,0.8-1.4,1.2-2.5,1.2s-1.9-0.4-2.5-1.2c-0.5-0.7-0.8-1.6-0.8-2.7s0.2-2.1,0.8-2.7
						c0.6-0.8,1.4-1.2,2.5-1.2S73.2,9.6,73.8,10.4z M70,11.1c-0.3,0.5-0.4,1.1-0.4,2c0,0.8,0.1,1.5,0.4,2c0.3,0.6,0.7,0.9,1.3,0.9
						c0.6,0,1-0.3,1.3-0.9c0.2-0.5,0.4-1.1,0.4-1.9c0-0.8-0.1-1.5-0.4-2c-0.3-0.6-0.7-0.9-1.3-0.9C70.7,10.3,70.3,10.5,70,11.1z"/>
				</g>
				<rect id="Rectangle-4_2_" y="26" class="st3" width="92" height="112"/>
			</g>
			<g id="Group_2_" transform="translate(132.000000, 240.000000)">
				<g class="st1">
					<path class="st2" d="M8.1,132.2v-1.5h1.4v1.5h6.9v-1.5h1.4v1.5h3.5v1.2h-3.5v6.6h3.8v1.3h-4.2c1,1.2,2.5,2.1,4.5,2.8l-0.6,1.2
						c-2.5-1-4.2-2.4-5.3-4.1H9.8c-1,1.7-2.7,3-5,4.1l-0.7-1.2c2-0.8,3.4-1.7,4.4-2.9H4.3V140h3.8v-6.6H4.6v-1.2H8.1z M13.7,142v1.6
						h4.1v1.3h-4.1v2.1h6.9v1.3H5.3V147h7v-2.1H8.2v-1.3h4.1V142H13.7z M16.4,134.9v-1.5H9.5v1.5H16.4z M16.4,137.4V136H9.5v1.4
						H16.4z M16.4,140v-1.4H9.5v1.4H16.4z"/>
					<path class="st2" d="M29,135.9l-0.7,1.1c-1-0.8-2-1.4-3.1-1.8l0.7-1.1C27,134.6,28.1,135.2,29,135.9z M33.6,143.8v-1.6H35v1.6
						h8.2v1.3H35v3.9h-1.4v-3.9h-8.1v-1.3H33.6z M30.4,138.7c-1,1.4-2.3,2.7-3.9,3.9l-1-1.1c1.6-1.1,3-2.4,4-3.7L30.4,138.7z
						 M30.6,132.8l-0.7,1.1c-1.1-0.9-2.2-1.6-3.3-2.1l0.7-1.1C28.4,131.3,29.5,132,30.6,132.8z M30.2,137.5l-0.4-1.3
						c1.7-1.7,2.8-3.5,3.5-5.5l1.3,0.3c-0.2,0.6-0.4,1.1-0.7,1.7h3.2c-0.2-0.6-0.5-1.2-0.7-1.8l1.4-0.2c0.2,0.6,0.4,1.3,0.6,2h4.2
						v1.2h-4.2v1.4h3.8v1.2h-3.8v1.4h3.8v1.2h-3.8v1.5h4.4v1.2H32v-5.9C31.4,136.3,30.9,136.9,30.2,137.5z M33.3,133.8v1.4h3.9v-1.4
						H33.3z M33.3,136.4v1.4h3.9v-1.4H33.3z M33.3,138.9v1.5h3.9v-1.5H33.3z"/>
					<path class="st2" d="M47.1,148.8l-0.3-1.4c0.7,0.1,1.3,0.1,1.9,0.1c0.5,0,0.8-0.3,0.8-0.8v-4.8c-0.9,0.3-1.8,0.6-2.7,0.8
						l-0.3-1.4c1-0.2,2-0.5,3-0.8v-4.6h-2.7v-1.4h2.7v-3.8h1.4v3.8h2.2v1.4h-2.2v4.1c0.8-0.3,1.6-0.7,2.4-1.1v1.5
						c-0.8,0.4-1.6,0.7-2.4,1v5.7c0,1.1-0.6,1.7-1.7,1.7H47.1z M63.9,133.6l-8.1,0.4v1.7c0,0.5,0.3,0.8,0.9,0.8h7.6v1.3H56
						c-1,0-1.5-0.5-1.5-1.5v-5.4h1.4v1.8l8.1-0.3v1.2H63.9z M63.7,149h-1.4v-1H56v1h-1.4v-9.4h9.1C63.7,139.6,63.7,149,63.7,149z
						 M62.3,143.1v-2.2H56v2.2H62.3z M62.3,146.7v-2.3H56v2.3H62.3z"/>
					<path class="st2" d="M72.2,149h-1.3v-10.5c-0.6,2-1.4,3.8-2.4,5.4l-0.6-1.6c1.4-2,2.4-4.2,3-6.6h-2.4v-1.3H71v-3.6h1.3v3.6h2.2
						v1.3h-2.2v1.1c0.9,1,1.8,2.1,2.7,3.4l-0.8,1.3c-0.7-1.3-1.3-2.3-1.8-3.1V149H72.2z M78,145.5c-0.9,1.3-2,2.4-3.3,3.4l-0.8-1.1
						c1.3-0.9,2.3-1.9,3.2-3.1L78,145.5z M78.2,134.1v-1.5h-3.5v-1.2h11.1v1.2h-3.3v1.5h3v4.7H75.2v-4.7H78.2z M85.8,142.6v1.2h-5
						v5.1h-1.3v-5.1h-4.7v-1.2H85.8z M85,140v1.2h-9.3V140H85z M78.3,135.2h-1.8v2.5h1.8V135.2z M79.4,132.6v1.5h1.9v-1.5H79.4z
						 M81.2,135.2h-1.9v2.5h1.9V135.2z M84.2,135.2h-1.8v2.5h1.8V135.2z M86.2,147.8l-1,0.9c-0.7-1-1.7-2.1-2.9-3.3l0.9-0.8
						C84.4,145.7,85.4,146.8,86.2,147.8z"/>
				</g>
				<g class="st1">
					<path class="st2" d="M19.9,2.7V17h-1.6V4.7c-0.9,0.9-2,1.6-3.4,2V5c0.6-0.2,1.3-0.5,2-0.9s1.2-0.9,1.7-1.5h1.3V2.7z"/>
					<path class="st2" d="M33.4,2.7V4l-5.3,13h-1.7l5.3-12.8H24V2.7H33.4z"/>
					<path class="st2" d="M39.1,15c0.2,0.2,0.4,0.5,0.4,0.9c0,0.3-0.1,0.6-0.4,0.9c-0.2,0.2-0.5,0.4-0.9,0.4s-0.6-0.1-0.9-0.4
						c-0.2-0.2-0.4-0.5-0.4-0.9s0.1-0.6,0.4-0.9c0.2-0.2,0.5-0.4,0.9-0.4S38.9,14.7,39.1,15z"/>
					<path class="st2" d="M52.1,4.7c0.8,1.3,1.1,3,1.1,5.2s-0.4,3.9-1.1,5.2c-0.9,1.5-2.2,2.3-3.9,2.3s-3-0.8-3.9-2.3
						c-0.8-1.3-1.1-3-1.1-5.2s0.4-3.9,1.1-5.2c0.9-1.5,2.1-2.3,3.9-2.3C49.9,2.4,51.2,3.2,52.1,4.7z M45.4,5.9c-0.4,1-0.6,2.3-0.6,4
						s0.2,3,0.6,4c0.6,1.4,1.5,2.1,2.8,2.1s2.2-0.7,2.8-2.1c0.4-1,0.6-2.3,0.6-4s-0.2-3-0.6-4c-0.6-1.4-1.5-2.1-2.8-2.1
						S46,4.5,45.4,5.9z"/>
					<path class="st2" d="M62.6,3.9c0.5,0.7,0.8,1.6,0.8,2.7s-0.3,2-0.8,2.7c-0.6,0.8-1.4,1.2-2.5,1.2s-1.9-0.4-2.5-1.2
						c-0.5-0.7-0.8-1.6-0.8-2.7s0.2-2.1,0.8-2.7c0.6-0.8,1.4-1.2,2.5-1.2C61.2,2.7,62,3.1,62.6,3.9z M58.8,4.6
						c-0.3,0.5-0.4,1.1-0.4,2c0,0.8,0.1,1.5,0.4,2c0.3,0.6,0.7,0.9,1.3,0.9s1-0.3,1.3-0.9c0.2-0.5,0.4-1.1,0.4-1.9s-0.1-1.5-0.4-2
						c-0.3-0.6-0.7-0.9-1.3-0.9S59.1,4.1,58.8,4.6z M69.9,2.4l-8,14.8h-1.3l8-14.8C68.6,2.4,69.9,2.4,69.9,2.4z M72.8,10.4
						c0.5,0.7,0.8,1.6,0.8,2.7s-0.3,2-0.8,2.7c-0.6,0.8-1.4,1.2-2.5,1.2s-1.9-0.4-2.5-1.2c-0.5-0.7-0.8-1.6-0.8-2.7s0.2-2.1,0.8-2.7
						c0.6-0.8,1.4-1.2,2.5-1.2S72.2,9.6,72.8,10.4z M69,11.1c-0.3,0.5-0.4,1.1-0.4,2c0,0.8,0.1,1.5,0.4,2c0.3,0.6,0.7,0.9,1.3,0.9
						c0.6,0,1-0.3,1.3-0.9c0.2-0.5,0.4-1.1,0.4-1.9c0-0.8-0.1-1.5-0.4-2c-0.3-0.6-0.7-0.9-1.3-0.9C69.7,10.3,69.2,10.5,69,11.1z"/>
				</g>
				<rect id="Rectangle-4-Copy_2_" y="26" class="st4" width="92" height="84"/>
			</g>
			<g class="st1">
				<path class="st2" d="M58.1,154.2c0,1.1-0.6,1.7-1.7,1.7h-1.6l-0.3-1.3c0.6,0,1.1,0.1,1.6,0.1s0.7-0.3,0.7-1V149
					c-1,0.2-2.1,0.5-3.2,0.6c-0.2,2.6-0.7,4.7-1.7,6.4l-1.1-1c1-1.8,1.4-4.2,1.5-7v-9.7h5.9v15.9H58.1z M56.8,143.8v-4.1h-3.2v3.4
					C54.7,143.3,55.7,143.5,56.8,143.8z M56.8,147.8V145c-1-0.3-2.1-0.5-3.2-0.7v4C54.7,148.2,55.8,148,56.8,147.8z M67.7,146.2v1.3
					c-0.5,1.9-1.4,3.5-2.7,4.9c1.2,0.9,2.6,1.7,4.2,2.4l-0.8,1.2c-1.8-0.8-3.2-1.7-4.4-2.7c-1.3,1.1-2.9,2-4.7,2.6l-0.8-1.2
					c1.8-0.6,3.2-1.4,4.4-2.4c-1.4-1.4-2.3-3-2.8-4.8h-1v-1.4L67.7,146.2L67.7,146.2z M66.7,138.4v4.4c0,0.4,0.2,0.6,0.6,0.6h1.6
					v1.3H67c-1.1,0-1.7-0.6-1.7-1.7v-3.3h-3.4v1.2c0,1.9-0.7,3.4-2.1,4.4l-1-1.1c1.1-0.8,1.7-1.8,1.7-3.2v-2.7h6.2V138.4z M64,151.4
					c1.1-1.1,1.9-2.4,2.4-3.9h-4.8C62,149,62.8,150.3,64,151.4z"/>
				<path class="st2" d="M79.9,139.4v-1.8h1.4v1.8h8v1.4h-8v1.8h6.4v7.4h-5c1.5,1.8,3.8,3.1,7,4.1l-0.6,1.3
					c-3.6-1.4-6.1-3.2-7.6-5.4h-0.1v6.2H80V150h-0.2c-1.3,2.2-3.7,4-7.4,5.5l-0.8-1.3c3.4-1.3,5.7-2.7,7-4.3h-5.1v-7.4H80v-1.8h-8
					v-1.4L79.9,139.4L79.9,139.4z M79.9,143.8h-5.1v1.8h5.1V143.8z M74.8,148.7h5.1v-1.8h-5.1V148.7z M86.3,143.8h-5v1.8h5V143.8z
					 M81.3,148.7h5v-1.8h-5V148.7z"/>
				<path class="st2" d="M96.2,155.9h-1.4v-10c-0.6,1.9-1.4,3.6-2.3,5.2l-0.6-1.5c1.3-2,2.3-4.2,2.8-6.7h-2.3v-1.4h2.4v-3.9h1.4v3.9
					h1.9v1.4h-1.9v1.2c0.8,1,1.6,2,2.5,3.2l-0.8,1.1c-0.7-1.2-1.2-2.1-1.7-2.8V155.9z M97.8,151.5l-0.4-1.3c1.5-1.5,2.5-3.1,3.1-4.8
					l1.3,0.2c-0.1,0.3-0.3,0.7-0.4,1h2.8c-0.2-0.4-0.4-0.8-0.6-1.1l1.4-0.2c0.2,0.4,0.4,0.8,0.6,1.3h4.1v1.2h-3.9v1.4h3.3v1.1h-3.3
					v1.3h3.5v1.1h-3.5v1.4h4.3v1.2h-9.4v0.7h-1.3v-6.2C99.1,150.3,98.5,150.9,97.8,151.5z M101.9,138.8v-1.2h1.3v3.5h-1.3V140h-3.6
					v-1.2H101.9z M103.7,141.6v3.4h-4.6v-3.4H103.7z M102.6,142.6h-2.4v1.4h2.4V142.6z M104.6,147.8h-3.7c0,0,0,0,0,0.1v1.3h3.8
					v-1.4H104.6z M104.6,150.2h-3.8v1.3h3.8V150.2z M104.6,154v-1.4h-3.8v1.4H104.6z M109.5,141.6v3.4h-4.7v-3.4H109.5z
					 M106.7,137.6v1.2h3.6v1.2h-3.6v1.1h-1.3v-3.5H106.7z M108.4,142.6h-2.5v1.4h2.5V142.6z"/>
				<path class="st2" d="M119.9,144.2c-1.7,1.6-3.9,3-6.5,4.1l-0.6-1.3c2.5-1,4.6-2.2,6.2-3.8L119.9,144.2z M128.2,154h2.5v1.4H113
					V154h2.6v-6.4h12.6V154z M118.5,141.2c-0.6-0.9-1.5-1.8-2.5-2.8l1.2-0.7c1.1,1.1,1.9,2.1,2.5,2.9l-0.9,0.7h5.1
					c0.8-1.1,1.5-2.3,2.1-3.6l1.4,0.5c-0.6,1.2-1.2,2.2-1.9,3.1h4.8v1.4h-16.9v-1.4L118.5,141.2L118.5,141.2z M119.3,154v-5.1H117
					v5.1H119.3z M123.1,154v-5.1h-2.4v5.1H123.1z M130.8,147.1l-0.8,1.3c-2-1.7-4.1-3-6.1-3.9l0.7-1.1
					C126.9,144.4,128.9,145.6,130.8,147.1z M126.8,154v-5.1h-2.4v5.1H126.8z"/>
				<path class="st2" d="M138.6,137.7v2.1h3.1v1.3h-3.1v2.4h3.9v1.3h-1.7c-0.2,1-0.4,1.9-0.7,2.8h1.7v1.3h-3.2v2.4h3.9v1.3h-3.9v3.4
					h-1.4v-3.4h-3.9v-1.3h3.9v-2.4H134v-1.3h1.7c-0.2-1-0.4-2-0.6-2.8h-1.7v-1.3h3.8v-2.4h-3.1v-1.3h3.1v-2.1H138.6z M139.5,144.7
					h-3.1c0.2,0.8,0.4,1.8,0.6,2.8h1.8C139.1,146.7,139.3,145.7,139.5,144.7z M144.4,156H143v-17.5h7.6c0,2.2-0.1,3.7-0.4,4.5
					c-0.2,0.7-1,1.1-2.2,1.1h-1.3l-0.4-1.2c0.3,0,0.6,0,1.1,0s0.8,0,1.1-0.1c0.2-0.1,0.4-0.2,0.5-0.5c0.2-0.4,0.2-1.2,0.3-2.5h-4.8
					v5.9h6.4v1.2c-0.4,2.2-1,4.1-1.9,5.6c0.8,0.9,1.7,1.7,2.8,2.4l-0.9,1.1c-1-0.8-1.9-1.6-2.7-2.4c-0.8,1-1.8,1.8-2.9,2.5l-0.7-1.2
					c1.1-0.6,2-1.4,2.7-2.4c-1.2-1.7-2-3.5-2.2-5.5h-0.5v9H144.4z M147.9,151.3c0.7-1.2,1.2-2.7,1.5-4.4h-3.2
					C146.4,148.5,147,150,147.9,151.3z"/>
				<path class="st2" d="M154,139.7v-1.3h7.7v1.3h-2.3v2.3h1.7v12.5h-5.6v1.2h-1V142h1.7v-2.3H154z M160.1,153.4v-5h-0.8
					c-0.6,0-0.9-0.4-0.9-1v-4.1h-1.1v1.4c0,2.1-0.4,3.6-1.3,4.6l-0.5-0.4v4.6h4.6V153.4z M156.5,144.6v-1.4h-1v5.3
					C156.2,147.6,156.5,146.3,156.5,144.6z M159.5,150.2v1.2h-3.4v-1.2H159.5z M158.4,139.7h-1.1v2.3h1.1V139.7z M159.1,147.1
					c0,0.2,0.1,0.3,0.4,0.3h0.6v-4.3h-1V147.1z M163.3,148l-0.8,0.4c-0.4-1.8-0.7-3.5-1.1-4.9l0.8-0.3
					C162.6,144.6,162.9,146.2,163.3,148z M164.8,137.9v8.9c0,4.2-0.8,7.4-2.3,9.3l-1-0.9c1.3-1.8,2-4.6,2.1-8.4v-8.9L164.8,137.9
					L164.8,137.9z M166.7,148.1l-0.7,0.3c-0.3-1.8-0.7-3.5-1-4.9l0.6-0.3C166.1,144.7,166.4,146.3,166.7,148.1z M168.1,137.9v17.8
					H167v-17.8H168.1z M170,148l-0.7,0.3c-0.3-1.8-0.6-3.5-1-4.9l0.6-0.3C169.4,144.6,169.7,146.2,170,148z M171.5,137.8V156h-1.2
					v-18.2H171.5z"/>
				<path class="st2" d="M182.9,139.3c-0.3-0.6-0.6-1.2-0.9-1.7l1.5-0.2c0.3,0.6,0.6,1.2,0.9,1.9h7.9v1.4h-8.4
					c-0.6,1.1-1.2,2.1-2,2.8l2.6-0.2c0.5-0.6,0.9-1.2,1.4-1.8l1.3,0.5c-1.9,2.4-3.6,4.3-5.1,5.5c1.3-0.2,2.5-0.3,3.7-0.5
					c-0.2-0.5-0.5-1-0.7-1.4l1.2-0.4c0.7,1.2,1.2,2.4,1.7,3.7l-1.3,0.6c-0.2-0.5-0.3-0.9-0.5-1.4c-0.6,0.1-1.3,0.2-2,0.3v2.3h8.2
					v1.4h-8.2v4.1h-1.5V152h-8.2v-1.4h8.2v-2.2c-0.9,0.1-1.8,0.2-2.8,0.3l-0.3-1.3l0.5-0.1c0.9-0.5,1.9-1.5,3.2-2.9
					c-1.1,0.1-2.2,0.2-3.4,0.3l-0.3-1.2c1-0.6,1.9-1.6,2.5-2.9H175v-1.4L182.9,139.3L182.9,139.3z M179.4,146.2
					c-1,1.3-2.1,2.3-3.3,3.2l-1-1.1c1.2-0.8,2.2-1.8,3.2-2.9L179.4,146.2z M179.2,143.8l-1,1c-0.7-0.8-1.6-1.6-2.8-2.5l1-1
					C177.5,142.2,178.4,143,179.2,143.8z M191.6,142.1c-0.9,1.1-1.8,1.9-2.8,2.7l-0.9-1c1-0.7,1.8-1.5,2.6-2.4L191.6,142.1z
					 M192,148.3l-1,1c-0.7-1-1.7-2-3-3.1l0.9-0.9C190.1,146.3,191.2,147.3,192,148.3z"/>
			</g>
			<g class="st1">
				<path class="st3" d="M72.8,87.3c3,3.3,6.5,5.9,10.4,7.8L82,97.3c-3.9-2-7.2-4.7-10-7.9c-2.5,3.1-5.9,5.7-10.1,7.9l-1.2-2.2
					c4.2-2.1,7.7-4.7,10.5-7.8H72.8z M73.8,93.8v5.1h6.4v2.2h-6.4v5.3h8.1v2.2H61.8v-2.2h3.5v-9.1h2.3v9.1h4V93.8H73.8z"/>
				<path class="st3" d="M95.7,87.3v3.5h2v-3.5h2.2v3.5h1.7c0.6-1,1.2-2,1.7-3.1l2.1,0.8c-0.5,0.9-1,1.7-1.5,2.4h3.4v2h-6.7l1.8,0.6
					c-0.3,0.6-0.7,1.1-1.1,1.5h4.8v2h-8.3v1.3h7.2v1.9h-7.2v1.3h9.4v2h-9.4v6h-2.3v-6h-9.4v-2h9.4v-1.3h-7.2v-1.9h7.2V97h-8.3v-2H92
					c-0.3-0.6-0.7-1.1-1.1-1.6l1.6-0.6h-6.4v-2h3.4c-0.4-0.8-0.9-1.6-1.4-2.3l2.1-0.8c0.5,0.9,1,1.9,1.5,3.1h1.7v-3.5
					C93.4,87.3,95.7,87.3,95.7,87.3z M93.3,105.3c-1.5,1.5-3.3,2.8-5.4,3.9l-1.4-1.8c2.1-1,3.9-2.1,5.4-3.4L93.3,105.3z M93.3,92.8
					c0.4,0.6,0.8,1.4,1.2,2.2h4.4c0.5-0.7,0.9-1.4,1.3-2.2H93.3z M106.9,107.6l-1.6,1.6c-1.2-1.2-2.9-2.4-5-3.8l1.5-1.4
					C103.8,105.2,105.5,106.4,106.9,107.6z"/>
				<path class="st3" d="M122.8,89.1h9.3v2.1h-21.3v-2.1h9.5c-0.2-0.6-0.5-1.1-0.7-1.5l2.5-0.4C122.3,87.8,122.5,88.4,122.8,89.1z
					 M126.2,109.4l-0.5-2l1.8,0.1c0.9,0,1.3-0.3,1.3-1v-6.1H114v9h-2.2v-11H131v8.5c0,1.6-1,2.4-2.8,2.4L126.2,109.4L126.2,109.4z
					 M128.4,92.4v5h-13.8v-5H128.4z M126.3,101.6v5h-9.8v-5H126.3z M126.2,94.1h-9.5v1.5h9.5V94.1z M124.3,103.3h-5.7v1.7h5.7V103.3
					z"/>
				<path class="st3" d="M142.7,88.9c-0.7,1.4-1.5,2.6-2.2,3.5l0.4,0.9c0.3,0.9,0.6,2,0.7,3.3c1.3-1.3,2.4-3.1,3.3-5.3l1.9,0.4
					l-0.4,0.8h3c-0.1-0.4-0.3-0.8-0.5-1.2l1.7-0.3v-3.8h2v1.2h3.8v1.8h-3.8v1.2h-1.5c0.1,0.3,0.2,0.6,0.3,1h4.6V94h-4.5v1h3.9v1.4
					h-3.9v0.9h3.9v1.4h-3.9v1h4.9v1.5h-12.3v-4.6c-0.4,0.5-0.9,1-1.3,1.5l-1.2-1.4c0.2,1.4,0.3,3.1,0.3,4.9c0,3.9-0.4,6.3-1.3,7.1
					c-0.5,0.4-1.2,0.6-2.1,0.6c-0.7,0-1.3,0-1.8,0l-0.7-2.1c0.7,0.1,1.3,0.2,1.9,0.2c0.6,0,0.9-0.1,1.1-0.4c0.4-0.6,0.6-2.4,0.6-5.5
					c0-0.6,0-1.2,0-1.7c-1,1.4-2.1,2.6-3.3,3.6l-1.2-1.8c1.8-1.4,3.2-3,4.2-4.9c-0.1-1-0.4-1.9-0.6-2.7l0,0
					c-0.7,0.6-1.5,1.3-2.5,2.1l-1.1-1.9c1-0.6,1.8-1.3,2.7-2.2c-0.6-1.2-1.5-2.2-2.4-3.2l1.7-1.4c0.8,0.9,1.6,1.8,2.1,2.7
					c0.5-0.8,1-1.6,1.5-2.5L142.7,88.9z M143.7,103.8v-1.7h11.9v1.6c-0.7,1.1-1.7,2-3.1,2.8c1.4,0.5,3.1,0.9,4.9,1.2l-1.2,1.8
					c-2.3-0.5-4.2-1.1-5.9-1.8c-1.9,0.8-4.2,1.4-6.8,1.9l-0.8-1.9c2-0.3,3.8-0.7,5.3-1.2c-1.3-0.8-2.4-1.7-3.3-2.7
					C144.7,103.8,143.7,103.8,143.7,103.8z M146.8,88.5v-1.2h2v4.2h-2v-1.2h-3.7v-1.8H146.8z M149.5,94.1H146V95h3.5V94.1z
					 M149.5,96.5H146v0.9h3.5V96.5z M149.5,98.8H146v1h3.5V98.8z M153.1,103.8h-6c0.9,0.7,1.9,1.3,3,1.8
					C151.4,105.1,152.4,104.5,153.1,103.8z"/>
				<path class="st3" d="M164.7,93.6v-2.7c-1.2,0.2-2.4,0.4-3.7,0.5l-0.7-2.1c4-0.3,7.2-1,9.6-2l1.1,1.9c-1.3,0.5-2.7,0.9-4.1,1.3
					v3.1h4.3v2.2H167v0.8c1.5,1.2,3,2.6,4.5,4.1l-1.3,2c-1.2-1.6-2.3-2.9-3.2-3.8v10.5h-2.3v-9.8c-1.1,2-2.4,3.9-4.1,5.6l-1-2.7
					c2.3-2,4-4.2,5.1-6.7v-0.1h-4.5v-2.2L164.7,93.6L164.7,93.6z M175.2,89.6v14.7H173V89.6H175.2z M174.8,109.3l-0.5-2.2
					c1.1,0.1,2.2,0.1,3.3,0.1c0.6,0,0.9-0.4,0.9-1.1V87.4h2.3v19.3c0,1.7-0.8,2.6-2.4,2.6C178.4,109.3,174.8,109.3,174.8,109.3z"/>
			</g>
			<g class="st1">
				<path class="st3" d="M337.7,104.7c-0.7,1.5-1.6,3-2.6,4.5l-1.9-1c1.1-1.5,2-2.9,2.7-4.4L337.7,104.7z M342.7,88.1v15h-8.5v-15
					H342.7z M340.5,92.6v-2.4h-4.1v2.4H340.5z M340.5,96.8v-2.3h-4.1v2.3H340.5z M340.5,98.6h-4.1v2.4h4.1V98.6z M343.5,107.6
					l-1.7,1.2c-0.6-1.3-1.5-2.7-2.5-4.2l1.7-1C342,105.2,342.9,106.5,343.5,107.6z M343.7,93.9v-2.1h6.3v-4.3h2.2v4.3h2.7v2.1h-2.7
					v12.8c0,1.7-0.8,2.6-2.5,2.6H347l-0.5-2.1c0.9,0.1,1.7,0.1,2.5,0.1c0.7,0,1-0.4,1-1.2V95.4c-1.3,4.3-3.4,7.9-6.2,10.7l-1.2-2.1
					c2.9-2.6,4.9-6,6.2-10.2L343.7,93.9L343.7,93.9z"/>
				<path class="st3" d="M362.6,92.6c0.8-0.7,1.5-1.5,2.1-2.4h-6.3v-2.1h8.9v1.8c-1,1.6-2.1,2.9-3.3,4c0.3,0.3,0.7,0.6,1,0.9
					l-0.6,0.6h3.4v1.9c-0.6,1.6-1.2,3.1-2,4.4l-1.4-1.2c0.4-0.8,0.9-1.8,1.4-3H364v9.5c0,1.5-0.7,2.2-2.1,2.2h-2.2l-0.4-2
					c0.7,0.1,1.3,0.1,1.9,0.1c0.5,0,0.7-0.3,0.7-0.8v-8.2c-0.9,2.8-2,5.4-3.6,7.7l-0.8-2.1c1.4-1.8,2.5-3.9,3.3-6.3H358v-2.1h4.9
					c-1-1-2.2-2.1-3.7-3.1l1.4-1.3C361.3,91.6,362,92.1,362.6,92.6z M378.3,106.8c-0.2,1.6-1.4,2.4-3.6,2.4c-0.4,0-1.2,0-2.2-0.1
					l-0.5-1.9c0.9,0,1.7,0.1,2.3,0.1c1.1,0,1.7-0.5,1.9-1.4c0.1-0.4,0.2-1.8,0.2-4.2h-3.1c-0.3,1.4-0.7,2.5-1.2,3.4
					c-1,1.7-2.7,3.1-5,4.3l-1.4-1.8c2.1-1,3.6-2.2,4.4-3.5c0.4-0.6,0.7-1.4,0.9-2.4h-3.5v-2.1h3.9c0.1-0.6,0.1-1.3,0.2-1.9h2.1
					l-0.1,1.9h4.9C378.7,103.5,378.5,105.9,378.3,106.8z M372.7,87.6c-0.2,0.6-0.4,1.1-0.6,1.6h7v2.1h-1.6c-0.6,1.6-1.3,2.8-2.2,3.8
					c1.2,0.6,2.6,1.2,4.3,1.7l-1.5,1.8c-1.8-0.6-3.3-1.3-4.5-2.1c-1.2,0.8-2.5,1.5-4.2,2.1l-1.3-1.7c1.5-0.5,2.7-1.1,3.7-1.7
					c-0.8-0.6-1.4-1.3-1.9-2l1.6-0.9c0.5,0.6,1.2,1.2,1.9,1.7c0.8-0.7,1.4-1.7,1.8-2.7H371c-0.7,1.1-1.7,2.1-2.7,3l-1.3-1.7
					c1.7-1.4,2.9-3.2,3.5-5.3L372.7,87.6z"/>
				<path class="st3" d="M389.6,88.2c-0.6,1.8-1.3,3.5-2.2,5.1v16.2h-2.2V96.6c-0.7,0.9-1.4,1.8-2.3,2.6l-0.7-2.4
					c2.4-2.7,4.2-5.9,5.4-9.6L389.6,88.2z M392.2,103.2c1.3-0.4,2.7-0.8,4-1.3l0.4,2c-1.9,0.6-4.2,1.3-6.8,2l-0.6-1.9
					c0.6-0.3,0.9-0.8,0.9-1.5v-13c5.1-0.6,9.1-1.2,12.1-2l1.2,1.8c-1.1,0.3-2.4,0.6-4,0.9c0,1.9,0,3.7,0.1,5.2h4.3v2.2h-4.2
					c0.1,3,0.4,5.1,0.7,6.3c0.5,1.7,1,2.6,1.7,2.8c0.3-0.1,0.6-1.3,0.9-3.8l1.8,1.2c-0.5,3.3-1.3,4.9-2.6,4.9
					c-0.8,0-1.5-0.4-2.1-1.1c-0.8-1-1.4-2.4-1.8-4c-0.3-1.2-0.5-3.3-0.6-6.3h-5.3v5.6H392.2z M397.9,106.9v2.1H390v-2.1H397.9z
					 M397.3,90.6c-1.5,0.2-3.2,0.5-5.1,0.7v4.2h5.2C397.3,93.9,397.3,92.3,397.3,90.6z"/>
				<path class="st3" d="M408.4,95.3l-1.5-1.8c2.6-1.6,4.9-3.7,6.8-6.5l2.4,0.5c-0.3,0.4-0.6,0.8-0.8,1.2h8.5v1.7
					c-0.6,0.8-1.2,1.5-1.8,2.1h4.4v12.6h-4.8c2.4,0.7,4.6,1.5,6.6,2.5l-1.2,1.9c-2.2-1.2-4.4-2-6.7-2.7l1.1-1.7h-11.1v-11
					C409.6,94.5,409,95,408.4,95.3z M416.6,106.8c-2,1.2-4.3,2.1-7.2,2.8l-0.9-2c2.7-0.6,5-1.4,6.7-2.4L416.6,106.8z M421,90.8h-7.2
					c-0.6,0.6-1.2,1.2-1.8,1.8h7.2C419.8,92.1,420.4,91.4,421,90.8z M424.1,96.2v-1.6h-11.6v1.6H424.1z M424.1,99.7V98h-11.6v1.7
					H424.1z M424.1,101.6h-11.6v1.6h11.6V101.6z"/>
				<path class="st3" d="M438.6,88.2c-0.4,1.5-1,3-1.7,4.4v17h-2.3V96.4c-0.7,1-1.4,1.9-2.2,2.8l-0.7-2.3c2.2-2.8,3.7-6,4.8-9.7
					L438.6,88.2z M452,96.5v9.5h-3.5c1.9,0.4,3.8,0.9,5.5,1.6l-0.8,1.8c-2-0.8-4-1.5-6.2-1.9l0.8-1.5h-4.1l1,1.2
					c-1.7,0.9-3.8,1.7-6.3,2.4l-0.9-1.8c2.2-0.4,4-1,5.5-1.7h-3.5v-9.5L452,96.5L452,96.5z M447,87.3v1.2h6.1v1.8H447v0.9h5.3V93
					H447v1h6.7v1.8h-15.3V94h6.4v-1h-5.1v-1.8h5.1v-0.9h-5.9v-1.8h5.9v-1.2C444.8,87.3,447,87.3,447,87.3z M450,99.2v-1h-8.2v1H450z
					 M450,101.8v-1h-8.2v1H450z M450,103.4h-8.2v1h8.2V103.4z"/>
			</g>
			<g class="st1">
				<path class="st3" d="M626.3,98.9h-2.2v-2.4h-16.2v2.4h-2.2v-4.3h0.8l-1-1.5c1.6-0.4,2.7-1,3.3-1.7s0.9-1.6,0.9-2.8v-1.2h2.1v1.2
					c0,0.9-0.2,1.8-0.5,2.5c1.6,0.7,3,1.4,4.2,2.1l-1.4,1.4h10.4c-1.2-0.8-2.4-1.5-3.7-2c-0.8,0.8-2,1.5-3.7,1.9l-1.1-1.7
					c1.5-0.4,2.6-0.9,3.1-1.5s0.8-1.4,0.9-2.4v-1.5h2.1v1.5c0,0.8-0.2,1.5-0.4,2.1c1.5,0.6,2.9,1.2,4.1,2l-1.1,1.7h1.4v4.2H626.3z
					 M608.7,90.6l-1.7,0.7c-0.3-1-0.7-1.9-1.2-2.7l1.7-0.7C608,88.8,608.4,89.7,608.7,90.6z M607.2,94.5h6.8
					c-0.9-0.6-2.1-1.2-3.5-1.9C609.8,93.4,608.7,94,607.2,94.5z M623,97.6v4.7h-5.9l-0.3,1.1h8.3v6.2h-2.2v-0.9h-13.2v0.9h-2.2v-6.2
					h7l0.3-1.1h-5.7v-4.7H623z M622.8,106.8v-1.7h-13.2v1.7H622.8z M620.8,99.3h-9.6v1.3h9.6V99.3z M615.5,88.3
					c-0.2,1-0.6,1.9-1.2,2.9l-1.8-0.6c0.5-0.9,0.9-1.8,1.1-2.7L615.5,88.3z M618.9,90.6l-1.7,0.7c-0.4-1.1-0.7-2-1.2-2.8l1.7-0.7
					C618.1,88.8,618.5,89.7,618.9,90.6z M625.9,88.4c-0.2,1-0.6,1.9-1.1,2.8l-1.8-0.6c0.5-0.9,0.8-1.8,1.1-2.7L625.9,88.4z"/>
				<path class="st3" d="M635.8,93.2V95c-0.8,1.2-1.6,2.5-2.6,3.7h2.9v1.5c-0.3,1.8-0.7,3.3-1.2,4.4l0.6,0.4
					c0.8,0.7,1.5,1.2,2.2,1.5s1.7,0.4,3,0.5c1.3,0,2.8,0,4.5,0s3.9-0.1,6.7-0.2l-0.5,2.2h-5.9c-1.7,0-3.3,0-4.9-0.1
					c-1.6,0-2.9-0.2-3.7-0.6c-1-0.4-1.9-1-2.7-1.8c-0.2-0.2-0.4-0.2-0.6-0.2c-0.5,0-1.2,1-2.3,3.1l-1.7-1.5c1.1-2.1,2.1-3.3,3.1-3.7
					c0.5-1.1,0.8-2.4,1.1-3.7h-3.5v-1.7c1.1-1.2,2.1-2.5,2.8-3.6H630v-2.1L635.8,93.2L635.8,93.2z M635.6,90.9l-1.5,1.5
					c-0.9-1.1-2.1-2.2-3.7-3.5l1.5-1.4C633.4,88.6,634.6,89.7,635.6,90.9z M651,92.1h-1.3v1H645v1.1h5v7.4h-5v1.1h6.2v1.8H645v2.1
					h-2.2v-2.1h-6.2v-1.8h6.2v-1.1h-5v-7.4h5v-1.1H638v-0.9h-1.4v-4.1H651V92.1z M642.8,91.3V90h-4v1.4L642.8,91.3L642.8,91.3z
					 M642.8,97v-1.2h-2.9V97H642.8z M642.8,98.6h-2.9v1.2h2.9V98.6z M645,91.3h3.9V90H645V91.3z M645,97h2.8v-1.2H645V97z
					 M647.8,98.6H645v1.2h2.8V98.6z"/>
				<path class="st3" d="M666.8,89.1h9.3v2.1h-21.3v-2.1h9.5c-0.2-0.6-0.5-1.1-0.7-1.5l2.5-0.4C666.3,87.8,666.5,88.4,666.8,89.1z
					 M670.2,109.4l-0.5-2l1.8,0.1c0.9,0,1.3-0.3,1.3-1v-6.1H658v9h-2.2v-11H675v8.5c0,1.6-1,2.4-2.8,2.4L670.2,109.4L670.2,109.4z
					 M672.4,92.4v5h-13.8v-5H672.4z M670.3,101.6v5h-9.8v-5H670.3z M670.2,94.1h-9.5v1.5h9.5V94.1z M668.3,103.3h-5.7v1.7h5.7V103.3
					z"/>
				<path class="st3" d="M699.1,89.7l-1.1,1.1h2.9V93h-7.2c0.2,2.8,0.5,5,0.9,6.6c0.1,0.4,0.2,0.8,0.3,1.2c1-1.8,1.8-3.8,2.5-6.1
					l2.1,0.9c-1,3.1-2.2,5.7-3.6,7.9c0.3,0.6,0.5,1.1,0.8,1.5c0.7,1.1,1.3,1.6,1.7,1.6c0.3,0,0.6-1.2,0.9-3.5l2.1,1.1
					c-0.6,3.3-1.5,5-2.6,5s-2.2-0.7-3.3-2.1c-0.4-0.5-0.7-1-1-1.6c-1.6,1.8-3.5,3.2-5.6,4.1l-1.3-1.9c2.3-1,4.2-2.5,5.8-4.5
					c-0.3-0.9-0.6-1.8-0.9-2.8c-0.5-1.9-0.9-4.4-1-7.3h-7.7v3.5h5.9c0,4.3-0.3,7.1-0.6,8.2c-0.4,1-1.2,1.5-2.4,1.5
					c-0.6,0-1.2,0-2-0.1l-0.7-2.1c1,0,1.8,0.1,2.4,0.1c0.4,0,0.7-0.3,0.8-0.8c0.1-0.6,0.2-2.2,0.3-4.7h-3.6v0.1
					c-0.1,4.4-1.1,8-2.9,10.7l-1.7-1.5c1.5-2.2,2.3-5.2,2.4-9.1v-8h9.9c0-1.1,0-2.3,0-3.5h2.3c0,1.2,0,2.4,0.1,3.5h3.7
					c-0.6-0.7-1.5-1.5-2.5-2.3l1.4-1.4C697.4,88,698.3,88.8,699.1,89.7z"/>
				<path class="st3" d="M710.3,95.1h11.4V97h-11.4v1.5h14.9v2.1h-15.4v6.4c1.9-0.4,3.9-0.9,5.8-1.6l0.4,2c-2.4,0.8-5.1,1.5-8.3,2
					l-0.9-1.9c0.5-0.2,0.7-0.5,0.7-0.9v-6h-3.2v-2.1h3.6V88H723v2.1h-12.6v1.6h11.4v1.9h-11.4v1.5H710.3z M718.5,103.8
					c1.4-0.6,2.7-1.6,4-2.9l1.5,1.5c-1.1,1.1-2.4,2-3.7,2.7c1.6,1.1,3.5,1.9,5.8,2.5l-1.3,1.9c-4.8-1.3-8.2-3.8-10.2-7.5l1.8-1
					C716.8,102,717.6,103,718.5,103.8z"/>
			</g>
			<g id="Page-1" transform="translate(90.000000, 0.000000)">
				<path id="Fill-1" class="st3" d="M21.8,20.7c-1.2-0.1-2.1-1.1-2-2.2c0.1-1.2,1.1-2,2.3-2l19,1c1.2,0.1,2.1,1.1,2,2.2
					c-0.1,1.2-1.1,2-2.3,2L21.8,20.7z M25.2,14.4l13.4,1.1l3.8-10.4l-6.8-4L34,10.4L33.7-1.4l-3.5-0.3l0.5,11L26.8-4l-7.4,2.1
					L25.2,14.4z M39.2,40.2h-6.8v-1.1c0-1.2-0.1-1.9-0.2-2.3c-0.2-0.4-0.5-0.5-1-0.5c-0.4,0-0.7,0.2-0.9,0.5
					C30.1,37,30,37.5,30,38.1c0,1,0.2,1.8,0.6,2.2s1.6,1.2,3.7,2.4c1.7,1,2.9,1.8,3.5,2.3s1.2,1.3,1.6,2.3c0.4,1,0.6,2.2,0.6,3.7
					c0,2.4-0.6,4.2-1.7,5.5c-1.2,1.3-2.9,2.2-5.2,2.5v2.5H30V59c-1.8-0.2-3.4-0.9-4.7-2c-1.4-1.2-2-3.2-2-6.2v-1.3h6.8v1.6
					c0,1.8,0.1,2.9,0.2,3.3c0.1,0.4,0.5,0.6,1,0.6s0.8-0.1,1-0.4c0.2-0.3,0.3-0.8,0.3-1.3c0-1.5-0.1-2.5-0.3-3.2
					C32,49.4,31.2,48.7,30,48c-2.1-1.3-3.5-2.2-4.2-2.8s-1.4-1.4-1.9-2.5C23.3,41.6,23,40.4,23,39c0-2,0.6-3.5,1.7-4.6
					s2.9-1.8,5.2-2.1v-2.1H33v2.1c2.1,0.3,3.7,0.9,4.7,2s1.6,2.6,1.6,4.6C39.3,39.2,39.3,39.6,39.2,40.2z M21.5,22.7
					c-4.6,5-8.6,10.1-11.4,15.3l1.8,1.6l-3.2,1C5.2,48.2,4,56,6.3,64.2c-1.7,0.2-3.4,0.4-5.1,0.6c-0.4,1-0.8,2.1-1.2,3.2h63.4
					c-0.6-0.8-1.3-1.6-1.9-2.5c-1.7-0.9-3.4-1.8-5.1-2.8c0.6-2.8,1-5.4,1.1-7.9L55.1,52l2.2-1.3C56.9,44.9,55,39.9,52,35.4l-2.4-1.2
					l-0.4-2.5c-2.5-3-5.5-5.7-8.9-8.2C34.1,23.3,27.8,23,21.5,22.7z"/>
			</g>
			<g id="Page-1-Copy" transform="translate(363.000000, 8.000000)">
				<path id="Fill-1_1_" class="st3" d="M60.9,18.6l1.5,10.1L60,31.1l3,2.6l-1,5.4l-2.6,1.1l2,2l-1.2,6l-2.4,1.1l1.8,2.2l-1.3,6.8
					L54.1,60l-31.4-8l-7.5-0.3v4H0V16.1h15.2v6.1l6-0.4L46-4c12.2,8.9,1.4,17.6-7,24.1L60.9,18.6z"/>
			</g>
			<g id="Page-1-Copy-2" transform="translate(631.000000, 12.000000)">
				<path id="Page-1_1_" class="st3" d="M62.5-4V8.5l3.6-1l-2,8.1L62.5,22v34H70V-4H62.5z M53.6-2.3V11l4.6-1.3l2.9-0.8V-2.3H53.6z
					 M44.5,5.3v20.2l7.5-8.2v-3.5L50.2,12l1.8-0.5V5.3H44.5z M35.6,10.1v16.1l0.8-0.5l2,2.6l1.6,2.1l3.1-3.4V10.1H35.6z M26.6,15.5
					v16.6l7-4.6l0.5-0.3V15.5H26.6z M8.9,17.3v16.3l2.9-1.8l2.4-1.5l2,2l0.3,0.3V17.3H8.9z M17.7,20.6V34l2.3,2.4l5.2-3.4V20.6H17.7
					z M53.6,26.4V56h7.5V22.9l-2.2-2.2L53.6,26.4z M0,24.1V56h7.6V42.9l-0.9,0.6L3,37.2l4.6-2.8V24.1H0z M44.5,36.3V56H52V28.1
					L44.5,36.3z M26.6,40.8V56h7.5V35.9L26.6,40.8z M35.6,56h7.5V37.8l-0.8,0.9l-2.9,3.1l-2.6-3.4l-1.3-1.7L35.6,56L35.6,56z
					 M8.9,42.1V56h7.5V43.1L13,39.6L8.9,42.1z M21.5,44.2L19,45.7l-1.3-1.3V56h7.5V41.7L21.5,44.2z"/>
			</g>
		</g>
	</g>
</g>
</svg>
