<?xml version="1.0" encoding="utf-8"?>
<!-- Generator: Adobe Illustrator 22.0.1, SVG Export Plug-In . SVG Version: 6.00 Build 0)  -->
<svg version="1.1" id="圖層_1" xmlns="http://www.w3.org/2000/svg" xmlns:xlink="http://www.w3.org/1999/xlink" x="0px" y="0px"
	 viewBox="0 0 776 365" style="enable-background:new 0 0 776 365;" xml:space="preserve">
<style type="text/css">
	.st0{fill:#D2BEA6;}
	.st1{enable-background:new    ;}
	.st2{fill:#FFFFFF;}
	.st3{fill:#B7956F;}
	.st4{fill:#708CB1;}
	.st5{fill:#4A4A4A;}
	.st6{fill:#004483;}
</style>
<title>pop1_1 copy</title>
<desc>Created with Sketch.</desc>
<g id="pop1_1-copy">
	<g id="Group-4" transform="translate(230.000000, 0.000000)">
		<g id="Group" transform="translate(0.000000, 45.000000)">
			<g id="Oval-5">
				<circle id="path-1_1_" class="st0" cx="160" cy="159" r="160"/>
			</g>
			<g class="st1">
				<path class="st2" d="M84.3,191.2h-2.5c-0.4-1.7-1.4-2.5-3.1-2.5c-1.2,0-2.1,0.6-2.8,1.8c-0.7,1.1-1,2.5-1,4.2c0,0.1,0,0.2,0,0.3
					H75c0.5-0.8,1.1-1.3,1.8-1.7c0.7-0.4,1.5-0.5,2.4-0.5c1.7,0,3,0.5,4,1.6s1.5,2.5,1.5,4.2s-0.6,3.1-1.7,4.2
					c-1.2,1.1-2.6,1.7-4.3,1.7c-2.1,0-3.7-0.8-4.8-2.3c-1.1-1.5-1.6-3.5-1.6-6.1c0-2.8,0.6-5,1.7-6.8c1.2-1.8,2.7-2.6,4.7-2.6
					C82,186.5,83.9,188.1,84.3,191.2z M76,195.8c-0.6,0.7-0.9,1.6-0.9,2.7c0,1.1,0.3,2,1,2.7c0.6,0.7,1.5,1,2.5,1
					c1.1,0,1.9-0.4,2.5-1.1c0.6-0.7,1-1.6,1-2.7c0-1.1-0.3-2-0.9-2.6c-0.6-0.7-1.5-1-2.5-1C77.5,194.8,76.6,195.1,76,195.8z"/>
				<path class="st2" d="M97.9,188c1,0.9,1.4,1.9,1.4,3.2c0,0.9-0.2,1.6-0.6,2.2c-0.4,0.6-1.1,1.1-1.9,1.5v0.1
					c0.8,0.2,1.5,0.7,2.1,1.4c0.7,0.8,1,1.8,1,2.8c0,1.5-0.6,2.7-1.7,3.7c-1.1,0.9-2.7,1.4-4.7,1.4s-3.6-0.5-4.7-1.4
					c-1.1-1-1.7-2.2-1.7-3.7c0-1.1,0.3-2,1-2.8c0.6-0.8,1.3-1.2,2.1-1.4v-0.1c-0.9-0.3-1.5-0.8-1.9-1.5c-0.4-0.6-0.6-1.3-0.6-2.2
					c0-1.3,0.5-2.4,1.4-3.2c1.1-1,2.5-1.4,4.3-1.4S96.8,187,97.9,188z M90.7,196.9c-0.6,0.6-1,1.3-1,2.3c0,0.9,0.3,1.6,1,2.2
					c0.6,0.6,1.6,0.8,2.8,0.8c1.2,0,2.2-0.3,2.9-0.8c0.6-0.6,0.9-1.3,0.9-2.2c0-1-0.3-1.7-0.9-2.3c-0.7-0.6-1.6-0.9-2.9-0.9
					S91.3,196.3,90.7,196.9z M91,189.5c-0.6,0.5-0.8,1.1-0.8,1.8c0,0.8,0.2,1.5,0.7,1.9c0.6,0.6,1.4,0.9,2.7,0.9
					c1.2,0,2.1-0.3,2.7-0.9c0.4-0.5,0.7-1.1,0.7-1.9c0-0.7-0.3-1.3-0.8-1.8c-0.6-0.6-1.5-0.8-2.5-0.8
					C92.5,188.6,91.6,188.9,91,189.5z"/>
				<path class="st2" d="M107.7,206.4h-2.2v-10.8c-0.6,1.8-1.4,3.5-2.3,5.1l-0.9-2.4c1.5-2.1,2.5-4.6,3.2-7.3h-2.7v-2.1h2.7v-4.5
					h2.2v4.5h2v2.1h-2v1.4c0.9,1.1,1.8,2.2,2.7,3.5l-1.3,1.9c-0.5-1.1-1-2-1.4-2.7L107.7,206.4L107.7,206.4z M114.7,187.5l-1.1,0.5
					h2.3v-3.5h2.2v3.5h2.4l-0.9-0.5c0.8-0.9,1.4-1.8,1.9-2.6l1.7,0.8c-0.4,0.8-1,1.6-1.6,2.3h2.2v4.9h-2v-3h-9.5v3h-2V188h2.6
					c-0.6-0.9-1.1-1.6-1.7-2.3l1.8-0.8C113.4,185.6,114.1,186.5,114.7,187.5z M123.4,206.5h-2.2v-0.8h-8.4v0.7h-2.2v-9.1h12.8
					C123.4,197.3,123.4,206.5,123.4,206.5z M121.5,191.3v4.9h-9.1v-4.9H121.5z M116,200.7v-1.6h-3.2v1.6H116z M116,203.9v-1.5h-3.2
					v1.5H116z M119.6,192.9h-5.3v1.8h5.3V192.9z M118,200.7h3.2v-1.6H118V200.7z M121.2,203.9v-1.5H118v1.5H121.2z"/>
				<path class="st2" d="M128.6,194.5l-0.6-1.6c1.5-0.8,2.8-2,3.8-3.7l1.8,0.6c-0.7,1-1.4,1.9-2.2,2.7c1.2-0.1,2.4-0.3,3.6-0.6
					c-0.3-0.4-0.6-0.7-1-1.1l1.5-1c1,1,1.8,1.9,2.5,2.6h0.6l-0.1-0.2c1.3-0.7,2.5-1.9,3.4-3.4l1.8,0.6c-0.6,1-1.2,1.8-2,2.5
					c1-0.1,2-0.2,2.9-0.3c-0.2-0.3-0.5-0.6-0.8-0.9l1.6-1c1.3,1.3,2.3,2.5,3,3.5l-1.7,1.2c-0.3-0.5-0.6-1-1-1.4
					c-1.7,0.3-3.4,0.6-5.1,0.7c2,1.2,4.8,2.2,8.4,3.2l-1.3,1.9c-4.4-1.2-7.6-2.8-9.8-4.6c-2.6,2-5.8,3.5-9.7,4.6l-1.3-1.9
					c3.8-1,6.8-2.2,9-3.7C133.7,193.9,131.2,194.3,128.6,194.5z M146.7,188.4l-1.8,1.3c-0.4-0.4-0.8-0.8-1.2-1.2
					c-4.8,0.3-9.4,0.6-13.7,0.8l-0.4-1.8c1.7,0,3.6-1.1,6-3.3l2.1,0.6c-1,1-1.9,1.8-2.8,2.5c2.9-0.2,5.2-0.3,6.9-0.5
					c-0.5-0.4-1-0.8-1.5-1.2l1.6-1C144,186,145.6,187.3,146.7,188.4z M140.3,196.8c-2.4,2-5.4,3.3-8.8,3.9l-1.2-1.6
					c3.5-0.6,6.2-1.7,8.3-3.4L140.3,196.8z M143.2,198.7c-3.2,2.6-7,4.2-11.6,5l-1.2-1.7c4.6-0.8,8.3-2.2,11.1-4.4L143.2,198.7z
					 M146.6,200.4c-4,3.2-8.9,5.3-14.5,6.2l-1.2-1.7c5.9-1,10.6-2.9,14-5.7L146.6,200.4z"/>
				<path class="st2" d="M160.6,186.6v-2.3h2.3v2.3h5.3v1.2c0.9-1,1.8-1.9,2.5-3l1.7,1.3c-1.2,1.7-2.7,3.3-4.2,4.7h5.2v2.2h-7.8
					c-1,0.7-2,1.4-3,2h9.6v2h-11.9l-0.7,2H171c-0.2,3.5-0.6,5.6-1.1,6.2c-0.6,0.6-1.7,1-3.5,1c-1.1,0-2.1-0.1-3-0.2l-0.7-2
					c1.2,0.1,2.3,0.2,3.3,0.2c1.2,0,1.9-0.2,2.2-0.5c0.2-0.4,0.4-1.3,0.6-2.7h-11.9l1-3.6c-1.7,0.7-3.4,1.4-5.3,1.9l-0.9-2
					c3.7-1.1,7.1-2.5,10-4.2h-9v-2.2h8v-2.1h-6.2v-2.1L160.6,186.6L160.6,186.6z M167.3,188.6h-4.4v2.1h1.9
					C165.7,190.1,166.5,189.4,167.3,188.6z"/>
				<path class="st2" d="M177.3,206.3l-0.5-2.2c0.8,0.1,1.5,0.1,2.2,0.1c0.6,0,0.9-0.3,0.9-0.9v-5.1c-1,0.3-1.9,0.6-2.9,0.9
					l-0.6-2.3c1.2-0.2,2.3-0.6,3.5-0.9v-5h-3v-2.2h3v-4.3h2.2v4.3h2.5v2.2h-2.5v4.2c0.9-0.4,1.8-0.7,2.7-1.2v2.3
					c-0.9,0.4-1.8,0.8-2.7,1.1v6.5c0,1.6-0.8,2.4-2.3,2.4L177.3,206.3L177.3,206.3z M197.6,188l-9.6,0.5v1.6c0,0.6,0.3,0.8,0.9,0.8
					h9.1v2.1h-10.2c-1.3,0-2-0.7-2-2v-6.5h2.2v1.9l9.6-0.4V188z M197.4,206.5h-2.3v-1.1h-6.8v1.1H186V195h11.4V206.5z M195.1,199.1
					v-2.2h-6.8v2.2H195.1z M195.1,203.4v-2.3h-6.8v2.3H195.1z"/>
				<path class="st2" d="M206.7,206.4h-2.1v-11.6c-0.7,2-1.5,3.9-2.5,5.6l-1-2.5c1.6-2.2,2.7-4.6,3.4-7.4h-2.6v-2.1h2.8v-4.2h2.1
					v4.2h2.4v2.1h-2.4v1.2c1,1.1,2,2.4,3,3.7l-1.3,2c-0.6-1.3-1.2-2.3-1.7-3.2L206.7,206.4L206.7,206.4z M213.6,202.3
					c-1.1,1.5-2.3,2.9-3.9,4l-1.3-1.7c1.4-1,2.7-2.2,3.7-3.6L213.6,202.3z M213.4,188.4V187h-4v-1.9h13.4v1.9H219v1.4h3.5v5.9H210
					v-5.9H213.4z M222.9,198.6v1.9h-5.8v5.9H215v-5.9h-5.5v-1.9H222.9z M221.9,195.4v1.9h-11.3v-1.9H221.9z M213.6,190.1h-1.7v2.4
					h1.7V190.1z M215.3,187v1.4h1.8V187H215.3z M217.1,190.1h-1.8v2.4h1.8V190.1z M223.4,204.7l-1.5,1.5c-0.8-1.2-1.9-2.4-3.3-3.8
					l1.4-1.3C221.3,202.3,222.5,203.5,223.4,204.7z M220.5,190.1h-1.7v2.4h1.7V190.1z"/>
				<path class="st2" d="M235.6,190.9H230v15.4h-2.3v-17.6h8.2v-1.9h-2.7v-2.1h5v4h8.1v14.8c0,1.7-0.8,2.6-2.5,2.6h-3.7l-0.6-2.1
					l3.6,0.1c0.6,0,0.9-0.3,0.9-1V191h-5.5c0.6,3.1,2.4,5.8,5.5,8.3l-1.6,2.1c-2.5-2.4-4.2-5-5.3-7.7c-1.1,2.8-2.9,5.5-5.4,8
					l-1.5-2.1C233.1,196.9,235,194,235.6,190.9z"/>
			</g>
			<g class="st1">
				<path class="st2" d="M133.3,238h-2.2v-1.2h-3.8v1.9h-2.2v-17.4h2.3c0.4-1.3,0.8-2.6,1-4l2.3,0.3c-0.2,1.3-0.6,2.5-1.1,3.7h3.7
					V238z M131.1,227.9v-4.4h-3.8v4.4H131.1z M131.1,234.6v-4.7h-3.8v4.7H131.1z M145.4,236.6c-0.2,1.7-1.4,2.6-3.4,2.6
					c-0.5,0-1.3,0-2.5-0.1l-0.6-2.1c1.1,0,2,0.1,2.7,0.1c1,0,1.5-0.5,1.7-1.5c0.1-1.2,0.2-5.2,0.3-12.1h-6c-0.7,1.4-1.4,2.8-2.4,4
					l-1.4-1.8c1.6-2.3,2.7-5.1,3.3-8.4l2.3,0.3c-0.2,1.3-0.6,2.6-1,3.8h7.4C145.7,229.6,145.6,234.7,145.4,236.6z M141.3,232.2
					l-1.8,1.3c-0.9-1.6-2.2-3.3-3.7-5.3l1.8-1.2C139.2,229,140.5,230.7,141.3,232.2z"/>
				<path class="st2" d="M150,239.3l-0.5-2.2c0.6,0.1,1.2,0.1,1.8,0.1s0.9-0.3,0.9-1v-5c-0.8,0.3-1.7,0.6-2.5,0.8l-0.6-2.3
					c1.1-0.2,2.1-0.5,3.1-0.9v-5h-2.7v-2.2h2.7v-4.1h2.2v4.1h2.3v2.2h-2.3v4.2c0.8-0.4,1.6-0.7,2.3-1.1v2.3
					c-0.8,0.4-1.6,0.7-2.3,1.1v6.5c0,1.6-0.8,2.4-2.3,2.4L150,239.3L150,239.3z M165.9,228.8v-1.7h2.2v1.7h2.7v2.1h-2.7v6
					c0,1.6-0.8,2.4-2.4,2.4h-3.1l-0.5-2.2c1,0.1,1.9,0.2,2.8,0.2c0.6,0,0.9-0.3,0.9-0.9v-5.5h-8.7v-2.1H165.9z M165,217.5v2.2h5.4
					v2.1H165v2.3h4.8v2.1h-11.7v-2.1h4.7v-2.3h-5.4v-2.1h5.4v-2.2H165z M162.7,235.4l-1.8,1.2c-0.6-1.2-1.5-2.4-2.6-3.9l1.8-1.1
					C161.2,233.1,162.1,234.3,162.7,235.4z"/>
				<path class="st2" d="M182.8,237.1c0,1.5-0.8,2.3-2.4,2.3h-1.8l-0.6-2c0.6,0,1.2,0.1,1.8,0.1s0.9-0.4,0.9-1.2v-5
					c-1.1,0.2-2.2,0.5-3.4,0.6c-0.2,3-0.9,5.5-1.9,7.6l-1.7-1.5c1.1-2.1,1.6-4.8,1.6-8.1V218h7.5L182.8,237.1L182.8,237.1z
					 M180.7,224.4v-4.3h-3.3v3.6C178.5,223.9,179.6,224.1,180.7,224.4z M180.7,229.3v-2.9c-1.1-0.3-2.2-0.6-3.3-0.7v4.2
					C178.6,229.7,179.7,229.5,180.7,229.3z M194.3,227.4v2.1c-0.6,2.2-1.6,4-3,5.6c1.3,0.9,2.8,1.8,4.6,2.5l-1.2,2
					c-2-0.9-3.6-1.9-4.9-3c-1.5,1.2-3.3,2.2-5.5,3l-1.2-1.9c2-0.7,3.6-1.6,5-2.6c-1.5-1.6-2.5-3.4-3.1-5.4h-1v-2.2h10.3V227.4z
					 M193.2,218v5c0,0.5,0.2,0.8,0.8,0.8h1.7v2.1h-2.3c-1.6,0-2.4-0.8-2.4-2.4v-3.3h-3.5v1.1c0,2.4-0.9,4.2-2.7,5.5l-1.5-1.7
					c1.3-0.8,2-2,2-3.6V218H193.2z M189.6,233.6c1.1-1.2,1.9-2.5,2.5-4h-5C187.6,231,188.4,232.4,189.6,233.6z"/>
			</g>
			<g id="Group-9">
				<g transform="translate(114.000000, 249.000000)">
					<g class="st1">
						<path class="st2" d="M24.5,15.7v4.2L12.4,50H6.8l12.4-29.5H1.5v-4.8H24.5z"/>
						<path class="st2" d="M50.5,15.7v22.7h5.2v4.2h-5.2V50h-5v-7.4H28.8v-4.9l16.9-21.9L50.5,15.7L50.5,15.7z M33.1,38.4h12.4v-16
							h-0.1L33.1,38.4z"/>
					</g>
					<g class="st1">
						<path class="st2" d="M77.5,23.3c0.6,0.8,0.9,1.9,0.9,3.3c0,1.3-0.3,2.4-0.9,3.3c-0.7,0.9-1.7,1.4-3,1.4s-2.3-0.5-3-1.4
							c-0.6-0.9-0.9-1.9-0.9-3.3s0.3-2.5,0.9-3.3c0.7-1,1.7-1.4,3-1.4C75.8,21.9,76.8,22.3,77.5,23.3z M72.9,24.2
							c-0.3,0.6-0.5,1.4-0.5,2.4s0.1,1.8,0.5,2.4c0.3,0.7,0.9,1,1.6,1s1.2-0.4,1.6-1.1c0.3-0.6,0.5-1.3,0.5-2.3s-0.2-1.8-0.5-2.4
							c-0.3-0.7-0.9-1-1.6-1S73.3,23.5,72.9,24.2z M86.2,21.5l-9.6,17.8H75l9.6-17.8H86.2z M89.7,31c0.6,0.8,0.9,1.9,0.9,3.3
							c0,1.3-0.3,2.4-0.9,3.3C89,38.5,88,39,86.7,39s-2.3-0.5-3-1.4c-0.6-0.9-0.9-1.9-0.9-3.3c0-1.4,0.3-2.5,0.9-3.3
							c0.7-1,1.7-1.4,3-1.4S89,30.1,89.7,31z M85.1,31.9c-0.3,0.6-0.5,1.4-0.5,2.4s0.1,1.8,0.5,2.4c0.3,0.7,0.9,1,1.6,1
							s1.2-0.4,1.6-1.1c0.3-0.6,0.5-1.3,0.5-2.3s-0.2-1.8-0.5-2.4c-0.4-0.7-0.9-1-1.6-1C86,30.9,85.5,31.2,85.1,31.9z"/>
					</g>
				</g>
			</g>
			<polygon id="Rectangle" class="st2" points="160,-18.6 320,-1 345,139 160,159 			"/>
			<polygon id="Rectangle_1_" class="st3" points="160,-18.6 101,-18.6 160,159 			"/>
		</g>
		<g class="st1">
			<path class="st3" d="M56,13.2V7.8h-2.9V5.6h8v2.2h-2.8v5.4h2.4v2.2h-2.4v5.2c1-0.4,1.9-0.8,2.9-1.3v2.2c-2.4,1.1-4.9,2-7.7,2.8
				L53,22.2c1-0.2,2-0.5,3-0.8v-6h-2.6v-2.2C53.4,13.2,56,13.2,56,13.2z M73.4,5.1v13.7h-2.6v4.6c0,0.4,0.1,0.6,0.5,0.6h1
				c0.3,0,0.6-0.4,0.6-1s0.1-1.6,0.1-2.8l2,0.8c0,2.3-0.2,3.7-0.5,4.2s-1,0.8-2.1,0.9h-1.2c-1.7,0-2.5-0.7-2.5-2.2v-5h-1.8
				c-0.3,3.5-2,6-5.1,7.6l-1.2-1.9c2.5-1.1,3.9-3,4.2-5.7h-2.6V5.1H73.4z M71.2,9V7h-6.9v2H71.2z M71.2,12.9v-2.1h-6.9v2.1H71.2z
				 M71.2,14.7h-6.9v2.2h6.9V14.7z"/>
			<path class="st3" d="M79,13.3l-1.3-1.9c4.2-1.8,7.5-4.2,10.1-7h1.8c2.2,2.8,5.6,5.1,10,6.9l-1.3,1.9c-1.2-0.5-2.3-1-3.3-1.6v1.2
				h-5.3v2.9h8.4v2.1h-8.4v5.9H92c0.7-1.5,1.4-3.1,2-4.8l2.1,0.7c-0.5,1.5-1.1,2.9-1.7,4.1H99v2.2H78.4v-2.2h4.7
				c-0.5-1.4-1-2.7-1.7-3.9l2-0.7c0.7,1.3,1.3,2.8,1.9,4.6h2.3v-5.9h-8.4v-2.1h8.4v-2.9h-5.3v-1.3C81.3,12.2,80.2,12.7,79,13.3z
				 M88.7,6.5c-1.6,1.6-3.3,3.1-5.3,4.3h10.3C91.8,9.6,90.1,8.2,88.7,6.5z"/>
		</g>
		<g class="st1">
			<path class="st3" d="M116.8,2.4c1.3,1.1,2,2.7,2,4.6c0,2.5-1.3,4.2-3.8,5c1.3,0.4,2.4,1.1,3.1,1.9c0.8,0.9,1.2,2,1.2,3.3
				c0,2.1-0.7,3.8-2.2,5.2c-1.5,1.3-3.6,2-6,2c-2.3,0-4.2-0.6-5.6-1.8c-1.6-1.3-2.5-3.3-2.7-5.9h3.5c0.1,1.5,0.5,2.7,1.5,3.6
				c0.8,0.8,1.9,1.2,3.3,1.2c1.5,0,2.7-0.4,3.6-1.3c0.8-0.8,1.2-1.7,1.2-2.8c0-1.3-0.4-2.3-1.2-3c-0.8-0.6-1.9-1-3.4-1h-1.7v-2.6
				h1.6c1.4,0,2.5-0.3,3.2-0.9c0.7-0.6,1.1-1.5,1.1-2.7s-0.4-2-1-2.6c-0.7-0.6-1.8-0.9-3.1-0.9c-1.4,0-2.5,0.4-3.2,1.1
				S107,6.6,106.8,8h-3.4c0.2-2.3,1-4,2.5-5.3c1.4-1.3,3.2-1.9,5.5-1.9C113.6,0.7,115.4,1.2,116.8,2.4z"/>
		</g>
		<g class="st1">
			<path class="st3" d="M130.1,8.3c0.6,0.8,1,1.9,1,3.3c0,1.3-0.3,2.4-1,3.3s-1.7,1.4-3,1.4s-2.4-0.5-3.1-1.4c-0.6-0.9-1-1.9-1-3.3
				s0.3-2.5,1-3.3c0.7-1,1.8-1.4,3.1-1.4C128.4,6.9,129.4,7.3,130.1,8.3z M125.7,9.5c-0.2,0.5-0.3,1.2-0.3,2.1
				c0,0.9,0.1,1.6,0.3,2.1c0.3,0.6,0.7,0.9,1.4,0.9c0.6,0,1-0.3,1.3-1c0.2-0.5,0.3-1.2,0.3-2c0-0.9-0.1-1.6-0.3-2.1
				c-0.3-0.6-0.7-1-1.3-1C126.5,8.5,126,8.8,125.7,9.5z M139,6.5l-9.6,17.8h-1.9l9.6-17.8H139z M142.5,16c0.6,0.8,1,1.9,1,3.3
				c0,1.3-0.3,2.4-1,3.3s-1.7,1.4-3,1.4s-2.4-0.5-3.1-1.4c-0.6-0.9-1-1.9-1-3.3s0.3-2.5,1-3.3c0.7-1,1.8-1.4,3.1-1.4
				S141.8,15.1,142.5,16z M138.1,17.2c-0.2,0.5-0.3,1.2-0.3,2.1s0.1,1.6,0.3,2.1c0.3,0.6,0.7,0.9,1.4,0.9c0.6,0,1-0.3,1.3-1
				c0.2-0.5,0.3-1.2,0.3-2c0-0.9-0.1-1.6-0.3-2.1c-0.3-0.6-0.7-1-1.3-1C138.8,16.3,138.4,16.6,138.1,17.2z"/>
		</g>
		<g id="Group-17" transform="translate(170.000000, 35.000000)">
			<g id="Combined-Shape">
				<path id="path-3_1_" class="st4" d="M0-1c82.6,0,150.5,62.5,159.1,142.8L0,159V-1z"/>
			</g>
		</g>
		<g id="Group-2" transform="translate(342.000000, 53.000000)">
			<g class="st1">
				<path class="st4" d="M11.5,7.8c1,0.8,1.5,2,1.5,3.5c0,1.9-1,3.1-2.8,3.8c1,0.3,1.8,0.8,2.3,1.4c0.6,0.6,0.9,1.5,0.9,2.5
					c0,1.6-0.6,2.9-1.6,3.9c-1.2,1-2.7,1.5-4.5,1.5s-3.2-0.5-4.2-1.3c-1.2-1-1.9-2.5-2-4.4h2.6c0,1.2,0.4,2,1.1,2.7
					c0.6,0.6,1.4,0.9,2.4,0.9c1.1,0,2-0.3,2.7-1c0.6-0.6,0.9-1.3,0.9-2.1c0-1-0.3-1.8-0.9-2.2c-0.6-0.5-1.4-0.7-2.6-0.7H6v-2h1.2
					c1.1,0,1.8-0.2,2.4-0.7c0.5-0.5,0.8-1.1,0.8-2s-0.3-1.5-0.7-2C9.2,9,8.4,8.8,7.4,8.8S5.6,9.1,5,9.6S4.1,10.9,4,12H1.4
					c0.1-1.7,0.8-3,1.9-4s2.4-1.4,4.1-1.4C9.1,6.5,10.5,6.9,11.5,7.8z"/>
				<path class="st4" d="M26.6,7.8c1,0.8,1.5,2,1.5,3.5c0,1.9-1,3.1-2.8,3.8c1,0.3,1.8,0.8,2.3,1.4c0.6,0.6,0.9,1.5,0.9,2.5
					c0,1.6-0.6,2.9-1.6,3.9c-1.2,1-2.7,1.5-4.5,1.5s-3.2-0.5-4.2-1.3c-1.2-1-1.9-2.5-2-4.4h2.6c0,1.2,0.4,2,1.1,2.7
					c0.6,0.6,1.4,0.9,2.4,0.9c1.1,0,2-0.3,2.7-1c0.6-0.6,0.9-1.3,0.9-2.1c0-1-0.3-1.8-0.9-2.2c-0.6-0.5-1.4-0.7-2.6-0.7h-1.2v-2h1.2
					c1.1,0,1.8-0.2,2.4-0.7c0.5-0.5,0.8-1.1,0.8-2s-0.3-1.5-0.7-2c-0.5-0.5-1.3-0.7-2.3-0.7s-1.8,0.3-2.4,0.8s-0.9,1.3-1,2.4h-2.6
					c0.1-1.7,0.8-3,1.9-4s2.4-1.4,4.1-1.4C24.2,6.5,25.6,6.9,26.6,7.8z"/>
				<path class="st4" d="M36.4,26.4h-2.2V15.6c-0.6,1.8-1.4,3.5-2.3,5.1L31,18.3c1.5-2.1,2.5-4.6,3.2-7.3h-2.7V8.9h2.7V4.3h2.2v4.5
					h2V11h-2v1.4c0.9,1.1,1.8,2.2,2.7,3.5l-1.3,1.9c-0.5-1.1-1-2-1.4-2.7V26.4z M43.4,7.5l-1,0.5h2.3V4.5h2.2V8h2.4l-0.9-0.5
					c0.8-0.9,1.4-1.8,1.9-2.6L52,5.7c-0.4,0.8-1,1.6-1.6,2.3h2.2v4.9h-2v-3H41v3h-2V8h2.6c-0.6-0.9-1.1-1.6-1.7-2.3l1.8-0.8
					C42.2,5.6,42.8,6.5,43.4,7.5z M52.2,26.5H50v-0.8h-8.4v0.7h-2.2v-9.1h12.8C52.2,17.3,52.2,26.5,52.2,26.5z M50.3,11.3v4.9h-9.1
					v-4.9C41.2,11.3,50.3,11.3,50.3,11.3z M44.8,20.7v-1.6h-3.2v1.6H44.8z M44.8,23.9v-1.5h-3.2v1.5H44.8z M48.4,12.9h-5.3v1.8h5.3
					V12.9z M46.8,20.7H50v-1.6h-3.2V20.7z M50,23.9v-1.5h-3.2v1.5H50z"/>
				<path class="st4" d="M60.8,6V4.3H63V6h7.8V4.3H73V6h4v1.9h-4v7.5h4.4v2h-4.6c1.2,1.2,2.8,2.1,4.9,2.9l-0.9,2
					c-1.7-0.7-3-1.5-4.1-2.5v2H68v1.9h8v2.1H57.6v-2.1h8.2v-1.9h-4.7v-1.9c-1.1,0.9-2.3,1.7-3.8,2.4l-1.2-1.9
					c2.2-0.8,3.8-1.7,4.9-2.9h-4.6v-2h4.4V7.9h-4.1V6H60.8z M65.8,19.7V18H68v1.7h4.6c-0.9-0.7-1.6-1.5-2.1-2.3h-7.3
					c-0.6,0.8-1.2,1.6-2,2.3H65.8z M70.8,9.2V7.9H63v1.4L70.8,9.2L70.8,9.2z M70.8,12.3V11H63v1.3H70.8z M70.8,15.4v-1.3H63v1.3
					H70.8z"/>
				<path class="st4" d="M85.3,10.4l-1.1,1.8c-1.2-0.9-2.5-1.6-3.8-2.1l1.2-1.7C83,8.9,84.2,9.6,85.3,10.4z M87,14.2
					c-1.2,1.6-2.8,3.2-4.7,4.6L80.8,17c2-1.3,3.6-2.7,4.9-4.3L87,14.2z M90.4,19.9v-1.8h2.3v1.8h9.6V22h-9.6v4.4h-2.3V22h-9.6v-2.1
					H90.4z M87.2,6.7L86,8.4c-1.3-1-2.6-1.8-4-2.4l1.1-1.7C84.6,5,86,5.8,87.2,6.7z M86.8,13l-0.7-2.1c1.9-2,3.2-4.2,4-6.5l2.1,0.4
					C92,5.4,91.8,6,91.5,6.6h3.1c-0.2-0.7-0.5-1.3-0.8-1.9l2.3-0.4c0.2,0.7,0.5,1.4,0.7,2.3h4.9v1.9h-4.8v1.2h4.3v1.8h-4.3v1.2h4.3
					v1.8h-4.3v1.4h5.1v1.9H88.6v-6.6C88,11.7,87.4,12.3,86.8,13z M90.6,8.4v1.2h4.1V8.4H90.6z M90.6,11.4v1.2h4.1v-1.2H90.6z
					 M90.6,14.5v1.4h4.1v-1.4H90.6z"/>
				<path class="st4" d="M106.1,26.3l-0.5-2.2c0.8,0.1,1.5,0.1,2.2,0.1c0.6,0,0.9-0.3,0.9-0.9v-5.1c-1,0.3-1.9,0.6-2.9,0.9l-0.6-2.3
					c1.2-0.2,2.3-0.6,3.5-0.9v-5h-3V8.7h3V4.4h2.2v4.3h2.5v2.2h-2.5v4.2c0.9-0.4,1.8-0.7,2.7-1.2v2.3c-0.9,0.4-1.8,0.8-2.7,1.1v6.5
					c0,1.6-0.8,2.4-2.3,2.4L106.1,26.3L106.1,26.3z M126.4,8l-9.6,0.5v1.6c0,0.6,0.3,0.8,0.9,0.8h9.1V13h-10.2c-1.3,0-2-0.7-2-2V4.5
					h2.2v1.9l9.6-0.4V8z M126.1,26.5h-2.3v-1.1H117v1.1h-2.3V14.9h11.4V26.5z M123.9,19.1v-2.2H117v2.2H123.9z M123.9,23.4v-2.3H117
					v2.3H123.9z"/>
				<path class="st4" d="M135.5,26.4h-2.1V14.8c-0.7,2-1.5,3.9-2.5,5.6l-1-2.5c1.6-2.2,2.7-4.6,3.4-7.4h-2.6v-2h2.8V4.3h2.1v4.2h2.4
					v2.1h-2.4v1.2c1,1.1,2,2.4,3,3.7l-1.3,2c-0.6-1.3-1.2-2.3-1.7-3.2L135.5,26.4L135.5,26.4z M142.3,22.3c-1.1,1.5-2.3,2.9-3.9,4
					l-1.3-1.7c1.4-1,2.7-2.2,3.7-3.6L142.3,22.3z M142.2,8.4V7h-4V5.1h13.4V7h-3.8v1.4h3.5v5.9h-12.5V8.4H142.2z M151.7,18.6v1.9
					h-5.8v5.9h-2.1v-5.9h-5.5v-1.9H151.7z M150.7,15.4v1.9h-11.3v-1.9H150.7z M142.4,10.1h-1.7v2.4h1.7V10.1z M144.1,7v1.4h1.8V7
					H144.1z M145.9,10.1h-1.8v2.4h1.8V10.1z M152.2,24.7l-1.5,1.5c-0.8-1.2-1.9-2.4-3.3-3.8l1.4-1.3
					C150.1,22.3,151.2,23.5,152.2,24.7z M149.3,10.1h-1.7v2.4h1.7V10.1z"/>
				<path class="st4" d="M159,4.7v15.9c1.7-0.7,3.4-1.5,4.9-2.4l0.7,2.2c-2.7,1.5-5.7,2.9-8.9,4l-0.8-2.2c0.6-0.2,1.2-0.4,1.8-0.6
					V4.7H159z M167.9,13.5l-1.9,1.3c-1.2-2-2.8-4.3-4.8-6.8l1.9-1.2C165.1,9.4,166.8,11.6,167.9,13.5z M163.7,26.2l-1.5-1.9
					c4-2.4,6.6-5.2,7.8-8.7c1-2.9,1.4-6.6,1.5-11.2h2.4c0,4.6-0.5,8.4-1.5,11.6c-0.1,0.3-0.2,0.6-0.3,0.9c1.9,2.4,3.5,4.8,4.8,7.2
					l-1.8,1.8c-1-2.1-2.4-4.4-4-6.8C169.5,21.9,167,24.3,163.7,26.2z"/>
				<path class="st4" d="M187.6,16.1c1-1.9,1.6-4,2-6.3h-4.3c-1.2,2.7-2.7,4.9-4.6,6.7l-1.6-2c2.7-2.5,4.5-5.9,5.5-10.1l2.3,0.4
					c-0.2,1-0.5,1.9-0.7,2.8h5.7v2c-0.8,7.2-4.3,12.7-10.5,16.4l-1.6-1.9c2.9-1.6,5.2-3.7,6.8-6.2c-1.2-1-2.4-1.7-3.6-2.3l1.2-1.8
					C185.4,14.4,186.5,15.2,187.6,16.1z M195.7,4.4v7.1c1.9,1.4,3.9,3,6,4.8l-1.4,2.1c-1.8-1.8-3.3-3.3-4.5-4.3v12.4h-2.3V4.4H195.7
					z"/>
			</g>
			<g class="st1">
				<path class="st4" d="M9.9,58H7.7v-1.2H3.9v1.9H1.8V41.3H4c0.4-1.3,0.8-2.6,1-4l2.3,0.3c-0.2,1.3-0.6,2.5-1.1,3.7h3.7
					C9.9,41.3,9.9,58,9.9,58z M7.7,47.9v-4.4H3.9v4.4H7.7z M7.7,54.6v-4.7H3.9v4.7H7.7z M21.9,56.6c-0.2,1.7-1.4,2.6-3.4,2.6
					c-0.5,0-1.3,0-2.5-0.1L15.4,57c1.1,0,2,0.1,2.7,0.1c1,0,1.5-0.5,1.7-1.5c0.1-1.2,0.2-5.2,0.3-12.1h-6c-0.7,1.4-1.4,2.8-2.4,4
					l-1.4-1.8c1.6-2.3,2.7-5.1,3.3-8.4l2.3,0.3c-0.2,1.3-0.6,2.6-1,3.8h7.4C22.3,49.6,22.2,54.7,21.9,56.6z M17.9,52.2l-1.8,1.3
					c-0.9-1.6-2.2-3.3-3.7-5.3l1.8-1.2C15.8,49,17,50.7,17.9,52.2z"/>
				<path class="st4" d="M26.5,59.3L26,57.1c0.6,0.1,1.2,0.1,1.8,0.1c0.6,0,0.9-0.3,0.9-1v-5c-0.8,0.3-1.7,0.6-2.5,0.8l-0.6-2.3
					c1.1-0.2,2.1-0.5,3.1-0.9v-5H26v-2.2h2.7v-4.1H31v4.1h2.3v2.2H31V48c0.8-0.4,1.6-0.7,2.3-1.1v2.3c-0.8,0.4-1.6,0.7-2.3,1.1v6.5
					c0,1.6-0.8,2.4-2.3,2.4h-2.2V59.3z M42.5,48.8v-1.7h2.2v1.7h2.7v2.1h-2.7v6c0,1.6-0.8,2.4-2.4,2.4h-3.1l-0.5-2.2
					c1,0.1,1.9,0.2,2.8,0.2c0.6,0,0.9-0.3,0.9-0.9v-5.5h-8.7v-2.1H42.5z M41.6,37.5v2.2H47v2.1h-5.4v2.3h4.8v2.1H34.7v-2.1h4.7v-2.3
					H34v-2.1h5.4v-2.2H41.6z M39.3,55.4l-1.8,1.2c-0.6-1.2-1.5-2.4-2.6-3.9l1.8-1.1C37.8,53.1,38.7,54.3,39.3,55.4z"/>
				<path class="st4" d="M59.4,57.1c0,1.5-0.8,2.3-2.4,2.3h-1.8l-0.6-2c0.6,0,1.2,0.1,1.8,0.1s0.9-0.4,0.9-1.2v-5
					c-1.1,0.2-2.2,0.5-3.4,0.6c-0.2,3-0.9,5.5-1.9,7.6L50.3,58c1.1-2.1,1.6-4.8,1.6-8.1V38h7.5C59.4,38,59.4,57.1,59.4,57.1z
					 M57.2,44.4v-4.3H54v3.6C55.1,43.9,56.2,44.1,57.2,44.4z M57.2,49.3v-2.9c-1.1-0.3-2.2-0.6-3.3-0.7v4.2
					C55.2,49.7,56.2,49.5,57.2,49.3z M70.9,47.4v2.1c-0.6,2.2-1.6,4-3,5.6c1.3,0.9,2.8,1.8,4.6,2.5l-1.2,2c-2-0.9-3.6-1.9-4.9-3
					c-1.5,1.2-3.3,2.2-5.5,3l-1.2-1.9c2-0.7,3.6-1.6,5-2.6c-1.5-1.6-2.5-3.4-3.1-5.4h-1.1v-2.2L70.9,47.4L70.9,47.4z M69.8,38v5
					c0,0.5,0.2,0.8,0.8,0.8h1.7v2.1H70c-1.6,0-2.4-0.8-2.4-2.4v-3.3h-3.5v1.1c0,2.4-0.9,4.2-2.7,5.5l-1.5-1.7c1.3-0.8,2-2,2-3.6V38
					H69.8z M66.2,53.6c1.1-1.2,1.9-2.5,2.5-4h-5C64.2,51,65,52.4,66.2,53.6z"/>
				<path class="st4" d="M81.4,39.9l-0.3,4.4l4-1.6l0.7,2.1L81.6,46l2.9,3.3l-1.7,1.3l-2.5-3.7l-2.5,3.7L76,49.2l2.9-3.3l-4.2-1.2
					l0.7-2.1l4,1.6l-0.3-4.4h2.3V39.9z"/>
			</g>
			<g class="st1">
				<path class="st5" d="M23,83.9c2.1,1.9,3.1,4.4,3.1,7.4s-1.2,5.7-3.4,8.1c-1.3,1.4-3.7,3.2-7.1,5.5c-3.7,2.4-5.9,4.6-6.6,6.5
					h17.1v4.6H2.6c0-3.4,1.1-6.4,3.4-9c1.2-1.5,3.8-3.6,7.7-6.2c2.3-1.6,3.9-2.9,4.9-3.9c1.5-1.7,2.4-3.6,2.4-5.6
					c0-1.9-0.5-3.4-1.6-4.3s-2.6-1.4-4.7-1.4c-2.2,0-3.8,0.7-4.9,2.2C8.7,89.1,8.1,91.2,8,94H2.8c0-3.8,1.2-6.9,3.3-9.2
					c2.2-2.5,5.2-3.7,8.8-3.7C18.2,81.1,20.9,82,23,83.9z"/>
				<path class="st5" d="M53.2,83.5c2,1.7,3.1,4,3.1,6.9c0,3.7-1.9,6.3-5.7,7.5c2,0.6,3.6,1.6,4.6,2.8c1.2,1.3,1.7,3,1.7,5
					c0,3.2-1.1,5.8-3.3,7.8c-2.3,2-5.3,3.1-9,3.1c-3.5,0-6.3-0.9-8.4-2.7c-2.4-2-3.7-4.9-4-8.8h5.3c0.1,2.3,0.8,4.1,2.3,5.3
					c1.2,1.2,2.9,1.7,4.9,1.7c2.2,0,4-0.7,5.3-1.9c1.2-1.2,1.8-2.5,1.8-4.3c0-2-0.6-3.5-1.9-4.5c-1.2-1-2.9-1.4-5.1-1.4h-2.5v-3.9
					h2.4c2.1,0,3.7-0.5,4.8-1.4s1.6-2.3,1.6-4s-0.5-3-1.5-3.9c-1.1-1-2.6-1.4-4.7-1.4c-2.1,0-3.7,0.5-4.8,1.6
					c-1.2,1.1-1.9,2.6-2.1,4.8h-5.1c0.3-3.4,1.5-6,3.8-8c2.1-1.9,4.8-2.8,8.2-2.8C48.4,81.1,51.1,81.9,53.2,83.5z"/>
			</g>
			<g class="st1">
				<path class="st6" d="M77.5,89.3c0.6,0.8,0.9,1.9,0.9,3.3c0,1.3-0.3,2.4-0.9,3.3c-0.7,0.9-1.7,1.4-3,1.4s-2.3-0.5-3-1.4
					c-0.6-0.9-0.9-1.9-0.9-3.3s0.3-2.5,0.9-3.3c0.7-1,1.7-1.4,3-1.4S76.8,88.3,77.5,89.3z M72.9,90.2c-0.3,0.6-0.5,1.4-0.5,2.4
					s0.1,1.8,0.5,2.4c0.3,0.7,0.9,1,1.6,1s1.2-0.4,1.6-1.1c0.3-0.6,0.5-1.3,0.5-2.3s-0.2-1.8-0.5-2.4c-0.3-0.7-0.9-1-1.6-1
					S73.3,89.5,72.9,90.2z M86.2,87.5l-9.6,17.8H75l9.6-17.8H86.2z M89.7,97c0.6,0.8,0.9,1.9,0.9,3.3c0,1.3-0.3,2.4-0.9,3.3
					c-0.7,0.9-1.7,1.4-3,1.4s-2.3-0.5-3-1.4c-0.6-0.9-0.9-1.9-0.9-3.3s0.3-2.5,0.9-3.3c0.7-1,1.7-1.4,3-1.4S89,96.1,89.7,97z
					 M85.1,97.9c-0.3,0.6-0.5,1.4-0.5,2.4s0.1,1.8,0.5,2.4c0.3,0.7,0.9,1,1.6,1s1.2-0.4,1.6-1.1c0.3-0.6,0.5-1.3,0.5-2.3
					s-0.2-1.8-0.5-2.4c-0.4-0.7-0.9-1-1.6-1S85.5,97.2,85.1,97.9z"/>
			</g>
		</g>
	</g>
</g>
</svg>
