<?xml version="1.0" encoding="utf-8"?>
<!-- Generator: Adobe Illustrator 22.0.1, SVG Export Plug-In . SVG Version: 6.00 Build 0)  -->
<svg version="1.1" id="圖層_1" xmlns="http://www.w3.org/2000/svg" xmlns:xlink="http://www.w3.org/1999/xlink" x="0px" y="0px"
	 viewBox="0 0 556 360" style="enable-background:new 0 0 556 360;" xml:space="preserve">
<style type="text/css">
	.st0{enable-background:new    ;}
	.st1{fill:#4A4A4A;}
	.st2{fill:#708CB1;}
	.st3{fill:#004483;}
	.st4{fill:#D2BEA6;}
	.st5{fill:#BCBCBC;}
</style>
<title>pop1_2 copy</title>
<desc>Created with Sketch.</desc>
<g id="pop1_2-copy">
	<g id="Group-8">
		<g id="Group-3">
			<g id="Group-4" transform="translate(0.000000, 52.000000)">
				<g class="st0">
					<path class="st1" d="M94.6,7.7c0.2-1.4,0.3-2.8,0.3-4.3v-2h1.8V3c0,1.7-0.1,3.2-0.3,4.7h10v1.7h-9.5c1.7,5.4,5,9.6,9.9,12.5
						l-1.1,1.4c-4.8-3-8.1-7.2-9.9-12.6c-1.5,5.8-4.8,10.1-9.9,12.7L84.8,22c5.1-2.5,8.3-6.7,9.5-12.6h-9V7.7H94.6z"/>
					<path class="st1" d="M119.8,16.8v-2.1h1.7v2.1h8.3v1.6h-8.3v2.8h9.6v1.6H110v-1.6h9.8v-2.8h-8.4v-1.6H119.8z M122,2.5V4h-2.4
						v3.6h3v1.6h-3v5.3h-1.7V9.2h-3.1c-0.3,2.5-1.2,4.3-2.8,5.6l-1.3-1.1c1.3-1,2.1-2.5,2.4-4.4h-3V7.6h3.1V4h-2.4V2.5H122z
						 M114.9,7.6h3.1V4h-3.1V7.6z M125.6,3v8.3H124V3H125.6z M124.9,14.7l-0.4-1.6c1.1,0.1,2,0.1,3,0.1c0.6,0,0.8-0.4,0.8-1.1V1.7
						h1.7v10.8c0,1.5-0.6,2.2-1.9,2.2H124.9z"/>
					<path class="st1" d="M143,21.2c0,1.4-0.7,2.1-2,2.1h-2l-0.4-1.5c0.7,0,1.3,0.1,1.9,0.1s0.9-0.4,0.9-1.2V15
						c-1.2,0.3-2.5,0.6-3.9,0.7c-0.2,3.1-0.9,5.6-2,7.7l-1.3-1.2c1.2-2.2,1.7-5,1.8-8.4V2.3h7V21.2z M141.3,8.7V3.8h-3.8v4.1
						C138.8,8.1,140.1,8.4,141.3,8.7z M141.3,13.5v-3.3c-1.2-0.3-2.5-0.6-3.8-0.8v4.8C138.9,14,140.2,13.8,141.3,13.5z M154.5,11.6
						v1.6c-0.6,2.3-1.7,4.2-3.2,5.9c1.4,1.1,3.1,2,5.1,2.8l-0.9,1.5c-2.1-1-3.9-2-5.3-3.2c-1.6,1.3-3.5,2.4-5.7,3.2l-1-1.5
						c2.1-0.8,3.9-1.7,5.3-2.9c-1.7-1.7-2.8-3.6-3.4-5.7h-1.2v-1.7H154.5z M153.3,2.3v5.2c0,0.5,0.2,0.7,0.7,0.7h1.9v1.6h-2.3
						c-1.3,0-2-0.7-2-2V3.9h-4.1v1.5c0,2.3-0.9,4.1-2.5,5.3l-1.2-1.3c1.3-0.9,2-2.2,2-3.8V2.3H153.3z M150,17.9
						c1.3-1.3,2.2-2.9,2.9-4.6h-5.7C147.6,15,148.6,16.6,150,17.9z"/>
				</g>
				<g class="st0">
					<path class="st1" d="M112.8,250.5v-6h-3.1v-1.7h7.9v1.7h-3v6h2.6v1.7h-2.6v5.8c1.1-0.4,2.1-0.9,3.1-1.4v1.7
						c-2.4,1.1-4.9,2-7.6,2.8l-0.4-1.7c1.1-0.2,2.1-0.5,3.1-0.8v-6.5H110v-1.7L112.8,250.5L112.8,250.5z M129.7,242.3v13.2H127v5.1
						c0,0.4,0.2,0.7,0.6,0.7h1.2c0.5,0,0.8-0.3,0.9-0.9c0.1-0.7,0.2-1.7,0.2-3.2l1.5,0.6c0,2.3-0.2,3.7-0.5,4.2s-1,0.8-2,0.8h-1.3
						c-1.4,0-2.2-0.7-2.2-2v-5.4h-2.2c-0.2,3.5-2,6.1-5.2,7.7l-0.9-1.4c2.8-1.3,4.3-3.4,4.5-6.3h-2.7v-13.2L129.7,242.3L129.7,242.3
						z M128.1,246.2v-2.4h-7.6v2.4H128.1z M128.1,250.1v-2.5h-7.6v2.5H128.1z M128.1,251.5h-7.6v2.6h7.6V251.5z"/>
					<path class="st1" d="M135.4,250.2l-1-1.4c4.2-1.9,7.6-4.2,10.2-7.2h1.4c2.3,2.9,5.7,5.2,10.2,7.1l-1,1.4
						c-1.3-0.5-2.4-1.1-3.6-1.8v1.3h-5.4v3.5h8.5v1.6h-8.5v6.4h2.7c0.8-1.6,1.5-3.2,2.2-5l1.6,0.6c-0.6,1.7-1.3,3.2-2,4.5h5v1.7H135
						v-1.7h5c-0.5-1.5-1.2-3-1.9-4.3l1.6-0.6c0.7,1.3,1.4,3,2,4.9h2.8v-6.4h-8.6v-1.6h8.6v-3.5H139v-1.4
						C137.8,249,136.6,249.6,135.4,250.2z M145.3,243.2c-1.8,1.9-3.8,3.5-6,4.9h12C148.8,246.7,146.9,245.1,145.3,243.2z"/>
				</g>
				<g id="Group-9" transform="translate(0.000000, 120.000000)">
					<g class="st0">
						<path class="st2" d="M47.6,1.2v4.2h8.5V17h-2.3v-1.4h-6.3v8h-2.4v-8H39V17h-2.3V5.4h8.5V1.2H47.6z M45.2,13.4V7.6H39v5.8
							C39,13.4,45.2,13.4,45.2,13.4z M53.8,13.4V7.6h-6.3v5.8C47.5,13.4,53.8,13.4,53.8,13.4z"/>
						<path class="st2" d="M72.2,11.7c0.8,0.8,1.5,1.7,2.2,2.6l-1.6,1.3c-0.6-0.9-1.3-1.8-2.1-2.6c-0.9-0.9-1.8-1.8-2.8-2.5l1.4-1.2
							C70.3,9.9,71.2,10.7,72.2,11.7z"/>
						<path class="st2" d="M90.8,8.2c-1.1,4.7-2.6,8.4-4.4,10.8l-2-1.8c1.8-2.5,3.2-5.8,4.1-10L90.8,8.2z M90.9,23.2l-0.6-2.4
							c1.2,0.1,2.2,0.2,3.2,0.2c0.9,0,1.4-0.5,1.4-1.4V1.7h2.4v18.5c0,2-1,3-2.9,3H90.9z M107,17.7l-2.1,1.4c-1-3.3-2.4-7.1-4-11.2
							l2.1-1.3C104.7,10.9,106.1,14.5,107,17.7z"/>
						<path class="st2" d="M119.5,16.6v-1.8h2.3v1.8h8.1v2.1h-8.1v2.2h9.4V23H110v-2.1h9.6v-2.2h-8.2v-2.1
							C111.4,16.6,119.5,16.6,119.5,16.6z M122.1,2.2v2h-2.3v3.1h2.8v2.1h-2.8v5.1h-2.2V9.4h-2.7c-0.3,2.4-1.2,4.2-2.6,5.4l-1.7-1.5
							c1.2-0.9,1.9-2.2,2.1-3.9H110V7.3h2.9V4.2h-2.2v-2C110.7,2.2,122.1,2.2,122.1,2.2z M115.1,7.3h2.6V4.2h-2.6V7.3z M125.9,3v8.2
							h-2.2V3H125.9z M124.8,14.8l-0.5-2.1c1,0.1,2,0.1,3,0.1c0.5,0,0.7-0.4,0.7-1.1V1.6h2.2v10.6c0,1.7-0.7,2.6-2.2,2.6
							C128,14.8,124.8,14.8,124.8,14.8z"/>
						<path class="st2" d="M143.1,21.1c0,1.5-0.8,2.3-2.4,2.3H139l-0.6-2c0.6,0,1.2,0.1,1.8,0.1s0.9-0.4,0.9-1.2v-5
							c-1.1,0.2-2.2,0.5-3.4,0.6c-0.2,3-0.9,5.5-1.9,7.6L134,22c1.1-2.1,1.6-4.8,1.6-8.1V2h7.5V21.1z M141,8.4V4.1h-3.3v3.6
							C138.9,7.9,140,8.1,141,8.4z M141,13.3v-2.9c-1.1-0.3-2.2-0.6-3.3-0.7v4.2C138.9,13.7,140,13.5,141,13.3z M154.7,11.4v2.1
							c-0.6,2.2-1.6,4-3,5.6c1.3,0.9,2.8,1.8,4.6,2.5l-1.2,2c-2-0.9-3.6-1.9-4.9-3c-1.5,1.2-3.3,2.2-5.5,3l-1.2-1.9
							c2-0.7,3.6-1.6,5-2.6c-1.5-1.6-2.5-3.4-3.1-5.4h-1.1v-2.2h10.4V11.4z M153.6,2v5c0,0.5,0.2,0.8,0.8,0.8h1.7v2.1h-2.3
							c-1.6,0-2.4-0.8-2.4-2.4V4.2h-3.5v1.1c0,2.4-0.9,4.2-2.7,5.5l-1.5-1.7c1.3-0.8,2-2,2-3.6V2H153.6z M150,17.6
							c1.1-1.2,1.9-2.5,2.5-4h-5C148,15,148.8,16.4,150,17.6z"/>
					</g>
					<path id="Page-1" class="st3" d="M17.5,13.7c4.8,0,7.3-4.6-0.6-4.6c-4.2,0-4.8,3.7-4.7,6.1h-0.5c0.2-3.2,1.2-8.4,1.2-9.7
						S12.8,3.1,12.3,2C11.8,0.9,11,0,11,0s-0.8,0.9-1.3,2C9.2,3,9.1,4.1,9.1,5.5c0,1.2,1.1,6.5,1.2,9.7H9.8C9.9,12.7,9.3,9,5,9
						c-7.8,0-5.4,4.6-0.6,4.6c0,0-0.6-0.3-0.1-0.8s4-0.6,4.2,2.3c-0.4,0-0.7,0.3-0.7,0.7c0,0.4,0.3,0.6,0.6,0.7
						C7.7,19.8,4,18.3,4,18.3s0.9,2.9,2.7,2.1c1.3-0.6,2-1.6,2.6-3.1c0-0.1,0.1-0.4,0.2-0.7h0.7C10,18.9,9,18.7,9,20.7
						c0.1,2.5,2,3.3,2,3.3s1.9-0.8,1.9-3.3c0-2-1.1-1.8-1.2-4.1h0.7c0.1,0.3,0.1,0.6,0.2,0.7c0.6,1.5,1.3,2.6,2.6,3.1
						c1.9,0.8,2.7-2.1,2.7-2.1s-3.7,1.5-4.4-1.8c0.3-0.1,0.6-0.4,0.6-0.7c0-0.4-0.3-0.7-0.7-0.7c0.2-2.8,3.7-2.7,4.2-2.3
						C18.1,13.4,17.5,13.7,17.5,13.7"/>
				</g>
			</g>
			<g id="Group-2" transform="translate(176.000000, 0.000000)">
				<rect id="Rectangle-16" y="24" class="st2" width="213" height="40"/>
				<rect id="Rectangle-16-Copy" y="64" class="st4" width="267" height="40"/>
				<g class="st0">
					<path class="st1" d="M235.1,40.7V42l-5.3,13h-1.7l5.3-12.8h-7.7v-1.5H235.1z"/>
					<path class="st1" d="M243.1,40.7V55h-1.6V42.7c-0.9,0.9-2,1.6-3.4,2V43c0.6-0.2,1.3-0.5,2-0.9s1.2-0.9,1.7-1.5h1.3V40.7z"/>
				</g>
				<g class="st0">
					<path class="st1" d="M14.1,3.9c0.5,0.7,0.8,1.6,0.8,2.7s-0.3,2-0.8,2.7c-0.6,0.8-1.4,1.2-2.5,1.2s-1.9-0.4-2.5-1.2
						C8.6,8.7,8.4,7.8,8.4,6.6c0-1.1,0.2-2.1,0.8-2.7c0.6-0.8,1.4-1.2,2.5-1.2C12.7,2.7,13.5,3.1,14.1,3.9z M10.3,4.6
						c-0.3,0.5-0.4,1.1-0.4,2c0,0.8,0.1,1.5,0.4,2c0.3,0.6,0.7,0.9,1.3,0.9s1-0.3,1.3-0.9c0.2-0.5,0.4-1.1,0.4-1.9s-0.1-1.5-0.4-2
						c-0.3-0.6-0.7-0.9-1.3-0.9S10.6,4.1,10.3,4.6z M21.3,2.4l-8,14.8H12l8-14.8C20,2.4,21.3,2.4,21.3,2.4z M24.2,10.4
						C24.7,11,25,12,25,13.1s-0.3,2-0.8,2.7c-0.6,0.8-1.4,1.2-2.5,1.2s-1.9-0.4-2.5-1.2c-0.5-0.7-0.8-1.6-0.8-2.7s0.2-2.1,0.8-2.7
						c0.6-0.8,1.4-1.2,2.5-1.2C22.8,9.2,23.7,9.6,24.2,10.4z M20.4,11.1c-0.3,0.5-0.4,1.1-0.4,2c0,0.8,0.1,1.5,0.4,2
						c0.3,0.6,0.7,0.9,1.3,0.9c0.6,0,1-0.3,1.3-0.9c0.2-0.5,0.4-1.1,0.4-1.9c0-0.8-0.1-1.5-0.4-2c-0.3-0.6-0.7-0.9-1.3-0.9
						C21.2,10.3,20.7,10.5,20.4,11.1z"/>
				</g>
				<g class="st0">
					<path class="st1" d="M288.5,81.6c0.8,0.7,1.2,1.6,1.2,2.6c0,0.8-0.2,1.4-0.5,1.9c-0.4,0.6-1,1-1.7,1.2l0,0
						c0.7,0.2,1.4,0.6,1.9,1.2c0.6,0.7,0.8,1.5,0.8,2.4c0,1.3-0.4,2.3-1.3,3c-0.9,0.8-2.2,1.2-3.8,1.2c-1.7,0-2.9-0.4-3.8-1.2
						c-0.9-0.8-1.3-1.8-1.3-3c0-0.9,0.3-1.7,0.8-2.4c0.5-0.6,1.1-1.1,1.9-1.2l0,0c-0.8-0.3-1.3-0.7-1.7-1.2
						c-0.4-0.5-0.5-1.2-0.5-1.9c0-1,0.4-1.9,1.2-2.6c0.8-0.8,2-1.2,3.5-1.2C286.5,80.4,287.7,80.8,288.5,81.6z M282.3,89
						c-0.6,0.5-0.9,1.2-0.9,2.1c0,0.8,0.3,1.5,0.9,2.1c0.6,0.5,1.5,0.8,2.7,0.8s2-0.3,2.7-0.8c0.6-0.5,0.9-1.2,0.9-2
						c0-0.9-0.3-1.6-0.9-2.1c-0.6-0.6-1.5-0.9-2.7-0.9C283.8,88.1,283,88.4,282.3,89z M282.6,82.6c-0.5,0.4-0.7,1-0.7,1.7
						s0.2,1.3,0.7,1.8s1.3,0.8,2.5,0.8c1.1,0,1.9-0.3,2.5-0.8c0.4-0.4,0.7-1,0.7-1.8c0-0.7-0.3-1.3-0.7-1.7
						c-0.6-0.5-1.4-0.8-2.4-0.8C284,81.8,283.2,82,282.6,82.6z"/>
					<path class="st1" d="M302.1,82.4c0.8,1.2,1.3,2.9,1.3,5.1c0,2.3-0.5,4.1-1.3,5.6c-1,1.5-2.2,2.2-3.8,2.2
						c-2.7,0-4.2-1.3-4.6-3.8h1.6c0.3,1.6,1.3,2.4,3,2.4c1.1,0,2-0.6,2.6-1.7s0.9-2.4,0.9-4c0-0.1,0-0.3,0-0.5h-0.1
						c-0.4,0.7-0.9,1.3-1.5,1.7c-0.6,0.4-1.4,0.6-2.2,0.6c-1.4,0-2.5-0.5-3.3-1.4s-1.2-2-1.2-3.4s0.4-2.6,1.4-3.5
						c0.9-0.9,2.1-1.4,3.5-1.4C299.9,80.4,301.2,81.1,302.1,82.4z M295.8,82.8c-0.6,0.7-0.9,1.5-0.9,2.5s0.3,1.8,0.9,2.4
						s1.4,0.9,2.4,0.9c0.9,0,1.7-0.3,2.3-1c0.6-0.6,0.9-1.5,0.9-2.4c0-1-0.3-1.8-0.9-2.5s-1.4-1-2.4-1S296.4,82.1,295.8,82.8z"/>
				</g>
			</g>
			<g id="Group-17" transform="translate(176.000000, 148.000000)">
				<rect id="Rectangle-16-Copy-2" y="-4" class="st2" width="75" height="40"/>
				<rect id="Rectangle-16-Copy-3" y="36" class="st4" width="33" height="40"/>
				<g class="st0">
					<path class="st1" d="M96.5,13.6c0.8,0.8,1.3,1.8,1.3,3S97.3,19,96.3,20c-0.5,0.5-1.5,1.3-3,2.3c-1.8,1.2-2.9,2.3-3.1,3.3h7.5
						V27h-9.5c0-1.3,0.5-2.5,1.4-3.5c0.6-0.6,1.6-1.5,3.1-2.5c1.1-0.8,1.9-1.4,2.2-1.8c0.7-0.8,1.1-1.6,1.1-2.6c0-0.9-0.3-1.5-0.8-2
						s-1.3-0.7-2.2-0.7c-1,0-1.7,0.3-2.3,1c-0.6,0.6-0.9,1.6-0.9,2.9h-1.6c0-1.6,0.5-2.9,1.3-3.8c0.9-1,2.1-1.4,3.5-1.4
						C94.5,12.4,95.6,12.8,96.5,13.6z"/>
					<path class="st1" d="M110.7,12.7v1.5h-7l-0.5,4.8h0.1c0.4-0.5,0.9-0.8,1.5-1.1c0.6-0.2,1.2-0.3,1.8-0.3c1.4,0,2.5,0.4,3.3,1.3
						s1.3,2.1,1.3,3.6c0,1.4-0.5,2.6-1.5,3.5s-2.2,1.3-3.6,1.3c-1.3,0-2.3-0.3-3.2-1c-1-0.8-1.5-1.8-1.6-3.1h1.6
						c0.1,0.9,0.4,1.6,1.1,2.1c0.6,0.4,1.3,0.6,2.2,0.6c1,0,1.8-0.3,2.5-1c0.6-0.6,1-1.5,1-2.5c0-1.1-0.3-2-0.9-2.6
						s-1.4-0.9-2.4-0.9c-0.7,0-1.3,0.1-1.8,0.4c-0.6,0.3-1,0.7-1.3,1.3h-1.6l0.8-7.9C102.5,12.7,110.7,12.7,110.7,12.7z"/>
				</g>
				<g class="st0">
					<path class="st1" d="M50.9,52.7V67h-1.6V54.7c-0.9,0.9-2,1.6-3.4,2V55c0.6-0.2,1.3-0.5,2-0.9s1.2-0.9,1.7-1.5h1.3V52.7z"/>
					<path class="st1" d="M60.2,52.7V67h-1.6V54.7c-0.9,0.9-2,1.6-3.4,2V55c0.6-0.2,1.3-0.5,2-0.9s1.2-0.9,1.7-1.5h1.3V52.7z"/>
				</g>
			</g>
			<g id="Group-Copy" transform="translate(176.000000, 268.000000)">
				<rect id="Rectangle-16-Copy-4" y="-4" class="st2" width="12" height="40"/>
				<rect id="Rectangle-16-Copy-5" y="36" class="st4" width="1" height="40"/>
				<g class="st0">
					<path class="st1" d="M33.2,12.7v9.7h2.3v1.3h-2.3V27h-1.6v-3.2h-7.2v-1.6l7.2-9.5C31.6,12.7,33.2,12.7,33.2,12.7z M25.9,22.4
						h5.8v-7.6h-0.1L25.9,22.4z"/>
				</g>
				<g class="st0">
					<path class="st1" d="M22.9,54.7c0.8,1.3,1.1,3,1.1,5.2s-0.4,3.9-1.1,5.2c-0.9,1.5-2.2,2.3-3.9,2.3c-1.7,0-3-0.8-3.9-2.3
						c-0.8-1.3-1.1-3-1.1-5.2s0.4-3.9,1.1-5.2c0.9-1.5,2.1-2.3,3.9-2.3C20.7,52.4,22,53.2,22.9,54.7z M16.2,55.9
						c-0.4,1-0.6,2.3-0.6,4s0.2,3,0.6,4c0.6,1.4,1.5,2.1,2.8,2.1s2.2-0.7,2.8-2.1c0.4-1,0.6-2.3,0.6-4s-0.2-3-0.6-4
						c-0.6-1.4-1.5-2.1-2.8-2.1S16.8,54.5,16.2,55.9z"/>
				</g>
			</g>
			<rect id="Rectangle" x="174" y="-4" class="st5" width="2" height="360"/>
		</g>
		<g id="Group-7" transform="translate(438.000000, 298.000000)">
			<g class="st0">
				<path class="st1" d="M41.3,4.3V0.7h1.5v3.6h7.8v1.4H44c1.3,3.2,3.7,6,7.2,8.5l-1,1.2c-3.5-2.9-6-6.1-7.3-9.8h-0.2v7.8H47v1.4
					h-4.3V19h-1.5v-4.1h-4.1v-1.4h4.1V5.7h-0.1c-1.5,4.1-4,7.4-7.6,10l-0.8-1.3c3.4-2.2,5.8-5.1,7.2-8.7h-6.5V4.3H41.3z"/>
				<path class="st1" d="M58.5,2.2V0.6h1.4v1.5h6.9V0.6h1.4v1.5h3.5v1.2h-3.5V10H72v1.3h-4.2c1,1.2,2.5,2.1,4.5,2.8l-0.6,1.2
					c-2.5-1-4.2-2.4-5.3-4.1h-6.3c-1,1.7-2.7,3-5,4.1l-0.7-1.2c2-0.8,3.4-1.7,4.4-2.9h-4.2V10h3.8V3.4h-3.5V2.2H58.5z M64,12v1.6
					h4.1v1.3H64V17h6.9v1.3H55.6V17h7v-2.1h-4.1v-1.3h4.1V12H64z M66.8,4.9V3.4h-6.9v1.5H66.8z M66.8,7.4V6h-6.9v1.4H66.8z M66.8,10
					V8.6h-6.9V10H66.8z"/>
				<path class="st1" d="M76.4,8l-0.8-1.2c3.5-1.6,6.3-3.5,8.5-6h1.2c1.9,2.4,4.7,4.3,8.5,5.9L93,7.9c-1.1-0.4-2-0.9-3-1.5v1.1h-4.5
					v2.9h7.1v1.3h-7.1V17h2.2c0.7-1.3,1.3-2.7,1.8-4.2l1.3,0.5c-0.5,1.4-1.1,2.7-1.7,3.7h4.1v1.4H76.1V17h4.1
					c-0.4-1.3-1-2.5-1.6-3.6l1.3-0.5c0.6,1.1,1.2,2.5,1.7,4.1h2.3v-5.3h-7.1v-1.3h7.1V7.5h-4.5V6.4C78.4,7,77.4,7.5,76.4,8z
					 M84.7,2.2c-1.5,1.6-3.2,2.9-5,4.1h10C87.6,5.1,86,3.7,84.7,2.2z"/>
			</g>
			<rect id="Rectangle-16_1_" y="-4" class="st2" width="20" height="20"/>
			<rect id="Rectangle-16-Copy_1_" y="38" class="st4" width="20" height="20"/>
			<g class="st0">
				<path class="st1" d="M37.1,44.2v-1.5h1.4v1.5h6.9v-1.5h1.4v1.5h3.5v1.2h-3.5V52h3.8v1.3h-4.2c1,1.2,2.5,2.1,4.5,2.8l-0.6,1.2
					c-2.5-1-4.2-2.4-5.3-4.1h-6.3c-1,1.7-2.7,3-5,4.1L33,56.1c2-0.8,3.4-1.7,4.4-2.9h-4.2V52H37v-6.6h-3.5v-1.2H37.1z M42.7,54v1.6
					h4.1v1.3h-4.1V59h6.9v1.3H34.3V59h7v-2.1h-4.1v-1.3h4.1V54H42.7z M45.4,46.9v-1.5h-6.9v1.5H45.4z M45.4,49.4V48h-6.9v1.4H45.4z
					 M45.4,52v-1.4h-6.9V52H45.4z"/>
				<path class="st1" d="M58,47.9L57.3,49c-1-0.8-2-1.4-3.1-1.8l0.7-1.1C56,46.6,57.1,47.2,58,47.9z M62.6,55.8v-1.6H64v1.6h8.2v1.3
					H64V61h-1.4v-3.9h-8.1v-1.3H62.6z M59.4,50.7c-1,1.4-2.3,2.7-3.9,3.9l-1-1.1c1.6-1.1,3-2.4,4-3.7L59.4,50.7z M59.6,44.8
					l-0.7,1.1c-1.1-0.9-2.2-1.6-3.3-2.1l0.7-1.1C57.4,43.3,58.5,44,59.6,44.8z M59.2,49.5l-0.4-1.3c1.7-1.7,2.8-3.5,3.5-5.5l1.3,0.3
					c-0.2,0.6-0.4,1.1-0.7,1.7h3.2c-0.2-0.6-0.5-1.2-0.7-1.8l1.4-0.2c0.2,0.6,0.4,1.3,0.6,2h4.2v1.2h-4.2v1.4h3.8v1.2h-3.8v1.4h3.8
					v1.2h-3.8v1.5h4.4v1.2H61v-5.9C60.4,48.3,59.9,48.9,59.2,49.5z M62.3,45.8v1.4h3.9v-1.4H62.3z M62.3,48.4v1.4h3.9v-1.4H62.3z
					 M62.3,50.9v1.5h3.9v-1.5H62.3z"/>
				<path class="st1" d="M76.1,60.8l-0.3-1.4c0.7,0.1,1.3,0.1,1.9,0.1c0.5,0,0.8-0.3,0.8-0.8v-4.8c-0.9,0.3-1.8,0.6-2.7,0.8
					l-0.3-1.4c1-0.2,2-0.5,3-0.8v-4.6h-2.7v-1.4h2.7v-3.8h1.4v3.8h2.2v1.4h-2.2V52c0.8-0.3,1.6-0.7,2.4-1.1v1.5
					c-0.8,0.4-1.6,0.7-2.4,1v5.7c0,1.1-0.6,1.7-1.7,1.7C78.2,60.8,76.1,60.8,76.1,60.8z M92.9,45.6L84.8,46v1.7
					c0,0.5,0.3,0.8,0.9,0.8h7.6v1.3H85c-1,0-1.5-0.5-1.5-1.5v-5.4h1.4v1.8l8.1-0.3L92.9,45.6L92.9,45.6z M92.7,61h-1.4v-1H85v1h-1.4
					v-9.4h9.1V61z M91.3,55.1v-2.2H85v2.2H91.3z M91.3,58.7v-2.3H85v2.3H91.3z"/>
				<path class="st1" d="M101.2,61h-1.3V50.5c-0.6,2-1.4,3.8-2.4,5.4l-0.6-1.6c1.4-2,2.4-4.2,3-6.6h-2.4v-1.3h2.5v-3.6h1.3v3.6h2.2
					v1.3h-2.2v1.1c0.9,1,1.8,2.1,2.7,3.4l-0.8,1.3c-0.7-1.3-1.3-2.3-1.8-3.1V61H101.2z M107,57.5c-0.9,1.3-2,2.4-3.3,3.4l-0.8-1.1
					c1.3-0.9,2.3-1.9,3.2-3.1L107,57.5z M107.2,46.1v-1.5h-3.5v-1.2h11.1v1.2h-3.3v1.5h3v4.7h-10.2v-4.7H107.2z M114.8,54.6v1.2h-5
					v5.1h-1.3v-5.1h-4.7v-1.2H114.8z M114,52v1.2h-9.3V52H114z M107.3,47.2h-1.8v2.5h1.8V47.2z M108.4,44.6v1.5h1.9v-1.5H108.4z
					 M110.2,47.2h-1.9v2.5h1.9V47.2z M113.2,47.2h-1.8v2.5h1.8V47.2z M115.2,59.8l-1,0.9c-0.7-1-1.7-2.1-2.9-3.3l0.9-0.8
					C113.4,57.7,114.4,58.8,115.2,59.8z"/>
			</g>
		</g>
	</g>
</g>
</svg>
