<?xml version="1.0" encoding="utf-8"?>
<!-- Generator: Adobe Illustrator 22.0.1, SVG Export Plug-In . SVG Version: 6.00 Build 0)  -->
<svg version="1.1" id="圖層_1" xmlns="http://www.w3.org/2000/svg" xmlns:xlink="http://www.w3.org/1999/xlink" x="0px" y="0px"
	 viewBox="0 0 624 335" style="enable-background:new 0 0 624 335;" xml:space="preserve">
<style type="text/css">
	.st0{enable-background:new    ;}
	.st1{fill:#4A4A4A;}
	.st2{fill:#BCBCBC;}
	.st3{fill:#708CB1;}
	.st4{fill:#D2BEA6;}
	.st5{fill:#ACBEC2;}
	.st6{fill:#FFFFFF;}
</style>
<title>pop2_3 copy</title>
<desc>Created with Sketch.</desc>
<g id="pop2_3-copy">
	<g class="st0">
		<path class="st1" d="M29.4,7.7c1.3,1,1.9,2.5,1.9,4.3c0,2.3-1.2,3.9-3.5,4.7c1.3,0.4,2.2,1,2.9,1.8c0.7,0.8,1.1,1.9,1.1,3.1
			c0,2-0.7,3.6-2,4.9c-1.4,1.3-3.3,1.9-5.6,1.9c-2.2,0-4-0.6-5.3-1.7c-1.5-1.3-2.3-3.1-2.5-5.5h3.3c0.1,1.4,0.5,2.5,1.4,3.3
			c0.8,0.7,1.8,1.1,3.1,1.1c1.4,0,2.5-0.4,3.3-1.2c0.7-0.7,1.1-1.6,1.1-2.7c0-1.3-0.4-2.2-1.2-2.8c-0.7-0.6-1.8-0.9-3.2-0.9h-1.6
			v-2.5h1.5c1.3,0,2.3-0.3,3-0.9s1-1.4,1-2.5s-0.3-1.9-0.9-2.5c-0.7-0.6-1.6-0.9-2.9-0.9s-2.3,0.3-3,1s-1.2,1.7-1.3,3h-3.2
			c0.2-2.1,1-3.8,2.4-5c1.3-1.2,3-1.8,5.1-1.8C26.4,6.2,28.1,6.7,29.4,7.7z"/>
		<path class="st1" d="M48.3,7.9c1.3,1.2,1.9,2.7,1.9,4.6s-0.7,3.5-2.1,5.1c-0.8,0.9-2.3,2-4.4,3.5c-2.3,1.5-3.7,2.9-4.1,4h10.7V28
			H35.5c0-2.1,0.7-4,2.1-5.6c0.8-0.9,2.4-2.2,4.8-3.9c1.4-1,2.5-1.8,3.1-2.5c1-1.1,1.5-2.2,1.5-3.5c0-1.2-0.3-2.1-1-2.7
			c-0.7-0.6-1.6-0.9-2.9-0.9c-1.3,0-2.4,0.5-3.1,1.4c-0.7,0.9-1.1,2.2-1.1,3.9h-3.3c0-2.4,0.7-4.3,2.1-5.8c1.4-1.6,3.2-2.3,5.5-2.3
			C45.3,6.2,47,6.7,48.3,7.9z"/>
		<path class="st1" d="M63.8,8.4c0.8,1,1.2,2.4,1.2,4.1s-0.4,3.1-1.2,4.1c-0.9,1.1-2.2,1.7-3.8,1.7c-1.7,0-3-0.6-3.9-1.7
			c-0.8-1.1-1.2-2.4-1.2-4.1s0.4-3.1,1.2-4.1C57,7.2,58.3,6.6,60,6.6C61.6,6.6,62.9,7.2,63.8,8.4z M58.3,9.8
			c-0.3,0.6-0.4,1.5-0.4,2.6s0.1,1.9,0.4,2.6c0.4,0.8,0.9,1.2,1.7,1.2c0.7,0,1.3-0.4,1.6-1.2c0.2-0.6,0.4-1.5,0.4-2.5
			c0-1.1-0.1-2-0.4-2.6C61.3,9,60.7,8.7,60,8.7C59.2,8.7,58.6,9,58.3,9.8z M74.9,6.2l-12,22.3h-2.4l12-22.3
			C72.5,6.2,74.9,6.2,74.9,6.2z M79.2,18c0.8,1,1.2,2.4,1.2,4.1s-0.4,3.1-1.2,4.1C78.3,27.4,77,28,75.4,28c-1.7,0-3-0.6-3.9-1.7
			c-0.8-1.1-1.2-2.4-1.2-4.1s0.4-3.1,1.2-4.1c0.9-1.2,2.2-1.8,3.9-1.8C77,16.3,78.3,16.8,79.2,18z M73.7,19.5
			c-0.3,0.6-0.4,1.5-0.4,2.6s0.1,2,0.4,2.6c0.4,0.8,0.9,1.2,1.7,1.2c0.8,0,1.3-0.4,1.6-1.2c0.2-0.6,0.4-1.5,0.4-2.5
			c0-1.1-0.1-2-0.4-2.6c-0.3-0.8-0.9-1.2-1.6-1.2C74.6,18.3,74,18.7,73.7,19.5z"/>
		<path class="st1" d="M101.7,11.4v3.4h8.3V25c0,2.1-1,3.1-3.1,3.1h-2.7l-0.7-2.6l2.5,0.1c0.9,0,1.3-0.4,1.3-1.2v-6.9h-5.5v13.6H99
			V17.5h-5.6v10.9h-2.7V17.2c-1.3,1.4-2.8,2.7-4.4,3.9l-1.8-2.4c3.5-2.6,6.4-5.6,8.5-8.9h-7.5V7h9c0.5-1.2,1-2.5,1.5-3.7l2.9,0.4
			C98.5,4.8,98,6,97.6,7h14.1v2.8H96.2c-1,1.8-2.2,3.5-3.4,5H99v-3.4H101.7z"/>
		<path class="st1" d="M121.8,14.3h19.9c0,7.5-0.1,12.2-0.4,14c-0.3,1.7-1.7,2.6-4.1,2.6c-0.7,0-1.9-0.1-3.6-0.1l-0.6-2.4
			c1.5,0.1,2.8,0.2,3.8,0.2c1.1,0,1.8-0.5,2-1.4c0.1-1,0.2-4.4,0.3-10.2h-17.2c-0.1,5.5-1.5,10.2-4.1,14.1l-2.2-2
			c2.4-3.2,3.6-7.4,3.6-12.5V4.4h21.3v7.9H122v2H121.8z M121.8,7v2.6h15.7V7H121.8z M135.1,19v8H124v-8H135.1z M132.6,21.3h-6v3.3h6
			V21.3z"/>
		<path class="st1" d="M151.9,7.4c-0.5-1.2-1-2.3-1.6-3.4l2.8-0.7c0.7,1.5,1.2,2.9,1.6,4.1h4.5v2.8H152v3.6h5.6
			c0,7.4-0.2,11.9-0.4,13.6c-0.2,2.2-1.5,3.4-3.7,3.4c-0.3,0-0.9-0.1-1.7-0.2l-0.7-2.5c0.7,0.1,1.4,0.2,1.9,0.2
			c0.9,0,1.5-0.7,1.6-2.1c0.1-1,0.2-4.3,0.3-9.8h-3c-0.2,6.6-1.4,11.5-3.6,14.6l-2.1-1.8c2-3,3-7.7,3-14.2v-4.8h-2.5V7.4H151.9z
			 M167,3.6c1.4,4,3.8,7.6,7.2,10.7l-1.6,2.4c-3.1-2.7-5.4-6.2-6.9-10.2c-1.7,4.5-3.8,8-6.3,10.4l-1.5-2.3c2.8-2.8,5-6.5,6.6-11
			C164.5,3.6,167,3.6,167,3.6z M172.3,29l-1.8,2.2c-2.8-2.5-6.3-4.8-10.6-7l1.7-2C165.8,24.3,169.4,26.6,172.3,29z M170.5,20.1
			l-1.7,2c-1.7-2-3.9-3.8-6.5-5.5l1.7-1.9C166.5,16.3,168.7,18.2,170.5,20.1z"/>
		<path class="st1" d="M192.7,5.7h11.7v2.6h-26.7V5.7h11.9c-0.3-0.7-0.6-1.3-0.9-1.9l3.2-0.5C192.2,4,192.5,4.8,192.7,5.7z
			 M197.1,31l-0.7-2.5l2.3,0.1c1.1,0,1.7-0.4,1.7-1.2v-7.6h-18.6v11.3h-2.7V17.3h24V28c0,2-1.2,3-3.5,3H197.1z M199.8,9.7V16h-17.3
			V9.8h17.3V9.7z M197.2,21.2v6.3H185v-6.3H197.2z M197,11.9h-11.8v1.9H197V11.9z M194.7,23.3h-7.1v2.1h7.1V23.3z"/>
		<path class="st1" d="M208.7,22.9c0.5-0.2,0.7-0.5,0.7-0.9V6h2.8v15.9c1.2-0.4,2.5-0.8,3.7-1.3v-17h2.8v24.8
			c2.9-1.4,5.3-3.3,7.1-5.5c-1.4-2.2-2.6-4.6-3.5-7.1l2.3-1.3c0.8,2.1,1.7,4.1,2.9,5.9c1.5-2.8,2.4-6.1,2.6-9.8h-5.4
			c-1,2.6-2.3,4.8-3.8,6.5l-1.8-2.2c2.3-2.9,3.8-6.7,4.6-11.5l2.9,0.5c-0.3,1.4-0.6,2.7-0.9,3.9h9.5v2.8h-2.3
			c-0.2,4.8-1.4,8.8-3.6,12.3c1.8,2.3,4,4.4,6.6,6.2l-2,2.3c-2.5-1.8-4.6-3.8-6.4-6.1c-1.9,2.3-4.4,4.3-7.3,5.8l-1.5-2.4V31h-2.8
			v-7.5c-2,0.7-4.1,1.4-6.4,2L208.7,22.9z"/>
		<path class="st1" d="M255.9,14l1.5-2.2c3.4,1.5,6.4,3.4,9.2,5.5l-1.6,2.5c-0.8-0.6-1.5-1.2-2.1-1.7v9.4h3.5v2.7h-26.7v-2.7h3.7
			v-9.1c-0.9,0.5-1.8,0.9-2.7,1.3l-1.2-2.6c3.7-1.4,6.7-3.2,9.1-5.4l1.8,2c-1.7,1.6-3.8,3.1-6,4.3h18.5
			C260.5,16.4,258.2,15,255.9,14z M247.2,8.4c-0.9-1.2-2-2.4-3.2-3.7l2.3-1.5c1.6,1.6,2.8,3,3.7,4.2l-1.4,1h7.3
			c1.1-1.6,2.1-3.3,2.9-5.1l2.8,1c-0.8,1.6-1.6,3-2.5,4.2h6.7v2.8h-25.5V8.4H247.2z M248.8,27.5v-6.8H246v6.8H248.8z M254.5,27.5
			v-6.8h-3v6.8H254.5z M260,27.5v-6.8h-2.9v6.8H260z"/>
		<path class="st1" d="M271.5,11.1V8.3h10.9c-0.5-1.5-1.1-2.9-1.7-4.2l2.8-0.8c0.8,1.8,1.3,3.4,1.7,4.9h-0.1h11.1V11h-10.9v6.2h9.5
			V20h-9.5v7.3h12v2.8h-26.8v-2.8h11.9V20H273v-2.7h9.4v-6.2C282.4,11.1,271.5,11.1,271.5,11.1z"/>
		<path class="st1" d="M307.6,31h-2.8V17.2c-0.8,2.5-1.8,4.7-3,6.8l-1.2-2.9c1.9-2.7,3.2-5.8,4-9.2h-3.2V9h3.4V3.4h2.8V9h2.6v2.7
			h-2.6v1.5c1.2,1.3,2.3,2.8,3.5,4.4l-1.5,2.3c-0.8-1.5-1.4-2.7-2-3.7L307.6,31L307.6,31z M309.9,24.5l-0.8-2.5
			c2.1-2.1,3.6-4.4,4.4-6.9l2.6,0.5c-0.1,0.4-0.3,0.8-0.5,1.1h3.5c-0.2-0.5-0.5-0.9-0.7-1.3l2.8-0.4c0.2,0.5,0.5,1.1,0.7,1.7h5.9V19
			h-5.6v1.6h4.7v2.1h-4.7v1.5h4.9v2h-4.9v1.6h6.2v2.3h-13.9v0.8H312v-8.6C311.4,23,310.6,23.8,309.9,24.5z M315.4,4.9V3.3h2.6v5.3
			h-2.6V7.2h-5.1V4.9H315.4z M318.7,9.2v5.5h-7.3V9.2H318.7z M316.6,11.1h-3.1v1.7h3.1V11.1z M319.6,19h-5.1v1.6h5.1V19z
			 M319.6,22.6h-5.1v1.5h5.1V22.6z M319.6,27.8v-1.6h-5.1v1.6H319.6z M327.4,9.2v5.5H320V9.2H327.4z M323.2,3.3V5h5.2v2.3h-5.2v1.4
			h-2.6V3.3H323.2z M325.3,11.1h-3.2v1.6h3.2V11.1z"/>
		<path class="st1" d="M340.2,4.5c-0.5,1.9-1.2,3.7-2.1,5.5v21.2h-2.8V14.8c-0.8,1.2-1.8,2.4-2.7,3.5l-0.9-2.9
			c2.7-3.5,4.7-7.5,6-12.1L340.2,4.5z M357,14.9v11.9h-4.4c2.4,0.5,4.7,1.1,6.9,2l-1,2.3c-2.5-1-5-1.9-7.7-2.4l1-1.9h-5.1l1.3,1.5
			c-2.1,1.2-4.7,2.2-7.8,2.9l-1.1-2.3c2.8-0.5,5-1.3,6.9-2.1h-4.3V14.9H357z M350.7,3.4v1.5h7.6v2.2h-7.6v1.2h6.6v2.2h-6.6v1.2h8.4
			V14H340v-2.2h8v-1.2h-6.4V8.3h6.4V7.1h-7.4V4.9h7.4V3.4H350.7z M354.4,18.3v-1.2h-10.2v1.2H354.4z M354.4,21.5v-1.3h-10.2v1.3
			H354.4z M354.4,23.4h-10.2v1.2h10.2V23.4z"/>
		<path class="st1" d="M378.4,15.7c0.5,0.6,0.8,1.4,0.8,2.5c0,1.5-0.5,2.9-1.3,4c-0.9,1.1-2.1,1.9-3.6,2.3v-1.9
			c0.8-0.3,1.5-0.8,2-1.4c0.5-0.7,0.8-1.4,0.8-2.1c-0.2,0.1-0.4,0.1-0.7,0.1c-0.6,0-1.1-0.2-1.6-0.7c-0.4-0.4-0.6-1-0.6-1.6
			c0-0.7,0.2-1.2,0.7-1.6c0.4-0.4,1-0.6,1.7-0.6C377.2,14.7,377.8,15,378.4,15.7z"/>
		<path class="st1" d="M394.7,30.8l-0.6-2.8c0.8,0.1,1.6,0.2,2.3,0.2c0.7,0,1.1-0.4,1.1-1v-6.4c-1,0.4-2.1,0.8-3.1,1.1l-0.7-2.9
			c1.3-0.3,2.6-0.7,3.8-1.1v-6.2H394V8.9h3.4V3.5h2.9v5.4h2.8v2.7h-2.8v5c0.8-0.4,1.5-0.8,2.3-1.2v2.9c-0.8,0.4-1.5,0.8-2.3,1.1v8.4
			c0,1.9-1,2.9-2.9,2.9h-2.7V30.8z M420.4,16.7v2.5h-7.2V22h5.9v2.5h-5.9v3.2c1.1,0.1,2.4,0.2,3.9,0.2c1.6,0,3-0.1,4.1-0.2l-0.8,2.8
			c-1.2,0-2.2,0-3.2-0.1c-4,0-6.7-0.4-8.2-1.1c-1-0.5-2-1.5-2.8-2.9c-0.7,1.7-1.6,3.2-2.7,4.6l-2.1-1.8c2.2-2.7,3.4-5.7,3.6-9
			l2.5,0.3c-0.1,1.1-0.2,2.1-0.4,3.1c0.9,1.7,1.9,2.9,3.1,3.4l0.3,0.1v-7.8h-7.3v-2.5L420.4,16.7L420.4,16.7z M418.6,4.3v10.8h-13.5
			V4.3H418.6z M415.8,8.7v-2h-8v2H415.8z M415.8,10.8h-8v2h8V10.8z"/>
		<path class="st1" d="M439.9,5.7h11.7v2.6h-26.7V5.7h11.9c-0.3-0.7-0.6-1.3-0.9-1.9l3.2-0.5C439.4,4,439.7,4.8,439.9,5.7z
			 M444.3,31l-0.7-2.5l2.3,0.1c1.1,0,1.7-0.4,1.7-1.2v-7.6H429v11.3h-2.7V17.3h24V28c0,2-1.2,3-3.5,3H444.3z M447,9.7V16h-17.3V9.8
			H447V9.7z M444.4,21.2v6.3h-12.2v-6.3H444.4z M444.2,11.9h-11.8v1.9h11.8V11.9z M441.9,23.3h-7.1v2.1h7.1V23.3z"/>
		<path class="st1" d="M461.4,8.1V6.8h-5.7V4.7h5.7V3.4h2.5v1.3h5.4v2.2h-5.4v1.3h4.7v5.6h-4.7V14c1.7,0.6,3.4,1.4,5.2,2.2l-1.4,2.1
			c-1.4-1.1-2.7-1.9-3.7-2.5v2.8h-2.5v-2.9c-1.6,1.3-3.3,2.4-5,3.2l-1.2-2.2c2-0.6,4-1.6,5.9-2.9h-4.5V8.1H461.4z M481.2,19.3v2.5
			h-10.8v1.9h8.9v2.4h-8.9V28h12.2v2.5h-26.8V28h4.6v-5.2h2.6V28h4.6v-6.2h-10.3v-2.5H481.2z M461.4,10H459v1.8h2.5V10H461.4z
			 M466.4,10h-2.5v1.8h2.5V10z M471.5,11.3c-0.4,0.5-0.8,1-1.2,1.4l-1.6-2.1c1.8-2,3-4.4,3.7-7.3l2.5,0.3c-0.2,0.7-0.4,1.3-0.5,2
			h7.8V8h-1.6c-0.4,2.6-1.3,4.7-2.7,6.4c1.4,0.8,2.9,1.4,4.8,1.9l-1.5,2.2c-2-0.6-3.8-1.4-5.2-2.4c-1.4,0.9-3.3,1.7-5.5,2.3l-1-2.3
			c1.8-0.5,3.2-1.1,4.4-1.7C473,13.5,472.2,12.4,471.5,11.3z M471.6,11.2l2-1.2c0.6,1.1,1.3,2.1,2.3,2.9l0,0
			c1.1-1.2,1.8-2.8,2.2-4.9h-4.7C472.9,9.2,472.3,10.2,471.6,11.2z"/>
		<path class="st1" d="M497.1,12.3h1v5h-1.4v11.3c0,1.5-0.8,2.2-2.5,2.2h-2l-0.6-2.3c0.7,0.1,1.3,0.1,1.9,0.1c0.5,0,0.8-0.3,0.8-0.9
			v-2.1c-1.1,0.4-2.2,0.7-3.3,1l-0.5-1.7c-0.2,2.4-0.8,4.4-1.9,5.9l-1.9-1.7c1-1.4,1.5-3.2,1.5-5.4v-6.5h-1.4v-5.1h1.1v-8h9.1
			L497.1,12.3L497.1,12.3z M495.8,16.3v-1.9h-6.7v1.9H495.8z M491.5,12.3v-4h3.2V6.5h-4.5v5.8H491.5z M494.4,23.5v-5h-3.8V20
			c1.2,0.2,2.3,0.5,3.4,0.9l-0.8,1.9c-0.9-0.3-1.8-0.6-2.7-0.8v1.8c0,0.3,0,0.6,0,0.8C492,24.2,493.2,23.9,494.4,23.5z M494.8,12.3
			v-2h-1.4v2H494.8z M512.2,19.7v6.1h-1.8l-0.6,2.1h3.9v2.4h-15.9v-2.4h4.3l-0.7-2.1h-1.7v-6.1H512.2z M513.6,16.2v2.2h-15.1v-2.2
			H513.6z M502.7,5.5v-2h2.4v2h1.8v-2h2.4v2h3.5v9.4h-13.6V5.5H502.7z M503.3,9.4V7.6h-1.9v1.8C501.4,9.4,503.3,9.4,503.3,9.4z
			 M503.3,11.2h-1.9V13h1.9V11.2z M509.8,21.6h-7.6v2h7.6V21.6z M507.4,27.8l0.6-2.1h-4l0.7,2.1H507.4z M505.2,9.4h1.8V7.6h-1.8V9.4
			z M507,11.2h-1.8V13h1.8V11.2z M508.8,9.4h1.9V7.6h-1.9V9.4z M510.7,11.2h-1.9V13h1.9V11.2z"/>
		<path class="st1" d="M517.7,22.9c0.5-0.2,0.7-0.5,0.7-0.9V6h2.8v15.9c1.2-0.4,2.5-0.8,3.7-1.3v-17h2.8v24.8
			c2.9-1.4,5.3-3.3,7.1-5.5c-1.4-2.2-2.6-4.6-3.4-7.1l2.3-1.3c0.8,2.1,1.7,4.1,2.9,5.9c1.5-2.8,2.4-6.1,2.6-9.8h-5.4
			c-1,2.6-2.3,4.8-3.8,6.5l-1.8-2.2c2.3-2.9,3.8-6.7,4.6-11.5l2.8,0.5c-0.3,1.4-0.6,2.7-0.9,3.9h9.5v2.8h-2.3
			c-0.2,4.8-1.4,8.8-3.6,12.3c1.8,2.3,4,4.4,6.6,6.2l-1.9,2.3c-2.5-1.8-4.6-3.8-6.4-6.1c-1.9,2.3-4.4,4.3-7.3,5.8l-1.5-2.4V31H525
			v-7.5c-2,0.7-4.1,1.4-6.4,2L517.7,22.9z"/>
		<path class="st1" d="M564.9,14l1.5-2.2c3.4,1.5,6.4,3.4,9.2,5.5l-1.6,2.5c-0.8-0.6-1.5-1.2-2.1-1.7v9.4h3.5v2.7h-26.7v-2.7h3.7
			v-9.1c-0.9,0.5-1.8,0.9-2.7,1.3l-1.2-2.6c3.7-1.4,6.7-3.2,9.1-5.4l1.8,2c-1.7,1.6-3.8,3.1-6,4.3h18.5
			C569.5,16.4,567.2,15,564.9,14z M556.2,8.4c-0.9-1.2-2-2.4-3.2-3.7l2.3-1.5c1.6,1.6,2.8,3,3.7,4.2l-1.4,1h7.3
			c1.1-1.6,2.1-3.3,2.9-5.1l2.8,1c-0.8,1.6-1.6,3-2.6,4.2h6.7v2.8h-25.5V8.4H556.2z M557.8,27.5v-6.8H555v6.8H557.8z M563.5,27.5
			v-6.8h-3v6.8H563.5z M569,27.5v-6.8h-2.9v6.8H569z"/>
		<path class="st1" d="M591.2,5.7c-0.4-0.8-0.8-1.5-1.2-2.2l2.9-0.5c0.4,0.8,0.8,1.7,1.2,2.6h11.8v2.7h-12.5
			c-0.7,1.4-1.5,2.6-2.4,3.5c1-0.1,2-0.1,2.9-0.2c0.6-0.8,1.3-1.6,2-2.5l2.6,1c-2.7,3.3-5.1,5.8-7.1,7.6c1.5-0.2,2.9-0.4,4.4-0.6
			c-0.3-0.7-0.6-1.3-0.9-1.9l2.4-0.8c1,1.7,1.8,3.5,2.5,5.4l-2.5,1.2c-0.2-0.7-0.4-1.3-0.6-1.8c-0.8,0.1-1.6,0.2-2.3,0.3v2.9h12.1
			v2.7h-12.1V31h-2.9v-5.9h-12v-2.7h12V20c-1.3,0.2-2.6,0.3-3.9,0.4l-0.6-2.5c0.3-0.1,0.6-0.1,1-0.2c1.1-0.5,2.4-1.7,4.1-3.6
			c-1.4,0.1-2.9,0.2-4.4,0.4l-0.5-2.2c1.4-0.7,2.5-1.9,3.5-3.7H580V5.7H591.2z M586.7,16.5c-1.6,1.9-3.2,3.5-4.9,4.7L580,19
			c1.7-1.2,3.3-2.6,4.7-4.1L586.7,16.5z M586.5,12.5l-2,2c-1-1.1-2.5-2.4-4.3-3.7l2-1.9C583.9,10.2,585.3,11.3,586.5,12.5z
			 M605,10.5c-1.3,1.6-2.8,2.9-4.2,4l-1.8-2c1.4-1,2.7-2.2,3.8-3.5L605,10.5z M605.7,19.2l-2.1,2.1c-1-1.4-2.5-3-4.4-4.6L601,15
			C602.8,16.3,604.4,17.7,605.7,19.2z"/>
	</g>
	<g id="Group-7" transform="translate(0.000000, 80.000000)">
		<g id="Group-3">
			<rect id="Rectangle-3-Copy-11" y="215" class="st2" width="320" height="2"/>
			<g id="Group-2" transform="translate(26.000000, 51.000000)">
				<g class="st0">
					<path class="st1" d="M37.3,188.3v-3.6h1.5v3.6h7.8v1.4H40c1.3,3.2,3.7,6,7.2,8.5l-1,1.2c-3.5-2.9-6-6.1-7.3-9.8h-0.2v7.8H43
						v1.4h-4.3v4.1h-1.5v-4.1h-4.1v-1.4h4.1v-7.8h-0.1c-1.5,4.1-4,7.4-7.6,10l-0.8-1.3c3.4-2.2,5.8-5.1,7.2-8.7h-6.5v-1.4h7.9V188.3
						z"/>
					<path class="st1" d="M54.5,186.2v-1.5h1.4v1.5h6.9v-1.5h1.4v1.5h3.5v1.2h-3.5v6.6H68v1.3h-4.2c1,1.2,2.5,2.1,4.5,2.8l-0.6,1.2
						c-2.5-1-4.2-2.4-5.3-4.1h-6.3c-1,1.7-2.7,3-5,4.1l-0.7-1.2c2-0.8,3.4-1.7,4.4-2.9h-4.2V194h3.8v-6.6h-3.5v-1.2H54.5z M60,196
						v1.6h4.1v1.3H60v2.1h6.9v1.3H51.6V201h7v-2.1h-4.1v-1.3h4.1V196H60z M62.8,188.9v-1.5h-6.9v1.5H62.8z M62.8,191.4V190h-6.9v1.4
						H62.8z M62.8,194v-1.4h-6.9v1.4H62.8z"/>
					<path class="st1" d="M72.4,192l-0.8-1.2c3.5-1.6,6.3-3.5,8.5-6h1.2c1.9,2.4,4.7,4.3,8.5,5.9l-0.8,1.2c-1.1-0.4-2-0.9-3-1.5v1.1
						h-4.5v2.9h7.1v1.3h-7.1v5.3h2.2c0.7-1.3,1.3-2.7,1.8-4.2l1.3,0.5c-0.5,1.4-1.1,2.7-1.7,3.7h4.1v1.4H72.1V201h4.1
						c-0.4-1.3-1-2.5-1.6-3.6l1.3-0.5c0.6,1.1,1.2,2.5,1.7,4.1h2.3v-5.3h-7.1v-1.3h7.1v-2.9h-4.5v-1.2C74.4,191,73.4,191.5,72.4,192
						z M80.7,186.2c-1.5,1.6-3.2,2.9-5,4.1h10C83.6,189.1,82,187.7,80.7,186.2z"/>
				</g>
				<g class="st0">
					<path class="st1" d="M43.8,6.3h-1.6c-0.3-1.6-1.3-2.4-3-2.4c-1.1,0-2,0.5-2.6,1.7c-0.6,1-0.9,2.4-0.9,4c0,0.1,0,0.3,0,0.5h0.1
						c0.4-0.7,0.9-1.3,1.5-1.7s1.4-0.6,2.2-0.6c1.4,0,2.5,0.4,3.3,1.3c0.8,0.9,1.2,2,1.2,3.4s-0.5,2.6-1.4,3.5s-2.1,1.4-3.5,1.4
						c-1.7,0-3-0.7-3.9-1.9c-0.8-1.2-1.2-2.9-1.2-5.1c0-2.3,0.4-4.1,1.3-5.6c0.9-1.5,2.2-2.2,3.8-2.2C41.8,2.4,43.4,3.7,43.8,6.3z
						 M36.8,10c-0.6,0.6-0.9,1.4-0.9,2.4s0.3,1.8,0.9,2.5c0.6,0.7,1.4,1,2.4,1s1.7-0.3,2.3-1c0.6-0.7,0.9-1.5,0.9-2.5
						s-0.3-1.8-0.9-2.4c-0.6-0.6-1.4-0.9-2.4-0.9C38.2,9,37.4,9.3,36.8,10z"/>
					<path class="st1" d="M49.8,15c0.2,0.2,0.4,0.5,0.4,0.9c0,0.3-0.1,0.6-0.4,0.9c-0.2,0.2-0.5,0.4-0.9,0.4s-0.6-0.1-0.9-0.4
						c-0.2-0.2-0.4-0.5-0.4-0.9s0.1-0.6,0.4-0.9c0.2-0.2,0.5-0.4,0.9-0.4S49.6,14.7,49.8,15z"/>
					<path class="st1" d="M62.4,3.6c0.8,0.7,1.2,1.6,1.2,2.6c0,0.8-0.2,1.4-0.5,1.9c-0.4,0.6-1,1-1.7,1.2l0,0
						c0.7,0.2,1.4,0.6,1.9,1.2c0.6,0.7,0.8,1.5,0.8,2.4c0,1.3-0.4,2.3-1.3,3c-0.9,0.8-2.2,1.2-3.8,1.2c-1.7,0-2.9-0.4-3.8-1.2
						c-0.9-0.8-1.3-1.8-1.3-3c0-0.9,0.3-1.7,0.8-2.4c0.5-0.6,1.1-1.1,1.9-1.2l0,0c-0.8-0.3-1.3-0.7-1.7-1.2s-0.5-1.2-0.5-1.9
						c0-1,0.4-1.9,1.2-2.6c0.8-0.8,2-1.2,3.5-1.2C60.4,2.4,61.6,2.8,62.4,3.6z M56.3,11c-0.6,0.5-0.9,1.2-0.9,2.1
						c0,0.8,0.3,1.5,0.9,2.1c0.6,0.5,1.5,0.8,2.7,0.8s2-0.3,2.7-0.8c0.6-0.5,0.9-1.2,0.9-2c0-0.9-0.3-1.6-0.9-2.1
						c-0.6-0.6-1.5-0.9-2.7-0.9C57.8,10.1,56.9,10.4,56.3,11z M56.5,4.6c-0.5,0.4-0.7,1-0.7,1.7S56,7.6,56.5,8
						C57,8.5,57.8,8.8,59,8.8c1.1,0,1.9-0.3,2.5-0.8C61.8,7.6,62,7,62,6.3S61.7,5,61.3,4.6c-0.6-0.5-1.4-0.8-2.4-0.8
						C57.9,3.8,57.1,4,56.5,4.6z"/>
					<path class="st1" d="M73.3,3.9c0.5,0.7,0.8,1.6,0.8,2.7s-0.3,2-0.8,2.7c-0.6,0.8-1.4,1.2-2.5,1.2s-1.9-0.4-2.5-1.2
						c-0.5-0.7-0.8-1.6-0.8-2.7s0.2-2.1,0.8-2.7c0.6-0.8,1.4-1.2,2.5-1.2C71.9,2.7,72.7,3.1,73.3,3.9z M69.5,4.6
						c-0.3,0.5-0.4,1.1-0.4,2c0,0.8,0.1,1.5,0.4,2c0.3,0.6,0.7,0.9,1.3,0.9c0.6,0,1-0.3,1.3-0.9c0.2-0.5,0.4-1.1,0.4-1.9
						s-0.1-1.5-0.4-2c-0.3-0.6-0.7-0.9-1.3-0.9S69.8,4.1,69.5,4.6z M80.6,2.4l-8,14.8h-1.3l8-14.8C79.3,2.4,80.6,2.4,80.6,2.4z
						 M83.5,10.4c0.5,0.7,0.8,1.6,0.8,2.7s-0.3,2-0.8,2.7C82.9,16.6,82.1,17,81,17s-1.9-0.4-2.5-1.2c-0.5-0.7-0.8-1.6-0.8-2.7
						s0.2-2.1,0.8-2.7c0.6-0.8,1.4-1.2,2.5-1.2S82.9,9.6,83.5,10.4z M79.7,11.1c-0.3,0.5-0.4,1.1-0.4,2c0,0.8,0.1,1.5,0.4,2
						C80,15.7,80.4,16,81,16c0.6,0,1-0.3,1.3-0.9c0.2-0.5,0.4-1.1,0.4-1.9c0-0.8-0.1-1.5-0.4-2c-0.3-0.6-0.7-0.9-1.3-0.9
						C80.4,10.3,80,10.5,79.7,11.1z"/>
				</g>
				<rect id="Rectangle-4" y="26" class="st3" width="120" height="138"/>
			</g>
			<g id="Group" transform="translate(174.000000, 71.000000)">
				<g class="st0">
					<path class="st1" d="M22.1,166.2v-1.5h1.4v1.5h6.9v-1.5h1.4v1.5h3.5v1.2h-3.5v6.6h3.8v1.3h-4.2c1,1.2,2.5,2.1,4.5,2.8l-0.6,1.2
						c-2.5-1-4.2-2.4-5.3-4.1h-6.3c-1,1.7-2.7,3-5,4.1l-0.7-1.2c2-0.8,3.4-1.7,4.4-2.9h-4.2V174H22v-6.6h-3.5v-1.2H22.1z M27.7,176
						v1.6h4.1v1.3h-4.1v2.1h6.9v1.3H19.3V181h7v-2.1h-4.1v-1.3h4.1V176H27.7z M30.4,168.9v-1.5h-6.9v1.5H30.4z M30.4,171.4V170h-6.9
						v1.4H30.4z M30.4,174v-1.4h-6.9v1.4H30.4z"/>
					<path class="st1" d="M43,169.9l-0.7,1.1c-1-0.8-2-1.4-3.1-1.8l0.7-1.1C41,168.6,42.1,169.2,43,169.9z M47.6,177.8v-1.6H49v1.6
						h8.2v1.3H49v3.9h-1.4v-3.9h-8.1v-1.3H47.6z M44.4,172.7c-1,1.4-2.3,2.7-3.9,3.9l-1-1.1c1.6-1.1,3-2.4,4-3.7L44.4,172.7z
						 M44.6,166.8l-0.7,1.1c-1.1-0.9-2.2-1.6-3.3-2.1l0.7-1.1C42.4,165.3,43.5,166,44.6,166.8z M44.2,171.5l-0.4-1.3
						c1.7-1.7,2.8-3.5,3.5-5.5l1.3,0.3c-0.2,0.6-0.4,1.1-0.7,1.7h3.2c-0.2-0.6-0.5-1.2-0.7-1.8l1.4-0.2c0.2,0.6,0.4,1.3,0.6,2h4.2
						v1.2h-4.2v1.4h3.8v1.2h-3.8v1.4h3.8v1.2h-3.8v1.5h4.4v1.2H46v-5.9C45.4,170.3,44.9,170.9,44.2,171.5z M47.3,167.8v1.4h3.9v-1.4
						H47.3z M47.3,170.4v1.4h3.9v-1.4H47.3z M47.3,172.9v1.5h3.9v-1.5H47.3z"/>
					<path class="st1" d="M61.1,182.8l-0.3-1.4c0.7,0.1,1.3,0.1,1.9,0.1c0.5,0,0.8-0.3,0.8-0.8v-4.8c-0.9,0.3-1.8,0.6-2.7,0.8
						l-0.3-1.4c1-0.2,2-0.5,3-0.8v-4.6h-2.7v-1.4h2.7v-3.8h1.4v3.8h2.2v1.4h-2.2v4.1c0.8-0.3,1.6-0.7,2.4-1.1v1.5
						c-0.8,0.4-1.6,0.7-2.4,1v5.7c0,1.1-0.6,1.7-1.7,1.7H61.1z M77.9,167.6l-8.1,0.4v1.7c0,0.5,0.3,0.8,0.9,0.8h7.6v1.3H70
						c-1,0-1.5-0.5-1.5-1.5v-5.4h1.4v1.8l8.1-0.3L77.9,167.6L77.9,167.6z M77.7,183h-1.4v-1H70v1h-1.4v-9.4h9.1V183z M76.3,177.1
						v-2.2H70v2.2H76.3z M76.3,180.7v-2.3H70v2.3H76.3z"/>
					<path class="st1" d="M86.2,183h-1.3v-10.5c-0.6,2-1.4,3.8-2.4,5.4l-0.6-1.6c1.4-2,2.4-4.2,3-6.6h-2.4v-1.3H85v-3.6h1.3v3.6h2.2
						v1.3h-2.2v1.1c0.9,1,1.8,2.1,2.7,3.4l-0.8,1.3c-0.7-1.3-1.3-2.3-1.8-3.1V183H86.2z M92,179.5c-0.9,1.3-2,2.4-3.3,3.4l-0.8-1.1
						c1.3-0.9,2.3-1.9,3.2-3.1L92,179.5z M92.2,168.1v-1.5h-3.5v-1.2h11.1v1.2h-3.3v1.5h3v4.7H89.2v-4.7H92.2z M99.8,176.6v1.2h-5
						v5.1h-1.3v-5.1h-4.7v-1.2H99.8z M99,174v1.2h-9.3V174H99z M92.3,169.2h-1.8v2.5h1.8V169.2z M93.4,166.6v1.5h1.9v-1.5H93.4z
						 M95.2,169.2h-1.9v2.5h1.9V169.2z M98.2,169.2h-1.8v2.5h1.8V169.2z M100.2,181.8l-1,0.9c-0.7-1-1.7-2.1-2.9-3.3l0.9-0.8
						C98.4,179.7,99.4,180.8,100.2,181.8z"/>
				</g>
				<g class="st0">
					<path class="st1" d="M43.8,6.3h-1.6c-0.3-1.6-1.3-2.4-3-2.4c-1.1,0-2,0.5-2.6,1.7c-0.6,1-0.9,2.4-0.9,4c0,0.1,0,0.3,0,0.5h0.1
						c0.4-0.7,0.9-1.3,1.5-1.7s1.4-0.6,2.2-0.6c1.4,0,2.5,0.4,3.3,1.3c0.8,0.9,1.2,2,1.2,3.4s-0.5,2.6-1.4,3.5s-2.1,1.4-3.5,1.4
						c-1.7,0-3-0.7-3.9-1.9c-0.8-1.2-1.2-2.9-1.2-5.1c0-2.3,0.4-4.1,1.3-5.6c0.9-1.5,2.2-2.2,3.8-2.2C41.8,2.4,43.4,3.7,43.8,6.3z
						 M36.8,10c-0.6,0.6-0.9,1.4-0.9,2.4s0.3,1.8,0.9,2.5c0.6,0.7,1.4,1,2.4,1s1.7-0.3,2.3-1c0.6-0.7,0.9-1.5,0.9-2.5
						s-0.3-1.8-0.9-2.4c-0.6-0.6-1.4-0.9-2.4-0.9C38.2,9,37.4,9.3,36.8,10z"/>
					<path class="st1" d="M49.8,15c0.2,0.2,0.4,0.5,0.4,0.9c0,0.3-0.1,0.6-0.4,0.9c-0.2,0.2-0.5,0.4-0.9,0.4s-0.6-0.1-0.9-0.4
						c-0.2-0.2-0.4-0.5-0.4-0.9s0.1-0.6,0.4-0.9c0.2-0.2,0.5-0.4,0.9-0.4S49.6,14.7,49.8,15z"/>
					<path class="st1" d="M62.8,4.7c0.8,1.3,1.1,3,1.1,5.2s-0.4,3.9-1.1,5.2c-0.9,1.5-2.2,2.3-3.9,2.3s-3-0.8-3.9-2.3
						c-0.8-1.3-1.1-3-1.1-5.2S54.3,6,55,4.7c0.9-1.5,2.1-2.3,3.9-2.3C60.6,2.4,61.9,3.2,62.8,4.7z M56.2,5.9c-0.4,1-0.6,2.3-0.6,4
						s0.2,3,0.6,4c0.6,1.4,1.5,2.1,2.8,2.1s2.2-0.7,2.8-2.1c0.4-1,0.6-2.3,0.6-4s-0.2-3-0.6-4c-0.6-1.4-1.5-2.1-2.8-2.1
						S56.7,4.5,56.2,5.9z"/>
					<path class="st1" d="M73.3,3.9c0.5,0.7,0.8,1.6,0.8,2.7s-0.3,2-0.8,2.7c-0.6,0.8-1.4,1.2-2.5,1.2s-1.9-0.4-2.5-1.2
						c-0.5-0.7-0.8-1.6-0.8-2.7s0.2-2.1,0.8-2.7c0.6-0.8,1.4-1.2,2.5-1.2C71.9,2.7,72.7,3.1,73.3,3.9z M69.5,4.6
						c-0.3,0.5-0.4,1.1-0.4,2c0,0.8,0.1,1.5,0.4,2c0.3,0.6,0.7,0.9,1.3,0.9c0.6,0,1-0.3,1.3-0.9c0.2-0.5,0.4-1.1,0.4-1.9
						s-0.1-1.5-0.4-2c-0.3-0.6-0.7-0.9-1.3-0.9S69.8,4.1,69.5,4.6z M80.6,2.4l-8,14.8h-1.3l8-14.8C79.3,2.4,80.6,2.4,80.6,2.4z
						 M83.5,10.4c0.5,0.7,0.8,1.6,0.8,2.7s-0.3,2-0.8,2.7C82.9,16.6,82.1,17,81,17s-1.9-0.4-2.5-1.2c-0.5-0.7-0.8-1.6-0.8-2.7
						s0.2-2.1,0.8-2.7c0.6-0.8,1.4-1.2,2.5-1.2S82.9,9.6,83.5,10.4z M79.7,11.1c-0.3,0.5-0.4,1.1-0.4,2c0,0.8,0.1,1.5,0.4,2
						C80,15.7,80.4,16,81,16c0.6,0,1-0.3,1.3-0.9c0.2-0.5,0.4-1.1,0.4-1.9c0-0.8-0.1-1.5-0.4-2c-0.3-0.6-0.7-0.9-1.3-0.9
						C80.4,10.3,80,10.5,79.7,11.1z"/>
				</g>
				<rect id="Rectangle-4-Copy" y="26" class="st4" width="120" height="118"/>
			</g>
			<g class="st0">
				<path class="st1" d="M68.5,18.8l-0.3-1.4c0.5,0,1,0.1,1.5,0.1s0.8-0.3,0.8-0.8v-4.9c-0.8,0.3-1.6,0.7-2.5,0.9l-0.4-1.4
					c1-0.3,1.9-0.6,2.8-1V5.7H68V4.3h2.4V0.7H72v3.7h2.3v1.4H72v3.9c0.7-0.4,1.5-0.8,2.2-1.2V10c-0.7,0.4-1.4,0.8-2.2,1.2V17
					c0,1.2-0.6,1.8-1.8,1.8H68.5z M84.5,9.2v1.3c-0.6,1.9-1.6,3.5-3.1,4.8c1.3,0.9,3,1.7,4.9,2.4L85.6,19c-2.1-0.8-3.8-1.7-5.2-2.8
					c-1.6,1.2-3.5,2.1-5.7,2.8l-0.8-1.2c2.1-0.7,3.9-1.5,5.4-2.5c-1.5-1.4-2.6-3-3.1-4.7H75V9.2H84.5z M83.2,1.5v4.3
					c0,0.5,0.3,0.7,0.8,0.7h1.7v1.3h-2c-1.3,0-1.9-0.6-1.9-1.8V2.8h-3.9V4c0,1.9-0.9,3.3-2.8,4.4l-1-1.1c1.5-0.7,2.3-1.8,2.3-3.1
					V1.5H83.2z M80.3,14.5c1.3-1.1,2.2-2.4,2.8-3.9h-5.6C78,12.1,78.9,13.4,80.3,14.5z"/>
				<path class="st1" d="M94.5,5.4v1.3h-5.7V5.4H94.5z M95.9,17.1c-1.5,0.8-3.6,1.5-6.4,1.9l-0.7-1c2.8-0.5,4.9-1,6.4-1.8L95.9,17.1
					z M94.1,1.8V3h-4.9V1.8H94.1z M104.1,8.2v7.9H91.2V8.2H104.1z M102.7,10.5V9.3H92.6v1.2H102.7z M102.7,12.7v-1.2H92.6v1.2H102.7
					z M102.7,13.6H92.6v1.3h10.1V13.6z M95.3,5.2l-0.8-1.1c1.5-1,2.5-2.2,3-3.6l1.3,0.2c-0.1,0.4-0.3,0.7-0.4,1.1h7.2v1
					c-0.5,1-1.1,1.9-1.7,2.6l-1-0.8c0.5-0.5,0.9-1,1.3-1.7h-6.4C97,3.8,96.3,4.6,95.3,5.2z M101.2,3.6c-0.1,0.3-0.2,0.6-0.3,0.9
					c1.4,1.5,3.3,2.3,5.5,2.6l-0.6,1.2c-2.2-0.3-4-1.3-5.5-2.8c-1,1.3-2.5,2.2-4.6,2.6l-0.7-1c2.8-0.5,4.4-1.7,4.9-3.7L101.2,3.6z
					 M106.4,18l-0.5,1.1c-2.1-0.8-4.4-1.4-6.7-1.8l0.5-1C102,16.7,104.3,17.2,106.4,18z"/>
				<path class="st1" d="M116.8,12.8l-1.2,0.3c-0.1-0.4-0.2-0.8-0.3-1.2c-1.9,0.6-3.7,1-5.5,1.2l-0.4-1.2c0.2-0.1,0.5-0.2,0.6-0.4
					c0.7-0.7,1.6-2,2.6-3.7c-1,0.2-2.1,0.3-3.1,0.5L109.2,7c0.2-0.1,0.4-0.3,0.6-0.5c1-1.7,1.9-3.6,2.6-5.7l1.3,0.5
					c-1,2.3-1.9,4.2-2.9,5.6c0.8-0.1,1.7-0.2,2.5-0.3c0.4-0.8,0.9-1.7,1.4-2.6l1.3,0.5c-1.8,3.4-3.4,5.8-4.6,7.2
					c1.2-0.2,2.3-0.5,3.5-0.8c-0.2-0.6-0.4-1.2-0.7-1.7l1.1-0.4C115.9,9.9,116.4,11.2,116.8,12.8z M111.3,14.3
					c-0.1,1.7-0.4,3.2-0.8,4.6l-1.3-0.4c0.4-1.3,0.7-2.7,0.8-4.3L111.3,14.3z M114.3,17.9l-1.3,0.3c-0.2-1.5-0.4-2.9-0.7-4l1.2-0.3
					C113.8,15.1,114.1,16.4,114.3,17.9z M116.8,16.4l-1.2,0.3c-0.2-1-0.5-2-0.9-3l1.1-0.3C116.2,14.3,116.5,15.3,116.8,16.4z
					 M126,17.2h1.4v1.4h-11v-1.4h1.5V1.5h8.2L126,17.2L126,17.2z M124.6,6.7V2.8h-5.4v3.9H124.6z M124.6,11.9V8h-5.4v3.9H124.6z
					 M124.6,17.2v-3.9h-5.4v3.9H124.6z"/>
				<path class="st1" d="M139.3,0.6c2.5,2.9,5.5,5.3,8.8,6.9l-0.8,1.4c-3.3-1.8-6.2-4.1-8.5-7c-2.2,2.7-5.1,5.1-8.6,7.1l-0.8-1.4
					c3.6-1.9,6.5-4.2,8.9-7C138.3,0.6,139.3,0.6,139.3,0.6z M145.1,19h-1.4v-1.2h-9.8V19h-1.4v-8.1h12.6L145.1,19L145.1,19z M144,7
					v1.4h-10.4V7H144z M143.7,16.4v-4.1h-9.8v4.1H143.7z"/>
				<path class="st1" d="M160.7,17.1c-3.1,0.6-6.4,1.2-10,1.6l-0.3-1.4c1.6-0.2,3.2-0.4,4.7-0.6v-3.8h-3.9v-1.4h3.9V9.2h1.4v2.3h3.6
					v1.4h-3.6v3.5c1.4-0.2,2.8-0.5,4.2-0.8L160.7,17.1L160.7,17.1z M160.6,1.5v1.4h-5.1c-1,2-1.9,3.5-2.7,4.5c2-0.2,3.9-0.4,5.7-0.8
					c-0.4-0.7-0.9-1.4-1.5-2.2l1.1-0.7c1.3,1.8,2.4,3.4,3.1,4.7L160,9.2c-0.3-0.5-0.5-1-0.9-1.6c-2.5,0.4-5.3,0.8-8.3,1.1l-0.3-1.3
					c0.2,0,0.4-0.1,0.6-0.1c0.8-0.7,1.8-2.2,2.9-4.5h-3.3V1.5H160.6z M163.7,2.5v12.4h-1.4V2.5H163.7z M163,18.8l-0.3-1.4
					c1,0,1.9,0.1,2.8,0.1c0.6,0,0.9-0.3,0.9-0.9V0.7h1.5V17c0,1.2-0.6,1.8-1.8,1.8H163z"/>
				<path class="st1" d="M174.7,15.2c-0.8,1.4-1.6,2.7-2.6,3.8l-1.1-0.8c1-1,1.9-2.1,2.6-3.5L174.7,15.2z M173.9,0.7V3h3.9V0.8h1.4
					V3h1.2v1.3h-1.2v8.5h1.3v1.4H171v-1.4h1.5V4.3h-1.2V3h1.2V0.7H173.9z M173.9,4.3v2h3.9v-2H173.9z M177.8,9.5v-2h-3.9v2H177.8z
					 M177.8,12.8v-2h-3.9v2H177.8z M179.6,17.8c1.3-1.9,2-4.2,2-7V1.4h6.6v15.7c0,1.1-0.6,1.7-1.8,1.7h-2.1l-0.4-1.4
					c0.7,0,1.4,0.1,2.1,0.1c0.5,0,0.8-0.3,0.8-0.9v-4.1h-3.9c-0.3,2.6-1.1,4.8-2.4,6.6l-1.1-1l0.1-0.1l-1.1,0.8
					c-0.5-1-1.2-2.1-2.1-3.3l1.1-0.7C178.4,15.8,179.1,16.9,179.6,17.8z M183,10.7c0,0.2,0,0.3,0,0.5h3.8V7.6H183V10.7z M186.8,2.8
					H183v3.5h3.8V2.8z"/>
				<path class="st1" d="M191.9,3.1V1.7h6.6v1.4h-3.2c-0.1,1-0.3,2-0.5,2.8h3.5v1.2c-0.7,5.6-2.7,9.6-5.9,11.9l-0.7-1.3
					c1.7-1.2,3-3,3.9-5.2c-0.7-0.5-1.4-1-2.1-1.3l0.5-1.1c0.7,0.3,1.4,0.7,2.1,1.1c0.4-1.2,0.7-2.6,0.9-4h-2.6
					c-0.6,2-1.4,3.6-2.4,4.8l-0.7-1.2c1.3-1.7,2.1-4.2,2.5-7.7C193.8,3.1,191.9,3.1,191.9,3.1z M199.8,17.1V5.5h3.1l0.2-1.8h-3.9
					V2.4h4.1c0-0.6,0.1-1.2,0.1-1.8l1.4,0.2c0,0.6-0.1,1.1-0.1,1.6h4.4v1.3h-4.5c-0.1,0.6-0.2,1.2-0.3,1.8h3.9V17h1.5v1.4h-11.9V17
					h2V17.1z M206.8,6.8h-5.6v1.7h5.6V6.8z M201.2,11.3h5.6V9.6h-5.6V11.3z M201.2,14.2h5.6v-1.7h-5.6V14.2z M201.2,17.1h5.6v-1.7
					h-5.6V17.1z"/>
				<path class="st1" d="M216.3,6.1V3.3c-1.1,0.2-2.3,0.4-3.5,0.4l-0.4-1.3c3.3-0.3,6-0.8,8.2-1.7l0.7,1.2c-1.1,0.4-2.3,0.8-3.5,1.1
					v3h3.7v1.4h-3.7v0.9c1.2,1.1,2.5,2.3,3.8,3.7l-0.9,1.3c-1.2-1.5-2.2-2.6-3-3.5V19h-1.5v-9c-1,1.9-2.2,3.7-3.8,5.3l-0.6-1.7
					c2.1-1.8,3.5-3.9,4.4-6.2l0,0h-4V6.1H216.3z M224.6,2.5v12.4h-1.4V2.5H224.6z M224.5,18.8l-0.3-1.4c1,0,1.9,0.1,2.8,0.1
					c0.6,0,0.9-0.3,0.9-1V0.7h1.5v16.2c0,1.3-0.6,1.9-1.9,1.9C227.5,18.8,224.5,18.8,224.5,18.8z"/>
				<path class="st1" d="M241.1,2.3c-0.3-0.6-0.6-1.2-0.9-1.7l1.5-0.2c0.3,0.6,0.6,1.2,0.9,1.9h7.9v1.4H242c-0.6,1.1-1.2,2.1-2,2.8
					l2.6-0.2c0.5-0.6,0.9-1.2,1.4-1.8l1.3,0.5c-1.9,2.4-3.6,4.3-5.1,5.5c1.3-0.2,2.5-0.3,3.7-0.5c-0.2-0.5-0.5-1-0.7-1.4l1.2-0.4
					c0.7,1.2,1.2,2.4,1.7,3.7l-1.3,0.6c-0.2-0.5-0.3-0.9-0.5-1.4c-0.6,0.1-1.3,0.2-2,0.3v2.3h8.2V15h-8.2v4.1h-1.5V15h-8.2v-1.4h8.2
					v-2.2c-0.9,0.1-1.8,0.2-2.8,0.3l-0.3-1.3l0.5-0.1c0.9-0.5,1.9-1.5,3.2-2.9c-1.1,0.1-2.2,0.2-3.4,0.3l0-1.1
					c1-0.6,1.9-1.6,2.5-2.9h-7.4V2.3H241.1z M237.6,9.2c-1,1.3-2.1,2.3-3.3,3.2l-1-1.1c1.2-0.8,2.2-1.8,3.2-2.9L237.6,9.2z
					 M237.4,6.8l-1,1c-0.7-0.8-1.6-1.6-2.8-2.5l1-1C235.7,5.2,236.6,6,237.4,6.8z M249.8,5.1C248.9,6.2,248,7,247,7.8l-0.9-1
					c1-0.7,1.8-1.5,2.6-2.4L249.8,5.1z M250.2,11.3l-1,1c-0.7-1-1.7-2-3-3.1l0.9-0.9C248.3,9.3,249.4,10.3,250.2,11.3z"/>
			</g>
		</g>
		<g id="Group-4" transform="translate(374.000000, 11.000000)">
			<path id="Oval-6" class="st5" d="M50.6,210l79.4-90V0c66.3,0,120,53.7,120,120s-53.7,120-120,120C99.5,240,71.7,228.7,50.6,210z"
				/>
			<path id="Combined-Shape" class="st3" d="M40.6,206C15.7,184,0,151.8,0,116C0,49.7,53.7-4,120-4v120L40.6,206z"/>
			<g class="st0">
				<path class="st6" d="M50.7,53.1h7.8v1.8H40.7v-1.8h7.9c-0.2-0.5-0.4-0.9-0.6-1.3l2.1-0.4C50.3,52,50.5,52.5,50.7,53.1z M53.6,70
					l-0.4-1.7l1.5,0.1c0.7,0,1.1-0.3,1.1-0.8v-5.1H43.4V70h-1.8v-9.2h16V68c0,1.3-0.8,2-2.4,2H53.6z M55.4,55.8V60H43.8v-4.2H55.4z
					 M53.7,63.5v4.2h-8.1v-4.2H53.7z M53.6,57.3h-7.9v1.3h7.9V57.3z M52,64.9h-4.8v1.4H52V64.9z"/>
				<path class="st6" d="M61.4,64.6c0.3-0.1,0.5-0.3,0.5-0.6V53.4h1.9V64c0.8-0.3,1.6-0.5,2.5-0.9V51.7H68v16.5
					c1.9-1,3.5-2.2,4.7-3.7c-1-1.5-1.7-3-2.3-4.7l1.5-0.9c0.5,1.4,1.1,2.7,1.9,3.9c1-1.9,1.6-4,1.7-6.5H72c-0.7,1.7-1.5,3.2-2.6,4.3
					l-1.2-1.4c1.5-1.9,2.5-4.5,3.1-7.7l1.9,0.3c-0.2,0.9-0.4,1.8-0.6,2.6H79v1.9h-1.6c-0.2,3.2-1,5.9-2.4,8.2
					c1.2,1.5,2.7,2.9,4.4,4.1l-1.3,1.5c-1.6-1.2-3-2.6-4.2-4C72.6,67.7,71,69,69,70l-1-1.6v1.5h-1.9v-5c-1.4,0.5-2.8,0.9-4.2,1.3
					L61.4,64.6z"/>
				<path class="st6" d="M92.8,58.6l1-1.5c2.2,1,4.3,2.2,6.1,3.7l-1.1,1.7c-0.5-0.4-1-0.8-1.4-1.1v6.3h2.3v1.8H81.9v-1.8h2.5v-6
					c-0.6,0.3-1.2,0.6-1.8,0.9l-0.8-1.8c2.5-0.9,4.5-2.1,6-3.6l1.2,1.4c-1.2,1.1-2.5,2-4,2.9h12.4C95.8,60.2,94.3,59.3,92.8,58.6z
					 M87,55c-0.6-0.8-1.3-1.6-2.2-2.5l1.6-1c1.1,1.1,1.9,2,2.4,2.8L87.9,55h4.9c0.7-1.1,1.4-2.2,1.9-3.4l1.8,0.6
					c-0.5,1-1.1,2-1.7,2.8h4.4v1.8h-17V55H87z M88.1,67.7v-4.5h-1.9v4.5H88.1z M91.9,67.7v-4.5h-2v4.5H91.9z M95.6,67.7v-4.5h-1.9
					v4.5H95.6z"/>
			</g>
			<g class="st0">
				<path class="st6" d="M41.4,84.7v-1.9h7.3c-0.3-1-0.7-1.9-1.1-2.8l1.8-0.5c0.5,1.2,0.9,2.3,1.2,3.3h-0.1h7.4v1.9h-7.3v4.2h6.3
					v1.8h-6.3v4.9h8v1.9H40.7v-1.9h8v-4.9h-6.3v-1.8h6.3v-4.2H41.4z"/>
				<path class="st6" d="M65.5,98h-1.8v-9.2c-0.5,1.6-1.2,3.1-2,4.5l-0.8-2c1.2-1.8,2.1-3.8,2.7-6.2h-2.2v-1.8h2.3v-3.8h1.8v3.8h1.7
					v1.8h-1.7v1c0.8,0.9,1.6,1.9,2.4,3l-1,1.5c-0.5-1-1-1.8-1.3-2.4L65.5,98L65.5,98z M67,93.7L66.4,92c1.4-1.4,2.4-2.9,3-4.6
					l1.7,0.3c-0.1,0.3-0.2,0.5-0.3,0.8h2.3c-0.2-0.3-0.3-0.6-0.5-0.8l1.9-0.3c0.2,0.3,0.3,0.7,0.4,1.1h3.9V90H75v1h3.2v1.4H75v1h3.3
					v1.4H75v1.1h4.2v1.5H70v0.5h-1.6v-5.8C68,92.7,67.5,93.2,67,93.7z M70.7,80.6v-1.1h1.7v3.6h-1.7v-0.9h-3.4v-1.6H70.7z
					 M72.9,83.5v3.7H68v-3.7H72.9z M71.4,84.8h-2v1.1h2V84.8z M73.5,90h-3.4v1h3.4V90z M73.5,92.4h-3.4v1h3.4V92.4z M73.5,95.9v-1.1
					h-3.4v1.1H73.5z M78.7,83.5v3.7h-5v-3.7H78.7z M75.9,79.5v1.1h3.4v1.6h-3.4v0.9h-1.8v-3.6H75.9z M77.3,84.8h-2.2v1.1h2.2V84.8z"
					/>
				<path class="st6" d="M87.2,80.3c-0.4,1.2-0.8,2.5-1.4,3.6V98h-1.9V87.2c-0.6,0.8-1.2,1.6-1.8,2.3l-0.6-1.9c1.8-2.3,3.1-5,4-8.1
					L87.2,80.3z M98.4,87.3v7.9h-2.9c1.6,0.3,3.1,0.8,4.6,1.3L99.5,98c-1.6-0.7-3.4-1.2-5.1-1.6l0.6-1.3h-3.4l0.9,1
					c-1.4,0.8-3.1,1.4-5.2,2l-0.7-1.5c1.8-0.4,3.4-0.8,4.6-1.4h-2.9v-7.9H98.4z M94.2,79.6v1h5.1v1.5h-5.1v0.8h4.4v1.5h-4.4v0.8h5.6
					v1.5H87.1v-1.5h5.3v-0.8h-4.2v-1.5h4.2v-0.8h-4.9v-1.5h4.9v-1H94.2z M96.7,89.5v-0.8h-6.8v0.8H96.7z M96.7,91.7v-0.8h-6.8v0.8
					H96.7z M96.7,93h-6.8v0.8h6.8V93z"/>
			</g>
			<g class="st0">
				<path class="st6" d="M57.4,110.5c0.8,0.7,1.2,1.6,1.2,2.8c0,1.6-0.8,2.7-2.3,3.2c0.8,0.3,1.5,0.7,1.9,1.2
					c0.5,0.6,0.7,1.3,0.7,2.1c0,1.3-0.5,2.4-1.4,3.2c-0.9,0.8-2.1,1.3-3.6,1.3c-1.4,0-2.5-0.4-3.3-1c-1-0.8-1.6-2.1-1.7-3.7h1.7
					c0,1.1,0.4,2,1.1,2.6c0.6,0.5,1.3,0.7,2.2,0.7c1,0,1.8-0.3,2.5-0.9c0.6-0.6,0.9-1.3,0.9-2.1c0-0.9-0.3-1.5-0.8-2
					c-0.6-0.5-1.3-0.7-2.3-0.7H53v-1.3h1c1,0,1.7-0.2,2.2-0.6s0.8-1.1,0.8-1.9s-0.3-1.4-0.7-1.9c-0.5-0.5-1.3-0.7-2.2-0.7
					c-1,0-1.7,0.2-2.2,0.8c-0.6,0.5-0.9,1.3-1,2.2h-1.6c0.1-1.4,0.6-2.5,1.5-3.2c0.8-0.8,1.9-1.2,3.3-1.2
					C55.4,109.4,56.5,109.8,57.4,110.5z"/>
				<path class="st6" d="M70,110.6c0.8,0.8,1.3,1.8,1.3,3s-0.5,2.4-1.4,3.4c-0.5,0.5-1.5,1.3-3,2.3c-1.8,1.2-2.9,2.3-3.1,3.3h7.5
					v1.5h-9.5c0-1.3,0.5-2.5,1.4-3.5c0.6-0.6,1.6-1.5,3.1-2.5c1.1-0.8,1.9-1.4,2.2-1.8c0.7-0.8,1.1-1.6,1.1-2.6c0-0.9-0.3-1.5-0.8-2
					s-1.3-0.7-2.2-0.7c-1,0-1.7,0.3-2.3,1c-0.6,0.6-0.9,1.6-0.9,2.9h-1.6c0-1.6,0.5-2.9,1.3-3.8c0.9-1,2.1-1.4,3.5-1.4
					C68,109.4,69.1,109.8,70,110.6z"/>
				<path class="st6" d="M80.2,110.9c0.5,0.7,0.8,1.6,0.8,2.7s-0.3,2-0.8,2.7c-0.6,0.8-1.4,1.2-2.5,1.2s-1.9-0.4-2.5-1.2
					c-0.5-0.7-0.8-1.6-0.8-2.7s0.2-2.1,0.8-2.7c0.6-0.8,1.4-1.2,2.5-1.2C78.8,109.7,79.6,110.1,80.2,110.9z M76.4,111.6
					c-0.3,0.5-0.4,1.1-0.4,2c0,0.8,0.1,1.5,0.4,2c0.3,0.6,0.7,0.9,1.3,0.9c0.6,0,1-0.3,1.3-0.9c0.2-0.5,0.4-1.1,0.4-1.9
					s-0.1-1.5-0.4-2c-0.3-0.6-0.7-0.9-1.3-0.9C77.1,110.8,76.7,111.1,76.4,111.6z M87.4,109.4l-8,14.8h-1.3l8-14.8H87.4z
					 M90.3,117.4c0.5,0.7,0.8,1.6,0.8,2.7s-0.3,2-0.8,2.7c-0.6,0.8-1.4,1.2-2.5,1.2s-1.9-0.4-2.5-1.2c-0.5-0.7-0.8-1.6-0.8-2.7
					s0.2-2.1,0.8-2.7c0.6-0.8,1.4-1.2,2.5-1.2C88.9,116.2,89.8,116.6,90.3,117.4z M86.5,118.1c-0.3,0.5-0.4,1.1-0.4,2
					c0,0.8,0.1,1.5,0.4,2c0.3,0.6,0.7,0.9,1.3,0.9c0.6,0,1-0.3,1.3-0.9c0.2-0.5,0.4-1.1,0.4-1.9s-0.1-1.5-0.4-2
					c-0.3-0.6-0.7-0.9-1.3-0.9C87.3,117.3,86.8,117.5,86.5,118.1z"/>
			</g>
			<g class="st0">
				<path class="st6" d="M158.1,105.8l-0.4-1.8c0.5,0.1,1,0.1,1.5,0.1s0.7-0.3,0.7-0.7V99c-0.8,0.3-1.5,0.6-2.2,0.9l-0.5-1.9
					c0.9-0.2,1.8-0.5,2.7-0.9v-4.2h-2.3v-1.8h2.3v-3.5h1.9v3.5h2.1v1.8h-2.1v3.3c0.7-0.4,1.4-0.7,2-1.1V97c-0.7,0.4-1.3,0.8-2,1.1
					v5.7c0,1.3-0.7,2-2,2H158.1z M174.3,96v1.8c-0.6,1.8-1.5,3.3-2.8,4.6c1.3,0.8,2.8,1.5,4.6,2.1l-1,1.6c-2-0.8-3.6-1.6-4.9-2.6
					c-1.5,1.1-3.4,2-5.6,2.6l-1-1.6c2-0.6,3.7-1.4,5.1-2.3c-1.4-1.3-2.4-2.8-2.9-4.4h-1.1V96H174.3z M173,88.3v4.2
					c0,0.4,0.3,0.7,0.8,0.7h1.5V95h-2c-1.5,0-2.2-0.7-2.2-2v-2.8h-3.4V91c0,1.9-0.9,3.4-2.8,4.5l-1.3-1.5c1.4-0.7,2.2-1.6,2.2-2.8
					v-2.9C165.8,88.3,173,88.3,173,88.3z M169.8,101.2c1.1-1,1.9-2.1,2.5-3.4h-5C167.8,99.1,168.6,100.2,169.8,101.2z"/>
				<path class="st6" d="M191,90.7c-0.1,0.3-0.2,0.5-0.3,0.8c1.4,1.3,3.2,2.1,5.4,2.4l-0.8,1.6c-0.5-0.1-1.1-0.2-1.5-0.4v8.2h-4
					c2.1,0.3,4.2,0.8,6.2,1.4l-0.6,1.5c-2.1-0.8-4.4-1.3-6.7-1.7l0.6-1.2h-4.6l0.8,1.1c-1.5,0.8-3.6,1.4-6.4,1.9l-0.9-1.5
					c2.6-0.4,4.5-0.9,5.9-1.5h-3.7V95h4.8l-0.8-1.2c2.7-0.5,4.3-1.6,4.8-3.5L191,90.7z M184.2,92.2v1.6h-5.8v-1.6H184.2z
					 M183.7,88.6v1.6h-5v-1.6H183.7z M192,97.4v-0.9h-9.5v0.9H192z M192,99.5v-0.9h-9.5v0.9H192z M192,100.8h-9.5v1h9.5V100.8z
					 M185.1,92.4l-1-1.4c1.4-1,2.4-2.1,2.9-3.5l1.7,0.2c-0.1,0.3-0.2,0.6-0.4,0.9h7v1.3c-0.5,1.1-1.1,1.9-1.7,2.6l-1.3-1
					c0.4-0.4,0.7-0.8,1-1.4h-6C186.8,91,186,91.7,185.1,92.4z M193.6,95c-1.4-0.5-2.6-1.2-3.6-2.2c-0.8,1-2,1.8-3.6,2.2H193.6z"/>
				<path class="st6" d="M201,101.1c-0.1,1.7-0.3,3.3-0.7,4.6l-1.6-0.5c0.4-1.2,0.7-2.7,0.8-4.3L201,101.1z M206.4,99.4l-1.5,0.4
					l-0.2-0.9c-1.9,0.6-3.7,1-5.4,1.2l-0.5-1.6c0.3-0.1,0.6-0.3,0.8-0.5c0.7-0.6,1.5-1.7,2.5-3.1c-0.9,0.2-1.9,0.3-2.9,0.5l-0.4-1.6
					c0.3-0.1,0.5-0.3,0.7-0.7c0.9-1.6,1.8-3.3,2.5-5.2l1.8,0.7c-0.9,2-1.9,3.7-2.8,5c0.8-0.1,1.5-0.2,2.3-0.4
					c0.4-0.7,0.9-1.5,1.4-2.3l1.7,0.6c-1.9,3.1-3.4,5.4-4.7,6.8c1-0.2,1.9-0.4,2.8-0.6c-0.2-0.6-0.3-1.1-0.5-1.6l1.5-0.5
					C205.7,96.6,206.1,97.9,206.4,99.4z M203.8,104.6l-1.6,0.4c-0.1-1.5-0.3-2.9-0.5-4.1l1.4-0.3
					C203.4,101.8,203.6,103.2,203.8,104.6z M206.1,102.5c1-2.7,1.5-6.2,1.5-10.7V90h-1.5v-1.7h9v1c-0.3,1.9-0.6,3.4-1.1,4.7h2.3v1.7
					c-0.4,2.3-1.3,4.4-2.5,6.1c1,1,2.1,1.9,3.3,2.7l-1.3,1.5c-1.2-0.9-2.2-1.8-3.1-2.9c-1.1,1.2-2.4,2.2-3.9,3l-1.2-1.5
					c1.5-0.9,2.8-1.9,3.9-3c-1-1.3-1.8-2.7-2.5-4.2c-0.5,3.6-1.3,6.4-2.6,8.4l-1.3-1.2c0.4-0.6,0.7-1.2,1-1.9l-1.2,0.5
					c-0.3-1.1-0.6-2-1-2.8l1.3-0.4C205.5,100.8,205.8,101.6,206.1,102.5z M212.3,94c0.4-1.1,0.7-2.5,0.9-4h-3.8v1.8
					c0,0.8,0,1.5-0.1,2.2H212.3z M212.6,100.3c0.9-1.4,1.5-2.9,1.9-4.6H210C210.7,97.4,211.5,98.9,212.6,100.3z"/>
			</g>
			<g class="st0">
				<path class="st6" d="M158.4,120.7v-1.9h7.3c-0.3-1-0.7-1.9-1.1-2.8l1.8-0.5c0.5,1.2,0.9,2.3,1.2,3.3h-0.1h7.4v1.9h-7.3v4.2h6.3
					v1.8h-6.3v4.9h8v1.9h-17.9v-1.9h8v-4.9h-6.3v-1.8h6.3v-4.2C165.7,120.7,158.4,120.7,158.4,120.7z"/>
				<path class="st6" d="M182.5,134h-1.8v-9.2c-0.5,1.6-1.2,3.1-2,4.5l-0.8-2c1.2-1.8,2.1-3.8,2.7-6.2h-2.2v-1.8h2.3v-3.8h1.8v3.8
					h1.7v1.8h-1.7v1c0.8,0.9,1.6,1.9,2.4,3l-1,1.5c-0.5-1-1-1.8-1.3-2.4L182.5,134L182.5,134z M184,129.7l-0.5-1.7
					c1.4-1.4,2.4-2.9,3-4.6l1.7,0.3c-0.1,0.3-0.2,0.5-0.3,0.8h2.3c-0.2-0.3-0.3-0.6-0.5-0.8l1.9-0.3c0.2,0.3,0.3,0.7,0.4,1.1h3.9
					v1.5h-3.8v1h3.2v1.4h-3.2v1h3.3v1.4h-3.3v1.1h4.2v1.5h-9.2v0.5h-1.6v-5.8C185,128.7,184.5,129.2,184,129.7z M187.7,116.6v-1.1
					h1.7v3.6h-1.7v-0.9h-3.4v-1.6H187.7z M189.9,119.5v3.7H185v-3.7H189.9z M188.4,120.8h-2v1.1h2V120.8z M190.5,126h-3.4v1h3.4V126
					z M190.5,128.4h-3.4v1h3.4V128.4z M190.5,131.9v-1.1h-3.4v1.1H190.5z M195.7,119.5v3.7h-5v-3.7H195.7z M192.9,115.5v1.1h3.4v1.6
					h-3.4v0.9h-1.8v-3.6H192.9z M194.3,120.8h-2.2v1.1h2.2V120.8z"/>
				<path class="st6" d="M204.2,116.3c-0.4,1.2-0.8,2.5-1.4,3.6V134h-1.9v-10.9c-0.6,0.8-1.2,1.6-1.8,2.3l-0.6-1.9
					c1.8-2.3,3.1-5,4-8.1L204.2,116.3z M215.4,123.3v7.9h-2.9c1.6,0.3,3.1,0.8,4.6,1.3l-0.6,1.5c-1.6-0.7-3.4-1.2-5.1-1.6l0.6-1.3
					h-3.4l0.9,1c-1.4,0.8-3.1,1.4-5.2,2l-0.7-1.5c1.8-0.4,3.4-0.8,4.6-1.4h-2.9v-7.9C205.3,123.3,215.4,123.3,215.4,123.3z
					 M211.2,115.6v1h5.1v1.5h-5.1v0.8h4.4v1.5h-4.4v0.8h5.6v1.5h-12.7v-1.5h5.3v-0.8h-4.2v-1.5h4.2v-0.8h-4.9v-1.5h4.9v-1H211.2z
					 M213.7,125.5v-0.8h-6.8v0.8H213.7z M213.7,127.7v-0.8h-6.8v0.8H213.7z M213.7,129h-6.8v0.8h6.8V129z"/>
			</g>
			<g class="st0">
				<path class="st6" d="M175.7,149.3H174c-0.3-1.6-1.3-2.4-3-2.4c-1.1,0-2,0.5-2.6,1.7c-0.6,1-0.9,2.4-0.9,4c0,0.1,0,0.3,0,0.5h0.1
					c0.4-0.7,0.9-1.3,1.5-1.7s1.4-0.6,2.2-0.6c1.4,0,2.5,0.4,3.3,1.3c0.8,0.9,1.2,2,1.2,3.4s-0.5,2.6-1.4,3.5s-2.1,1.4-3.5,1.4
					c-1.7,0-3-0.7-3.9-1.9c-0.8-1.2-1.2-2.9-1.2-5.1c0-2.3,0.4-4.1,1.3-5.6c0.9-1.5,2.2-2.2,3.8-2.2
					C173.7,145.4,175.3,146.7,175.7,149.3z M168.7,153c-0.6,0.6-0.9,1.4-0.9,2.4s0.3,1.8,0.9,2.5c0.6,0.7,1.4,1,2.4,1s1.7-0.3,2.3-1
					s0.9-1.5,0.9-2.5s-0.3-1.8-0.9-2.4c-0.6-0.6-1.4-0.9-2.4-0.9C170.1,152,169.3,152.3,168.7,153z"/>
				<path class="st6" d="M187,146.6c0.8,0.7,1.2,1.6,1.2,2.6c0,0.8-0.2,1.4-0.5,1.9c-0.4,0.6-1,1-1.7,1.2l0,0
					c0.7,0.2,1.4,0.6,1.9,1.2c0.6,0.7,0.8,1.5,0.8,2.4c0,1.3-0.4,2.3-1.3,3c-0.9,0.8-2.2,1.2-3.8,1.2c-1.7,0-2.9-0.4-3.8-1.2
					c-0.9-0.8-1.3-1.8-1.3-3c0-0.9,0.3-1.7,0.8-2.4c0.5-0.6,1.1-1.1,1.9-1.2l0,0c-0.8-0.3-1.3-0.7-1.7-1.2s-0.5-1.2-0.5-1.9
					c0-1,0.4-1.9,1.2-2.6c0.8-0.8,2-1.2,3.5-1.2C185,145.4,186.2,145.8,187,146.6z M180.8,154c-0.6,0.5-0.9,1.2-0.9,2.1
					c0,0.8,0.3,1.5,0.9,2.1c0.6,0.5,1.5,0.8,2.7,0.8s2-0.3,2.7-0.8c0.6-0.5,0.9-1.2,0.9-2c0-0.9-0.3-1.6-0.9-2.1
					c-0.6-0.6-1.5-0.9-2.7-0.9C182.3,153.1,181.5,153.4,180.8,154z M181.1,147.6c-0.5,0.4-0.7,1-0.7,1.7s0.2,1.3,0.7,1.8
					s1.3,0.8,2.5,0.8c1.1,0,1.9-0.3,2.5-0.8c0.4-0.4,0.7-1,0.7-1.8c0-0.7-0.3-1.3-0.7-1.7c-0.6-0.5-1.4-0.8-2.4-0.8
					C182.5,146.8,181.7,147,181.1,147.6z"/>
				<path class="st6" d="M197.2,146.9c0.5,0.7,0.8,1.6,0.8,2.7c0,1.1-0.3,2-0.8,2.7c-0.6,0.8-1.4,1.2-2.5,1.2s-1.9-0.4-2.5-1.2
					c-0.5-0.7-0.8-1.6-0.8-2.7c0-1.1,0.2-2.1,0.8-2.7c0.6-0.8,1.4-1.2,2.5-1.2S196.6,146.1,197.2,146.9z M193.4,147.6
					c-0.3,0.5-0.4,1.1-0.4,2c0,0.8,0.1,1.5,0.4,2c0.3,0.6,0.7,0.9,1.3,0.9s1-0.3,1.3-0.9c0.2-0.5,0.4-1.1,0.4-1.9
					c0-0.8-0.1-1.5-0.4-2c-0.3-0.6-0.7-0.9-1.3-0.9C194.1,146.8,193.7,147.1,193.4,147.6z M204.4,145.4l-8,14.8h-1.3l8-14.8H204.4z
					 M207.3,153.4c0.5,0.7,0.8,1.6,0.8,2.7c0,1.1-0.3,2-0.8,2.7c-0.6,0.8-1.4,1.2-2.5,1.2s-1.9-0.4-2.5-1.2
					c-0.5-0.7-0.8-1.6-0.8-2.7c0-1.1,0.2-2.1,0.8-2.7c0.6-0.8,1.4-1.2,2.5-1.2C205.9,152.2,206.8,152.6,207.3,153.4z M203.5,154.1
					c-0.3,0.5-0.4,1.1-0.4,2c0,0.8,0.1,1.5,0.4,2c0.3,0.6,0.7,0.9,1.3,0.9s1-0.3,1.3-0.9c0.2-0.5,0.4-1.1,0.4-1.9
					c0-0.8-0.1-1.5-0.4-2c-0.3-0.6-0.7-0.9-1.3-0.9C204.3,153.3,203.8,153.5,203.5,154.1z"/>
			</g>
		</g>
	</g>
</g>
</svg>
