<?xml version="1.0" encoding="utf-8"?>
<!-- Generator: Adobe Illustrator 22.0.1, SVG Export Plug-In . SVG Version: 6.00 Build 0)  -->
<svg version="1.1" id="圖層_1" xmlns="http://www.w3.org/2000/svg" xmlns:xlink="http://www.w3.org/1999/xlink" x="0px" y="0px"
	 viewBox="0 0 370 347" style="enable-background:new 0 0 370 347;" xml:space="preserve">
<style type="text/css">
	.st0{fill:#D2BEA6;}
	.st1{fill:#FFFFFF;}
	.st2{fill:#708CB1;}
	.st3{fill:#ACBEC2;}
	.st4{enable-background:new    ;}
</style>
<title>pop2_2 copy</title>
<desc>Created with Sketch.</desc>
<g id="pop2_2-copy">
	<g id="Group">
		<circle id="Oval-6-Copy" class="st0" cx="99" cy="248" r="99"/>
		<circle id="Oval-6-Copy-3" class="st1" cx="99" cy="248" r="66"/>
		<circle id="Oval-6-Copy-3_1_" class="st2" cx="185" cy="99" r="99"/>
		<circle id="Combined-Shape" class="st1" cx="185" cy="99" r="66"/>
		<path id="Combined-Shape_1_" class="st3" d="M185,297.1c8.3-14.5,13-31.2,13-49.1s-4.7-34.6-13-49.1c17.1-29.8,49.2-49.9,86-49.9
			c54.7,0,99,44.3,99,99s-44.3,99-99,99C234.2,347,202.1,326.9,185,297.1z"/>
		<circle id="Combined-Shape_2_" class="st1" cx="271.4" cy="248" r="66"/>
		<g class="st4">
			<path class="st2" d="M156.1,72.2c-0.4,1.5-1,3-1.7,4.4v17h-2.3V80.4c-0.7,1-1.4,1.9-2.2,2.8l-0.7-2.3c2.2-2.8,3.7-6,4.8-9.7
				L156.1,72.2z M169.6,80.5V90H166c1.9,0.4,3.8,0.9,5.5,1.6l-0.8,1.8c-2-0.8-4-1.5-6.2-1.9l0.8-1.5h-4.1l1,1.2
				c-1.7,0.9-3.8,1.7-6.3,2.4l-0.9-1.8c2.2-0.4,4-1,5.5-1.7h-3.5v-9.5H169.6z M164.5,71.3v1.2h6.1v1.8h-6.1v0.9h5.3V77h-5.3v1h6.7
				v1.8H156V78h6.4v-1h-5.1v-1.8h5.1v-0.9h-5.9v-1.8h5.9v-1.2H164.5z M167.5,83.2v-1h-8.2v1H167.5z M167.5,85.8v-1h-8.2v1H167.5z
				 M167.5,87.4h-8.2v1h8.2V87.4z"/>
			<path class="st2" d="M178.9,86.1v-1.2c-1.2,0.9-2.4,1.6-3.7,2.3l-1.2-1.9c2.3-1,4.2-2.3,5.8-3.9h-5v-2.1h6.6
				c0.5-0.7,0.9-1.4,1.2-2.2H176v-2h3.5c-0.5-1.2-1.1-2.2-1.7-3.1l2-0.6c0.6,1,1.2,2.1,1.7,3.2l-1.2,0.6h3.2
				c0.4-1.2,0.7-2.5,0.9-3.9l2.3,0.3c-0.2,1.3-0.5,2.5-0.9,3.6h4.2l-1.1-0.6c0.7-1,1.3-2,1.8-3.3l1.9,0.7c-0.5,1.2-1.1,2.3-1.8,3.2
				h3.4v2H185c-0.3,0.7-0.7,1.5-1.1,2.2h11.6v2.1h-4.7c1.2,1.4,3,2.7,5.5,3.8l-1.5,1.8c-1.2-0.7-2.3-1.4-3.2-2.2
				c-0.1,1.9-0.2,3.5-0.3,4.7c-0.2,1.4-0.5,2.4-1,2.9c-0.5,0.5-1.2,0.8-2.1,0.9h-3.8l-0.6-2.1c1.2,0,2.3,0.1,3.3,0.1
				c0.9,0,1.5-0.3,1.8-1c0.3-0.7,0.5-2.1,0.6-4.2H184c-0.5,1.7-1.1,3.1-1.9,4.1c-1,1.2-2.6,2.4-4.6,3.3l-1.4-1.8
				c1.8-0.8,3.2-1.7,4.2-2.6c0.7-0.8,1.3-1.8,1.7-3H178.9z M180,84h10.8c-1-0.9-1.7-1.8-2.3-2.7h-5.9C181.7,82.2,180.9,83.2,180,84z
				"/>
			<path class="st2" d="M200.7,74.3v-2.2h14.9v1.2c-0.4,2.1-0.9,3.9-1.4,5.4h4.5v2c-0.7,3-2.2,5.6-4.4,7.8c1.7,1.1,3.7,2.1,6,3
				l-1.6,2c-2.5-1-4.6-2.2-6.3-3.5c-2,1.4-4.4,2.6-7.2,3.6l-1.1-2.1c2.5-0.8,4.7-1.8,6.5-3.1c-2.3-2.2-3.7-4.7-4.4-7.6H206
				c-0.6,5.5-2.5,9.7-5.5,12.6l-1.8-1.5c3.4-3.2,5.2-8.4,5.2-15.4v-2.2H200.7z M211.9,78.7c0.5-1.3,0.9-2.8,1.2-4.4h-6.8v2.2
				c0,0.8,0,1.5-0.1,2.2H211.9z M216.3,80.8h-8.1c0.7,2.3,2.1,4.4,4.2,6.2C214.2,85.3,215.5,83.2,216.3,80.8z"/>
		</g>
		<g class="st4">
			<path class="st2" d="M144.3,106.5c0.3-0.8,0.5-1.6,0.7-2.3l2.3,0.3c-0.2,0.7-0.4,1.4-0.6,2.1h12v2.2h-12.9c-0.9,2-2,3.9-3.3,5.6
				v12.1h-2.2V117c-0.6,0.7-1.3,1.3-1.9,1.9l-1.4-1.8c2.7-2.4,4.9-5.2,6.4-8.4h-5.4v-2.2H144.3z M150.9,117.8v-1.9
				c1.3-0.7,2.5-1.6,3.7-2.5H146v-2.1h11.5v2.1c-1.3,1.2-2.7,2.4-4.3,3.4v1h5.8v2.2h-5.8v3.9c0,1.7-0.8,2.5-2.4,2.5h-3l-0.6-2.2
				c0.8,0,1.7,0.1,2.7,0.1c0.7,0,1.1-0.4,1.1-1.1V120h-6.8v-2.2H150.9z"/>
			<path class="st2" d="M165.5,120.1c-0.5,1.9-1.2,3.5-2,4.9l-1.7-1.1c0.9-1.3,1.5-2.7,1.9-4.2L165.5,120.1z M166.8,106.4v-2h2.2v2
				h4.2v2h-4.2v1.6h3.7v1.9h-9.9V110h4.1v-1.6h-4.9v-2H166.8z M173.4,116.8v2h-4.7v7.6h-2.2v-7.6H162v-2H173.4z M171.8,113.4v2h-8.4
				v-2H171.8z M173,123l-1.8,0.8c-0.5-1.4-1-2.6-1.5-3.7l1.8-0.6C172.1,120.6,172.6,121.8,173,123z M178.9,111.6
				c0,1.6-0.1,3-0.2,4.4c1,3.6,2.7,6.5,5.2,8.7l-1.5,1.7c-1.9-1.9-3.3-4.1-4.4-6.7c-0.7,2.8-2.4,5-5,6.9l-1.4-1.7
				c2.2-1.6,3.7-3.5,4.4-5.8c0.5-1.9,0.8-4.4,0.8-7.5H178.9z M177.3,104.8c-0.1,1.2-0.3,2.2-0.5,3.2h6.2v1.4c-0.3,2-0.7,4-1.2,6
				l-2.1-0.6c0.4-1.4,0.8-3,1.1-4.8h-4.5c-0.6,2-1.2,3.6-2.1,4.8l-1.7-1.2c1.4-2.2,2.3-5.2,2.7-9L177.3,104.8z"/>
			<path class="st2" d="M188.3,108.2V106h18.4v2.2h-8.1v14.6h9.6v2.2h-21.5v-2.2h9.6v-14.6H188.3z"/>
			<path class="st2" d="M229.6,119.8h3.3v2.1h-6c2.1,0.8,4,1.6,5.7,2.6l-1.3,2c-2.3-1.4-4.7-2.6-7.1-3.4l0.8-1.2h-6.4l1.2,1
				c-1.8,1.4-4.1,2.6-6.8,3.6l-1.4-1.8c2.3-0.8,4.3-1.8,5.9-2.8h-6.2v-2.1h3.3v-14.6h14.9V119.8z M227.3,109v-1.7H217v1.7H227.3z
				 M227.3,112.6v-1.8H217v1.8H227.3z M227.3,116.2v-1.8H217v1.8H227.3z M227.3,119.8V118H217v1.8H227.3z"/>
		</g>
		<g class="st4">
			<path class="st0" d="M71.8,238.1v2.2h-17v16.2h17.6v2.2H52.5v-20.5H71.8z M59.1,247.6l-1.4,1.4c-0.6-0.8-1.4-1.7-2.5-2.6l1.4-1.4
				C57.6,245.9,58.4,246.7,59.1,247.6z M59.9,250.6c-0.7,1.9-1.5,3.7-2.4,5.3l-2-0.9c1-1.7,1.8-3.4,2.5-5.2L59.9,250.6z M60,243.3
				l-1.5,1.5c-0.7-0.7-1.6-1.5-2.9-2.4l1.5-1.4C58.2,241.7,59.2,242.5,60,243.3z M59.7,248.9l-0.6-2c1.7-1.8,2.8-3.7,3.5-5.9l2,0.4
				c-0.3,0.8-0.6,1.6-1,2.4h2.7c-0.3-0.8-0.6-1.6-0.9-2.2l2.2-0.4c0.3,0.8,0.5,1.6,0.8,2.6h3.3v1.8H68v1.5h3v1.7h-3v1.5h3.1v1.7H68
				v1.5h3.9v1.9H61v-7.8C60.6,248,60.2,248.4,59.7,248.9z M63.1,245.6v1.5H66v-1.5H63.1z M63.1,248.8v1.5H66v-1.5H63.1z M63.1,251.9
				v1.5H66v-1.5H63.1z"/>
			<path class="st0" d="M85.4,239.2c-0.3-0.6-0.6-1.2-1-1.7l2.3-0.4c0.3,0.6,0.6,1.3,1,2.1h9.4v2.1h-10c-0.6,1.1-1.2,2.1-1.9,2.8
				c0.8,0,1.6-0.1,2.4-0.2c0.5-0.6,1-1.3,1.6-2l2.1,0.8c-2.2,2.6-4.1,4.7-5.7,6.1c1.2-0.1,2.4-0.3,3.5-0.5c-0.2-0.5-0.5-1-0.7-1.5
				l1.9-0.6c0.8,1.3,1.4,2.8,2,4.3l-2,0.9c-0.2-0.5-0.3-1-0.5-1.4c-0.6,0.1-1.2,0.2-1.9,0.3v2.4h9.7v2.2h-9.7v4.8h-2.3v-4.8h-9.6
				v-2.2h9.6v-2.1c-1.1,0.1-2.1,0.2-3.1,0.3l-0.5-2c0.2,0,0.5-0.1,0.8-0.2c0.9-0.4,1.9-1.4,3.3-2.9c-1.1,0.1-2.3,0.2-3.5,0.3
				l-0.4-1.8c1.1-0.5,2-1.5,2.8-3h-8.5v-2.1H85.4z M81.8,247.8c-1.2,1.5-2.5,2.8-3.9,3.7l-1.5-1.7c1.4-1,2.6-2.1,3.7-3.3L81.8,247.8
				z M81.6,244.6l-1.6,1.6c-0.8-0.9-2-1.9-3.4-2.9l1.6-1.5C79.5,242.7,80.7,243.7,81.6,244.6z M96.5,243c-1.1,1.3-2.2,2.3-3.4,3.2
				l-1.4-1.6c1.1-0.8,2.1-1.8,3-2.8L96.5,243z M97,249.9l-1.7,1.7c-0.8-1.2-2-2.4-3.5-3.7l1.5-1.4C94.7,247.6,96,248.8,97,249.9z"/>
			<path class="st0" d="M101.3,259.3l-0.5-2.2c0.5,0.1,1,0.1,1.5,0.1c0.6,0,0.8-0.3,0.8-0.8v-5.2c-0.8,0.3-1.5,0.6-2.3,0.8l-0.6-2.3
				c1-0.2,1.9-0.5,2.8-0.8v-5h-2.5v-2.2h2.5v-4.3h2.3v4.3h2.3v2.2h-2.3v4.1c0.7-0.3,1.4-0.7,2.1-1v2.3c-0.7,0.4-1.4,0.7-2.1,1v6.7
				c0,1.5-0.8,2.3-2.3,2.3H101.3z M112.3,255.3c-1.2,1.4-2.7,2.7-4.4,3.8l-1.3-1.7c1.7-1,3.1-2.1,4.2-3.4L112.3,255.3z M113.6,251.1
				v-1.2h2.2v1.2h6.1v2h-6.1v6.2h-2.2v-6.2h-6.1v-2H113.6z M114.1,244.5v5H108v-5H114.1z M112.3,246.1h-2.4v1.8h2.4V246.1z
				 M119.5,238.1v5.2h-9.5v-5.2H119.5z M117.4,239.8H112v1.7h5.4V239.8z M121.4,244.5v5h-6.1v-5H121.4z M122.6,257.5l-1.4,1.6
				c-1.3-1.4-2.7-2.6-4.1-3.6l1.3-1.5C119.9,255.1,121.3,256.2,122.6,257.5z M119.6,246.1h-2.4v1.8h2.4V246.1z"/>
			<path class="st0" d="M125.6,249.1l-0.8-2.4c2.5-2.7,4.3-5.9,5.5-9.5l2.2,1c-0.6,1.8-1.4,3.6-2.4,5.2v16.1h-2.3v-12.8
				C127.1,247.5,126.3,248.3,125.6,249.1z M132.2,248.7l-1.6-2c2-2.3,3.7-5.5,5.1-9.6l2.3,0.5c-0.3,1-0.7,2-1.1,2.9h9.9v2.2h-7.7
				v3.4h6.7v2.2h-6.7v3.5h6.8v2.2h-6.8v5.4h-2.3v-16.8h-0.9C134.8,245,133.6,247,132.2,248.7z"/>
		</g>
		<g class="st4">
			<path class="st3" d="M232.8,243.6v-2.7c-1.2,0.2-2.4,0.4-3.7,0.5l-0.7-2.1c4-0.3,7.2-1,9.6-2l1.1,1.9c-1.3,0.5-2.7,0.9-4.1,1.3
				v3.1h4.3v2.2h-4.3v0.8c1.5,1.2,3,2.6,4.5,4.1l-1.3,2c-1.2-1.6-2.3-2.9-3.2-3.8v10.5h-2.3v-9.8c-1.1,2-2.4,3.9-4.1,5.6l-1-2.7
				c2.3-2,4-4.2,5.1-6.7v-0.1h-4.5v-2.2H232.8z M243.3,239.6v14.7h-2.3v-14.7H243.3z M243,259.3l-0.5-2.2c1.1,0.1,2.2,0.1,3.3,0.1
				c0.6,0,0.9-0.4,0.9-1.1v-18.7h2.3v19.3c0,1.7-0.8,2.6-2.4,2.6H243z"/>
			<path class="st3" d="M262.4,239.2c-0.3-0.6-0.6-1.2-1-1.7l2.3-0.4c0.3,0.6,0.6,1.3,1,2.1h9.4v2.1h-10c-0.6,1.1-1.2,2.1-1.9,2.8
				c0.8,0,1.6-0.1,2.4-0.2c0.5-0.6,1-1.3,1.6-2l2.1,0.8c-2.2,2.6-4.1,4.7-5.7,6.1c1.2-0.1,2.4-0.3,3.5-0.5c-0.2-0.5-0.5-1-0.7-1.5
				l1.9-0.6c0.8,1.3,1.4,2.8,2,4.3l-2,0.9c-0.2-0.5-0.3-1-0.5-1.4c-0.6,0.1-1.2,0.2-1.9,0.3v2.4h9.7v2.2h-9.7v4.8h-2.3v-4.8h-9.6
				v-2.2h9.6v-2.1c-1.1,0.1-2.1,0.2-3.1,0.3l-0.5-2c0.2,0,0.5-0.1,0.8-0.2c0.9-0.4,1.9-1.4,3.3-2.9c-1.1,0.1-2.3,0.2-3.5,0.3
				l-0.4-1.8c1.1-0.5,2-1.5,2.8-3h-8.5v-2.1H262.4z M258.8,247.8c-1.2,1.5-2.5,2.8-3.9,3.7l-1.5-1.7c1.4-1,2.6-2.1,3.7-3.3
				L258.8,247.8z M258.6,244.6l-1.6,1.6c-0.8-0.9-2-1.9-3.4-2.9l1.6-1.5C256.5,242.7,257.7,243.7,258.6,244.6z M273.5,243
				c-1.1,1.3-2.2,2.3-3.4,3.2l-1.4-1.6c1.1-0.8,2.1-1.8,3-2.8L273.5,243z M274,249.9l-1.7,1.7c-0.8-1.2-2-2.4-3.5-3.7l1.5-1.4
				C271.7,247.6,273,248.8,274,249.9z"/>
			<path class="st3" d="M279.2,241.2V239h18.4v2.2h-8.1v14.6h9.6v2.2h-21.5v-2.2h9.6v-14.6H279.2z"/>
			<path class="st3" d="M320.6,252.8h3.3v2.1h-6c2.1,0.8,4,1.6,5.7,2.6l-1.3,2c-2.3-1.4-4.7-2.6-7.1-3.4l0.8-1.2h-6.4l1.2,1
				c-1.8,1.4-4.1,2.6-6.8,3.6l-1.4-1.8c2.3-0.8,4.3-1.8,5.9-2.8h-6.2v-2.1h3.3v-14.6h14.9V252.8z M318.3,242v-1.7h-10.4v1.7H318.3z
				 M318.3,245.6v-1.8h-10.4v1.8H318.3z M318.3,249.2v-1.8h-10.4v1.8H318.3z M318.3,252.8V251h-10.4v1.8H318.3z"/>
		</g>
	</g>
</g>
</svg>
