<?xml version="1.0" encoding="utf-8"?>
<!-- Generator: Adobe Illustrator 22.0.1, SVG Export Plug-In . SVG Version: 6.00 Build 0)  -->
<svg version="1.1" id="圖層_1" xmlns="http://www.w3.org/2000/svg" xmlns:xlink="http://www.w3.org/1999/xlink" x="0px" y="0px"
	 viewBox="0 0 777 260" style="enable-background:new 0 0 777 260;" xml:space="preserve">
<style type="text/css">
	.st0{enable-background:new    ;}
	.st1{fill:#4A4A4A;}
	.st2{fill:#D2BEA6;}
	.st3{fill:#708CB1;}
	.st4{fill:#689BC8;}
	.st5{fill:#BCBCBC;}
	.st6{fill:none;stroke:#689BC8;stroke-width:4;stroke-linecap:round;stroke-linejoin:round;}
	.st7{fill:none;stroke:#D2BEA6;stroke-width:4;stroke-linecap:round;stroke-linejoin:round;}
	.st8{fill:none;stroke:#708CB1;stroke-width:4;stroke-linecap:round;stroke-linejoin:round;}
</style>
<g>
	<title>pop2_4 copy</title>
	<desc>Created with Sketch.</desc>
	<g id="pop2_4-copy">
		<g id="Group-19" transform="translate(0.000000, 59.000000)">
			<g class="st0">
				<path class="st1" d="M17.4,162.6c0.7,1,1,2.3,1,4.1s-0.4,3.3-1.1,4.4c-0.8,1.2-1.8,1.8-3.1,1.8c-2.1,0-3.3-1-3.6-3.1H12
					c0.2,1.3,1,2,2.4,2c0.9,0,1.6-0.4,2.1-1.3c0.5-0.8,0.8-1.9,0.8-3.2c0-0.1,0-0.2,0-0.4h-0.1c-0.3,0.6-0.7,1-1.2,1.4
					c-0.5,0.3-1.1,0.5-1.8,0.5c-1.1,0-2-0.4-2.7-1.1c-0.7-0.7-1-1.6-1-2.7c0-1.1,0.4-2.1,1.1-2.8c0.7-0.8,1.6-1.1,2.8-1.1
					C15.7,161,16.7,161.5,17.4,162.6z M12.5,162.9c-0.5,0.5-0.7,1.2-0.7,2s0.2,1.5,0.7,1.9c0.5,0.5,1.1,0.8,1.9,0.8
					c0.7,0,1.4-0.3,1.9-0.8s0.7-1.2,0.7-2s-0.2-1.5-0.7-2s-1.1-0.8-1.9-0.8C13.6,162.1,12.9,162.4,12.5,162.9z"/>
				<path class="st1" d="M27.1,162.8c0.6,1,0.9,2.4,0.9,4.1c0,1.7-0.3,3.1-0.9,4.1c-0.7,1.2-1.7,1.8-3.1,1.8s-2.4-0.6-3.1-1.8
					c-0.6-1-0.9-2.4-0.9-4.1c0-1.7,0.3-3.1,0.9-4.1c0.7-1.2,1.7-1.8,3.1-1.8S26.4,161.6,27.1,162.8z M21.8,163.8
					c-0.3,0.8-0.5,1.8-0.5,3.2c0,1.3,0.2,2.4,0.5,3.2c0.4,1.1,1.2,1.6,2.2,1.6s1.8-0.6,2.2-1.6c0.3-0.8,0.5-1.8,0.5-3.2
					c0-1.3-0.2-2.4-0.5-3.2c-0.4-1.1-1.2-1.6-2.2-1.6S22.3,162.7,21.8,163.8z"/>
			</g>
			<g class="st0">
				<path class="st1" d="M7.9,129.3v11.4H6.6v-9.8c-0.7,0.7-1.6,1.2-2.7,1.6v-1.3c0.5-0.1,1.1-0.4,1.6-0.7c0.5-0.4,1-0.7,1.4-1.2
					H7.9z"/>
				<path class="st1" d="M17.3,130c0.6,0.6,0.9,1.3,0.9,2.1c0,0.6-0.1,1.1-0.4,1.5s-0.8,0.8-1.4,1l0,0c0.6,0.1,1.1,0.5,1.5,1
					s0.7,1.2,0.7,1.9c0,1-0.4,1.8-1.1,2.4c-0.7,0.6-1.8,0.9-3.1,0.9s-2.4-0.3-3.1-0.9c-0.7-0.6-1.1-1.4-1.1-2.4
					c0-0.7,0.2-1.4,0.7-1.9c0.4-0.5,0.9-0.8,1.5-1l0,0c-0.6-0.2-1.1-0.5-1.4-1c-0.3-0.4-0.4-0.9-0.4-1.5c0-0.8,0.3-1.5,0.9-2.1
					c0.7-0.6,1.6-0.9,2.8-0.9C15.6,129,16.6,129.3,17.3,130z M12.3,135.9c-0.5,0.4-0.7,1-0.7,1.7s0.2,1.2,0.7,1.6
					c0.5,0.4,1.2,0.7,2.1,0.7s1.6-0.2,2.1-0.7c0.4-0.4,0.7-1,0.7-1.6c0-0.7-0.2-1.2-0.7-1.7s-1.2-0.7-2.1-0.7
					C13.5,135.2,12.8,135.4,12.3,135.9z M12.5,130.7c-0.4,0.4-0.6,0.8-0.6,1.4c0,0.6,0.2,1.1,0.5,1.4c0.4,0.4,1.1,0.6,2,0.6
					s1.5-0.2,2-0.6c0.4-0.4,0.5-0.8,0.5-1.4c0-0.6-0.2-1-0.6-1.4c-0.5-0.4-1.1-0.6-1.9-0.6C13.6,130.1,13,130.3,12.5,130.7z"/>
				<path class="st1" d="M27.1,130.8c0.6,1,0.9,2.4,0.9,4.1c0,1.7-0.3,3.1-0.9,4.1c-0.7,1.2-1.7,1.8-3.1,1.8s-2.4-0.6-3.1-1.8
					c-0.6-1-0.9-2.4-0.9-4.1c0-1.7,0.3-3.1,0.9-4.1c0.7-1.2,1.7-1.8,3.1-1.8S26.4,129.6,27.1,130.8z M21.8,131.8
					c-0.3,0.8-0.5,1.8-0.5,3.2c0,1.3,0.2,2.4,0.5,3.2c0.4,1.1,1.2,1.6,2.2,1.6s1.8-0.6,2.2-1.6c0.3-0.8,0.5-1.8,0.5-3.2
					c0-1.3-0.2-2.4-0.5-3.2c-0.4-1.1-1.2-1.6-2.2-1.6S22.3,130.7,21.8,131.8z"/>
			</g>
			<g class="st0">
				<path class="st1" d="M8.5,97.9c0.7,0.6,1,1.4,1,2.4s-0.4,1.9-1.1,2.7c-0.4,0.4-1.2,1-2.4,1.8c-1.5,1-2.3,1.9-2.5,2.6h6v1.2H1.9
					c0-1,0.4-2,1.1-2.8c0.4-0.5,1.3-1.2,2.5-2c0.9-0.6,1.5-1.1,1.8-1.4c0.6-0.6,0.9-1.3,0.9-2S8,99.2,7.6,98.8s-1-0.6-1.7-0.6
					C5,98.2,4.4,98.4,4,99c-0.4,0.5-0.7,1.3-0.7,2.3H2c0-1.3,0.4-2.3,1.1-3.1C3.8,97.4,4.7,97,5.9,97C6.9,97,7.8,97.3,8.5,97.9z"/>
				<path class="st1" d="M18.5,97.3v1.1l-4.2,10.4h-1.4l4.3-10.2H11v-1.2h7.5V97.3z"/>
				<path class="st1" d="M27.1,98.8c0.6,1,0.9,2.4,0.9,4.1s-0.3,3.1-0.9,4.1c-0.7,1.2-1.7,1.8-3.1,1.8s-2.4-0.6-3.1-1.8
					c-0.6-1-0.9-2.4-0.9-4.1s0.3-3.1,0.9-4.1c0.7-1.2,1.7-1.8,3.1-1.8S26.4,97.6,27.1,98.8z M21.8,99.8c-0.3,0.8-0.5,1.8-0.5,3.2
					c0,1.3,0.2,2.4,0.5,3.2c0.4,1.1,1.2,1.6,2.2,1.6s1.8-0.6,2.2-1.6c0.3-0.8,0.5-1.8,0.5-3.2c0-1.3-0.2-2.4-0.5-3.2
					c-0.4-1.1-1.2-1.6-2.2-1.6S22.3,98.7,21.8,99.8z"/>
			</g>
			<g class="st0">
				<path class="st1" d="M7.4,33.3V41h1.9v1.1H7.4v2.6H6.2v-2.6H0.4v-1.2l5.8-7.6C6.2,33.3,7.4,33.3,7.4,33.3z M1.5,41h4.6v-6l0,0
					L1.5,41z"/>
				<path class="st1" d="M18,33.3v1.2h-5.6L12,38.3h0.1c0.3-0.4,0.7-0.7,1.2-0.9c0.4-0.2,0.9-0.3,1.5-0.3c1.1,0,2,0.3,2.6,1
					c0.7,0.7,1,1.7,1,2.9s-0.4,2.1-1.2,2.8c-0.8,0.7-1.7,1-2.8,1c-1,0-1.9-0.3-2.6-0.8c-0.8-0.6-1.2-1.4-1.3-2.5h1.3
					c0.1,0.7,0.4,1.3,0.9,1.7c0.4,0.3,1,0.5,1.7,0.5c0.8,0,1.5-0.3,2-0.8c0.5-0.5,0.8-1.2,0.8-2c0-0.9-0.3-1.6-0.7-2.1
					c-0.5-0.5-1.1-0.8-2-0.8c-0.5,0-1,0.1-1.5,0.4c-0.4,0.2-0.8,0.6-1,1h-1.2l0.6-6.3H18V33.3z"/>
				<path class="st1" d="M27.1,34.8c0.6,1,0.9,2.4,0.9,4.1c0,1.7-0.3,3.1-0.9,4.1c-0.7,1.2-1.7,1.8-3.1,1.8s-2.4-0.6-3.1-1.8
					c-0.6-1-0.9-2.4-0.9-4.1c0-1.7,0.3-3.1,0.9-4.1c0.7-1.2,1.7-1.8,3.1-1.8S26.4,33.6,27.1,34.8z M21.8,35.8
					c-0.3,0.8-0.5,1.8-0.5,3.2c0,1.3,0.2,2.4,0.5,3.2c0.4,1.1,1.2,1.6,2.2,1.6s1.8-0.6,2.2-1.6c0.3-0.8,0.5-1.8,0.5-3.2
					c0-1.3-0.2-2.4-0.5-3.2c-0.4-1.1-1.2-1.6-2.2-1.6S22.3,34.7,21.8,35.8z"/>
			</g>
			<g class="st0">
				<path class="st1" d="M7.6,65.9c0.7,0.6,1,1.3,1,2.3c0,1.3-0.6,2.1-1.9,2.6c0.7,0.2,1.2,0.5,1.5,1c0.4,0.4,0.6,1,0.6,1.7
					c0,1-0.4,1.9-1.1,2.5C7,76.7,6,77,4.8,77c-1.1,0-2-0.3-2.7-0.8c-0.8-0.7-1.3-1.6-1.4-2.9H2c0,0.9,0.3,1.6,0.9,2
					c0.5,0.4,1.1,0.6,1.8,0.6c0.8,0,1.5-0.2,2-0.7c0.4-0.4,0.7-1,0.7-1.7s-0.2-1.2-0.7-1.6c-0.4-0.4-1.1-0.6-1.9-0.6H4.1v-1H5
					c0.8,0,1.3-0.2,1.7-0.5c0.4-0.4,0.6-0.8,0.6-1.5c0-0.6-0.2-1.1-0.6-1.5s-1-0.6-1.7-0.6c-0.8,0-1.4,0.2-1.8,0.6s-0.7,1-0.8,1.8
					H1.1c0.1-1.1,0.5-2,1.2-2.6C3,65.3,3.9,65,5,65S6.9,65.3,7.6,65.9z"/>
				<path class="st1" d="M18.3,68.1H17c-0.3-1.3-1-2-2.4-2c-0.9,0-1.6,0.4-2.1,1.3c-0.5,0.8-0.8,1.9-0.8,3.2c0,0.1,0,0.2,0,0.4h0.1
					c0.3-0.6,0.7-1.1,1.2-1.4s1.1-0.5,1.8-0.5c1.1,0,2,0.4,2.6,1.1c0.7,0.7,1,1.6,1,2.7S18,75,17.3,75.7c-0.7,0.7-1.6,1.1-2.8,1.1
					c-1.4,0-2.4-0.5-3.1-1.6c-0.7-1-1-2.3-1-4.1c0-1.8,0.4-3.3,1.1-4.4c0.8-1.2,1.8-1.8,3.1-1.8C16.7,65,17.9,66,18.3,68.1z
					 M12.7,71.1c-0.5,0.5-0.7,1.2-0.7,2s0.2,1.5,0.7,2s1.1,0.8,1.9,0.8c0.8,0,1.4-0.3,1.9-0.8c0.5-0.5,0.7-1.2,0.7-2
					s-0.2-1.5-0.7-1.9c-0.5-0.5-1.1-0.8-1.9-0.8C13.8,70.3,13.2,70.6,12.7,71.1z"/>
				<path class="st1" d="M27.1,66.8c0.6,1,0.9,2.4,0.9,4.1S27.7,74,27.1,75c-0.7,1.2-1.7,1.8-3.1,1.8s-2.4-0.6-3.1-1.8
					c-0.6-1-0.9-2.4-0.9-4.1s0.3-3.1,0.9-4.1c0.7-1.2,1.7-1.8,3.1-1.8S26.4,65.6,27.1,66.8z M21.8,67.8c-0.3,0.8-0.5,1.8-0.5,3.2
					c0,1.3,0.2,2.4,0.5,3.2c0.4,1.1,1.2,1.6,2.2,1.6s1.8-0.6,2.2-1.6c0.3-0.8,0.5-1.8,0.5-3.2c0-1.3-0.2-2.4-0.5-3.2
					c-0.4-1.1-1.2-1.6-2.2-1.6S22.3,66.7,21.8,67.8z"/>
			</g>
			<g class="st0">
				<path class="st1" d="M8.4,1.3v1.2H2.8L2.4,6.3h0.1c0.3-0.4,0.7-0.7,1.2-0.9c0.4-0.2,0.9-0.3,1.5-0.3c1.1,0,2,0.3,2.6,1
					c0.7,0.7,1,1.7,1,2.9s-0.4,2.1-1.2,2.8s-1.7,1-2.8,1c-1,0-1.9-0.3-2.6-0.8c-0.8-0.5-1.3-1.3-1.3-2.4h1.3c0,0.7,0.3,1.3,0.8,1.7
					c0.4,0.3,1,0.5,1.7,0.5c0.8,0,1.5-0.3,2-0.8s0.8-1.2,0.8-2c0-0.9-0.3-1.6-0.7-2.1c-0.5-0.5-1.1-0.8-2-0.8c-0.5,0-1,0.1-1.5,0.4
					c-0.4,0.2-0.8,0.6-1,1H1.1l0.6-6.3h6.7V1.3z"/>
				<path class="st1" d="M17,1.3V9h1.9v1.1H17v2.6h-1.2v-2.6H10V8.8l5.8-7.6L17,1.3L17,1.3z M11.1,9h4.6V3l0,0L11.1,9z"/>
				<path class="st1" d="M27.1,2.8c0.6,1,0.9,2.4,0.9,4.1S27.7,10,27.1,11c-0.7,1.2-1.7,1.8-3.1,1.8s-2.4-0.6-3.1-1.8
					C20.4,10.1,20,8.7,20,7s0.3-3.1,0.9-4.1C21.6,1.6,22.7,1,24,1C25.4,1,26.4,1.6,27.1,2.8z M21.8,3.8c-0.3,0.8-0.5,1.8-0.5,3.2
					c0,1.3,0.2,2.4,0.5,3.2c0.5,1,1.2,1.6,2.2,1.6s1.8-0.6,2.2-1.6c0.3-0.8,0.5-1.8,0.5-3.2c0-1.3-0.2-2.4-0.5-3.2
					C25.8,2.7,25,2.2,24,2.2S22.3,2.7,21.8,3.8z"/>
			</g>
			<g class="st0">
				<path class="st2" d="M612.1,50.3l-1.2,0.3l-0.2-0.8c-1.3,0.4-2.6,0.7-3.7,0.8l-0.4-1.2c0.2-0.1,0.4-0.2,0.6-0.4
					c0.4-0.5,1-1.3,1.7-2.5c-0.7,0.1-1.3,0.2-2,0.3l-0.4-1.2c0.2-0.1,0.4-0.3,0.6-0.5c0.7-1.3,1.2-2.7,1.7-4.3l1.4,0.5
					c-0.7,1.7-1.3,3.1-2,4.1c0.5-0.1,0.9-0.1,1.4-0.2c0.3-0.6,0.6-1.2,1-1.9l1.3,0.5c-1.3,2.5-2.4,4.3-3.3,5.4
					c0.6-0.1,1.2-0.3,1.9-0.4c-0.1-0.4-0.2-0.9-0.4-1.3l1.1-0.4C611.6,48,611.9,49.1,612.1,50.3z M608.4,51.5
					c-0.1,1.4-0.2,2.7-0.4,3.8l-1.3-0.4c0.3-1,0.4-2.2,0.5-3.6L608.4,51.5z M610.4,54.5l-1.3,0.3c-0.1-1.2-0.2-2.4-0.3-3.3l1.1-0.2
					C610.2,52.2,610.3,53.3,610.4,54.5z M612.2,53c0.2-0.7,0.4-1.4,0.5-2.2l1.2,0.3c-0.3,1.5-0.7,2.8-1.1,4l-1.2-0.7
					c0.1-0.4,0.3-0.7,0.4-1.1l-1,0.5c-0.2-1-0.4-1.9-0.7-2.6l1.1-0.4C611.8,51.5,612.1,52.2,612.2,53z M615.2,42
					c0.2-0.4,0.4-0.8,0.4-1.2l1.5,0.2c-0.1,0.4-0.3,0.7-0.4,1h4v7.4h-3.8c0.7,0.9,1.2,1.8,1.6,2.4l-1.1,0.7
					c-0.4-0.8-0.9-1.6-1.5-2.5l1-0.6h-4.2V42H615.2z M619.3,43.2H614v5h1.7l-0.6-0.8c0.6-0.4,1.1-0.8,1.6-1.2
					c-0.2-0.2-0.4-0.3-0.6-0.5c-0.5,0.4-0.9,0.8-1.5,1.1L614,46c0.4-0.3,0.9-0.6,1.2-0.9c-0.3-0.2-0.6-0.4-0.9-0.6l0.7-0.8
					c0.4,0.2,0.7,0.5,1,0.7c0.3-0.3,0.6-0.7,0.9-1l0.8,0.7c-0.3,0.4-0.6,0.7-0.8,1c0.2,0.2,0.4,0.3,0.6,0.5c0.4-0.4,0.7-0.8,1-1.2
					l0.7,0.7c-0.3,0.4-0.6,0.8-1,1.2c0.3,0.3,0.6,0.6,0.9,0.9l-0.7,0.9c-0.3-0.4-0.6-0.7-0.9-1c-0.5,0.5-1.1,0.9-1.6,1.3h3.6v-5.2
					H619.3z M615.7,55.3c-0.9,0-1.3-0.5-1.3-1.4v-3.2h1.4v3c0,0.2,0.1,0.4,0.4,0.4h1.3c0.2,0,0.4-0.1,0.4-0.2
					c0.1-0.1,0.2-0.6,0.2-1.3l1.3,0.4c-0.1,1.2-0.3,1.8-0.6,2.1c-0.3,0.2-0.6,0.3-1.2,0.3L615.7,55.3L615.7,55.3z M621.5,53.8
					l-1.2,0.5c-0.4-1.3-0.9-2.5-1.4-3.5l1.2-0.4C620.6,51.5,621.1,52.6,621.5,53.8z"/>
				<path class="st2" d="M628.4,45.6h0.6v2.7h-0.7v6c0,0.8-0.4,1.2-1.3,1.2h-1.1l-0.3-1.2c0.4,0,0.7,0,1,0s0.4-0.2,0.4-0.5v-1.1
					c-0.6,0.2-1.2,0.4-1.8,0.6l-0.3-0.9c-0.1,1.3-0.4,2.3-1,3.2l-1-0.9c0.5-0.8,0.8-1.7,0.8-2.9v-3.5h-0.8v-2.7h0.6v-4.3h4.9
					L628.4,45.6L628.4,45.6z M627.7,47.7v-1h-3.6v1H627.7z M625.4,45.6v-2.1h1.7v-1h-2.4v3.1H625.4z M626.9,51.5v-2.7h-2v0.8
					c0.6,0.1,1.2,0.3,1.8,0.5l-0.4,1c-0.5-0.2-0.9-0.3-1.4-0.4v0.9c0,0.2,0,0.3,0,0.4C625.7,51.9,626.3,51.7,626.9,51.5z
					 M627.2,45.6v-1.1h-0.8v1.1H627.2z M636.5,49.5v3.2h-1l-0.3,1.1h2.1v1.3h-8.5v-1.3h2.3l-0.4-1.1h-0.9v-3.2H636.5z M637.2,47.6
					v1.2h-8.1v-1.2H637.2z M631.4,41.9v-1.1h1.3v1.1h1v-1.1h1.3v1.1h1.9v5h-7.3v-5H631.4z M631.7,44v-1h-1v1H631.7z M631.7,44.9h-1
					v1h1V44.9z M635.2,50.5h-4.1v1.1h4.1V50.5z M633.9,53.8l0.3-1.1h-2.1l0.4,1.1H633.9z M632.7,44h1v-1h-1V44z M633.7,44.9h-1v1h1
					V44.9z M634.7,44h1v-1h-1V44z M635.7,44.9h-1v1h1V44.9z"/>
				<path class="st2" d="M640.5,51.6c-0.1,1.4-0.3,2.6-0.5,3.7l-1.4-0.4c0.3-1,0.5-2.1,0.6-3.4L640.5,51.6z M644.6,50.4l-1.2,0.3
					c-0.1-0.3-0.1-0.6-0.2-0.8c-1.5,0.5-2.8,0.8-4.1,0.9l-0.4-1.3c0.3-0.1,0.5-0.2,0.6-0.4c0.5-0.5,1.1-1.3,1.8-2.5
					c-0.7,0.1-1.4,0.2-2.1,0.3l-0.4-1.3c0.2-0.1,0.4-0.3,0.6-0.5c0.7-1.3,1.3-2.7,1.8-4.3l1.4,0.5c-0.7,1.7-1.4,3.2-2.1,4.2
					c0.5-0.1,1.1-0.2,1.6-0.3c0.4-0.7,0.7-1.4,1.1-2.2l1.4,0.5c-1.5,2.6-2.7,4.5-3.6,5.7c0.7-0.1,1.4-0.3,2.1-0.5
					c-0.1-0.4-0.3-0.8-0.4-1.2l1.2-0.4C644,48.1,644.3,49.2,644.6,50.4z M642.8,54.5l-1.3,0.3c-0.1-1.2-0.3-2.3-0.4-3.2l1.2-0.3
					C642.4,52.3,642.6,53.3,642.8,54.5z M644.7,53.6l-1.2,0.3c-0.2-0.9-0.4-1.8-0.6-2.6l1.2-0.4C644.3,51.7,644.5,52.6,644.7,53.6z
					 M647.3,43.5c-0.4,1-0.9,1.8-1.4,2.5c0.5,0.6,1,1.4,1.5,2.4l-1.2,0.7c-0.5-1.2-1.1-2.2-1.8-3.1c0.6-1,1.2-2,1.6-3L647.3,43.5z
					 M645.3,50.9v-1.4h7.6v1.4h-3.1v3h3.6v1.4h-8.8v-1.4h3.7v-3H645.3z M653.2,41.3v1.4H645v-1.4H653.2z M650.2,43.6
					c-0.4,1-0.9,1.8-1.3,2.4c0.5,0.6,1,1.4,1.5,2.4l-1.2,0.7c-0.5-1.2-1.1-2.2-1.8-3c0.6-1,1.2-2,1.6-3L650.2,43.6z M653.2,43.6
					c-0.4,1-0.9,1.8-1.4,2.4c0.5,0.6,1,1.4,1.5,2.4l-1.2,0.7c-0.5-1.2-1.1-2.2-1.8-3c0.6-1,1.2-2,1.6-3L653.2,43.6z"/>
				<path class="st2" d="M658.3,47l-1,1c-0.6-0.7-1.4-1.5-2.4-2.3l1-1C656.8,45.5,657.6,46.3,658.3,47z M658.8,49.7
					c-0.7,2-1.5,3.9-2.4,5.7l-1.4-0.6c1-1.8,1.8-3.7,2.5-5.6L658.8,49.7z M658.7,43.2l-1,1c-0.6-0.7-1.4-1.4-2.5-2.2l1-1
					C657.1,41.7,658,42.4,658.7,43.2z M658.8,43.1v-1.2h4.5c-0.1-0.3-0.3-0.6-0.4-0.9l1.4-0.2c0.2,0.3,0.3,0.7,0.5,1.1h4.4v1.2h-3.9
					l0.8,0.5c-0.1,0.2-0.3,0.4-0.4,0.6c1.1-0.2,2.1-0.5,2.8-1l0.6,1c-0.3,0.2-0.5,0.3-0.8,0.4c0.2,1.1,0.7,2.1,1.2,2.9l-0.8,1.1
					c-0.2-0.3-0.3-0.6-0.5-0.9c-0.7,0.3-1.6,0.5-2.7,0.8l-0.4-1.1c0.4-0.2,0.6-0.4,0.6-0.7v-2.5c-0.4,0.5-0.7,0.9-1.1,1.3v3.2h-1.2
					v-3.3c-0.3-0.4-0.5-0.8-0.9-1.2c0,2-0.1,3.2-0.3,3.7s-0.5,0.7-1,0.7h-0.7l-0.3-1h0.7c0.2,0,0.4-0.2,0.4-0.5s0.1-1.1,0.1-2.2
					h-0.6c-0.1,0.9-0.3,1.6-0.5,2.1c-0.3,0.6-0.7,1.2-1.3,1.7l-0.7-0.9c0.5-0.4,0.8-0.8,1.1-1.3c0.2-0.4,0.4-0.9,0.4-1.6h-1.1V44
					h3.5l-0.3-0.3l0.6-0.6C662.5,43.1,658.8,43.1,658.8,43.1z M666.5,48.8h1.4v6.8h-1.4v-2.7h-5.4c-0.3,1.1-0.9,2-1.7,2.7l-1.1-1
					c1.2-0.8,1.8-2.1,1.8-3.9v-1.8h1.3v0.7h5.1L666.5,48.8L666.5,48.8z M661.4,51.8h5.2v-1h-5.1C661.4,51.1,661.4,51.5,661.4,51.8z
					 M665,43.1h-2.2c0.4,0.5,0.8,1,1.1,1.5C664.4,44.1,664.8,43.6,665,43.1z M666.7,45.1v2.1c0.4-0.1,0.8-0.3,1-0.4
					c-0.2-0.6-0.4-1.2-0.5-1.8C667.1,45,666.9,45.1,666.7,45.1z"/>
				<path class="st2" d="M684.6,55.5h-1.5v-0.6h-10.2v0.6h-1.5V41.4h13.3L684.6,55.5L684.6,55.5z M683.1,53.5V42.8h-10.2v10.6
					L683.1,53.5L683.1,53.5z M677.3,45.6c0.1-0.7,0.1-1.4,0.1-2.1h1.5c0,0.7,0,1.4-0.1,2.1h3.6V47h-3.8c-0.1,0.3-0.1,0.6-0.2,0.8
					c1.6,1.3,3,2.5,4.1,3.8l-1.1,1.1c-0.9-1.2-2-2.4-3.4-3.6c-0.7,1.4-1.9,2.7-3.7,3.6l-0.9-1.1c1.7-1,2.9-2.2,3.4-3.6
					c0.1-0.3,0.2-0.7,0.3-1.1h-3.4v-1.4L677.3,45.6L677.3,45.6z"/>
				<path class="st2" d="M693.6,47.5v-2c1.3-0.7,2.5-1.6,3.6-2.6h-8.6v-1.4h10.6v1.4c-1.2,1.2-2.6,2.3-4.2,3.4v1.3h6V49h-6v4.9
					c0,1-0.5,1.6-1.6,1.6h-2.8l-0.4-1.5c0.8,0,1.7,0,2.6,0c0.4,0,0.7-0.2,0.7-0.6V49H687v-1.5H693.6z"/>
			</g>
			<g class="st0">
				<path class="st3" d="M612.1,23.3l-1.2,0.3l-0.2-0.8c-1.3,0.4-2.6,0.7-3.7,0.8l-0.4-1.2c0.2-0.1,0.4-0.2,0.6-0.4
					c0.4-0.5,1-1.3,1.7-2.5c-0.7,0.1-1.3,0.2-2,0.3l-0.4-1.2c0.2-0.1,0.4-0.3,0.6-0.5c0.7-1.3,1.2-2.7,1.7-4.3l1.4,0.5
					c-0.7,1.7-1.3,3.1-2,4.1c0.5-0.1,0.9-0.1,1.4-0.2c0.3-0.6,0.6-1.2,1-1.9l1.3,0.5c-1.3,2.5-2.4,4.3-3.3,5.4
					c0.6-0.1,1.2-0.3,1.9-0.4c-0.1-0.4-0.2-0.9-0.4-1.3l1.1-0.4C611.6,21,611.9,22.1,612.1,23.3z M608.4,24.5
					c-0.1,1.4-0.2,2.7-0.4,3.8l-1.3-0.4c0.3-1,0.4-2.2,0.5-3.6L608.4,24.5z M610.4,27.5l-1.3,0.3c-0.1-1.2-0.2-2.4-0.3-3.3l1.1-0.2
					C610.2,25.2,610.3,26.3,610.4,27.5z M612.2,26c0.2-0.7,0.4-1.4,0.5-2.2l1.2,0.3c-0.3,1.5-0.7,2.8-1.1,4l-1.2-0.7
					c0.1-0.4,0.3-0.7,0.4-1.1l-1,0.5c-0.2-1-0.4-1.9-0.7-2.6l1.1-0.4C611.8,24.5,612.1,25.2,612.2,26z M615.2,15
					c0.2-0.4,0.4-0.8,0.4-1.2l1.5,0.2c-0.1,0.4-0.3,0.7-0.4,1h4v7.4h-3.8c0.7,0.9,1.2,1.8,1.6,2.4l-1.1,0.7
					c-0.4-0.8-0.9-1.6-1.5-2.5l1-0.6h-4.2V15H615.2z M619.3,16.2H614v5h1.7l-0.6-0.8c0.6-0.4,1.1-0.8,1.6-1.2
					c-0.2-0.2-0.4-0.3-0.6-0.5c-0.5,0.4-0.9,0.8-1.5,1.1L614,19c0.4-0.3,0.9-0.6,1.2-0.9c-0.3-0.2-0.6-0.4-0.9-0.6l0.7-0.8
					c0.4,0.2,0.7,0.5,1,0.7c0.3-0.3,0.6-0.7,0.9-1l0.8,0.7c-0.3,0.4-0.6,0.7-0.8,1c0.2,0.2,0.4,0.3,0.6,0.5c0.4-0.4,0.7-0.8,1-1.2
					l0.7,0.7c-0.3,0.4-0.6,0.8-1,1.2c0.3,0.3,0.6,0.6,0.9,0.9l-0.7,0.9c-0.3-0.4-0.6-0.7-0.9-1c-0.5,0.5-1.1,0.9-1.6,1.3h3.6v-5.2
					H619.3z M615.7,28.3c-0.9,0-1.3-0.5-1.3-1.4v-3.2h1.4v3c0,0.2,0.1,0.4,0.4,0.4h1.3c0.2,0,0.4-0.1,0.4-0.2
					c0.1-0.1,0.2-0.6,0.2-1.3l1.3,0.4c-0.1,1.2-0.3,1.8-0.6,2.1c-0.3,0.2-0.6,0.3-1.2,0.3L615.7,28.3L615.7,28.3z M621.5,26.8
					l-1.2,0.5c-0.4-1.3-0.9-2.5-1.4-3.5l1.2-0.4C620.6,24.5,621.1,25.6,621.5,26.8z"/>
				<path class="st3" d="M628.4,18.6h0.6v2.7h-0.7v6c0,0.8-0.4,1.2-1.3,1.2h-1.1l-0.3-1.2c0.4,0,0.7,0,1,0s0.4-0.2,0.4-0.5v-1.1
					c-0.6,0.2-1.2,0.4-1.8,0.6l-0.3-0.9c-0.1,1.3-0.4,2.3-1,3.2l-1-0.9c0.5-0.8,0.8-1.7,0.8-2.9v-3.5h-0.8v-2.7h0.6v-4.3h4.9
					L628.4,18.6L628.4,18.6z M627.7,20.7v-1h-3.6v1H627.7z M625.4,18.6v-2.1h1.7v-1h-2.4v3.1H625.4z M626.9,24.5v-2.7h-2v0.8
					c0.6,0.1,1.2,0.3,1.8,0.5l-0.4,1c-0.5-0.2-0.9-0.3-1.4-0.4v0.9c0,0.2,0,0.3,0,0.4C625.7,24.9,626.3,24.7,626.9,24.5z
					 M627.2,18.6v-1.1h-0.8v1.1H627.2z M636.5,22.5v3.2h-1l-0.3,1.1h2.1v1.3h-8.5v-1.3h2.3l-0.4-1.1h-0.9v-3.2H636.5z M637.2,20.6
					v1.2h-8.1v-1.2H637.2z M631.4,14.9v-1.1h1.3v1.1h1v-1.1h1.3v1.1h1.9v5h-7.3v-5H631.4z M631.7,17v-1h-1v1H631.7z M631.7,17.9h-1
					v1h1V17.9z M635.2,23.5h-4.1v1.1h4.1V23.5z M633.9,26.8l0.3-1.1h-2.1l0.4,1.1H633.9z M632.7,17h1v-1h-1V17z M633.7,17.9h-1v1h1
					V17.9z M634.7,17h1v-1h-1V17z M635.7,17.9h-1v1h1V17.9z"/>
				<path class="st3" d="M640.5,24.6c-0.1,1.4-0.3,2.6-0.5,3.7l-1.4-0.4c0.3-1,0.5-2.1,0.6-3.4L640.5,24.6z M644.6,23.4l-1.2,0.3
					c-0.1-0.3-0.1-0.6-0.2-0.8c-1.5,0.5-2.8,0.8-4.1,0.9l-0.4-1.3c0.3-0.1,0.5-0.2,0.6-0.4c0.5-0.5,1.1-1.3,1.8-2.5
					c-0.7,0.1-1.4,0.2-2.1,0.3l-0.4-1.3c0.2-0.1,0.4-0.3,0.6-0.5c0.7-1.3,1.3-2.7,1.8-4.3l1.4,0.5c-0.7,1.7-1.4,3.2-2.1,4.2
					c0.5-0.1,1.1-0.2,1.6-0.3c0.4-0.7,0.7-1.4,1.1-2.2l1.4,0.5c-1.5,2.6-2.7,4.5-3.6,5.7c0.7-0.1,1.4-0.3,2.1-0.5
					c-0.1-0.4-0.3-0.8-0.4-1.2l1.2-0.4C644,21.1,644.3,22.2,644.6,23.4z M642.8,27.5l-1.3,0.3c-0.1-1.2-0.3-2.3-0.4-3.2l1.2-0.3
					C642.4,25.3,642.6,26.3,642.8,27.5z M644.7,26.6l-1.2,0.3c-0.2-0.9-0.4-1.8-0.6-2.6l1.2-0.4C644.3,24.7,644.5,25.6,644.7,26.6z
					 M647.3,16.5c-0.4,1-0.9,1.8-1.4,2.5c0.5,0.6,1,1.4,1.5,2.4l-1.2,0.7c-0.5-1.2-1.1-2.2-1.8-3.1c0.6-1,1.2-2,1.6-3L647.3,16.5z
					 M645.3,23.9v-1.4h7.6v1.4h-3.1v3h3.6v1.4h-8.8v-1.4h3.7v-3H645.3z M653.2,14.3v1.4H645v-1.4H653.2z M650.2,16.6
					c-0.4,1-0.9,1.8-1.3,2.4c0.5,0.6,1,1.4,1.5,2.4l-1.2,0.7c-0.5-1.2-1.1-2.2-1.8-3c0.6-1,1.2-2,1.6-3L650.2,16.6z M653.2,16.6
					c-0.4,1-0.9,1.8-1.4,2.4c0.5,0.6,1,1.4,1.5,2.4l-1.2,0.7c-0.5-1.2-1.1-2.2-1.8-3c0.6-1,1.2-2,1.6-3L653.2,16.6z"/>
				<path class="st3" d="M658.3,20l-1,1c-0.6-0.7-1.4-1.5-2.4-2.3l1-1C656.8,18.5,657.6,19.3,658.3,20z M658.8,22.7
					c-0.7,2-1.5,3.9-2.4,5.7l-1.4-0.6c1-1.8,1.8-3.7,2.5-5.6L658.8,22.7z M658.7,16.2l-1,1c-0.6-0.7-1.4-1.4-2.5-2.2l1-1
					C657.1,14.7,658,15.4,658.7,16.2z M658.8,16.1v-1.2h4.5c-0.1-0.3-0.3-0.6-0.4-0.9l1.4-0.2c0.2,0.3,0.3,0.7,0.5,1.1h4.4v1.2h-3.9
					l0.8,0.5c-0.1,0.2-0.3,0.4-0.4,0.6c1.1-0.2,2.1-0.5,2.8-1l0.6,1c-0.3,0.2-0.5,0.3-0.8,0.4c0.2,1.1,0.7,2.1,1.2,2.9l-0.8,1.1
					c-0.2-0.3-0.3-0.6-0.5-0.9c-0.7,0.3-1.6,0.5-2.7,0.8l-0.4-1.1c0.4-0.2,0.6-0.4,0.6-0.7v-2.5c-0.4,0.5-0.7,0.9-1.1,1.3v3.2h-1.2
					v-3.3c-0.3-0.4-0.5-0.8-0.9-1.2c0,2-0.1,3.2-0.3,3.7s-0.5,0.7-1,0.7h-0.7l-0.3-1h0.7c0.2,0,0.4-0.2,0.4-0.5s0.1-1.1,0.1-2.2
					h-0.6c-0.1,0.9-0.3,1.6-0.5,2.1c-0.3,0.6-0.7,1.2-1.3,1.7l-0.7-0.9c0.5-0.4,0.8-0.8,1.1-1.3c0.2-0.4,0.4-0.9,0.4-1.6h-1.1V17
					h3.5l-0.3-0.3l0.6-0.6C662.5,16.1,658.8,16.1,658.8,16.1z M666.5,21.8h1.4v6.8h-1.4v-2.7h-5.4c-0.3,1.1-0.9,2-1.7,2.7l-1.1-1
					c1.2-0.8,1.8-2.1,1.8-3.9v-1.8h1.3v0.7h5.1L666.5,21.8L666.5,21.8z M661.4,24.8h5.2v-1h-5.1C661.4,24.1,661.4,24.5,661.4,24.8z
					 M665,16.1h-2.2c0.4,0.5,0.8,1,1.1,1.5C664.4,17.1,664.8,16.6,665,16.1z M666.7,18.1v2.1c0.4-0.1,0.8-0.3,1-0.4
					c-0.2-0.6-0.4-1.2-0.5-1.8C667.1,18,666.9,18.1,666.7,18.1z"/>
				<path class="st3" d="M684.6,28.5h-1.5v-0.6h-10.2v0.6h-1.5V14.4h13.3L684.6,28.5L684.6,28.5z M683.1,26.5V15.8h-10.2v10.6
					L683.1,26.5L683.1,26.5z M677.3,18.6c0.1-0.7,0.1-1.4,0.1-2.1h1.5c0,0.7,0,1.4-0.1,2.1h3.6V20h-3.8c-0.1,0.3-0.1,0.6-0.2,0.8
					c1.6,1.3,3,2.5,4.1,3.8l-1.1,1.1c-0.9-1.2-2-2.4-3.4-3.6c-0.7,1.4-1.9,2.7-3.7,3.6l-0.9-1.1c1.7-1,2.9-2.2,3.4-3.6
					c0.1-0.3,0.2-0.7,0.3-1.1h-3.4v-1.4h3.6V18.6z"/>
				<path class="st3" d="M693.6,20.5v-2c1.3-0.7,2.5-1.6,3.6-2.6h-8.6v-1.4h10.6v1.4c-1.2,1.2-2.6,2.3-4.2,3.4v1.3h6V22h-6v4.9
					c0,1-0.5,1.6-1.6,1.6h-2.8l-0.4-1.5c0.8,0,1.7,0,2.6,0c0.4,0,0.7-0.2,0.7-0.6V22H687v-1.5H693.6z"/>
				<path class="st3" d="M707.6,18.7V22h3.3v1.4h-3.3v3.3h-1.4v-3.3h-3.3V22h3.3v-3.3H707.6z"/>
				<path class="st3" d="M721,15.5V17h-6.5v3.3h6.1v1.5h-6.1v3.6h6.7v1.5h-8.5V15.5H721z"/>
				<path class="st3" d="M730.2,16.1c0.8,0.6,1.2,1.5,1.4,2.8h-1.7c-0.2-0.7-0.4-1.3-0.9-1.6c-0.4-0.3-1.1-0.5-2-0.5
					c-0.8,0-1.3,0.1-1.7,0.3c-0.5,0.3-0.7,0.7-0.7,1.2s0.3,0.9,0.8,1.2c0.3,0.1,0.9,0.4,2,0.7c1.5,0.5,2.5,0.8,3,1.1
					c1,0.6,1.5,1.4,1.5,2.5c0,1-0.4,1.8-1.2,2.4s-1.9,0.9-3.4,0.9c-1.4,0-2.5-0.3-3.3-0.8c-0.9-0.7-1.5-1.7-1.6-3.2h1.7
					c0.1,0.9,0.4,1.6,1,1.9c0.5,0.4,1.2,0.5,2.1,0.5c0.9,0,1.6-0.2,2.1-0.4c0.5-0.3,0.8-0.7,0.8-1.2c0-0.6-0.4-1.1-1.1-1.5
					c-0.3-0.1-1-0.4-2.3-0.8c-1.4-0.4-2.3-0.8-2.6-0.9c-0.9-0.5-1.3-1.3-1.3-2.3s0.4-1.8,1.3-2.4c0.8-0.5,1.8-0.8,3-0.8
					C728.4,15.3,729.4,15.5,730.2,16.1z"/>
				<path class="st3" d="M741.8,16.3c0.8,0.6,1.3,1.6,1.5,2.9h-1.8c-0.2-0.8-0.5-1.3-1.1-1.7c-0.5-0.4-1.3-0.6-2.2-0.6
					c-1.1,0-2,0.4-2.6,1.1c-0.7,0.8-1,1.9-1,3.3s0.3,2.4,0.9,3.2c0.7,0.8,1.7,1.2,3.2,1.2c0.6,0,1.1-0.1,1.6-0.2s0.9-0.3,1.3-0.6
					v-2.5h-3.2v-1.5h4.9v4.8c-0.6,0.5-1.3,0.8-2.1,1.1c-0.8,0.3-1.7,0.4-2.7,0.4c-1.8,0-3.2-0.6-4.2-1.7c-0.9-1.1-1.4-2.5-1.4-4.2
					s0.5-3.1,1.4-4.2c1-1.2,2.3-1.8,4-1.8C739.8,15.3,741,15.6,741.8,16.3z"/>
				<path class="st3" d="M759,28.5h-1.5v-0.6h-10.2v0.6h-1.5V14.4H759V28.5z M757.5,26.5V15.8h-10.2v10.6L757.5,26.5L757.5,26.5z
					 M751.7,18.6c0.1-0.7,0.1-1.4,0.1-2.1h1.5c0,0.7,0,1.4-0.1,2.1h3.6V20H753c-0.1,0.3-0.1,0.6-0.2,0.8c1.6,1.3,3,2.5,4.1,3.8
					l-1.1,1.1c-0.9-1.2-2-2.4-3.4-3.6c-0.7,1.4-1.9,2.7-3.7,3.6l-0.9-1.1c1.7-1,2.9-2.2,3.4-3.6c0.1-0.3,0.2-0.7,0.3-1.1H748v-1.4
					h3.7V18.6z"/>
				<path class="st3" d="M767.9,20.5v-2c1.3-0.7,2.5-1.6,3.6-2.6H763v-1.4h10.6v1.4c-1.2,1.2-2.6,2.3-4.2,3.4v1.3h6V22h-6v4.9
					c0,1-0.5,1.6-1.6,1.6H765l-0.4-1.5c0.8,0,1.7,0,2.6,0c0.4,0,0.7-0.2,0.7-0.6V22h-6.6v-1.5H767.9z"/>
			</g>
			<g class="st0">
				<path class="st4" d="M609.9,70.3v-0.7h-3v-1.2h3v-0.7h1.3v0.7h2.9v1.2h-2.9v0.7h2.5v3h-2.5v0.1c0.9,0.3,1.8,0.7,2.8,1.2
					l-0.8,1.1c-0.8-0.6-1.4-1-2-1.4v1.5h-1.3v-1.6c-0.9,0.7-1.8,1.3-2.7,1.7l-0.6-1.2c1.1-0.3,2.1-0.8,3.2-1.5h-2.4v-3h2.5V70.3z
					 M620.4,76.3v1.3h-5.7v1h4.8v1.3h-4.8v1h6.5v1.4h-14.3v-1.4h2.4v-2.8h1.4v2.8h2.4v-3.3h-5.5v-1.3H620.4z M609.9,71.3h-1.3v0.9
					h1.3V71.3z M612.5,71.3h-1.3v0.9h1.3V71.3z M615.3,72c-0.2,0.3-0.4,0.5-0.6,0.8l-0.9-1.1c1-1.1,1.6-2.3,2-3.9l1.4,0.2
					c-0.1,0.4-0.2,0.7-0.3,1.1h4.2v1.3h-0.8c-0.2,1.4-0.7,2.5-1.4,3.4c0.7,0.4,1.6,0.8,2.5,1l-0.8,1.2c-1.1-0.3-2-0.8-2.8-1.3
					c-0.8,0.5-1.8,0.9-2.9,1.2l-0.5-1.2c0.9-0.3,1.7-0.6,2.4-0.9C616,73.2,615.6,72.6,615.3,72z M615.3,72l1.1-0.6
					c0.3,0.6,0.7,1.1,1.2,1.6l0,0c0.6-0.6,1-1.5,1.2-2.6h-2.5C616,70.9,615.6,71.4,615.3,72z"/>
				<path class="st4" d="M628.4,72.6h0.6v2.7h-0.7v6c0,0.8-0.4,1.2-1.3,1.2h-1.1l-0.3-1.2c0.4,0,0.7,0,1,0s0.4-0.2,0.4-0.5v-1.1
					c-0.6,0.2-1.2,0.4-1.8,0.6l-0.3-0.9c-0.1,1.3-0.4,2.3-1,3.2l-1-0.9c0.5-0.8,0.8-1.7,0.8-2.9v-3.5h-0.8v-2.7h0.6v-4.3h4.9
					L628.4,72.6L628.4,72.6z M627.7,74.7v-1h-3.6v1H627.7z M625.4,72.6v-2.1h1.7v-1h-2.4v3.1H625.4z M626.9,78.5v-2.7h-2v0.8
					c0.6,0.1,1.2,0.3,1.8,0.5l-0.4,1c-0.5-0.2-0.9-0.3-1.4-0.4v0.9c0,0.2,0,0.3,0,0.4C625.7,78.9,626.3,78.7,626.9,78.5z
					 M627.2,72.6v-1.1h-0.8v1.1H627.2z M636.5,76.5v3.2h-1l-0.3,1.1h2.1v1.3h-8.5v-1.3h2.3l-0.4-1.1h-0.9v-3.2H636.5z M637.2,74.6
					v1.2h-8.1v-1.2H637.2z M631.4,68.9v-1.1h1.3v1.1h1v-1.1h1.3v1.1h1.9v5h-7.3v-5H631.4z M631.7,71v-1h-1v1H631.7z M631.7,71.9h-1
					v1h1V71.9z M635.2,77.5h-4.1v1.1h4.1V77.5z M633.9,80.8l0.3-1.1h-2.1l0.4,1.1H633.9z M632.7,71h1v-1h-1V71z M633.7,71.9h-1v1h1
					V71.9z M634.7,71h1v-1h-1V71z M635.7,71.9h-1v1h1V71.9z"/>
				<path class="st4" d="M645.2,69.5c-0.2-0.6-0.5-1.1-0.8-1.6l1.6-0.3c0.2,0.6,0.5,1.2,0.7,1.9h6.4V71h-6.4v1.7h5.2v5.9
					c0,1-0.5,1.6-1.6,1.6h-1.6l-0.4-1.4l1.5,0.1c0.4,0,0.6-0.2,0.6-0.5v-4.1h-3.7v8.4h-1.5v-8.4h-3.5v6.1h-1.5v-7.6h5V71h-6.4v-1.5
					H645.2z"/>
				<path class="st4" d="M656.4,71.9v-4.1h1.5v4.1h1.6v1.5h-1.6v4.9c0.5-0.2,1-0.4,1.6-0.7v1.5c-1.4,0.6-2.9,1.2-4.5,1.6l-0.4-1.5
					c0.6-0.1,1.3-0.3,1.9-0.4v-5.4h-1.7v-1.5H656.4z M669.4,74v1.3h-6c-0.1,0.2-0.3,0.5-0.4,0.7h6c0,1.6-0.1,2.8-0.2,3.8
					c-0.1,1-0.3,1.6-0.6,2s-0.8,0.6-1.4,0.6h-1.4L665,81c0.4,0,0.7,0.1,1,0.1c0.6,0,0.9-0.2,1.1-0.7c0.2-0.5,0.3-1.6,0.4-3.2h-0.6
					c-1.1,2.7-2.8,4.4-5.2,5.2l-0.8-1.2c2.1-0.7,3.7-2,4.7-4h-1c-0.8,1.4-2.1,2.5-3.9,3.3l-0.9-1.1c1.5-0.6,2.6-1.3,3.3-2.2h-1.2
					c-0.4,0.4-0.9,0.8-1.5,1.1l-0.8-1.1c1-0.6,1.8-1.2,2.4-1.9h-2.1V74H669.4z M668.3,68.3v5h-7.6v-5H668.3z M666.9,70.3v-0.8h-4.8
					v0.8H666.9z M666.9,71.4h-4.8v0.8h4.8V71.4z"/>
				<path class="st4" d="M674.8,69.5l-0.2,2.9l2.7-1.1l0.5,1.4l-2.8,0.8l1.9,2.2l-1.1,0.9l-1.7-2.4l-1.7,2.4l-1.1-0.9l1.9-2.2
					l-2.8-0.8l0.5-1.4l2.7,1.1l-0.2-2.9H674.8z"/>
			</g>
			<g id="Group" transform="translate(27.000000, 185.000000)">
				<g class="st0">
					<path class="st1" d="M7.6,3.2c0.7,0.6,1,1.4,1,2.4S8.2,7.5,7.5,8.3c-0.4,0.4-1.2,1-2.4,1.8c-1.5,1-2.3,1.9-2.5,2.6h6v1.2H1
						c0-1,0.4-2,1.1-2.8c0.4-0.5,1.3-1.2,2.5-2C5.5,8.4,6.1,8,6.4,7.6C7,7,7.3,6.3,7.3,5.6S7.1,4.4,6.7,4C6.3,3.6,5.7,3.4,5,3.4
						c-0.8,0-1.4,0.3-1.8,0.8C2.7,4.7,2.4,5.5,2.4,6.5H1.1c0-1.3,0.4-2.3,1.1-3.1C2.9,2.7,3.8,2.3,5,2.3C6,2.3,6.9,2.6,7.6,3.2z"/>
					<path class="st1" d="M18.5,4.1c0.6,1,0.9,2.4,0.9,4.1s-0.3,3.1-0.9,4.1c-0.7,1.2-1.7,1.8-3.1,1.8s-2.4-0.6-3.1-1.8
						c-0.6-1-0.9-2.4-0.9-4.1s0.3-3.1,0.9-4.1C13,2.9,14,2.3,15.4,2.3C16.8,2.3,17.8,2.9,18.5,4.1z M13.2,5
						c-0.3,0.8-0.5,1.8-0.5,3.2c0,1.3,0.2,2.4,0.5,3.2c0.4,1.1,1.2,1.6,2.2,1.6s1.8-0.6,2.2-1.6c0.3-0.8,0.5-1.8,0.5-3.2
						c0-1.3-0.2-2.4-0.5-3.2c-0.4-1.1-1.2-1.6-2.2-1.6S13.7,3.9,13.2,5z"/>
					<path class="st1" d="M29.2,4.1c0.6,1,0.9,2.4,0.9,4.1s-0.3,3.1-0.9,4.1c-0.7,1.2-1.7,1.8-3.1,1.8s-2.4-0.6-3.1-1.8
						c-0.6-1-0.9-2.4-0.9-4.1s0.3-3.1,0.9-4.1c0.7-1.2,1.7-1.8,3.1-1.8C27.5,2.3,28.5,2.9,29.2,4.1z M23.9,5
						c-0.3,0.8-0.5,1.8-0.5,3.2c0,1.3,0.2,2.4,0.5,3.2c0.4,1.1,1.2,1.6,2.2,1.6s1.8-0.6,2.2-1.6c0.3-0.8,0.5-1.8,0.5-3.2
						c0-1.3-0.2-2.4-0.5-3.2c-0.4-1.1-1.2-1.6-2.2-1.6S24.4,3.9,23.9,5z"/>
					<path class="st1" d="M39.9,4.1c0.6,1,0.9,2.4,0.9,4.1s-0.3,3.1-0.9,4.1c-0.7,1.2-1.7,1.8-3.1,1.8c-1.4,0-2.4-0.6-3.1-1.8
						c-0.6-1-0.9-2.4-0.9-4.1s0.3-3.1,0.9-4.1c0.7-1.2,1.7-1.8,3.1-1.8C38.1,2.3,39.2,2.9,39.9,4.1z M34.6,5
						c-0.3,0.8-0.5,1.8-0.5,3.2c0,1.3,0.2,2.4,0.5,3.2c0.4,1.1,1.2,1.6,2.2,1.6s1.8-0.6,2.2-1.6c0.3-0.8,0.5-1.8,0.5-3.2
						c0-1.3-0.2-2.4-0.5-3.2c-0.4-1.1-1.2-1.6-2.2-1.6S35,3.9,34.6,5z"/>
					<path class="st1" d="M50,0.8l-5.7,14.7h-1.2l5.7-14.7C48.8,0.8,50,0.8,50,0.8z"/>
					<path class="st1" d="M59.3,3.1c0.7,0.6,1,1.3,1,2.3c0,1.3-0.6,2.1-1.9,2.6c0.7,0.2,1.2,0.5,1.5,1c0.4,0.4,0.6,1,0.6,1.7
						c0,1-0.4,1.9-1.1,2.5c-0.7,0.7-1.7,1-2.9,1c-1.1,0-2-0.3-2.7-0.8c-0.8-0.7-1.3-1.6-1.4-2.9h1.3c0,0.9,0.3,1.6,0.9,2
						c0.5,0.4,1.1,0.6,1.8,0.6c0.8,0,1.5-0.2,2-0.7c0.4-0.4,0.7-1,0.7-1.7s-0.2-1.2-0.7-1.6c-0.4-0.4-1.1-0.6-1.9-0.6h-0.9v-1h0.9
						c0.8,0,1.3-0.2,1.7-0.5c0.4-0.4,0.6-0.8,0.6-1.5c0-0.6-0.2-1.1-0.6-1.5c-0.4-0.4-1-0.6-1.7-0.6c-0.8,0-1.4,0.2-1.8,0.6
						c-0.4,0.4-0.7,1-0.8,1.8h-1.3c0.1-1.1,0.5-2,1.2-2.6s1.6-0.9,2.6-0.9S58.6,2.5,59.3,3.1z"/>
				</g>
				<g class="st0">
					<path class="st1" d="M107.6,3.2c0.7,0.6,1,1.4,1,2.4s-0.4,1.9-1.1,2.7c-0.4,0.4-1.2,1-2.4,1.8c-1.5,1-2.3,1.9-2.5,2.6h6v1.2
						H101c0-1,0.4-2,1.1-2.8c0.4-0.5,1.3-1.2,2.5-2c0.9-0.6,1.5-1.1,1.8-1.4c0.6-0.6,0.9-1.3,0.9-2s-0.2-1.2-0.6-1.6s-1-0.6-1.7-0.6
						c-0.8,0-1.4,0.3-1.8,0.8s-0.7,1.3-0.7,2.3h-1.3c0-1.3,0.4-2.3,1.1-3.1s1.6-1.2,2.8-1.2C106,2.3,106.9,2.6,107.6,3.2z"/>
					<path class="st1" d="M118.5,4.1c0.6,1,0.9,2.4,0.9,4.1s-0.3,3.1-0.9,4.1c-0.7,1.2-1.7,1.8-3.1,1.8s-2.4-0.6-3.1-1.8
						c-0.6-1-0.9-2.4-0.9-4.1s0.3-3.1,0.9-4.1c0.7-1.2,1.7-1.8,3.1-1.8C116.8,2.3,117.8,2.9,118.5,4.1z M113.2,5
						c-0.3,0.8-0.5,1.8-0.5,3.2c0,1.3,0.2,2.4,0.5,3.2c0.4,1.1,1.2,1.6,2.2,1.6s1.8-0.6,2.2-1.6c0.3-0.8,0.5-1.8,0.5-3.2
						c0-1.3-0.2-2.4-0.5-3.2c-0.4-1.1-1.2-1.6-2.2-1.6S113.7,3.9,113.2,5z"/>
					<path class="st1" d="M129.2,4.1c0.6,1,0.9,2.4,0.9,4.1s-0.3,3.1-0.9,4.1c-0.7,1.2-1.7,1.8-3.1,1.8s-2.4-0.6-3.1-1.8
						c-0.6-1-0.9-2.4-0.9-4.1s0.3-3.1,0.9-4.1c0.7-1.2,1.7-1.8,3.1-1.8C127.5,2.3,128.5,2.9,129.2,4.1z M123.9,5
						c-0.3,0.8-0.5,1.8-0.5,3.2c0,1.3,0.2,2.4,0.5,3.2c0.4,1.1,1.2,1.6,2.2,1.6s1.8-0.6,2.2-1.6c0.3-0.8,0.5-1.8,0.5-3.2
						c0-1.3-0.2-2.4-0.5-3.2c-0.4-1.1-1.2-1.6-2.2-1.6S124.4,3.9,123.9,5z"/>
					<path class="st1" d="M139.5,3.1c0.7,0.6,1,1.3,1,2.3c0,1.3-0.6,2.1-1.9,2.6c0.7,0.2,1.2,0.5,1.5,1c0.4,0.4,0.6,1,0.6,1.7
						c0,1-0.4,1.9-1.1,2.5c-0.7,0.7-1.7,1-2.9,1c-1.1,0-2-0.3-2.7-0.8c-0.8-0.7-1.3-1.6-1.4-2.9h1.3c0,0.9,0.3,1.6,0.9,2
						c0.5,0.4,1.1,0.6,1.8,0.6c0.8,0,1.5-0.2,2-0.7c0.4-0.4,0.7-1,0.7-1.7s-0.2-1.2-0.7-1.6c-0.4-0.4-1.1-0.6-1.9-0.6H136v-1h0.9
						c0.8,0,1.3-0.2,1.7-0.5c0.4-0.4,0.6-0.8,0.6-1.5c0-0.6-0.2-1.1-0.6-1.5c-0.4-0.4-1-0.6-1.7-0.6c-0.8,0-1.4,0.2-1.8,0.6
						c-0.4,0.4-0.7,1-0.8,1.8H133c0.1-1.1,0.5-2,1.2-2.6s1.6-0.9,2.6-0.9S138.9,2.5,139.5,3.1z"/>
					<path class="st1" d="M150,0.8l-5.7,14.7h-1.2l5.7-14.7C148.8,0.8,150,0.8,150,0.8z"/>
					<path class="st1" d="M159.3,3.1c0.7,0.6,1,1.3,1,2.3c0,1.3-0.6,2.1-1.9,2.6c0.7,0.2,1.2,0.5,1.5,1c0.4,0.4,0.6,1,0.6,1.7
						c0,1-0.4,1.9-1.1,2.5c-0.7,0.7-1.7,1-2.9,1c-1.1,0-2-0.3-2.7-0.8c-0.8-0.7-1.3-1.6-1.4-2.9h1.3c0,0.9,0.3,1.6,0.9,2
						c0.5,0.4,1.1,0.6,1.8,0.6c0.8,0,1.5-0.2,2-0.7c0.4-0.4,0.7-1,0.7-1.7s-0.2-1.2-0.7-1.6c-0.4-0.4-1.1-0.6-1.9-0.6h-0.9v-1h0.9
						c0.8,0,1.3-0.2,1.7-0.5c0.4-0.4,0.6-0.8,0.6-1.5c0-0.6-0.2-1.1-0.6-1.5c-0.4-0.4-1-0.6-1.7-0.6c-0.8,0-1.4,0.2-1.8,0.6
						c-0.4,0.4-0.7,1-0.8,1.8h-1.3c0.1-1.1,0.5-2,1.2-2.6s1.6-0.9,2.6-0.9S158.6,2.5,159.3,3.1z"/>
				</g>
				<g class="st0">
					<path class="st1" d="M207.6,3.2c0.7,0.6,1,1.4,1,2.4s-0.4,1.9-1.1,2.7c-0.4,0.4-1.2,1-2.4,1.8c-1.5,1-2.3,1.9-2.5,2.6h6v1.2
						H201c0-1,0.4-2,1.1-2.8c0.4-0.5,1.3-1.2,2.5-2c0.9-0.6,1.5-1.1,1.8-1.4c0.6-0.6,0.9-1.3,0.9-2s-0.2-1.2-0.6-1.6s-1-0.6-1.7-0.6
						c-0.8,0-1.4,0.3-1.8,0.8c-0.4,0.5-0.7,1.3-0.7,2.3h-1.3c0-1.3,0.4-2.3,1.1-3.1c0.7-0.8,1.6-1.2,2.8-1.2
						C206,2.3,206.9,2.6,207.6,3.2z"/>
					<path class="st1" d="M218.5,4.1c0.6,1,0.9,2.4,0.9,4.1s-0.3,3.1-0.9,4.1c-0.7,1.2-1.7,1.8-3.1,1.8c-1.4,0-2.4-0.6-3.1-1.8
						c-0.6-1-0.9-2.4-0.9-4.1s0.3-3.1,0.9-4.1c0.7-1.2,1.7-1.8,3.1-1.8C216.8,2.3,217.8,2.9,218.5,4.1z M213.2,5
						c-0.3,0.8-0.5,1.8-0.5,3.2c0,1.3,0.2,2.4,0.5,3.2c0.4,1.1,1.2,1.6,2.2,1.6s1.8-0.6,2.2-1.6c0.3-0.8,0.5-1.8,0.5-3.2
						c0-1.3-0.2-2.4-0.5-3.2c-0.4-1.1-1.2-1.6-2.2-1.6S213.7,3.9,213.2,5z"/>
					<path class="st1" d="M229.2,4.1c0.6,1,0.9,2.4,0.9,4.1s-0.3,3.1-0.9,4.1c-0.7,1.2-1.7,1.8-3.1,1.8c-1.4,0-2.4-0.6-3.1-1.8
						c-0.6-1-0.9-2.4-0.9-4.1s0.3-3.1,0.9-4.1c0.7-1.2,1.7-1.8,3.1-1.8C227.5,2.3,228.5,2.9,229.2,4.1z M223.9,5
						c-0.3,0.8-0.5,1.8-0.5,3.2c0,1.3,0.2,2.4,0.5,3.2c0.4,1.1,1.2,1.6,2.2,1.6s1.8-0.6,2.2-1.6c0.3-0.8,0.5-1.8,0.5-3.2
						c0-1.3-0.2-2.4-0.5-3.2c-0.4-1.1-1.2-1.6-2.2-1.6S224.4,3.9,223.9,5z"/>
					<path class="st1" d="M240.6,5.3h-1.3c-0.3-1.3-1-2-2.4-2c-0.9,0-1.6,0.4-2.1,1.3c-0.5,0.8-0.8,1.9-0.8,3.2c0,0.1,0,0.2,0,0.4
						h0.1c0.3-0.6,0.7-1.1,1.2-1.4s1.1-0.5,1.8-0.5c1.1,0,2,0.4,2.6,1.1c0.7,0.7,1,1.6,1,2.7s-0.4,2.1-1.1,2.8
						c-0.7,0.7-1.6,1.1-2.8,1.1c-1.4,0-2.4-0.5-3.1-1.6c-0.7-1-1-2.3-1-4.1s0.4-3.3,1.1-4.5c0.8-1.2,1.8-1.8,3.1-1.8
						C239,2.3,240.3,3.3,240.6,5.3z M235,8.3c-0.5,0.5-0.7,1.2-0.7,2s0.2,1.5,0.7,2s1.1,0.8,1.9,0.8c0.8,0,1.4-0.3,1.9-0.8
						s0.7-1.2,0.7-2s-0.2-1.5-0.7-1.9c-0.5-0.5-1.1-0.8-1.9-0.8C236.1,7.5,235.5,7.8,235,8.3z"/>
					<path class="st1" d="M250,0.8l-5.7,14.7h-1.2l5.7-14.7C248.8,0.8,250,0.8,250,0.8z"/>
					<path class="st1" d="M259.3,3.1c0.7,0.6,1,1.3,1,2.3c0,1.3-0.6,2.1-1.9,2.6c0.7,0.2,1.2,0.5,1.5,1c0.4,0.4,0.6,1,0.6,1.7
						c0,1-0.4,1.9-1.1,2.5c-0.7,0.7-1.7,1-2.9,1c-1.1,0-2-0.3-2.7-0.8c-0.8-0.7-1.3-1.6-1.4-2.9h1.3c0,0.9,0.3,1.6,0.9,2
						c0.5,0.4,1.1,0.6,1.8,0.6c0.8,0,1.5-0.2,2-0.7c0.4-0.4,0.7-1,0.7-1.7s-0.2-1.2-0.7-1.6c-0.4-0.4-1.1-0.6-1.9-0.6h-0.9v-1h0.9
						c0.8,0,1.3-0.2,1.7-0.5c0.4-0.4,0.6-0.8,0.6-1.5c0-0.6-0.2-1.1-0.6-1.5s-1-0.6-1.7-0.6c-0.8,0-1.4,0.2-1.8,0.6
						c-0.4,0.4-0.7,1-0.8,1.8h-1.3c0.1-1.1,0.5-2,1.2-2.6s1.6-0.9,2.6-0.9S258.6,2.5,259.3,3.1z"/>
				</g>
				<g class="st0">
					<path class="st1" d="M307.6,3.2c0.7,0.6,1,1.4,1,2.4s-0.4,1.9-1.1,2.7c-0.4,0.4-1.2,1-2.4,1.8c-1.5,1-2.3,1.9-2.5,2.6h6v1.2
						H301c0-1,0.4-2,1.1-2.8c0.4-0.5,1.3-1.2,2.5-2c0.9-0.6,1.5-1.1,1.8-1.4c0.6-0.6,0.9-1.3,0.9-2s-0.2-1.2-0.6-1.6s-1-0.6-1.7-0.6
						c-0.8,0-1.4,0.3-1.8,0.8s-0.7,1.3-0.7,2.3h-1.3c0-1.3,0.4-2.3,1.1-3.1s1.6-1.2,2.8-1.2C306,2.3,306.9,2.6,307.6,3.2z"/>
					<path class="st1" d="M318.5,4.1c0.6,1,0.9,2.4,0.9,4.1s-0.3,3.1-0.9,4.1c-0.7,1.2-1.7,1.8-3.1,1.8s-2.4-0.6-3.1-1.8
						c-0.6-1-0.9-2.4-0.9-4.1s0.3-3.1,0.9-4.1c0.7-1.2,1.7-1.8,3.1-1.8C316.8,2.3,317.8,2.9,318.5,4.1z M313.2,5
						c-0.3,0.8-0.5,1.8-0.5,3.2c0,1.3,0.2,2.4,0.5,3.2c0.4,1.1,1.2,1.6,2.2,1.6s1.8-0.6,2.2-1.6c0.3-0.8,0.5-1.8,0.5-3.2
						c0-1.3-0.2-2.4-0.5-3.2c-0.4-1.1-1.2-1.6-2.2-1.6S313.7,3.9,313.2,5z"/>
					<path class="st1" d="M329.2,4.1c0.6,1,0.9,2.4,0.9,4.1s-0.3,3.1-0.9,4.1c-0.7,1.2-1.7,1.8-3.1,1.8s-2.4-0.6-3.1-1.8
						c-0.6-1-0.9-2.4-0.9-4.1s0.3-3.1,0.9-4.1c0.7-1.2,1.7-1.8,3.1-1.8C327.5,2.3,328.5,2.9,329.2,4.1z M323.9,5
						c-0.3,0.8-0.5,1.8-0.5,3.2c0,1.3,0.2,2.4,0.5,3.2c0.4,1.1,1.2,1.6,2.2,1.6s1.8-0.6,2.2-1.6c0.3-0.8,0.5-1.8,0.5-3.2
						c0-1.3-0.2-2.4-0.5-3.2c-0.4-1.1-1.2-1.6-2.2-1.6S324.4,3.9,323.9,5z"/>
					<path class="st1" d="M339.8,3.8c0.7,1,1,2.3,1,4.1s-0.4,3.3-1.1,4.5c-0.8,1.2-1.8,1.8-3.1,1.8c-2.1,0-3.3-1-3.6-3.1h1.3
						c0.2,1.3,1,2,2.4,2c0.9,0,1.6-0.4,2.1-1.3c0.5-0.8,0.8-1.9,0.8-3.2c0-0.1,0-0.2,0-0.4h-0.1c-0.3,0.6-0.7,1-1.2,1.4
						c-0.5,0.3-1.1,0.5-1.8,0.5c-1.1,0-2-0.4-2.7-1.1c-0.7-0.7-1-1.6-1-2.7s0.4-2.1,1.1-2.8c0.7-0.8,1.6-1.1,2.8-1.1
						C338,2.3,339.1,2.8,339.8,3.8z M334.8,4.2c-0.5,0.5-0.7,1.2-0.7,2s0.2,1.5,0.7,1.9c0.5,0.5,1.1,0.8,1.9,0.8
						c0.7,0,1.4-0.3,1.9-0.8s0.7-1.2,0.7-2s-0.2-1.5-0.7-2s-1.1-0.8-1.9-0.8C335.9,3.4,335.3,3.6,334.8,4.2z"/>
					<path class="st1" d="M350,0.8l-5.7,14.7h-1.2l5.7-14.7C348.8,0.8,350,0.8,350,0.8z"/>
					<path class="st1" d="M359.3,3.1c0.7,0.6,1,1.3,1,2.3c0,1.3-0.6,2.1-1.9,2.6c0.7,0.2,1.2,0.5,1.5,1c0.4,0.4,0.6,1,0.6,1.7
						c0,1-0.4,1.9-1.1,2.5c-0.7,0.7-1.7,1-2.9,1c-1.1,0-2-0.3-2.7-0.8c-0.8-0.7-1.3-1.6-1.4-2.9h1.3c0,0.9,0.3,1.6,0.9,2
						c0.5,0.4,1.1,0.6,1.8,0.6c0.8,0,1.5-0.2,2-0.7c0.4-0.4,0.7-1,0.7-1.7s-0.2-1.2-0.7-1.6c-0.4-0.4-1.1-0.6-1.9-0.6h-0.9v-1h0.9
						c0.8,0,1.3-0.2,1.7-0.5c0.4-0.4,0.6-0.8,0.6-1.5c0-0.6-0.2-1.1-0.6-1.5s-1-0.6-1.7-0.6c-0.8,0-1.4,0.2-1.8,0.6s-0.7,1-0.8,1.8
						h-1.3c0.1-1.1,0.5-2,1.2-2.6s1.6-0.9,2.6-0.9S358.6,2.5,359.3,3.1z"/>
				</g>
				<g class="st0">
					<path class="st1" d="M407.6,3.2c0.7,0.6,1,1.4,1,2.4s-0.4,1.9-1.1,2.7c-0.4,0.4-1.2,1-2.4,1.8c-1.5,1-2.3,1.9-2.5,2.6h6v1.2
						H401c0-1,0.4-2,1.1-2.8c0.4-0.5,1.3-1.2,2.5-2c0.9-0.6,1.5-1.1,1.8-1.4c0.6-0.6,0.9-1.3,0.9-2s-0.2-1.2-0.6-1.6s-1-0.6-1.7-0.6
						c-0.8,0-1.4,0.3-1.8,0.8s-0.7,1.3-0.7,2.3h-1.3c0-1.3,0.4-2.3,1.1-3.1s1.6-1.2,2.8-1.2C406,2.3,406.9,2.6,407.6,3.2z"/>
					<path class="st1" d="M418.5,4.1c0.6,1,0.9,2.4,0.9,4.1s-0.3,3.1-0.9,4.1c-0.7,1.2-1.7,1.8-3.1,1.8s-2.4-0.6-3.1-1.8
						c-0.6-1-0.9-2.4-0.9-4.1s0.3-3.1,0.9-4.1c0.7-1.2,1.7-1.8,3.1-1.8C416.8,2.3,417.8,2.9,418.5,4.1z M413.2,5
						c-0.3,0.8-0.5,1.8-0.5,3.2c0,1.3,0.2,2.4,0.5,3.2c0.4,1.1,1.2,1.6,2.2,1.6s1.8-0.6,2.2-1.6c0.3-0.8,0.5-1.8,0.5-3.2
						c0-1.3-0.2-2.4-0.5-3.2c-0.4-1.1-1.2-1.6-2.2-1.6C414.4,3.4,413.7,3.9,413.2,5z"/>
					<path class="st1" d="M426,2.5v11.4h-1.3V4.1c-0.7,0.7-1.6,1.2-2.7,1.6V4.3c0.5-0.1,1.1-0.4,1.6-0.7c0.5-0.4,1-0.7,1.4-1.2h1
						V2.5z"/>
					<path class="st1" d="M436.4,3.2c0.7,0.6,1,1.4,1,2.4s-0.4,1.9-1.1,2.7c-0.4,0.4-1.2,1-2.4,1.8c-1.5,1-2.3,1.9-2.5,2.6h6v1.2
						h-7.6c0-1,0.4-2,1.1-2.8c0.4-0.5,1.3-1.2,2.5-2c0.9-0.6,1.5-1.1,1.8-1.4c0.6-0.6,0.9-1.3,0.9-2s-0.2-1.2-0.6-1.6
						s-1-0.6-1.7-0.6c-0.8,0-1.4,0.3-1.8,0.8s-0.7,1.3-0.7,2.3H430c0-1.3,0.4-2.3,1.1-3.1s1.6-1.2,2.8-1.2
						C434.8,2.3,435.7,2.6,436.4,3.2z"/>
					<path class="st1" d="M446.9,0.8l-5.7,14.7H440l5.7-14.7C445.7,0.8,446.9,0.8,446.9,0.8z"/>
					<path class="st1" d="M456.1,3.1c0.7,0.6,1,1.3,1,2.3c0,1.3-0.6,2.1-1.9,2.6c0.7,0.2,1.2,0.5,1.5,1c0.4,0.4,0.6,1,0.6,1.7
						c0,1-0.4,1.9-1.1,2.5c-0.7,0.7-1.7,1-2.9,1c-1.1,0-2-0.3-2.7-0.8c-0.8-0.7-1.3-1.6-1.4-2.9h1.3c0,0.9,0.3,1.6,0.9,2
						c0.5,0.4,1.1,0.6,1.8,0.6c0.8,0,1.5-0.2,2-0.7c0.4-0.4,0.7-1,0.7-1.7s-0.2-1.2-0.7-1.6c-0.4-0.4-1.1-0.6-1.9-0.6h-0.9v-1h0.9
						c0.8,0,1.3-0.2,1.7-0.5c0.4-0.4,0.6-0.8,0.6-1.5c0-0.6-0.2-1.1-0.6-1.5s-1-0.6-1.7-0.6c-0.8,0-1.4,0.2-1.8,0.6s-0.7,1-0.8,1.8
						h-1.3c0.1-1.1,0.5-2,1.2-2.6s1.6-0.9,2.6-0.9S455.4,2.5,456.1,3.1z"/>
				</g>
				<g class="st0">
					<path class="st1" d="M507.6,3.2c0.7,0.6,1,1.4,1,2.4s-0.4,1.9-1.1,2.7c-0.4,0.4-1.2,1-2.4,1.8c-1.5,1-2.3,1.9-2.5,2.6h6v1.2
						H501c0-1,0.4-2,1.1-2.8c0.4-0.5,1.3-1.2,2.5-2c0.9-0.6,1.5-1.1,1.8-1.4c0.6-0.6,0.9-1.3,0.9-2s-0.2-1.2-0.6-1.6s-1-0.6-1.7-0.6
						c-0.8,0-1.4,0.3-1.8,0.8s-0.7,1.3-0.7,2.3h-1.3c0-1.3,0.4-2.3,1.1-3.1s1.6-1.2,2.8-1.2C506,2.3,506.9,2.6,507.6,3.2z"/>
					<path class="st1" d="M518.5,4.1c0.6,1,0.9,2.4,0.9,4.1s-0.3,3.1-0.9,4.1c-0.7,1.2-1.7,1.8-3.1,1.8c-1.4,0-2.4-0.6-3.1-1.8
						c-0.6-1-0.9-2.4-0.9-4.1s0.3-3.1,0.9-4.1c0.7-1.2,1.7-1.8,3.1-1.8C516.8,2.3,517.8,2.9,518.5,4.1z M513.2,5
						c-0.3,0.8-0.5,1.8-0.5,3.2c0,1.3,0.2,2.4,0.5,3.2c0.4,1.1,1.2,1.6,2.2,1.6s1.8-0.6,2.2-1.6c0.3-0.8,0.5-1.8,0.5-3.2
						c0-1.3-0.2-2.4-0.5-3.2c-0.4-1.1-1.2-1.6-2.2-1.6C514.4,3.4,513.7,3.9,513.2,5z"/>
					<path class="st1" d="M526,2.5v11.4h-1.3V4.1c-0.7,0.7-1.6,1.2-2.7,1.6V4.3c0.5-0.1,1.1-0.4,1.6-0.7c0.5-0.4,1-0.7,1.4-1.2h1
						V2.5z"/>
					<path class="st1" d="M537.1,2.5v1.2h-5.6l-0.4,3.8h0.1c0.3-0.4,0.7-0.7,1.2-0.9c0.4-0.2,0.9-0.3,1.5-0.3c1.1,0,2,0.3,2.6,1
						c0.7,0.7,1,1.7,1,2.9s-0.4,2.1-1.2,2.8c-0.8,0.7-1.7,1-2.8,1c-1,0-1.9-0.3-2.6-0.8c-0.8-0.6-1.2-1.4-1.3-2.5h1.3
						c0.1,0.7,0.4,1.3,0.9,1.7c0.4,0.3,1,0.5,1.7,0.5c0.8,0,1.5-0.3,2-0.8s0.8-1.2,0.8-2c0-0.9-0.3-1.6-0.7-2.1
						c-0.5-0.5-1.1-0.8-2-0.8c-0.5,0-1,0.1-1.5,0.4c-0.4,0.2-0.8,0.6-1,1h-1.2l0.6-6.3h6.6V2.5z"/>
					<path class="st1" d="M546.9,0.8l-5.7,14.7H540l5.7-14.7C545.7,0.8,546.9,0.8,546.9,0.8z"/>
					<path class="st1" d="M556.1,3.1c0.7,0.6,1,1.3,1,2.3c0,1.3-0.6,2.1-1.9,2.6c0.7,0.2,1.2,0.5,1.5,1c0.4,0.4,0.6,1,0.6,1.7
						c0,1-0.4,1.9-1.1,2.5c-0.7,0.7-1.7,1-2.9,1c-1.1,0-2-0.3-2.7-0.8c-0.8-0.7-1.3-1.6-1.4-2.9h1.3c0,0.9,0.3,1.6,0.9,2
						c0.5,0.4,1.1,0.6,1.8,0.6c0.8,0,1.5-0.2,2-0.7c0.4-0.4,0.7-1,0.7-1.7s-0.2-1.2-0.7-1.6c-0.4-0.4-1.1-0.6-1.9-0.6h-0.9v-1h0.9
						c0.8,0,1.3-0.2,1.7-0.5c0.4-0.4,0.6-0.8,0.6-1.5c0-0.6-0.2-1.1-0.6-1.5c-0.4-0.4-1-0.6-1.7-0.6c-0.8,0-1.4,0.2-1.8,0.6
						c-0.4,0.4-0.7,1-0.8,1.8h-1.3c0.1-1.1,0.5-2,1.2-2.6s1.6-0.9,2.6-0.9S555.4,2.5,556.1,3.1z"/>
				</g>
			</g>
			<g id="Group-2" transform="translate(50.000000, 171.000000)">
				<rect id="Rectangle-3-Copy-11" y="-3.1" class="st5" width="556" height="2"/>
				<rect id="Rectangle-5" x="8" y="-3.1" class="st5" width="2" height="6"/>
				<rect id="Rectangle-5-Copy" x="208" y="-3.1" class="st5" width="2" height="6"/>
				<rect id="Rectangle-5-Copy-12" x="408" y="-3.1" class="st5" width="2" height="6"/>
				<rect id="Rectangle-5-Copy-6" x="108" y="-3.1" class="st5" width="2" height="6"/>
				<rect id="Rectangle-5-Copy-7" x="308" y="-3.1" class="st5" width="2" height="6"/>
				<rect id="Rectangle-5-Copy-18" x="508" y="-3.1" class="st5" width="2" height="6"/>
			</g>
			<polyline id="Path-2" class="st6" points="51.3,161.8 64.2,161.8 78.3,160.6 90.9,157.5 111.7,159.7 122,157.5 130.8,159.7 
				141.4,159.7 149.8,153.7 165.6,145.3 191.9,139.6 200.5,142.8 217.2,134.3 226.4,136.8 236.8,130 260.4,126.7 270.4,130 
				278.1,123.9 296.2,118.3 303.6,121.1 316.9,118.3 338.6,118.3 353.7,125.1 365.6,125.1 382.6,109.3 392,108.1 399.3,104.4 
				408.2,104.4 415.5,97.1 427.1,99.5 437.1,99.5 443.4,94.3 452.3,97.1 462.2,89.2 475.7,85.2 488.3,76.7 499.1,75.4 507.4,80.9 
				513.8,85.2 529.4,83.4 539.1,80.9 546.7,72.8 564.4,80.9 571.9,76.7 582.6,75.4 590.4,80.9 600.5,76.7 			"/>
			<polyline id="Path-2_1_" class="st7" points="51.3,161.8 64.2,161.2 78.3,159.3 90.9,155.5 111.7,156.7 122,154 130.8,155.7 
				141.4,155.2 149.8,148.8 165.6,139.6 191.9,132.5 200.5,135.4 217.2,126 226.4,128 236.8,120.7 260.4,116.2 270.4,119 
				278.1,112.5 296.2,106.1 303.6,108.5 316.9,105 338.6,103.9 353.7,110 365.6,109.4 382.6,92.7 392,91 399.3,87 408.2,86.5 
				415.5,78.8 427.1,80.7 437.1,80.2 443.4,74.6 452.3,77 462.2,68.6 475.7,64 488.3,54.8 499.1,53 507.4,58.1 513.8,62 529.4,59.5 
				539.1,56.5 546.7,48 564.4,55.3 571.9,50.6 582.6,48.8 590.4,54 600.5,49.2 			"/>
			<polyline id="Path-2_2_" class="st8" points="51.3,161.8 64.2,160.6 78.3,158 90.9,153.7 111.7,151.3 122,148.2 130.8,145.8 
				141.4,142.3 149.8,136.7 165.6,128 191.9,121 200.5,124.7 217.2,118.2 226.4,119.8 236.8,112 260.4,103.9 270.4,103.8 
				278.1,99.4 295.2,94.6 303.6,96.6 319.9,90.1 338.6,90.4 353.7,97 365.6,94.6 382.6,75.9 392,72.6 399.3,70.6 408.2,69.8 
				415.5,58 427.1,59.4 437.1,62.1 443.4,58.7 452.3,60.6 462.2,53 475.7,47.7 488.3,34.3 499.1,34.5 507.4,41.6 513.8,45.3 
				529.4,40.8 539.1,34.9 546.7,29.7 564.4,27.5 571.9,22.5 582.6,25.1 590.4,26.2 600.5,23.4 			"/>
		</g>
		<g class="st0">
			<path class="st1" d="M5,17.4c-0.6,2.4-1.4,4.5-2.4,6.3l-1.9-1.2c1-1.7,1.8-3.6,2.2-5.6L5,17.4z M1.2,11.7V9.6h2.5
				C3.4,8.7,3,8,2.7,7.2l2-0.7c0.3,0.9,0.7,1.9,1,3.1H8c0.4-1,0.7-2,1-3.1l2,0.7c-0.3,0.9-0.6,1.7-1,2.4h2.5v2.1H8v2.1h4.1v2.1H8
				v8.6H5.7v-8.6H1.5v-2.1h4.2v-2.1H1.2z M5.7,4.1c-0.3-0.6-0.6-1.2-1-1.8L7.1,2C7.4,2.6,7.7,3.3,8,4.1h4.4v2.1h-11V4.1H5.7z
				 M11.9,20.9L10,21.7c-0.4-1.5-0.8-2.9-1.4-4.3l1.9-0.5C11.1,18.3,11.6,19.7,11.9,20.9z M22.6,4.5c-2.1,0.7-4.4,1.1-6.9,1.3v3.9
				h7.4v2.2h-2.3v12.6h-2.2V11.8h-2.9v2.4c-0.1,4.2-1,7.6-2.8,10.1l-1.6-1.7c1.4-2,2.1-4.8,2.2-8.4V3.9c2.9,0,5.6-0.6,7.9-1.5
				L22.6,4.5z"/>
			<path class="st1" d="M41.4,17h2.3l0.1-2.8H42v-1.9h1.8l0.1-2.5h-2V7.9H44l0.1-2.8h-2.3V2.9h4.4l-0.5,14h1.7v2.2h-6.9
				c2.5,0.9,4.7,2,6.8,3.3l-1.3,2c-2.3-1.6-4.7-2.9-7.2-3.8l1-1.5h-14V17h1.8L27.1,3.6c1.3-0.2,2.7-0.7,4-1.4l0.8,1.9
				c-0.6,0.3-1.4,0.6-2.6,1l0.1,2.8h2v1.9h-1.9l0.1,2.4h1.9v1.9h-1.8l0.1,2.8H32V3.1h9.2V17H41.4z M34.5,20.6
				c-1.8,1.4-4.1,2.7-6.9,3.8l-1.4-1.8c2.7-1,4.9-2.1,6.8-3.3L34.5,20.6z M39.5,17V5H34v12H39.5z M38.7,6.2v1.6h-3.9V6.2H38.7z
				 M38.7,9.1v6.7h-3.8V9.1H38.7z M37.2,10.7h-1v3.6h1V10.7z"/>
			<path class="st1" d="M60.2,4.8c-0.4-0.9-0.7-1.7-1.2-2.4L61.5,2c0.4,0.8,0.7,1.8,1,2.8h9.6V7h-9.6v2.6h7.8v8.9
				c0,1.5-0.8,2.3-2.4,2.3h-2.4L65,18.7l2.3,0.1c0.6,0,0.9-0.3,0.9-0.8v-6.2h-5.5v12.6h-2.3V11.8H55V21h-2.2V9.6h7.5V7h-9.6V4.8
				H60.2z"/>
			<path class="st1" d="M77.8,8.4V2.3H80v6.1h2.4v2.2H80V18c0.8-0.3,1.6-0.6,2.3-1v2.2c-2.1,0.9-4.3,1.7-6.7,2.4L75,19.4
				c1-0.2,1.9-0.4,2.8-0.7v-8h-2.6V8.4H77.8z M97.2,11.6v2h-9c-0.2,0.4-0.4,0.7-0.6,1.1h9c0,2.4-0.2,4.3-0.4,5.7
				c-0.2,1.4-0.5,2.4-0.9,3s-1.1,0.9-2,0.9h-2l-0.6-2.1c0.6,0,1.1,0.1,1.6,0.1c0.8,0,1.4-0.4,1.7-1.1c0.3-0.8,0.5-2.4,0.6-4.8h-0.9
				c-1.6,4-4.2,6.6-7.8,7.9l-1.2-1.8c3.2-1.1,5.5-3.1,7-6h-1.6c-1.2,2.1-3.2,3.7-5.9,4.9l-1.3-1.6c2.3-0.9,3.9-2,5-3.3h-1.8
				c-0.6,0.6-1.4,1.1-2.2,1.6l-1.2-1.7c1.6-0.8,2.7-1.8,3.5-2.9h-3.1v-2h14.1V11.6z M95.5,3v7.5H84.2V3H95.5z M93.4,6V4.8h-7.1V6
				H93.4z M93.4,7.6h-7.1v1.2h7.1V7.6z"/>
			<path class="st1" d="M106.6,3.1c-0.4,1.5-1,3-1.7,4.4v17h-2.3V11.4c-0.7,1-1.4,1.9-2.2,2.8l-0.7-2.3c2.2-2.8,3.7-6,4.8-9.7
				L106.6,3.1z M120,11.5V21h-3.5c1.9,0.4,3.8,0.9,5.5,1.6l-0.8,1.8c-2-0.8-4-1.5-6.2-1.9l0.8-1.5h-4.1l1,1.2
				c-1.7,0.9-3.8,1.7-6.3,2.4l-0.9-1.8c2.2-0.4,4-1,5.5-1.7h-3.5v-9.6H120z M115,2.2v1.2h6.1v1.8H115v0.9h5.3v1.8H115v1h6.7v1.8
				h-15.3V8.9h6.4v-1h-5.1V6.1h5.1V5.2h-5.9V3.4h5.9V2.2H115z M118,14.1v-1h-8.2v1H118z M118,16.7v-1h-8.2v1H118z M118,18.3h-8.2v1
				h8.2V18.3z"/>
			<path class="st1" d="M145.9,3.3v2.2h-7.8c-0.4,0.9-0.9,1.8-1.4,2.6v1.1c3.8,2.2,7,4.5,9.8,7.1l-1.6,1.9c-2.2-2.4-5-4.6-8.2-6.6
				v12.8h-2.4v-13c-2.2,2.6-5,4.9-8.4,6.9l-1.5-2c5.3-3,9-6.6,11.1-10.8h-10.3V3.3H145.9z"/>
			<path class="st1" d="M164.7,24.3l-0.6-2.3l3,0.1c0.5,0,0.8-0.3,0.8-1V5.2h-15.1v19.1h-2.3V3h19.7v18.6c0,1.8-0.8,2.7-2.3,2.7
				C167.9,24.3,164.7,24.3,164.7,24.3z M166.4,7.5v2.1h-12.2V7.5H166.4z M165.2,11.8v8h-9.8v-8C155.4,11.8,165.2,11.8,165.2,11.8z
				 M163,13.9h-5.4v4h5.4V13.9z"/>
			<path class="st1" d="M174.9,24.1l-0.5-2.2c0.6,0.1,1.2,0.1,1.8,0.1s0.9-0.3,0.9-0.9V16c-0.9,0.4-1.8,0.7-2.7,1l-0.6-2.3
				c1.1-0.3,2.2-0.6,3.3-1v-5h-2.7V6.5h2.7V2.3h2.3v4.2h2.5v2.2h-2.5v4c0.8-0.4,1.6-0.9,2.4-1.3v2.3c-0.8,0.5-1.6,0.9-2.4,1.3v6.8
				c0,1.6-0.8,2.4-2.4,2.4L174.9,24.1L174.9,24.1z M194.2,12.3v2.1c-0.7,2.1-1.8,4-3.4,5.5c1.5,1,3.4,1.8,5.5,2.5l-1.2,2
				c-2.4-0.9-4.3-2-5.9-3.1c-1.8,1.3-4.1,2.4-6.7,3.2l-1.2-1.9c2.4-0.7,4.4-1.7,6.1-2.8c-1.7-1.6-2.9-3.4-3.5-5.3h-1.3v-2.2
				C182.6,12.3,194.2,12.3,194.2,12.3z M192.7,3.1v5c0,0.5,0.3,0.8,1,0.8h1.8V11h-2.4c-1.8,0-2.6-0.8-2.6-2.4V5.2h-4.1v1.1
				c0,2.3-1.1,4.1-3.3,5.4l-1.5-1.8c1.7-0.8,2.6-1.9,2.6-3.4V3.1H192.7z M188.9,18.6c1.3-1.2,2.3-2.5,3-4.1h-6
				C186.5,16,187.5,17.4,188.9,18.6z"/>
			<path class="st1" d="M214.3,5.9c-0.1,0.3-0.2,0.6-0.3,1c1.7,1.6,3.9,2.5,6.5,2.9l-0.9,1.9c-0.6-0.1-1.3-0.2-1.8-0.4V21H213
				c2.6,0.4,5,1,7.4,1.7l-0.7,1.8c-2.5-0.9-5.2-1.6-8-2.1l0.7-1.4h-5.5l1,1.3c-1.8,0.9-4.3,1.7-7.6,2.2l-1-1.8
				c3.1-0.5,5.4-1.1,7.1-1.8H202v-9.8h5.8l-0.9-1.4c3.2-0.6,5.1-2,5.7-4.2L214.3,5.9z M206.1,7.8v1.9h-6.9V7.8H206.1z M205.6,3.5
				v1.9h-6V3.5H205.6z M215.5,14v-1.1h-11.4V14H215.5z M215.5,16.5v-1.1h-11.4v1.1H215.5z M215.5,18h-11.4v1.2h11.4V18z M207.2,8
				L206,6.3c1.7-1.2,2.8-2.5,3.5-4.2l2.1,0.2c-0.1,0.4-0.3,0.8-0.5,1.1h8.4V5c-0.6,1.3-1.3,2.3-2.1,3.1L215.9,7
				c0.5-0.5,0.9-1,1.2-1.6H210C209.2,6.3,208.3,7.2,207.2,8z M217.5,11.1c-1.7-0.6-3.1-1.5-4.3-2.7c-1,1.2-2.4,2.2-4.4,2.7H217.5z"
				/>
			<path class="st1" d="M225.5,8.4l-2-1.2c1.5-1.6,2.5-3.3,3.2-5.2l2.2,0.5c-0.2,0.6-0.4,1.1-0.6,1.6h5.7v2h-3.5
				c0.5,0.7,0.9,1.4,1.2,2.1l-2.1,0.7c-0.4-1-1-1.9-1.5-2.8h-0.9C226.7,6.9,226.1,7.7,225.5,8.4z M233.3,9.2V7.8h2.1L234.1,7
				c1.1-1.5,1.8-3.2,2.2-4.9l2.2,0.5c-0.1,0.5-0.3,1.1-0.5,1.5h6.9v2h-4.1c0.5,0.7,0.9,1.4,1.2,2.1L240,9c-0.4-1-0.9-1.9-1.5-2.8
				h-1.3c-0.4,0.8-0.8,1.5-1.2,2.1L235.5,8v1.3h9.5v2.1h-9.5v1.4h7.9v4.7c0,1.3-0.7,2-2.2,2h-1.6l-0.6-2l1.6,0.1
				c0.4,0,0.6-0.2,0.6-0.6v-2.2h-5.6v1.9c2.5,2.3,5.9,4,10.1,5.3l-1.2,2.1c-3.4-1.3-6.4-3-8.9-5.2v5.7h-2.3V19
				c-2.4,2.3-5.1,4-8.2,5.3l-1.4-2c3.7-1.3,6.9-3.1,9.5-5.5v-1.9H228v4.6h-2.2v-6.6h7.5v-1.6h-9.5V9.2H233.3z"/>
			<path class="st1" d="M268.6,24.2h-2.2v-0.9h-5.2v0.9H259v-9.1c-0.3,0.1-0.6,0.2-0.8,0.3l-0.9-1.1v7.9h-1.9v-0.9H251v0.9h-2V3.8
				h8.4v4.3c1.4-1.4,2.7-3.4,3.7-5.8l2.3,0.5c-0.2,0.6-0.5,1.1-0.7,1.6h6.3v1.8c-0.8,1.8-1.9,3.4-3.3,4.8c1.4,1,3.1,1.8,5,2.5l-1,2
				c-2.2-1-4-2-5.5-3.2c-1.4,1.1-3.1,2-5,2.8h9.6v9.1H268.6z M250.9,5.9v5.6h1.3V5.9H250.9z M250.9,19.4h1.3v-5.9h-1.3V19.4z
				 M255.3,5.9H254v5.6h1.3V5.9z M255.3,13.5H254v5.9h1.3V13.5z M257.2,13.5c1.9-0.8,3.6-1.7,5-2.7c-0.8-0.8-1.6-1.7-2.1-2.5
				c-0.5,0.7-1.1,1.3-1.6,1.8l-1.2-1.4L257.2,13.5L257.2,13.5z M266.3,21.2v-3.9h-5.2v3.9H266.3z M266.2,6.5h-4.8
				c0,0-0.1,0.1-0.1,0.2c0.6,1.1,1.5,2,2.5,2.9C264.7,8.6,265.5,7.6,266.2,6.5z"/>
			<path class="st1" d="M277.3,16.5c0-0.2,0-0.3,0-0.5v-2.2h2.1V16c0,0.2,0,0.3,0,0.5h2.3c-0.4-0.6-0.9-1.3-1.6-2.1l1.4-0.9
				c0.7,0.8,1.3,1.5,1.7,2.1l-1.3,0.9h1.7v1.9h-4.5l-0.1,0.3c1.7,1.3,3.2,2.6,4.4,3.9L282,24c-0.9-1.2-2-2.3-3.5-3.6
				c-0.8,1.7-2.1,3.1-4,4.1l-1.7-1.5c2.2-1.1,3.5-2.7,4.1-4.7h-3.5v-1.9h3.9V16.5z M277.2,10.6c-0.9,1.3-1.9,2.4-3.1,3.4l-1.2-1.5
				c1.2-0.9,2.1-1.9,3-3L277.2,10.6z M277.7,6.8V2.4h2.1v4.5h3.9v1.8h-3.9v4.6h-2.1V8.7h-4.1V6.8H277.7z M277,5.7l-1.6,0.7
				c-0.5-1.2-1-2.1-1.6-3l1.7-0.6C276.1,3.8,276.6,4.7,277,5.7z M284.3,12.2l-1.2,1.4c-0.9-1.2-1.8-2.2-2.8-3l1.1-1.2
				C282.4,10.2,283.4,11.1,284.3,12.2z M283.4,3.4c-0.4,1.1-1,2-1.5,2.8l-1.4-1c0.5-0.7,1-1.6,1.4-2.6L283.4,3.4z M287.4,19.7
				l1.4,1.2c-1,1.4-2.3,2.6-3.8,3.6l-1.2-1.6c1.4-0.9,2.6-2,3.5-3.2h-2.4v-13h3.3l0.1-1.7H284V3h10.8v2h-4.2l-0.1,1.7h3.7v13h-2.5
				c1.4,1.1,2.5,2.2,3.5,3.2l-1.5,1.4c-0.8-1.1-2-2.2-3.5-3.4l1.3-1.3L287.4,19.7L287.4,19.7z M291.9,10.4V8.6H287v1.8H291.9z
				 M291.9,14v-1.7H287V14H291.9z M291.9,15.8H287v1.8h4.9V15.8z"/>
			<path class="st1" d="M307.6,17.5v-1.8h2.3v1.8h8.1v2.1h-8.1v2.2h9.4v2.1H298v-2.1h9.6v-2.2h-8.2v-2.1H307.6z M310.2,3.2v2H308
				v3.1h2.8v2.1H308v5.1h-2.2v-5.1h-2.7c-0.3,2.4-1.2,4.2-2.6,5.4l-1.7-1.5c1.2-0.9,1.9-2.2,2.1-3.9h-2.7V8.3h2.9V5.2h-2.2v-2H310.2
				z M303.2,8.3h2.6V5.2h-2.6V8.3z M314,3.9v8.2h-2.2V3.9H314z M313,15.7l-0.5-2.1c1,0.1,2,0.1,3,0.1c0.5,0,0.7-0.4,0.7-1.1v-10h2.2
				v10.6c0,1.7-0.7,2.6-2.2,2.6H313V15.7z"/>
			<path class="st1" d="M331.3,22.9h-2.2v-1.2h-3.8v1.9h-2.2V6.2h2.3c0.4-1.3,0.8-2.6,1-4l2.3,0.3c-0.2,1.3-0.6,2.5-1.1,3.7h3.7
				L331.3,22.9L331.3,22.9z M329.1,12.8V8.4h-3.8v4.4H329.1z M329.1,19.5v-4.7h-3.8v4.7H329.1z M343.3,21.5
				c-0.2,1.7-1.4,2.6-3.4,2.6c-0.5,0-1.3,0-2.5-0.1l-0.6-2.1c1.1,0,2,0.1,2.7,0.1c1,0,1.5-0.5,1.7-1.5c0.1-1.2,0.2-5.2,0.3-12.1h-6
				c-0.7,1.4-1.4,2.8-2.4,4l-1.4-1.8c1.6-2.3,2.7-5.1,3.3-8.4l2.3,0.3c-0.2,1.3-0.6,2.6-1,3.8h7.4C343.7,14.5,343.5,19.6,343.3,21.5
				z M339.2,17.1l-1.8,1.3c-0.9-1.6-2.2-3.3-3.7-5.3l1.8-1.2C337.2,13.9,338.4,15.6,339.2,17.1z"/>
			<path class="st1" d="M362.7,5.9c-0.1,0.3-0.2,0.6-0.3,1c1.7,1.6,3.9,2.5,6.5,2.9l-0.9,1.9c-0.6-0.1-1.3-0.2-1.8-0.4V21h-4.8
				c2.6,0.4,5,1,7.4,1.7l-0.7,1.8c-2.5-0.9-5.2-1.6-8-2.1l0.7-1.4h-5.5l1,1.3c-1.8,0.9-4.3,1.7-7.6,2.2l-1-1.8
				c3.1-0.5,5.4-1.1,7.1-1.8h-4.4v-9.8h5.8L355,9.7c3.2-0.6,5.1-2,5.7-4.2L362.7,5.9z M354.4,7.8v1.9h-6.9V7.8H354.4z M353.9,3.5
				v1.9h-6V3.5H353.9z M363.8,14v-1.1h-11.4V14H363.8z M363.8,16.5v-1.1h-11.4v1.1H363.8z M363.8,18h-11.4v1.2h11.4V18z M355.6,8
				l-1.2-1.7c1.7-1.2,2.8-2.5,3.5-4.2l2.1,0.2c-0.1,0.4-0.3,0.8-0.5,1.1h8.4V5c-0.6,1.3-1.3,2.3-2.1,3.1L364.2,7
				c0.5-0.5,0.9-1,1.2-1.6h-7.2C357.6,6.3,356.6,7.2,355.6,8z M365.8,11.1c-1.7-0.6-3.1-1.5-4.3-2.7c-1,1.2-2.4,2.2-4.4,2.7H365.8z"
				/>
			<path class="st1" d="M373.1,5.6V3.8h9c-0.2-0.5-0.5-0.9-0.7-1.3l2.3-0.4c0.2,0.5,0.5,1.1,0.7,1.7h8.1v1.9h-3.7l0.9,0.6
				c-1.1,0.6-2.2,1.1-3.4,1.5c1.7,0.5,3.2,1,4.7,1.4l-1,1.1h2.7v1.9h-16.9v2.5c0,0.8-0.1,1.6-0.1,2.3c1.4-1.1,2.5-2.6,3.2-4.4
				l1.8,0.7l-0.5,1.1h3.6v-1.7h2.2v1.7h6v2h-6v1.8h5.5v2H386v1.7h7.2v2h-17.4v-2h8v-1.7h-5.5v-2h5.5v-1.8H379
				c-0.6,0.8-1.2,1.5-1.9,2.1l-1.5-1.3c-0.3,2.9-1,5.3-2.2,7.2l-1.7-1.5c1.2-2,1.8-4.7,1.8-8.2v-4.4H389c-1.5-0.6-3.2-1.1-5.1-1.7
				c-2.4,0.7-5.1,1.2-7.9,1.6l-1.1-1.4c2.2-0.2,4.2-0.6,6-1c-1.4-0.4-3-0.8-4.6-1.2l1.1-1.1L373.1,5.6L373.1,5.6z M377.9,5.6
				c2.1,0.5,4.1,1,5.9,1.5c1.4-0.4,2.7-0.9,3.8-1.5H377.9z"/>
			<path class="st1" d="M403.4,3.2c-0.5,1.5-1.1,3-1.8,4.3v17h-2.2V11.1c-0.7,1-1.6,2-2.4,3l-0.7-2.3c2.3-2.7,4-5.9,5.1-9.6
				L403.4,3.2z M416.9,12v9.3h-2.8c1.6,0.3,3.1,0.8,4.6,1.3l-0.7,1.7c-1.8-0.8-3.8-1.5-5.7-1.9l0.6-1.2h-4.2l0.9,1.2
				c-1.3,0.8-3.3,1.4-5.8,1.9l-1-1.7c2.2-0.4,3.9-0.9,5.1-1.4h-3.2V12H416.9z M418.4,3v2h-4.5v1.3h3.7v4.9h-13.7v-5h3.8V5h-4V3
				H418.4z M408.1,7.9h-2.2v1.7h2.2V7.9z M414.9,14.7v-1.2h-8.1v1.2H414.9z M414.9,17.2v-1.1h-8.1v1.1H414.9z M414.9,18.6h-8.1v1.2
				h8.1V18.6z M411.9,7.9h-2.2v1.7h2.2V7.9z M411.9,5h-2.1v1.3h2.1V5z M415.6,7.9h-2v1.7h2V7.9z"/>
			<path class="st1" d="M422,14.2l-0.7-2.4c2.2-2.7,3.9-6,4.9-9.6l2.1,1c-0.5,1.5-1,3-1.7,4.4v16.9h-2.2V11.2
				C423.6,12.2,422.8,13.2,422,14.2z M437,2.4c0,0.6-0.1,1.3-0.2,1.9h5.7v2.1h-6c-0.1,0.6-0.2,1.1-0.2,1.6h4.7v13.6h2.2v2.1h-15.9
				v-2.1h2.4V8h4.3c0.1-0.6,0.2-1.1,0.2-1.6h-5.9V4.3h6.1c0-0.7,0.1-1.5,0.2-2.2L437,2.4z M438.9,11.6v-1.5H432v1.5H438.9z
				 M438.9,14.9v-1.5H432v1.5H438.9z M438.9,18.2v-1.5H432v1.5H438.9z M438.9,21.7V20H432v1.6h6.9V21.7z"/>
			<path class="st1" d="M449.9,21.3c2-0.5,4-1,6-1.7l0.6,2.1c-2.7,0.9-5.7,1.6-8.8,2.3l-0.7-2.1c0.4-0.3,0.7-0.7,0.7-1.3v-18h2.3V9
				h6v2.2h-6v10.1H449.9z M459.9,23.7c-1.7,0-2.6-0.9-2.6-2.7V2.5h2.3v6.7l7.2-0.5V11l-7.2,0.5v9.1c0,0.6,0.3,1,0.9,1h3.4
				c0.3,0,0.7-0.1,1-0.4s0.6-1.7,0.6-4.1l2.2,0.7c-0.3,2.9-0.6,4.7-1.1,5.2s-1.2,0.8-2.1,0.8L459.9,23.7L459.9,23.7z"/>
			<path class="st1" d="M485,8.8c-0.6,1.5-1.3,2.8-2.1,4l1.4-0.4c0.2,1.8,0.9,3.5,1.9,4.9c0.8-1.4,1.3-3.1,1.7-5l2,0.4
				c-0.7-1.2-1.6-2.5-2.5-3.9l1.7-1.1c1.6,2.2,2.8,4.1,3.6,5.8l-1.8,1.2c-0.3-0.6-0.6-1.2-1-1.9c-0.4,2.4-1.2,4.5-2.2,6.2
				c1.3,1.3,3,2.4,5.1,3.3l-1.1,1.9c-2.1-1-3.9-2.1-5.3-3.5c-1.5,1.7-3.5,2.9-5.8,3.6l-1.2-1.8c2.3-0.7,4.2-1.8,5.6-3.4
				c-1.2-1.7-2-3.6-2.4-5.7c-0.3,0.5-0.7,1-1,1.4l-1.7-1.2v3.8h-3.2V19h3.5v2h-3.5v3.1h-2.1V21H471v-2h3.5v-1.6h-3.1V7.8h3.1V6.2
				h-3.6v-2h3.6V2.3h2.1v1.9h3.5v2h-3.5v1.6h3.2v6c1.3-1.6,2.5-3.5,3.5-5.8L485,8.8z M474.6,11.7V9.6h-1.3v2.1H474.6z M474.6,13.5
				h-1.3v2.2h1.3V13.5z M476.4,11.7h1.3V9.6h-1.3V11.7z M477.8,13.5h-1.3v2.2h1.3V13.5z M485.3,5.2c-0.3-1-0.7-1.9-1.2-2.7l2.2-0.3
				c0.4,0.9,0.8,1.9,1.1,3h4.6v2.1h-11.5V5.2H485.3z"/>
			<path class="st1" d="M501.3,2.1c-1,1.6-1.8,3.3-2.3,5c-0.7,2.1-1.1,4.2-1.1,6.2c0,2.1,0.3,4.2,1.1,6.2c0.5,1.7,1.3,3.3,2.3,5
				h-2.1c-1.1-1.6-2-3.2-2.6-4.9c-0.7-2-1.1-4.1-1.1-6.3s0.4-4.3,1.1-6.3c0.6-1.7,1.5-3.4,2.6-4.9C499.2,2.1,501.3,2.1,501.3,2.1z"
				/>
			<path class="st1" d="M508.5,2.6v15.9c1.7-0.7,3.4-1.5,4.9-2.4l0.7,2.2c-2.7,1.5-5.7,2.9-8.9,4l-0.8-2.2c0.6-0.2,1.2-0.4,1.8-0.6
				V2.6H508.5z M517.3,11.4l-1.9,1.3c-1.2-2-2.8-4.3-4.8-6.8l1.9-1.2C514.6,7.3,516.2,9.5,517.3,11.4z M513.1,24.2l-1.5-1.9
				c4-2.4,6.6-5.2,7.8-8.7c1-2.9,1.4-6.6,1.5-11.2h2.4c0,4.6-0.5,8.4-1.5,11.6c-0.1,0.3-0.2,0.6-0.3,0.9c1.9,2.4,3.5,4.8,4.8,7.2
				l-1.8,1.8c-1-2.1-2.4-4.4-4-6.8C518.9,19.8,516.5,22.2,513.1,24.2z"/>
			<path class="st1" d="M530,8.4V6.1h8.7c-0.4-1.2-0.8-2.3-1.4-3.4l2.2-0.6c0.6,1.4,1.1,2.8,1.4,4h-0.1h8.9v2.2H541v5h7.6v2.1H541
				v5.9h9.6v2.2h-21.4v-2.2h9.6v-5.9h-7.6v-2.1h7.6v-5H530V8.4z"/>
			<path class="st1" d="M558.9,24.3h-2.2v-11c-0.6,2-1.4,3.8-2.4,5.4l-0.9-2.4c1.5-2.2,2.5-4.6,3.2-7.4H554V6.8h2.7V2.2h2.2v4.5h2.1
				v2.2h-2.1v1.2c0.9,1.1,1.9,2.3,2.8,3.6l-1.2,1.8c-0.6-1.2-1.2-2.2-1.6-2.9V24.3z M560.7,19.1l-0.6-2c1.7-1.7,2.9-3.5,3.6-5.5
				l2.1,0.4c-0.1,0.3-0.2,0.6-0.4,0.9h2.8c-0.2-0.4-0.4-0.7-0.6-1l2.2-0.3c0.2,0.4,0.4,0.9,0.5,1.3h4.7v1.8h-4.5v1.2h3.8v1.7h-3.8
				v1.2h3.9v1.6h-3.9v1.3h5v1.8h-11.1v0.6h-2v-6.9C561.9,18,561.3,18.6,560.7,19.1z M565.1,3.4V2.1h2.1v4.3h-2.1V5.3H561V3.4H565.1z
				 M567.7,6.9v4.4h-5.8V6.9H567.7z M566,8.4h-2.4v1.3h2.4V8.4z M568.5,14.7h-4.1v1.2h4.1V14.7z M568.5,17.6h-4.1v1.2h4.1V17.6z
				 M568.5,21.8v-1.3h-4.1v1.3H568.5z M574.8,6.9v4.4h-6V6.9H574.8z M571.3,2.1v1.3h4.1v1.9h-4.1v1.1h-2.1V2.1H571.3z M573.1,8.4
				h-2.6v1.3h2.6V8.4z"/>
			<path class="st1" d="M585,3.1c-0.4,1.5-1,3-1.7,4.4v17H581V11.4c-0.7,1-1.4,1.9-2.2,2.8l-0.7-2.3c2.2-2.8,3.7-6,4.8-9.7L585,3.1z
				 M598.4,11.5V21h-3.5c1.9,0.4,3.8,0.9,5.5,1.6l-0.8,1.8c-2-0.8-4-1.5-6.2-1.9l0.8-1.5h-4.1l1,1.2c-1.7,0.9-3.8,1.7-6.3,2.4
				l-0.9-1.8c2.2-0.4,4-1,5.5-1.7h-3.5v-9.6H598.4z M593.4,2.2v1.2h6.1v1.8h-6.1v0.9h5.3v1.8h-5.3v1h6.7v1.8h-15.3V8.9h6.4v-1h-5.1
				V6.1h5.1V5.2h-5.9V3.4h5.9V2.2H593.4z M596.4,14.1v-1h-8.2v1H596.4z M596.4,16.7v-1h-8.2v1H596.4z M596.4,18.3h-8.2v1h8.2V18.3z"
				/>
			<path class="st1" d="M624.6,14.6c0,4.7-0.4,7.4-0.9,8.4c-0.6,0.9-1.7,1.4-3.1,1.4c-0.7,0-1.5,0-2.4-0.1l-0.6-2.2
				c1,0.1,1.8,0.1,2.4,0.2c1,0,1.6-0.4,1.8-1s0.4-2.1,0.5-4.7h-14.5c-1.1,1.1-2.3,2.1-3.7,3l-1.1-2c3.6-2.4,6.1-5.6,7.8-9.7h-6.2v-2
				h3.6c-0.5-0.8-1-1.6-1.7-2.4l1.8-1.1c0.9,1,1.5,1.9,2,2.7l-1.2,0.8h2.3c0.4-1.2,0.6-2.4,0.9-3.7l2.2,0.3
				c-0.2,1.2-0.5,2.3-0.8,3.4h7.3l-0.9,4.2h2.9l-0.8,4.5C622.2,14.6,624.6,14.6,624.6,14.6z M609.5,18.5c-0.6,2-1.5,3.7-2.6,5.2
				l-2-1.2c1.2-1.4,2-2.8,2.5-4.4L609.5,18.5z M609.6,14.6h10.6l0.6-2.5h-9.5C610.7,13,610.2,13.9,609.6,14.6z M613.4,22.7l-2.2,0.3
				c-0.1-1.9-0.4-3.3-0.8-4.3l1.9-0.2C612.9,19.5,613.2,20.9,613.4,22.7z M613.2,7.9c-0.3,0.8-0.6,1.5-0.9,2.2h5.8l0.6-2.2
				C618.7,7.9,613.2,7.9,613.2,7.9z M617.3,21.6l-2.1,0.7c-0.4-1.3-0.8-2.6-1.3-3.9l1.8-0.5C616.4,19.3,616.9,20.5,617.3,21.6z
				 M621,20.8l-2.1,0.5c-0.4-1.2-0.8-2.3-1.3-3.4l1.8-0.6C619.9,18.3,620.5,19.4,621,20.8z"/>
			<path class="st1" d="M628.2,14.2l-0.7-2.4c2-2.8,3.5-6,4.4-9.7l2.2,1c-0.5,1.8-1.2,3.6-2,5.2v16.2h-2.3V12.1
				C629.2,12.8,628.7,13.5,628.2,14.2z M642.2,3.5v2.2H638c-0.1,1-0.3,2-0.4,2.9h4.2v2c-0.8,6.6-3.2,11.2-7.2,13.8l-1.1-2
				c1.8-1.2,3.3-2.9,4.3-5c-0.9-0.8-1.7-1.6-2.6-2.1c-0.5,0.8-0.9,1.5-1.5,2.2l-1.2-2.2c1.8-2.3,2.8-5.4,3.2-9.4H634V3.5H642.2z
				 M638.7,15.2c0.5-1.4,0.8-2.9,1.1-4.5h-2.7c-0.3,0.9-0.6,1.8-0.9,2.7C637.1,13.9,637.9,14.5,638.7,15.2z M645.1,4.5v14.8H643V4.5
				H645.1z M643.9,24.2l-0.5-2.2c0.8,0.1,1.6,0.1,2.4,0.1c0.6,0,0.9-0.3,0.9-0.9v-19h2.3v19.5c0,1.6-0.8,2.4-2.4,2.4h-2.7V24.2z"/>
			<path class="st1" d="M654.6,2.1c1.1,1.6,2,3.2,2.6,4.9c0.7,2,1.1,4.1,1.1,6.3s-0.4,4.2-1.1,6.3c-0.6,1.7-1.5,3.3-2.6,4.9h-2.1
				c1-1.7,1.8-3.3,2.3-5c0.7-2.1,1.1-4.2,1.1-6.2c0-2.1-0.4-4.2-1.1-6.2c-0.6-1.7-1.3-3.3-2.3-5C652.5,2.1,654.6,2.1,654.6,2.1z"/>
		</g>
	</g>
</g>
</svg>
