<?xml version="1.0" encoding="utf-8"?>
<!-- Generator: Adobe Illustrator 22.0.1, SVG Export Plug-In . SVG Version: 6.00 Build 0)  -->
<svg version="1.1" id="圖層_1" xmlns="http://www.w3.org/2000/svg" xmlns:xlink="http://www.w3.org/1999/xlink" x="0px" y="0px"
	 viewBox="0 0 704 296" style="enable-background:new 0 0 704 296;" xml:space="preserve">
<style type="text/css">
	.st0{enable-background:new    ;}
	.st1{fill:#ACBEC2;}
	.st2{fill:#4A4A4A;}
	.st3{fill:#708CB1;}
	.st4{fill:#D2BEA6;}
</style>
<title>pop2_1 copy</title>
<desc>Created with Sketch.</desc>
<g id="pop2_1-copy">
	<g id="Group-2" transform="translate(0.000000, 1.000000)">
		<g id="Group-5" transform="translate(504.000000, 7.000000)">
			<g class="st0">
				<path class="st1" d="M68.8,82.6v-2.7c-1.2,0.2-2.4,0.4-3.7,0.5l-0.7-2.1c4-0.3,7.2-1,9.6-2l1.1,1.9c-1.3,0.5-2.7,0.9-4.1,1.3
					v3.1h4.3v2.2h-4.3v0.8c1.5,1.2,3,2.6,4.5,4.1l-1.3,2c-1.2-1.6-2.3-2.9-3.2-3.8v10.5h-2.3v-9.8c-1.1,2-2.4,3.9-4.1,5.6l-1-2.7
					c2.3-2,4-4.2,5.1-6.7v-0.1h-4.5v-2.2H68.8z M79.3,78.6v14.7h-2.3V78.6H79.3z M79,98.3L78.5,96c1.1,0.1,2.2,0.1,3.3,0.1
					c0.6,0,0.9-0.4,0.9-1.1V76.4H85v19.3c0,1.7-0.8,2.6-2.4,2.6H79z"/>
				<path class="st1" d="M109.5,77.1v2.2h-17v16.2h17.6v2.2H90.2V77.1H109.5z M96.8,86.6L95.4,88c-0.6-0.8-1.4-1.7-2.5-2.6l1.4-1.4
					C95.3,84.9,96.1,85.7,96.8,86.6z M97.6,89.6c-0.7,1.9-1.5,3.7-2.4,5.3l-2-0.9c1-1.7,1.8-3.4,2.5-5.2L97.6,89.6z M97.7,82.3
					l-1.5,1.5c-0.7-0.7-1.6-1.5-2.9-2.4l1.5-1.4C95.9,80.7,96.9,81.5,97.7,82.3z M97.4,87.9l-0.6-2c1.7-1.8,2.8-3.7,3.5-5.9l2,0.4
					c-0.3,0.8-0.6,1.6-1,2.4h2.7c-0.3-0.8-0.6-1.6-0.9-2.2l2.2-0.4c0.3,0.8,0.5,1.6,0.8,2.6h3.3v1.8h-3.6v1.5h3v1.7h-3v1.5h3.1v1.7
					h-3.1v1.5h3.9v1.9H98.7v-7.8C98.3,87,97.9,87.4,97.4,87.9z M100.8,84.6v1.5h2.9v-1.5H100.8z M100.8,87.8v1.5h2.9v-1.5H100.8z
					 M100.8,90.9v1.5h2.9v-1.5H100.8z"/>
				<path class="st1" d="M123.1,78.2c-0.3-0.6-0.6-1.2-1-1.7l2.3-0.4c0.3,0.6,0.6,1.3,1,2.1h9.4v2.1h-10c-0.6,1.1-1.2,2.1-1.9,2.8
					c0.8,0,1.6-0.1,2.4-0.2c0.5-0.6,1-1.3,1.6-2l2.1,0.8c-2.2,2.6-4.1,4.7-5.7,6.1c1.2-0.1,2.4-0.3,3.5-0.5c-0.2-0.5-0.5-1-0.7-1.5
					l1.9-0.6c0.8,1.3,1.4,2.8,2,4.3l-2,0.9c-0.2-0.5-0.3-1-0.5-1.4c-0.6,0.1-1.2,0.2-1.9,0.3v2.4h9.7v2.2h-9.7v4.8h-2.3v-4.8h-9.6
					v-2.2h9.6v-2.1c-1.1,0.1-2.1,0.2-3.1,0.3l-0.5-2c0.2,0,0.5-0.1,0.8-0.2c0.9-0.4,1.9-1.4,3.3-2.9c-1.1,0.1-2.3,0.2-3.5,0.3
					l-0.4-1.8c1.1-0.5,2-1.5,2.8-3H114v-2.1H123.1z M119.5,86.8c-1.2,1.5-2.5,2.8-3.9,3.7l-1.5-1.7c1.4-1,2.6-2.1,3.7-3.3
					L119.5,86.8z M119.3,83.6l-1.6,1.6c-0.8-0.9-2-1.9-3.4-2.9l1.6-1.5C117.2,81.7,118.4,82.7,119.3,83.6z M134.2,82
					c-1.1,1.3-2.2,2.3-3.4,3.2l-1.4-1.6c1.1-0.8,2.1-1.8,3-2.8L134.2,82z M134.7,88.9l-1.7,1.7c-0.8-1.2-2-2.4-3.5-3.7l1.5-1.4
					C132.4,86.6,133.7,87.8,134.7,88.9z"/>
			</g>
			<path id="Page-1" class="st1" d="M114.7,0l-1,5.8l-5.5,1l5.6,1l1,5.7l1-5.8l5.5-1l-5.6-1L114.7,0z M83.3,10.7l-5.5,1l5.6,1l1,5.7
				l1-5.8l5.5-1l-5.6-1l-1-5.7L83.3,10.7z M86.6,16.1l-4.1,16.3h31.8l-4.1-16.3H86.6z M121.5,27.5l-5.5,1l5.6,1l1,5.7l1-5.8l5.5-1
				l-5.6-1l-1-5.7L121.5,27.5z M106.4,35.7L102.2,52H134l-4.1-16.3H106.4z M70.1,35.7L66,52h31.8l-4.1-16.3H70.1z"/>
			<g class="st0">
				<path class="st2" d="M5,144.5c-0.6,2.4-1.4,4.5-2.4,6.3l-1.9-1.2c1-1.7,1.8-3.6,2.2-5.6L5,144.5z M1.2,138.8v-2.1h2.5
					c-0.3-0.8-0.6-1.6-1-2.4l2-0.7c0.4,0.9,0.7,1.9,1.1,3.1H8c0.4-1,0.7-2,1-3.1l2,0.7c-0.3,0.9-0.6,1.7-1,2.4h2.5v2.1H8v2.1h4.1
					v2.1H8v8.6H5.7V143H1.5v-2.1h4.2v-2.1H1.2z M5.7,131.2c-0.3-0.6-0.6-1.2-1-1.8l2.4-0.4c0.3,0.6,0.6,1.3,0.9,2.1h4.4v2.1h-11
					v-2.1H5.7z M11.9,148l-1.9,0.7c-0.4-1.5-0.8-2.9-1.4-4.3l1.9-0.5C11.1,145.4,11.6,146.8,11.9,148z M22.6,131.6
					c-2.1,0.7-4.4,1.1-6.9,1.3v3.9h7.4v2.2h-2.3v12.6h-2.2v-12.6h-2.9v2.4c-0.1,4.2-1,7.6-2.8,10.1l-1.6-1.7c1.4-2,2.1-4.8,2.2-8.4
					V131c2.9,0,5.6-0.6,7.9-1.5L22.6,131.6z"/>
				<path class="st2" d="M41.3,144h2.3l0.1-2.8H42v-1.9h1.8l0.1-2.5h-2V135H44l0.1-2.8h-2.3V130h4.4l-0.5,14h1.7v2.2h-6.9
					c2.5,0.9,4.7,2,6.8,3.3l-1.3,2c-2.3-1.6-4.7-2.9-7.2-3.8l1-1.5h-14V144h1.8l-0.6-13.3c1.3-0.2,2.7-0.7,4-1.4l0.8,1.9
					c-0.6,0.3-1.4,0.6-2.6,1l0.1,2.8h2v1.9h-1.9l0.1,2.4h1.9v1.9h-1.8l0.1,2.8h2.2v-13.9h9.2V144z M34.5,147.7
					c-1.8,1.4-4.1,2.7-6.9,3.8l-1.4-1.8c2.7-1,4.9-2.1,6.8-3.3L34.5,147.7z M39.4,144v-12H34v12H39.4z M38.7,133.3v1.6h-3.9v-1.6
					H38.7z M38.6,136.2v6.7h-3.8v-6.7H38.6z M37.2,137.7h-1v3.6h1V137.7z"/>
				<path class="st2" d="M71.5,151.5h-2.3v-0.9H53.5v0.9h-2.3v-21.3h20.3V151.5z M69.3,148.5v-16.2H53.5v16.2H69.3z M61.1,145.7
					c-1.9,0.4-4,0.8-6.3,1.1l-0.3-1.9c2.5-0.2,4.7-0.5,6.6-0.9V145.7z M61.8,134.5c0-0.6,0-1.2,0-1.8h2c0,0.6,0,1.2,0,1.8h1.8
					c-0.2-0.6-0.5-1.1-0.7-1.5l1.8-0.3c0.2,0.5,0.4,1.2,0.6,1.8h1.2v2h-4.6c0,1.7,0.2,3.1,0.4,4.1c0,0.4,0.1,0.7,0.1,1.1
					c0.6-1.3,1.2-2.8,1.6-4.4l1.7,0.9c-0.7,2.5-1.6,4.6-2.6,6.3c0,0,0,0.1,0,0.1c0.3,0.9,0.7,1.3,1,1.3c0.3,0,0.7-1,1.1-2.9l1.6,0.9
					c-0.7,2.7-1.5,4.1-2.5,4.1c-0.7,0-1.5-0.5-2.1-1.5c-0.1-0.1-0.2-0.2-0.2-0.4c-0.7,0.9-1.5,1.6-2.3,2.1l-1.1-1.7
					c0.9-0.6,1.8-1.5,2.5-2.5c-0.2-0.7-0.4-1.4-0.6-2.3c-0.3-1.4-0.5-3.1-0.6-5.3h-7.4v-2H61.8z M60.9,137.8v5.2h-5.9v-5.2H60.9z
					 M59.1,139.4h-2.2v1.9h2.2V139.4z"/>
				<path class="st2" d="M93.2,135.2v2.1h-5.3c-0.6,0.4-1.1,0.7-1.7,1.1c0.8,0.9,1.5,1.9,2,3c1.9-0.8,3.7-1.9,5.5-3.5l1.6,1.5
					c-1.6,1.4-3.5,2.6-5.5,3.4c1.9,2,4.3,3.8,7.3,5.2l-1.2,2c-2.8-1.5-5-3.2-6.7-5.3c0,0.5,0.1,0.9,0.1,1.4c0,1.9-0.3,3.3-0.8,4
					c-0.6,0.8-2,1.3-4.2,1.3h-0.8l-0.8-2H84c1.3,0,2.2-0.2,2.5-0.6c0.4-0.5,0.6-1.4,0.6-2.7c0-0.2,0-0.5,0-0.7
					c-2.6,1.9-6,3.6-10.2,4.8l-1.1-1.9c4.7-1.3,8.3-3,10.9-5.1c-0.1-0.5-0.3-1-0.5-1.4c-2.3,1.7-5.3,3-9,4.1l-1.1-2
					c3.9-1,7-2.3,9.1-3.8c-0.2-0.3-0.5-0.6-0.7-0.9c-0.1,0-0.2,0.1-0.2,0.1c-1.6,0.7-3.8,1.5-6.6,2.4l-1.2-1.9
					c2.2-0.5,4.3-1.1,6.2-1.9c0.6-0.2,1.1-0.5,1.7-0.7H79v-2.1H93.2z M87.4,131.2h9v4.5h-2.3v-2.4h-16v2.4h-2.3v-4.5h9.3
					c-0.2-0.6-0.5-1.2-0.8-1.7l2.4-0.4C86.9,129.8,87.1,130.5,87.4,131.2z"/>
				<path class="st2" d="M104.5,146.7c-0.7,1.5-1.6,3-2.6,4.5l-1.9-1c1.1-1.5,2-2.9,2.7-4.4L104.5,146.7z M109.5,130.1v15H101v-15
					H109.5z M107.3,134.6v-2.4h-4.1v2.4H107.3z M107.3,138.8v-2.3h-4.1v2.3H107.3z M107.3,140.6h-4.1v2.4h4.1V140.6z M110.3,149.6
					l-1.7,1.2c-0.6-1.3-1.5-2.7-2.5-4.2l1.7-1C108.8,147.2,109.7,148.5,110.3,149.6z M110.5,135.9v-2.1h6.3v-4.3h2.2v4.3h2.7v2.1
					H119v12.8c0,1.7-0.8,2.6-2.5,2.6h-2.8l-0.5-2.1c0.9,0.1,1.7,0.1,2.5,0.1c0.7,0,1-0.4,1-1.2v-10.7c-1.3,4.3-3.4,7.9-6.2,10.7
					l-1.2-2.1c2.9-2.6,4.9-6,6.2-10.2H110.5z"/>
				<path class="st2" d="M129.4,134.6c0.8-0.7,1.5-1.5,2.1-2.4h-6.3v-2.1h8.9v1.8c-1,1.6-2.1,2.9-3.3,4c0.3,0.3,0.7,0.6,1,0.9
					l-0.6,0.6h3.4v1.9c-0.6,1.6-1.2,3.1-2,4.4l-1.4-1.2c0.4-0.8,0.9-1.8,1.4-3h-1.7v9.5c0,1.5-0.7,2.2-2.1,2.2h-2.2l-0.4-2
					c0.7,0.1,1.3,0.1,1.9,0.1c0.5,0,0.7-0.3,0.7-0.8v-8.2c-0.9,2.8-2,5.4-3.6,7.7l-0.8-2.1c1.4-1.8,2.5-3.9,3.3-6.3h-2.8v-2.1h4.9
					c-1-1-2.2-2.1-3.7-3.1l1.4-1.3C128,133.6,128.7,134.1,129.4,134.6z M145.1,148.8c-0.2,1.6-1.4,2.4-3.6,2.4c-0.4,0-1.2,0-2.2-0.1
					l-0.5-1.9c0.9,0,1.7,0.1,2.3,0.1c1.1,0,1.7-0.5,1.9-1.4c0.1-0.4,0.2-1.8,0.2-4.2h-3.1c-0.3,1.4-0.7,2.5-1.2,3.4
					c-1,1.7-2.7,3.1-5,4.3l-1.4-1.8c2.1-1,3.6-2.2,4.4-3.5c0.4-0.6,0.7-1.4,0.9-2.4h-3.5v-2.1h3.9c0.1-0.6,0.1-1.3,0.2-1.9h2.1
					l-0.1,1.9h4.9C145.4,145.5,145.3,147.9,145.1,148.8z M139.4,129.6c-0.2,0.6-0.4,1.1-0.6,1.6h7v2.1h-1.6
					c-0.6,1.6-1.3,2.8-2.2,3.8c1.2,0.6,2.6,1.2,4.3,1.7l-1.5,1.8c-1.8-0.6-3.3-1.3-4.5-2.1c-1.2,0.8-2.5,1.5-4.2,2.1l-1.3-1.7
					c1.5-0.5,2.7-1.1,3.7-1.7c-0.8-0.6-1.4-1.3-1.9-2l1.6-0.9c0.5,0.6,1.2,1.2,1.9,1.7c0.8-0.7,1.4-1.7,1.8-2.7h-4.3
					c-0.7,1.1-1.7,2.1-2.7,3l-1.3-1.7c1.7-1.4,2.9-3.2,3.5-5.3L139.4,129.6z"/>
				<path class="st2" d="M157.8,136.5h0.8v4h-1.1v9c0,1.2-0.7,1.8-2,1.8h-1.6l-0.5-1.8c0.5,0,1,0.1,1.5,0.1c0.4,0,0.7-0.2,0.7-0.7
					v-1.7c-0.8,0.3-1.7,0.6-2.7,0.8l-0.4-1.3c-0.2,1.9-0.7,3.5-1.5,4.8l-1.5-1.4c0.8-1.1,1.2-2.6,1.2-4.3v-5.2h-1.1v-4.1h0.9v-6.4
					h7.3V136.5z M156.8,139.7v-1.5h-5.3v1.5H156.8z M153.3,136.5v-3.2h2.6v-1.5h-3.6v4.7H153.3z M155.6,145.4v-4h-3v1.3
					c0.9,0.2,1.8,0.4,2.7,0.7l-0.6,1.5c-0.7-0.3-1.4-0.5-2.1-0.6v1.4c0,0.2,0,0.5,0,0.7C153.7,146,154.7,145.7,155.6,145.4z
					 M155.9,136.5v-1.6h-1.1v1.6H155.9z M169.9,142.3v4.8h-1.4l-0.5,1.7h3.1v1.9h-12.7v-1.9h3.4l-0.5-1.7h-1.4v-4.8H169.9z
					 M171,139.5v1.8h-12.1v-1.8H171z M162.3,131v-1.6h1.9v1.6h1.4v-1.6h1.9v1.6h2.8v7.5h-10.9V131H162.3z M162.7,134.1v-1.5h-1.5
					v1.5H162.7z M162.7,135.5h-1.5v1.4h1.5V135.5z M168,143.9h-6.1v1.6h6.1V143.9z M166,148.9l0.5-1.7h-3.1l0.5,1.7H166z
					 M164.2,134.1h1.4v-1.5h-1.4V134.1z M165.7,135.5h-1.4v1.4h1.4V135.5z M167.2,134.1h1.5v-1.5h-1.5V134.1z M168.7,135.5h-1.5v1.4
					h1.5V135.5z"/>
				<path class="st2" d="M175.5,138.7L174,137c0.8-0.8,1.2-2,1.3-3.5V130c3.3,0,6.2-0.3,8.7-0.7l1,1.8c-2.3,0.3-4.8,0.6-7.6,0.6v1.1
					h7.4v1.8h-2.7v2.6h-2.2v-2.6h-2.6C177,136.4,176.4,137.7,175.5,138.7z M186,137.9h7.1V148h-4.8c2.5,0.4,4.9,1,7.2,1.8l-0.7,1.8
					c-2.5-0.9-5.1-1.6-7.8-2l0.8-1.5h-5.9l1,1.4c-1.7,0.9-4.1,1.6-7.3,2.1l-1-1.7c3.1-0.5,5.4-1.1,7.1-1.8h-4.6v-10.1h8.5l-1.4-1.5
					c1-0.8,1.5-1.9,1.6-3.3v-3c3.2,0,6.1-0.3,8.6-0.7l1,1.8c-2.3,0.4-4.8,0.6-7.5,0.7v1.2h7.6v1.9h-3v2.5h-2.2v-2.5h-2.7
					C187.4,136.1,186.8,137.1,186,137.9z M190.9,140.8v-1.1h-11.5v1.1H190.9z M190.9,143.5v-1.1h-11.5v1.1H190.9z M190.9,145h-11.5
					v1.2h11.5V145z"/>
			</g>
			<g class="st0">
				<path class="st2" d="M1.8,184.3l-0.5-2.2c0.6,0.1,1.2,0.1,1.8,0.1s0.9-0.3,0.9-1v-5c-0.8,0.3-1.7,0.6-2.5,0.8l-0.6-2.3
					c1.1-0.2,2.1-0.5,3.1-0.9v-5H1.3v-2.2h2.7v-4.1h2.2v4.1h2.3v2.2H6.3v4.2c0.8-0.4,1.6-0.7,2.3-1.1v2.3c-0.8,0.4-1.6,0.7-2.3,1.1
					v6.5c0,1.6-0.8,2.4-2.3,2.4H1.8z M17.8,173.8v-1.7H20v1.7h2.7v2.1H20v6c0,1.6-0.8,2.4-2.4,2.4h-3.1l-0.5-2.2
					c1,0.1,1.9,0.2,2.8,0.2c0.6,0,0.9-0.3,0.9-0.9v-5.5H9.1v-2.1H17.8z M16.9,162.5v2.2h5.4v2.1h-5.4v2.3h4.8v2.1H10v-2.1h4.7v-2.3
					H9.3v-2.1h5.4v-2.2H16.9z M14.6,180.4l-1.8,1.2c-0.6-1.2-1.5-2.4-2.6-3.9l1.8-1.1C13.1,178.1,14,179.3,14.6,180.4z"/>
				<path class="st2" d="M28.2,178.5c-0.1,2.1-0.4,3.9-0.7,5.5l-1.9-0.6c0.4-1.5,0.7-3.2,0.8-5.2L28.2,178.5z M34.4,176.5l-1.8,0.5
					l-0.2-1c-2.1,0.6-4.1,1.1-6,1.3l-0.6-1.9c0.4-0.1,0.7-0.3,0.9-0.6c0.7-0.8,1.7-2.1,2.8-3.9l-3.4,0.5l-0.5-1.8
					c0.3-0.1,0.6-0.4,0.8-0.7c1.2-1.9,2.2-4.1,3-6.5l2,0.8c-1.1,2.5-2.2,4.6-3.4,6.2c0.8-0.1,1.7-0.2,2.5-0.4c0.5-0.9,1-1.8,1.5-2.9
					l2,0.7c-2.1,3.8-3.9,6.5-5.3,8.2c1.1-0.2,2.1-0.5,3.2-0.7c-0.2-0.7-0.3-1.3-0.5-1.9l1.7-0.6C33.7,173.2,34.1,174.7,34.4,176.5z
					 M31.5,182.8l-1.9,0.5c-0.2-1.9-0.4-3.6-0.6-5l1.7-0.4C31.1,179.4,31.3,181,31.5,182.8z M34.4,181.3l-1.7,0.8
					c-0.3-1.6-0.7-3-1.1-4.2l1.6-0.6C33.7,178.5,34.1,179.9,34.4,181.3z M46.5,173.4v8.1h-2.7c1.5,0.4,2.9,0.9,4.1,1.5l-1,1.5
					c-1.6-0.9-3.3-1.5-5-2l0.7-1.1h-3.5l0.9,1c-1.5,0.8-3.3,1.5-5.5,2l-0.8-1.7c1.8-0.4,3.2-0.8,4.4-1.3h-2.7v-8.1H46.5z
					 M39.9,163.5v-1.2h2.2v1.2h5.3v1.6h-5.3v1h4.6v1.4H35.3V166h4.6v-1h-5.3v-1.6H39.9z M47.2,168.3v4.2H34.8v-4.2H47.2z
					 M38.5,169.7h-1.8v1.5h1.8V169.7z M44.4,175.8v-1.1h-6.9v1.1H44.4z M44.4,177.9v-1h-6.9v1H44.4z M44.4,179.1h-6.9v1h6.9V179.1z
					 M41.9,169.7H40v1.5h1.9V169.7z M45.3,169.7h-1.9v1.5h1.9V169.7z"/>
				<path class="st2" d="M54,167.9v-1.7h-3.2v-1.8H54v-2H56v2h3v1.8h-3v1.7h2.8v9.6H56v1.7h3.1v1.9H56v3.4H54V181h-3.3v-1.9H54v-1.7
					h-2.9v-9.6H54z M54.2,171.8v-2.3h-1.3v2.3H54.2z M54.2,173.5h-1.3v2.3h1.3V173.5z M55.8,171.8h1.3v-2.3h-1.3V171.8z M57.1,173.5
					h-1.3v2.3h1.3V173.5z M64.6,163.5v-1.2h2.1v1.2h4.9v1.8h-4.9v1h4.4v7.2h-0.5c0.7,1,1.3,1.9,1.8,2.7l-1.4,1
					c-0.2-0.4-0.4-0.7-0.6-1.1l-0.8,0.1v1.6h2.6v1.9h-2.6v2.7c0,1.4-0.6,2.1-1.9,2.1h-2.4l-0.4-2c0.7,0.1,1.4,0.1,2.1,0.1
					c0.4,0,0.6-0.2,0.6-0.7v-2.2h-5.9c1.1,0.6,2.1,1.2,3,1.9l-1.1,1.7c-1.1-1-2.1-1.7-3.2-2.3l0.9-1.3h-1.5v-1.9h7.8v-1.5
					c-2.1,0.1-4.6,0.2-7.6,0.3l-0.3-1.7c1.8,0,3.5-0.1,4.9-0.1v-1.3h-4.5v-7.2h4.4v-1h-4.9v-1.8H64.6z M64.8,169.1v-1.3h-2.7v1.3
					H64.8z M64.8,170.6h-2.7v1.3h2.7V170.6z M66.6,169.1h2.6v-1.3h-2.6V169.1z M69.3,170.6h-2.6v1.3h2.6V170.6z M68.7,173.4h-2v1.2
					c1,0,1.9-0.1,2.8-0.1C69.2,174.1,69,173.8,68.7,173.4z"/>
				<path class="st2" d="M81.2,162.3c-0.3,1.6-0.5,3-0.8,4.4h4v1.2c-0.2,3.7-0.9,7-2.2,9.8c1.3,1,2.4,2,3.2,2.8l-1.6,1.8
					c-0.8-0.8-1.7-1.7-2.8-2.6c-1.2,1.9-2.6,3.5-4.4,4.8l-1.6-1.9c1.7-1.2,3.1-2.7,4.2-4.4c-1.1-0.9-2.3-1.8-3.6-2.8
					c0.7-2.1,1.3-4.3,1.9-6.6h-2.3v-2.2h2.8c0.3-1.5,0.6-3,0.8-4.6L81.2,162.3z M82.2,168.9h-2.2c-0.6,2.4-1.1,4.3-1.7,6
					c0.8,0.5,1.5,1.1,2.1,1.5C81.4,174.2,82,171.7,82.2,168.9z M90.2,172.2v-2.8c1.2-1.1,2.4-2.4,3.5-3.9h-8v-2.2h10.6v2.2
					c-1.1,1.6-2.4,3.1-3.8,4.6v2.1h4.7v2.2h-4.7v7.1c0,1.8-0.7,2.7-2,2.7h-3.6l-0.6-2.2c1,0,2.1,0,3.2,0c0.5,0,0.7-0.4,0.7-1.2v-6.4
					H85v-2.2H90.2z"/>
				<path class="st2" d="M112.3,172.1c0.4,0.5,0.6,1.2,0.6,2c0,1.2-0.4,2.3-1.1,3.2s-1.7,1.5-2.9,1.8v-1.5c0.6-0.2,1.2-0.6,1.6-1.1
					c0.4-0.6,0.6-1.1,0.6-1.7c-0.1,0-0.3,0.1-0.6,0.1c-0.5,0-0.9-0.2-1.2-0.5s-0.5-0.8-0.5-1.3c0-0.5,0.2-1,0.5-1.3
					c0.3-0.3,0.8-0.5,1.4-0.5C111.4,171.4,111.9,171.6,112.3,172.1z"/>
				<path class="st2" d="M145.4,184.4h-2.3v-0.9h-15.3v0.9h-2.3v-21.2h19.9V184.4z M143.1,181.4v-16h-15.3v16H143.1z M134.4,169.5
					c0.1-1,0.2-2,0.2-3.1h2.2c0,1.1,0,2.2-0.1,3.1h5.4v2.2h-5.7c-0.1,0.5-0.2,0.9-0.3,1.3c2.4,1.9,4.5,3.8,6.1,5.7l-1.7,1.7
					c-1.3-1.7-3-3.5-5.2-5.4c-1,2.2-2.8,4-5.5,5.5l-1.4-1.7c2.6-1.4,4.3-3.2,5.1-5.4c0.2-0.5,0.3-1,0.5-1.6h-5.2v-2.2H134.4z"/>
				<path class="st2" d="M157.7,162.6v7.3h3.4v2.2h-3.4v7.6c1.3-0.3,2.5-0.7,3.6-1.1v2.3c-3.5,1.2-7.4,2.1-11.9,2.8l-0.3-2.3
					c0.6-0.1,1.2-0.2,1.7-0.3V167h2.2v13.8c0.8-0.2,1.7-0.3,2.4-0.5v-17.7H157.7z M164.7,183.7c-1.7,0-2.6-1-2.6-2.9v-18.6h2.3v7.7
					l6-0.4v2.2l-6,0.4v8.2c0,0.8,0.3,1.2,1,1.2h2.3c0.4,0,0.6-0.2,0.8-0.6c0.2-0.5,0.3-1.9,0.4-4.4l2.2,0.7c-0.2,3.2-0.5,5-1,5.7
					c-0.4,0.6-1.1,0.9-2,0.9H164.7z"/>
				<path class="st2" d="M176.6,178.6c-0.1,2.1-0.4,3.9-0.8,5.5l-2-0.6c0.5-1.5,0.8-3.2,0.9-5.1L176.6,178.6z M182.8,176.7l-1.8,0.5
					c-0.1-0.4-0.2-0.8-0.3-1.2c-2.2,0.7-4.2,1.2-6.2,1.4l-0.6-2c0.4-0.2,0.7-0.4,1-0.6c0.7-0.7,1.6-2,2.7-3.7
					c-1.1,0.2-2.1,0.3-3.2,0.5l-0.6-2c0.3-0.1,0.6-0.4,0.9-0.8c1-1.9,1.9-4.1,2.6-6.5l2.1,0.8c-1,2.6-2.1,4.7-3.1,6.4
					c0.8-0.1,1.6-0.2,2.4-0.4c0.5-1,1.1-2.1,1.7-3.3l2,0.8c-2.2,3.9-4,6.8-5.4,8.5c1.1-0.2,2.2-0.5,3.2-0.8
					c-0.2-0.6-0.4-1.2-0.6-1.8l1.7-0.6C181.9,173.2,182.4,174.8,182.8,176.7z M180,182.8l-2,0.5c-0.2-1.8-0.4-3.4-0.7-4.8l1.9-0.4
					C179.5,179.5,179.8,181.1,180,182.8z M182.9,181.5l-1.9,0.5c-0.2-1.4-0.6-2.7-0.9-3.9l1.8-0.6
					C182.3,178.6,182.6,180,182.9,181.5z M186.8,166.4c-0.7,1.5-1.3,2.7-2.1,3.7c0.7,0.9,1.5,2.1,2.3,3.6l-1.8,1.1
					c-0.8-1.7-1.7-3.3-2.6-4.6c1-1.5,1.8-3,2.4-4.6L186.8,166.4z M183.7,177.4v-2.1h11.4v2.1h-4.6v4.5h5.4v2.1h-13.2V182h5.5v-4.5
					H183.7z M195.6,163.1v2.1h-12.4v-2.1H195.6z M191.2,166.5c-0.6,1.5-1.3,2.7-2,3.6c0.7,0.9,1.5,2,2.2,3.5l-1.8,1.1
					c-0.8-1.7-1.7-3.2-2.6-4.6c1-1.4,1.8-3,2.3-4.5L191.2,166.5z M195.6,166.5c-0.7,1.5-1.4,2.7-2.1,3.6c0.7,0.9,1.5,2,2.3,3.5
					l-1.8,1.1c-0.8-1.7-1.7-3.2-2.6-4.6c1-1.4,1.8-3,2.4-4.5L195.6,166.5z"/>
			</g>
			<g class="st0">
				<path class="st2" d="M13.2,195.2v3.5h2.7c0.7-1,1.3-2.1,1.8-3.2l2.2,0.8c-0.5,0.9-1,1.7-1.5,2.4h4v5.2h-2.3v-3H4.1v3H1.8v-5.2
					h3.7c-0.4-0.8-0.9-1.5-1.4-2.2l2.2-0.8c0.6,0.9,1.1,1.8,1.6,3h3v-3.5H13.2z M5.6,207.9v-5.6h12.9v5.6h-5.3v1.5h7.6v4.4
					c0,1.6-0.8,2.4-2.5,2.4h-1.8l-0.6-2.2l1.7,0.1c0.6,0,1-0.3,1-0.9v-1.8h-5.4v6h-2.3v-6H5.6v4.9H3.3v-7h7.5v-1.5H5.6z M16.3,204.2
					H7.8v1.8h8.4V204.2z"/>
				<path class="st2" d="M31.2,213.3v4.3h-2V201h-1.1v12.4h-1.9V199h3v-3.7h2v3.7h3v12.2c0,1.3-0.6,2-1.8,2H31.2z M31.2,211.4l0.6,0
					c0.3,0,0.5-0.2,0.5-0.6V201h-1.1V211.4z M46.6,198h-8.2v1.5h7.4v2h-7.4v1.5h7.5v1.9h-7.5v1.5h9.2v2.1h-9.3v6.4
					c1-0.4,2.1-0.9,3.1-1.4l0.4,2c-1.6,0.8-3.4,1.5-5.4,2l-0.9-1.9c0.4-0.1,0.6-0.3,0.6-0.6v-6.5h-1.3v-2.1h1.5v-10.4h10.4V198z
					 M43.1,211.5c0.9-0.6,1.8-1.4,2.7-2.4l1.5,1.5c-0.9,1.1-1.9,1.9-3,2.4c1,1.1,2.3,1.9,3.6,2.5l-1.2,1.8c-3.1-1.3-5.4-3.8-6.7-7.5
					l1.7-1C42.1,209.8,42.5,210.7,43.1,211.5z"/>
				<path class="st2" d="M55.4,217.5l-1.7-1.5c1.4-1.5,2.2-3.4,2.2-5.7v-4.8c-1.2,1.4-2.6,2.8-4.2,4.1l-1.5-1.9
					c2.8-2.2,5-4.8,6.6-7.6h-6v-2.2h7c0.4-0.9,0.7-1.7,1-2.6l2.3,0.3c-0.2,0.8-0.5,1.6-0.8,2.4h11.6v2.2H59.5
					c-0.4,0.8-0.8,1.6-1.3,2.3h11v12.9c0,1.4-0.8,2.1-2.4,2.1h-2.4l-0.5-2c0.8,0,1.6,0.1,2.3,0.1c0.6,0,0.9-0.3,0.9-1v-2h-9.2
					C57.5,214.4,56.7,216.1,55.4,217.5z M58.1,210.1c0,0.1,0,0.2,0,0.3h9v-2.1h-9V210.1z M67,204.3h-9v2.1h9V204.3z"/>
				<path class="st2" d="M78.5,209.8c-0.3,2.9-1,5.4-2.1,7.6l-1.6-1.6c1.2-2.4,1.8-5.2,1.8-8.4v-10.2c3-0.4,5.2-1,6.8-1.9l1.5,1.7
					c-1.7,0.9-3.8,1.5-6.3,1.8v2.3h6.1v8.6H78.5z M78.7,207.4c0,0.1,0,0.2,0,0.3h4v-4.3h-4V207.4z M88.5,208c0,4.2-0.6,7.4-1.6,9.5
					l-2.1-1c1-2,1.6-4.8,1.6-8.4v-11.1c3.5-0.1,6.4-0.6,8.8-1.6l1.2,2c-2.4,0.9-5,1.3-7.8,1.5l0,3.7h8.6v2.2h-2.5v12.7h-2.2v-12.7
					h-3.8V208z"/>
				<path class="st2" d="M109.2,210.8l0.3,2.1c-2.5,1.2-5.4,2.4-8.6,3.4l-0.6-2c0.6-0.2,0.8-0.7,0.8-1.5v-8.7h5.3V199h-6.3v-2.2h8.6
					v9.5h-5.3v7C105.3,212.6,107.2,211.8,109.2,210.8z M115.5,209c1.2-2.3,1.8-5,1.9-8.1h-4.1c-0.8,2.4-1.8,4.3-3,5.9l-1.4-1.8
					c1.7-2.4,2.8-5.7,3.4-9.7l2.2,0.4c-0.2,1.1-0.4,2.1-0.6,3h7.4v2.2h-1.7c-0.2,4-1.1,7.4-2.8,10.2c1.4,2,3.2,3.5,5.3,4.5l-1.3,1.9
					c-2.1-1.1-3.8-2.6-5.3-4.6c-1.6,1.9-3.6,3.4-6,4.5l-1.4-1.9c2.6-1.1,4.6-2.7,6.1-4.6c-1-1.7-1.8-3.6-2.4-5.8l1.7-1
					C114,206,114.7,207.6,115.5,209z"/>
				<path class="st2" d="M130.7,197.3c-0.4-0.6-0.7-1.2-1.2-1.7l2.5-0.4c0.4,0.6,0.7,1.3,1.1,2.1h4.8c0.5-0.7,0.9-1.4,1.1-2.2
					l2.4,0.3c-0.3,0.7-0.6,1.3-1,1.8h4.8v2h-8.6v1.2h7.5v1.8h-7.5v1.2h9.1v2h-3.9c-0.2,0.6-0.5,1.2-0.8,1.7h5.1v2h-21.2v-2h5.4
					c-0.3-0.6-0.6-1.2-0.9-1.7h-4.1v-2h9.1v-1.2h-7.5v-1.8h7.5v-1.2h-8.6v-2H130.7z M143.7,217.5h-2.2v-0.8h-12v0.8h-2.2v-7.2h16.5
					V217.5z M141.5,214.6v-2.3h-12v2.3H141.5z M139.6,205.4h-7.9c0.2,0.5,0.5,1.1,0.7,1.7h6.4C139.1,206.5,139.3,206,139.6,205.4z"
					/>
				<path class="st2" d="M161.7,205.1c0.4,0.5,0.6,1.2,0.6,2c0,1.2-0.4,2.3-1.1,3.2s-1.7,1.5-2.9,1.8v-1.5c0.6-0.2,1.2-0.6,1.6-1.1
					c0.4-0.6,0.6-1.1,0.6-1.7c-0.1,0-0.3,0.1-0.6,0.1c-0.5,0-0.9-0.2-1.2-0.5s-0.5-0.8-0.5-1.3c0-0.5,0.2-1,0.5-1.3
					c0.3-0.3,0.8-0.5,1.4-0.5C160.8,204.4,161.3,204.6,161.7,205.1z"/>
				<path class="st2" d="M178.9,198.1h2.3v2.1H174v-2.1h2.8c-0.3-0.8-0.6-1.5-0.9-2.3l2.2-0.6C178.3,196.3,178.7,197.2,178.9,198.1z
					 M194.6,199.5v3.8h-2.3v1h2.9v1.6h-2.9v1h2.3v1.5h-2.3v1h3.3v1.6h-7.3c-0.6,0.6-1.2,1.2-1.9,1.8v2.5c1-0.4,2-0.8,3.1-1.3
					l0.4,1.8c-1.7,0.7-3.5,1.3-5.3,1.8l-0.7-1.5c0.4-0.2,0.6-0.5,0.6-0.9v-1.2c-0.8,0.4-1.7,0.8-2.6,1.1l-1.1-1.7v3.8h-2.1v-1h-2.1
					v1.1h-2.1v-8.4h6.2v4.5c2.3-0.6,4.1-1.4,5.3-2.3h-4.2v-1.6h3.1v-1h-2.2v-1.5h2.2v-1h-2.7v-1.6h2.7v-1h-2.4v-3.8h5.4v3.8h-1v1
					h3.3v-1h-1.1v-3.8H194.6z M180.5,201.8v1.9h-5.7v-1.9H180.5z M180.5,205.2v1.9h-5.7v-1.9H180.5z M178.7,214v-3.4h-2.1v3.4H178.7
					z M187.5,196.8c-0.2-0.5-0.5-0.9-0.7-1.3l2.3-0.4c0.2,0.5,0.4,1.1,0.6,1.7h5.7v1.8h-13.6v-1.8H187.5z M186.3,200.8h-1.9v1.2h1.9
					V200.8z M190.3,205.8H187v1h3.3V205.8z M190.3,209.3v-1H187v1H190.3z M195.3,212.4c-0.6,0.8-1.4,1.4-2.2,1.9
					c0.9,0.6,1.9,1.2,3,1.6l-1.4,1.6c-2.7-1.2-4.7-3.1-6-5.6l1.5-0.7c0.5,0.7,1,1.4,1.6,2c0.8-0.5,1.5-1.2,2.1-2L195.3,212.4z
					 M192.8,200.8h-1.9v1.2h1.9V200.8z"/>
			</g>
			<g class="st0">
				<path class="st2" d="M5,243.5c-0.6,2.4-1.4,4.5-2.4,6.3l-1.9-1.2c1-1.7,1.8-3.6,2.2-5.6L5,243.5z M1.2,237.8v-2.1h2.5
					c-0.3-0.8-0.6-1.6-1-2.4l2-0.7c0.4,0.9,0.7,1.9,1.1,3.1H8c0.4-1,0.7-2,1-3.1l2,0.7c-0.3,0.9-0.6,1.7-1,2.4h2.5v2.1H8v2.1h4.1
					v2.1H8v8.6H5.7V242H1.5v-2.1h4.2v-2.1H1.2z M5.7,230.2c-0.3-0.6-0.6-1.2-1-1.8l2.4-0.4c0.3,0.6,0.6,1.3,0.9,2.1h4.4v2.1h-11
					v-2.1H5.7z M11.9,247l-1.9,0.7c-0.4-1.5-0.8-2.9-1.4-4.3l1.9-0.5C11.1,244.4,11.6,245.8,11.9,247z M22.6,230.6
					c-2.1,0.7-4.4,1.1-6.9,1.3v3.9h7.4v2.2h-2.3v12.6h-2.2v-12.6h-2.9v2.4c-0.1,4.2-1,7.6-2.8,10.1l-1.6-1.7c1.4-2,2.1-4.8,2.2-8.4
					V230c2.9,0,5.6-0.6,7.9-1.5L22.6,230.6z"/>
				<path class="st2" d="M41.3,243h2.3l0.1-2.8H42v-1.9h1.8l0.1-2.5h-2V234H44l0.1-2.8h-2.3V229h4.4l-0.5,14h1.7v2.2h-6.9
					c2.5,0.9,4.7,2,6.8,3.3l-1.3,2c-2.3-1.6-4.7-2.9-7.2-3.8l1-1.5h-14V243h1.8l-0.6-13.3c1.3-0.2,2.7-0.7,4-1.4l0.8,1.9
					c-0.6,0.3-1.4,0.6-2.6,1l0.1,2.8h2v1.9h-1.9l0.1,2.4h1.9v1.9h-1.8l0.1,2.8h2.2v-13.9h9.2V243z M34.5,246.7
					c-1.8,1.4-4.1,2.7-6.9,3.8l-1.4-1.8c2.7-1,4.9-2.1,6.8-3.3L34.5,246.7z M39.4,243v-12H34v12H39.4z M38.7,232.3v1.6h-3.9v-1.6
					H38.7z M38.6,235.2v6.7h-3.8v-6.7H38.6z M37.2,236.7h-1v3.6h1V236.7z"/>
				<path class="st2" d="M71.5,250.5h-2.3v-0.9H53.5v0.9h-2.3v-21.3h20.3V250.5z M69.3,247.5v-16.2H53.5v16.2H69.3z M61.1,244.7
					c-1.9,0.4-4,0.8-6.3,1.1l-0.3-1.9c2.5-0.2,4.7-0.5,6.6-0.9V244.7z M61.8,233.5c0-0.6,0-1.2,0-1.8h2c0,0.6,0,1.2,0,1.8h1.8
					c-0.2-0.6-0.5-1.1-0.7-1.5l1.8-0.3c0.2,0.5,0.4,1.2,0.6,1.8h1.2v2h-4.6c0,1.7,0.2,3.1,0.4,4.1c0,0.4,0.1,0.7,0.1,1.1
					c0.6-1.3,1.2-2.8,1.6-4.4l1.7,0.9c-0.7,2.5-1.6,4.6-2.6,6.3c0,0,0,0.1,0,0.1c0.3,0.9,0.7,1.3,1,1.3c0.3,0,0.7-1,1.1-2.9l1.6,0.9
					c-0.7,2.7-1.5,4.1-2.5,4.1c-0.7,0-1.5-0.5-2.1-1.5c-0.1-0.1-0.2-0.2-0.2-0.4c-0.7,0.9-1.5,1.6-2.3,2.1l-1.1-1.7
					c0.9-0.6,1.8-1.5,2.5-2.5c-0.2-0.7-0.4-1.4-0.6-2.3c-0.3-1.4-0.5-3.1-0.6-5.3h-7.4v-2H61.8z M60.9,236.8v5.2h-5.9v-5.2H60.9z
					 M59.1,238.4h-2.2v1.9h2.2V238.4z"/>
				<path class="st2" d="M93.2,234.2v2.1h-5.3c-0.6,0.4-1.1,0.7-1.7,1.1c0.8,0.9,1.5,1.9,2,3c1.9-0.8,3.7-1.9,5.5-3.5l1.6,1.5
					c-1.6,1.4-3.5,2.6-5.5,3.4c1.9,2,4.3,3.8,7.3,5.2l-1.2,2c-2.8-1.5-5-3.2-6.7-5.3c0,0.5,0.1,0.9,0.1,1.4c0,1.9-0.3,3.3-0.8,4
					c-0.6,0.8-2,1.3-4.2,1.3h-0.8l-0.8-2H84c1.3,0,2.2-0.2,2.5-0.6c0.4-0.5,0.6-1.4,0.6-2.7c0-0.2,0-0.5,0-0.7
					c-2.6,1.9-6,3.6-10.2,4.8l-1.1-1.9c4.7-1.3,8.3-3,10.9-5.1c-0.1-0.5-0.3-1-0.5-1.4c-2.3,1.7-5.3,3-9,4.1l-1.1-2
					c3.9-1,7-2.3,9.1-3.8c-0.2-0.3-0.5-0.6-0.7-0.9c-0.1,0-0.2,0.1-0.2,0.1c-1.6,0.7-3.8,1.5-6.6,2.4l-1.2-1.9
					c2.2-0.5,4.3-1.1,6.2-1.9c0.6-0.2,1.1-0.5,1.7-0.7H79v-2.1H93.2z M87.4,230.2h9v4.5h-2.3v-2.4h-16v2.4h-2.3v-4.5h9.3
					c-0.2-0.6-0.5-1.2-0.8-1.7l2.4-0.4C86.9,228.8,87.1,229.5,87.4,230.2z"/>
				<path class="st2" d="M118.7,237.8v9.4h-4.5c2.6,0.4,5.1,0.8,7.4,1.5l-0.7,1.8c-2.6-0.7-5.3-1.3-8.2-1.8l0.8-1.5h-5.7l1,1.3
					c-1.8,0.8-4.4,1.4-7.8,1.9l-1-1.7c3.1-0.4,5.5-0.9,7.2-1.5h-4.3v-9.4H118.7z M100.7,234.8l-0.7-2.2c2.9-1.3,5-2.7,6.3-4.4
					l1.9,0.9c-0.6,0.9-1.4,1.8-2.4,2.6v5.3h-2.2v-3.7C102.7,233.8,101.8,234.3,100.7,234.8z M116.5,240.6v-1.1h-11.4v1.1H116.5z
					 M116.5,243.1V242h-11.4v1.1H116.5z M116.5,244.5h-11.4v1.1h11.4V244.5z M112.9,236.8c-1.6,0-2.4-0.8-2.4-2.3v-6.2h2.2v2.3
					l7.5-0.5v2l-7.5,0.5v1.4c0,0.5,0.2,0.8,0.7,0.8h4.3c0.4,0,0.7-0.1,0.9-0.2c0.2-0.2,0.4-0.7,0.5-1.6l2.1,0.7
					c-0.2,1.4-0.5,2.3-1,2.6c-0.4,0.3-1.1,0.4-2,0.4H112.9z"/>
				<path class="st2" d="M139.9,249l-0.6-2.1l1.9,0.1c0.6,0,0.8-0.3,0.8-0.9V244h-5.5v6.5h-2.3V244h-5.5v4.8h-2.2V242h7.7v-1.5h-1.3
					l-0.5-1.7l1.1,0.1c0.4,0,0.6-0.2,0.6-0.7v-4.8h-2.5v6.8H130v-6.8h-2.7v7.1h-1.9v-8.9h2c-0.5-0.8-0.9-1.6-1.5-2.3l1.6-0.8
					c0.5,0.7,1,1.5,1.5,2.4l-1.3,0.6h2.2v-3.2h1.9v3.2h2.1l-1.3-0.7c0.6-0.8,1.1-1.6,1.4-2.4l1.7,0.8c-0.4,0.8-0.9,1.5-1.4,2.3h1.8
					v2.5c1.5-1.5,2.5-3.4,3-5.7l2.1,0.3c-0.2,0.7-0.4,1.3-0.6,1.9h5.3v1.9h-1c-0.5,1.8-1.2,3.3-2.2,4.5c1.1,0.8,2.4,1.4,3.7,2.1
					l-1.1,1.8c-1.5-0.7-2.9-1.5-4-2.4c-1.1,1-2.4,1.7-3.9,2.2l-1.1-1.7c1.3-0.4,2.5-1,3.5-1.8c-0.6-0.6-1.1-1.1-1.5-1.7l1-1.5
					c0.5,0.6,1.1,1.3,1.8,1.8c0.7-1,1.3-2.1,1.7-3.3h-3.1c-0.7,1.2-1.5,2.2-2.4,3.1l-1.2-1.6v4.5c0,1-0.4,1.6-1.1,1.8h1.6v1.6h7.7
					v4.7c0,1.6-0.8,2.4-2.4,2.4H139.9z M129.6,234.5c-0.1,1.6-0.3,3-0.6,4.2l-1.4-0.5c0.4-1.1,0.6-2.4,0.7-3.9L129.6,234.5z
					 M134.1,237.4l-1.4,0.4c-0.2-1.2-0.5-2.3-0.8-3.3l1.2-0.4C133.5,235,133.8,236.2,134.1,237.4z"/>
				<path class="st2" d="M159,235.3v-1.2h-9.2v-1.9h9.2v-1.3c-2.3,0.1-4.7,0.2-7.3,0.3l-0.4-1.8c6.2-0.2,11.8-0.5,16.6-1l0.7,1.8
					c-2.3,0.2-4.7,0.4-7.3,0.6v1.4h9.2v1.9h-9.2v1.2h7.4v8.3h-7.4v1.3h8.4v1.8h-8.4v1.4h9.6v1.9h-21.4V248h9.5v-1.4h-8.3v-1.8h8.3
					v-1.3h-7.3v-8.3H159z M159,238.5v-1.4h-5.2v1.4H159z M159,240.3h-5.2v1.5h5.2V240.3z M161.3,238.5h5.2v-1.4h-5.2V238.5z
					 M166.4,240.3h-5.2v1.5h5.2V240.3z"/>
				<path class="st2" d="M194.7,250h-2.2v-0.8h-15.3v0.8H175v-20.4h19.7V250z M192.5,247.2v-15.5h-15.3v15.5H192.5z M189.7,234.9
					v8.9h-9.6v-8.9H189.7z M187.5,236.8h-5.3v5.1h5.3V236.8z"/>
			</g>
			<g class="st0">
				<path class="st2" d="M3.7,273h5.1c0,4.1-0.1,6.8-0.4,8.2c-0.3,1.4-1.5,2.1-3.7,2.3c-0.7,0-1.4,0-2.1-0.1l-0.6-2.1
					c0.7,0,1.4,0.1,2.1,0.1c1.2,0,1.9-0.4,2.1-1.2c0.2-0.8,0.3-2.4,0.3-5H1.3l0.8-7.5h4.4v-3.3h-5v-2.1h7.2v7.5H4.2L3.7,273z
					 M14.8,270.7v-1.8H17v1.8h4.7v6.4H17v3.2c1-0.1,1.9-0.3,2.8-0.5c-0.2-0.6-0.4-1.1-0.6-1.6l1.9-0.5c0.9,1.8,1.5,3.5,2,5l-2.1,0.8
					c-0.2-0.7-0.4-1.3-0.6-1.9c-2.4,0.6-5.9,1.1-10.7,1.5l-0.3-2.3c2-0.1,3.8-0.2,5.4-0.4V277H10v-6.4H14.8z M22.9,268.3l-2.1,1
					c-0.2-0.5-0.5-1-0.7-1.4c-3,0.4-6.4,0.6-10.1,0.8l-0.4-2c1.1-0.3,2.7-2.1,4.7-5.4l2.3,0.8c-1.2,1.7-2.4,3.2-3.5,4.4
					c2-0.1,4-0.3,5.9-0.6c-0.4-0.7-0.9-1.4-1.3-2l1.9-0.9C20.7,264.6,21.8,266.3,22.9,268.3z M14.8,272.6h-2.7v2.4h2.7V272.6z
					 M19.6,272.6H17v2.4h2.6V272.6z"/>
				<path class="st2" d="M30.9,262.3v-1.1H33v1.1h3.3v1.6H33v1.1h4v1.8h-1.8v0.3c0,0.4,0.1,0.6,0.5,0.6h1.3v1.3h-2
					c-1.1,0-1.6-0.4-1.6-1v-1.2h-2.4c-0.5,1.1-1.3,2-2.4,2.8h2.3v-1.4H33v1.4h2.6v1.6H33v1.1c1.2-0.1,2.3-0.2,3.4-0.3v1.7
					c-2.9,0.3-6.1,0.6-9.5,0.9l-0.5-2c1.5,0,3-0.1,4.4-0.2v-1.2h-2.5v-1.4c-0.4,0.2-0.9,0.5-1.3,0.7l-0.9-1.8c1.5-0.5,2.4-1.1,3-1.9
					h-2.8V265h4.7v-1.1h-3.6v-1.6H30.9z M38,274.4c-0.1,0.5-0.2,0.9-0.3,1.3h8.2c0,3.2-0.3,5.3-0.8,6.2c-0.6,0.9-1.5,1.3-3,1.3
					c-1.2,0-2.1,0-2.9-0.1l-0.6-2.2c1.2,0.1,2.3,0.2,3.3,0.2c0.9,0,1.3-0.4,1.4-1.1c0.1-0.7,0.2-1.4,0.2-2.2h-6.7
					c-0.5,0.9-1.1,1.8-1.8,2.5c-1.4,1.3-3.9,2.4-7.5,3.1l-1-2.3c3.1-0.6,5.3-1.4,6.6-2.4c0.3-0.3,0.6-0.6,0.9-0.9h-7v-2.1h8.2
					c0.2-0.5,0.3-1,0.4-1.6L38,274.4z M43.9,273.8c-0.5-0.7-0.7-2-0.7-3.9v-4.2h-1.6c0,1.5-0.2,2.8-0.6,4c0.6,0.4,1.3,0.8,1.9,1.3
					l-1.1,1.7c-0.5-0.4-1-0.8-1.5-1.1c-0.6,1.1-1.3,2.1-2.2,2.9l-1.6-1.4c0.9-0.7,1.5-1.6,2-2.6c-0.6-0.4-1.2-0.7-1.8-0.9l1.1-1.6
					c0.5,0.2,0.9,0.4,1.4,0.7c0.2-0.9,0.3-1.8,0.3-2.9h-2.1v-2h2.1v-2.3h2.1v2.3h3.5v6.3c0,1.8,0.2,2.7,0.5,2.7c0.2,0,0.4-1,0.6-3
					l1.7,0.8c-0.2,1.6-0.5,2.7-0.8,3.4c-0.4,0.6-0.9,0.9-1.5,0.9C44.9,274.9,44.4,274.5,43.9,273.8z"/>
				<path class="st2" d="M55.9,283.4h-2.2v-11.1c-0.7,2-1.6,3.8-2.6,5.5l-1-2.5c1.6-2.1,2.8-4.5,3.5-7.3h-3v-2.2h3v-4.5h2.2v4.5h2.4
					v2.2h-2.4v1.1c1,1.1,1.9,2.2,2.9,3.4c1.9-0.8,3.6-1.6,5-2.6c-0.9-0.8-1.6-1.7-2.2-2.5c-0.5,0.6-1.1,1.2-1.7,1.8l-1.4-1.8
					c1.6-1.5,3-3.5,4.2-6.2l2.2,0.5c-0.2,0.5-0.5,1.1-0.7,1.5h6.5v1.8c-0.8,1.8-2,3.5-3.5,4.9c1.6,1,3.4,1.8,5.4,2.6l-1,2.2
					c-2.4-1-4.4-2.1-6-3.4c-1.5,1.1-3.2,2.1-5.2,2.9h10.2v9.2h-2.2v-0.9h-5.9v0.9h-2.2v-9.1c-0.4,0.1-0.8,0.3-1.1,0.4l-0.7-0.9
					l-0.6,0.8c-0.7-1.2-1.3-2.2-1.8-3V283.4z M68.2,280.4v-4.1h-5.9v4.1H68.2z M68.1,265.5h-5.2c-0.1,0.1-0.1,0.2-0.2,0.3
					c0.7,1.1,1.6,2,2.7,2.9C66.5,267.7,67.4,266.6,68.1,265.5z"/>
				<path class="st2" d="M80.1,270.1H96c0,6-0.1,9.7-0.4,11.2c-0.2,1.4-1.3,2.1-3.3,2.1c-0.6,0-1.5,0-2.9-0.1l-0.5-1.9
					c1.2,0.1,2.2,0.1,3,0.1c0.9,0,1.4-0.4,1.6-1.2c0.1-0.8,0.2-3.5,0.2-8.2H80.1c-0.1,4.4-1.2,8.1-3.3,11.3l-1.8-1.6
					c1.9-2.6,2.9-5.9,2.9-10v-9.6h17v6.3H80.1V270.1z M80.1,264.2v2.1h12.6v-2.1H80.1z M90.7,273.8v6.4h-8.9v-6.4H90.7z M88.7,275.6
					h-4.8v2.6h4.8V275.6z"/>
				<path class="st2" d="M113.1,270.1c0.6,0.6,1,1.3,1,2.3c0,0.9-0.3,1.6-1,2.3s-1.4,0.9-2.3,0.9s-1.7-0.3-2.3-0.9
					c-0.7-0.6-1-1.3-1-2.3s0.3-1.7,1-2.3c0.6-0.6,1.4-0.9,2.3-0.9S112.5,269.5,113.1,270.1z M109.6,271.2c-0.3,0.3-0.5,0.7-0.5,1.1
					c0,0.4,0.1,0.8,0.5,1.1c0.3,0.3,0.7,0.5,1.2,0.5c0.4,0,0.8-0.2,1.2-0.5c0.3-0.3,0.5-0.7,0.5-1.1c0-0.5-0.2-0.8-0.5-1.1
					c-0.3-0.3-0.7-0.5-1.2-0.5C110.3,270.8,109.9,270.9,109.6,271.2z"/>
			</g>
		</g>
		<g id="Group" transform="translate(252.000000, 0.000000)">
			<g class="st0">
				<path class="st3" d="M66.7,95h5.1c0,4.1-0.1,6.8-0.4,8.2c-0.3,1.4-1.5,2.1-3.7,2.3c-0.7,0-1.4,0-2.1-0.1l-0.6-2.1
					c0.7,0,1.4,0.1,2.1,0.1c1.2,0,1.9-0.4,2.1-1.2c0.2-0.8,0.3-2.4,0.3-5h-5.3l0.8-7.5h4.4v-3.3h-5v-2.1h7.2v7.5h-4.6L66.7,95z
					 M77.8,92.7v-1.8H80v1.8h4.7V99H80v3.2c1-0.1,1.9-0.3,2.8-0.5c-0.2-0.6-0.4-1.1-0.6-1.6l1.9-0.5c0.9,1.8,1.5,3.5,2,5l-2.1,0.8
					c-0.2-0.7-0.4-1.3-0.6-1.9c-2.4,0.6-5.9,1.1-10.7,1.5l-0.3-2.3c2-0.1,3.8-0.2,5.4-0.4V99H73v-6.4H77.8z M85.9,90.3l-2.1,1
					c-0.2-0.5-0.5-1-0.7-1.4c-3,0.4-6.4,0.6-10.1,0.8l-0.4-2c1.1-0.3,2.7-2.1,4.7-5.4l2.3,0.8c-1.2,1.7-2.4,3.2-3.5,4.4
					c2-0.1,4-0.3,5.9-0.6c-0.4-0.7-0.9-1.4-1.3-2l1.9-0.9C83.7,86.6,84.8,88.3,85.9,90.3z M77.8,94.6h-2.7V97h2.7V94.6z M82.6,94.6
					H80V97h2.6V94.6z"/>
				<path class="st3" d="M95.4,84.2c-0.4,1.5-1,3-1.7,4.4v17h-2.3V92.4c-0.7,1-1.4,1.9-2.2,2.8l-0.7-2.3c2.2-2.8,3.7-6,4.8-9.7
					L95.4,84.2z M108.8,92.5v9.5h-3.5c1.9,0.4,3.8,0.9,5.5,1.6l-0.8,1.8c-2-0.8-4-1.5-6.2-1.9l0.8-1.5h-4.1l1,1.2
					c-1.7,0.9-3.8,1.7-6.3,2.4l-0.9-1.8c2.2-0.4,4-1,5.5-1.7h-3.5v-9.5H108.8z M103.8,83.3v1.2h6.1v1.8h-6.1v0.9h5.3V89h-5.3v1h6.7
					v1.8H95.2V90h6.4v-1h-5.1v-1.8h5.1v-0.9h-5.9v-1.8h5.9v-1.2H103.8z M106.8,95.2v-1h-8.2v1H106.8z M106.8,97.8v-1h-8.2v1H106.8z
					 M106.8,99.4h-8.2v1h8.2V99.4z"/>
				<path class="st3" d="M118.2,98.1v-1.2c-1.2,0.9-2.4,1.6-3.7,2.3l-1.2-1.9c2.3-1,4.2-2.3,5.8-3.9h-5v-2.1h6.6
					c0.5-0.7,0.9-1.4,1.2-2.2h-6.6v-2h3.5c-0.5-1.2-1.1-2.2-1.7-3.1l2-0.6c0.6,1,1.2,2.1,1.7,3.2l-1.2,0.6h3.2
					c0.4-1.2,0.7-2.5,0.9-3.9l2.3,0.3c-0.2,1.3-0.5,2.5-0.9,3.6h4.2l-1.1-0.6c0.7-1,1.3-2,1.8-3.3l1.9,0.7c-0.5,1.2-1.1,2.3-1.8,3.2
					h3.4v2h-9.2c-0.3,0.7-0.7,1.5-1.1,2.2h11.6v2.1h-4.7c1.2,1.4,3,2.7,5.5,3.8l-1.5,1.8c-1.2-0.7-2.3-1.4-3.2-2.2
					c-0.1,1.9-0.2,3.5-0.3,4.7c-0.2,1.4-0.5,2.4-1,2.9c-0.5,0.5-1.2,0.8-2.1,0.9h-3.8l-0.6-2.1c1.2,0,2.3,0.1,3.3,0.1
					c0.9,0,1.5-0.3,1.8-1c0.3-0.7,0.5-2.1,0.6-4.2h-5.4c-0.5,1.7-1.1,3.1-1.9,4.1c-1,1.2-2.6,2.4-4.6,3.3l-1.4-1.8
					c1.8-0.8,3.2-1.7,4.2-2.6c0.7-0.8,1.3-1.8,1.7-3H118.2z M119.2,96H130c-1-0.9-1.7-1.8-2.3-2.7h-5.9
					C121,94.2,120.1,95.2,119.2,96z"/>
			</g>
			<path id="Fill-1" class="st3" d="M126.5,20.6c-0.6-1.4-1.3-2.7-3-3.7c0,0-0.8,1.6-0.2,2.5C123.9,20.3,126.5,20.6,126.5,20.6
				 M116,38.5c-1.5,0.4-3.1,0.5-4.7-0.5c0,1-0.1,1.9-0.1,2.9c0,0-2.2,4.3-2.8,4.7c-0.6,0.4-2.3-0.7-2.7-0.3c-0.4,0.4,0.7,4.6,1.5,5
				c0.7,0.4,4.5-1.7,4.6-3.1c0.1-1.4,0.5-3.3,1.2-4.3c0.7-1,3.3-1.9,3.4-2.6C116.4,39.6,116,38.5,116,38.5 M90.2,50.6
				c0,0-0.9,2.7,0.2,3.2c1.2,0.5,3.5,1.1,3.6,2.2c0.1,1.2,0.1,2.7,0.8,3.4c0.7,0.7,0.3,3,0.3,3l5.8-0.1c0,0,0.6-4-0.9-4.8
				c-1.5-0.8-2.6-1.8-3.6-2.9c-1-1.1-1.9-2.8-1.9-2.8s3.2-0.2,3.2-2.5c0-2.2,2.8-4,2.4-5.3c-0.3-1.3-0.3-2.9-0.3-2.9
				c-1.1,1-2.4,1.4-4,1C95.6,48.4,93.7,49.2,90.2,50.6 M131.1,21.8c0,0,2.6,1,2.8,1.5c0.2,0.5,0.3,3.9-2.2,5.4
				c-2.6,1.5-4.9,0.5-4.9,0.5l-1.8-2.7c0,0-4.6-0.3-7.2-1.4c-0.5-0.2-0.9-0.5-1.2-0.9c0.2,1.8,0.9,3.8,3.2,4.8
				c4.6,2.2,5.2,3,4.6,4.9c-0.6,1.9-2.3,9.1-1.4,9.7c0.9,0.6,0.5,5.4-0.8,6.4c-1.3,1-5.3-3.2-5.3-3.2s2.8-2.5,2.9-2.9
				c0.1-0.4-0.9-1.6-0.5-2c0.4-0.3,1.8-4.2,1.4-5.2c-0.4-1.1-0.6-1.5-0.6-1.5s-2.1,1.8-6.9,1.8c-4.8,0-8-4.4-8-4.4
				c-0.1-0.1-0.2-0.2-0.3-0.2c-1.3-1.3-1.6-4.6-1.6-4.6l-0.9,0.2c0,0-0.4,2.3,0.4,3.9c0.4,0.9,1.3,2.2,1.9,3
				c-2.7,0.8-5.5,1.5-5.5,1.5s0.3,2.7-0.2,3.5c-0.2,0.4-2.8,0.3-5.5,0.2c0.6,1,0.9,2.5,0.6,4.4c-0.9,4.7-10,6.5-10,6.5
				s0.4,5.2,1.2,6.2c0.8,1.1,1.7,1.8,1.7,3.9c0,2.1,0.7,4.3,0.7,4.3s-5.6,0.8-6-0.1c-0.5-0.9,1.7-2.9,1.3-4c-0.5-1.1-1.9,0.4-2-0.3
				c-0.1-0.7,0.9-3.6,0.5-4.2c-0.3-0.6-0.9-4.4-2.5-5.8c-1.6-1.4-1.4-3.3-0.2-3.7c1.2-0.5,3.6-1.1,3.7-2.8c0-0.3-0.2-0.6-0.5-0.9
				c-5.8-0.2-9.6-4.1-10.6-8.3c-1.8,1-4.3,2.8-3.2,4.6c0.8,1.3,2.1,2.3,3.3,3.3c2.3,1.9,5.6,4.9,4.3,7.9c-2,4.2-7.7,5.9-7.7,5.9
				c-2.4-1.8-2.8-4.2-1.1-7.4c0,0,4.5,2.6,6-0.7c0.8-1.7-0.8-2.9-2.5-4.3c-1.3-1.1-2.8-2.2-3.7-3.8c-2-3.4,2.1-6.2,4.4-7.4
				c-0.1-2.8,1.2-5.5,4-7.1c2.7,0.4,3.7-1.8,3.9-4.2c0.2-3.1,9.3-2.7,11.6-4.3c4.1-3,8.8-13.6,16.2-15.1c2.5-0.3,10.9,2.5,14.6,5.4
				l0.1-0.3c0.3,0.2,0.7,0.4,1,0.6c3.4-1.9,5.1-3,5.8-8.7l1,0.1c0.7,5.2-0.7,8.4-3,10.9c0.4,0,0.8,0.1,1.3,0.2
				c0.8-0.2,1.5-0.5,1.9-0.7c1.5-1.1,2.1-6.2,2.1-6.2l0.9,0.3c0,0,0.8,5.2-1.2,7.7c0.6,0.3,1,0.7,1.1,1.1c0.5,2.1-1.3,3.6-1.3,3.6
				l-1.1-1.2l-1,0.6l-0.3-0.2C129.8,17.9,130.6,19.9,131.1,21.8"/>
			<g class="st0">
				<path class="st2" d="M5,151.5c-0.6,2.4-1.4,4.5-2.4,6.3l-1.9-1.2c1-1.7,1.8-3.6,2.2-5.6L5,151.5z M1.2,145.8v-2.1h2.5
					c-0.3-0.8-0.6-1.6-1-2.4l2-0.7c0.4,0.9,0.7,1.9,1.1,3.1H8c0.4-1,0.7-2,1-3.1l2,0.7c-0.3,0.9-0.6,1.7-1,2.4h2.5v2.1H8v2.1h4.1
					v2.1H8v8.6H5.7V150H1.5v-2.1h4.2v-2.1H1.2z M5.7,138.2c-0.3-0.6-0.6-1.2-1-1.8l2.4-0.4c0.3,0.6,0.6,1.3,0.9,2.1h4.4v2.1h-11
					v-2.1H5.7z M11.9,155l-1.9,0.7c-0.4-1.5-0.8-2.9-1.4-4.3l1.9-0.5C11.1,152.4,11.6,153.8,11.9,155z M22.6,138.6
					c-2.1,0.7-4.4,1.1-6.9,1.3v3.9h7.4v2.2h-2.3v12.6h-2.2v-12.6h-2.9v2.4c-0.1,4.2-1,7.6-2.8,10.1l-1.6-1.7c1.4-2,2.1-4.8,2.2-8.4
					V138c2.9,0,5.6-0.6,7.9-1.5L22.6,138.6z"/>
				<path class="st2" d="M41.3,151h2.3l0.1-2.8H42v-1.9h1.8l0.1-2.5h-2V142H44l0.1-2.8h-2.3V137h4.4l-0.5,14h1.7v2.2h-6.9
					c2.5,0.9,4.7,2,6.8,3.3l-1.3,2c-2.3-1.6-4.7-2.9-7.2-3.8l1-1.5h-14V151h1.8l-0.6-13.3c1.3-0.2,2.7-0.7,4-1.4l0.8,1.9
					c-0.6,0.3-1.4,0.6-2.6,1l0.1,2.8h2v1.9h-1.9l0.1,2.4h1.9v1.9h-1.8l0.1,2.8h2.2v-13.9h9.2V151z M34.5,154.7
					c-1.8,1.4-4.1,2.7-6.9,3.8l-1.4-1.8c2.7-1,4.9-2.1,6.8-3.3L34.5,154.7z M39.4,151v-12H34v12H39.4z M38.7,140.3v1.6h-3.9v-1.6
					H38.7z M38.6,143.2v6.7h-3.8v-6.7H38.6z M37.2,144.7h-1v3.6h1V144.7z"/>
				<path class="st2" d="M71.5,158.5h-2.3v-0.9H53.5v0.9h-2.3v-21.3h20.3V158.5z M69.3,155.5v-16.2H53.5v16.2H69.3z M61.1,152.7
					c-1.9,0.4-4,0.8-6.3,1.1l-0.3-1.9c2.5-0.2,4.7-0.5,6.6-0.9V152.7z M61.8,141.5c0-0.6,0-1.2,0-1.8h2c0,0.6,0,1.2,0,1.8h1.8
					c-0.2-0.6-0.5-1.1-0.7-1.5l1.8-0.3c0.2,0.5,0.4,1.2,0.6,1.8h1.2v2h-4.6c0,1.7,0.2,3.1,0.4,4.1c0,0.4,0.1,0.7,0.1,1.1
					c0.6-1.3,1.2-2.8,1.6-4.4l1.7,0.9c-0.7,2.5-1.6,4.6-2.6,6.3c0,0,0,0.1,0,0.1c0.3,0.9,0.7,1.3,1,1.3c0.3,0,0.7-1,1.1-2.9l1.6,0.9
					c-0.7,2.7-1.5,4.1-2.5,4.1c-0.7,0-1.5-0.5-2.1-1.5c-0.1-0.1-0.2-0.2-0.2-0.4c-0.7,0.9-1.5,1.6-2.3,2.1l-1.1-1.7
					c0.9-0.6,1.8-1.5,2.5-2.5c-0.2-0.7-0.4-1.4-0.6-2.3c-0.3-1.4-0.5-3.1-0.6-5.3h-7.4v-2H61.8z M60.9,144.8v5.2h-5.9v-5.2H60.9z
					 M59.1,146.4h-2.2v1.9h2.2V146.4z"/>
				<path class="st2" d="M93.2,142.2v2.1h-5.3c-0.6,0.4-1.1,0.7-1.7,1.1c0.8,0.9,1.5,1.9,2,3c1.9-0.8,3.7-1.9,5.5-3.5l1.6,1.5
					c-1.6,1.4-3.5,2.6-5.5,3.4c1.9,2,4.3,3.8,7.3,5.2l-1.2,2c-2.8-1.5-5-3.2-6.7-5.3c0,0.5,0.1,0.9,0.1,1.4c0,1.9-0.3,3.3-0.8,4
					c-0.6,0.8-2,1.3-4.2,1.3h-0.8l-0.8-2H84c1.3,0,2.2-0.2,2.5-0.6c0.4-0.5,0.6-1.4,0.6-2.7c0-0.2,0-0.5,0-0.7
					c-2.6,1.9-6,3.6-10.2,4.8l-1.1-1.9c4.7-1.3,8.3-3,10.9-5.1c-0.1-0.5-0.3-1-0.5-1.4c-2.3,1.7-5.3,3-9,4.1l-1.1-2
					c3.9-1,7-2.3,9.1-3.8c-0.2-0.3-0.5-0.6-0.7-0.9c-0.1,0-0.2,0.1-0.2,0.1c-1.6,0.7-3.8,1.5-6.6,2.4l-1.2-1.9
					c2.2-0.5,4.3-1.1,6.2-1.9c0.6-0.2,1.1-0.5,1.7-0.7H79v-2.1H93.2z M87.4,138.2h9v4.5h-2.3v-2.4h-16v2.4h-2.3v-4.5h9.3
					c-0.2-0.6-0.5-1.2-0.8-1.7l2.4-0.4C86.9,136.8,87.1,137.5,87.4,138.2z"/>
				<path class="st2" d="M118.7,145.8v9.4h-4.5c2.6,0.4,5.1,0.8,7.4,1.5l-0.7,1.8c-2.6-0.7-5.3-1.3-8.2-1.8l0.8-1.5h-5.7l1,1.3
					c-1.8,0.8-4.4,1.4-7.8,1.9l-1-1.7c3.1-0.4,5.5-0.9,7.2-1.5h-4.3v-9.4H118.7z M100.7,142.8l-0.7-2.2c2.9-1.3,5-2.7,6.3-4.4
					l1.9,0.9c-0.6,0.9-1.4,1.8-2.4,2.6v5.3h-2.2v-3.7C102.7,141.8,101.8,142.3,100.7,142.8z M116.5,148.6v-1.1h-11.4v1.1H116.5z
					 M116.5,151.1V150h-11.4v1.1H116.5z M116.5,152.5h-11.4v1.1h11.4V152.5z M112.9,144.8c-1.6,0-2.4-0.8-2.4-2.3v-6.2h2.2v2.3
					l7.5-0.5v2l-7.5,0.5v1.4c0,0.5,0.2,0.8,0.7,0.8h4.3c0.4,0,0.7-0.1,0.9-0.2c0.2-0.2,0.4-0.7,0.5-1.6l2.1,0.7
					c-0.2,1.4-0.5,2.3-1,2.6c-0.4,0.3-1.1,0.4-2,0.4H112.9z"/>
				<path class="st2" d="M139.9,157l-0.6-2.1l1.9,0.1c0.6,0,0.8-0.3,0.8-0.9V152h-5.5v6.5h-2.3V152h-5.5v4.8h-2.2V150h7.7v-1.5h-1.3
					l-0.5-1.7l1.1,0.1c0.4,0,0.6-0.2,0.6-0.7v-4.8h-2.5v6.8H130v-6.8h-2.7v7.1h-1.9v-8.9h2c-0.5-0.8-0.9-1.6-1.5-2.3l1.6-0.8
					c0.5,0.7,1,1.5,1.5,2.4l-1.3,0.6h2.2v-3.2h1.9v3.2h2.1l-1.3-0.7c0.6-0.8,1.1-1.6,1.4-2.4l1.7,0.8c-0.4,0.8-0.9,1.5-1.4,2.3h1.8
					v2.5c1.5-1.5,2.5-3.4,3-5.7l2.1,0.3c-0.2,0.7-0.4,1.3-0.6,1.9h5.3v1.9h-1c-0.5,1.8-1.2,3.3-2.2,4.5c1.1,0.8,2.4,1.4,3.7,2.1
					l-1.1,1.8c-1.5-0.7-2.9-1.5-4-2.4c-1.1,1-2.4,1.7-3.9,2.2l-1.1-1.7c1.3-0.4,2.5-1,3.5-1.8c-0.6-0.6-1.1-1.1-1.5-1.7l1-1.5
					c0.5,0.6,1.1,1.3,1.8,1.8c0.7-1,1.3-2.1,1.7-3.3h-3.1c-0.7,1.2-1.5,2.2-2.4,3.1l-1.2-1.6v4.5c0,1-0.4,1.6-1.1,1.8h1.6v1.6h7.7
					v4.7c0,1.6-0.8,2.4-2.4,2.4H139.9z M129.6,142.5c-0.1,1.6-0.3,3-0.6,4.2l-1.4-0.5c0.4-1.1,0.6-2.4,0.7-3.9L129.6,142.5z
					 M134.1,145.4l-1.4,0.4c-0.2-1.2-0.5-2.3-0.8-3.3l1.2-0.4C133.5,143,133.8,144.2,134.1,145.4z"/>
				<path class="st2" d="M160.1,138.3v2.2h-3.5v4.6h2.5v1.5c1.6-2.9,2.6-6.3,3.2-10.3l2.2,0.2c-0.2,1.2-0.4,2.4-0.7,3.5h7.1v2.2
					h-1.6c-0.2,3.9-1.1,7.2-2.8,9.9c1.4,1.9,3.1,3.4,5,4.4l-1.3,1.9c-2-1.1-3.7-2.5-5.1-4.5c-1.6,1.8-3.6,3.3-6.1,4.5l-1.4-1.9
					c2.6-1.1,4.7-2.6,6.3-4.6c-0.9-1.7-1.7-3.6-2.3-5.6c-0.5,0.9-1,1.8-1.5,2.6l-1.3-1.7h-2.1v5.6c1.2-0.3,2.3-0.7,3.3-1.1v2.1
					c-3,1.1-6.4,2-10.2,2.9l-0.6-2.1c0.5-0.1,1-0.2,1.4-0.3v-11h2.1v10.5c0.6-0.1,1.2-0.3,1.8-0.5v-12.9h-4.7v-2.2H160.1z
					 M167.1,142.2h-3.9c-0.4,1.2-0.8,2.3-1.3,3.3l1.1-0.6c0.6,1.9,1.2,3.6,2.1,5.2C166.3,147.8,167,145.2,167.1,142.2z"/>
				<path class="st2" d="M175.9,142.5l-2-1.2c1.5-1.6,2.5-3.3,3.2-5.2l2.2,0.5c-0.2,0.6-0.4,1.1-0.6,1.6h5.7v2h-3.5
					c0.5,0.7,0.9,1.4,1.2,2.1L180,143c-0.4-1-1-1.9-1.5-2.8h-0.9C177.1,141,176.5,141.8,175.9,142.5z M183.7,143.3v-1.4h2.1
					l-1.3-0.8c1.1-1.5,1.8-3.2,2.2-4.9l2.2,0.5c-0.1,0.5-0.3,1.1-0.5,1.5h6.9v2h-4.1c0.5,0.7,0.9,1.4,1.2,2.1l-2,0.8
					c-0.4-1-0.9-1.9-1.5-2.8h-1.3c-0.4,0.8-0.8,1.5-1.2,2.1L186,142v1.3h9.5v2.1H186v1.4h7.9v4.7c0,1.3-0.7,2-2.2,2h-1.6l-0.6-2
					l1.6,0.1c0.4,0,0.6-0.2,0.6-0.6v-2.2H186v1.9c2.5,2.3,5.9,4,10.1,5.3l-1.2,2.1c-3.4-1.3-6.4-3-8.9-5.2v5.7h-2.3v-5.6
					c-2.4,2.3-5.1,4-8.2,5.3l-1.4-2c3.7-1.3,6.9-3.1,9.5-5.5v-1.9h-5.2v4.6h-2.2v-6.6h7.5v-1.4h-9.5v-2.1H183.7z"/>
			</g>
			<g class="st0">
				<path class="st2" d="M1.6,181.1l-0.7-2.3c2-2.7,3.6-5.9,4.5-9.5l2,1c-0.5,1.7-1.1,3.2-1.8,4.8v14.4c1.4-2.5,2.2-5.9,2.3-10.2
					v-8.6c4.9,0,9.3-0.4,13.2-1l1,1.8c-3.6,0.5-7.6,0.8-12.1,0.9v1h12.1v5.4H10v0.5c-0.1,5-1.1,9-3,12l-1.4-1.5v1.8H3.5v-12.8
					C2.9,179.5,2.2,180.3,1.6,181.1z M20,176.9v-1.8H10v1.8H20z M19.4,191.4l-0.5-1.7l0.9,0.1c0.3,0,0.5-0.2,0.5-0.5v-2.9h-1.7v4.6
					H17v-4.6h-1.6v4.6h-1.6v-4.6h-1.7v5h-1.9V180h12.2v9.8c0,1.1-0.6,1.6-1.9,1.6H19.4z M13.8,184.6v-2.8h-1.7v2.8H13.8z
					 M15.4,184.6H17v-2.8h-1.6V184.6z M18.6,184.6h1.7v-2.8h-1.7V184.6z"/>
				<path class="st2" d="M37.3,169.5c-0.3,1.1-0.6,2.1-1.1,3.1h10.3v16c0,1.8-0.8,2.7-2.4,2.7h-3.6l-0.6-2.3l3.4,0.1
					c0.6,0,0.9-0.3,0.9-1v-13.3H29.4v16.6h-2.3v-18.8h6.6c0.5-1.1,0.9-2.2,1.2-3.4L37.3,169.5z M41.3,177.7v8.8h-9.2v-8.8H41.3z
					 M39.1,179.9h-4.8v4.5h4.8V179.9z"/>
				<path class="st2" d="M69.2,189.2c0.3,0,0.5-0.1,0.6-0.2c0.1-0.2,0.2-0.8,0.3-1.7l2.1,0.7c-0.2,1.6-0.5,2.5-0.8,2.9
					c-0.4,0.3-1,0.4-1.8,0.4h-4.9c-1.6,0-2.4-0.8-2.4-2.3v-2.1h-3.2c-0.5,1.2-1.1,2.1-1.8,2.7c-0.9,0.8-2.8,1.5-5.5,1.9l-0.8-2
					c2.2-0.2,3.8-0.6,4.7-1.2c0.4-0.3,0.8-0.7,1.2-1.3h-3v-9.4h14.5v9.4h-0.9c0.7,0.4,1.3,0.9,1.8,1.3l-1.1,1.1H69.2z M62.3,170.7
					h9.1v4.2h-2v1.4h-4.8v0.8h-2v-3.8h2v1.2h4.6v-1.7H53.5v1.8h4.2v-1.2h2v3.7h-2v-0.7h-4.7v-1.4h-1.8v-4.2h8.6
					c-0.2-0.4-0.5-0.7-0.7-1.1l2.4-0.4C61.8,169.7,62.1,170.2,62.3,170.7z M66.4,180.1v-1H56.1v1H66.4z M66.4,182.6v-1H56.1v1H66.4z
					 M66.4,184.1H56.1v1h10.2V184.1z M64.6,186.8v1.6c0,0.5,0.3,0.8,0.8,0.8h2.4c-0.5-0.5-1.2-1-2-1.6l0.8-0.8H64.6z"/>
				<path class="st2" d="M79.3,181.5v-1.6h2.2v1.6h3v2h-3v0.6c1.1,0.7,2.2,1.6,3.3,2.5l-1.1,1.8c-0.9-1-1.6-1.8-2.2-2.3v5.2h-2.2
					V186c-0.9,1.4-2.1,2.7-3.5,3.9l-0.9-2.3c1.9-1.2,3.3-2.6,4.2-4.1h-3.4v-2H79.3z M86.5,170.9h-7.3v0.8h6.5v1.1h-6.5v0.7h6.5v1.1
					h-6.5v0.7H87v1.5h-1.8c0.5,0.8,0.9,1.7,1.3,2.5l-1.8,0.8c-0.2-0.5-0.4-0.9-0.6-1.3c-2.5,0.4-5.1,0.6-7.8,0.7l-0.4-1.5
					c0.4,0,0.9-0.5,1.4-1.3h-2.3v-1.5h1.8v-5.7h9.6V170.9z M78.7,178.1c1.7-0.1,3.3-0.3,4.9-0.5c-0.1-0.3-0.3-0.5-0.4-0.7h-3.6
					C79.3,177.4,79,177.7,78.7,178.1z M88.8,181.3c-0.8,2.1-1.8,3.8-3.1,4.9l-1.6-1.4c1.3-1.1,2.3-2.4,2.9-4.2L88.8,181.3z
					 M95.8,190.5l-2,0.9c-0.2-0.5-0.5-1-0.7-1.5c-2.3,0.5-4.8,0.9-7.6,1.1l-0.4-2c1-0.3,2.3-2.1,4-5.4l2,0.7
					c-0.9,1.8-1.9,3.3-2.9,4.6c1.3-0.2,2.7-0.4,4-0.6c-0.5-0.8-1-1.5-1.4-2.2l1.8-0.6C93.8,187,94.8,188.7,95.8,190.5z M94.6,170
					c-1.4,1.5-3.6,2.8-6.5,3.7l-1-1.8c2.7-0.7,4.6-1.7,5.9-2.9L94.6,170z M97,175.5c-1.8,1.9-4.7,3.4-8.5,4.5l-1-1.8
					c3.6-0.9,6.2-2.2,7.8-3.8L97,175.5z M95.8,172.7c-1.6,1.7-4,3-7.3,4l-1-1.7c3-0.8,5.2-1.9,6.6-3.3L95.8,172.7z M93.4,180.3
					c0.6,1.8,1.8,3.1,3.4,4.2l-1.3,1.8c-1.4-1.1-2.5-2.4-3.3-4.1h-2.6v-2H93.4z"/>
				<path class="st2" d="M112.3,179.1c0.4,0.5,0.6,1.2,0.6,2c0,1.2-0.4,2.3-1.1,3.2s-1.7,1.5-2.9,1.8v-1.5c0.6-0.2,1.2-0.6,1.6-1.1
					c0.4-0.6,0.6-1.1,0.6-1.7c-0.1,0-0.3,0.1-0.6,0.1c-0.5,0-0.9-0.2-1.2-0.5s-0.5-0.8-0.5-1.3c0-0.5,0.2-1,0.5-1.3
					c0.3-0.3,0.8-0.5,1.4-0.5C111.4,178.4,111.9,178.6,112.3,179.1z"/>
				<path class="st2" d="M129.5,191.5l-1.7-1.5c1.4-1.5,2.2-3.4,2.2-5.7v-4.8c-1.2,1.4-2.6,2.8-4.2,4.1l-1.5-1.9
					c2.8-2.2,5-4.8,6.6-7.6h-6v-2.2h7c0.4-0.9,0.7-1.7,1-2.6l2.3,0.3c-0.2,0.8-0.5,1.6-0.8,2.4h11.6v2.2h-12.6
					c-0.4,0.8-0.8,1.6-1.3,2.3h11v12.9c0,1.4-0.8,2.1-2.4,2.1h-2.4l-0.5-2c0.8,0,1.6,0.1,2.3,0.1c0.6,0,0.9-0.3,0.9-1v-2H132
					C131.6,188.4,130.8,190.1,129.5,191.5z M132.2,184.1c0,0.1,0,0.2,0,0.3h9v-2.1h-9V184.1z M141.1,178.3h-9v2.1h9V178.3z"/>
				<path class="st2" d="M154,175.6v-2.7c-1.2,0.2-2.4,0.4-3.7,0.5l-0.7-2.1c4-0.3,7.2-1,9.6-2l1.1,1.9c-1.3,0.5-2.7,0.9-4.1,1.3
					v3.1h4.3v2.2h-4.3v0.8c1.5,1.2,3,2.6,4.5,4.1l-1.3,2c-1.2-1.6-2.3-2.9-3.2-3.8v10.5H154v-9.8c-1.1,2-2.4,3.9-4.1,5.6l-1-2.7
					c2.3-2,4-4.2,5.1-6.7v-0.1h-4.5v-2.2H154z M164.5,171.6v14.7h-2.3v-14.7H164.5z M164.1,191.3l-0.5-2.2c1.1,0.1,2.2,0.1,3.3,0.1
					c0.6,0,0.9-0.4,0.9-1.1v-18.7h2.3v19.3c0,1.7-0.8,2.6-2.4,2.6H164.1z"/>
				<path class="st2" d="M183.7,173.5v-4.2h2.3v4.2h9.2v2.2h-7.4c1.6,3.6,4.3,6.8,8.2,9.7l-1.6,2c-4-3.5-6.8-7.3-8.4-11.6h0v8.8h4.9
					v2.2H186v4.7h-2.3v-4.7H179v-2.2h4.8v-8.8h0c-1.7,4.8-4.7,8.8-8.7,12l-1.3-2.1c3.8-2.5,6.6-5.8,8.3-9.8h-7.4v-2.2H183.7z"/>
			</g>
			<g class="st0">
				<path class="st2" d="M3.8,208.5v-6.1h2.3v6.1h2.5v2.2H6.1v7.2c1-0.4,1.9-0.8,2.9-1.2v2.3c-2.4,1.1-4.9,2-7.6,2.7l-0.6-2.3
					c1-0.2,2-0.4,3-0.7v-8H1.2v-2.2H3.8z M17.4,202.3v5.3l5-1.5c0,3.1-0.4,6.5-1.2,9.9l-2.1-0.6c0.5-1.8,0.8-4,1.1-6.4l-2.8,0.8v9.5
					h-2.2v-8.9l-2.5,0.7v9.5c0,0.8,0.4,1.2,1.1,1.2h5.9c0.4,0,0.7-0.2,0.9-0.5c0.2-0.3,0.4-1.4,0.5-3.2l2.1,0.7
					c-0.2,2.5-0.5,4-1,4.5c-0.5,0.5-1.1,0.7-2,0.7h-7c-1.8,0-2.7-1-2.7-2.9v-9.3L9,212.3V210l1.5-0.4v-4.8h2.2v4.2l2.5-0.7v-5.9
					H17.4z"/>
				<path class="st2" d="M44.6,211.8v9.4h-4.5c2.6,0.4,5.1,0.8,7.4,1.5l-0.7,1.8c-2.6-0.7-5.3-1.3-8.2-1.8l0.8-1.5h-5.7l1,1.3
					c-1.8,0.8-4.4,1.4-7.8,1.9l-1-1.7c3.1-0.4,5.5-0.9,7.2-1.5h-4.3v-9.4H44.6z M26.6,208.8l-0.7-2.2c2.9-1.3,5-2.7,6.3-4.4l1.9,0.9
					c-0.6,0.9-1.4,1.8-2.4,2.6v5.3h-2.2v-3.7C28.6,207.8,27.7,208.3,26.6,208.8z M42.4,214.6v-1.1H31v1.1H42.4z M42.4,217.1V216H31
					v1.1H42.4z M42.4,218.5H31v1.1h11.4V218.5z M38.8,210.8c-1.6,0-2.4-0.8-2.4-2.3v-6.2h2.2v2.3l7.5-0.5v2l-7.5,0.5v1.4
					c0,0.5,0.2,0.8,0.7,0.8h4.3c0.4,0,0.7-0.1,0.9-0.2c0.2-0.2,0.4-0.7,0.5-1.6l2.1,0.7c-0.2,1.4-0.5,2.3-1,2.6
					c-0.4,0.3-1.1,0.4-2,0.4H38.8z"/>
				<path class="st2" d="M65.8,223l-0.6-2.1l1.9,0.1c0.6,0,0.8-0.3,0.8-0.9V218h-5.5v6.5h-2.3V218h-5.5v4.8h-2.2V216h7.7v-1.5H59
					l-0.5-1.7l1.1,0.1c0.4,0,0.6-0.2,0.6-0.7v-4.8h-2.5v6.8h-1.7v-6.8h-2.7v7.1h-1.9v-8.9h2c-0.5-0.8-0.9-1.6-1.5-2.3l1.6-0.8
					c0.5,0.7,1,1.5,1.5,2.4l-1.3,0.6h2.2v-3.2h1.9v3.2h2.1l-1.3-0.7c0.6-0.8,1.1-1.6,1.4-2.4l1.7,0.8c-0.4,0.8-0.9,1.5-1.4,2.3H62
					v2.5c1.5-1.5,2.5-3.4,3-5.7l2.1,0.3c-0.2,0.7-0.4,1.3-0.6,1.9h5.3v1.9h-1c-0.5,1.8-1.2,3.3-2.2,4.5c1.1,0.8,2.4,1.4,3.7,2.1
					l-1.1,1.8c-1.5-0.7-2.9-1.5-4-2.4c-1.1,1-2.4,1.7-3.9,2.2l-1.1-1.7c1.3-0.4,2.5-1,3.5-1.8c-0.6-0.6-1.1-1.1-1.5-1.7l1-1.5
					c0.5,0.6,1.1,1.3,1.8,1.8c0.7-1,1.3-2.1,1.7-3.3h-3.1c-0.7,1.2-1.5,2.2-2.4,3.1l-1.2-1.6v4.5c0,1-0.4,1.6-1.1,1.8h1.6v1.6h7.7
					v4.7c0,1.6-0.8,2.4-2.4,2.4H65.8z M55.5,208.5c-0.1,1.6-0.3,3-0.6,4.2l-1.4-0.5c0.4-1.1,0.6-2.4,0.7-3.9L55.5,208.5z M60,211.4
					l-1.4,0.4c-0.2-1.2-0.5-2.3-0.8-3.3l1.2-0.4C59.4,209,59.8,210.2,60,211.4z"/>
				<path class="st2" d="M81.8,203.2c-0.4,1.5-1,3-1.7,4.4v17h-2.3v-13.1c-0.7,1-1.4,1.9-2.2,2.8l-0.7-2.3c2.2-2.8,3.7-6,4.8-9.7
					L81.8,203.2z M95.2,211.5v9.5h-3.5c1.9,0.4,3.8,0.9,5.5,1.6l-0.8,1.8c-2-0.8-4-1.5-6.2-1.9l0.8-1.5H87l1,1.2
					c-1.7,0.9-3.8,1.7-6.3,2.4l-0.9-1.8c2.2-0.4,4-1,5.5-1.7h-3.5v-9.5H95.2z M90.2,202.3v1.2h6.1v1.8h-6.1v0.9h5.3v1.8h-5.3v1h6.7
					v1.8H81.6V209H88v-1h-5.1v-1.8H88v-0.9h-5.9v-1.8H88v-1.2H90.2z M93.2,214.2v-1H85v1H93.2z M93.2,216.8v-1H85v1H93.2z
					 M93.2,218.4H85v1h8.2V218.4z"/>
				<path class="st2" d="M104.6,217.1v-1.2c-1.2,0.9-2.4,1.6-3.7,2.3l-1.2-1.9c2.3-1,4.2-2.3,5.8-3.9h-5v-2.1h6.6
					c0.5-0.7,0.9-1.4,1.2-2.2h-6.6v-2h3.5c-0.5-1.2-1.1-2.2-1.7-3.1l2-0.6c0.6,1,1.2,2.1,1.7,3.2l-1.2,0.6h3.2
					c0.4-1.2,0.7-2.5,0.9-3.9l2.3,0.3c-0.2,1.3-0.5,2.5-0.9,3.6h4.2l-1.1-0.6c0.7-1,1.3-2,1.8-3.3l1.9,0.7c-0.5,1.2-1.1,2.3-1.8,3.2
					h3.4v2h-9.2c-0.3,0.7-0.7,1.5-1.1,2.2h11.6v2.1h-4.7c1.2,1.4,3,2.7,5.5,3.8l-1.5,1.8c-1.2-0.7-2.3-1.4-3.2-2.2
					c-0.1,1.9-0.2,3.5-0.3,4.7c-0.2,1.4-0.5,2.4-1,2.9c-0.5,0.5-1.2,0.8-2.1,0.9H110l-0.6-2.1c1.2,0,2.3,0.1,3.3,0.1
					c0.9,0,1.5-0.3,1.8-1c0.3-0.7,0.5-2.1,0.6-4.2h-5.4c-0.5,1.7-1.1,3.1-1.9,4.1c-1,1.2-2.6,2.4-4.6,3.3l-1.4-1.8
					c1.8-0.8,3.2-1.7,4.2-2.6c0.7-0.8,1.3-1.8,1.7-3H104.6z M105.6,215h10.8c-1-0.9-1.7-1.8-2.3-2.7h-5.9
					C107.4,213.2,106.5,214.2,105.6,215z"/>
				<path class="st2" d="M134.3,204.2v-1.8h2.3v1.8h8.5v2.1h-8.5v1.8h7.1v2.1h-7.1v1.8h9v2.1h-10.9c-0.8,1.1-1.8,2.1-3,3.1v4.6
					c1.7-0.5,3.3-1.1,5-1.8l0.4,2.1c-2.4,1-4.9,1.8-7.4,2.5l-0.7-1.9c0.4-0.2,0.6-0.5,0.6-0.8v-3c-1.2,0.7-2.5,1.3-3.9,1.9l-1.2-2
					c3.6-1.2,6.2-2.7,8-4.6h-7V212h9v-1.8h-7.1v-2.1h7.1v-1.8h-8.5v-2.1H134.3z M144.9,216.5c-1.2,1.2-2.6,2.1-4.1,2.8
					c1.6,1.4,3.5,2.5,5.8,3.2l-1.4,2c-4.2-1.5-7.3-4.3-9.1-8.4l1.7-1c0.4,1,1,1.9,1.6,2.8c1.3-0.6,2.6-1.6,3.8-2.9L144.9,216.5z"/>
				<path class="st2" d="M152.2,211.2v-5.4h-2.9v-2.2h8v2.2h-2.8v5.4h2.4v2.2h-2.4v5.2c1-0.4,1.9-0.8,2.9-1.3v2.2
					c-2.4,1.1-4.9,2-7.7,2.8l-0.5-2.2c1-0.2,2-0.5,3-0.8v-6h-2.6v-2.2H152.2z M169.6,203.1v13.7h-2.6v4.6c0,0.4,0.1,0.6,0.5,0.6h1
					c0.3,0,0.6-0.4,0.6-1c0-0.6,0.1-1.6,0.1-2.8l2,0.8c0,2.3-0.2,3.7-0.5,4.2c-0.3,0.5-1,0.8-2.1,0.9h-1.2c-1.7,0-2.5-0.7-2.5-2.2
					v-5H163c-0.3,3.5-2,6-5.1,7.6l-1.2-1.9c2.5-1.1,3.9-3,4.2-5.7h-2.6v-13.7H169.6z M167.4,207v-2h-6.9v2H167.4z M167.4,210.9v-2.1
					h-6.9v2.1H167.4z M167.4,212.7h-6.9v2.2h6.9V212.7z"/>
				<path class="st2" d="M187.2,211.1c0.6,0.6,1,1.3,1,2.3c0,0.9-0.3,1.6-1,2.3s-1.4,0.9-2.3,0.9s-1.7-0.3-2.3-0.9
					c-0.7-0.6-1-1.3-1-2.3s0.3-1.7,1-2.3c0.6-0.6,1.4-0.9,2.3-0.9S186.6,210.5,187.2,211.1z M183.7,212.2c-0.3,0.3-0.5,0.7-0.5,1.1
					c0,0.4,0.1,0.8,0.5,1.1c0.3,0.3,0.7,0.5,1.2,0.5c0.4,0,0.8-0.2,1.2-0.5c0.3-0.3,0.5-0.7,0.5-1.1c0-0.5-0.2-0.8-0.5-1.1
					c-0.3-0.3-0.7-0.5-1.2-0.5C184.4,211.8,184,211.9,183.7,212.2z"/>
			</g>
		</g>
		<g id="Group-3" transform="translate(0.000000, 7.000000)">
			<g class="st0">
				<path class="st4" d="M70.1,76.3c-0.3,1.6-0.5,3-0.8,4.4h4V82c-0.2,3.7-0.9,7-2.2,9.8c1.3,1,2.4,2,3.2,2.8l-1.6,1.8
					c-0.8-0.8-1.7-1.7-2.8-2.6c-1.2,1.9-2.6,3.5-4.4,4.8l-1.6-1.9c1.7-1.2,3.1-2.7,4.2-4.4c-1.1-0.9-2.3-1.8-3.6-2.8
					c0.7-2.1,1.3-4.3,1.9-6.6h-2.3v-2.2H67c0.3-1.5,0.6-3,0.8-4.6L70.1,76.3z M71.1,82.9h-2.2c-0.6,2.4-1.1,4.3-1.7,6
					c0.8,0.5,1.5,1.1,2.1,1.5C70.3,88.2,70.9,85.7,71.1,82.9z M79.1,86.2v-2.8c1.2-1.1,2.4-2.4,3.5-3.9h-8v-2.2h10.6v2.2
					c-1.1,1.6-2.4,3.1-3.8,4.6v2.1H86v2.2h-4.7v7.1c0,1.8-0.7,2.7-2,2.7h-3.6L75.2,96c1,0,2.1,0,3.2,0c0.5,0,0.7-0.4,0.7-1.2v-6.4
					h-5.2v-2.2H79.1z"/>
				<path class="st4" d="M91.4,92.6c-0.1,2.1-0.4,3.9-0.8,5.5l-2-0.6c0.5-1.5,0.8-3.2,0.9-5.1L91.4,92.6z M97.6,90.7l-1.8,0.5
					c-0.1-0.4-0.2-0.8-0.3-1.2c-2.2,0.7-4.2,1.2-6.2,1.4l-0.6-2c0.4-0.2,0.7-0.4,1-0.6c0.7-0.7,1.6-2,2.7-3.7
					c-1.1,0.2-2.1,0.3-3.2,0.5l-0.6-2c0.3-0.1,0.6-0.4,0.9-0.8c1-1.9,1.9-4.1,2.6-6.5l2.1,0.8c-1,2.6-2.1,4.7-3.1,6.4
					c0.8-0.1,1.6-0.2,2.4-0.4c0.5-1,1.1-2.1,1.7-3.3l2,0.8c-2.2,3.9-4,6.8-5.4,8.5c1.1-0.2,2.2-0.5,3.2-0.8
					c-0.2-0.6-0.4-1.2-0.6-1.8l1.7-0.6C96.7,87.2,97.2,88.8,97.6,90.7z M94.8,96.8l-2,0.5c-0.2-1.8-0.4-3.4-0.7-4.8L94,92
					C94.3,93.5,94.6,95.1,94.8,96.8z M97.8,95.5L95.9,96c-0.2-1.4-0.6-2.7-0.9-3.9l1.8-0.6C97.1,92.6,97.5,94,97.8,95.5z
					 M101.6,80.4c-0.7,1.5-1.3,2.7-2.1,3.7c0.7,0.9,1.5,2.1,2.3,3.6l-1.8,1.1c-0.8-1.7-1.7-3.3-2.6-4.6c1-1.5,1.8-3,2.4-4.6
					L101.6,80.4z M98.6,91.4v-2.1H110v2.1h-4.6V96h5.4V98H97.7V96h5.5v-4.5H98.6z M110.4,77.1v2.1H98.1v-2.1H110.4z M106,80.5
					c-0.6,1.5-1.3,2.7-2,3.6c0.7,0.9,1.5,2,2.2,3.5l-1.8,1.1c-0.8-1.7-1.7-3.2-2.6-4.6c1-1.4,1.8-3,2.3-4.5L106,80.5z M110.4,80.5
					c-0.7,1.5-1.4,2.7-2.1,3.6c0.7,0.9,1.5,2,2.3,3.5l-1.8,1.1c-0.8-1.7-1.7-3.2-2.6-4.6c1-1.4,1.8-3,2.4-4.5L110.4,80.5z"/>
				<path class="st4" d="M118.8,85.6l-1.6,1.6c-0.9-1.1-2.1-2.3-3.7-3.5l1.5-1.5C116.6,83.4,117.8,84.5,118.8,85.6z M119.7,89.7
					c-1.1,3-2.3,5.9-3.6,8.5l-2.1-0.9c1.4-2.7,2.7-5.5,3.8-8.3L119.7,89.7z M119.4,79.9l-1.6,1.5c-0.9-1.1-2.1-2.2-3.7-3.4l1.6-1.5
					C117.1,77.7,118.3,78.8,119.4,79.9z M119.7,79.8v-1.8h6.7c-0.2-0.5-0.4-0.9-0.7-1.3l2.2-0.4c0.2,0.5,0.5,1,0.7,1.7h6.6v1.8h-5.8
					l1.2,0.8c-0.2,0.3-0.4,0.6-0.6,0.9c1.7-0.2,3.1-0.7,4.2-1.5l0.9,1.6c-0.4,0.2-0.8,0.4-1.2,0.6c0.4,1.6,1,3.1,1.9,4.4l-1.3,1.6
					c-0.3-0.5-0.5-0.9-0.7-1.4c-1.1,0.4-2.4,0.8-4,1.2l-0.6-1.7c0.6-0.3,0.9-0.6,0.9-1.1v-3.8c-0.5,0.7-1.1,1.4-1.6,1.9v4.8h-1.8
					v-4.9c-0.4-0.6-0.8-1.2-1.3-1.8c0,3-0.2,4.8-0.4,5.5c-0.3,0.7-0.8,1.1-1.5,1.1H122l-0.4-1.4h1.1c0.3,0,0.6-0.3,0.6-0.8
					c0.1-0.5,0.1-1.6,0.1-3.3h-1c-0.2,1.3-0.5,2.4-0.8,3.1c-0.4,0.9-1.1,1.8-1.9,2.5l-1.1-1.4c0.7-0.6,1.2-1.2,1.6-1.9
					c0.3-0.6,0.5-1.4,0.7-2.3h-1.7v-1.6h5.3l-0.4-0.4l1-0.9H119.7z M131.2,88.3h2.1v10.2h-2.1v-4h-8.1c-0.5,1.7-1.4,3-2.6,4
					l-1.7-1.5c1.8-1.2,2.6-3.1,2.7-5.8v-2.7h2v1.1h7.7V88.3z M123.4,92.8h7.8v-1.5h-7.7C123.5,91.8,123.5,92.3,123.4,92.8z
					 M128.9,79.8h-3.2c0.6,0.7,1.2,1.5,1.7,2.2C128,81.2,128.5,80.5,128.9,79.8z M131.4,82.8v3.2c0.6-0.2,1.1-0.4,1.6-0.6
					c-0.3-0.9-0.6-1.8-0.7-2.8C132,82.6,131.7,82.7,131.4,82.8z"/>
			</g>
			<g class="st0">
				<path class="st2" d="M5,144.5c-0.6,2.4-1.4,4.5-2.4,6.3l-1.9-1.2c1-1.7,1.8-3.6,2.2-5.6L5,144.5z M1.2,138.8v-2.1h2.5
					c-0.3-0.8-0.6-1.6-1-2.4l2-0.7c0.4,0.9,0.7,1.9,1.1,3.1H8c0.4-1,0.7-2,1-3.1l2,0.7c-0.3,0.9-0.6,1.7-1,2.4h2.5v2.1H8v2.1h4.1
					v2.1H8v8.6H5.7V143H1.5v-2.1h4.2v-2.1H1.2z M5.7,131.2c-0.3-0.6-0.6-1.2-1-1.8l2.4-0.4c0.3,0.6,0.6,1.3,0.9,2.1h4.4v2.1h-11
					v-2.1H5.7z M11.9,148l-1.9,0.7c-0.4-1.5-0.8-2.9-1.4-4.3l1.9-0.5C11.1,145.4,11.6,146.8,11.9,148z M22.6,131.6
					c-2.1,0.7-4.4,1.1-6.9,1.3v3.9h7.4v2.2h-2.3v12.6h-2.2v-12.6h-2.9v2.4c-0.1,4.2-1,7.6-2.8,10.1l-1.6-1.7c1.4-2,2.1-4.8,2.2-8.4
					V131c2.9,0,5.6-0.6,7.9-1.5L22.6,131.6z"/>
				<path class="st2" d="M41.3,144h2.3l0.1-2.8H42v-1.9h1.8l0.1-2.5h-2V135H44l0.1-2.8h-2.3V130h4.4l-0.5,14h1.7v2.2h-6.9
					c2.5,0.9,4.7,2,6.8,3.3l-1.3,2c-2.3-1.6-4.7-2.9-7.2-3.8l1-1.5h-14V144h1.8l-0.6-13.3c1.3-0.2,2.7-0.7,4-1.4l0.8,1.9
					c-0.6,0.3-1.4,0.6-2.6,1l0.1,2.8h2v1.9h-1.9l0.1,2.4h1.9v1.9h-1.8l0.1,2.8h2.2v-13.9h9.2V144z M34.5,147.7
					c-1.8,1.4-4.1,2.7-6.9,3.8l-1.4-1.8c2.7-1,4.9-2.1,6.8-3.3L34.5,147.7z M39.4,144v-12H34v12H39.4z M38.7,133.3v1.6h-3.9v-1.6
					H38.7z M38.6,136.2v6.7h-3.8v-6.7H38.6z M37.2,137.7h-1v3.6h1V137.7z"/>
				<path class="st2" d="M60.1,131.9c-0.4-0.9-0.7-1.7-1.2-2.4l2.4-0.4c0.4,0.8,0.7,1.8,1,2.8h9.6v2.2h-9.6v2.6h7.8v8.9
					c0,1.5-0.8,2.3-2.4,2.3h-2.4l-0.6-2.2l2.3,0.1c0.6,0,0.9-0.3,0.9-0.8v-6.2h-5.5v12.6h-2.3v-12.6H55v9.2h-2.2v-11.4h7.5v-2.6
					h-9.6v-2.2H60.1z"/>
				<path class="st2" d="M77.7,135.5v-6.1h2.2v6.1h2.4v2.2h-2.4v7.3c0.8-0.3,1.6-0.6,2.3-1v2.2c-2.1,0.9-4.3,1.7-6.7,2.4l-0.6-2.2
					c1-0.2,1.9-0.4,2.8-0.7v-8h-2.6v-2.2H77.7z M97.1,138.7v2h-9c-0.2,0.4-0.4,0.7-0.6,1.1h9c0,2.4-0.2,4.3-0.4,5.7
					c-0.2,1.4-0.5,2.4-0.9,3c-0.4,0.6-1.1,0.9-2,0.9h-2l-0.6-2.1c0.6,0,1.1,0.1,1.6,0.1c0.8,0,1.4-0.4,1.7-1.1
					c0.3-0.8,0.5-2.4,0.6-4.8h-0.9c-1.6,4-4.2,6.6-7.8,7.9l-1.2-1.8c3.2-1.1,5.5-3.1,7-6h-1.6c-1.2,2.1-3.2,3.7-5.9,4.9l-1.3-1.6
					c2.3-0.9,3.9-2,5-3.3h-1.8c-0.6,0.6-1.4,1.1-2.2,1.6l-1.2-1.7c1.6-0.8,2.7-1.8,3.5-2.9h-3.1v-2H97.1z M95.5,130.1v7.5H84.1v-7.5
					H95.5z M93.4,133.1v-1.2h-7.1v1.2H93.4z M93.4,134.7h-7.1v1.2h7.1V134.7z"/>
				<path class="st2" d="M102.5,145.6c-0.1,2.1-0.4,3.9-0.8,5.5l-2-0.6c0.5-1.5,0.8-3.2,0.9-5.1L102.5,145.6z M108.7,143.7l-1.8,0.5
					c-0.1-0.4-0.2-0.8-0.3-1.2c-2.2,0.7-4.2,1.2-6.2,1.4l-0.6-2c0.4-0.2,0.7-0.4,1-0.6c0.7-0.7,1.6-2,2.7-3.7
					c-1.1,0.2-2.1,0.3-3.2,0.5l-0.6-2c0.3-0.1,0.6-0.4,0.9-0.8c1-1.9,1.9-4.1,2.6-6.5l2.1,0.8c-1,2.6-2.1,4.7-3.1,6.4
					c0.8-0.1,1.6-0.2,2.4-0.4c0.5-1,1.1-2.1,1.7-3.3l2,0.8c-2.2,3.9-4,6.8-5.4,8.5c1.1-0.2,2.2-0.5,3.2-0.8
					c-0.2-0.6-0.4-1.2-0.6-1.8l1.7-0.6C107.8,140.2,108.3,141.8,108.7,143.7z M105.9,149.8l-2,0.5c-0.2-1.8-0.4-3.4-0.7-4.8l1.9-0.4
					C105.4,146.5,105.7,148.1,105.9,149.8z M108.8,148.5L107,149c-0.2-1.4-0.6-2.7-0.9-3.9l1.8-0.6
					C108.2,145.6,108.6,147,108.8,148.5z M112.7,133.4c-0.7,1.5-1.3,2.7-2.1,3.7c0.7,0.9,1.5,2.1,2.3,3.6l-1.8,1.1
					c-0.8-1.7-1.7-3.3-2.6-4.6c1-1.5,1.8-3,2.4-4.6L112.7,133.4z M109.7,144.4v-2.1h11.4v2.1h-4.6v4.5h5.4v2.1h-13.2V149h5.5v-4.5
					H109.7z M121.5,130.1v2.1h-12.4v-2.1H121.5z M117.1,133.5c-0.6,1.5-1.3,2.7-2,3.6c0.7,0.9,1.5,2,2.2,3.5l-1.8,1.1
					c-0.8-1.7-1.7-3.2-2.6-4.6c1-1.4,1.8-3,2.3-4.5L117.1,133.5z M121.5,133.5c-0.7,1.5-1.4,2.7-2.1,3.6c0.7,0.9,1.5,2,2.3,3.5
					l-1.8,1.1c-0.8-1.7-1.7-3.2-2.6-4.6c1-1.4,1.8-3,2.4-4.5L121.5,133.5z"/>
				<path class="st2" d="M129.9,138.6l-1.6,1.6c-0.9-1.1-2.1-2.3-3.7-3.5l1.5-1.5C127.7,136.4,128.9,137.5,129.9,138.6z
					 M130.8,142.7c-1.1,3-2.3,5.9-3.6,8.5l-2.1-0.9c1.4-2.7,2.7-5.5,3.8-8.3L130.8,142.7z M130.5,132.9l-1.6,1.5
					c-0.9-1.1-2.1-2.2-3.7-3.4l1.6-1.5C128.2,130.7,129.4,131.8,130.5,132.9z M130.8,132.8v-1.8h6.7c-0.2-0.5-0.4-0.9-0.7-1.3
					l2.2-0.4c0.2,0.5,0.5,1,0.7,1.7h6.6v1.8h-5.8l1.2,0.8c-0.2,0.3-0.4,0.6-0.6,0.9c1.7-0.2,3.1-0.7,4.2-1.5l0.9,1.6
					c-0.4,0.2-0.8,0.4-1.2,0.6c0.4,1.6,1,3.1,1.9,4.4l-1.3,1.6c-0.3-0.5-0.5-0.9-0.7-1.4c-1.1,0.4-2.4,0.8-4,1.2l-0.6-1.7
					c0.6-0.3,0.9-0.6,0.9-1.1v-3.8c-0.5,0.7-1.1,1.4-1.6,1.9v4.8h-1.8v-4.9c-0.4-0.6-0.8-1.2-1.3-1.8c0,3-0.2,4.8-0.4,5.5
					c-0.3,0.7-0.8,1.1-1.5,1.1h-1.1l-0.4-1.4h1.1c0.3,0,0.6-0.3,0.6-0.8c0.1-0.5,0.1-1.6,0.1-3.3h-1c-0.2,1.3-0.5,2.4-0.8,3.1
					c-0.4,0.9-1.1,1.8-1.9,2.5l-1.1-1.4c0.7-0.6,1.2-1.2,1.6-1.9c0.3-0.6,0.5-1.4,0.7-2.3h-1.7v-1.6h5.3l-0.4-0.4l1-0.9H130.8z
					 M142.3,141.3h2.1v10.2h-2.1v-4h-8.1c-0.5,1.7-1.4,3-2.6,4l-1.7-1.5c1.8-1.2,2.6-3.1,2.7-5.8v-2.7h2v1.1h7.7V141.3z
					 M134.5,145.8h7.8v-1.5h-7.7C134.6,144.8,134.6,145.3,134.5,145.8z M140,132.8h-3.2c0.6,0.7,1.2,1.5,1.7,2.2
					C139.1,134.2,139.6,133.5,140,132.8z M142.5,135.8v3.2c0.6-0.2,1.1-0.4,1.6-0.6c-0.3-0.9-0.6-1.8-0.7-2.8
					C143.1,135.6,142.8,135.7,142.5,135.8z"/>
				<path class="st2" d="M150,151.3l-0.5-2.2c0.6,0.1,1.1,0.1,1.6,0.1c0.5,0,0.7-0.3,0.7-0.8v-5.1c-0.7,0.3-1.4,0.6-2.1,0.8
					l-0.6-2.3c0.9-0.2,1.8-0.5,2.7-0.8v-5.1h-2.3v-2.2h2.3v-4.3h2.2v4.3h1.9v2.2H154v4.1c0.7-0.3,1.3-0.7,2-1.1v2.3
					c-0.6,0.4-1.3,0.7-2,1v6.7c0,1.5-0.7,2.3-2.2,2.3H150z M158.7,141c-0.1,4.3-1,7.7-2.7,10.3l-1.6-1.5c1.4-2.1,2.2-5,2.3-8.8v-9.9
					h6.6c-0.2-0.5-0.5-1-0.8-1.5l2.3-0.4c0.3,0.6,0.5,1.2,0.7,1.9h5.5v2h-2.4v1h2v1.7h-2v2.2h-7.4v-2.2h-1.8V134h1.8v-1h-2.4v5.6
					h12.4v1.7h-12.4V141z M170.2,141.2v6.8h-2.3c1.2,0.4,2.4,1,3.4,1.6l-1.1,1.7c-1.4-0.9-2.9-1.5-4.4-2l0.8-1.2h-3.6l0.9,1
					c-1.3,1-2.8,1.7-4.7,2.4l-0.9-1.8c1.4-0.4,2.6-0.9,3.6-1.5h-2.4v-6.8H170.2z M163.9,144v-1.1h-2.4v1.1H163.9z M163.9,145.3h-2.4
					v1.1h2.4V145.3z M163.1,134h3.6v-1h-3.6V134z M163.1,136.6h3.6v-0.9h-3.6V136.6z M165.7,144h2.5v-1.1h-2.5V144z M168.3,145.3
					h-2.5v1.1h2.5V145.3z"/>
				<path class="st2" d="M176.5,141h4.8c0,4-0.1,6.7-0.4,8.1c-0.3,1.4-1.4,2.1-3.5,2.2c-0.7,0-1.5,0-2.2-0.1l-0.6-2.1
					c0.8,0,1.5,0.1,2.3,0.1c1.1,0,1.8-0.4,1.9-1.2c0.2-0.8,0.3-2.5,0.3-5.1h-4.9l0.8-7.4h4.3v-3.4h-5.1v-2.1h7.3v7.4H177L176.5,141z
					 M194.8,132H186v1.5h7.9v2H186v1.4h8v2h-8v1.5h9.8v2.1h-9.9v6.3c1.2-0.4,2.3-0.9,3.5-1.5l0.4,2c-1.7,0.8-3.6,1.5-5.8,2l-0.9-1.9
					c0.5-0.2,0.7-0.6,0.7-1.1v-5.8h-1.5v-2.1h1.7v-10.5h11V132z M195.3,144.6c-0.9,1.1-1.8,1.9-2.9,2.6c1.1,1.1,2.3,1.9,3.7,2.5
					l-1.2,1.8c-3.3-1.4-5.6-3.9-6.9-7.7l1.7-1c0.4,1.1,0.9,2,1.4,2.9c0.9-0.6,1.8-1.4,2.7-2.5L195.3,144.6z"/>
			</g>
			<g class="st0">
				<path class="st2" d="M6.5,184.4H4.3v-11.1c-0.7,2-1.6,3.8-2.6,5.5l-1-2.5c1.6-2.1,2.8-4.5,3.5-7.3h-3v-2.2h3v-4.5h2.2v4.5h2.4
					v2.2H6.5v1.1c1,1.1,1.9,2.2,2.9,3.4c1.9-0.8,3.6-1.6,5-2.6c-0.9-0.8-1.6-1.7-2.2-2.5c-0.5,0.6-1.1,1.2-1.7,1.8L9,168.5
					c1.6-1.5,3-3.5,4.2-6.2l2.2,0.5c-0.2,0.5-0.5,1.1-0.7,1.5h6.5v1.8c-0.8,1.8-2,3.5-3.5,4.9c1.6,1,3.4,1.8,5.4,2.6l-1,2.2
					c-2.4-1-4.4-2.1-6-3.4c-1.5,1.1-3.2,2.1-5.2,2.9H21v9.2h-2.2v-0.9h-5.9v0.9h-2.2v-9.1c-0.4,0.1-0.8,0.3-1.1,0.4l-0.7-0.9
					l-0.6,0.8c-0.7-1.2-1.3-2.2-1.8-3V184.4z M18.8,181.4v-4.1h-5.9v4.1H18.8z M18.7,166.5h-5.2c-0.1,0.1-0.1,0.2-0.2,0.3
					c0.7,1.1,1.6,2,2.7,2.9C17.1,168.7,18,167.6,18.7,166.5z"/>
				<path class="st2" d="M30.7,171.1h15.9c0,6-0.1,9.7-0.4,11.2c-0.2,1.4-1.3,2.1-3.3,2.1c-0.6,0-1.5,0-2.9-0.1l-0.5-1.9
					c1.2,0.1,2.2,0.1,3,0.1c0.9,0,1.4-0.4,1.6-1.2c0.1-0.8,0.2-3.5,0.2-8.2H30.7c-0.1,4.4-1.2,8.1-3.3,11.3l-1.8-1.6
					c1.9-2.6,2.9-5.9,2.9-10v-9.6h17v6.3H30.7V171.1z M30.7,165.2v2.1h12.6v-2.1H30.7z M41.4,174.8v6.4h-8.9v-6.4H41.4z M39.3,176.6
					h-4.8v2.6h4.8V176.6z"/>
				<path class="st2" d="M58.5,163.4v2.2h-3.1c-0.3,1.7-0.7,3.4-1.2,4.9h4.1v5c2.2-2.4,3.9-5.4,5.1-9h-2.2v3.1H59v-5.1h4.8
					c0.2-0.8,0.4-1.6,0.6-2.4l2.1,0.4c-0.1,0.7-0.3,1.4-0.5,2h6v4.6H70v-2.6h-4.4c-0.4,1.3-0.9,2.6-1.4,3.7h2.2
					c-0.2-0.8-0.5-1.5-0.8-2.2l1.9-0.5c0.4,1,0.7,1.9,0.9,2.7h3.4v2h-3.5v1.8h3.1v1.9h-3.1v1.8h3.2v1.9h-3.2v2h4.2v2h-9.6v0.7h-2.1
					V176c-0.4,0.5-0.8,0.9-1.2,1.4l-1.2-1.4v7.6h-2v-1.2h-1.9v1.4h-2v-8.9c-0.3,0.6-0.6,1.1-1,1.6l-1.2-1.9c1.5-2.6,2.6-5.5,3.1-8.8
					H51v-2.2H58.5z M56.2,180.2v-7.6h-1.9v7.6H56.2z M66,172.3h-2.9c-0.1,0.2-0.3,0.5-0.4,0.7v1.1H66V172.3z M66,176h-3.3v1.8H66
					V176z M66,181.8v-2h-3.3v2H66z"/>
				<path class="st2" d="M97.1,181v2.2H75.2V181h6.5c-0.7-4.4-1.6-8.7-2.7-12.8h-2.7V166H85c-0.4-1.2-0.8-2.2-1.2-3.2l2.4-0.4
					c0.4,1.1,0.7,2.2,1.1,3.6H96v2.2h-2.8c-0.8,4.8-1.8,9-3,12.8H97.1z M81.4,168.2c0.9,3.8,1.8,8.1,2.6,12.8h3.9
					c1.1-3.5,2.1-7.8,3-12.8H81.4z"/>
				<path class="st2" d="M112.3,172.1c0.4,0.5,0.6,1.2,0.6,2c0,1.2-0.4,2.3-1.1,3.2s-1.7,1.5-2.9,1.8v-1.5c0.6-0.2,1.2-0.6,1.6-1.1
					c0.4-0.6,0.6-1.1,0.6-1.7c-0.1,0-0.3,0.1-0.6,0.1c-0.5,0-0.9-0.2-1.2-0.5s-0.5-0.8-0.5-1.3c0-0.5,0.2-1,0.5-1.3
					c0.3-0.3,0.8-0.5,1.4-0.5C111.4,171.4,111.9,171.6,112.3,172.1z"/>
				<path class="st2" d="M129.5,184.5l-1.7-1.5c1.4-1.5,2.2-3.4,2.2-5.7v-4.8c-1.2,1.4-2.6,2.8-4.2,4.1l-1.5-1.9
					c2.8-2.2,5-4.8,6.6-7.6h-6v-2.2h7c0.4-0.9,0.7-1.7,1-2.6l2.3,0.3c-0.2,0.8-0.5,1.6-0.8,2.4h11.6v2.2h-12.6
					c-0.4,0.8-0.8,1.6-1.3,2.3h11v12.9c0,1.4-0.8,2.1-2.4,2.1h-2.4l-0.5-2c0.8,0,1.6,0.1,2.3,0.1c0.6,0,0.9-0.3,0.9-1v-2H132
					C131.6,181.4,130.8,183.1,129.5,184.5z M132.2,177.1c0,0.1,0,0.2,0,0.3h9v-2.1h-9V177.1z M141.1,171.3h-9v2.1h9V171.3z"/>
				<path class="st2" d="M154,168.6v-2.7c-1.2,0.2-2.4,0.4-3.7,0.5l-0.7-2.1c4-0.3,7.2-1,9.6-2l1.1,1.9c-1.3,0.5-2.7,0.9-4.1,1.3
					v3.1h4.3v2.2h-4.3v0.8c1.5,1.2,3,2.6,4.5,4.1l-1.3,2c-1.2-1.6-2.3-2.9-3.2-3.8v10.5H154v-9.8c-1.1,2-2.4,3.9-4.1,5.6l-1-2.7
					c2.3-2,4-4.2,5.1-6.7v-0.1h-4.5v-2.2H154z M164.5,164.6v14.7h-2.3v-14.7H164.5z M164.1,184.3l-0.5-2.2c1.1,0.1,2.2,0.1,3.3,0.1
					c0.6,0,0.9-0.4,0.9-1.1v-18.7h2.3v19.3c0,1.7-0.8,2.6-2.4,2.6H164.1z"/>
				<path class="st2" d="M178.3,165.5c-0.4-0.9-0.8-1.8-1.3-2.7l2.2-0.6c0.6,1.2,1,2.3,1.3,3.3h3.6v2.2h-5.7v2.9h4.5
					c0,5.9-0.1,9.5-0.3,10.9c-0.2,1.8-1.2,2.7-3,2.7c-0.3,0-0.7,0-1.3-0.1l-0.5-2c0.6,0.1,1.1,0.1,1.6,0.1c0.7,0,1.2-0.6,1.3-1.7
					c0.1-0.8,0.2-3.4,0.2-7.8h-2.4c-0.1,5.3-1.1,9.2-2.9,11.7l-1.7-1.4c1.6-2.4,2.4-6.2,2.4-11.4v-3.9h-2v-2.2H178.3z M190.3,162.5
					c1.1,3.2,3,6.1,5.8,8.6l-1.2,1.9c-2.5-2.2-4.3-4.9-5.5-8.2c-1.3,3.6-3,6.4-5.1,8.4l-1.2-1.8c2.3-2.3,4-5.2,5.3-8.8H190.3z
					 M194.6,182.8l-1.4,1.8c-2.2-2-5-3.9-8.4-5.6l1.3-1.6C189.4,179.1,192.2,180.9,194.6,182.8z M193.1,175.7l-1.4,1.6
					c-1.4-1.6-3.1-3-5.2-4.4l1.3-1.6C189.9,172.7,191.7,174.1,193.1,175.7z"/>
			</g>
			<g class="st0">
				<path class="st2" d="M5,210.5c-0.6,2.4-1.4,4.5-2.4,6.3l-1.9-1.2c1-1.7,1.8-3.6,2.2-5.6L5,210.5z M1.2,204.8v-2.1h2.5
					c-0.3-0.8-0.6-1.6-1-2.4l2-0.7c0.4,0.9,0.7,1.9,1.1,3.1H8c0.4-1,0.7-2,1-3.1l2,0.7c-0.3,0.9-0.6,1.7-1,2.4h2.5v2.1H8v2.1h4.1
					v2.1H8v8.6H5.7V209H1.5v-2.1h4.2v-2.1H1.2z M5.7,197.2c-0.3-0.6-0.6-1.2-1-1.8l2.4-0.4c0.3,0.6,0.6,1.3,0.9,2.1h4.4v2.1h-11
					v-2.1H5.7z M11.9,214l-1.9,0.7c-0.4-1.5-0.8-2.9-1.4-4.3l1.9-0.5C11.1,211.4,11.6,212.8,11.9,214z M22.6,197.6
					c-2.1,0.7-4.4,1.1-6.9,1.3v3.9h7.4v2.2h-2.3v12.6h-2.2v-12.6h-2.9v2.4c-0.1,4.2-1,7.6-2.8,10.1l-1.6-1.7c1.4-2,2.1-4.8,2.2-8.4
					V197c2.9,0,5.6-0.6,7.9-1.5L22.6,197.6z"/>
				<path class="st2" d="M41.3,210h2.3l0.1-2.8H42v-1.9h1.8l0.1-2.5h-2V201H44l0.1-2.8h-2.3V196h4.4l-0.5,14h1.7v2.2h-6.9
					c2.5,0.9,4.7,2,6.8,3.3l-1.3,2c-2.3-1.6-4.7-2.9-7.2-3.8l1-1.5h-14V210h1.8l-0.6-13.3c1.3-0.2,2.7-0.7,4-1.4l0.8,1.9
					c-0.6,0.3-1.4,0.6-2.6,1l0.1,2.8h2v1.9h-1.9l0.1,2.4h1.9v1.9h-1.8l0.1,2.8h2.2v-13.9h9.2V210z M34.5,213.7
					c-1.8,1.4-4.1,2.7-6.9,3.8l-1.4-1.8c2.7-1,4.9-2.1,6.8-3.3L34.5,213.7z M39.4,210v-12H34v12H39.4z M38.7,199.3v1.6h-3.9v-1.6
					H38.7z M38.6,202.2v6.7h-3.8v-6.7H38.6z M37.2,203.7h-1v3.6h1V203.7z"/>
				<path class="st2" d="M60.1,197.9c-0.4-0.9-0.7-1.7-1.2-2.4l2.4-0.4c0.4,0.8,0.7,1.8,1,2.8h9.6v2.2h-9.6v2.6h7.8v8.9
					c0,1.5-0.8,2.3-2.4,2.3h-2.4l-0.6-2.2l2.3,0.1c0.6,0,0.9-0.3,0.9-0.8v-6.2h-5.5v12.6h-2.3v-12.6H55v9.2h-2.2v-11.4h7.5v-2.6
					h-9.6v-2.2H60.1z"/>
				<path class="st2" d="M77.7,201.5v-6.1h2.2v6.1h2.4v2.2h-2.4v7.3c0.8-0.3,1.6-0.6,2.3-1v2.2c-2.1,0.9-4.3,1.7-6.7,2.4l-0.6-2.2
					c1-0.2,1.9-0.4,2.8-0.7v-8h-2.6v-2.2H77.7z M97.1,204.7v2h-9c-0.2,0.4-0.4,0.7-0.6,1.1h9c0,2.4-0.2,4.3-0.4,5.7
					c-0.2,1.4-0.5,2.4-0.9,3c-0.4,0.6-1.1,0.9-2,0.9h-2l-0.6-2.1c0.6,0,1.1,0.1,1.6,0.1c0.8,0,1.4-0.4,1.7-1.1
					c0.3-0.8,0.5-2.4,0.6-4.8h-0.9c-1.6,4-4.2,6.6-7.8,7.9l-1.2-1.8c3.2-1.1,5.5-3.1,7-6h-1.6c-1.2,2.1-3.2,3.7-5.9,4.9l-1.3-1.6
					c2.3-0.9,3.9-2,5-3.3h-1.8c-0.6,0.6-1.4,1.1-2.2,1.6l-1.2-1.7c1.6-0.8,2.7-1.8,3.5-2.9h-3.1v-2H97.1z M95.5,196.1v7.5H84.1v-7.5
					H95.5z M93.4,199.1v-1.2h-7.1v1.2H93.4z M93.4,200.7h-7.1v1.2h7.1V200.7z"/>
				<path class="st2" d="M108.7,215.1c0,1.5-0.8,2.3-2.4,2.3h-1.8l-0.6-2c0.6,0,1.2,0.1,1.8,0.1c0.6,0,0.9-0.4,0.9-1.2v-5
					c-1.1,0.2-2.2,0.5-3.4,0.6c-0.2,3-0.9,5.5-1.9,7.6l-1.7-1.5c1.1-2.1,1.6-4.8,1.6-8.1V196h7.5V215.1z M106.6,202.4v-4.3h-3.3v3.6
					C104.5,201.9,105.6,202.1,106.6,202.4z M106.6,207.3v-2.9c-1.1-0.3-2.2-0.6-3.3-0.7v4.2C104.5,207.7,105.6,207.5,106.6,207.3z
					 M120.3,205.4v2.1c-0.6,2.2-1.6,4-3,5.6c1.3,0.9,2.8,1.8,4.6,2.5l-1.2,2c-2-0.9-3.6-1.9-4.9-3c-1.5,1.2-3.3,2.2-5.5,3l-1.2-1.9
					c2-0.7,3.6-1.6,5-2.6c-1.5-1.6-2.5-3.4-3.1-5.4H110v-2.2H120.3z M119.2,196v5c0,0.5,0.2,0.8,0.8,0.8h1.7v2.1h-2.3
					c-1.6,0-2.4-0.8-2.4-2.4v-3.3h-3.5v1.1c0,2.4-0.9,4.2-2.7,5.5l-1.5-1.7c1.3-0.8,2-2,2-3.6V196H119.2z M115.6,211.6
					c1.1-1.2,1.9-2.5,2.5-4h-5C113.6,209,114.4,210.4,115.6,211.6z"/>
				<path class="st2" d="M145.2,196.1v2.2h-17v16.2h17.6v2.2H126v-20.5H145.2z M132.6,205.6l-1.4,1.4c-0.6-0.8-1.4-1.7-2.5-2.6
					l1.4-1.4C131.1,203.9,131.9,204.7,132.6,205.6z M133.3,208.6c-0.7,1.9-1.5,3.7-2.4,5.3l-2-0.9c1-1.7,1.8-3.4,2.5-5.2
					L133.3,208.6z M133.5,201.3l-1.5,1.5c-0.7-0.7-1.6-1.5-2.9-2.4l1.5-1.4C131.7,199.7,132.7,200.5,133.5,201.3z M133.2,206.9
					l-0.6-2c1.7-1.8,2.8-3.7,3.5-5.9l2,0.4c-0.3,0.8-0.6,1.6-1,2.4h2.7c-0.3-0.8-0.6-1.6-0.9-2.2l2.2-0.4c0.3,0.8,0.5,1.6,0.8,2.6
					h3.3v1.8h-3.6v1.5h3v1.7h-3v1.5h3.1v1.7h-3.1v1.5h3.9v1.9h-10.9v-7.8C134.1,206,133.7,206.4,133.2,206.9z M136.6,203.6v1.5h2.9
					v-1.5H136.6z M136.6,206.8v1.5h2.9v-1.5H136.6z M136.6,209.9v1.5h2.9v-1.5H136.6z"/>
				<path class="st2" d="M158.9,197.9c-0.4-0.9-0.7-1.7-1.2-2.4l2.4-0.4c0.4,0.8,0.7,1.8,1,2.8h9.6v2.2h-9.6v2.6h7.8v8.9
					c0,1.5-0.8,2.3-2.4,2.3h-2.4l-0.6-2.2l2.3,0.1c0.6,0,0.9-0.3,0.9-0.8v-6.2h-5.5v12.6H159v-12.6h-5.3v9.2h-2.2v-11.4h7.5v-2.6
					h-9.6v-2.2H158.9z"/>
				<path class="st2" d="M183.7,197.2v-1.8h2.3v1.8h8.5v2.1H186v1.8h7.1v2.1H186v1.8h9v2.1h-10.9c-0.8,1.1-1.8,2.1-3,3.1v4.6
					c1.7-0.5,3.3-1.1,5-1.8l0.4,2.1c-2.4,1-4.9,1.8-7.4,2.5l-0.7-1.9c0.4-0.2,0.6-0.5,0.6-0.8v-3c-1.2,0.7-2.5,1.3-3.9,1.9l-1.2-2
					c3.6-1.2,6.2-2.7,8-4.6h-7V205h9v-1.8h-7.1v-2.1h7.1v-1.8h-8.5v-2.1H183.7z M194.3,209.5c-1.2,1.2-2.6,2.1-4.1,2.8
					c1.6,1.4,3.5,2.5,5.8,3.2l-1.4,2c-4.2-1.5-7.3-4.3-9.1-8.4l1.7-1c0.4,1,1,1.9,1.6,2.8c1.3-0.6,2.6-1.6,3.8-2.9L194.3,209.5z"/>
			</g>
			<g class="st0">
				<path class="st2" d="M4,237.2v-5.4H1.1v-2.2h8v2.2H6.3v5.4h2.4v2.2H6.3v5.2c1-0.4,1.9-0.8,2.9-1.3v2.2c-2.4,1.1-4.9,2-7.7,2.8
					L1,246.2c1-0.2,2-0.5,3-0.8v-6H1.4v-2.2H4z M21.4,229.1v13.7h-2.6v4.6c0,0.4,0.1,0.6,0.5,0.6h1c0.3,0,0.6-0.4,0.6-1
					c0-0.6,0.1-1.6,0.1-2.8l2,0.8c0,2.3-0.2,3.7-0.5,4.2c-0.3,0.5-1,0.8-2.1,0.9h-1.2c-1.7,0-2.5-0.7-2.5-2.2v-5h-1.8
					c-0.3,3.5-2,6-5.1,7.6l-1.2-1.9c2.5-1.1,3.9-3,4.2-5.7h-2.6v-13.7H21.4z M19.2,233v-2h-6.9v2H19.2z M19.2,236.9v-2.1h-6.9v2.1
					H19.2z M19.2,238.7h-6.9v2.2h6.9V238.7z"/>
			</g>
			<polygon id="Page-1_1_" class="st4" points="116.3,0 119,5.2 93.1,18.1 90,13.6 88.6,11.6 86.4,12.5 69.4,19.7 69.4,0.6 66,0.6 
				66,48.5 66,52 69.4,52 132.3,52 132.3,48.5 119.2,48.5 119.2,16.3 115.8,18.1 115.8,48.5 113.2,48.5 113.2,19.4 109.7,21.1 
				109.7,48.5 107.1,48.5 107.1,22.4 103.6,24.1 103.6,48.5 101,48.5 101,25.4 97.5,27.2 97.5,48.5 94.9,48.5 94.9,28.5 91.5,30.2 
				91.5,48.5 88.8,48.5 88.8,28.1 85.9,23.8 85.4,24 85.4,48.5 82.7,48.5 82.7,25.1 79.3,26.6 79.3,48.5 76.7,48.5 76.7,27.7 
				73.2,29.1 73.2,48.5 69.4,48.5 69.4,26.1 86.5,18.9 89.7,23.6 91.2,25.7 93.4,24.5 121.7,10.4 124.5,15.7 129.3,8.2 134,0.7 
				125.1,0.4 			"/>
		</g>
	</g>
</g>
</svg>
