<?xml version="1.0" encoding="utf-8"?>
<!-- Generator: Adobe Illustrator 22.0.1, SVG Export Plug-In . SVG Version: 6.00 Build 0)  -->
<svg version="1.1" id="圖層_1" xmlns="http://www.w3.org/2000/svg" xmlns:xlink="http://www.w3.org/1999/xlink" x="0px" y="0px"
	 viewBox="0 0 320 492" style="enable-background:new 0 0 320 492;" xml:space="preserve">
<style type="text/css">
	.st0{fill:#4A4A4A;}
	.st1{font-family:'PingFangTC-Regular-B5pc-H';}
	.st2{font-size:20px;}
	.st3{fill:#BCBCBC;}
	.st4{font-size:16px;}
	.st5{font-size:28px;}
	.st6{fill:none;stroke:#FBB613;stroke-width:4;stroke-linecap:square;}
	.st7{fill:#004483;}
	.st8{fill:#FFFFFF;}
	.st9{fill:#E22227;}
	.st10{font-size:22px;}
	.st11{fill:#B7956F;}
	.st12{fill:#FFFFFF;stroke:#004483;stroke-width:2;stroke-linecap:round;stroke-dasharray:2,6;}
	.st13{fill:#FFFFFF;stroke:#B7956F;stroke-width:2;stroke-linecap:round;stroke-dasharray:2,6;}
	.st14{font-family:'PingFangTC-Medium-B5pc-H';}
</style>
<title>s1_1_2 copy</title>
<desc>Created with Sketch.</desc>
<text transform="matrix(1 0 0 1 12 77)" class="st0 st1 st2">成熟股市 v.s. 新興股市漲跌幅</text>
<rect id="Rectangle-8-Copy-8" y="413" class="st3" width="320" height="2"/>
<text transform="matrix(1 0 0 1 33 489)" class="st0 st1 st4">成熟市場</text>
<text transform="matrix(1 0 0 1 169 489)" class="st0 st1 st4">新興市場</text>
<text transform="matrix(1 0 0 1 0 30)" class="st0 st1 st5">經濟轉強</text>
<text transform="matrix(1 0 0 1 175 30)" class="st0 st1 st5">市場轉強！</text>
<path id="Line-Copy-3" class="st6" d="M123,15h40"/>
<path id="Line-Copy-3-decoration-1" class="st6" d="M163,15l-10.8-3v6L163,15z"/>
<rect id="Rectangle-10-Copy" x="149" y="222" class="st7" width="88" height="191"/>
<text transform="matrix(1 0 0 1 176 323)" class="st8 st1 st4">54.0</text>
<text transform="matrix(1 0 0 1 175 453)" class="st0 st1 st4">-5.0</text>
<g id="Rectangle-10-Copy-3">
	<g id="path-1_1_">
		<rect x="149" y="415" class="st8" width="88" height="15"/>
		<path class="st7" d="M237,415h-1.9c-0.5,0-0.9,0.4-0.9,0.9c0,0.5,0.4,0.9,0.9,0.9l0,0v1.2c0,0.5,0.4,0.9,0.9,0.9
			c0.5,0,0.9-0.4,0.9-0.9V415L237,415z M229.5,415h-1.9c-0.5,0-0.9,0.4-0.9,0.9c0,0.5,0.4,0.9,0.9,0.9h1.9c0.5,0,0.9-0.4,0.9-0.9
			C230.4,415.4,230,415,229.5,415L229.5,415z M222,415h-1.9c-0.5,0-0.9,0.4-0.9,0.9c0,0.5,0.4,0.9,0.9,0.9h1.9
			c0.5,0,0.9-0.4,0.9-0.9C222.9,415.4,222.5,415,222,415L222,415z M214.5,415h-1.9c-0.5,0-0.9,0.4-0.9,0.9c0,0.5,0.4,0.9,0.9,0.9
			h1.9c0.5,0,0.9-0.4,0.9-0.9C215.4,415.4,215,415,214.5,415L214.5,415z M206.9,415h-1.9c-0.5,0-0.9,0.4-0.9,0.9
			c0,0.5,0.4,0.9,0.9,0.9h1.9c0.5,0,0.9-0.4,0.9-0.9C207.9,415.4,207.5,415,206.9,415L206.9,415z M199.4,415h-1.9
			c-0.5,0-0.9,0.4-0.9,0.9c0,0.5,0.4,0.9,0.9,0.9h1.9c0.5,0,0.9-0.4,0.9-0.9C200.4,415.4,199.9,415,199.4,415L199.4,415z M191.9,415
			H190c-0.5,0-0.9,0.4-0.9,0.9c0,0.5,0.4,0.9,0.9,0.9h1.9c0.5,0,0.9-0.4,0.9-0.9C192.9,415.4,192.4,415,191.9,415L191.9,415z
			 M184.4,415h-1.9c-0.5,0-0.9,0.4-0.9,0.9c0,0.5,0.4,0.9,0.9,0.9h1.9c0.5,0,0.9-0.4,0.9-0.9C185.3,415.4,184.9,415,184.4,415
			L184.4,415z M176.9,415H175c-0.5,0-0.9,0.4-0.9,0.9c0,0.5,0.4,0.9,0.9,0.9h1.9c0.5,0,0.9-0.4,0.9-0.9
			C177.8,415.4,177.4,415,176.9,415L176.9,415z M169.4,415h-1.9c-0.5,0-0.9,0.4-0.9,0.9c0,0.5,0.4,0.9,0.9,0.9h1.9
			c0.5,0,0.9-0.4,0.9-0.9C170.3,415.4,169.9,415,169.4,415L169.4,415z M161.9,415H160c-0.5,0-0.9,0.4-0.9,0.9c0,0.5,0.4,0.9,0.9,0.9
			h1.9c0.5,0,0.9-0.4,0.9-0.9C162.8,415.4,162.4,415,161.9,415L161.9,415z M154.3,415h-1.9c-0.5,0-0.9,0.4-0.9,0.9
			c0,0.5,0.4,0.9,0.9,0.9h1.9c0.5,0,0.9-0.4,0.9-0.9C155.3,415.4,154.9,415,154.3,415L154.3,415z M149.9,416.2
			c-0.5,0-0.9,0.4-0.9,0.9v1.9c0,0.5,0.4,0.9,0.9,0.9c0.5,0,0.9-0.4,0.9-0.9v-1.9C150.9,416.7,150.5,416.2,149.9,416.2L149.9,416.2z
			 M149.9,423.8c-0.5,0-0.9,0.4-0.9,0.9v1.9c0,0.5,0.4,0.9,0.9,0.9c0.5,0,0.9-0.4,0.9-0.9v-1.9C150.9,424.2,150.5,423.8,149.9,423.8
			L149.9,423.8z M153.1,428.1h-1.9c-0.5,0-0.9,0.4-0.9,0.9c0,0.5,0.4,0.9,0.9,0.9h1.9c0.5,0,0.9-0.4,0.9-0.9
			C154,428.5,153.6,428.1,153.1,428.1L153.1,428.1z M160.6,428.1h-1.9c-0.5,0-0.9,0.4-0.9,0.9c0,0.5,0.4,0.9,0.9,0.9h1.9
			c0.5,0,0.9-0.4,0.9-0.9C161.5,428.5,161.1,428.1,160.6,428.1L160.6,428.1z M168.1,428.1h-1.9c-0.5,0-0.9,0.4-0.9,0.9
			c0,0.5,0.4,0.9,0.9,0.9h1.9c0.5,0,0.9-0.4,0.9-0.9C169.1,428.5,168.6,428.1,168.1,428.1L168.1,428.1z M175.6,428.1h-1.9
			c-0.5,0-0.9,0.4-0.9,0.9c0,0.5,0.4,0.9,0.9,0.9h1.9c0.5,0,0.9-0.4,0.9-0.9C176.6,428.5,176.1,428.1,175.6,428.1L175.6,428.1z
			 M183.1,428.1h-1.9c-0.5,0-0.9,0.4-0.9,0.9c0,0.5,0.4,0.9,0.9,0.9h1.9c0.5,0,0.9-0.4,0.9-0.9C184.1,428.5,183.7,428.1,183.1,428.1
			L183.1,428.1z M190.7,428.1h-1.9c-0.5,0-0.9,0.4-0.9,0.9c0,0.5,0.4,0.9,0.9,0.9h1.9c0.5,0,0.9-0.4,0.9-0.9
			C191.6,428.5,191.2,428.1,190.7,428.1L190.7,428.1z M198.2,428.1h-1.9c-0.5,0-0.9,0.4-0.9,0.9c0,0.5,0.4,0.9,0.9,0.9h1.9
			c0.5,0,0.9-0.4,0.9-0.9C199.1,428.5,198.7,428.1,198.2,428.1L198.2,428.1z M205.7,428.1h-1.9c-0.5,0-0.9,0.4-0.9,0.9
			c0,0.5,0.4,0.9,0.9,0.9h1.9c0.5,0,0.9-0.4,0.9-0.9C206.6,428.5,206.2,428.1,205.7,428.1L205.7,428.1z M213.2,428.1h-1.9
			c-0.5,0-0.9,0.4-0.9,0.9c0,0.5,0.4,0.9,0.9,0.9h1.9c0.5,0,0.9-0.4,0.9-0.9C214.1,428.5,213.7,428.1,213.2,428.1L213.2,428.1z
			 M220.7,428.1h-1.9c-0.5,0-0.9,0.4-0.9,0.9c0,0.5,0.4,0.9,0.9,0.9h1.9c0.5,0,0.9-0.4,0.9-0.9C221.7,428.5,221.2,428.1,220.7,428.1
			L220.7,428.1z M228.2,428.1h-1.9c-0.5,0-0.9,0.4-0.9,0.9c0,0.5,0.4,0.9,0.9,0.9h1.9c0.5,0,0.9-0.4,0.9-0.9
			C229.2,428.5,228.8,428.1,228.2,428.1L228.2,428.1z M235.7,428.1h-1.9c-0.5,0-0.9,0.4-0.9,0.9c0,0.5,0.4,0.9,0.9,0.9h1.9
			c0.5,0,0.9-0.4,0.9-0.9C236.7,428.5,236.3,428.1,235.7,428.1L235.7,428.1z M236.1,422.8c-0.5,0-0.9,0.4-0.9,0.9v1.9
			c0,0.5,0.4,0.9,0.9,0.9c0.5,0,0.9-0.4,0.9-0.9v-1.9C237,423.2,236.6,422.8,236.1,422.8L236.1,422.8z"/>
	</g>
</g>
<path id="Line-Copy-2" class="st6" d="M254,423V230"/>
<path id="Line-Copy-2-decoration-1" class="st6" d="M254,230l-3,10.8h6L254,230z"/>
<text transform="matrix(1 0 0 1 266 323)" class="st9 st1 st10">逆轉!</text>
<g id="Rectangle-10-Copy-2">
	<g id="path-3_1_">
		<rect x="12" y="181" class="st8" width="88" height="232"/>
		<path class="st11" d="M100,181h-2c-0.6,0-1,0.4-1,1s0.4,1,1,1h2V181L100,181z M92,181h-2c-0.6,0-1,0.4-1,1s0.4,1,1,1h2
			c0.6,0,1-0.4,1-1S92.6,181,92,181L92,181z M84,181h-2c-0.6,0-1,0.4-1,1s0.4,1,1,1h2c0.6,0,1-0.4,1-1S84.6,181,84,181L84,181z
			 M76,181h-2c-0.6,0-1,0.4-1,1s0.4,1,1,1h2c0.6,0,1-0.4,1-1S76.6,181,76,181L76,181z M68,181h-2c-0.6,0-1,0.4-1,1s0.4,1,1,1h2
			c0.6,0,1-0.4,1-1S68.6,181,68,181L68,181z M60,181h-2c-0.6,0-1,0.4-1,1s0.4,1,1,1h2c0.6,0,1-0.4,1-1S60.6,181,60,181L60,181z
			 M52,181h-2c-0.6,0-1,0.4-1,1s0.4,1,1,1h2c0.6,0,1-0.4,1-1S52.6,181,52,181L52,181z M44,181h-2c-0.6,0-1,0.4-1,1s0.4,1,1,1h2
			c0.6,0,1-0.4,1-1S44.6,181,44,181L44,181z M36,181h-2c-0.6,0-1,0.4-1,1s0.4,1,1,1h2c0.6,0,1-0.4,1-1S36.6,181,36,181L36,181z
			 M28,181h-2c-0.6,0-1,0.4-1,1s0.4,1,1,1h2c0.6,0,1-0.4,1-1S28.6,181,28,181L28,181z M20,181h-2c-0.6,0-1,0.4-1,1s0.4,1,1,1h2
			c0.6,0,1-0.4,1-1S20.6,181,20,181L20,181z M14,181h-2v2c0,0.6,0.4,1,1,1s1-0.4,1-1V181L14,181z M13,188c-0.6,0-1,0.4-1,1v2
			c0,0.6,0.4,1,1,1s1-0.4,1-1v-2C14,188.4,13.6,188,13,188L13,188z M13,196c-0.6,0-1,0.4-1,1v2c0,0.6,0.4,1,1,1s1-0.4,1-1v-2
			C14,196.4,13.6,196,13,196L13,196z M13,204c-0.6,0-1,0.4-1,1v2c0,0.6,0.4,1,1,1s1-0.4,1-1v-2C14,204.4,13.6,204,13,204L13,204z
			 M13,212c-0.6,0-1,0.4-1,1v2c0,0.6,0.4,1,1,1s1-0.4,1-1v-2C14,212.4,13.6,212,13,212L13,212z M13,220c-0.6,0-1,0.4-1,1v2
			c0,0.6,0.4,1,1,1s1-0.4,1-1v-2C14,220.4,13.6,220,13,220L13,220z M13,228c-0.6,0-1,0.4-1,1v2c0,0.6,0.4,1,1,1s1-0.4,1-1v-2
			C14,228.4,13.6,228,13,228L13,228z M13,236c-0.6,0-1,0.4-1,1v2c0,0.6,0.4,1,1,1s1-0.4,1-1v-2C14,236.4,13.6,236,13,236L13,236z
			 M13,244c-0.6,0-1,0.4-1,1v2c0,0.6,0.4,1,1,1s1-0.4,1-1v-2C14,244.4,13.6,244,13,244L13,244z M13,252c-0.6,0-1,0.4-1,1v2
			c0,0.6,0.4,1,1,1s1-0.4,1-1v-2C14,252.4,13.6,252,13,252L13,252z M13,260c-0.6,0-1,0.4-1,1v2c0,0.6,0.4,1,1,1s1-0.4,1-1v-2
			C14,260.4,13.6,260,13,260L13,260z M13,268c-0.6,0-1,0.4-1,1v2c0,0.6,0.4,1,1,1s1-0.4,1-1v-2C14,268.4,13.6,268,13,268L13,268z
			 M13,276c-0.6,0-1,0.4-1,1v2c0,0.6,0.4,1,1,1s1-0.4,1-1v-2C14,276.4,13.6,276,13,276L13,276z M13,284c-0.6,0-1,0.4-1,1v2
			c0,0.6,0.4,1,1,1s1-0.4,1-1v-2C14,284.4,13.6,284,13,284L13,284z M13,292c-0.6,0-1,0.4-1,1v2c0,0.6,0.4,1,1,1s1-0.4,1-1v-2
			C14,292.4,13.6,292,13,292L13,292z M13,300c-0.6,0-1,0.4-1,1v2c0,0.6,0.4,1,1,1s1-0.4,1-1v-2C14,300.4,13.6,300,13,300L13,300z
			 M13,308c-0.6,0-1,0.4-1,1v2c0,0.6,0.4,1,1,1s1-0.4,1-1v-2C14,308.4,13.6,308,13,308L13,308z M13,316c-0.6,0-1,0.4-1,1v2
			c0,0.6,0.4,1,1,1s1-0.4,1-1v-2C14,316.4,13.6,316,13,316L13,316z M13,324c-0.6,0-1,0.4-1,1v2c0,0.6,0.4,1,1,1s1-0.4,1-1v-2
			C14,324.4,13.6,324,13,324L13,324z M13,332c-0.6,0-1,0.4-1,1v2c0,0.6,0.4,1,1,1s1-0.4,1-1v-2C14,332.4,13.6,332,13,332L13,332z
			 M13,340c-0.6,0-1,0.4-1,1v2c0,0.6,0.4,1,1,1s1-0.4,1-1v-2C14,340.4,13.6,340,13,340L13,340z M13,348c-0.6,0-1,0.4-1,1v2
			c0,0.6,0.4,1,1,1s1-0.4,1-1v-2C14,348.4,13.6,348,13,348L13,348z M13,356c-0.6,0-1,0.4-1,1v2c0,0.6,0.4,1,1,1s1-0.4,1-1v-2
			C14,356.4,13.6,356,13,356L13,356z M13,364c-0.6,0-1,0.4-1,1v2c0,0.6,0.4,1,1,1s1-0.4,1-1v-2C14,364.4,13.6,364,13,364L13,364z
			 M13,372c-0.6,0-1,0.4-1,1v2c0,0.6,0.4,1,1,1s1-0.4,1-1v-2C14,372.4,13.6,372,13,372L13,372z M13,380c-0.6,0-1,0.4-1,1v2
			c0,0.6,0.4,1,1,1s1-0.4,1-1v-2C14,380.4,13.6,380,13,380L13,380z M13,388c-0.6,0-1,0.4-1,1v2c0,0.6,0.4,1,1,1s1-0.4,1-1v-2
			C14,388.4,13.6,388,13,388L13,388z M13,396c-0.6,0-1,0.4-1,1v2c0,0.6,0.4,1,1,1s1-0.4,1-1v-2C14,396.4,13.6,396,13,396L13,396z
			 M13,404c-0.6,0-1,0.4-1,1v2c0,0.6,0.4,1,1,1s1-0.4,1-1v-2C14,404.4,13.6,404,13,404L13,404z M14,411h-2l0,0v2l0,0h2
			c0.6,0,1-0.4,1-1S14.6,411,14,411L14,411z M22,411h-2c-0.6,0-1,0.4-1,1s0.4,1,1,1h2c0.6,0,1-0.4,1-1S22.6,411,22,411L22,411z
			 M30,411h-2c-0.6,0-1,0.4-1,1s0.4,1,1,1h2c0.6,0,1-0.4,1-1S30.6,411,30,411L30,411z M38,411h-2c-0.6,0-1,0.4-1,1s0.4,1,1,1h2
			c0.6,0,1-0.4,1-1S38.6,411,38,411L38,411z M46,411h-2c-0.6,0-1,0.4-1,1s0.4,1,1,1h2c0.6,0,1-0.4,1-1S46.6,411,46,411L46,411z
			 M54,411h-2c-0.6,0-1,0.4-1,1s0.4,1,1,1h2c0.6,0,1-0.4,1-1S54.6,411,54,411L54,411z M62,411h-2c-0.6,0-1,0.4-1,1s0.4,1,1,1h2
			c0.6,0,1-0.4,1-1S62.6,411,62,411L62,411z M70,411h-2c-0.6,0-1,0.4-1,1s0.4,1,1,1h2c0.6,0,1-0.4,1-1S70.6,411,70,411L70,411z
			 M78,411h-2c-0.6,0-1,0.4-1,1s0.4,1,1,1h2c0.6,0,1-0.4,1-1S78.6,411,78,411L78,411z M86,411h-2c-0.6,0-1,0.4-1,1s0.4,1,1,1h2
			c0.6,0,1-0.4,1-1S86.6,411,86,411L86,411z M94,411h-2c-0.6,0-1,0.4-1,1s0.4,1,1,1h2c0.6,0,1-0.4,1-1S94.6,411,94,411L94,411z
			 M99,410c-0.6,0-1,0.4-1,1v2l0,0h2l0,0v-2C100,410.4,99.6,410,99,410L99,410z M99,402c-0.6,0-1,0.4-1,1v2c0,0.6,0.4,1,1,1
			s1-0.4,1-1v-2C100,402.4,99.6,402,99,402L99,402z M99,394c-0.6,0-1,0.4-1,1v2c0,0.6,0.4,1,1,1s1-0.4,1-1v-2
			C100,394.4,99.6,394,99,394L99,394z M99,386c-0.6,0-1,0.4-1,1v2c0,0.6,0.4,1,1,1s1-0.4,1-1v-2C100,386.4,99.6,386,99,386L99,386z
			 M99,378c-0.6,0-1,0.4-1,1v2c0,0.6,0.4,1,1,1s1-0.4,1-1v-2C100,378.4,99.6,378,99,378L99,378z M99,370c-0.6,0-1,0.4-1,1v2
			c0,0.6,0.4,1,1,1s1-0.4,1-1v-2C100,370.4,99.6,370,99,370L99,370z M99,362c-0.6,0-1,0.4-1,1v2c0,0.6,0.4,1,1,1s1-0.4,1-1v-2
			C100,362.4,99.6,362,99,362L99,362z M99,354c-0.6,0-1,0.4-1,1v2c0,0.6,0.4,1,1,1s1-0.4,1-1v-2C100,354.4,99.6,354,99,354L99,354z
			 M99,346c-0.6,0-1,0.4-1,1v2c0,0.6,0.4,1,1,1s1-0.4,1-1v-2C100,346.4,99.6,346,99,346L99,346z M99,338c-0.6,0-1,0.4-1,1v2
			c0,0.6,0.4,1,1,1s1-0.4,1-1v-2C100,338.4,99.6,338,99,338L99,338z M99,330c-0.6,0-1,0.4-1,1v2c0,0.6,0.4,1,1,1s1-0.4,1-1v-2
			C100,330.4,99.6,330,99,330L99,330z M99,322c-0.6,0-1,0.4-1,1v2c0,0.6,0.4,1,1,1s1-0.4,1-1v-2C100,322.4,99.6,322,99,322L99,322z
			 M99,314c-0.6,0-1,0.4-1,1v2c0,0.6,0.4,1,1,1s1-0.4,1-1v-2C100,314.4,99.6,314,99,314L99,314z M99,306c-0.6,0-1,0.4-1,1v2
			c0,0.6,0.4,1,1,1s1-0.4,1-1v-2C100,306.4,99.6,306,99,306L99,306z M99,298c-0.6,0-1,0.4-1,1v2c0,0.6,0.4,1,1,1s1-0.4,1-1v-2
			C100,298.4,99.6,298,99,298L99,298z M99,290c-0.6,0-1,0.4-1,1v2c0,0.6,0.4,1,1,1s1-0.4,1-1v-2C100,290.4,99.6,290,99,290L99,290z
			 M99,282c-0.6,0-1,0.4-1,1v2c0,0.6,0.4,1,1,1s1-0.4,1-1v-2C100,282.4,99.6,282,99,282L99,282z M99,274c-0.6,0-1,0.4-1,1v2
			c0,0.6,0.4,1,1,1s1-0.4,1-1v-2C100,274.4,99.6,274,99,274L99,274z M99,266c-0.6,0-1,0.4-1,1v2c0,0.6,0.4,1,1,1s1-0.4,1-1v-2
			C100,266.4,99.6,266,99,266L99,266z M99,258c-0.6,0-1,0.4-1,1v2c0,0.6,0.4,1,1,1s1-0.4,1-1v-2C100,258.4,99.6,258,99,258L99,258z
			 M99,250c-0.6,0-1,0.4-1,1v2c0,0.6,0.4,1,1,1s1-0.4,1-1v-2C100,250.4,99.6,250,99,250L99,250z M99,242c-0.6,0-1,0.4-1,1v2
			c0,0.6,0.4,1,1,1s1-0.4,1-1v-2C100,242.4,99.6,242,99,242L99,242z M99,234c-0.6,0-1,0.4-1,1v2c0,0.6,0.4,1,1,1s1-0.4,1-1v-2
			C100,234.4,99.6,234,99,234L99,234z M99,226c-0.6,0-1,0.4-1,1v2c0,0.6,0.4,1,1,1s1-0.4,1-1v-2C100,226.4,99.6,226,99,226L99,226z
			 M99,218c-0.6,0-1,0.4-1,1v2c0,0.6,0.4,1,1,1s1-0.4,1-1v-2C100,218.4,99.6,218,99,218L99,218z M99,210c-0.6,0-1,0.4-1,1v2
			c0,0.6,0.4,1,1,1s1-0.4,1-1v-2C100,210.4,99.6,210,99,210L99,210z M99,202c-0.6,0-1,0.4-1,1v2c0,0.6,0.4,1,1,1s1-0.4,1-1v-2
			C100,202.4,99.6,202,99,202L99,202z M99,194c-0.6,0-1,0.4-1,1v2c0,0.6,0.4,1,1,1s1-0.4,1-1v-2C100,194.4,99.6,194,99,194L99,194z
			 M99,186c-0.6,0-1,0.4-1,1v2c0,0.6,0.4,1,1,1s1-0.4,1-1v-2C100,186.4,99.6,186,99,186L99,186z"/>
	</g>
</g>
<rect id="Rectangle-10" x="12" y="299" class="st11" width="88" height="114"/>
<text transform="matrix(1 0 0 1 39 363)" class="st8 st1 st4">33.0</text>
<text transform="matrix(1 0 0 1 39 249)" class="st0 st1 st4">67.0</text>
<path id="Line" class="st6" d="M117,280.4V325"/>
<path id="Line-decoration-1" class="st6" d="M117,325l3-10.8h-6L117,325z"/>
<g id="Rectangle-10-Copy-4">
	<path id="path-5_1_" class="st12" d="M38,100h26v16H38"/>
</g>
<path id="Rectangle-10-Copy-6" class="st7" d="M38,138h26v16H38V138z"/>
<g id="Rectangle-10-Copy-5" transform="translate(13.000000, 8.000000) scale(-1, 1) translate(-13.000000, -8.000000) ">
	<path id="path-7_1_" class="st13" d="M38,100H12v16h26"/>
</g>
<path id="Rectangle-10-Copy-7" class="st11" d="M38,138H12v16h26V138z"/>
<text transform="matrix(1 0 0 1 86 117)" class="st0 st14 st4">2010-2015年</text>
<text transform="matrix(1 0 0 1 86 155)" class="st0 st14 st4">2016-2017年</text>
</svg>
