<?xml version="1.0" encoding="utf-8"?>
<!-- Generator: Adobe Illustrator 22.0.1, SVG Export Plug-In . SVG Version: 6.00 Build 0)  -->
<svg version="1.1" id="圖層_1" xmlns="http://www.w3.org/2000/svg" xmlns:xlink="http://www.w3.org/1999/xlink" x="0px" y="0px"
	 viewBox="0 0 656 492" style="enable-background:new 0 0 656 492;" xml:space="preserve">
<style type="text/css">
	.st0{enable-background:new    ;}
	.st1{fill:#4A4A4A;}
	.st2{fill:#BCBCBC;}
	.st3{fill:#B7956F;}
	.st4{fill:#004483;}
	.st5{fill:none;stroke:#FBB613;stroke-width:4;stroke-linecap:round;}
	.st6{fill:none;stroke:#004483;stroke-width:4;stroke-linecap:round;stroke-linejoin:round;}
	.st7{fill:none;stroke:#B7956F;stroke-width:4;stroke-linecap:round;stroke-linejoin:round;}
</style>
<title>s1_2_1 copy</title>
<desc>Created with Sketch.</desc>
<g id="s1_2_1-copy">
	<g id="Group" transform="translate(0.000000, -4.000000)">
		<g id="Group-2">
			<g class="st0">
				<path class="st1" d="M10.6,102.2c0.7,0.6,1,1.3,1,2.3c0,1.3-0.6,2.1-1.9,2.6c0.7,0.2,1.2,0.5,1.5,1c0.4,0.4,0.6,1,0.6,1.7
					c0,1-0.4,1.9-1.1,2.5c-0.7,0.7-1.7,1-2.9,1c-1.1,0-2-0.3-2.7-0.8c-0.8-0.7-1.3-1.6-1.4-2.9h1.3c0,0.9,0.3,1.6,0.9,2
					c0.5,0.4,1.1,0.6,1.8,0.6c0.8,0,1.5-0.2,2-0.7c0.4-0.4,0.7-1,0.7-1.7c0-0.7-0.2-1.2-0.7-1.6c-0.4-0.4-1.1-0.6-1.9-0.6H7v-1h0.9
					c0.8,0,1.3-0.2,1.7-0.5c0.4-0.4,0.6-0.8,0.6-1.5c0-0.6-0.2-1.1-0.6-1.5c-0.4-0.4-1-0.6-1.7-0.6c-0.8,0-1.4,0.2-1.8,0.6
					c-0.4,0.4-0.7,1-0.8,1.8H4.1c0.1-1.1,0.5-2,1.2-2.6c0.7-0.6,1.6-0.9,2.6-0.9S9.9,101.6,10.6,102.2z"/>
				<path class="st1" d="M21.4,101.6v1.2h-5.6l-0.4,3.8h0.1c0.3-0.4,0.7-0.7,1.2-0.9c0.4-0.2,0.9-0.3,1.5-0.3c1.1,0,2,0.3,2.6,1
					c0.7,0.7,1,1.7,1,2.9c0,1.2-0.4,2.1-1.2,2.8c-0.8,0.7-1.7,1-2.8,1c-1,0-1.9-0.3-2.6-0.8c-0.8-0.6-1.2-1.4-1.3-2.5h1.3
					c0.1,0.7,0.4,1.3,0.9,1.7c0.4,0.3,1,0.5,1.7,0.5c0.8,0,1.5-0.3,2-0.8c0.5-0.5,0.8-1.2,0.8-2c0-0.9-0.3-1.6-0.7-2.1
					c-0.5-0.5-1.1-0.8-2-0.8c-0.5,0-1,0.1-1.5,0.4c-0.4,0.2-0.8,0.6-1,1h-1.2l0.6-6.3H21.4z"/>
				<path class="st1" d="M31.1,103.2c0.6,1,0.9,2.4,0.9,4.1c0,1.7-0.3,3.1-0.9,4.1c-0.7,1.2-1.7,1.8-3.1,1.8c-1.4,0-2.4-0.6-3.1-1.8
					c-0.6-1-0.9-2.4-0.9-4.1c0-1.7,0.3-3.1,0.9-4.1c0.7-1.2,1.7-1.8,3.1-1.8C29.3,101.3,30.3,101.9,31.1,103.2z M25.8,104.1
					c-0.3,0.8-0.5,1.8-0.5,3.2c0,1.3,0.2,2.4,0.5,3.2c0.4,1.1,1.2,1.6,2.2,1.6s1.8-0.6,2.2-1.6c0.3-0.8,0.5-1.8,0.5-3.2
					c0-1.3-0.2-2.4-0.5-3.2c-0.4-1.1-1.2-1.6-2.2-1.6S26.2,103,25.8,104.1z"/>
			</g>
			<g class="st0">
				<path class="st1" d="M10.6,149.2c0.7,0.6,1,1.3,1,2.3c0,1.3-0.6,2.1-1.9,2.6c0.7,0.2,1.2,0.5,1.5,1c0.4,0.4,0.6,1,0.6,1.7
					c0,1-0.4,1.9-1.1,2.5c-0.7,0.7-1.7,1-2.9,1c-1.1,0-2-0.3-2.7-0.8c-0.8-0.7-1.3-1.6-1.4-2.9h1.3c0,0.9,0.3,1.6,0.9,2
					c0.5,0.4,1.1,0.6,1.8,0.6c0.8,0,1.5-0.2,2-0.7c0.4-0.4,0.7-1,0.7-1.7c0-0.7-0.2-1.2-0.7-1.6c-0.4-0.4-1.1-0.6-1.9-0.6H7v-1h0.9
					c0.8,0,1.3-0.2,1.7-0.5c0.4-0.4,0.6-0.8,0.6-1.5c0-0.6-0.2-1.1-0.6-1.5c-0.4-0.4-1-0.6-1.7-0.6c-0.8,0-1.4,0.2-1.8,0.6
					c-0.4,0.4-0.7,1-0.8,1.8H4.1c0.1-1.1,0.5-2,1.2-2.6c0.7-0.6,1.6-0.9,2.6-0.9S9.9,148.6,10.6,149.2z"/>
				<path class="st1" d="M21,150.2c0.6,1,0.9,2.4,0.9,4.1c0,1.7-0.3,3.1-0.9,4.1c-0.7,1.2-1.7,1.8-3.1,1.8c-1.4,0-2.4-0.6-3.1-1.8
					c-0.6-1-0.9-2.4-0.9-4.1c0-1.7,0.3-3.1,0.9-4.1c0.7-1.2,1.7-1.8,3.1-1.8C19.2,148.3,20.3,148.9,21,150.2z M15.7,151.1
					c-0.3,0.8-0.5,1.8-0.5,3.2c0,1.3,0.2,2.4,0.5,3.2c0.4,1.1,1.2,1.6,2.2,1.6s1.8-0.6,2.2-1.6c0.3-0.8,0.5-1.8,0.5-3.2
					c0-1.3-0.2-2.4-0.5-3.2c-0.4-1.1-1.2-1.6-2.2-1.6S16.1,150,15.7,151.1z"/>
				<path class="st1" d="M31.1,150.2c0.6,1,0.9,2.4,0.9,4.1c0,1.7-0.3,3.1-0.9,4.1c-0.7,1.2-1.7,1.8-3.1,1.8c-1.4,0-2.4-0.6-3.1-1.8
					c-0.6-1-0.9-2.4-0.9-4.1c0-1.7,0.3-3.1,0.9-4.1c0.7-1.2,1.7-1.8,3.1-1.8C29.3,148.3,30.3,148.9,31.1,150.2z M25.8,151.1
					c-0.3,0.8-0.5,1.8-0.5,3.2c0,1.3,0.2,2.4,0.5,3.2c0.4,1.1,1.2,1.6,2.2,1.6s1.8-0.6,2.2-1.6c0.3-0.8,0.5-1.8,0.5-3.2
					c0-1.3-0.2-2.4-0.5-3.2c-0.4-1.1-1.2-1.6-2.2-1.6S26.2,150,25.8,151.1z"/>
			</g>
			<g class="st0">
				<path class="st1" d="M10.6,196.3c0.7,0.6,1,1.4,1,2.4s-0.4,1.9-1.1,2.7c-0.4,0.4-1.2,1-2.4,1.8c-1.5,1-2.3,1.9-2.5,2.6h6v1.2H4
					c0-1,0.4-2,1.1-2.8c0.4-0.5,1.3-1.2,2.5-2c0.9-0.6,1.5-1.1,1.8-1.4c0.6-0.6,0.9-1.3,0.9-2c0-0.7-0.2-1.2-0.6-1.6s-1-0.6-1.7-0.6
					c-0.8,0-1.4,0.3-1.8,0.8c-0.4,0.5-0.7,1.3-0.7,2.3H4.1c0-1.3,0.4-2.3,1.1-3.1c0.7-0.8,1.6-1.2,2.8-1.2
					C9,195.3,9.9,195.7,10.6,196.3z"/>
				<path class="st1" d="M21.4,195.6v1.2h-5.6l-0.4,3.8h0.1c0.3-0.4,0.7-0.7,1.2-0.9c0.4-0.2,0.9-0.3,1.5-0.3c1.1,0,2,0.3,2.6,1
					c0.7,0.7,1,1.7,1,2.9c0,1.2-0.4,2.1-1.2,2.8c-0.8,0.7-1.7,1-2.8,1c-1,0-1.9-0.3-2.6-0.8c-0.8-0.6-1.2-1.4-1.3-2.5h1.3
					c0.1,0.7,0.4,1.3,0.9,1.7c0.4,0.3,1,0.5,1.7,0.5c0.8,0,1.5-0.3,2-0.8c0.5-0.5,0.8-1.2,0.8-2c0-0.9-0.3-1.6-0.7-2.1
					c-0.5-0.5-1.1-0.8-2-0.8c-0.5,0-1,0.1-1.5,0.4c-0.4,0.2-0.8,0.6-1,1h-1.2l0.6-6.3H21.4z"/>
				<path class="st1" d="M31.1,197.2c0.6,1,0.9,2.4,0.9,4.1c0,1.7-0.3,3.1-0.9,4.1c-0.7,1.2-1.7,1.8-3.1,1.8c-1.4,0-2.4-0.6-3.1-1.8
					c-0.6-1-0.9-2.4-0.9-4.1c0-1.7,0.3-3.1,0.9-4.1c0.7-1.2,1.7-1.8,3.1-1.8C29.3,195.3,30.3,195.9,31.1,197.2z M25.8,198.1
					c-0.3,0.8-0.5,1.8-0.5,3.2c0,1.3,0.2,2.4,0.5,3.2c0.4,1.1,1.2,1.6,2.2,1.6s1.8-0.6,2.2-1.6c0.3-0.8,0.5-1.8,0.5-3.2
					c0-1.3-0.2-2.4-0.5-3.2c-0.4-1.1-1.2-1.6-2.2-1.6S26.2,197,25.8,198.1z"/>
			</g>
			<g class="st0">
				<path class="st1" d="M10.6,243.3c0.7,0.6,1,1.4,1,2.4s-0.4,1.9-1.1,2.7c-0.4,0.4-1.2,1-2.4,1.8c-1.5,1-2.3,1.9-2.5,2.6h6v1.2H4
					c0-1,0.4-2,1.1-2.8c0.4-0.5,1.3-1.2,2.5-2c0.9-0.6,1.5-1.1,1.8-1.4c0.6-0.6,0.9-1.3,0.9-2c0-0.7-0.2-1.2-0.6-1.6s-1-0.6-1.7-0.6
					c-0.8,0-1.4,0.3-1.8,0.8c-0.4,0.5-0.7,1.3-0.7,2.3H4.1c0-1.3,0.4-2.3,1.1-3.1c0.7-0.8,1.6-1.2,2.8-1.2
					C9,242.3,9.9,242.7,10.6,243.3z"/>
				<path class="st1" d="M21,244.2c0.6,1,0.9,2.4,0.9,4.1c0,1.7-0.3,3.1-0.9,4.1c-0.7,1.2-1.7,1.8-3.1,1.8c-1.4,0-2.4-0.6-3.1-1.8
					c-0.6-1-0.9-2.4-0.9-4.1c0-1.7,0.3-3.1,0.9-4.1c0.7-1.2,1.7-1.8,3.1-1.8C19.2,242.3,20.3,242.9,21,244.2z M15.7,245.1
					c-0.3,0.8-0.5,1.8-0.5,3.2c0,1.3,0.2,2.4,0.5,3.2c0.4,1.1,1.2,1.6,2.2,1.6s1.8-0.6,2.2-1.6c0.3-0.8,0.5-1.8,0.5-3.2
					c0-1.3-0.2-2.4-0.5-3.2c-0.4-1.1-1.2-1.6-2.2-1.6S16.1,244,15.7,245.1z"/>
				<path class="st1" d="M31.1,244.2c0.6,1,0.9,2.4,0.9,4.1c0,1.7-0.3,3.1-0.9,4.1c-0.7,1.2-1.7,1.8-3.1,1.8c-1.4,0-2.4-0.6-3.1-1.8
					c-0.6-1-0.9-2.4-0.9-4.1c0-1.7,0.3-3.1,0.9-4.1c0.7-1.2,1.7-1.8,3.1-1.8C29.3,242.3,30.3,242.9,31.1,244.2z M25.8,245.1
					c-0.3,0.8-0.5,1.8-0.5,3.2c0,1.3,0.2,2.4,0.5,3.2c0.4,1.1,1.2,1.6,2.2,1.6s1.8-0.6,2.2-1.6c0.3-0.8,0.5-1.8,0.5-3.2
					c0-1.3-0.2-2.4-0.5-3.2c-0.4-1.1-1.2-1.6-2.2-1.6S26.2,244,25.8,245.1z"/>
			</g>
			<g class="st0">
				<path class="st1" d="M10.7,289.6V301H9.4v-9.8c-0.7,0.7-1.6,1.2-2.7,1.6v-1.3c0.5-0.1,1.1-0.4,1.6-0.7c0.5-0.4,1-0.7,1.4-1.2
					H10.7z"/>
				<path class="st1" d="M21.2,289.6v1.2h-5.6l-0.4,3.8h0.1c0.3-0.4,0.7-0.7,1.2-0.9c0.4-0.2,0.9-0.3,1.5-0.3c1.1,0,2,0.3,2.6,1
					c0.7,0.7,1,1.7,1,2.9c0,1.2-0.4,2.1-1.2,2.8c-0.8,0.7-1.7,1-2.8,1c-1,0-1.9-0.3-2.6-0.8c-0.8-0.6-1.2-1.4-1.3-2.5H15
					c0.1,0.7,0.4,1.3,0.9,1.7c0.4,0.3,1,0.5,1.7,0.5c0.8,0,1.5-0.3,2-0.8c0.5-0.5,0.8-1.2,0.8-2c0-0.9-0.3-1.6-0.7-2.1
					c-0.5-0.5-1.1-0.8-2-0.8c-0.5,0-1,0.1-1.5,0.4c-0.4,0.2-0.8,0.6-1,1H14l0.6-6.3H21.2z"/>
				<path class="st1" d="M30.9,291.2c0.6,1,0.9,2.4,0.9,4.1c0,1.7-0.3,3.1-0.9,4.1c-0.7,1.2-1.7,1.8-3.1,1.8c-1.4,0-2.4-0.6-3.1-1.8
					c-0.6-1-0.9-2.4-0.9-4.1c0-1.7,0.3-3.1,0.9-4.1c0.7-1.2,1.7-1.8,3.1-1.8C29.1,289.3,30.2,289.9,30.9,291.2z M25.6,292.1
					c-0.3,0.8-0.5,1.8-0.5,3.2c0,1.3,0.2,2.4,0.5,3.2c0.4,1.1,1.2,1.6,2.2,1.6s1.8-0.6,2.2-1.6c0.3-0.8,0.5-1.8,0.5-3.2
					c0-1.3-0.2-2.4-0.5-3.2c-0.4-1.1-1.2-1.6-2.2-1.6S26,291,25.6,292.1z"/>
			</g>
			<g class="st0">
				<path class="st1" d="M10.7,336.6V348H9.4v-9.8c-0.7,0.7-1.6,1.2-2.7,1.6v-1.3c0.5-0.1,1.1-0.4,1.6-0.7c0.5-0.4,1-0.7,1.4-1.2
					H10.7z"/>
				<path class="st1" d="M20.8,338.2c0.6,1,0.9,2.4,0.9,4.1c0,1.7-0.3,3.1-0.9,4.1c-0.7,1.2-1.7,1.8-3.1,1.8c-1.4,0-2.4-0.6-3.1-1.8
					c-0.6-1-0.9-2.4-0.9-4.1c0-1.7,0.3-3.1,0.9-4.1c0.7-1.2,1.7-1.8,3.1-1.8C19.1,336.3,20.1,336.9,20.8,338.2z M15.5,339.1
					c-0.3,0.8-0.5,1.8-0.5,3.2c0,1.3,0.2,2.4,0.5,3.2c0.4,1.1,1.2,1.6,2.2,1.6s1.8-0.6,2.2-1.6c0.3-0.8,0.5-1.8,0.5-3.2
					c0-1.3-0.2-2.4-0.5-3.2c-0.4-1.1-1.2-1.6-2.2-1.6S15.9,338,15.5,339.1z"/>
				<path class="st1" d="M30.9,338.2c0.6,1,0.9,2.4,0.9,4.1c0,1.7-0.3,3.1-0.9,4.1c-0.7,1.2-1.7,1.8-3.1,1.8c-1.4,0-2.4-0.6-3.1-1.8
					c-0.6-1-0.9-2.4-0.9-4.1c0-1.7,0.3-3.1,0.9-4.1c0.7-1.2,1.7-1.8,3.1-1.8C29.1,336.3,30.2,336.9,30.9,338.2z M25.6,339.1
					c-0.3,0.8-0.5,1.8-0.5,3.2c0,1.3,0.2,2.4,0.5,3.2c0.4,1.1,1.2,1.6,2.2,1.6s1.8-0.6,2.2-1.6c0.3-0.8,0.5-1.8,0.5-3.2
					c0-1.3-0.2-2.4-0.5-3.2c-0.4-1.1-1.2-1.6-2.2-1.6S26,338,25.6,339.1z"/>
			</g>
			<g class="st0">
				<path class="st1" d="M21.3,383.6v1.2h-5.6l-0.4,3.8h0.1c0.3-0.4,0.7-0.7,1.2-0.9c0.4-0.2,0.9-0.3,1.5-0.3c1.1,0,2,0.3,2.6,1
					c0.7,0.7,1,1.7,1,2.9c0,1.2-0.4,2.1-1.2,2.8c-0.8,0.7-1.7,1-2.8,1c-1,0-1.9-0.3-2.6-0.8c-0.8-0.6-1.2-1.4-1.3-2.5h1.3
					c0.1,0.7,0.4,1.3,0.9,1.7c0.4,0.3,1,0.5,1.7,0.5c0.8,0,1.5-0.3,2-0.8c0.5-0.5,0.8-1.2,0.8-2c0-0.9-0.3-1.6-0.7-2.1
					c-0.5-0.5-1.1-0.8-2-0.8c-0.5,0-1,0.1-1.5,0.4c-0.4,0.2-0.8,0.6-1,1h-1.2l0.6-6.3H21.3z"/>
				<path class="st1" d="M31,385.2c0.6,1,0.9,2.4,0.9,4.1c0,1.7-0.3,3.1-0.9,4.1c-0.7,1.2-1.7,1.8-3.1,1.8c-1.4,0-2.4-0.6-3.1-1.8
					c-0.6-1-0.9-2.4-0.9-4.1c0-1.7,0.3-3.1,0.9-4.1c0.7-1.2,1.7-1.8,3.1-1.8C29.2,383.3,30.3,383.9,31,385.2z M25.7,386.1
					c-0.3,0.8-0.5,1.8-0.5,3.2c0,1.3,0.2,2.4,0.5,3.2c0.4,1.1,1.2,1.6,2.2,1.6s1.8-0.6,2.2-1.6c0.3-0.8,0.5-1.8,0.5-3.2
					c0-1.3-0.2-2.4-0.5-3.2c-0.4-1.1-1.2-1.6-2.2-1.6S26.1,385,25.7,386.1z"/>
			</g>
			<g class="st0">
				<path class="st1" d="M30.9,432.2c0.6,1,0.9,2.4,0.9,4.1c0,1.7-0.3,3.1-0.9,4.1c-0.7,1.2-1.7,1.8-3.1,1.8c-1.4,0-2.4-0.6-3.1-1.8
					c-0.6-1-0.9-2.4-0.9-4.1c0-1.7,0.3-3.1,0.9-4.1c0.7-1.2,1.7-1.8,3.1-1.8C29.2,430.3,30.2,430.9,30.9,432.2z M25.6,433.1
					c-0.3,0.8-0.5,1.8-0.5,3.2c0,1.3,0.2,2.4,0.5,3.2c0.4,1.1,1.2,1.6,2.2,1.6s1.8-0.6,2.2-1.6c0.3-0.8,0.5-1.8,0.5-3.2
					c0-1.3-0.2-2.4-0.5-3.2c-0.4-1.1-1.2-1.6-2.2-1.6S26,432,25.6,433.1z"/>
			</g>
			<g class="st0">
				<path class="st1" d="M47.9,493.6v-1.4l7-4.3h-7v-1.1h8.6v1.3l-6.9,4.4h6.9v1.1H47.9z"/>
				<path class="st1" d="M50.9,480.2c0.5-0.6,1.3-0.8,2.4-0.8c1,0,1.8,0.2,2.5,0.7s1,1.2,1,2.3c0,0.9-0.3,1.5-0.9,2
					c-0.6,0.5-1.4,0.8-2.4,0.8c-1.1,0-1.9-0.3-2.5-0.8c-0.6-0.5-0.9-1.2-0.9-2.1C50,481.4,50.3,480.7,50.9,480.2z M55,480.8
					c-0.5-0.3-1.1-0.4-1.8-0.4c-0.6,0-1.1,0.1-1.4,0.3c-0.6,0.3-0.9,0.8-0.9,1.5c0,0.6,0.2,1.1,0.7,1.4c0.5,0.3,1.1,0.4,1.8,0.4
					c0.7,0,1.2-0.1,1.7-0.4c0.4-0.3,0.7-0.7,0.7-1.4C55.8,481.6,55.5,481.1,55,480.8z"/>
				<path class="st1" d="M50.2,477.2l5.1-1.7l-5.1-1.7v-1.2l6.3,2.4v1.1l-6.3,2.3V477.2z"/>
				<path class="st1" d="M52.6,471.6v-2.9h1.1v2.9H52.6z"/>
				<path class="st1" d="M49.5,462.2c0.7-0.4,1.6-0.6,2.8-0.6c1.1,0,2.1,0.2,2.8,0.5c1.1,0.5,1.6,1.3,1.6,2.4c0,1-0.4,1.8-1.3,2.2
					c-0.7,0.4-1.7,0.6-2.9,0.6c-1,0-1.8-0.1-2.5-0.4c-1.3-0.5-1.9-1.3-1.9-2.5C48.1,463.4,48.6,462.7,49.5,462.2z M55,463.2
					c-0.5-0.3-1.4-0.5-2.7-0.5c-1,0-1.7,0.1-2.4,0.4c-0.6,0.2-0.9,0.7-0.9,1.4c0,0.6,0.3,1.1,0.9,1.4c0.6,0.3,1.4,0.4,2.6,0.4
					c0.9,0,1.5-0.1,2.1-0.3c0.8-0.3,1.2-0.8,1.2-1.4C55.8,464,55.5,463.6,55,463.2z"/>
				<path class="st1" d="M55.9,459.8c-0.5,0.4-1.2,0.7-2,0.7v-1.1c0.5,0,0.9-0.1,1.2-0.3c0.4-0.3,0.7-0.8,0.7-1.5
					c0-0.6-0.1-1-0.4-1.3s-0.7-0.5-1.1-0.5c-0.6,0-1,0.2-1.2,0.5s-0.3,0.8-0.3,1.5c0,0.1,0,0.1,0,0.2s0,0.1,0,0.2h-0.9
					c0-0.1,0-0.2,0-0.3s0-0.2,0-0.2c0-0.4-0.1-0.7-0.2-1c-0.2-0.4-0.6-0.7-1.2-0.7c-0.4,0-0.7,0.1-1,0.4s-0.3,0.6-0.3,1
					c0,0.7,0.2,1.2,0.7,1.5c0.3,0.1,0.6,0.2,1.1,0.3v1c-0.6,0-1.2-0.1-1.6-0.4c-0.8-0.4-1.2-1.2-1.2-2.3c0-0.9,0.2-1.5,0.6-2
					s0.9-0.7,1.7-0.7c0.5,0,0.9,0.1,1.3,0.4c0.2,0.2,0.4,0.4,0.5,0.7c0.1-0.4,0.4-0.8,0.7-1s0.8-0.4,1.3-0.4c0.8,0,1.5,0.3,2,0.8
					s0.8,1.3,0.8,2.2C56.7,458.6,56.5,459.3,55.9,459.8z"/>
			</g>
			<g class="st0">
				<path class="st1" d="M447.9,493.6v-1.4l7-4.3h-7v-1.1h8.6v1.3l-6.9,4.4h6.9v1.1H447.9z"/>
				<path class="st1" d="M450.9,480.2c0.5-0.6,1.3-0.8,2.4-0.8c1,0,1.8,0.2,2.5,0.7s1,1.2,1,2.3c0,0.9-0.3,1.5-0.9,2
					c-0.6,0.5-1.4,0.8-2.4,0.8c-1.1,0-1.9-0.3-2.5-0.8c-0.6-0.5-0.9-1.2-0.9-2.1C450,481.4,450.3,480.7,450.9,480.2z M455,480.8
					c-0.5-0.3-1.1-0.4-1.8-0.4c-0.6,0-1.1,0.1-1.4,0.3c-0.6,0.3-0.9,0.8-0.9,1.5c0,0.6,0.2,1.1,0.7,1.4c0.5,0.3,1.1,0.4,1.8,0.4
					c0.7,0,1.2-0.1,1.7-0.4c0.4-0.3,0.7-0.7,0.7-1.4C455.8,481.6,455.5,481.1,455,480.8z"/>
				<path class="st1" d="M450.2,477.2l5.1-1.7l-5.1-1.7v-1.2l6.3,2.4v1.1l-6.3,2.3V477.2z"/>
				<path class="st1" d="M452.6,471.6v-2.9h1.1v2.9H452.6z"/>
				<path class="st1" d="M450.6,466.6h-0.8c-0.1-0.8-0.2-1.3-0.4-1.6s-0.6-0.5-1.2-0.7v-0.8h8.4v1.1h-5.9V466.6z"/>
				<path class="st1" d="M455.9,459.8c-0.5,0.4-1.2,0.7-2,0.7v-1.1c0.5,0,0.9-0.1,1.2-0.3c0.4-0.3,0.7-0.8,0.7-1.5
					c0-0.6-0.1-1-0.4-1.3s-0.7-0.5-1.1-0.5c-0.6,0-1,0.2-1.2,0.5s-0.3,0.8-0.3,1.5c0,0.1,0,0.1,0,0.2s0,0.1,0,0.2h-0.9
					c0-0.1,0-0.2,0-0.3s0-0.2,0-0.2c0-0.4-0.1-0.7-0.2-1c-0.2-0.4-0.6-0.7-1.2-0.7c-0.4,0-0.7,0.1-1,0.4s-0.3,0.6-0.3,1
					c0,0.7,0.2,1.2,0.7,1.5c0.3,0.1,0.6,0.2,1.1,0.3v1c-0.6,0-1.2-0.1-1.6-0.4c-0.8-0.4-1.2-1.2-1.2-2.3c0-0.9,0.2-1.5,0.6-2
					s0.9-0.7,1.7-0.7c0.5,0,0.9,0.1,1.3,0.4c0.2,0.2,0.4,0.4,0.5,0.7c0.1-0.4,0.4-0.8,0.7-1s0.8-0.4,1.3-0.4c0.8,0,1.5,0.3,2,0.8
					s0.8,1.3,0.8,2.2C456.7,458.6,456.5,459.3,455.9,459.8z"/>
			</g>
			<g class="st0">
				<path class="st1" d="M427.9,493.6v-1.7l7.3-2.5l-7.3-2.5v-1.7h8.6v1.1h-5.1c-0.2,0-0.5,0-0.9,0s-0.8,0-1.3,0l7.3,2.5v1.2
					l-7.3,2.5h0.3c0.2,0,0.5,0,1,0s0.7,0,1,0h5.1v1.1H427.9z"/>
				<path class="st1" d="M432.7,480c0-0.2-0.1-0.4-0.3-0.5c-0.1,0-0.2-0.1-0.4-0.1c-0.4,0-0.6,0.1-0.8,0.4c-0.2,0.3-0.2,0.6-0.2,1.1
					c0,0.6,0.1,0.9,0.4,1.2c0.2,0.1,0.4,0.2,0.7,0.3v1c-0.8,0-1.3-0.3-1.6-0.8c-0.3-0.5-0.5-1-0.5-1.7c0-0.7,0.1-1.3,0.4-1.8
					c0.3-0.5,0.7-0.7,1.3-0.7h3.6c0.1,0,0.2,0,0.3-0.1s0.1-0.1,0.1-0.3c0,0,0-0.1,0-0.2s0-0.1,0-0.2h0.8c0,0.2,0.1,0.3,0.1,0.4
					s0,0.2,0,0.4c0,0.4-0.1,0.6-0.4,0.8c-0.1,0.1-0.3,0.1-0.6,0.2c0.3,0.2,0.5,0.5,0.7,0.9s0.3,0.8,0.3,1.3c0,0.6-0.2,1.1-0.5,1.4
					c-0.4,0.4-0.8,0.6-1.3,0.6c-0.6,0-1-0.2-1.4-0.5c-0.3-0.4-0.5-0.8-0.6-1.4L432.7,480z M435.6,482.2c0.2-0.2,0.3-0.5,0.3-0.8
					c0-0.4-0.1-0.7-0.3-1.1c-0.3-0.6-0.8-0.9-1.4-0.9h-0.8c0.1,0.1,0.2,0.3,0.2,0.5c0.1,0.2,0.1,0.4,0.1,0.6l0.1,0.6
					c0.1,0.4,0.1,0.7,0.2,0.9c0.2,0.3,0.5,0.5,0.9,0.5C435.1,482.6,435.4,482.5,435.6,482.2z"/>
				<path class="st1" d="M430.2,472.4v-1.2c0.4,0.1,1.3,0.5,2.8,1c1.1,0.4,2,0.7,2.6,1c1.6,0.6,2.6,1,2.9,1.3
					c0.4,0.2,0.5,0.7,0.5,1.3c0,0.1,0,0.3,0,0.3c0,0.1,0,0.2-0.1,0.3h-1c0.1-0.2,0.1-0.3,0.1-0.4s0-0.2,0-0.2c0-0.2,0-0.3-0.1-0.4
					s-0.1-0.2-0.2-0.2c0,0-0.2-0.1-0.5-0.2c-0.3-0.1-0.5-0.2-0.6-0.3l-6.5,2.3v-1.2l5.1-1.7L430.2,472.4z"/>
				<path class="st1" d="M432.6,470.3v-2.9h1.1v2.9H432.6z"/>
				<path class="st1" d="M430.6,465.3h-0.8c-0.1-0.8-0.2-1.3-0.4-1.6s-0.6-0.5-1.2-0.7v-0.8h8.4v1.1h-5.9V465.3z"/>
				<path class="st1" d="M435.9,458.5c-0.5,0.4-1.2,0.7-2,0.7V458c0.5,0,0.9-0.1,1.2-0.3c0.4-0.3,0.7-0.8,0.7-1.5
					c0-0.6-0.1-1-0.4-1.3s-0.7-0.5-1.1-0.5c-0.6,0-1,0.2-1.2,0.5s-0.3,0.8-0.3,1.5c0,0.1,0,0.1,0,0.2s0,0.1,0,0.2h-0.9
					c0-0.1,0-0.2,0-0.3s0-0.2,0-0.2c0-0.4-0.1-0.7-0.2-1c-0.2-0.4-0.6-0.7-1.2-0.7c-0.4,0-0.7,0.1-1,0.4s-0.3,0.6-0.3,1
					c0,0.7,0.2,1.2,0.7,1.5c0.3,0.1,0.6,0.2,1.1,0.3v1c-0.6,0-1.2-0.1-1.6-0.4c-0.8-0.4-1.2-1.2-1.2-2.3c0-0.9,0.2-1.5,0.6-2
					s0.9-0.7,1.7-0.7c0.5,0,0.9,0.1,1.3,0.4c0.2,0.2,0.4,0.4,0.5,0.7c0.1-0.4,0.4-0.8,0.7-1s0.8-0.4,1.3-0.4c0.8,0,1.5,0.3,2,0.8
					s0.8,1.3,0.8,2.2C436.7,457.3,436.5,458,435.9,458.5z"/>
			</g>
			<g class="st0">
				<path class="st1" d="M207.9,493.6v-1.4l7-4.3h-7v-1.1h8.6v1.3l-6.9,4.4h6.9v1.1H207.9z"/>
				<path class="st1" d="M210.9,480.2c0.5-0.6,1.3-0.8,2.4-0.8c1,0,1.8,0.2,2.5,0.7s1,1.2,1,2.3c0,0.9-0.3,1.5-0.9,2
					c-0.6,0.5-1.4,0.8-2.4,0.8c-1.1,0-1.9-0.3-2.5-0.8c-0.6-0.5-0.9-1.2-0.9-2.1C210,481.4,210.3,480.7,210.9,480.2z M215,480.8
					c-0.5-0.3-1.1-0.4-1.8-0.4c-0.6,0-1.1,0.1-1.4,0.3c-0.6,0.3-0.9,0.8-0.9,1.5c0,0.6,0.2,1.1,0.7,1.4c0.5,0.3,1.1,0.4,1.8,0.4
					c0.7,0,1.2-0.1,1.7-0.4c0.4-0.3,0.7-0.7,0.7-1.4C215.8,481.6,215.5,481.1,215,480.8z"/>
				<path class="st1" d="M210.2,477.2l5.1-1.7l-5.1-1.7v-1.2l6.3,2.4v1.1l-6.3,2.3V477.2z"/>
				<path class="st1" d="M212.6,471.6v-2.9h1.1v2.9H212.6z"/>
				<path class="st1" d="M209.5,462.2c0.7-0.4,1.6-0.6,2.8-0.6c1.1,0,2.1,0.2,2.8,0.5c1.1,0.5,1.6,1.3,1.6,2.4c0,1-0.4,1.8-1.3,2.2
					c-0.7,0.4-1.7,0.6-2.9,0.6c-1,0-1.8-0.1-2.5-0.4c-1.3-0.5-1.9-1.3-1.9-2.5C208.1,463.4,208.6,462.7,209.5,462.2z M215,463.2
					c-0.5-0.3-1.4-0.5-2.7-0.5c-1,0-1.7,0.1-2.4,0.4c-0.6,0.2-0.9,0.7-0.9,1.4c0,0.6,0.3,1.1,0.9,1.4c0.6,0.3,1.4,0.4,2.6,0.4
					c0.9,0,1.5-0.1,2.1-0.3c0.8-0.3,1.2-0.8,1.2-1.4C215.8,464,215.5,463.6,215,463.2z"/>
				<path class="st1" d="M208.2,454.5h0.9c0.3,0.3,0.7,0.6,1.4,1.1s1.3,0.8,2.1,1.2c0.7,0.3,1.4,0.6,2,0.8c0.4,0.1,1,0.3,1.9,0.4
					v1.2c-1.6-0.3-3.2-0.9-4.8-1.8c-0.9-0.5-1.7-1.1-2.4-1.7v4.6h-1.1V454.5z"/>
			</g>
			<g class="st0">
				<path class="st1" d="M187.9,493.6v-1.7l7.3-2.5l-7.3-2.5v-1.7h8.6v1.1h-5.1c-0.2,0-0.5,0-0.9,0s-0.8,0-1.3,0l7.3,2.5v1.2
					l-7.3,2.5h0.3c0.2,0,0.5,0,1,0s0.7,0,1,0h5.1v1.1H187.9z"/>
				<path class="st1" d="M192.7,480c0-0.2-0.1-0.4-0.3-0.5c-0.1,0-0.2-0.1-0.4-0.1c-0.4,0-0.6,0.1-0.8,0.4c-0.2,0.3-0.2,0.6-0.2,1.1
					c0,0.6,0.1,0.9,0.4,1.2c0.2,0.1,0.4,0.2,0.7,0.3v1c-0.8,0-1.3-0.3-1.6-0.8c-0.3-0.5-0.5-1-0.5-1.7c0-0.7,0.1-1.3,0.4-1.8
					c0.3-0.5,0.7-0.7,1.3-0.7h3.6c0.1,0,0.2,0,0.3-0.1s0.1-0.1,0.1-0.3c0,0,0-0.1,0-0.2s0-0.1,0-0.2h0.8c0,0.2,0.1,0.3,0.1,0.4
					s0,0.2,0,0.4c0,0.4-0.1,0.6-0.4,0.8c-0.1,0.1-0.3,0.1-0.6,0.2c0.3,0.2,0.5,0.5,0.7,0.9s0.3,0.8,0.3,1.3c0,0.6-0.2,1.1-0.5,1.4
					c-0.4,0.4-0.8,0.6-1.3,0.6c-0.6,0-1-0.2-1.4-0.5c-0.3-0.4-0.5-0.8-0.6-1.4L192.7,480z M195.6,482.2c0.2-0.2,0.3-0.5,0.3-0.8
					c0-0.4-0.1-0.7-0.3-1.1c-0.3-0.6-0.8-0.9-1.4-0.9h-0.8c0.1,0.1,0.2,0.3,0.2,0.5c0.1,0.2,0.1,0.4,0.1,0.6l0.1,0.6
					c0.1,0.4,0.1,0.7,0.2,0.9c0.2,0.3,0.5,0.5,0.9,0.5C195.1,482.6,195.4,482.5,195.6,482.2z"/>
				<path class="st1" d="M190.2,472.4v-1.2c0.4,0.1,1.3,0.5,2.8,1c1.1,0.4,2,0.7,2.6,1c1.6,0.6,2.6,1,2.9,1.3
					c0.4,0.2,0.5,0.7,0.5,1.3c0,0.1,0,0.3,0,0.3c0,0.1,0,0.2-0.1,0.3h-1c0.1-0.2,0.1-0.3,0.1-0.4s0-0.2,0-0.2c0-0.2,0-0.3-0.1-0.4
					s-0.1-0.2-0.2-0.2c0,0-0.2-0.1-0.5-0.2c-0.3-0.1-0.5-0.2-0.6-0.3l-6.5,2.3v-1.2l5.1-1.7L190.2,472.4z"/>
				<path class="st1" d="M192.6,470.3v-2.9h1.1v2.9H192.6z"/>
				<path class="st1" d="M189.5,460.8c0.7-0.4,1.6-0.6,2.8-0.6c1.1,0,2.1,0.2,2.8,0.5c1.1,0.5,1.6,1.3,1.6,2.4c0,1-0.4,1.8-1.3,2.2
					c-0.7,0.4-1.7,0.6-2.9,0.6c-1,0-1.8-0.1-2.5-0.4c-1.3-0.5-1.9-1.3-1.9-2.5C188.1,462.1,188.6,461.3,189.5,460.8z M195,461.9
					c-0.5-0.3-1.4-0.5-2.7-0.5c-1,0-1.7,0.1-2.4,0.4c-0.6,0.2-0.9,0.7-0.9,1.4c0,0.6,0.3,1.1,0.9,1.4c0.6,0.3,1.4,0.4,2.6,0.4
					c0.9,0,1.5-0.1,2.1-0.3c0.8-0.3,1.2-0.8,1.2-1.4C195.8,462.7,195.5,462.2,195,461.9z"/>
				<path class="st1" d="M188.2,453.1h0.9c0.3,0.3,0.7,0.6,1.4,1.1s1.3,0.8,2.1,1.2c0.7,0.3,1.4,0.6,2,0.8c0.4,0.1,1,0.3,1.9,0.4
					v1.2c-1.6-0.3-3.2-0.9-4.8-1.8c-0.9-0.5-1.7-1.1-2.4-1.7v4.6h-1.1V453.1z"/>
			</g>
			<g class="st0">
				<path class="st1" d="M607.9,493.6v-1.4l7-4.3h-7v-1.1h8.6v1.3l-6.9,4.4h6.9v1.1H607.9z"/>
				<path class="st1" d="M610.9,480.2c0.5-0.6,1.3-0.8,2.4-0.8c1,0,1.8,0.2,2.5,0.7s1,1.2,1,2.3c0,0.9-0.3,1.5-0.9,2
					c-0.6,0.5-1.4,0.8-2.4,0.8c-1.1,0-1.9-0.3-2.5-0.8c-0.6-0.5-0.9-1.2-0.9-2.1C610,481.4,610.3,480.7,610.9,480.2z M615,480.8
					c-0.5-0.3-1.1-0.4-1.8-0.4c-0.6,0-1.1,0.1-1.4,0.3c-0.6,0.3-0.9,0.8-0.9,1.5c0,0.6,0.2,1.1,0.7,1.4c0.5,0.3,1.1,0.4,1.8,0.4
					c0.7,0,1.2-0.1,1.7-0.4c0.4-0.3,0.7-0.7,0.7-1.4C615.8,481.6,615.5,481.1,615,480.8z"/>
				<path class="st1" d="M610.2,477.2l5.1-1.7l-5.1-1.7v-1.2l6.3,2.4v1.1l-6.3,2.3V477.2z"/>
				<path class="st1" d="M612.6,471.6v-2.9h1.1v2.9H612.6z"/>
				<path class="st1" d="M610.6,466.6h-0.8c-0.1-0.8-0.2-1.3-0.4-1.6s-0.6-0.5-1.2-0.7v-0.8h8.4v1.1h-5.9V466.6z"/>
				<path class="st1" d="M608.2,454.5h0.9c0.3,0.3,0.7,0.6,1.4,1.1s1.3,0.8,2.1,1.2c0.7,0.3,1.4,0.6,2,0.8c0.4,0.1,1,0.3,1.9,0.4
					v1.2c-1.6-0.3-3.2-0.9-4.8-1.8c-0.9-0.5-1.7-1.1-2.4-1.7v4.6h-1.1V454.5z"/>
			</g>
			<g class="st0">
				<path class="st1" d="M587.9,493.6v-1.7l7.3-2.5l-7.3-2.5v-1.7h8.6v1.1h-5.1c-0.2,0-0.5,0-0.9,0s-0.8,0-1.3,0l7.3,2.5v1.2
					l-7.3,2.5h0.3c0.2,0,0.5,0,1,0s0.7,0,1,0h5.1v1.1H587.9z"/>
				<path class="st1" d="M592.7,480c0-0.2-0.1-0.4-0.3-0.5c-0.1,0-0.2-0.1-0.4-0.1c-0.4,0-0.6,0.1-0.8,0.4c-0.2,0.3-0.2,0.6-0.2,1.1
					c0,0.6,0.1,0.9,0.4,1.2c0.2,0.1,0.4,0.2,0.7,0.3v1c-0.8,0-1.3-0.3-1.6-0.8c-0.3-0.5-0.5-1-0.5-1.7c0-0.7,0.1-1.3,0.4-1.8
					c0.3-0.5,0.7-0.7,1.3-0.7h3.6c0.1,0,0.2,0,0.3-0.1s0.1-0.1,0.1-0.3c0,0,0-0.1,0-0.2s0-0.1,0-0.2h0.8c0,0.2,0.1,0.3,0.1,0.4
					s0,0.2,0,0.4c0,0.4-0.1,0.6-0.4,0.8c-0.1,0.1-0.3,0.1-0.6,0.2c0.3,0.2,0.5,0.5,0.7,0.9s0.3,0.8,0.3,1.3c0,0.6-0.2,1.1-0.5,1.4
					c-0.4,0.4-0.8,0.6-1.3,0.6c-0.6,0-1-0.2-1.4-0.5c-0.3-0.4-0.5-0.8-0.6-1.4L592.7,480z M595.6,482.2c0.2-0.2,0.3-0.5,0.3-0.8
					c0-0.4-0.1-0.7-0.3-1.1c-0.3-0.6-0.8-0.9-1.4-0.9h-0.8c0.1,0.1,0.2,0.3,0.2,0.5c0.1,0.2,0.1,0.4,0.1,0.6l0.1,0.6
					c0.1,0.4,0.1,0.7,0.2,0.9c0.2,0.3,0.5,0.5,0.9,0.5C595.1,482.6,595.4,482.5,595.6,482.2z"/>
				<path class="st1" d="M590.2,472.4v-1.2c0.4,0.1,1.3,0.5,2.8,1c1.1,0.4,2,0.7,2.6,1c1.6,0.6,2.6,1,2.9,1.3
					c0.4,0.2,0.5,0.7,0.5,1.3c0,0.1,0,0.3,0,0.3c0,0.1,0,0.2-0.1,0.3h-1c0.1-0.2,0.1-0.3,0.1-0.4s0-0.2,0-0.2c0-0.2,0-0.3-0.1-0.4
					s-0.1-0.2-0.2-0.2c0,0-0.2-0.1-0.5-0.2c-0.3-0.1-0.5-0.2-0.6-0.3l-6.5,2.3v-1.2l5.1-1.7L590.2,472.4z"/>
				<path class="st1" d="M592.6,470.3v-2.9h1.1v2.9H592.6z"/>
				<path class="st1" d="M590.6,465.3h-0.8c-0.1-0.8-0.2-1.3-0.4-1.6s-0.6-0.5-1.2-0.7v-0.8h8.4v1.1h-5.9V465.3z"/>
				<path class="st1" d="M588.2,453.1h0.9c0.3,0.3,0.7,0.6,1.4,1.1s1.3,0.8,2.1,1.2c0.7,0.3,1.4,0.6,2,0.8c0.4,0.1,1,0.3,1.9,0.4
					v1.2c-1.6-0.3-3.2-0.9-4.8-1.8c-0.9-0.5-1.7-1.1-2.4-1.7v4.6h-1.1V453.1z"/>
			</g>
			<g class="st0">
				<path class="st1" d="M127.9,493.6v-1.4l7-4.3h-7v-1.1h8.6v1.3l-6.9,4.4h6.9v1.1H127.9z"/>
				<path class="st1" d="M130.9,480.2c0.5-0.6,1.3-0.8,2.4-0.8c1,0,1.8,0.2,2.5,0.7s1,1.2,1,2.3c0,0.9-0.3,1.5-0.9,2
					c-0.6,0.5-1.4,0.8-2.4,0.8c-1.1,0-1.9-0.3-2.5-0.8c-0.6-0.5-0.9-1.2-0.9-2.1C130,481.4,130.3,480.7,130.9,480.2z M135,480.8
					c-0.5-0.3-1.1-0.4-1.8-0.4c-0.6,0-1.1,0.1-1.4,0.3c-0.6,0.3-0.9,0.8-0.9,1.5c0,0.6,0.2,1.1,0.7,1.4c0.5,0.3,1.1,0.4,1.8,0.4
					c0.7,0,1.2-0.1,1.7-0.4c0.4-0.3,0.7-0.7,0.7-1.4C135.8,481.6,135.5,481.1,135,480.8z"/>
				<path class="st1" d="M130.2,477.2l5.1-1.7l-5.1-1.7v-1.2l6.3,2.4v1.1l-6.3,2.3V477.2z"/>
				<path class="st1" d="M132.6,471.6v-2.9h1.1v2.9H132.6z"/>
				<path class="st1" d="M129.5,462.2c0.7-0.4,1.6-0.6,2.8-0.6c1.1,0,2.1,0.2,2.8,0.5c1.1,0.5,1.6,1.3,1.6,2.4c0,1-0.4,1.8-1.3,2.2
					c-0.7,0.4-1.7,0.6-2.9,0.6c-1,0-1.8-0.1-2.5-0.4c-1.3-0.5-1.9-1.3-1.9-2.5C128.1,463.4,128.6,462.7,129.5,462.2z M135,463.2
					c-0.5-0.3-1.4-0.5-2.7-0.5c-1,0-1.7,0.1-2.4,0.4c-0.6,0.2-0.9,0.7-0.9,1.4c0,0.6,0.3,1.1,0.9,1.4c0.6,0.3,1.4,0.4,2.6,0.4
					c0.9,0,1.5-0.1,2.1-0.3c0.8-0.3,1.2-0.8,1.2-1.4C135.8,464,135.5,463.6,135,463.2z"/>
				<path class="st1" d="M134.4,459.3c0.6-0.1,1-0.3,1.2-0.8c0.1-0.2,0.2-0.5,0.2-0.9c0-0.6-0.2-1.1-0.6-1.4s-0.8-0.5-1.3-0.5
					c-0.6,0-1,0.2-1.4,0.5s-0.5,0.8-0.5,1.3c0,0.4,0.1,0.7,0.2,0.9s0.3,0.5,0.6,0.7l-0.1,0.9l-4.5-0.6v-4.4h1v3.6l2.3,0.4
					c-0.1-0.2-0.3-0.4-0.3-0.6c-0.1-0.3-0.2-0.7-0.2-1.1c0-0.8,0.2-1.4,0.7-2s1.1-0.8,1.9-0.8c0.8,0,1.5,0.2,2.1,0.7
					s0.9,1.3,0.9,2.3c0,0.7-0.2,1.3-0.6,1.8s-1,0.8-1.8,0.9V459.3z"/>
			</g>
			<g class="st0">
				<path class="st1" d="M107.9,493.6v-1.7l7.3-2.5l-7.3-2.5v-1.7h8.6v1.1h-5.1c-0.2,0-0.5,0-0.9,0s-0.8,0-1.3,0l7.3,2.5v1.2
					l-7.3,2.5h0.3c0.2,0,0.5,0,1,0s0.7,0,1,0h5.1v1.1H107.9z"/>
				<path class="st1" d="M112.7,480c0-0.2-0.1-0.4-0.3-0.5c-0.1,0-0.2-0.1-0.4-0.1c-0.4,0-0.6,0.1-0.8,0.4c-0.2,0.3-0.2,0.6-0.2,1.1
					c0,0.6,0.1,0.9,0.4,1.2c0.2,0.1,0.4,0.2,0.7,0.3v1c-0.8,0-1.3-0.3-1.6-0.8c-0.3-0.5-0.5-1-0.5-1.7c0-0.7,0.1-1.3,0.4-1.8
					c0.3-0.5,0.7-0.7,1.3-0.7h3.6c0.1,0,0.2,0,0.3-0.1s0.1-0.1,0.1-0.3c0,0,0-0.1,0-0.2s0-0.1,0-0.2h0.8c0,0.2,0.1,0.3,0.1,0.4
					s0,0.2,0,0.4c0,0.4-0.1,0.6-0.4,0.8c-0.1,0.1-0.3,0.1-0.6,0.2c0.3,0.2,0.5,0.5,0.7,0.9s0.3,0.8,0.3,1.3c0,0.6-0.2,1.1-0.5,1.4
					c-0.4,0.4-0.8,0.6-1.3,0.6c-0.6,0-1-0.2-1.4-0.5c-0.3-0.4-0.5-0.8-0.6-1.4L112.7,480z M115.6,482.2c0.2-0.2,0.3-0.5,0.3-0.8
					c0-0.4-0.1-0.7-0.3-1.1c-0.3-0.6-0.8-0.9-1.4-0.9h-0.8c0.1,0.1,0.2,0.3,0.2,0.5c0.1,0.2,0.1,0.4,0.1,0.6l0.1,0.6
					c0.1,0.4,0.1,0.7,0.2,0.9c0.2,0.3,0.5,0.5,0.9,0.5C115.1,482.6,115.4,482.5,115.6,482.2z"/>
				<path class="st1" d="M110.2,472.4v-1.2c0.4,0.1,1.3,0.5,2.8,1c1.1,0.4,2,0.7,2.6,1c1.6,0.6,2.6,1,2.9,1.3
					c0.4,0.2,0.5,0.7,0.5,1.3c0,0.1,0,0.3,0,0.3c0,0.1,0,0.2-0.1,0.3h-1c0.1-0.2,0.1-0.3,0.1-0.4s0-0.2,0-0.2c0-0.2,0-0.3-0.1-0.4
					s-0.1-0.2-0.2-0.2c0,0-0.2-0.1-0.5-0.2c-0.3-0.1-0.5-0.2-0.6-0.3l-6.5,2.3v-1.2l5.1-1.7L110.2,472.4z"/>
				<path class="st1" d="M112.6,470.3v-2.9h1.1v2.9H112.6z"/>
				<path class="st1" d="M109.5,460.8c0.7-0.4,1.6-0.6,2.8-0.6c1.1,0,2.1,0.2,2.8,0.5c1.1,0.5,1.6,1.3,1.6,2.4c0,1-0.4,1.8-1.3,2.2
					c-0.7,0.4-1.7,0.6-2.9,0.6c-1,0-1.8-0.1-2.5-0.4c-1.3-0.5-1.9-1.3-1.9-2.5C108.1,462.1,108.6,461.3,109.5,460.8z M115,461.9
					c-0.5-0.3-1.4-0.5-2.7-0.5c-1,0-1.7,0.1-2.4,0.4c-0.6,0.2-0.9,0.7-0.9,1.4c0,0.6,0.3,1.1,0.9,1.4c0.6,0.3,1.4,0.4,2.6,0.4
					c0.9,0,1.5-0.1,2.1-0.3c0.8-0.3,1.2-0.8,1.2-1.4C115.8,462.7,115.5,462.2,115,461.9z"/>
				<path class="st1" d="M114.4,457.9c0.6-0.1,1-0.3,1.2-0.8c0.1-0.2,0.2-0.5,0.2-0.9c0-0.6-0.2-1.1-0.6-1.4s-0.8-0.5-1.3-0.5
					c-0.6,0-1,0.2-1.4,0.5s-0.5,0.8-0.5,1.3c0,0.4,0.1,0.7,0.2,0.9s0.3,0.5,0.6,0.7l-0.1,0.9l-4.5-0.6v-4.4h1v3.6l2.3,0.4
					c-0.1-0.2-0.3-0.4-0.3-0.6c-0.1-0.3-0.2-0.7-0.2-1.1c0-0.8,0.2-1.4,0.7-2s1.1-0.8,1.9-0.8c0.8,0,1.5,0.2,2.1,0.7
					s0.9,1.3,0.9,2.3c0,0.7-0.2,1.3-0.6,1.8s-1,0.8-1.8,0.9V457.9z"/>
			</g>
			<g class="st0">
				<path class="st1" d="M527.9,493.6v-1.4l7-4.3h-7v-1.1h8.6v1.3l-6.9,4.4h6.9v1.1H527.9z"/>
				<path class="st1" d="M530.9,480.2c0.5-0.6,1.3-0.8,2.4-0.8c1,0,1.8,0.2,2.5,0.7s1,1.2,1,2.3c0,0.9-0.3,1.5-0.9,2
					c-0.6,0.5-1.4,0.8-2.4,0.8c-1.1,0-1.9-0.3-2.5-0.8c-0.6-0.5-0.9-1.2-0.9-2.1C530,481.4,530.3,480.7,530.9,480.2z M535,480.8
					c-0.5-0.3-1.1-0.4-1.8-0.4c-0.6,0-1.1,0.1-1.4,0.3c-0.6,0.3-0.9,0.8-0.9,1.5c0,0.6,0.2,1.1,0.7,1.4c0.5,0.3,1.1,0.4,1.8,0.4
					c0.7,0,1.2-0.1,1.7-0.4c0.4-0.3,0.7-0.7,0.7-1.4C535.8,481.6,535.5,481.1,535,480.8z"/>
				<path class="st1" d="M530.2,477.2l5.1-1.7l-5.1-1.7v-1.2l6.3,2.4v1.1l-6.3,2.3V477.2z"/>
				<path class="st1" d="M532.6,471.6v-2.9h1.1v2.9H532.6z"/>
				<path class="st1" d="M530.6,466.6h-0.8c-0.1-0.8-0.2-1.3-0.4-1.6s-0.6-0.5-1.2-0.7v-0.8h8.4v1.1h-5.9V466.6z"/>
				<path class="st1" d="M534.4,459.3c0.6-0.1,1-0.3,1.2-0.8c0.1-0.2,0.2-0.5,0.2-0.9c0-0.6-0.2-1.1-0.6-1.4s-0.8-0.5-1.3-0.5
					c-0.6,0-1,0.2-1.4,0.5s-0.5,0.8-0.5,1.3c0,0.4,0.1,0.7,0.2,0.9s0.3,0.5,0.6,0.7l-0.1,0.9l-4.5-0.6v-4.4h1v3.6l2.3,0.4
					c-0.1-0.2-0.3-0.4-0.3-0.6c-0.1-0.3-0.2-0.7-0.2-1.1c0-0.8,0.2-1.4,0.7-2s1.1-0.8,1.9-0.8c0.8,0,1.5,0.2,2.1,0.7
					s0.9,1.3,0.9,2.3c0,0.7-0.2,1.3-0.6,1.8s-1,0.8-1.8,0.9V459.3z"/>
			</g>
			<g class="st0">
				<path class="st1" d="M507.9,493.6v-1.7l7.3-2.5l-7.3-2.5v-1.7h8.6v1.1h-5.1c-0.2,0-0.5,0-0.9,0s-0.8,0-1.3,0l7.3,2.5v1.2
					l-7.3,2.5h0.3c0.2,0,0.5,0,1,0s0.7,0,1,0h5.1v1.1H507.9z"/>
				<path class="st1" d="M512.7,480c0-0.2-0.1-0.4-0.3-0.5c-0.1,0-0.2-0.1-0.4-0.1c-0.4,0-0.6,0.1-0.8,0.4c-0.2,0.3-0.2,0.6-0.2,1.1
					c0,0.6,0.1,0.9,0.4,1.2c0.2,0.1,0.4,0.2,0.7,0.3v1c-0.8,0-1.3-0.3-1.6-0.8c-0.3-0.5-0.5-1-0.5-1.7c0-0.7,0.1-1.3,0.4-1.8
					c0.3-0.5,0.7-0.7,1.3-0.7h3.6c0.1,0,0.2,0,0.3-0.1s0.1-0.1,0.1-0.3c0,0,0-0.1,0-0.2s0-0.1,0-0.2h0.8c0,0.2,0.1,0.3,0.1,0.4
					s0,0.2,0,0.4c0,0.4-0.1,0.6-0.4,0.8c-0.1,0.1-0.3,0.1-0.6,0.2c0.3,0.2,0.5,0.5,0.7,0.9s0.3,0.8,0.3,1.3c0,0.6-0.2,1.1-0.5,1.4
					c-0.4,0.4-0.8,0.6-1.3,0.6c-0.6,0-1-0.2-1.4-0.5c-0.3-0.4-0.5-0.8-0.6-1.4L512.7,480z M515.6,482.2c0.2-0.2,0.3-0.5,0.3-0.8
					c0-0.4-0.1-0.7-0.3-1.1c-0.3-0.6-0.8-0.9-1.4-0.9h-0.8c0.1,0.1,0.2,0.3,0.2,0.5c0.1,0.2,0.1,0.4,0.1,0.6l0.1,0.6
					c0.1,0.4,0.1,0.7,0.2,0.9c0.2,0.3,0.5,0.5,0.9,0.5C515.1,482.6,515.4,482.5,515.6,482.2z"/>
				<path class="st1" d="M510.2,472.4v-1.2c0.4,0.1,1.3,0.5,2.8,1c1.1,0.4,2,0.7,2.6,1c1.6,0.6,2.6,1,2.9,1.3
					c0.4,0.2,0.5,0.7,0.5,1.3c0,0.1,0,0.3,0,0.3c0,0.1,0,0.2-0.1,0.3h-1c0.1-0.2,0.1-0.3,0.1-0.4s0-0.2,0-0.2c0-0.2,0-0.3-0.1-0.4
					s-0.1-0.2-0.2-0.2c0,0-0.2-0.1-0.5-0.2c-0.3-0.1-0.5-0.2-0.6-0.3l-6.5,2.3v-1.2l5.1-1.7L510.2,472.4z"/>
				<path class="st1" d="M512.6,470.3v-2.9h1.1v2.9H512.6z"/>
				<path class="st1" d="M510.6,465.3h-0.8c-0.1-0.8-0.2-1.3-0.4-1.6s-0.6-0.5-1.2-0.7v-0.8h8.4v1.1h-5.9V465.3z"/>
				<path class="st1" d="M514.4,457.9c0.6-0.1,1-0.3,1.2-0.8c0.1-0.2,0.2-0.5,0.2-0.9c0-0.6-0.2-1.1-0.6-1.4s-0.8-0.5-1.3-0.5
					c-0.6,0-1,0.2-1.4,0.5s-0.5,0.8-0.5,1.3c0,0.4,0.1,0.7,0.2,0.9s0.3,0.5,0.6,0.7l-0.1,0.9l-4.5-0.6v-4.4h1v3.6l2.3,0.4
					c-0.1-0.2-0.3-0.4-0.3-0.6c-0.1-0.3-0.2-0.7-0.2-1.1c0-0.8,0.2-1.4,0.7-2s1.1-0.8,1.9-0.8c0.8,0,1.5,0.2,2.1,0.7
					s0.9,1.3,0.9,2.3c0,0.7-0.2,1.3-0.6,1.8s-1,0.8-1.8,0.9V457.9z"/>
			</g>
			<g class="st0">
				<path class="st1" d="M287.9,493.6v-1.4l7-4.3h-7v-1.1h8.6v1.3l-6.9,4.4h6.9v1.1H287.9z"/>
				<path class="st1" d="M290.9,480.2c0.5-0.6,1.3-0.8,2.4-0.8c1,0,1.8,0.2,2.5,0.7s1,1.2,1,2.3c0,0.9-0.3,1.5-0.9,2
					c-0.6,0.5-1.4,0.8-2.4,0.8c-1.1,0-1.9-0.3-2.5-0.8c-0.6-0.5-0.9-1.2-0.9-2.1C290,481.4,290.3,480.7,290.9,480.2z M295,480.8
					c-0.5-0.3-1.1-0.4-1.8-0.4c-0.6,0-1.1,0.1-1.4,0.3c-0.6,0.3-0.9,0.8-0.9,1.5c0,0.6,0.2,1.1,0.7,1.4c0.5,0.3,1.1,0.4,1.8,0.4
					c0.7,0,1.2-0.1,1.7-0.4c0.4-0.3,0.7-0.7,0.7-1.4C295.8,481.6,295.5,481.1,295,480.8z"/>
				<path class="st1" d="M290.2,477.2l5.1-1.7l-5.1-1.7v-1.2l6.3,2.4v1.1l-6.3,2.3V477.2z"/>
				<path class="st1" d="M292.6,471.6v-2.9h1.1v2.9H292.6z"/>
				<path class="st1" d="M289.5,462.2c0.7-0.4,1.6-0.6,2.8-0.6c1.1,0,2.1,0.2,2.8,0.5c1.1,0.5,1.6,1.3,1.6,2.4c0,1-0.4,1.8-1.3,2.2
					c-0.7,0.4-1.7,0.6-2.9,0.6c-1,0-1.8-0.1-2.5-0.4c-1.3-0.5-1.9-1.3-1.9-2.5C288.1,463.4,288.6,462.7,289.5,462.2z M295,463.2
					c-0.5-0.3-1.4-0.5-2.7-0.5c-1,0-1.7,0.1-2.4,0.4c-0.6,0.2-0.9,0.7-0.9,1.4c0,0.6,0.3,1.1,0.9,1.4c0.6,0.3,1.4,0.4,2.6,0.4
					c0.9,0,1.5-0.1,2.1-0.3c0.8-0.3,1.2-0.8,1.2-1.4C295.8,464,295.5,463.6,295,463.2z"/>
				<path class="st1" d="M294.5,459.2c0.6,0,1-0.3,1.2-0.7c0.1-0.2,0.2-0.5,0.2-0.7c0-0.5-0.2-0.9-0.6-1.3s-1.3-0.6-2.6-0.8
					c0.4,0.2,0.6,0.5,0.8,0.9s0.2,0.7,0.2,1.1c0,0.8-0.3,1.4-0.8,1.9c-0.5,0.5-1.2,0.7-1.9,0.7c-0.8,0-1.4-0.2-2-0.7
					s-0.9-1.2-0.9-2.1c0-1.2,0.6-2.1,1.7-2.5c0.6-0.3,1.4-0.4,2.3-0.4c1,0,1.9,0.2,2.7,0.5c1.3,0.5,2,1.4,2,2.6
					c0,0.8-0.2,1.4-0.6,1.9s-1,0.6-1.6,0.6V459.2z M292.3,456.4c-0.3-0.3-0.8-0.5-1.4-0.5c-0.6,0-1.1,0.2-1.4,0.5
					c-0.3,0.3-0.5,0.7-0.5,1.2c0,0.5,0.2,0.9,0.5,1.2c0.3,0.3,0.8,0.5,1.4,0.5c0.5,0,1-0.1,1.3-0.4c0.3-0.3,0.5-0.7,0.5-1.3
					C292.7,457.1,292.6,456.8,292.3,456.4z"/>
			</g>
			<g class="st0">
				<path class="st1" d="M267.9,493.6v-1.7l7.3-2.5l-7.3-2.5v-1.7h8.6v1.1h-5.1c-0.2,0-0.5,0-0.9,0s-0.8,0-1.3,0l7.3,2.5v1.2
					l-7.3,2.5h0.3c0.2,0,0.5,0,1,0s0.7,0,1,0h5.1v1.1H267.9z"/>
				<path class="st1" d="M272.7,480c0-0.2-0.1-0.4-0.3-0.5c-0.1,0-0.2-0.1-0.4-0.1c-0.4,0-0.6,0.1-0.8,0.4c-0.2,0.3-0.2,0.6-0.2,1.1
					c0,0.6,0.1,0.9,0.4,1.2c0.2,0.1,0.4,0.2,0.7,0.3v1c-0.8,0-1.3-0.3-1.6-0.8c-0.3-0.5-0.5-1-0.5-1.7c0-0.7,0.1-1.3,0.4-1.8
					c0.3-0.5,0.7-0.7,1.3-0.7h3.6c0.1,0,0.2,0,0.3-0.1s0.1-0.1,0.1-0.3c0,0,0-0.1,0-0.2s0-0.1,0-0.2h0.8c0,0.2,0.1,0.3,0.1,0.4
					s0,0.2,0,0.4c0,0.4-0.1,0.6-0.4,0.8c-0.1,0.1-0.3,0.1-0.6,0.2c0.3,0.2,0.5,0.5,0.7,0.9s0.3,0.8,0.3,1.3c0,0.6-0.2,1.1-0.5,1.4
					c-0.4,0.4-0.8,0.6-1.3,0.6c-0.6,0-1-0.2-1.4-0.5c-0.3-0.4-0.5-0.8-0.6-1.4L272.7,480z M275.6,482.2c0.2-0.2,0.3-0.5,0.3-0.8
					c0-0.4-0.1-0.7-0.3-1.1c-0.3-0.6-0.8-0.9-1.4-0.9h-0.8c0.1,0.1,0.2,0.3,0.2,0.5c0.1,0.2,0.1,0.4,0.1,0.6l0.1,0.6
					c0.1,0.4,0.1,0.7,0.2,0.9c0.2,0.3,0.5,0.5,0.9,0.5C275.1,482.6,275.4,482.5,275.6,482.2z"/>
				<path class="st1" d="M270.2,472.4v-1.2c0.4,0.1,1.3,0.5,2.8,1c1.1,0.4,2,0.7,2.6,1c1.6,0.6,2.6,1,2.9,1.3
					c0.4,0.2,0.5,0.7,0.5,1.3c0,0.1,0,0.3,0,0.3c0,0.1,0,0.2-0.1,0.3h-1c0.1-0.2,0.1-0.3,0.1-0.4s0-0.2,0-0.2c0-0.2,0-0.3-0.1-0.4
					s-0.1-0.2-0.2-0.2c0,0-0.2-0.1-0.5-0.2c-0.3-0.1-0.5-0.2-0.6-0.3l-6.5,2.3v-1.2l5.1-1.7L270.2,472.4z"/>
				<path class="st1" d="M272.6,470.3v-2.9h1.1v2.9H272.6z"/>
				<path class="st1" d="M269.5,460.8c0.7-0.4,1.6-0.6,2.8-0.6c1.1,0,2.1,0.2,2.8,0.5c1.1,0.5,1.6,1.3,1.6,2.4c0,1-0.4,1.8-1.3,2.2
					c-0.7,0.4-1.7,0.6-2.9,0.6c-1,0-1.8-0.1-2.5-0.4c-1.3-0.5-1.9-1.3-1.9-2.5C268.1,462.1,268.6,461.3,269.5,460.8z M275,461.9
					c-0.5-0.3-1.4-0.5-2.7-0.5c-1,0-1.7,0.1-2.4,0.4c-0.6,0.2-0.9,0.7-0.9,1.4c0,0.6,0.3,1.1,0.9,1.4c0.6,0.3,1.4,0.4,2.6,0.4
					c0.9,0,1.5-0.1,2.1-0.3c0.8-0.3,1.2-0.8,1.2-1.4C275.8,462.7,275.5,462.2,275,461.9z"/>
				<path class="st1" d="M274.5,457.8c0.6,0,1-0.3,1.2-0.7c0.1-0.2,0.2-0.5,0.2-0.7c0-0.5-0.2-0.9-0.6-1.3s-1.3-0.6-2.6-0.8
					c0.4,0.2,0.6,0.5,0.8,0.9s0.2,0.7,0.2,1.1c0,0.8-0.3,1.4-0.8,1.9c-0.5,0.5-1.2,0.7-1.9,0.7c-0.8,0-1.4-0.2-2-0.7
					s-0.9-1.2-0.9-2.1c0-1.2,0.6-2.1,1.7-2.5c0.6-0.3,1.4-0.4,2.3-0.4c1,0,1.9,0.2,2.7,0.5c1.3,0.5,2,1.4,2,2.6
					c0,0.8-0.2,1.4-0.6,1.9s-1,0.6-1.6,0.6V457.8z M272.3,455.1c-0.3-0.3-0.8-0.5-1.4-0.5c-0.6,0-1.1,0.2-1.4,0.5
					c-0.3,0.3-0.5,0.7-0.5,1.2c0,0.5,0.2,0.9,0.5,1.2c0.3,0.3,0.8,0.5,1.4,0.5c0.5,0,1-0.1,1.3-0.4c0.3-0.3,0.5-0.7,0.5-1.3
					C272.7,455.8,272.6,455.4,272.3,455.1z"/>
			</g>
			<g class="st0">
				<path class="st1" d="M87.9,493.6v-1.4l7-4.3h-7v-1.1h8.6v1.3l-6.9,4.4h6.9v1.1H87.9z"/>
				<path class="st1" d="M90.9,480.2c0.5-0.6,1.3-0.8,2.4-0.8c1,0,1.8,0.2,2.5,0.7s1,1.2,1,2.3c0,0.9-0.3,1.5-0.9,2
					c-0.6,0.5-1.4,0.8-2.4,0.8c-1.1,0-1.9-0.3-2.5-0.8c-0.6-0.5-0.9-1.2-0.9-2.1C90,481.4,90.3,480.7,90.9,480.2z M95,480.8
					c-0.5-0.3-1.1-0.4-1.8-0.4c-0.6,0-1.1,0.1-1.4,0.3c-0.6,0.3-0.9,0.8-0.9,1.5c0,0.6,0.2,1.1,0.7,1.4c0.5,0.3,1.1,0.4,1.8,0.4
					c0.7,0,1.2-0.1,1.7-0.4c0.4-0.3,0.7-0.7,0.7-1.4C95.8,481.6,95.5,481.1,95,480.8z"/>
				<path class="st1" d="M90.2,477.2l5.1-1.7l-5.1-1.7v-1.2l6.3,2.4v1.1l-6.3,2.3V477.2z"/>
				<path class="st1" d="M92.6,471.6v-2.9h1.1v2.9H92.6z"/>
				<path class="st1" d="M89.5,462.2c0.7-0.4,1.6-0.6,2.8-0.6c1.1,0,2.1,0.2,2.8,0.5c1.1,0.5,1.6,1.3,1.6,2.4c0,1-0.4,1.8-1.3,2.2
					c-0.7,0.4-1.7,0.6-2.9,0.6c-1,0-1.8-0.1-2.5-0.4c-1.3-0.5-1.9-1.3-1.9-2.5C88.1,463.4,88.6,462.7,89.5,462.2z M95,463.2
					c-0.5-0.3-1.4-0.5-2.7-0.5c-1,0-1.7,0.1-2.4,0.4c-0.6,0.2-0.9,0.7-0.9,1.4c0,0.6,0.3,1.1,0.9,1.4c0.6,0.3,1.4,0.4,2.6,0.4
					c0.9,0,1.5-0.1,2.1-0.3c0.8-0.3,1.2-0.8,1.2-1.4C95.8,464,95.5,463.6,95,463.2z"/>
				<path class="st1" d="M96.5,456.8h-2.1v3.7h-1l-5.3-3.8v-0.9h5.4v-1.2h0.9v1.2h2.1V456.8z M93.5,456.8h-3.8l3.8,2.7V456.8z"/>
			</g>
			<g class="st0">
				<path class="st1" d="M67.9,493.6v-1.7l7.3-2.5l-7.3-2.5v-1.7h8.6v1.1h-5.1c-0.2,0-0.5,0-0.9,0s-0.8,0-1.3,0l7.3,2.5v1.2
					l-7.3,2.5h0.3c0.2,0,0.5,0,1,0s0.7,0,1,0h5.1v1.1H67.9z"/>
				<path class="st1" d="M72.7,480c0-0.2-0.1-0.4-0.3-0.5c-0.1,0-0.2-0.1-0.4-0.1c-0.4,0-0.6,0.1-0.8,0.4c-0.2,0.3-0.2,0.6-0.2,1.1
					c0,0.6,0.1,0.9,0.4,1.2c0.2,0.1,0.4,0.2,0.7,0.3v1c-0.8,0-1.3-0.3-1.6-0.8c-0.3-0.5-0.5-1-0.5-1.7c0-0.7,0.1-1.3,0.4-1.8
					c0.3-0.5,0.7-0.7,1.3-0.7h3.6c0.1,0,0.2,0,0.3-0.1s0.1-0.1,0.1-0.3c0,0,0-0.1,0-0.2s0-0.1,0-0.2h0.8c0,0.2,0.1,0.3,0.1,0.4
					s0,0.2,0,0.4c0,0.4-0.1,0.6-0.4,0.8c-0.1,0.1-0.3,0.1-0.6,0.2c0.3,0.2,0.5,0.5,0.7,0.9s0.3,0.8,0.3,1.3c0,0.6-0.2,1.1-0.5,1.4
					c-0.4,0.4-0.8,0.6-1.3,0.6c-0.6,0-1-0.2-1.4-0.5c-0.3-0.4-0.5-0.8-0.6-1.4L72.7,480z M75.6,482.2c0.2-0.2,0.3-0.5,0.3-0.8
					c0-0.4-0.1-0.7-0.3-1.1c-0.3-0.6-0.8-0.9-1.4-0.9h-0.8c0.1,0.1,0.2,0.3,0.2,0.5c0.1,0.2,0.1,0.4,0.1,0.6l0.1,0.6
					c0.1,0.4,0.1,0.7,0.2,0.9c0.2,0.3,0.5,0.5,0.9,0.5C75.1,482.6,75.4,482.5,75.6,482.2z"/>
				<path class="st1" d="M70.2,472.4v-1.2c0.4,0.1,1.3,0.5,2.8,1c1.1,0.4,2,0.7,2.6,1c1.6,0.6,2.6,1,2.9,1.3
					c0.4,0.2,0.5,0.7,0.5,1.3c0,0.1,0,0.3,0,0.3c0,0.1,0,0.2-0.1,0.3h-1c0.1-0.2,0.1-0.3,0.1-0.4s0-0.2,0-0.2c0-0.2,0-0.3-0.1-0.4
					s-0.1-0.2-0.2-0.2c0,0-0.2-0.1-0.5-0.2c-0.3-0.1-0.5-0.2-0.6-0.3l-6.5,2.3v-1.2l5.1-1.7L70.2,472.4z"/>
				<path class="st1" d="M72.6,470.3v-2.9h1.1v2.9H72.6z"/>
				<path class="st1" d="M69.5,460.8c0.7-0.4,1.6-0.6,2.8-0.6c1.1,0,2.1,0.2,2.8,0.5c1.1,0.5,1.6,1.3,1.6,2.4c0,1-0.4,1.8-1.3,2.2
					c-0.7,0.4-1.7,0.6-2.9,0.6c-1,0-1.8-0.1-2.5-0.4c-1.3-0.5-1.9-1.3-1.9-2.5C68.1,462.1,68.6,461.3,69.5,460.8z M75,461.9
					c-0.5-0.3-1.4-0.5-2.7-0.5c-1,0-1.7,0.1-2.4,0.4c-0.6,0.2-0.9,0.7-0.9,1.4c0,0.6,0.3,1.1,0.9,1.4c0.6,0.3,1.4,0.4,2.6,0.4
					c0.9,0,1.5-0.1,2.1-0.3c0.8-0.3,1.2-0.8,1.2-1.4C75.8,462.7,75.5,462.2,75,461.9z"/>
				<path class="st1" d="M76.5,455.4h-2.1v3.7h-1l-5.3-3.8v-0.9h5.4v-1.2h0.9v1.2h2.1V455.4z M73.5,455.5h-3.8l3.8,2.7V455.5z"/>
			</g>
			<g class="st0">
				<path class="st1" d="M487.9,493.6v-1.4l7-4.3h-7v-1.1h8.6v1.3l-6.9,4.4h6.9v1.1H487.9z"/>
				<path class="st1" d="M490.9,480.2c0.5-0.6,1.3-0.8,2.4-0.8c1,0,1.8,0.2,2.5,0.7s1,1.2,1,2.3c0,0.9-0.3,1.5-0.9,2
					c-0.6,0.5-1.4,0.8-2.4,0.8c-1.1,0-1.9-0.3-2.5-0.8c-0.6-0.5-0.9-1.2-0.9-2.1C490,481.4,490.3,480.7,490.9,480.2z M495,480.8
					c-0.5-0.3-1.1-0.4-1.8-0.4c-0.6,0-1.1,0.1-1.4,0.3c-0.6,0.3-0.9,0.8-0.9,1.5c0,0.6,0.2,1.1,0.7,1.4c0.5,0.3,1.1,0.4,1.8,0.4
					c0.7,0,1.2-0.1,1.7-0.4c0.4-0.3,0.7-0.7,0.7-1.4C495.8,481.6,495.5,481.1,495,480.8z"/>
				<path class="st1" d="M490.2,477.2l5.1-1.7l-5.1-1.7v-1.2l6.3,2.4v1.1l-6.3,2.3V477.2z"/>
				<path class="st1" d="M492.6,471.6v-2.9h1.1v2.9H492.6z"/>
				<path class="st1" d="M490.6,466.6h-0.8c-0.1-0.8-0.2-1.3-0.4-1.6s-0.6-0.5-1.2-0.7v-0.8h8.4v1.1h-5.9V466.6z"/>
				<path class="st1" d="M496.5,456.8h-2.1v3.7h-1l-5.3-3.8v-0.9h5.4v-1.2h0.9v1.2h2.1V456.8z M493.5,456.8h-3.8l3.8,2.7V456.8z"/>
			</g>
			<g class="st0">
				<path class="st1" d="M467.9,493.6v-1.7l7.3-2.5l-7.3-2.5v-1.7h8.6v1.1h-5.1c-0.2,0-0.5,0-0.9,0s-0.8,0-1.3,0l7.3,2.5v1.2
					l-7.3,2.5h0.3c0.2,0,0.5,0,1,0s0.7,0,1,0h5.1v1.1H467.9z"/>
				<path class="st1" d="M472.7,480c0-0.2-0.1-0.4-0.3-0.5c-0.1,0-0.2-0.1-0.4-0.1c-0.4,0-0.6,0.1-0.8,0.4c-0.2,0.3-0.2,0.6-0.2,1.1
					c0,0.6,0.1,0.9,0.4,1.2c0.2,0.1,0.4,0.2,0.7,0.3v1c-0.8,0-1.3-0.3-1.6-0.8c-0.3-0.5-0.5-1-0.5-1.7c0-0.7,0.1-1.3,0.4-1.8
					c0.3-0.5,0.7-0.7,1.3-0.7h3.6c0.1,0,0.2,0,0.3-0.1s0.1-0.1,0.1-0.3c0,0,0-0.1,0-0.2s0-0.1,0-0.2h0.8c0,0.2,0.1,0.3,0.1,0.4
					s0,0.2,0,0.4c0,0.4-0.1,0.6-0.4,0.8c-0.1,0.1-0.3,0.1-0.6,0.2c0.3,0.2,0.5,0.5,0.7,0.9s0.3,0.8,0.3,1.3c0,0.6-0.2,1.1-0.5,1.4
					c-0.4,0.4-0.8,0.6-1.3,0.6c-0.6,0-1-0.2-1.4-0.5c-0.3-0.4-0.5-0.8-0.6-1.4L472.7,480z M475.6,482.2c0.2-0.2,0.3-0.5,0.3-0.8
					c0-0.4-0.1-0.7-0.3-1.1c-0.3-0.6-0.8-0.9-1.4-0.9h-0.8c0.1,0.1,0.2,0.3,0.2,0.5c0.1,0.2,0.1,0.4,0.1,0.6l0.1,0.6
					c0.1,0.4,0.1,0.7,0.2,0.9c0.2,0.3,0.5,0.5,0.9,0.5C475.1,482.6,475.4,482.5,475.6,482.2z"/>
				<path class="st1" d="M470.2,472.4v-1.2c0.4,0.1,1.3,0.5,2.8,1c1.1,0.4,2,0.7,2.6,1c1.6,0.6,2.6,1,2.9,1.3
					c0.4,0.2,0.5,0.7,0.5,1.3c0,0.1,0,0.3,0,0.3c0,0.1,0,0.2-0.1,0.3h-1c0.1-0.2,0.1-0.3,0.1-0.4s0-0.2,0-0.2c0-0.2,0-0.3-0.1-0.4
					s-0.1-0.2-0.2-0.2c0,0-0.2-0.1-0.5-0.2c-0.3-0.1-0.5-0.2-0.6-0.3l-6.5,2.3v-1.2l5.1-1.7L470.2,472.4z"/>
				<path class="st1" d="M472.6,470.3v-2.9h1.1v2.9H472.6z"/>
				<path class="st1" d="M470.6,465.3h-0.8c-0.1-0.8-0.2-1.3-0.4-1.6s-0.6-0.5-1.2-0.7v-0.8h8.4v1.1h-5.9V465.3z"/>
				<path class="st1" d="M476.5,455.4h-2.1v3.7h-1l-5.3-3.8v-0.9h5.4v-1.2h0.9v1.2h2.1V455.4z M473.5,455.5h-3.8l3.8,2.7V455.5z"/>
			</g>
			<g class="st0">
				<path class="st1" d="M247.9,493.6v-1.4l7-4.3h-7v-1.1h8.6v1.3l-6.9,4.4h6.9v1.1H247.9z"/>
				<path class="st1" d="M250.9,480.2c0.5-0.6,1.3-0.8,2.4-0.8c1,0,1.8,0.2,2.5,0.7s1,1.2,1,2.3c0,0.9-0.3,1.5-0.9,2
					c-0.6,0.5-1.4,0.8-2.4,0.8c-1.1,0-1.9-0.3-2.5-0.8c-0.6-0.5-0.9-1.2-0.9-2.1C250,481.4,250.3,480.7,250.9,480.2z M255,480.8
					c-0.5-0.3-1.1-0.4-1.8-0.4c-0.6,0-1.1,0.1-1.4,0.3c-0.6,0.3-0.9,0.8-0.9,1.5c0,0.6,0.2,1.1,0.7,1.4c0.5,0.3,1.1,0.4,1.8,0.4
					c0.7,0,1.2-0.1,1.7-0.4c0.4-0.3,0.7-0.7,0.7-1.4C255.8,481.6,255.5,481.1,255,480.8z"/>
				<path class="st1" d="M250.2,477.2l5.1-1.7l-5.1-1.7v-1.2l6.3,2.4v1.1l-6.3,2.3V477.2z"/>
				<path class="st1" d="M252.6,471.6v-2.9h1.1v2.9H252.6z"/>
				<path class="st1" d="M249.5,462.2c0.7-0.4,1.6-0.6,2.8-0.6c1.1,0,2.1,0.2,2.8,0.5c1.1,0.5,1.6,1.3,1.6,2.4c0,1-0.4,1.8-1.3,2.2
					c-0.7,0.4-1.7,0.6-2.9,0.6c-1,0-1.8-0.1-2.5-0.4c-1.3-0.5-1.9-1.3-1.9-2.5C248.1,463.4,248.6,462.7,249.5,462.2z M255,463.2
					c-0.5-0.3-1.4-0.5-2.7-0.5c-1,0-1.7,0.1-2.4,0.4c-0.6,0.2-0.9,0.7-0.9,1.4c0,0.6,0.3,1.1,0.9,1.4c0.6,0.3,1.4,0.4,2.6,0.4
					c0.9,0,1.5-0.1,2.1-0.3c0.8-0.3,1.2-0.8,1.2-1.4C255.8,464,255.5,463.6,255,463.2z"/>
				<path class="st1" d="M251.6,459.6c-0.3,0.3-0.7,0.5-1.2,0.5c-0.6,0-1.2-0.2-1.6-0.7s-0.7-1.1-0.7-1.9c0-0.8,0.2-1.4,0.6-1.9
					s0.9-0.7,1.5-0.7c0.5,0,0.9,0.1,1.3,0.4c0.2,0.1,0.4,0.4,0.5,0.7c0.2-0.3,0.3-0.6,0.6-0.8c0.4-0.4,0.9-0.6,1.5-0.6
					c0.7,0,1.4,0.2,1.9,0.7s0.8,1.2,0.8,2.1c0,0.8-0.2,1.5-0.7,2.1s-1.1,0.8-1.9,0.8c-0.5,0-0.9-0.1-1.3-0.4s-0.6-0.6-0.8-1.1
					C251.9,459.2,251.8,459.4,251.6,459.6z M251.2,456.4c-0.3-0.3-0.6-0.4-0.9-0.4c-0.3,0-0.6,0.1-0.9,0.4c-0.3,0.2-0.4,0.6-0.4,1.1
					c0,0.5,0.1,0.9,0.4,1.1c0.3,0.2,0.6,0.3,0.9,0.3c0.4,0,0.7-0.1,0.9-0.4c0.2-0.3,0.3-0.6,0.3-1
					C251.6,457,251.5,456.7,251.2,456.4z M255.4,456.2c-0.3-0.3-0.7-0.5-1.2-0.5c-0.5,0-1,0.2-1.2,0.5s-0.4,0.8-0.4,1.3
					c0,0.5,0.1,0.9,0.4,1.2s0.7,0.5,1.2,0.5c0.4,0,0.8-0.1,1.1-0.4s0.5-0.7,0.5-1.4C255.8,456.9,255.6,456.5,255.4,456.2z"/>
			</g>
			<g class="st0">
				<path class="st1" d="M227.9,493.6v-1.7l7.3-2.5l-7.3-2.5v-1.7h8.6v1.1h-5.1c-0.2,0-0.5,0-0.9,0s-0.8,0-1.3,0l7.3,2.5v1.2
					l-7.3,2.5h0.3c0.2,0,0.5,0,1,0s0.7,0,1,0h5.1v1.1H227.9z"/>
				<path class="st1" d="M232.7,480c0-0.2-0.1-0.4-0.3-0.5c-0.1,0-0.2-0.1-0.4-0.1c-0.4,0-0.6,0.1-0.8,0.4c-0.2,0.3-0.2,0.6-0.2,1.1
					c0,0.6,0.1,0.9,0.4,1.2c0.2,0.1,0.4,0.2,0.7,0.3v1c-0.8,0-1.3-0.3-1.6-0.8c-0.3-0.5-0.5-1-0.5-1.7c0-0.7,0.1-1.3,0.4-1.8
					c0.3-0.5,0.7-0.7,1.3-0.7h3.6c0.1,0,0.2,0,0.3-0.1s0.1-0.1,0.1-0.3c0,0,0-0.1,0-0.2s0-0.1,0-0.2h0.8c0,0.2,0.1,0.3,0.1,0.4
					s0,0.2,0,0.4c0,0.4-0.1,0.6-0.4,0.8c-0.1,0.1-0.3,0.1-0.6,0.2c0.3,0.2,0.5,0.5,0.7,0.9s0.3,0.8,0.3,1.3c0,0.6-0.2,1.1-0.5,1.4
					c-0.4,0.4-0.8,0.6-1.3,0.6c-0.6,0-1-0.2-1.4-0.5c-0.3-0.4-0.5-0.8-0.6-1.4L232.7,480z M235.6,482.2c0.2-0.2,0.3-0.5,0.3-0.8
					c0-0.4-0.1-0.7-0.3-1.1c-0.3-0.6-0.8-0.9-1.4-0.9h-0.8c0.1,0.1,0.2,0.3,0.2,0.5c0.1,0.2,0.1,0.4,0.1,0.6l0.1,0.6
					c0.1,0.4,0.1,0.7,0.2,0.9c0.2,0.3,0.5,0.5,0.9,0.5C235.1,482.6,235.4,482.5,235.6,482.2z"/>
				<path class="st1" d="M230.2,472.4v-1.2c0.4,0.1,1.3,0.5,2.8,1c1.1,0.4,2,0.7,2.6,1c1.6,0.6,2.6,1,2.9,1.3
					c0.4,0.2,0.5,0.7,0.5,1.3c0,0.1,0,0.3,0,0.3c0,0.1,0,0.2-0.1,0.3h-1c0.1-0.2,0.1-0.3,0.1-0.4s0-0.2,0-0.2c0-0.2,0-0.3-0.1-0.4
					s-0.1-0.2-0.2-0.2c0,0-0.2-0.1-0.5-0.2c-0.3-0.1-0.5-0.2-0.6-0.3l-6.5,2.3v-1.2l5.1-1.7L230.2,472.4z"/>
				<path class="st1" d="M232.6,470.3v-2.9h1.1v2.9H232.6z"/>
				<path class="st1" d="M229.5,460.8c0.7-0.4,1.6-0.6,2.8-0.6c1.1,0,2.1,0.2,2.8,0.5c1.1,0.5,1.6,1.3,1.6,2.4c0,1-0.4,1.8-1.3,2.2
					c-0.7,0.4-1.7,0.6-2.9,0.6c-1,0-1.8-0.1-2.5-0.4c-1.3-0.5-1.9-1.3-1.9-2.5C228.1,462.1,228.6,461.3,229.5,460.8z M235,461.9
					c-0.5-0.3-1.4-0.5-2.7-0.5c-1,0-1.7,0.1-2.4,0.4c-0.6,0.2-0.9,0.7-0.9,1.4c0,0.6,0.3,1.1,0.9,1.4c0.6,0.3,1.4,0.4,2.6,0.4
					c0.9,0,1.5-0.1,2.1-0.3c0.8-0.3,1.2-0.8,1.2-1.4C235.8,462.7,235.5,462.2,235,461.9z"/>
				<path class="st1" d="M231.6,458.3c-0.3,0.3-0.7,0.5-1.2,0.5c-0.6,0-1.2-0.2-1.6-0.7s-0.7-1.1-0.7-1.9c0-0.8,0.2-1.4,0.6-1.9
					s0.9-0.7,1.5-0.7c0.5,0,0.9,0.1,1.3,0.4c0.2,0.1,0.4,0.4,0.5,0.7c0.2-0.3,0.3-0.6,0.6-0.8c0.4-0.4,0.9-0.6,1.5-0.6
					c0.7,0,1.4,0.2,1.9,0.7s0.8,1.2,0.8,2.1c0,0.8-0.2,1.5-0.7,2.1s-1.1,0.8-1.9,0.8c-0.5,0-0.9-0.1-1.3-0.4s-0.6-0.6-0.8-1.1
					C231.9,457.9,231.8,458.1,231.6,458.3z M231.2,455.1c-0.3-0.3-0.6-0.4-0.9-0.4c-0.3,0-0.6,0.1-0.9,0.4c-0.3,0.2-0.4,0.6-0.4,1.1
					c0,0.5,0.1,0.9,0.4,1.1c0.3,0.2,0.6,0.3,0.9,0.3c0.4,0,0.7-0.1,0.9-0.4c0.2-0.3,0.3-0.6,0.3-1
					C231.6,455.7,231.5,455.3,231.2,455.1z M235.4,454.9c-0.3-0.3-0.7-0.5-1.2-0.5c-0.5,0-1,0.2-1.2,0.5s-0.4,0.8-0.4,1.3
					c0,0.5,0.1,0.9,0.4,1.2s0.7,0.5,1.2,0.5c0.4,0,0.8-0.1,1.1-0.4s0.5-0.7,0.5-1.4C235.8,455.6,235.6,455.2,235.4,454.9z"/>
			</g>
			<g class="st0">
				<path class="st1" d="M627.9,493.6v-1.7l7.3-2.5l-7.3-2.5v-1.7h8.6v1.1h-5.1c-0.2,0-0.5,0-0.9,0s-0.8,0-1.3,0l7.3,2.5v1.2
					l-7.3,2.5h0.3c0.2,0,0.5,0,1,0s0.7,0,1,0h5.1v1.1H627.9z"/>
				<path class="st1" d="M632.7,480c0-0.2-0.1-0.4-0.3-0.5c-0.1,0-0.2-0.1-0.4-0.1c-0.4,0-0.6,0.1-0.8,0.4c-0.2,0.3-0.2,0.6-0.2,1.1
					c0,0.6,0.1,0.9,0.4,1.2c0.2,0.1,0.4,0.2,0.7,0.3v1c-0.8,0-1.3-0.3-1.6-0.8c-0.3-0.5-0.5-1-0.5-1.7c0-0.7,0.1-1.3,0.4-1.8
					c0.3-0.5,0.7-0.7,1.3-0.7h3.6c0.1,0,0.2,0,0.3-0.1s0.1-0.1,0.1-0.3c0,0,0-0.1,0-0.2s0-0.1,0-0.2h0.8c0,0.2,0.1,0.3,0.1,0.4
					s0,0.2,0,0.4c0,0.4-0.1,0.6-0.4,0.8c-0.1,0.1-0.3,0.1-0.6,0.2c0.3,0.2,0.5,0.5,0.7,0.9s0.3,0.8,0.3,1.3c0,0.6-0.2,1.1-0.5,1.4
					c-0.4,0.4-0.8,0.6-1.3,0.6c-0.6,0-1-0.2-1.4-0.5c-0.3-0.4-0.5-0.8-0.6-1.4L632.7,480z M635.6,482.2c0.2-0.2,0.3-0.5,0.3-0.8
					c0-0.4-0.1-0.7-0.3-1.1c-0.3-0.6-0.8-0.9-1.4-0.9h-0.8c0.1,0.1,0.2,0.3,0.2,0.5c0.1,0.2,0.1,0.4,0.1,0.6l0.1,0.6
					c0.1,0.4,0.1,0.7,0.2,0.9c0.2,0.3,0.5,0.5,0.9,0.5C635.1,482.6,635.4,482.5,635.6,482.2z"/>
				<path class="st1" d="M630.2,472.4v-1.2c0.4,0.1,1.3,0.5,2.8,1c1.1,0.4,2,0.7,2.6,1c1.6,0.6,2.6,1,2.9,1.3
					c0.4,0.2,0.5,0.7,0.5,1.3c0,0.1,0,0.3,0,0.3c0,0.1,0,0.2-0.1,0.3h-1c0.1-0.2,0.1-0.3,0.1-0.4s0-0.2,0-0.2c0-0.2,0-0.3-0.1-0.4
					s-0.1-0.2-0.2-0.2c0,0-0.2-0.1-0.5-0.2c-0.3-0.1-0.5-0.2-0.6-0.3l-6.5,2.3v-1.2l5.1-1.7L630.2,472.4z"/>
				<path class="st1" d="M632.6,470.3v-2.9h1.1v2.9H632.6z"/>
				<path class="st1" d="M630.6,465.3h-0.8c-0.1-0.8-0.2-1.3-0.4-1.6s-0.6-0.5-1.2-0.7v-0.8h8.4v1.1h-5.9V465.3z"/>
				<path class="st1" d="M631.6,458.3c-0.3,0.3-0.7,0.5-1.2,0.5c-0.6,0-1.2-0.2-1.6-0.7s-0.7-1.1-0.7-1.9c0-0.8,0.2-1.4,0.6-1.9
					s0.9-0.7,1.5-0.7c0.5,0,0.9,0.1,1.3,0.4c0.2,0.1,0.4,0.4,0.5,0.7c0.2-0.3,0.3-0.6,0.6-0.8c0.4-0.4,0.9-0.6,1.5-0.6
					c0.7,0,1.4,0.2,1.9,0.7s0.8,1.2,0.8,2.1c0,0.8-0.2,1.5-0.7,2.1s-1.1,0.8-1.9,0.8c-0.5,0-0.9-0.1-1.3-0.4s-0.6-0.6-0.8-1.1
					C631.9,457.9,631.8,458.1,631.6,458.3z M631.2,455.1c-0.3-0.3-0.6-0.4-0.9-0.4c-0.3,0-0.6,0.1-0.9,0.4c-0.3,0.2-0.4,0.6-0.4,1.1
					c0,0.5,0.1,0.9,0.4,1.1c0.3,0.2,0.6,0.3,0.9,0.3c0.4,0,0.7-0.1,0.9-0.4c0.2-0.3,0.3-0.6,0.3-1
					C631.6,455.7,631.5,455.3,631.2,455.1z M635.4,454.9c-0.3-0.3-0.7-0.5-1.2-0.5c-0.5,0-1,0.2-1.2,0.5s-0.4,0.8-0.4,1.3
					c0,0.5,0.1,0.9,0.4,1.2s0.7,0.5,1.2,0.5c0.4,0,0.8-0.1,1.1-0.4s0.5-0.7,0.5-1.4C635.8,455.6,635.6,455.2,635.4,454.9z"/>
			</g>
			<g class="st0">
				<path class="st1" d="M167.9,493.6v-1.4l7-4.3h-7v-1.1h8.6v1.3l-6.9,4.4h6.9v1.1H167.9z"/>
				<path class="st1" d="M170.9,480.2c0.5-0.6,1.3-0.8,2.4-0.8c1,0,1.8,0.2,2.5,0.7s1,1.2,1,2.3c0,0.9-0.3,1.5-0.9,2
					c-0.6,0.5-1.4,0.8-2.4,0.8c-1.1,0-1.9-0.3-2.5-0.8c-0.6-0.5-0.9-1.2-0.9-2.1C170,481.4,170.3,480.7,170.9,480.2z M175,480.8
					c-0.5-0.3-1.1-0.4-1.8-0.4c-0.6,0-1.1,0.1-1.4,0.3c-0.6,0.3-0.9,0.8-0.9,1.5c0,0.6,0.2,1.1,0.7,1.4c0.5,0.3,1.1,0.4,1.8,0.4
					c0.7,0,1.2-0.1,1.7-0.4c0.4-0.3,0.7-0.7,0.7-1.4C175.8,481.6,175.5,481.1,175,480.8z"/>
				<path class="st1" d="M170.2,477.2l5.1-1.7l-5.1-1.7v-1.2l6.3,2.4v1.1l-6.3,2.3V477.2z"/>
				<path class="st1" d="M172.6,471.6v-2.9h1.1v2.9H172.6z"/>
				<path class="st1" d="M169.5,462.2c0.7-0.4,1.6-0.6,2.8-0.6c1.1,0,2.1,0.2,2.8,0.5c1.1,0.5,1.6,1.3,1.6,2.4c0,1-0.4,1.8-1.3,2.2
					c-0.7,0.4-1.7,0.6-2.9,0.6c-1,0-1.8-0.1-2.5-0.4c-1.3-0.5-1.9-1.3-1.9-2.5C168.1,463.4,168.6,462.7,169.5,462.2z M175,463.2
					c-0.5-0.3-1.4-0.5-2.7-0.5c-1,0-1.7,0.1-2.4,0.4c-0.6,0.2-0.9,0.7-0.9,1.4c0,0.6,0.3,1.1,0.9,1.4c0.6,0.3,1.4,0.4,2.6,0.4
					c0.9,0,1.5-0.1,2.1-0.3c0.8-0.3,1.2-0.8,1.2-1.4C175.8,464,175.5,463.6,175,463.2z"/>
				<path class="st1" d="M168.8,455.3c0.5-0.4,1-0.6,1.5-0.6v1c-0.3,0.1-0.6,0.2-0.8,0.3c-0.4,0.3-0.5,0.6-0.5,1.2
					c0,0.6,0.3,1.1,0.8,1.4s1.3,0.5,2.3,0.6c-0.4-0.2-0.6-0.5-0.8-0.9c-0.2-0.3-0.2-0.7-0.2-1.1c0-0.7,0.2-1.3,0.7-1.8
					s1.1-0.8,2-0.8c0.8,0,1.4,0.2,2,0.7s0.9,1.2,0.9,2.1c0,0.8-0.3,1.5-0.9,2s-1.6,0.9-3,0.9c-1,0-1.9-0.1-2.7-0.4
					c-1.4-0.5-2.1-1.4-2.1-2.7C168.1,456.3,168.3,455.6,168.8,455.3z M175.2,456.1c-0.4-0.3-0.8-0.4-1.3-0.4c-0.4,0-0.8,0.1-1.2,0.4
					s-0.6,0.7-0.6,1.3c0,0.5,0.2,0.9,0.5,1.2s0.8,0.5,1.4,0.5c0.5,0,1-0.2,1.3-0.5s0.5-0.7,0.5-1.3
					C175.8,456.8,175.6,456.3,175.2,456.1z"/>
			</g>
			<g class="st0">
				<path class="st1" d="M147.9,493.6v-1.7l7.3-2.5l-7.3-2.5v-1.7h8.6v1.1h-5.1c-0.2,0-0.5,0-0.9,0s-0.8,0-1.3,0l7.3,2.5v1.2
					l-7.3,2.5h0.3c0.2,0,0.5,0,1,0s0.7,0,1,0h5.1v1.1H147.9z"/>
				<path class="st1" d="M152.7,480c0-0.2-0.1-0.4-0.3-0.5c-0.1,0-0.2-0.1-0.4-0.1c-0.4,0-0.6,0.1-0.8,0.4c-0.2,0.3-0.2,0.6-0.2,1.1
					c0,0.6,0.1,0.9,0.4,1.2c0.2,0.1,0.4,0.2,0.7,0.3v1c-0.8,0-1.3-0.3-1.6-0.8c-0.3-0.5-0.5-1-0.5-1.7c0-0.7,0.1-1.3,0.4-1.8
					c0.3-0.5,0.7-0.7,1.3-0.7h3.6c0.1,0,0.2,0,0.3-0.1s0.1-0.1,0.1-0.3c0,0,0-0.1,0-0.2s0-0.1,0-0.2h0.8c0,0.2,0.1,0.3,0.1,0.4
					s0,0.2,0,0.4c0,0.4-0.1,0.6-0.4,0.8c-0.1,0.1-0.3,0.1-0.6,0.2c0.3,0.2,0.5,0.5,0.7,0.9s0.3,0.8,0.3,1.3c0,0.6-0.2,1.1-0.5,1.4
					c-0.4,0.4-0.8,0.6-1.3,0.6c-0.6,0-1-0.2-1.4-0.5c-0.3-0.4-0.5-0.8-0.6-1.4L152.7,480z M155.6,482.2c0.2-0.2,0.3-0.5,0.3-0.8
					c0-0.4-0.1-0.7-0.3-1.1c-0.3-0.6-0.8-0.9-1.4-0.9h-0.8c0.1,0.1,0.2,0.3,0.2,0.5c0.1,0.2,0.1,0.4,0.1,0.6l0.1,0.6
					c0.1,0.4,0.1,0.7,0.2,0.9c0.2,0.3,0.5,0.5,0.9,0.5C155.1,482.6,155.4,482.5,155.6,482.2z"/>
				<path class="st1" d="M150.2,472.4v-1.2c0.4,0.1,1.3,0.5,2.8,1c1.1,0.4,2,0.7,2.6,1c1.6,0.6,2.6,1,2.9,1.3
					c0.4,0.2,0.5,0.7,0.5,1.3c0,0.1,0,0.3,0,0.3c0,0.1,0,0.2-0.1,0.3h-1c0.1-0.2,0.1-0.3,0.1-0.4s0-0.2,0-0.2c0-0.2,0-0.3-0.1-0.4
					s-0.1-0.2-0.2-0.2c0,0-0.2-0.1-0.5-0.2c-0.3-0.1-0.5-0.2-0.6-0.3l-6.5,2.3v-1.2l5.1-1.7L150.2,472.4z"/>
				<path class="st1" d="M152.6,470.3v-2.9h1.1v2.9H152.6z"/>
				<path class="st1" d="M149.5,460.8c0.7-0.4,1.6-0.6,2.8-0.6c1.1,0,2.1,0.2,2.8,0.5c1.1,0.5,1.6,1.3,1.6,2.4c0,1-0.4,1.8-1.3,2.2
					c-0.7,0.4-1.7,0.6-2.9,0.6c-1,0-1.8-0.1-2.5-0.4c-1.3-0.5-1.9-1.3-1.9-2.5C148.1,462.1,148.6,461.3,149.5,460.8z M155,461.9
					c-0.5-0.3-1.4-0.5-2.7-0.5c-1,0-1.7,0.1-2.4,0.4c-0.6,0.2-0.9,0.7-0.9,1.4c0,0.6,0.3,1.1,0.9,1.4c0.6,0.3,1.4,0.4,2.6,0.4
					c0.9,0,1.5-0.1,2.1-0.3c0.8-0.3,1.2-0.8,1.2-1.4C155.8,462.7,155.5,462.2,155,461.9z"/>
				<path class="st1" d="M148.8,454c0.5-0.4,1-0.6,1.5-0.6v1c-0.3,0.1-0.6,0.2-0.8,0.3c-0.4,0.3-0.5,0.6-0.5,1.2
					c0,0.6,0.3,1.1,0.8,1.4s1.3,0.5,2.3,0.6c-0.4-0.2-0.6-0.5-0.8-0.9c-0.2-0.3-0.2-0.7-0.2-1.1c0-0.7,0.2-1.3,0.7-1.8
					s1.1-0.8,2-0.8c0.8,0,1.4,0.2,2,0.7s0.9,1.2,0.9,2.1c0,0.8-0.3,1.5-0.9,2s-1.6,0.9-3,0.9c-1,0-1.9-0.1-2.7-0.4
					c-1.4-0.5-2.1-1.4-2.1-2.7C148.1,455,148.3,454.3,148.8,454z M155.2,454.7c-0.4-0.3-0.8-0.4-1.3-0.4c-0.4,0-0.8,0.1-1.2,0.4
					s-0.6,0.7-0.6,1.3c0,0.5,0.2,0.9,0.5,1.2s0.8,0.5,1.4,0.5c0.5,0,1-0.2,1.3-0.5s0.5-0.7,0.5-1.3
					C155.8,455.4,155.6,455,155.2,454.7z"/>
			</g>
			<g class="st0">
				<path class="st1" d="M567.9,493.6v-1.4l7-4.3h-7v-1.1h8.6v1.3l-6.9,4.4h6.9v1.1H567.9z"/>
				<path class="st1" d="M570.9,480.2c0.5-0.6,1.3-0.8,2.4-0.8c1,0,1.8,0.2,2.5,0.7s1,1.2,1,2.3c0,0.9-0.3,1.5-0.9,2
					c-0.6,0.5-1.4,0.8-2.4,0.8c-1.1,0-1.9-0.3-2.5-0.8c-0.6-0.5-0.9-1.2-0.9-2.1C570,481.4,570.3,480.7,570.9,480.2z M575,480.8
					c-0.5-0.3-1.1-0.4-1.8-0.4c-0.6,0-1.1,0.1-1.4,0.3c-0.6,0.3-0.9,0.8-0.9,1.5c0,0.6,0.2,1.1,0.7,1.4c0.5,0.3,1.1,0.4,1.8,0.4
					c0.7,0,1.2-0.1,1.7-0.4c0.4-0.3,0.7-0.7,0.7-1.4C575.8,481.6,575.5,481.1,575,480.8z"/>
				<path class="st1" d="M570.2,477.2l5.1-1.7l-5.1-1.7v-1.2l6.3,2.4v1.1l-6.3,2.3V477.2z"/>
				<path class="st1" d="M572.6,471.6v-2.9h1.1v2.9H572.6z"/>
				<path class="st1" d="M570.6,466.6h-0.8c-0.1-0.8-0.2-1.3-0.4-1.6s-0.6-0.5-1.2-0.7v-0.8h8.4v1.1h-5.9V466.6z"/>
				<path class="st1" d="M568.8,455.3c0.5-0.4,1-0.6,1.5-0.6v1c-0.3,0.1-0.6,0.2-0.8,0.3c-0.4,0.3-0.5,0.6-0.5,1.2
					c0,0.6,0.3,1.1,0.8,1.4s1.3,0.5,2.3,0.6c-0.4-0.2-0.6-0.5-0.8-0.9c-0.2-0.3-0.2-0.7-0.2-1.1c0-0.7,0.2-1.3,0.7-1.8
					s1.1-0.8,2-0.8c0.8,0,1.4,0.2,2,0.7s0.9,1.2,0.9,2.1c0,0.8-0.3,1.5-0.9,2s-1.6,0.9-3,0.9c-1,0-1.9-0.1-2.7-0.4
					c-1.4-0.5-2.1-1.4-2.1-2.7C568.1,456.3,568.3,455.6,568.8,455.3z M575.2,456.1c-0.4-0.3-0.8-0.4-1.3-0.4c-0.4,0-0.8,0.1-1.2,0.4
					s-0.6,0.7-0.6,1.3c0,0.5,0.2,0.9,0.5,1.2s0.8,0.5,1.4,0.5c0.5,0,1-0.2,1.3-0.5s0.5-0.7,0.5-1.3
					C575.8,456.8,575.6,456.3,575.2,456.1z"/>
			</g>
			<g class="st0">
				<path class="st1" d="M547.9,493.6v-1.7l7.3-2.5l-7.3-2.5v-1.7h8.6v1.1h-5.1c-0.2,0-0.5,0-0.9,0s-0.8,0-1.3,0l7.3,2.5v1.2
					l-7.3,2.5h0.3c0.2,0,0.5,0,1,0s0.7,0,1,0h5.1v1.1H547.9z"/>
				<path class="st1" d="M552.7,480c0-0.2-0.1-0.4-0.3-0.5c-0.1,0-0.2-0.1-0.4-0.1c-0.4,0-0.6,0.1-0.8,0.4c-0.2,0.3-0.2,0.6-0.2,1.1
					c0,0.6,0.1,0.9,0.4,1.2c0.2,0.1,0.4,0.2,0.7,0.3v1c-0.8,0-1.3-0.3-1.6-0.8c-0.3-0.5-0.5-1-0.5-1.7c0-0.7,0.1-1.3,0.4-1.8
					c0.3-0.5,0.7-0.7,1.3-0.7h3.6c0.1,0,0.2,0,0.3-0.1s0.1-0.1,0.1-0.3c0,0,0-0.1,0-0.2s0-0.1,0-0.2h0.8c0,0.2,0.1,0.3,0.1,0.4
					s0,0.2,0,0.4c0,0.4-0.1,0.6-0.4,0.8c-0.1,0.1-0.3,0.1-0.6,0.2c0.3,0.2,0.5,0.5,0.7,0.9s0.3,0.8,0.3,1.3c0,0.6-0.2,1.1-0.5,1.4
					c-0.4,0.4-0.8,0.6-1.3,0.6c-0.6,0-1-0.2-1.4-0.5c-0.3-0.4-0.5-0.8-0.6-1.4L552.7,480z M555.6,482.2c0.2-0.2,0.3-0.5,0.3-0.8
					c0-0.4-0.1-0.7-0.3-1.1c-0.3-0.6-0.8-0.9-1.4-0.9h-0.8c0.1,0.1,0.2,0.3,0.2,0.5c0.1,0.2,0.1,0.4,0.1,0.6l0.1,0.6
					c0.1,0.4,0.1,0.7,0.2,0.9c0.2,0.3,0.5,0.5,0.9,0.5C555.1,482.6,555.4,482.5,555.6,482.2z"/>
				<path class="st1" d="M550.2,472.4v-1.2c0.4,0.1,1.3,0.5,2.8,1c1.1,0.4,2,0.7,2.6,1c1.6,0.6,2.6,1,2.9,1.3
					c0.4,0.2,0.5,0.7,0.5,1.3c0,0.1,0,0.3,0,0.3c0,0.1,0,0.2-0.1,0.3h-1c0.1-0.2,0.1-0.3,0.1-0.4s0-0.2,0-0.2c0-0.2,0-0.3-0.1-0.4
					s-0.1-0.2-0.2-0.2c0,0-0.2-0.1-0.5-0.2c-0.3-0.1-0.5-0.2-0.6-0.3l-6.5,2.3v-1.2l5.1-1.7L550.2,472.4z"/>
				<path class="st1" d="M552.6,470.3v-2.9h1.1v2.9H552.6z"/>
				<path class="st1" d="M550.6,465.3h-0.8c-0.1-0.8-0.2-1.3-0.4-1.6s-0.6-0.5-1.2-0.7v-0.8h8.4v1.1h-5.9V465.3z"/>
				<path class="st1" d="M548.8,454c0.5-0.4,1-0.6,1.5-0.6v1c-0.3,0.1-0.6,0.2-0.8,0.3c-0.4,0.3-0.5,0.6-0.5,1.2
					c0,0.6,0.3,1.1,0.8,1.4s1.3,0.5,2.3,0.6c-0.4-0.2-0.6-0.5-0.8-0.9c-0.2-0.3-0.2-0.7-0.2-1.1c0-0.7,0.2-1.3,0.7-1.8
					s1.1-0.8,2-0.8c0.8,0,1.4,0.2,2,0.7s0.9,1.2,0.9,2.1c0,0.8-0.3,1.5-0.9,2s-1.6,0.9-3,0.9c-1,0-1.9-0.1-2.7-0.4
					c-1.4-0.5-2.1-1.4-2.1-2.7C548.1,455,548.3,454.3,548.8,454z M555.2,454.7c-0.4-0.3-0.8-0.4-1.3-0.4c-0.4,0-0.8,0.1-1.2,0.4
					s-0.6,0.7-0.6,1.3c0,0.5,0.2,0.9,0.5,1.2s0.8,0.5,1.4,0.5c0.5,0,1-0.2,1.3-0.5s0.5-0.7,0.5-1.3
					C555.8,455.4,555.6,455,555.2,454.7z"/>
			</g>
			<g class="st0">
				<path class="st1" d="M327.9,493.6v-1.4l7-4.3h-7v-1.1h8.6v1.3l-6.9,4.4h6.9v1.1H327.9z"/>
				<path class="st1" d="M330.9,480.2c0.5-0.6,1.3-0.8,2.4-0.8c1,0,1.8,0.2,2.5,0.7s1,1.2,1,2.3c0,0.9-0.3,1.5-0.9,2
					c-0.6,0.5-1.4,0.8-2.4,0.8c-1.1,0-1.9-0.3-2.5-0.8c-0.6-0.5-0.9-1.2-0.9-2.1C330,481.4,330.3,480.7,330.9,480.2z M335,480.8
					c-0.5-0.3-1.1-0.4-1.8-0.4c-0.6,0-1.1,0.1-1.4,0.3c-0.6,0.3-0.9,0.8-0.9,1.5c0,0.6,0.2,1.1,0.7,1.4c0.5,0.3,1.1,0.4,1.8,0.4
					c0.7,0,1.2-0.1,1.7-0.4c0.4-0.3,0.7-0.7,0.7-1.4C335.8,481.6,335.5,481.1,335,480.8z"/>
				<path class="st1" d="M330.2,477.2l5.1-1.7l-5.1-1.7v-1.2l6.3,2.4v1.1l-6.3,2.3V477.2z"/>
				<path class="st1" d="M332.6,471.6v-2.9h1.1v2.9H332.6z"/>
				<path class="st1" d="M330.6,466.6h-0.8c-0.1-0.8-0.2-1.3-0.4-1.6s-0.6-0.5-1.2-0.7v-0.8h8.4v1.1h-5.9V466.6z"/>
				<path class="st1" d="M329.5,455.1c0.7-0.4,1.6-0.6,2.8-0.6c1.1,0,2.1,0.2,2.8,0.5c1.1,0.5,1.6,1.3,1.6,2.4c0,1-0.4,1.8-1.3,2.2
					c-0.7,0.4-1.7,0.6-2.9,0.6c-1,0-1.8-0.1-2.5-0.4c-1.3-0.5-1.9-1.3-1.9-2.5C328.1,456.4,328.6,455.6,329.5,455.1z M335,456.2
					c-0.5-0.3-1.4-0.5-2.7-0.5c-1,0-1.7,0.1-2.4,0.4c-0.6,0.2-0.9,0.7-0.9,1.4c0,0.6,0.3,1.1,0.9,1.4c0.6,0.3,1.4,0.4,2.6,0.4
					c0.9,0,1.5-0.1,2.1-0.3c0.8-0.3,1.2-0.8,1.2-1.4C335.8,457,335.5,456.5,335,456.2z"/>
			</g>
			<g class="st0">
				<path class="st1" d="M307.9,493.6v-1.7l7.3-2.5l-7.3-2.5v-1.7h8.6v1.1h-5.1c-0.2,0-0.5,0-0.9,0s-0.8,0-1.3,0l7.3,2.5v1.2
					l-7.3,2.5h0.3c0.2,0,0.5,0,1,0s0.7,0,1,0h5.1v1.1H307.9z"/>
				<path class="st1" d="M312.7,480c0-0.2-0.1-0.4-0.3-0.5c-0.1,0-0.2-0.1-0.4-0.1c-0.4,0-0.6,0.1-0.8,0.4c-0.2,0.3-0.2,0.6-0.2,1.1
					c0,0.6,0.1,0.9,0.4,1.2c0.2,0.1,0.4,0.2,0.7,0.3v1c-0.8,0-1.3-0.3-1.6-0.8c-0.3-0.5-0.5-1-0.5-1.7c0-0.7,0.1-1.3,0.4-1.8
					c0.3-0.5,0.7-0.7,1.3-0.7h3.6c0.1,0,0.2,0,0.3-0.1s0.1-0.1,0.1-0.3c0,0,0-0.1,0-0.2s0-0.1,0-0.2h0.8c0,0.2,0.1,0.3,0.1,0.4
					s0,0.2,0,0.4c0,0.4-0.1,0.6-0.4,0.8c-0.1,0.1-0.3,0.1-0.6,0.2c0.3,0.2,0.5,0.5,0.7,0.9s0.3,0.8,0.3,1.3c0,0.6-0.2,1.1-0.5,1.4
					c-0.4,0.4-0.8,0.6-1.3,0.6c-0.6,0-1-0.2-1.4-0.5c-0.3-0.4-0.5-0.8-0.6-1.4L312.7,480z M315.6,482.2c0.2-0.2,0.3-0.5,0.3-0.8
					c0-0.4-0.1-0.7-0.3-1.1c-0.3-0.6-0.8-0.9-1.4-0.9h-0.8c0.1,0.1,0.2,0.3,0.2,0.5c0.1,0.2,0.1,0.4,0.1,0.6l0.1,0.6
					c0.1,0.4,0.1,0.7,0.2,0.9c0.2,0.3,0.5,0.5,0.9,0.5C315.1,482.6,315.4,482.5,315.6,482.2z"/>
				<path class="st1" d="M310.2,472.4v-1.2c0.4,0.1,1.3,0.5,2.8,1c1.1,0.4,2,0.7,2.6,1c1.6,0.6,2.6,1,2.9,1.3
					c0.4,0.2,0.5,0.7,0.5,1.3c0,0.1,0,0.3,0,0.3c0,0.1,0,0.2-0.1,0.3h-1c0.1-0.2,0.1-0.3,0.1-0.4s0-0.2,0-0.2c0-0.2,0-0.3-0.1-0.4
					s-0.1-0.2-0.2-0.2c0,0-0.2-0.1-0.5-0.2c-0.3-0.1-0.5-0.2-0.6-0.3l-6.5,2.3v-1.2l5.1-1.7L310.2,472.4z"/>
				<path class="st1" d="M312.6,470.3v-2.9h1.1v2.9H312.6z"/>
				<path class="st1" d="M310.6,465.3h-0.8c-0.1-0.8-0.2-1.3-0.4-1.6s-0.6-0.5-1.2-0.7v-0.8h8.4v1.1h-5.9V465.3z"/>
				<path class="st1" d="M309.5,453.8c0.7-0.4,1.6-0.6,2.8-0.6c1.1,0,2.1,0.2,2.8,0.5c1.1,0.5,1.6,1.3,1.6,2.4c0,1-0.4,1.8-1.3,2.2
					c-0.7,0.4-1.7,0.6-2.9,0.6c-1,0-1.8-0.1-2.5-0.4c-1.3-0.5-1.9-1.3-1.9-2.5C308.1,455.1,308.6,454.3,309.5,453.8z M315,454.9
					c-0.5-0.3-1.4-0.5-2.7-0.5c-1,0-1.7,0.1-2.4,0.4c-0.6,0.2-0.9,0.7-0.9,1.4c0,0.6,0.3,1.1,0.9,1.4c0.6,0.3,1.4,0.4,2.6,0.4
					c0.9,0,1.5-0.1,2.1-0.3c0.8-0.3,1.2-0.8,1.2-1.4C315.8,455.6,315.5,455.2,315,454.9z"/>
			</g>
			<g class="st0">
				<path class="st1" d="M368.4,493.1v-1.4l7-4.3h-7v-1.1h8.6v1.3l-6.9,4.4h6.9v1.1H368.4z"/>
				<path class="st1" d="M371.4,479.7c0.5-0.6,1.3-0.8,2.4-0.8c1,0,1.8,0.2,2.5,0.7s1,1.2,1,2.3c0,0.9-0.3,1.5-0.9,2
					c-0.6,0.5-1.4,0.8-2.4,0.8c-1.1,0-1.9-0.3-2.5-0.8c-0.6-0.5-0.9-1.2-0.9-2.1C370.5,480.9,370.8,480.2,371.4,479.7z M375.5,480.3
					c-0.5-0.3-1.1-0.4-1.8-0.4c-0.6,0-1.1,0.1-1.4,0.3c-0.6,0.3-0.9,0.8-0.9,1.5c0,0.6,0.2,1.1,0.7,1.4c0.5,0.3,1.1,0.4,1.8,0.4
					c0.7,0,1.2-0.1,1.7-0.4c0.4-0.3,0.7-0.7,0.7-1.4C376.3,481.1,376,480.6,375.5,480.3z"/>
				<path class="st1" d="M370.7,476.7l5.1-1.7l-5.1-1.7v-1.2l6.3,2.4v1.1l-6.3,2.3V476.7z"/>
				<path class="st1" d="M373.1,471.1v-2.9h1.1v2.9H373.1z"/>
				<path class="st1" d="M371.1,466.1h-0.8c-0.1-0.8-0.2-1.3-0.4-1.6s-0.6-0.5-1.2-0.7V463h8.4v1.1h-5.9V466.1z"/>
				<path class="st1" d="M371.1,460h-0.8c-0.1-0.8-0.2-1.3-0.4-1.6s-0.6-0.5-1.2-0.7v-0.8h8.4v1.1h-5.9V460z"/>
			</g>
			<g class="st0">
				<path class="st1" d="M348.4,493.1v-1.7l7.3-2.5l-7.3-2.5v-1.7h8.6v1.1h-5.1c-0.2,0-0.5,0-0.9,0s-0.8,0-1.3,0l7.3,2.5v1.2
					l-7.3,2.5h0.3c0.2,0,0.5,0,1,0s0.7,0,1,0h5.1v1.1H348.4z"/>
				<path class="st1" d="M353.2,479.5c0-0.2-0.1-0.4-0.3-0.5c-0.1,0-0.2-0.1-0.4-0.1c-0.4,0-0.6,0.1-0.8,0.4
					c-0.2,0.3-0.2,0.6-0.2,1.1c0,0.6,0.1,0.9,0.4,1.2c0.2,0.1,0.4,0.2,0.7,0.3v1c-0.8,0-1.3-0.3-1.6-0.8c-0.3-0.5-0.5-1-0.5-1.7
					c0-0.7,0.1-1.3,0.4-1.8c0.3-0.5,0.7-0.7,1.3-0.7h3.6c0.1,0,0.2,0,0.3-0.1s0.1-0.1,0.1-0.3c0,0,0-0.1,0-0.2s0-0.1,0-0.2h0.8
					c0,0.2,0.1,0.3,0.1,0.4s0,0.2,0,0.4c0,0.4-0.1,0.6-0.4,0.8c-0.1,0.1-0.3,0.1-0.6,0.2c0.3,0.2,0.5,0.5,0.7,0.9s0.3,0.8,0.3,1.3
					c0,0.6-0.2,1.1-0.5,1.4c-0.4,0.4-0.8,0.6-1.3,0.6c-0.6,0-1-0.2-1.4-0.5c-0.3-0.4-0.5-0.8-0.6-1.4L353.2,479.5z M356.1,481.7
					c0.2-0.2,0.3-0.5,0.3-0.8c0-0.4-0.1-0.7-0.3-1.1c-0.3-0.6-0.8-0.9-1.4-0.9h-0.8c0.1,0.1,0.2,0.3,0.2,0.5
					c0.1,0.2,0.1,0.4,0.1,0.6l0.1,0.6c0.1,0.4,0.1,0.7,0.2,0.9c0.2,0.3,0.5,0.5,0.9,0.5C355.6,482.1,355.9,482,356.1,481.7z"/>
				<path class="st1" d="M350.7,471.9v-1.2c0.4,0.1,1.3,0.5,2.8,1c1.1,0.4,2,0.7,2.6,1c1.6,0.6,2.6,1,2.9,1.3
					c0.4,0.2,0.5,0.7,0.5,1.3c0,0.1,0,0.3,0,0.3c0,0.1,0,0.2-0.1,0.3h-1c0.1-0.2,0.1-0.3,0.1-0.4s0-0.2,0-0.2c0-0.2,0-0.3-0.1-0.4
					s-0.1-0.2-0.2-0.2c0,0-0.2-0.1-0.5-0.2c-0.3-0.1-0.5-0.2-0.6-0.3l-6.5,2.3v-1.2l5.1-1.7L350.7,471.9z"/>
				<path class="st1" d="M353.1,469.8v-2.9h1.1v2.9H353.1z"/>
				<path class="st1" d="M351.1,464.8h-0.8c-0.1-0.8-0.2-1.3-0.4-1.6s-0.6-0.5-1.2-0.7v-0.8h8.4v1.1h-5.9V464.8z"/>
				<path class="st1" d="M351.1,458.7h-0.8c-0.1-0.8-0.2-1.3-0.4-1.6s-0.6-0.5-1.2-0.7v-0.8h8.4v1.1h-5.9V458.7z"/>
			</g>
			<g class="st0">
				<path class="st1" d="M407.9,493.6v-1.4l7-4.3h-7v-1.1h8.6v1.3l-6.9,4.4h6.9v1.1H407.9z"/>
				<path class="st1" d="M410.9,480.2c0.5-0.6,1.3-0.8,2.4-0.8c1,0,1.8,0.2,2.5,0.7s1,1.2,1,2.3c0,0.9-0.3,1.5-0.9,2
					c-0.6,0.5-1.4,0.8-2.4,0.8c-1.1,0-1.9-0.3-2.5-0.8c-0.6-0.5-0.9-1.2-0.9-2.1C410,481.4,410.3,480.7,410.9,480.2z M415,480.8
					c-0.5-0.3-1.1-0.4-1.8-0.4c-0.6,0-1.1,0.1-1.4,0.3c-0.6,0.3-0.9,0.8-0.9,1.5c0,0.6,0.2,1.1,0.7,1.4c0.5,0.3,1.1,0.4,1.8,0.4
					c0.7,0,1.2-0.1,1.7-0.4c0.4-0.3,0.7-0.7,0.7-1.4C415.8,481.6,415.5,481.1,415,480.8z"/>
				<path class="st1" d="M410.2,477.2l5.1-1.7l-5.1-1.7v-1.2l6.3,2.4v1.1l-6.3,2.3V477.2z"/>
				<path class="st1" d="M412.6,471.6v-2.9h1.1v2.9H412.6z"/>
				<path class="st1" d="M410.6,466.6h-0.8c-0.1-0.8-0.2-1.3-0.4-1.6s-0.6-0.5-1.2-0.7v-0.8h8.4v1.1h-5.9V466.6z"/>
				<path class="st1" d="M414.6,459.9c-0.5-0.3-1-0.8-1.5-1.5l-0.7-1.1c-0.3-0.5-0.5-0.9-0.8-1.1c-0.3-0.3-0.7-0.5-1.1-0.5
					c-0.5,0-0.9,0.1-1.2,0.4c-0.3,0.3-0.4,0.7-0.4,1.2c0,0.7,0.3,1.2,0.8,1.5c0.3,0.1,0.7,0.2,1.2,0.2v1.1c-0.7,0-1.3-0.1-1.8-0.4
					c-0.8-0.5-1.2-1.3-1.2-2.4c0-1,0.3-1.7,0.8-2.1s1.1-0.7,1.7-0.7c0.7,0,1.2,0.2,1.7,0.7c0.3,0.3,0.6,0.8,1,1.5l0.4,0.8
					c0.2,0.4,0.4,0.7,0.6,0.9c0.3,0.4,0.7,0.6,1.1,0.7v-4.6h1v5.8C415.8,460.3,415.1,460.2,414.6,459.9z"/>
			</g>
			<g class="st0">
				<path class="st1" d="M387.9,493.6v-1.7l7.3-2.5l-7.3-2.5v-1.7h8.6v1.1h-5.1c-0.2,0-0.5,0-0.9,0s-0.8,0-1.3,0l7.3,2.5v1.2
					l-7.3,2.5h0.3c0.2,0,0.5,0,1,0s0.7,0,1,0h5.1v1.1H387.9z"/>
				<path class="st1" d="M392.7,480c0-0.2-0.1-0.4-0.3-0.5c-0.1,0-0.2-0.1-0.4-0.1c-0.4,0-0.6,0.1-0.8,0.4c-0.2,0.3-0.2,0.6-0.2,1.1
					c0,0.6,0.1,0.9,0.4,1.2c0.2,0.1,0.4,0.2,0.7,0.3v1c-0.8,0-1.3-0.3-1.6-0.8c-0.3-0.5-0.5-1-0.5-1.7c0-0.7,0.1-1.3,0.4-1.8
					c0.3-0.5,0.7-0.7,1.3-0.7h3.6c0.1,0,0.2,0,0.3-0.1s0.1-0.1,0.1-0.3c0,0,0-0.1,0-0.2s0-0.1,0-0.2h0.8c0,0.2,0.1,0.3,0.1,0.4
					s0,0.2,0,0.4c0,0.4-0.1,0.6-0.4,0.8c-0.1,0.1-0.3,0.1-0.6,0.2c0.3,0.2,0.5,0.5,0.7,0.9s0.3,0.8,0.3,1.3c0,0.6-0.2,1.1-0.5,1.4
					c-0.4,0.4-0.8,0.6-1.3,0.6c-0.6,0-1-0.2-1.4-0.5c-0.3-0.4-0.5-0.8-0.6-1.4L392.7,480z M395.6,482.2c0.2-0.2,0.3-0.5,0.3-0.8
					c0-0.4-0.1-0.7-0.3-1.1c-0.3-0.6-0.8-0.9-1.4-0.9h-0.8c0.1,0.1,0.2,0.3,0.2,0.5c0.1,0.2,0.1,0.4,0.1,0.6l0.1,0.6
					c0.1,0.4,0.1,0.7,0.2,0.9c0.2,0.3,0.5,0.5,0.9,0.5C395.1,482.6,395.4,482.5,395.6,482.2z"/>
				<path class="st1" d="M390.2,472.4v-1.2c0.4,0.1,1.3,0.5,2.8,1c1.1,0.4,2,0.7,2.6,1c1.6,0.6,2.6,1,2.9,1.3
					c0.4,0.2,0.5,0.7,0.5,1.3c0,0.1,0,0.3,0,0.3c0,0.1,0,0.2-0.1,0.3h-1c0.1-0.2,0.1-0.3,0.1-0.4s0-0.2,0-0.2c0-0.2,0-0.3-0.1-0.4
					s-0.1-0.2-0.2-0.2c0,0-0.2-0.1-0.5-0.2c-0.3-0.1-0.5-0.2-0.6-0.3l-6.5,2.3v-1.2l5.1-1.7L390.2,472.4z"/>
				<path class="st1" d="M392.6,470.3v-2.9h1.1v2.9H392.6z"/>
				<path class="st1" d="M390.6,465.3h-0.8c-0.1-0.8-0.2-1.3-0.4-1.6s-0.6-0.5-1.2-0.7v-0.8h8.4v1.1h-5.9V465.3z"/>
				<path class="st1" d="M394.6,458.6c-0.5-0.3-1-0.8-1.5-1.5l-0.7-1.1c-0.3-0.5-0.5-0.9-0.8-1.1c-0.3-0.3-0.7-0.5-1.1-0.5
					c-0.5,0-0.9,0.1-1.2,0.4c-0.3,0.3-0.4,0.7-0.4,1.2c0,0.7,0.3,1.2,0.8,1.5c0.3,0.1,0.7,0.2,1.2,0.2v1.1c-0.7,0-1.3-0.1-1.8-0.4
					c-0.8-0.5-1.2-1.3-1.2-2.4c0-1,0.3-1.7,0.8-2.1s1.1-0.7,1.7-0.7c0.7,0,1.2,0.2,1.7,0.7c0.3,0.3,0.6,0.8,1,1.5l0.4,0.8
					c0.2,0.4,0.4,0.7,0.6,0.9c0.3,0.4,0.7,0.6,1.1,0.7v-4.6h1v5.8C395.8,459,395.1,458.9,394.6,458.6z"/>
			</g>
			<rect id="Rectangle-5" x="44" y="434" class="st2" width="612" height="2"/>
			<rect id="Rectangle-5-Copy-8" x="48" y="98" class="st2" width="2" height="342"/>
			<rect id="Rectangle-5-Copy" x="44" y="387" class="st2" width="6" height="2"/>
			<rect id="Rectangle-5-Copy-3" x="44" y="293" class="st2" width="6" height="2"/>
			<rect id="Rectangle-5-Copy-5" x="44" y="152" class="st2" width="6" height="2"/>
			<rect id="Rectangle-5-Copy-2" x="44" y="340" class="st2" width="6" height="2"/>
			<rect id="Rectangle-5-Copy-6" x="44" y="199" class="st2" width="6" height="2"/>
			<rect id="Rectangle-5-Copy-4" x="44" y="246" class="st2" width="6" height="2"/>
			<rect id="Rectangle-5-Copy-7" x="44" y="105" class="st2" width="6" height="2"/>
			<g class="st0">
				<path class="st3" d="M411.9,391.4v1.3h-5.7v-1.3H411.9z M413.3,403.1c-1.5,0.8-3.6,1.5-6.4,1.9l-0.7-1.1c2.8-0.5,4.9-1,6.4-1.8
					L413.3,403.1z M411.5,387.8v1.2h-4.9v-1.2H411.5z M421.5,394.2v7.9h-12.9v-7.9H421.5z M420.1,396.5v-1.2H410v1.2H420.1z
					 M420.1,398.7v-1.2H410v1.2H420.1z M420.1,399.6H410v1.3h10.1V399.6z M412.7,391.2l-0.8-1.1c1.5-1,2.5-2.2,3-3.6l1.3,0.2
					c-0.1,0.4-0.3,0.7-0.4,1.1h7.2v1c-0.5,1-1.1,1.9-1.7,2.6l-1-0.8c0.5-0.5,0.9-1,1.3-1.7h-6.4
					C414.4,389.8,413.7,390.6,412.7,391.2z M418.6,389.6c-0.1,0.3-0.2,0.6-0.3,0.9c1.4,1.5,3.3,2.3,5.5,2.6l-0.6,1.2
					c-2.2-0.3-4-1.3-5.5-2.8c-1,1.3-2.5,2.2-4.6,2.6l-0.7-1c2.8-0.5,4.4-1.7,4.9-3.7L418.6,389.6z M423.8,404l-0.5,1.1
					c-2.1-0.8-4.4-1.4-6.7-1.8l0.5-1C419.4,402.7,421.7,403.2,423.8,404z"/>
				<path class="st3" d="M427.4,394l-0.8-1.2c3.5-1.6,6.3-3.5,8.5-6h1.2c1.9,2.4,4.7,4.3,8.5,5.9l-0.8,1.2c-1.1-0.4-2-0.9-3-1.5v1.1
					h-4.5v2.9h7.1v1.3h-7.1v5.3h2.2c0.7-1.3,1.3-2.7,1.8-4.2l1.3,0.5c-0.5,1.4-1.1,2.7-1.7,3.7h4.1v1.4h-17.1v-1.4h4.1
					c-0.4-1.3-1-2.5-1.6-3.6l1.3-0.5c0.6,1.1,1.2,2.5,1.7,4.1h2.3v-5.3h-7.1v-1.3h7.1v-2.9h-4.5v-1.2
					C429.4,393,428.4,393.5,427.4,394z M435.6,388.2c-1.5,1.6-3.2,2.9-5,4.1h10C438.6,391.1,436.9,389.7,435.6,388.2z"/>
				<path class="st3" d="M451.5,394.6l-1,1c-0.8-0.9-1.8-1.9-3.2-3l1-1C449.6,392.7,450.7,393.7,451.5,394.6z M451.6,397.5
					c-0.8,2.5-1.7,4.9-2.6,7.2l-1.3-0.6c1-2.3,1.9-4.7,2.7-7.1L451.6,397.5z M451.9,389.5l-1,1c-0.8-0.8-1.8-1.7-3.2-2.6l1-1
					C450,387.8,451.1,388.6,451.9,389.5z M455.3,396c-0.1,2.6-0.4,4.5-0.8,5.7c-0.5,1.3-1.3,2.4-2.4,3.3l-0.9-1.1
					c1-0.8,1.7-1.7,2.1-2.8c0.4-1,0.6-2.7,0.7-5.1H455.3z M459,387c-0.2,0.6-0.5,1.1-0.8,1.6h6.5v1.3h-7.2c-0.9,1.4-1.8,2.7-2.9,3.7
					c2.4-0.1,4.8-0.3,7.1-0.6c-0.5-0.6-0.9-1.2-1.5-1.8l1.2-0.7c1.4,1.7,2.6,3.2,3.3,4.4l-1.2,0.8c-0.3-0.5-0.7-1.1-1-1.6
					c-3.1,0.4-6.3,0.6-9.5,0.7l-0.4-1.2c1.2-0.9,2.3-2.2,3.3-3.7h-3.5v-1.3h4.2c0.3-0.6,0.6-1.3,0.9-2L459,387z M458.9,396v8.7h-1.5
					V396H458.9z M461.3,402.8V396h1.4v6.7c0,0.4,0.2,0.7,0.6,0.7h2.1v1.3h-2.6C461.8,404.6,461.3,404,461.3,402.8z"/>
				<path class="st3" d="M473.4,388.9v-1.4h4.1c0.6,6.1,3.4,11.5,8.4,16.1l-0.8,1.2c-4.2-3.8-7-8.2-8.1-13.2
					c-1.4,5.7-4.2,10.1-8.4,13.1l-0.9-1.2c4.5-3.3,7.4-8.2,8.7-14.6H473.4z"/>
				<path class="st3" d="M491.4,399.2c-0.5,2-1.2,3.8-2.1,5.3l-1.2-0.8c0.9-1.4,1.6-3,2-4.8L491.4,399.2z M488.4,394.2v-1.3h2.3
					c-0.3-0.8-0.6-1.6-1-2.3l1.3-0.5c0.4,0.8,0.7,1.7,1,2.7h2.2c0.3-0.9,0.6-1.8,0.9-2.7l1.3,0.4c-0.3,0.8-0.6,1.6-0.9,2.3h2.3v1.3
					h-3.9v2.2h3.6v1.3h-3.6v7.3h-1.4v-7.3h-3.7v-1.3h3.7v-2.2H488.4z M492.5,388.4c-0.3-0.6-0.6-1.2-0.9-1.7l1.5-0.2
					c0.3,0.6,0.5,1.2,0.8,1.9h3.8v1.3h-9v-1.3H492.5z M497.1,402.3l-1.2,0.5c-0.3-1.2-0.8-2.4-1.2-3.6l1.2-0.3
					C496.4,400.1,496.8,401.2,497.1,402.3z M506.1,388.2c-1.8,0.6-3.7,1-5.9,1.2v3.7h6.4v1.4h-2.1V405h-1.4v-10.6h-2.9v2.2
					c-0.1,3.5-0.8,6.3-2.3,8.3l-1-1.1c1.2-1.8,1.8-4.2,1.9-7.3v-8.4c2.4,0,4.6-0.5,6.5-1.3L506.1,388.2z"/>
				<path class="st3" d="M521.7,399.1h2.3l0.1-2.7h-1.8v-1.2h1.8l0.1-2.5h-1.9v-1.2h2l0.1-2.7h-2.1v-1.4h3.5l-0.4,11.7h1.5v1.4
					h-17.9v-1.4h1.6l-0.5-11.2c1.2-0.2,2.3-0.6,3.2-1.1l0.5,1.2c-0.5,0.3-1.3,0.6-2.4,0.9l0.1,2.6h2v1.2h-1.9l0.1,2.4h1.8v1.2h-1.8
					l0.1,2.7h2.3v-11.6h7.4V399.1z M516,401.7c-1.6,1.2-3.5,2.3-5.8,3.2l-0.9-1.2c2.2-0.8,4.1-1.8,5.7-2.9L516,401.7z M520.5,399.1
					v-10.4h-5v10.4H520.5z M519.6,390v1h-3.2v-1H519.6z M519.6,392.4v5.4h-3.2v-5.4H519.6z M518.7,393.4h-1.3v3.4h1.3V393.4z
					 M526.8,403.8L526,405c-2-1.4-4-2.4-6-3.2l0.7-1.1C522.9,401.5,525,402.6,526.8,403.8z"/>
				<path class="st3" d="M534.9,387.2c-0.4,1.3-0.9,2.6-1.5,3.8v14H532v-11.5c-0.6,1-1.4,1.9-2.1,2.8l-0.5-1.5
					c1.9-2.4,3.3-5.1,4.2-8.2L534.9,387.2z M540.1,403c-1.4,0.8-3.1,1.5-5.2,2l-0.6-1.2c2-0.4,3.7-1,5-1.7L540.1,403z M541.8,386.6
					v1.1h5.2v1.2h-5.2v1.1h4.5v1.2h-4.5v1.2h5.7v1.1h-12.6v-1.1h5.5v-1.2H536V390h4.4v-1.1h-5.1v-1.2h5.1v-1.1H541.8z M546.1,394.4
					v7.6h-9.9v-7.6H546.1z M544.8,396.7v-1.1h-7.3v1.1H544.8z M544.8,398.8v-1.1h-7.3v1.1H544.8z M544.8,399.8h-7.3v1.1h7.3V399.8z
					 M547.8,403.8l-0.5,1.2c-1.6-0.7-3.4-1.3-5.1-1.7l0.5-1.1C544.5,402.6,546.2,403.1,547.8,403.8z"/>
				<path class="st3" d="M558.4,389c-0.3-0.8-0.7-1.6-1-2.3l1.5-0.2c0.3,0.7,0.6,1.6,1,2.5h8.2v1.4h-8.1v2.6h6.5v7.3
					c0,1.2-0.6,1.8-1.8,1.8h-2l-0.4-1.4l1.9,0.1c0.6,0,0.8-0.3,0.8-0.8v-5.6h-5.1V405h-1.5v-10.6h-4.8v7.8h-1.4V393h6.2v-2.6h-8.1
					V389H558.4z"/>
			</g>
			<g class="st0">
				<path class="st4" d="M411.9,132.4v1.3h-5.7v-1.3H411.9z M413.3,144.1c-1.5,0.8-3.6,1.5-6.4,1.9l-0.7-1.1c2.8-0.5,4.9-1,6.4-1.8
					L413.3,144.1z M411.5,128.8v1.2h-4.9v-1.2H411.5z M421.5,135.2v7.9h-12.9v-7.9H421.5z M420.1,137.5v-1.2H410v1.2H420.1z
					 M420.1,139.7v-1.2H410v1.2H420.1z M420.1,140.6H410v1.3h10.1V140.6z M412.7,132.2l-0.8-1.1c1.5-1,2.5-2.2,3-3.6l1.3,0.2
					c-0.1,0.4-0.3,0.7-0.4,1.1h7.2v1c-0.5,1-1.1,1.9-1.7,2.6l-1-0.8c0.5-0.5,0.9-1,1.3-1.7h-6.4
					C414.4,130.8,413.7,131.6,412.7,132.2z M418.6,130.6c-0.1,0.3-0.2,0.6-0.3,0.9c1.4,1.5,3.3,2.3,5.5,2.6l-0.6,1.2
					c-2.2-0.3-4-1.3-5.5-2.8c-1,1.3-2.5,2.2-4.6,2.6l-0.7-1c2.8-0.5,4.4-1.7,4.9-3.7L418.6,130.6z M423.8,145l-0.5,1.1
					c-2.1-0.8-4.4-1.4-6.7-1.8l0.5-1C419.4,143.7,421.7,144.2,423.8,145z"/>
				<path class="st4" d="M427.4,135l-0.8-1.2c3.5-1.6,6.3-3.5,8.5-6h1.2c1.9,2.4,4.7,4.3,8.5,5.9l-0.8,1.2c-1.1-0.4-2-0.9-3-1.5v1.1
					h-4.5v2.9h7.1v1.3h-7.1v5.3h2.2c0.7-1.3,1.3-2.7,1.8-4.2l1.3,0.5c-0.5,1.4-1.1,2.7-1.7,3.7h4.1v1.4h-17.1v-1.4h4.1
					c-0.4-1.3-1-2.5-1.6-3.6l1.3-0.5c0.6,1.1,1.2,2.5,1.7,4.1h2.3v-5.3h-7.1v-1.3h7.1v-2.9h-4.5v-1.2
					C429.4,134,428.4,134.5,427.4,135z M435.6,129.2c-1.5,1.6-3.2,2.9-5,4.1h10C438.6,132.1,436.9,130.7,435.6,129.2z"/>
				<path class="st4" d="M451.5,135.6l-1,1c-0.8-0.9-1.8-1.9-3.2-3l1-1C449.6,133.7,450.7,134.7,451.5,135.6z M451.6,138.5
					c-0.8,2.5-1.7,4.9-2.6,7.2l-1.3-0.6c1-2.3,1.9-4.7,2.7-7.1L451.6,138.5z M451.9,130.5l-1,1c-0.8-0.8-1.8-1.7-3.2-2.6l1-1
					C450,128.8,451.1,129.6,451.9,130.5z M455.3,137c-0.1,2.6-0.4,4.5-0.8,5.7c-0.5,1.3-1.3,2.4-2.4,3.3l-0.9-1.1
					c1-0.8,1.7-1.7,2.1-2.8c0.4-1,0.6-2.7,0.7-5.1H455.3z M459,128c-0.2,0.6-0.5,1.1-0.8,1.6h6.5v1.3h-7.2c-0.9,1.4-1.8,2.7-2.9,3.7
					c2.4-0.1,4.8-0.3,7.1-0.6c-0.5-0.6-0.9-1.2-1.5-1.8l1.2-0.7c1.4,1.7,2.6,3.2,3.3,4.4l-1.2,0.8c-0.3-0.5-0.7-1.1-1-1.6
					c-3.1,0.4-6.3,0.6-9.5,0.7l-0.4-1.2c1.2-0.9,2.3-2.2,3.3-3.7h-3.5v-1.3h4.2c0.3-0.6,0.6-1.3,0.9-2L459,128z M458.9,137v8.7h-1.5
					V137H458.9z M461.3,143.8V137h1.4v6.7c0,0.4,0.2,0.7,0.6,0.7h2.1v1.3h-2.6C461.8,145.6,461.3,145,461.3,143.8z"/>
				<path class="st4" d="M473.4,129.9v-1.4h4.1c0.6,6.1,3.4,11.5,8.4,16.1l-0.8,1.2c-4.2-3.8-7-8.2-8.1-13.2
					c-1.4,5.7-4.2,10.1-8.4,13.1l-0.9-1.2c4.5-3.3,7.4-8.2,8.7-14.6H473.4z"/>
				<path class="st4" d="M491.4,140.2c-0.5,2-1.2,3.8-2.1,5.3l-1.2-0.8c0.9-1.4,1.6-3,2-4.8L491.4,140.2z M488.4,135.2v-1.3h2.3
					c-0.3-0.8-0.6-1.6-1-2.3l1.3-0.5c0.4,0.8,0.7,1.7,1,2.7h2.2c0.3-0.9,0.6-1.8,0.9-2.7l1.3,0.4c-0.3,0.8-0.6,1.6-0.9,2.3h2.3v1.3
					h-3.9v2.2h3.6v1.3h-3.6v7.3h-1.4v-7.3h-3.7v-1.3h3.7v-2.2H488.4z M492.5,129.4c-0.3-0.6-0.6-1.2-0.9-1.7l1.5-0.2
					c0.3,0.6,0.5,1.2,0.8,1.9h3.8v1.3h-9v-1.3H492.5z M497.1,143.3l-1.2,0.5c-0.3-1.2-0.8-2.4-1.2-3.6l1.2-0.3
					C496.4,141.1,496.8,142.2,497.1,143.3z M506.1,129.2c-1.8,0.6-3.7,1-5.9,1.2v3.7h6.4v1.4h-2.1V146h-1.4v-10.6h-2.9v2.2
					c-0.1,3.5-0.8,6.3-2.3,8.3l-1-1.1c1.2-1.8,1.8-4.2,1.9-7.3v-8.4c2.4,0,4.6-0.5,6.5-1.3L506.1,129.2z"/>
				<path class="st4" d="M521.7,140.1h2.3l0.1-2.7h-1.8v-1.2h1.8l0.1-2.5h-1.9v-1.2h2l0.1-2.7h-2.1v-1.4h3.5l-0.4,11.7h1.5v1.4
					h-17.9v-1.4h1.6l-0.5-11.2c1.2-0.2,2.3-0.6,3.2-1.1l0.5,1.2c-0.5,0.3-1.3,0.6-2.4,0.9l0.1,2.6h2v1.2h-1.9l0.1,2.4h1.8v1.2h-1.8
					l0.1,2.7h2.3v-11.6h7.4V140.1z M516,142.7c-1.6,1.2-3.5,2.3-5.8,3.2l-0.9-1.2c2.2-0.8,4.1-1.8,5.7-2.9L516,142.7z M520.5,140.1
					v-10.4h-5v10.4H520.5z M519.6,131v1h-3.2v-1H519.6z M519.6,133.4v5.4h-3.2v-5.4H519.6z M518.7,134.4h-1.3v3.4h1.3V134.4z
					 M526.8,144.8L526,146c-2-1.4-4-2.4-6-3.2l0.7-1.1C522.9,142.5,525,143.6,526.8,144.8z"/>
				<path class="st4" d="M537.8,130c-0.3-0.8-0.7-1.6-1-2.3l1.5-0.2c0.3,0.7,0.6,1.6,1,2.5h8.2v1.4h-8.1v2.6h6.5v7.3
					c0,1.2-0.6,1.8-1.8,1.8h-2l-0.4-1.4l1.9,0.1c0.6,0,0.8-0.3,0.8-0.8v-5.6h-5.1V146h-1.5v-10.6H533v7.8h-1.4V134h6.2v-2.6h-8.1
					V130H537.8z"/>
				<path class="st4" d="M552.5,133v-5.3h1.4v5.3h2.2v1.4h-2.2v6.7c0.7-0.3,1.4-0.6,2.1-0.9v1.4c-1.7,0.8-3.6,1.4-5.6,1.9l-0.4-1.4
					c0.8-0.2,1.7-0.4,2.5-0.6v-7.1h-2.3V133H552.5z M568.3,135.5v1.3h-7.6c-0.2,0.4-0.5,0.8-0.8,1.2h7.7c0,1.9-0.1,3.5-0.3,4.7
					c-0.2,1.2-0.4,2-0.8,2.5c-0.4,0.4-0.9,0.7-1.7,0.7h-1.5l-0.4-1.3c0.4,0,0.8,0.1,1.2,0.1c0.8,0,1.4-0.3,1.6-1
					c0.2-0.7,0.4-2.2,0.5-4.4h-1.1c-1.4,3.4-3.6,5.6-6.7,6.7l-0.8-1.2c2.9-1,4.9-2.8,6.2-5.5h-1.7c-1,1.8-2.7,3.2-5.1,4.2l-0.8-1
					c2.1-0.8,3.6-1.9,4.6-3.2h-2c-0.6,0.5-1.2,1-1.9,1.4l-0.8-1.1c1.5-0.8,2.5-1.7,3.2-2.8h-2.9v-1.3H568.3z M566.8,128.4v6h-9.2v-6
					H566.8z M565.5,130.9v-1.3H559v1.3H565.5z M565.5,131.9H559v1.3h6.5V131.9z"/>
			</g>
			<g class="st0">
				<path class="st1" d="M9.7,13.8v1.8h-8v-1.8H9.7z M11.6,30.2c-2.1,1.1-5.1,2-9,2.7l-0.9-1.6c3.9-0.6,6.9-1.5,8.9-2.5L11.6,30.2z
					 M9.1,8.7v1.7H2.2V8.7H9.1z M23.1,17.6v11.1H5V17.6H23.1z M21.1,20.9v-1.7H7v1.7H21.1z M21.1,23.9v-1.6H7v1.6H21.1z M21.1,25.3
					H7v1.8h14.1V25.3z M10.8,13.5l-1.1-1.5c2-1.4,3.4-3.1,4.2-5l1.8,0.2c-0.2,0.5-0.4,1-0.6,1.5h10v1.4c-0.7,1.5-1.5,2.7-2.4,3.7
					l-1.4-1.1c0.6-0.7,1.2-1.5,1.8-2.4h-9C13.2,11.6,12.1,12.6,10.8,13.5z M19.1,11.2c-0.1,0.4-0.3,0.9-0.4,1.3c2,2,4.6,3.3,7.8,3.7
					l-0.8,1.7c-3.1-0.5-5.6-1.8-7.7-3.9c-1.3,1.8-3.5,3.1-6.5,3.6l-1-1.5c3.9-0.7,6.2-2.4,6.9-5.2L19.1,11.2z M26.3,31.3l-0.7,1.6
					c-3-1.1-6.1-2-9.4-2.6L17,29C20.2,29.5,23.3,30.3,26.3,31.3z"/>
				<path class="st1" d="M31.3,17.4l-1.2-1.7c4.9-2.2,8.8-5,11.9-8.3h1.6c2.7,3.3,6.6,6.1,11.8,8.3l-1.1,1.7
					c-1.5-0.6-2.9-1.3-4.1-2.1v1.5h-6.4v4h10v1.9h-10v7.5H47c1-1.8,1.8-3.8,2.5-5.9l1.8,0.6c-0.7,2-1.5,3.7-2.3,5.2h5.8v1.9H30.9
					v-1.9h5.8c-0.6-1.8-1.3-3.4-2.2-5l1.8-0.7c0.9,1.6,1.7,3.5,2.4,5.7h3.2v-7.5h-10v-1.9h10v-4h-6.4v-1.6
					C34.1,15.9,32.7,16.7,31.3,17.4z M42.8,9.3c-2.1,2.2-4.5,4.1-7.1,5.7h13.9C47,13.3,44.7,11.4,42.8,9.3z"/>
				<path class="st1" d="M68.2,28.7c-2.1,1.5-4.8,2.7-8,3.6l-0.9-1.8c3.1-0.8,5.7-1.9,7.7-3.2L68.2,28.7z M67.9,32.7l-0.4-1.9
					c0.8,0.1,1.6,0.1,2.3,0.1c0.6,0,0.9-0.4,0.9-1v-3.7c-3.5,0.2-6.7,0.3-9.6,0.3l-0.4-1.9c0.6,0,1.2,0.1,1.8,0.1
					c2.7-0.6,5.6-1.6,8.5-3c-2.7,0.1-5.4,0.3-8,0.4l-0.4-1.7c0.9,0,1.5-0.1,1.9-0.2c1.4-0.7,2.8-1.6,4.3-2.7H62V8.2h19.3v9.4h-9.7
					c-1.6,1.2-3.2,2.3-4.9,3.2l7.2-0.4c1-0.6,2.1-1.1,3.1-1.8l1.7,1.1c-3.7,2.3-7.7,4-12,5.2c4.1-0.1,8.3-0.3,12.5-0.6
					c-0.6-0.6-1.3-1.3-2-1.9l1.5-1c2.1,1.9,3.6,3.5,4.7,4.9l-1.6,1.1c-0.4-0.6-1-1.2-1.5-1.8c-2.7,0.2-5.2,0.3-7.6,0.5v4.3
					c0,1.5-0.8,2.3-2.3,2.3H67.9z M70.6,12.1V9.8h-6.7v2.3H70.6z M70.6,13.7h-6.7v2.3h6.7V13.7z M79.4,12.1V9.8h-6.7v2.3H79.4z
					 M79.4,13.7h-6.7v2.3h6.7V13.7z M83.7,30.6l-1.1,1.7c-2.6-1.5-5.2-2.7-7.9-3.6l1-1.5C78.6,28.2,81.3,29.3,83.7,30.6z"/>
				<path class="st1" d="M92.4,10.8c-0.4-1.1-0.9-2.2-1.5-3.2L92.8,7c0.6,1.2,1.1,2.4,1.4,3.4l-1,0.4h4.9v1.9H87.6v-1.9H92.4z
					 M90.5,32.8h-1.9v-9.9h8.5v9.5h-1.9v-1.3h-4.7V32.8z M97,14.9v1.8h-8.4v-1.8H97z M97,18.8v1.8h-8.4v-1.8H97z M95.2,24.7h-4.7
					v4.5h4.7V24.7z M106.8,7.2v9.2h6.4v2h-6.4v14.4h-2V18.3h-6.2v-2h6.2V7.2H106.8z"/>
				<path class="st1" d="M122.7,18.3l-1.4,1.4c-1.1-1.3-2.6-2.7-4.5-4.1l1.4-1.4C120,15.6,121.5,16.9,122.7,18.3z M122.8,22.3
					c-1.1,3.6-2.3,6.9-3.7,10.1l-1.9-0.8c1.5-3.2,2.7-6.5,3.8-9.9L122.8,22.3z M123.3,11.1l-1.4,1.4c-1.1-1.1-2.5-2.4-4.4-3.7
					l1.5-1.4C120.6,8.7,122.1,9.9,123.3,11.1z M128,20.1c-0.1,3.6-0.5,6.3-1.1,8c-0.7,1.8-1.8,3.3-3.4,4.6l-1.3-1.6
					c1.3-1.1,2.3-2.4,2.9-3.9c0.5-1.5,0.8-3.8,1-7.1H128z M133.2,7.7c-0.3,0.8-0.7,1.5-1.1,2.3h9.1v1.8h-10.1c-1.2,2-2.5,3.8-4,5.2
					c3.4-0.2,6.7-0.4,10-0.8c-0.6-0.9-1.3-1.7-2-2.6l1.6-1c2,2.4,3.6,4.4,4.7,6.2l-1.7,1.2c-0.4-0.7-0.9-1.5-1.4-2.2
					c-4.3,0.5-8.8,0.8-13.4,1l-0.6-1.7c1.7-1.3,3.2-3.1,4.6-5.2h-4.9V9.9h5.9c0.4-0.9,0.9-1.8,1.3-2.9L133.2,7.7z M133,20.1v12.2h-2
					V20.1H133z M136.3,29.7v-9.6h1.9v9.3c0,0.6,0.3,1,0.8,1h3v1.9h-3.6C137,32.3,136.3,31.4,136.3,29.7z"/>
				<path class="st1" d="M153.2,10.2v-2h5.7c0.8,8.5,4.7,16,11.8,22.5l-1.1,1.7c-5.9-5.3-9.7-11.5-11.4-18.5
					c-2,8-5.9,14.1-11.7,18.4l-1.2-1.7c6.3-4.7,10.4-11.5,12.2-20.5H153.2z"/>
				<path class="st1" d="M178.5,24.6c-0.7,2.8-1.7,5.3-2.9,7.4l-1.7-1.1c1.3-2,2.2-4.3,2.8-6.7L178.5,24.6z M174.3,17.7v-1.8h3.2
					c-0.4-1.1-0.8-2.2-1.3-3.2l1.8-0.6c0.5,1.1,1,2.3,1.4,3.8h3c0.5-1.2,0.9-2.5,1.3-3.8l1.8,0.6c-0.4,1.2-0.8,2.2-1.3,3.2h3.2v1.8
					h-5.5v3.1h5v1.8h-5v10.2h-2V22.7h-5.1v-1.8h5.1v-3.1H174.3z M180,9.6c-0.4-0.8-0.8-1.6-1.2-2.3l2.1-0.3c0.4,0.8,0.7,1.7,1.1,2.7
					h5.3v1.8h-12.6V9.6H180z M186.5,29l-1.7,0.6c-0.5-1.7-1.1-3.4-1.7-5.1l1.7-0.4C185.5,25.9,186.1,27.5,186.5,29z M199,9.2
					c-2.5,0.9-5.2,1.5-8.2,1.6V16h9v1.9h-2.9v14.9h-2V17.9h-4.1V21c-0.1,4.9-1.2,8.8-3.2,11.7l-1.5-1.5c1.7-2.5,2.6-5.9,2.7-10.2
					V9.2c3.4-0.1,6.4-0.7,9.2-1.8L199,9.2z"/>
				<path class="st1" d="M220.9,24.5h3.2l0.2-3.8h-2.5V19h2.5l0.1-3.4h-2.7v-1.7h2.8l0.2-3.8h-3V8.2h4.9L226,24.5h2.1v1.9h-25v-1.9
					h2.3l-0.7-15.7c1.7-0.3,3.2-0.9,4.5-1.6l0.7,1.7c-0.7,0.4-1.8,0.8-3.3,1.3l0.2,3.7h2.7v1.7h-2.7l0.2,3.4h2.5v1.7h-2.5l0.2,3.8
					h3.2V8.2h10.3V24.5z M212.9,28.2c-2.2,1.7-4.9,3.2-8.1,4.5l-1.3-1.6c3.1-1.2,5.8-2.5,8-4.1L212.9,28.2z M219.2,24.5V9.9h-6.9
					v14.6H219.2z M218,11.8v1.4h-4.5v-1.4H218z M217.9,15.2v7.6h-4.4v-7.6H217.9z M216.6,16.6h-1.8v4.7h1.8V16.6z M228,31.1
					l-1.1,1.7c-2.7-1.9-5.5-3.4-8.4-4.5l1-1.5C222.6,28,225.5,29.4,228,31.1z"/>
				<path class="st1" d="M241.9,30.3c0,1.6-0.8,2.4-2.4,2.4h-2.3l-0.5-1.8c0.8,0.1,1.5,0.1,2.2,0.1s1-0.5,1-1.4v-6.5
					c-1.4,0.3-2.9,0.6-4.5,0.9c-0.3,3.6-1,6.6-2.3,8.9l-1.5-1.4c1.3-2.6,2-5.8,2.1-9.8V8.2h8.2V30.3z M240,15.7V10h-4.5v4.8
					C237,15,238.5,15.3,240,15.7z M240,21.3v-3.8c-1.5-0.4-2.9-0.7-4.5-1V22C237.1,21.8,238.6,21.6,240,21.3z M255.3,19.1v1.9
					c-0.7,2.7-2,4.9-3.7,6.8c1.6,1.3,3.6,2.4,5.9,3.3l-1.1,1.7c-2.5-1.1-4.5-2.4-6.2-3.7c-1.8,1.5-4,2.8-6.6,3.7l-1.1-1.7
					c2.5-0.9,4.5-2,6.2-3.4c-1.9-2-3.2-4.2-3.9-6.7h-1.4v-2H255.3z M253.9,8.2v6.1c0,0.6,0.3,0.9,0.9,0.9h2.2V17h-2.7
					c-1.6,0-2.4-0.8-2.4-2.4v-4.6h-4.8v1.7c0,2.7-1,4.8-3,6.2l-1.3-1.5c1.5-1.1,2.3-2.5,2.3-4.5V8.2H253.9z M250,26.4
					c1.5-1.6,2.6-3.4,3.3-5.4h-6.7C247.3,23,248.4,24.8,250,26.4z"/>
				<path class="st1" d="M272.2,10.3c-0.4-1.2-1-2.2-1.5-3.2l2.2-0.3c0.4,1,0.9,2.2,1.3,3.5h11.5v1.9h-11.4v3.7h9.1v10.2
					c0,1.7-0.9,2.5-2.5,2.5h-2.8l-0.5-1.9l2.7,0.1c0.8,0,1.2-0.4,1.2-1.2v-7.8h-7.1v14.9h-2.1V17.9h-6.7v11h-2V15.9h8.7v-3.7h-11.4
					v-1.9H272.2z"/>
				<path class="st1" d="M298.2,9.4c-1,0.4-2.6,0.9-4.9,1.4l0.2,3.1h4.2v1.8h-4.1l0.2,3.4h3.7V21h-3.6l0.2,3.6h16.4l0.2-3.5h-3.1
					v-1.8h3.2l0.2-3.4h-3.2V14h3.3l0.2-3.4h-3.6V8.6h5.6l-0.7,15.9h2.2v1.9h-24.8v-1.9h2.4l-0.6-15.3c2.2-0.4,4.2-0.9,6-1.7
					L298.2,9.4z M299.4,28.1c-2.2,1.7-5,3.2-8.3,4.5l-1.3-1.6c3.2-1.2,5.9-2.6,8.1-4.2L299.4,28.1z M300.7,17
					c-0.1,2.3-0.5,4.5-1.3,6.7l-1.6-0.5c0.7-2,1.1-4.1,1.3-6.3L300.7,17z M301.3,14h4.7c-0.1,5.2-0.3,8.1-0.8,8.8
					c-0.4,0.6-1.2,0.9-2.5,0.9h-0.9l-0.5-1.8c0.5,0,1,0,1.5,0c0.6,0,0.9-0.2,1.1-0.6c0.2-0.4,0.3-2.3,0.4-5.6h-5
					c0.6-3.2,1.1-6,1.4-8.5l1.8,0.2c-0.1,0.8-0.2,1.5-0.3,2.2h4.2v1.8h-4.5C301.6,12.3,301.4,13.2,301.3,14z M314.6,31l-1.1,1.7
					c-2.8-1.9-5.7-3.4-8.6-4.5l1-1.5C309.1,27.9,312,29.3,314.6,31z"/>
				<path class="st1" d="M322.6,24.6c-0.7,2.8-1.7,5.3-2.9,7.4L318,31c1.3-2,2.2-4.3,2.8-6.7L322.6,24.6z M318.4,17.7v-1.8h3.2
					c-0.4-1.1-0.8-2.2-1.3-3.2l1.8-0.6c0.5,1.1,1,2.3,1.4,3.8h3c0.5-1.2,0.9-2.5,1.3-3.8l1.8,0.6c-0.4,1.2-0.8,2.2-1.3,3.2h3.2v1.8
					h-5.5v3.1h5v1.8h-5v10.2h-2V22.7h-5.1v-1.8h5.1v-3.1H318.4z M324,9.6c-0.4-0.8-0.8-1.6-1.2-2.3l2.1-0.3c0.4,0.8,0.7,1.7,1.1,2.7
					h5.3v1.8h-12.6V9.6H324z M330.6,29l-1.7,0.6c-0.5-1.7-1.1-3.4-1.7-5.1l1.7-0.4C329.6,25.9,330.1,27.5,330.6,29z M343.1,9.2
					c-2.5,0.9-5.2,1.5-8.2,1.6V16h9v1.9h-2.9v14.9h-2V17.9h-4.1V21c-0.1,4.9-1.2,8.8-3.2,11.7l-1.5-1.5c1.7-2.5,2.6-5.9,2.7-10.2
					V9.2c3.4-0.1,6.4-0.7,9.2-1.8L343.1,9.2z"/>
				<path class="st1" d="M364.9,24.5h3.2l0.2-3.8h-2.5V19h2.5l0.1-3.4h-2.7v-1.7h2.8l0.2-3.8h-3V8.2h4.9l-0.6,16.4h2.1v1.9h-25v-1.9
					h2.3l-0.7-15.7c1.7-0.3,3.2-0.9,4.5-1.6l0.7,1.7c-0.7,0.4-1.8,0.8-3.3,1.3l0.2,3.7h2.7v1.7H351l0.2,3.4h2.5v1.7h-2.5l0.2,3.8
					h3.2V8.2h10.3V24.5z M357,28.2c-2.2,1.7-4.9,3.2-8.1,4.5l-1.3-1.6c3.1-1.2,5.8-2.5,8-4.1L357,28.2z M363.2,24.5V9.9h-6.9v14.6
					H363.2z M362,11.8v1.4h-4.5v-1.4H362z M362,15.2v7.6h-4.4v-7.6H362z M360.7,16.6h-1.8v4.7h1.8V16.6z M372.1,31.1l-1.1,1.7
					c-2.7-1.9-5.5-3.4-8.4-4.5l1-1.5C366.7,28,369.5,29.4,372.1,31.1z"/>
				<path class="st1" d="M383.4,7.9c-0.6,1.9-1.3,3.7-2.1,5.3v19.6h-2V16.8c-0.9,1.3-1.9,2.6-3,3.9l-0.6-2c2.7-3.4,4.7-7.2,5.9-11.5
					L383.4,7.9z M390.7,30c-1.9,1.1-4.3,2.1-7.3,2.9l-0.8-1.7c2.8-0.6,5.1-1.4,6.9-2.4L390.7,30z M393,7.1v1.5h7.3v1.6H393v1.5h6.4
					v1.6H393V15h8v1.6h-17.6V15h7.7v-1.6H385v-1.6h6.2v-1.5H384V8.6h7.1V7.1H393z M399,18v10.7h-13.9V18H399z M397.2,21.1v-1.6
					h-10.3v1.6H397.2z M397.2,24.1v-1.6h-10.3v1.6H397.2z M397.2,25.6h-10.3v1.5h10.3V25.6z M401.4,31.1l-0.7,1.6
					c-2.3-1-4.7-1.8-7.2-2.4l0.7-1.5C396.8,29.4,399.2,30.1,401.4,31.1z"/>
				<path class="st1" d="M416.3,10.3c-0.4-1.2-1-2.2-1.5-3.2l2.2-0.3c0.4,1,0.9,2.2,1.3,3.5h11.5v1.9h-11.4v3.7h9.1v10.2
					c0,1.7-0.9,2.5-2.5,2.5h-2.8l-0.5-1.9l2.7,0.1c0.8,0,1.2-0.4,1.2-1.2v-7.8h-7.1v14.9h-2.1V17.9h-6.7v11h-2V15.9h8.7v-3.7H405
					v-1.9H416.3z"/>
				<path class="st1" d="M445.2,10.3V7.2h2v3.2h8.9v1.8h-8.9v4.3h11.1v1.9h-11.1v4.6h8.6v1.9h-8.6v5.4c1.5,0.2,3.2,0.3,5.3,0.3
					c2.5,0,4.6-0.1,6.3-0.1l-0.6,2c-2.1,0-3.9,0-5.6,0c-4.8,0-8-0.5-9.7-1.3c-1.5-0.8-2.8-2.3-4-4.6c-1,2.2-2.3,4.2-4.1,6.1
					l-1.5-1.3c3-3.3,4.7-6.9,5-11l2,0.3c-0.1,1.4-0.3,2.8-0.7,4.1c1.2,2.5,2.6,4.1,4.2,4.8c0.4,0.2,0.9,0.3,1.4,0.5V18.4h-11.1v-1.9
					h11.1v-4.3h-8.9v-1.8H445.2z"/>
				<path class="st1" d="M468.5,8.4V7h1.9v1.3h4.1v1.5h-4.1v1.7h4.9v1.6h-2.5V14c0,0.5,0.2,0.7,0.7,0.7h1.7v1.2h-2.3
					c-1.1,0-1.7-0.4-1.7-1.2v-1.5H468c-0.7,1.8-2.2,3.3-4.6,4.4l-0.8-1.6c1.9-0.7,3.2-1.6,3.7-2.8h-3.6v-1.6h5.8V9.9h-4.5V8.4H468.5
					z M468.4,16.9V15h1.9v1.9h3.4v1.5h-3.4v1.8c1.4-0.1,2.8-0.3,4.2-0.4v1.5c-3.4,0.4-7,0.8-10.9,1.1l-0.4-1.8
					c1.8-0.1,3.5-0.2,5.2-0.3v-2h-3.3v-1.5H468.4z M476.1,22.4c-0.1,0.6-0.2,1.2-0.4,1.8h9.7c0,3.6-0.3,5.9-0.9,6.9
					c-0.6,1-1.7,1.5-3.2,1.5c-1.3,0-2.4,0-3.3-0.1l-0.5-1.9c1.3,0.1,2.6,0.2,3.7,0.2c1.2-0.1,1.8-0.5,2-1.5c0.1-1,0.2-2,0.2-3.1
					h-8.3c-0.6,1.2-1.3,2.2-2.3,3.1c-1.6,1.5-4.5,2.7-8.6,3.6l-0.9-2c3.6-0.7,6.2-1.7,7.8-3c0.6-0.5,1.1-1.1,1.5-1.7h-8.8v-1.9h9.7
					c0.2-0.6,0.4-1.3,0.5-2L476.1,22.4z M483.6,21.5c-0.5-0.8-0.7-2.3-0.7-4.4v-5.3h-2.4v0.2c0,1.8-0.3,3.5-0.7,4.9
					c0.9,0.5,1.7,1.1,2.5,1.8l-1,1.5c-0.7-0.6-1.4-1.1-2.1-1.6c-0.7,1.5-1.6,2.7-2.8,3.6l-1.4-1.3c1.1-0.9,2-2,2.6-3.4
					c-0.8-0.4-1.5-0.9-2.3-1.2l1-1.4c0.6,0.3,1.3,0.6,1.9,1c0.3-1.2,0.4-2.5,0.5-3.9v-0.2H476V10h2.7V7.1h1.8V10h4.1v7.1
					c0,2.4,0.3,3.6,0.8,3.6c0.4,0,0.8-1.3,1-3.7l1.5,0.8c-0.2,1.7-0.5,3.1-0.9,3.9c-0.4,0.7-1,1-1.6,1
					C484.7,22.6,484.1,22.2,483.6,21.5z"/>
				<path class="st1" d="M515.3,32.8h-1.9v-1.1h-19.2v1.2h-1.9V8.3h22.9V32.8z M513.4,30.1V10h-19.2v20.1H513.4z M509.7,11.5v4.3
					h-5.1l-0.4,1.3h8.1v1.4h-16.8v-1.4h6.9l0.4-1.3H498v-4.3H509.7z M510.9,19.8v8.8h-14.1v-8.8H510.9z M509.2,21.1h-10.7v6.2h10.7
					V21.1z M507.9,12.7h-8.1v1.9h8.1V12.7z M507.3,22.4v3.7h-6.9v-3.7H507.3z M505.8,23.3h-4v1.8h4V23.3z"/>
			</g>
			<g class="st0">
				<path class="st1" d="M8.1,47.8c-0.9,1.5-1.6,3-2.1,4.6c-0.7,1.9-1,3.8-1,5.7c0,1.9,0.3,3.8,1,5.7c0.5,1.6,1.2,3.1,2.1,4.6H6.5
					c-1-1.4-1.7-2.9-2.3-4.5c-0.7-1.9-1-3.8-1-5.7c0-2,0.3-3.9,1-5.8c0.6-1.6,1.3-3.1,2.3-4.5H8.1z"/>
				<path class="st1" d="M28.9,54.7V62H22v1.8h8.7v1.4H22v3.1h-1.6v-3.1h-8.7v-1.4h8.7V62h-6.9v-7.3H28.9z M20.3,48.8v4.6h-7.7v-4.6
					H20.3z M18.8,49.9h-4.6v2.2h4.6V49.9z M20.4,57.7v-1.8H15v1.8H20.4z M20.4,58.9H15v1.8h5.3V58.9z M22,57.7h5.3v-1.8H22V57.7z
					 M27.3,58.9H22v1.8h5.3V58.9z M29.7,48.8v4.6H22v-4.6H29.7z M28.1,49.9h-4.6v2.3h4.6V49.9z"/>
				<path class="st1" d="M40.4,48.6c-0.6,1.7-1.3,3.3-2.1,4.8v14.8h-1.6V55.8c-0.7,1-1.5,1.9-2.4,2.8L33.8,57c2.3-2.6,4-5.7,5.1-9.1
					L40.4,48.6z M47.5,65.6c1.1-2.9,2.1-6.6,2.9-11.1l1.5,0.4c-0.8,4-1.7,7.6-2.8,10.7h5v1.6H39.9v-1.6H47.5z M46.2,51.6
					c-0.3-1.2-0.7-2.2-1.1-3.2l1.7-0.3c0.4,1,0.7,2.2,1,3.5h5.7v1.5H40.3v-1.5H46.2z M45.3,64.5l-1.5,0.4c-0.6-3.3-1.4-6.6-2.3-9.7
					l1.5-0.4C43.9,57.6,44.6,60.9,45.3,64.5z"/>
				<path class="st1" d="M67.8,53c0.3,0.2,0.4,0.5,0.4,0.9c0,0.4-0.1,0.7-0.4,0.9c-0.3,0.3-0.6,0.4-1,0.4c-0.4,0-0.7-0.1-1-0.4
					c-0.3-0.3-0.4-0.6-0.4-0.9c0-0.4,0.1-0.7,0.4-0.9c0.3-0.3,0.6-0.4,1-0.4C67.2,52.6,67.6,52.7,67.8,53z M67.8,61.1
					c0.3,0.2,0.4,0.5,0.4,0.9c0,0.4-0.1,0.7-0.4,0.9c-0.3,0.3-0.6,0.4-1,0.4c-0.4,0-0.7-0.1-1-0.4c-0.3-0.3-0.4-0.6-0.4-0.9
					c0-0.4,0.1-0.7,0.4-0.9c0.3-0.3,0.6-0.4,1-0.4C67.2,60.7,67.6,60.8,67.8,61.1z"/>
				<path class="st1" d="M85.2,50.3V66h-1.8V52.5c-1,1-2.2,1.7-3.7,2.2v-1.8c0.7-0.2,1.5-0.5,2.2-0.9c0.7-0.5,1.4-1,1.9-1.6H85.2z"
					/>
				<path class="st1" d="M99.2,52.5c0.8,1.4,1.3,3.3,1.3,5.7c0,2.4-0.4,4.3-1.3,5.7c-1,1.7-2.4,2.5-4.2,2.5c-1.9,0-3.3-0.8-4.2-2.5
					c-0.8-1.4-1.3-3.3-1.3-5.7c0-2.4,0.4-4.3,1.3-5.7c0.9-1.7,2.4-2.5,4.2-2.5C96.8,50,98.2,50.8,99.2,52.5z M91.9,53.8
					c-0.4,1.1-0.7,2.5-0.7,4.4c0,1.8,0.2,3.3,0.7,4.4c0.6,1.5,1.6,2.3,3,2.3s2.4-0.8,3-2.3c0.4-1.1,0.7-2.5,0.7-4.4
					c0-1.8-0.2-3.3-0.7-4.4c-0.6-1.5-1.6-2.3-3-2.3S92.5,52.3,91.9,53.8z"/>
				<path class="st1" d="M109.3,48.8c-0.4,1.4-0.9,2.8-1.6,4.1v15.4h-1.5V55.6c-0.7,1.1-1.5,2.2-2.4,3.1l-0.5-1.6
					c2.1-2.6,3.6-5.6,4.6-9L109.3,48.8z M111.5,63.5c-0.4,1.8-1.1,3.4-1.8,4.8l-1.1-0.7c0.8-1.3,1.4-2.7,1.7-4.3L111.5,63.5z
					 M109.9,50.9v-1.3h5.3c-0.2-0.5-0.5-0.9-0.8-1.3l1.7-0.3c0.3,0.5,0.5,1,0.7,1.6h5.3v1.3H120l-0.7,2h3.6v1.4h-13.6v-1.4h3.7
					l-0.5-2H109.9z M121.4,55.5v6.6h-10.6v-6.6H121.4z M119.9,58.2v-1.6h-7.7v1.6H119.9z M119.9,59.3h-7.7v1.5h7.7V59.3z
					 M114.6,68.1c-1.2,0-1.8-0.6-1.8-1.8v-3h1.5V66c0,0.5,0.3,0.7,0.8,0.7h2.8c0.4,0,0.7-0.1,0.9-0.2c0.2-0.2,0.4-0.7,0.4-1.6
					l1.3,0.4c-0.2,1.3-0.4,2-0.8,2.3c-0.4,0.2-0.9,0.4-1.6,0.4H114.6z M117.8,52.9l0.7-2h-4.6l0.5,2H117.8z M118.2,64.6l-1.1,0.8
					c-0.5-0.8-1.1-1.7-2-2.6l1.1-0.7C117.1,63.1,117.7,63.9,118.2,64.6z M123.5,67.2l-1.2,0.5c-0.7-1.6-1.5-3.1-2.3-4.3l1.3-0.4
					C122.1,64.4,122.8,65.8,123.5,67.2z"/>
				<path class="st1" d="M137.2,59.6c-0.1,0.5-0.2,1.1-0.3,1.6h8.4v1.5h-9c-0.5,1-1.2,1.9-2,2.7c-1.4,1.3-4,2.3-7.6,3l-0.7-1.5
					c3.2-0.6,5.5-1.4,7-2.6c0.6-0.5,1.1-1,1.5-1.6h-7.4v-1.5h8.1c0.2-0.6,0.4-1.1,0.4-1.8L137.2,59.6z M132.3,50.2
					c-0.3-0.7-0.7-1.4-1-2l1.6-0.3c0.4,0.7,0.7,1.5,1,2.3h4.7c0.4-0.8,0.7-1.6,0.9-2.4l1.7,0.2c-0.2,0.8-0.5,1.5-0.9,2.2h4.9v1.5
					H137v2.1h6.9v1.4H137v2.2h8.8v1.5h-19.2v-1.5h8.8v-2.2h-6.9v-1.4h6.9v-2.1h-8.1v-1.5H132.3z M146.3,67l-0.9,1.4
					c-2.8-1.5-5.6-2.8-8.5-3.7l0.8-1.3C140.9,64.4,143.8,65.6,146.3,67z"/>
				<path class="st1" d="M168.5,55.7v1.5h-6.1v8.2c0,0.6,0.3,0.9,1,0.9h2.4c0.5,0,0.8-0.2,1-0.5c0.3-0.4,0.4-1.6,0.5-3.6l1.5,0.5
					c-0.2,2.4-0.4,3.9-0.9,4.4c-0.4,0.4-1,0.7-1.8,0.7h-3.2c-1.4,0-2.1-0.7-2.1-2v-8.5h-4v0.3c-0.1,2.9-0.7,5.2-1.8,6.9
					c-1.1,1.6-2.9,2.9-5.3,3.8l-0.9-1.3c2.4-0.9,4-2,5-3.5c0.9-1.5,1.4-3.5,1.4-5.9v-0.3h-5.7v-1.5H168.5z M166.6,49.3v1.5h-15.2
					v-1.5H166.6z"/>
				<path class="st1" d="M173.7,47.8c0.9,1.4,1.7,2.9,2.3,4.5c0.6,1.9,1,3.8,1,5.8c0,1.9-0.3,3.8-1,5.7c-0.6,1.6-1.3,3.1-2.3,4.5
					h-1.5c0.9-1.5,1.6-3,2.1-4.6c0.6-1.9,1-3.9,1-5.7c0-1.9-0.3-3.8-1-5.7c-0.5-1.6-1.2-3.1-2.1-4.6H173.7z"/>
			</g>
			<path id="Line" class="st5" d="M550.7,308.8l72.8-98.3"/>
			<path id="Line-decoration-1" class="st5" d="M619.5,221l4-10.5l-8.8,6.9"/>
		</g>
		<polyline id="Path-5" class="st6" points="51.2,431 58,424.9 67.8,420.3 74,425.7 85.7,425.7 91.9,420.3 97.8,417.3 101.4,410 
			108,415.1 117.5,410 123.9,396.8 129.1,396.8 132.9,387.4 138.1,370.1 144.7,353.9 147.8,343.9 151.5,349 154.6,361.7 
			161.5,357.3 164.7,361.7 171.3,353.9 177.3,338.8 182.1,335.6 184.4,349 188.6,338.8 193.2,343.9 197.9,332.5 201.7,338.8 
			207.7,304.6 211.7,310 215.6,300.1 218.1,321.8 222.8,316.9 226,325.1 232.6,300.1 237.6,316.9 249.7,351.2 257.7,349 
			262.2,353.9 267.9,341.4 271.9,327.7 276.8,316.9 284.4,310 289.2,290.9 298.6,274.3 302.1,277.7 308.6,262.8 310.8,272.1 
			316.5,257.1 321.8,248.4 327.7,215.9 333.9,197.1 338.4,197.1 340.9,212 344.3,215.9 347.4,203.6 350.8,207.2 357,207.2 
			359.5,215.9 361.8,232.3 370.8,243.3 376.9,224.2 381.4,218.9 385.8,222 389.4,232.3 395.8,232.3 407,215.9 413.8,176.6 
			418.4,167.2 427.2,178.9 430.3,197.1 435.1,197.1 438.4,207.2 444.4,197.1 450.8,207.2 460.4,240.2 464.6,232.3 469.8,227.1 
			476.7,203.6 480.9,197.1 485.1,207.2 490.4,222 493.9,227.1 498.3,222 500.6,230 504.9,235 507.6,227.1 513.8,230 516.7,248.4 
			521.2,257.1 525.4,250.9 530.3,262.8 537.1,267.4 539.3,259.3 544.2,259.3 549.8,267.4 555.8,257.1 561.1,254.7 564.2,248.4 
			570.6,259.3 582.6,243.3 588.1,215.9 603.4,178.9 611,164.4 616.7,139.1 		"/>
		<polyline id="Path-6" class="st7" points="51.2,432.4 89.9,432.4 103.4,429.4 116.2,429.4 129.9,425 136.2,425 144.7,421 
			150.8,421 157.4,425 175.8,421 187.1,418.2 195.3,412.4 203.1,414.6 222.2,414.6 237.4,414.6 243.7,418.2 248,425 260.8,429.4 
			266.3,432.4 277.4,432.4 290.7,422.4 304,412.4 309.4,400.4 314.5,397.5 325.8,382.2 328.6,374.3 338.1,368.1 345.1,368.1 
			358.5,348.4 363,348.4 363,351.9 369.9,351.9 372.9,355.5 381.5,338.3 392,331.9 401.6,318.5 405.7,306.3 411.4,297.6 
			417.6,282.1 428.2,264.6 431.9,279.8 437,285.1 438.7,292.2 444.5,297.6 450.3,306.3 456.2,318.5 462.5,324.2 473.9,312.8 
			480.6,312.8 483.9,316.4 488,312.8 490.5,318.5 493.1,321.2 500.1,316.4 504,318.5 507.9,316.4 511.8,318.5 515.8,318.2 
			521.1,334.7 525.8,334.7 531.4,349.7 539.6,355.5 545.5,347.2 551.8,347.2 555.8,331.9 560.2,322.3 566,312.8 572.3,322.3 
			578.9,309.5 586.5,297.6 592.9,285.1 597.5,278.2 602.9,270.7 611.1,265.6 616.7,256.4 		"/>
	</g>
</g>
</svg>
