<?xml version="1.0" encoding="utf-8"?>
<!-- Generator: Adobe Illustrator 22.0.1, SVG Export Plug-In . SVG Version: 6.00 Build 0)  -->
<svg version="1.1" id="圖層_1" xmlns="http://www.w3.org/2000/svg" xmlns:xlink="http://www.w3.org/1999/xlink" x="0px" y="0px"
	 viewBox="0 0 656 492" style="enable-background:new 0 0 656 492;" xml:space="preserve">
<style type="text/css">
	.st0{fill:#BCBCBC;}
	.st1{fill:#D8D8D8;}
	.st2{fill:none;stroke:#BCBCBC;}
	.st3{enable-background:new    ;}
	.st4{fill:#4A4A4A;}
	.st5{fill:none;stroke:#B7956F;stroke-width:4;stroke-linecap:round;stroke-linejoin:round;}
	.st6{fill:none;stroke:#004483;stroke-width:4;stroke-linecap:round;stroke-linejoin:round;}
	.st7{fill:#004483;}
	.st8{fill:#B7956F;}
</style>
<title>s1_3_2 copy</title>
<desc>Created with Sketch.</desc>
<g id="s1_3_2-copy">
	<g id="Group-4">
		<g id="Group-2" transform="translate(0.000000, 144.000000)">
			<g id="Group">
				<g id="Group-3">
					<rect id="Rectangle-5" x="25" y="301.8" class="st0" width="612" height="2"/>
					<g id="Rectangle-20">
						<g>
							<rect id="path-1" x="29" y="301.8" class="st1" width="2" height="6"/>
						</g>
						<rect x="29.5" y="302.3" class="st2" width="1" height="5"/>
					</g>
					<g id="Rectangle-20-Copy-4">
						<g>
							<rect id="path-2" x="181" y="301.8" class="st1" width="2" height="6"/>
						</g>
						<rect x="181.5" y="302.3" class="st2" width="1" height="5"/>
					</g>
					<g id="Rectangle-20-Copy-8">
						<g>
							<rect id="path-3" x="333" y="301.8" class="st1" width="2" height="6"/>
						</g>
						<rect x="333.5" y="302.3" class="st2" width="1" height="5"/>
					</g>
					<g id="Rectangle-20-Copy-2">
						<g>
							<rect id="path-4" x="105" y="301.8" class="st1" width="2" height="6"/>
						</g>
						<rect x="105.5" y="302.3" class="st2" width="1" height="5"/>
					</g>
					<g id="Rectangle-20-Copy-5">
						<g>
							<rect id="path-5" x="257" y="301.8" class="st1" width="2" height="6"/>
						</g>
						<rect x="257.5" y="302.3" class="st2" width="1" height="5"/>
					</g>
					<g id="Rectangle-20-Copy-9">
						<g>
							<rect id="path-6" x="409" y="301.8" class="st1" width="2" height="6"/>
						</g>
						<rect x="409.5" y="302.3" class="st2" width="1" height="5"/>
					</g>
					<g id="Rectangle-20-Copy-12">
						<g>
							<rect id="path-7" x="523" y="301.8" class="st1" width="2" height="6"/>
						</g>
						<rect x="523.5" y="302.3" class="st2" width="1" height="5"/>
					</g>
					<g id="Rectangle-20-Copy">
						<g>
							<rect id="path-8" x="67" y="301.8" class="st1" width="2" height="6"/>
						</g>
						<rect x="67.5" y="302.3" class="st2" width="1" height="5"/>
					</g>
					<g id="Rectangle-20-Copy-6">
						<g>
							<rect id="path-9" x="219" y="301.8" class="st1" width="2" height="6"/>
						</g>
						<rect x="219.5" y="302.3" class="st2" width="1" height="5"/>
					</g>
					<g id="Rectangle-20-Copy-10">
						<g>
							<rect id="path-10" x="371" y="301.8" class="st1" width="2" height="6"/>
						</g>
						<rect x="371.5" y="302.3" class="st2" width="1" height="5"/>
					</g>
					<g id="Rectangle-20-Copy-13">
						<g>
							<rect id="path-11" x="485" y="301.8" class="st1" width="2" height="6"/>
						</g>
						<rect x="485.5" y="302.3" class="st2" width="1" height="5"/>
					</g>
					<g id="Rectangle-20-Copy-3">
						<g>
							<rect id="path-12" x="143" y="301.8" class="st1" width="2" height="6"/>
						</g>
						<rect x="143.5" y="302.3" class="st2" width="1" height="5"/>
					</g>
					<g id="Rectangle-20-Copy-7">
						<g>
							<rect id="path-13" x="295" y="301.8" class="st1" width="2" height="6"/>
						</g>
						<rect x="295.5" y="302.3" class="st2" width="1" height="5"/>
					</g>
					<g id="Rectangle-20-Copy-11">
						<g>
							<rect id="path-14" x="447" y="301.8" class="st1" width="2" height="6"/>
						</g>
						<rect x="447.5" y="302.3" class="st2" width="1" height="5"/>
					</g>
					<g id="Rectangle-20-Copy-14">
						<g>
							<rect id="path-15" x="561" y="301.8" class="st1" width="2" height="6"/>
						</g>
						<rect x="561.5" y="302.3" class="st2" width="1" height="5"/>
					</g>
					<g class="st3">
						<path class="st4" d="M401.7,333c0.5,0.5,0.8,1.1,0.8,1.8c0,0.7-0.3,1.4-0.8,2c-0.3,0.3-0.9,0.8-1.8,1.4
							c-1.1,0.7-1.7,1.4-1.9,2h4.5v0.9h-5.7c0-0.8,0.3-1.5,0.9-2.1c0.3-0.4,0.9-0.9,1.9-1.5c0.7-0.5,1.1-0.8,1.3-1.1
							c0.4-0.5,0.7-1,0.7-1.5c0-0.5-0.2-0.9-0.5-1.2s-0.8-0.4-1.3-0.4c-0.6,0-1,0.2-1.4,0.6c-0.3,0.4-0.5,1-0.5,1.7h-1
							c0-1,0.3-1.7,0.8-2.3c0.5-0.6,1.2-0.9,2.1-0.9C400.5,332.3,401.2,332.5,401.7,333z"/>
						<path class="st4" d="M409.5,333.6c0.5,0.8,0.7,1.8,0.7,3.1c0,1.3-0.2,2.3-0.7,3.1c-0.5,0.9-1.3,1.4-2.3,1.4
							c-1,0-1.8-0.5-2.3-1.4c-0.5-0.8-0.7-1.8-0.7-3.1c0-1.3,0.2-2.3,0.7-3.1c0.5-0.9,1.3-1.4,2.3-1.4
							C408.2,332.3,408.9,332.7,409.5,333.6z M405.5,334.3c-0.2,0.6-0.4,1.4-0.4,2.4c0,1,0.1,1.8,0.4,2.4c0.3,0.8,0.9,1.2,1.7,1.2
							s1.3-0.4,1.7-1.2c0.2-0.6,0.4-1.4,0.4-2.4c0-1-0.1-1.8-0.4-2.4c-0.3-0.8-0.9-1.2-1.7-1.2S405.8,333.5,405.5,334.3z"/>
						<path class="st4" d="M414.6,332.4v8.6h-1v-7.4c-0.5,0.6-1.2,0.9-2,1.2v-1c0.4-0.1,0.8-0.3,1.2-0.5c0.4-0.3,0.7-0.6,1-0.9
							H414.6z"/>
						<path class="st4" d="M421.9,332.9c0.5,0.4,0.7,1,0.7,1.7c0,1-0.5,1.6-1.4,1.9c0.5,0.2,0.9,0.4,1.2,0.7
							c0.3,0.3,0.4,0.8,0.4,1.3c0,0.8-0.3,1.4-0.8,1.9c-0.6,0.5-1.3,0.8-2.2,0.8c-0.8,0-1.5-0.2-2-0.6c-0.6-0.5-0.9-1.2-1-2.2h1
							c0,0.7,0.3,1.2,0.7,1.5c0.4,0.3,0.8,0.4,1.3,0.4c0.6,0,1.1-0.2,1.5-0.5c0.3-0.3,0.5-0.8,0.5-1.3c0-0.5-0.2-0.9-0.5-1.2
							c-0.3-0.3-0.8-0.4-1.4-0.4h-0.7v-0.8h0.7c0.6,0,1-0.1,1.3-0.4c0.3-0.3,0.5-0.6,0.5-1.1s-0.2-0.9-0.4-1.1
							c-0.3-0.3-0.8-0.4-1.3-0.4c-0.6,0-1,0.1-1.3,0.5c-0.3,0.3-0.5,0.8-0.6,1.3h-1c0.1-0.8,0.4-1.5,0.9-1.9c0.5-0.5,1.2-0.7,2-0.7
							C420.8,332.3,421.4,332.5,421.9,332.9z"/>
					</g>
					<g class="st3">
						<path class="st4" d="M210.7,333c0.5,0.5,0.8,1.1,0.8,1.8c0,0.7-0.3,1.4-0.8,2c-0.3,0.3-0.9,0.8-1.8,1.4
							c-1.1,0.7-1.7,1.4-1.9,2h4.5v0.9h-5.7c0-0.8,0.3-1.5,0.9-2.1c0.3-0.4,0.9-0.9,1.9-1.5c0.7-0.5,1.1-0.8,1.3-1.1
							c0.4-0.5,0.7-1,0.7-1.5c0-0.5-0.2-0.9-0.5-1.2s-0.8-0.4-1.3-0.4c-0.6,0-1,0.2-1.4,0.6c-0.3,0.4-0.5,1-0.5,1.7h-1
							c0-1,0.3-1.7,0.8-2.3c0.5-0.6,1.2-0.9,2.1-0.9C209.5,332.3,210.2,332.5,210.7,333z"/>
						<path class="st4" d="M218.5,333.6c0.5,0.8,0.7,1.8,0.7,3.1c0,1.3-0.2,2.3-0.7,3.1c-0.5,0.9-1.3,1.4-2.3,1.4
							c-1,0-1.8-0.5-2.3-1.4c-0.5-0.8-0.7-1.8-0.7-3.1c0-1.3,0.2-2.3,0.7-3.1c0.5-0.9,1.3-1.4,2.3-1.4
							C217.2,332.3,217.9,332.7,218.5,333.6z M214.5,334.3c-0.2,0.6-0.4,1.4-0.4,2.4c0,1,0.1,1.8,0.4,2.4c0.3,0.8,0.9,1.2,1.7,1.2
							s1.3-0.4,1.7-1.2c0.2-0.6,0.4-1.4,0.4-2.4c0-1-0.1-1.8-0.4-2.4c-0.3-0.8-0.9-1.2-1.7-1.2S214.8,333.5,214.5,334.3z"/>
						<path class="st4" d="M226,333.6c0.5,0.8,0.7,1.8,0.7,3.1c0,1.3-0.2,2.3-0.7,3.1c-0.5,0.9-1.3,1.4-2.3,1.4
							c-1,0-1.8-0.5-2.3-1.4c-0.5-0.8-0.7-1.8-0.7-3.1c0-1.3,0.2-2.3,0.7-3.1c0.5-0.9,1.3-1.4,2.3-1.4
							C224.7,332.3,225.5,332.7,226,333.6z M222,334.3c-0.2,0.6-0.4,1.4-0.4,2.4c0,1,0.1,1.8,0.4,2.4c0.3,0.8,0.9,1.2,1.7,1.2
							s1.3-0.4,1.7-1.2c0.2-0.6,0.4-1.4,0.4-2.4c0-1-0.1-1.8-0.4-2.4c-0.3-0.8-0.9-1.2-1.7-1.2S222.4,333.5,222,334.3z"/>
						<path class="st4" d="M233.3,333c0.5,0.4,0.7,0.9,0.7,1.6c0,0.5-0.1,0.8-0.3,1.2c-0.2,0.3-0.6,0.6-1,0.7v0
							c0.4,0.1,0.8,0.4,1.1,0.7c0.3,0.4,0.5,0.9,0.5,1.4c0,0.8-0.3,1.4-0.8,1.8c-0.6,0.5-1.3,0.7-2.3,0.7c-1,0-1.8-0.2-2.3-0.7
							c-0.5-0.5-0.8-1.1-0.8-1.8c0-0.6,0.2-1,0.5-1.4c0.3-0.4,0.7-0.6,1.1-0.7v0c-0.5-0.2-0.8-0.4-1-0.7c-0.2-0.3-0.3-0.7-0.3-1.2
							c0-0.6,0.2-1.2,0.7-1.6c0.5-0.5,1.2-0.7,2.1-0.7C232.1,332.3,232.8,332.5,233.3,333z M229.6,337.4c-0.4,0.3-0.5,0.7-0.5,1.2
							c0,0.5,0.2,0.9,0.5,1.2c0.4,0.3,0.9,0.5,1.6,0.5c0.7,0,1.2-0.2,1.6-0.5c0.3-0.3,0.5-0.7,0.5-1.2c0-0.5-0.2-0.9-0.5-1.2
							c-0.4-0.3-0.9-0.5-1.6-0.5C230.5,336.9,230,337,229.6,337.4z M229.8,333.5c-0.3,0.3-0.4,0.6-0.4,1c0,0.4,0.1,0.8,0.4,1.1
							c0.3,0.3,0.8,0.5,1.5,0.5c0.7,0,1.2-0.2,1.5-0.5c0.3-0.3,0.4-0.6,0.4-1.1c0-0.4-0.2-0.8-0.4-1c-0.3-0.3-0.8-0.5-1.4-0.5
							C230.6,333.1,230.2,333.2,229.8,333.5z"/>
					</g>
					<g class="st3">
						<path class="st4" d="M363.7,333c0.5,0.5,0.8,1.1,0.8,1.8c0,0.7-0.3,1.4-0.8,2c-0.3,0.3-0.9,0.8-1.8,1.4
							c-1.1,0.7-1.7,1.4-1.9,2h4.5v0.9h-5.7c0-0.8,0.3-1.5,0.9-2.1c0.3-0.4,0.9-0.9,1.9-1.5c0.7-0.5,1.1-0.8,1.3-1.1
							c0.4-0.5,0.7-1,0.7-1.5c0-0.5-0.2-0.9-0.5-1.2s-0.8-0.4-1.3-0.4c-0.6,0-1,0.2-1.4,0.6c-0.3,0.4-0.5,1-0.5,1.7h-1
							c0-1,0.3-1.7,0.8-2.3c0.5-0.6,1.2-0.9,2.1-0.9C362.5,332.3,363.2,332.5,363.7,333z"/>
						<path class="st4" d="M371.5,333.6c0.5,0.8,0.7,1.8,0.7,3.1c0,1.3-0.2,2.3-0.7,3.1c-0.5,0.9-1.3,1.4-2.3,1.4
							c-1,0-1.8-0.5-2.3-1.4c-0.5-0.8-0.7-1.8-0.7-3.1c0-1.3,0.2-2.3,0.7-3.1c0.5-0.9,1.3-1.4,2.3-1.4
							C370.2,332.3,370.9,332.7,371.5,333.6z M367.5,334.3c-0.2,0.6-0.4,1.4-0.4,2.4c0,1,0.1,1.8,0.4,2.4c0.3,0.8,0.9,1.2,1.7,1.2
							s1.3-0.4,1.7-1.2c0.2-0.6,0.4-1.4,0.4-2.4c0-1-0.1-1.8-0.4-2.4c-0.3-0.8-0.9-1.2-1.7-1.2S367.8,333.5,367.5,334.3z"/>
						<path class="st4" d="M376.6,332.4v8.6h-1v-7.4c-0.5,0.6-1.2,0.9-2,1.2v-1c0.4-0.1,0.8-0.3,1.2-0.5c0.4-0.3,0.7-0.6,1-0.9
							H376.6z"/>
						<path class="st4" d="M383.9,333c0.5,0.5,0.8,1.1,0.8,1.8c0,0.7-0.3,1.4-0.8,2c-0.3,0.3-0.9,0.8-1.8,1.4
							c-1.1,0.7-1.7,1.4-1.9,2h4.5v0.9H379c0-0.8,0.3-1.5,0.9-2.1c0.3-0.4,0.9-0.9,1.9-1.5c0.7-0.5,1.1-0.8,1.3-1.1
							c0.4-0.5,0.7-1,0.7-1.5c0-0.5-0.2-0.9-0.5-1.2c-0.3-0.3-0.8-0.4-1.3-0.4c-0.6,0-1,0.2-1.4,0.6c-0.3,0.4-0.5,1-0.5,1.7h-1
							c0-1,0.3-1.7,0.8-2.3c0.5-0.6,1.2-0.9,2.1-0.9C382.8,332.3,383.4,332.5,383.9,333z"/>
					</g>
					<g class="st3">
						<path class="st4" d="M172.7,333c0.5,0.5,0.8,1.1,0.8,1.8c0,0.7-0.3,1.4-0.8,2c-0.3,0.3-0.9,0.8-1.8,1.4
							c-1.1,0.7-1.7,1.4-1.9,2h4.5v0.9h-5.7c0-0.8,0.3-1.5,0.9-2.1c0.3-0.4,0.9-0.9,1.9-1.5c0.7-0.5,1.1-0.8,1.3-1.1
							c0.4-0.5,0.7-1,0.7-1.5c0-0.5-0.2-0.9-0.5-1.2s-0.8-0.4-1.3-0.4c-0.6,0-1,0.2-1.4,0.6c-0.3,0.4-0.5,1-0.5,1.7h-1
							c0-1,0.3-1.7,0.8-2.3c0.5-0.6,1.2-0.9,2.1-0.9C171.5,332.3,172.2,332.5,172.7,333z"/>
						<path class="st4" d="M180.5,333.6c0.5,0.8,0.7,1.8,0.7,3.1c0,1.3-0.2,2.3-0.7,3.1c-0.5,0.9-1.3,1.4-2.3,1.4
							c-1,0-1.8-0.5-2.3-1.4c-0.5-0.8-0.7-1.8-0.7-3.1c0-1.3,0.2-2.3,0.7-3.1c0.5-0.9,1.3-1.4,2.3-1.4
							C179.2,332.3,179.9,332.7,180.5,333.6z M176.5,334.3c-0.2,0.6-0.4,1.4-0.4,2.4c0,1,0.1,1.8,0.4,2.4c0.3,0.8,0.9,1.2,1.7,1.2
							s1.3-0.4,1.7-1.2c0.2-0.6,0.4-1.4,0.4-2.4c0-1-0.1-1.8-0.4-2.4c-0.3-0.8-0.9-1.2-1.7-1.2S176.8,333.5,176.5,334.3z"/>
						<path class="st4" d="M188,333.6c0.5,0.8,0.7,1.8,0.7,3.1c0,1.3-0.2,2.3-0.7,3.1c-0.5,0.9-1.3,1.4-2.3,1.4
							c-1,0-1.8-0.5-2.3-1.4c-0.5-0.8-0.7-1.8-0.7-3.1c0-1.3,0.2-2.3,0.7-3.1c0.5-0.9,1.3-1.4,2.3-1.4
							C186.7,332.3,187.5,332.7,188,333.6z M184,334.3c-0.2,0.6-0.4,1.4-0.4,2.4c0,1,0.1,1.8,0.4,2.4c0.3,0.8,0.9,1.2,1.7,1.2
							s1.3-0.4,1.7-1.2c0.2-0.6,0.4-1.4,0.4-2.4c0-1-0.1-1.8-0.4-2.4c-0.3-0.8-0.9-1.2-1.7-1.2S184.4,333.5,184,334.3z"/>
						<path class="st4" d="M195.7,332.4v0.8l-3.2,7.8h-1l3.2-7.7h-4.6v-0.9H195.7z"/>
					</g>
					<g class="st3">
						<path class="st4" d="M326.7,333c0.5,0.5,0.8,1.1,0.8,1.8c0,0.7-0.3,1.4-0.8,2c-0.3,0.3-0.9,0.8-1.8,1.4
							c-1.1,0.7-1.7,1.4-1.9,2h4.5v0.9h-5.7c0-0.8,0.3-1.5,0.9-2.1c0.3-0.4,0.9-0.9,1.9-1.5c0.7-0.5,1.1-0.8,1.3-1.1
							c0.4-0.5,0.7-1,0.7-1.5c0-0.5-0.2-0.9-0.5-1.2s-0.8-0.4-1.3-0.4c-0.6,0-1,0.2-1.4,0.6c-0.3,0.4-0.5,1-0.5,1.7h-1
							c0-1,0.3-1.7,0.8-2.3c0.5-0.6,1.2-0.9,2.1-0.9C325.5,332.3,326.2,332.5,326.7,333z"/>
						<path class="st4" d="M334.5,333.6c0.5,0.8,0.7,1.8,0.7,3.1c0,1.3-0.2,2.3-0.7,3.1c-0.5,0.9-1.3,1.4-2.3,1.4
							c-1,0-1.8-0.5-2.3-1.4c-0.5-0.8-0.7-1.8-0.7-3.1c0-1.3,0.2-2.3,0.7-3.1c0.5-0.9,1.3-1.4,2.3-1.4
							C333.2,332.3,333.9,332.7,334.5,333.6z M330.5,334.3c-0.2,0.6-0.4,1.4-0.4,2.4c0,1,0.1,1.8,0.4,2.4c0.3,0.8,0.9,1.2,1.7,1.2
							s1.3-0.4,1.7-1.2c0.2-0.6,0.4-1.4,0.4-2.4c0-1-0.1-1.8-0.4-2.4c-0.3-0.8-0.9-1.2-1.7-1.2S330.8,333.5,330.5,334.3z"/>
						<path class="st4" d="M339.6,332.4v8.6h-1v-7.4c-0.5,0.6-1.2,0.9-2,1.2v-1c0.4-0.1,0.8-0.3,1.2-0.5c0.4-0.3,0.7-0.6,1-0.9
							H339.6z"/>
						<path class="st4" d="M344.8,332.4v8.6h-1v-7.4c-0.5,0.6-1.2,0.9-2,1.2v-1c0.4-0.1,0.8-0.3,1.2-0.5c0.4-0.3,0.7-0.6,1-0.9
							H344.8z"/>
					</g>
					<g class="st3">
						<path class="st4" d="M134.7,333c0.5,0.5,0.8,1.1,0.8,1.8c0,0.7-0.3,1.4-0.8,2c-0.3,0.3-0.9,0.8-1.8,1.4
							c-1.1,0.7-1.7,1.4-1.9,2h4.5v0.9h-5.7c0-0.8,0.3-1.5,0.9-2.1c0.3-0.4,0.9-0.9,1.9-1.5c0.7-0.5,1.1-0.8,1.3-1.1
							c0.4-0.5,0.7-1,0.7-1.5c0-0.5-0.2-0.9-0.5-1.2s-0.8-0.4-1.3-0.4c-0.6,0-1,0.2-1.4,0.6c-0.3,0.4-0.5,1-0.5,1.7h-1
							c0-1,0.3-1.7,0.8-2.3c0.5-0.6,1.2-0.9,2.1-0.9C133.5,332.3,134.2,332.5,134.7,333z"/>
						<path class="st4" d="M142.5,333.6c0.5,0.8,0.7,1.8,0.7,3.1c0,1.3-0.2,2.3-0.7,3.1c-0.5,0.9-1.3,1.4-2.3,1.4
							c-1,0-1.8-0.5-2.3-1.4c-0.5-0.8-0.7-1.8-0.7-3.1c0-1.3,0.2-2.3,0.7-3.1c0.5-0.9,1.3-1.4,2.3-1.4
							C141.2,332.3,141.9,332.7,142.5,333.6z M138.5,334.3c-0.2,0.6-0.4,1.4-0.4,2.4c0,1,0.1,1.8,0.4,2.4c0.3,0.8,0.9,1.2,1.7,1.2
							s1.3-0.4,1.7-1.2c0.2-0.6,0.4-1.4,0.4-2.4c0-1-0.1-1.8-0.4-2.4c-0.3-0.8-0.9-1.2-1.7-1.2S138.8,333.5,138.5,334.3z"/>
						<path class="st4" d="M150,333.6c0.5,0.8,0.7,1.8,0.7,3.1c0,1.3-0.2,2.3-0.7,3.1c-0.5,0.9-1.3,1.4-2.3,1.4
							c-1,0-1.8-0.5-2.3-1.4c-0.5-0.8-0.7-1.8-0.7-3.1c0-1.3,0.2-2.3,0.7-3.1c0.5-0.9,1.3-1.4,2.3-1.4
							C148.7,332.3,149.5,332.7,150,333.6z M146,334.3c-0.2,0.6-0.4,1.4-0.4,2.4c0,1,0.1,1.8,0.4,2.4c0.3,0.8,0.9,1.2,1.7,1.2
							s1.3-0.4,1.7-1.2c0.2-0.6,0.4-1.4,0.4-2.4c0-1-0.1-1.8-0.4-2.4c-0.3-0.8-0.9-1.2-1.7-1.2S146.4,333.5,146,334.3z"/>
						<path class="st4" d="M158.1,334.6h-1c-0.2-1-0.8-1.5-1.8-1.5c-0.7,0-1.2,0.3-1.6,1c-0.4,0.6-0.6,1.4-0.6,2.4c0,0,0,0.2,0,0.3
							h0c0.2-0.4,0.5-0.8,0.9-1c0.4-0.3,0.8-0.4,1.3-0.4c0.8,0,1.5,0.3,2,0.8c0.5,0.5,0.7,1.2,0.7,2s-0.3,1.5-0.8,2.1
							c-0.6,0.6-1.2,0.8-2.1,0.8c-1,0-1.8-0.4-2.4-1.2c-0.5-0.7-0.7-1.8-0.7-3.1c0-1.4,0.3-2.5,0.8-3.3c0.6-0.9,1.3-1.3,2.3-1.3
							C156.9,332.3,157.9,333,158.1,334.6z M153.9,336.8c-0.4,0.4-0.6,0.9-0.6,1.5s0.2,1.1,0.5,1.5c0.4,0.4,0.8,0.6,1.4,0.6
							c0.6,0,1-0.2,1.4-0.6c0.4-0.4,0.5-0.9,0.5-1.5s-0.2-1.1-0.5-1.5c-0.4-0.4-0.8-0.6-1.4-0.6
							C154.8,336.2,154.3,336.4,153.9,336.8z"/>
					</g>
					<g class="st3">
						<path class="st4" d="M58.7,333c0.5,0.5,0.8,1.1,0.8,1.8c0,0.7-0.3,1.4-0.8,2c-0.3,0.3-0.9,0.8-1.8,1.4c-1.1,0.7-1.7,1.4-1.9,2
							h4.5v0.9h-5.7c0-0.8,0.3-1.5,0.9-2.1c0.3-0.4,0.9-0.9,1.9-1.5c0.7-0.5,1.1-0.8,1.3-1.1c0.4-0.5,0.7-1,0.7-1.5
							c0-0.5-0.2-0.9-0.5-1.2s-0.8-0.4-1.3-0.4c-0.6,0-1,0.2-1.4,0.6c-0.3,0.4-0.5,1-0.5,1.7h-1c0-1,0.3-1.7,0.8-2.3
							c0.5-0.6,1.2-0.9,2.1-0.9C57.5,332.3,58.2,332.5,58.7,333z"/>
						<path class="st4" d="M66.5,333.6c0.5,0.8,0.7,1.8,0.7,3.1c0,1.3-0.2,2.3-0.7,3.1c-0.5,0.9-1.3,1.4-2.3,1.4
							c-1,0-1.8-0.5-2.3-1.4c-0.5-0.8-0.7-1.8-0.7-3.1c0-1.3,0.2-2.3,0.7-3.1c0.5-0.9,1.3-1.4,2.3-1.4
							C65.2,332.3,65.9,332.7,66.5,333.6z M62.5,334.3c-0.2,0.6-0.4,1.4-0.4,2.4c0,1,0.1,1.8,0.4,2.4c0.3,0.8,0.9,1.2,1.7,1.2
							s1.3-0.4,1.7-1.2c0.2-0.6,0.4-1.4,0.4-2.4c0-1-0.1-1.8-0.4-2.4c-0.3-0.8-0.9-1.2-1.7-1.2S62.8,333.5,62.5,334.3z"/>
						<path class="st4" d="M74,333.6c0.5,0.8,0.7,1.8,0.7,3.1c0,1.3-0.2,2.3-0.7,3.1c-0.5,0.9-1.3,1.4-2.3,1.4c-1,0-1.8-0.5-2.3-1.4
							c-0.5-0.8-0.7-1.8-0.7-3.1c0-1.3,0.2-2.3,0.7-3.1c0.5-0.9,1.3-1.4,2.3-1.4C72.7,332.3,73.5,332.7,74,333.6z M70,334.3
							c-0.2,0.6-0.4,1.4-0.4,2.4c0,1,0.1,1.8,0.4,2.4c0.3,0.8,0.9,1.2,1.7,1.2s1.3-0.4,1.7-1.2c0.2-0.6,0.4-1.4,0.4-2.4
							c0-1-0.1-1.8-0.4-2.4c-0.3-0.8-0.9-1.2-1.7-1.2S70.4,333.5,70,334.3z"/>
						<path class="st4" d="M81.2,332.4v5.8h1.4v0.8h-1.4v1.9h-0.9v-1.9h-4.3v-0.9l4.3-5.7H81.2z M76.8,338.3h3.5v-4.5h0L76.8,338.3z
							"/>
					</g>
					<g class="st3">
						<path class="st4" d="M287.7,333c0.5,0.5,0.8,1.1,0.8,1.8c0,0.7-0.3,1.4-0.8,2c-0.3,0.3-0.9,0.8-1.8,1.4
							c-1.1,0.7-1.7,1.4-1.9,2h4.5v0.9h-5.7c0-0.8,0.3-1.5,0.9-2.1c0.3-0.4,0.9-0.9,1.9-1.5c0.7-0.5,1.1-0.8,1.3-1.1
							c0.4-0.5,0.7-1,0.7-1.5c0-0.5-0.2-0.9-0.5-1.2s-0.8-0.4-1.3-0.4c-0.6,0-1,0.2-1.4,0.6c-0.3,0.4-0.5,1-0.5,1.7h-1
							c0-1,0.3-1.7,0.8-2.3c0.5-0.6,1.2-0.9,2.1-0.9C286.5,332.3,287.2,332.5,287.7,333z"/>
						<path class="st4" d="M295.5,333.6c0.5,0.8,0.7,1.8,0.7,3.1c0,1.3-0.2,2.3-0.7,3.1c-0.5,0.9-1.3,1.4-2.3,1.4
							c-1,0-1.8-0.5-2.3-1.4c-0.5-0.8-0.7-1.8-0.7-3.1c0-1.3,0.2-2.3,0.7-3.1c0.5-0.9,1.3-1.4,2.3-1.4
							C294.2,332.3,294.9,332.7,295.5,333.6z M291.5,334.3c-0.2,0.6-0.4,1.4-0.4,2.4c0,1,0.1,1.8,0.4,2.4c0.3,0.8,0.9,1.2,1.7,1.2
							s1.3-0.4,1.7-1.2c0.2-0.6,0.4-1.4,0.4-2.4c0-1-0.1-1.8-0.4-2.4c-0.3-0.8-0.9-1.2-1.7-1.2S291.8,333.5,291.5,334.3z"/>
						<path class="st4" d="M300.6,332.4v8.6h-1v-7.4c-0.5,0.6-1.2,0.9-2,1.2v-1c0.4-0.1,0.8-0.3,1.2-0.5c0.4-0.3,0.7-0.6,1-0.9
							H300.6z"/>
						<path class="st4" d="M308.2,333.6c0.5,0.8,0.7,1.8,0.7,3.1c0,1.3-0.2,2.3-0.7,3.1c-0.5,0.9-1.3,1.4-2.3,1.4
							c-1,0-1.8-0.5-2.3-1.4c-0.5-0.8-0.7-1.8-0.7-3.1c0-1.3,0.2-2.3,0.7-3.1c0.5-0.9,1.3-1.4,2.3-1.4
							C306.9,332.3,307.6,332.7,308.2,333.6z M304.2,334.3c-0.2,0.6-0.4,1.4-0.4,2.4c0,1,0.1,1.8,0.4,2.4c0.3,0.8,0.9,1.2,1.7,1.2
							s1.3-0.4,1.7-1.2c0.2-0.6,0.4-1.4,0.4-2.4c0-1-0.1-1.8-0.4-2.4c-0.3-0.8-0.9-1.2-1.7-1.2S304.5,333.5,304.2,334.3z"/>
					</g>
					<g class="st3">
						<path class="st4" d="M96.7,333c0.5,0.5,0.8,1.1,0.8,1.8c0,0.7-0.3,1.4-0.8,2c-0.3,0.3-0.9,0.8-1.8,1.4c-1.1,0.7-1.7,1.4-1.9,2
							h4.5v0.9h-5.7c0-0.8,0.3-1.5,0.9-2.1c0.3-0.4,0.9-0.9,1.9-1.5c0.7-0.5,1.1-0.8,1.3-1.1c0.4-0.5,0.7-1,0.7-1.5
							c0-0.5-0.2-0.9-0.5-1.2s-0.8-0.4-1.3-0.4c-0.6,0-1,0.2-1.4,0.6c-0.3,0.4-0.5,1-0.5,1.7h-1c0-1,0.3-1.7,0.8-2.3
							c0.5-0.6,1.2-0.9,2.1-0.9C95.5,332.3,96.2,332.5,96.7,333z"/>
						<path class="st4" d="M104.5,333.6c0.5,0.8,0.7,1.8,0.7,3.1c0,1.3-0.2,2.3-0.7,3.1c-0.5,0.9-1.3,1.4-2.3,1.4
							c-1,0-1.8-0.5-2.3-1.4c-0.5-0.8-0.7-1.8-0.7-3.1c0-1.3,0.2-2.3,0.7-3.1c0.5-0.9,1.3-1.4,2.3-1.4
							C103.2,332.3,103.9,332.7,104.5,333.6z M100.5,334.3c-0.2,0.6-0.4,1.4-0.4,2.4c0,1,0.1,1.8,0.4,2.4c0.3,0.8,0.9,1.2,1.7,1.2
							s1.3-0.4,1.7-1.2c0.2-0.6,0.4-1.4,0.4-2.4c0-1-0.1-1.8-0.4-2.4c-0.3-0.8-0.9-1.2-1.7-1.2S100.8,333.5,100.5,334.3z"/>
						<path class="st4" d="M112,333.6c0.5,0.8,0.7,1.8,0.7,3.1c0,1.3-0.2,2.3-0.7,3.1c-0.5,0.9-1.3,1.4-2.3,1.4
							c-1,0-1.8-0.5-2.3-1.4c-0.5-0.8-0.7-1.8-0.7-3.1c0-1.3,0.2-2.3,0.7-3.1c0.5-0.9,1.3-1.4,2.3-1.4
							C110.7,332.3,111.5,332.7,112,333.6z M108,334.3c-0.2,0.6-0.4,1.4-0.4,2.4c0,1,0.1,1.8,0.4,2.4c0.3,0.8,0.9,1.2,1.7,1.2
							s1.3-0.4,1.7-1.2c0.2-0.6,0.4-1.4,0.4-2.4c0-1-0.1-1.8-0.4-2.4c-0.3-0.8-0.9-1.2-1.7-1.2S108.4,333.5,108,334.3z"/>
						<path class="st4" d="M119.9,332.4v0.9h-4.2l-0.3,2.9h0c0.2-0.3,0.6-0.5,0.9-0.6c0.3-0.1,0.7-0.2,1.1-0.2c0.8,0,1.5,0.3,2,0.8
							c0.5,0.5,0.8,1.2,0.8,2.2c0,0.9-0.3,1.6-0.9,2.1c-0.6,0.5-1.3,0.8-2.1,0.8c-0.8,0-1.4-0.2-1.9-0.6c-0.6-0.5-0.9-1.1-1-1.9h1
							c0,0.5,0.3,1,0.6,1.2c0.3,0.3,0.8,0.4,1.3,0.4c0.6,0,1.1-0.2,1.5-0.6c0.4-0.4,0.6-0.9,0.6-1.5c0-0.7-0.2-1.2-0.6-1.6
							c-0.3-0.4-0.8-0.6-1.5-0.6c-0.4,0-0.8,0.1-1.1,0.3c-0.3,0.2-0.6,0.4-0.8,0.8h-0.9l0.5-4.7H119.9z"/>
					</g>
					<g class="st3">
						<path class="st4" d="M20.7,333c0.5,0.5,0.8,1.1,0.8,1.8c0,0.7-0.3,1.4-0.8,2c-0.3,0.3-0.9,0.8-1.8,1.4c-1.1,0.7-1.7,1.4-1.9,2
							h4.5v0.9h-5.7c0-0.8,0.3-1.5,0.9-2.1c0.3-0.4,0.9-0.9,1.9-1.5c0.7-0.5,1.1-0.8,1.3-1.1c0.4-0.5,0.7-1,0.7-1.5
							c0-0.5-0.2-0.9-0.5-1.2s-0.8-0.4-1.3-0.4c-0.6,0-1,0.2-1.4,0.6c-0.3,0.4-0.5,1-0.5,1.7h-1c0-1,0.3-1.7,0.8-2.3
							c0.5-0.6,1.2-0.9,2.1-0.9C19.5,332.3,20.2,332.5,20.7,333z"/>
						<path class="st4" d="M28.5,333.6c0.5,0.8,0.7,1.8,0.7,3.1c0,1.3-0.2,2.3-0.7,3.1c-0.5,0.9-1.3,1.4-2.3,1.4
							c-1,0-1.8-0.5-2.3-1.4c-0.5-0.8-0.7-1.8-0.7-3.1c0-1.3,0.2-2.3,0.7-3.1c0.5-0.9,1.3-1.4,2.3-1.4
							C27.2,332.3,27.9,332.7,28.5,333.6z M24.5,334.3c-0.2,0.6-0.4,1.4-0.4,2.4c0,1,0.1,1.8,0.4,2.4c0.3,0.8,0.9,1.2,1.7,1.2
							s1.3-0.4,1.7-1.2c0.2-0.6,0.4-1.4,0.4-2.4c0-1-0.1-1.8-0.4-2.4c-0.3-0.8-0.9-1.2-1.7-1.2S24.8,333.5,24.5,334.3z"/>
						<path class="st4" d="M36,333.6c0.5,0.8,0.7,1.8,0.7,3.1c0,1.3-0.2,2.3-0.7,3.1c-0.5,0.9-1.3,1.4-2.3,1.4c-1,0-1.8-0.5-2.3-1.4
							c-0.5-0.8-0.7-1.8-0.7-3.1c0-1.3,0.2-2.3,0.7-3.1c0.5-0.9,1.3-1.4,2.3-1.4C34.7,332.3,35.5,332.7,36,333.6z M32,334.3
							c-0.2,0.6-0.4,1.4-0.4,2.4c0,1,0.1,1.8,0.4,2.4c0.3,0.8,0.9,1.2,1.7,1.2s1.3-0.4,1.7-1.2c0.2-0.6,0.4-1.4,0.4-2.4
							c0-1-0.1-1.8-0.4-2.4c-0.3-0.8-0.9-1.2-1.7-1.2S32.4,333.5,32,334.3z"/>
						<path class="st4" d="M43.3,332.9c0.5,0.4,0.7,1,0.7,1.7c0,1-0.5,1.6-1.4,1.9c0.5,0.2,0.9,0.4,1.2,0.7c0.3,0.3,0.4,0.8,0.4,1.3
							c0,0.8-0.3,1.4-0.8,1.9c-0.6,0.5-1.3,0.8-2.2,0.8c-0.8,0-1.5-0.2-2-0.6c-0.6-0.5-0.9-1.2-1-2.2h1c0,0.7,0.3,1.2,0.7,1.5
							c0.4,0.3,0.8,0.4,1.3,0.4c0.6,0,1.1-0.2,1.5-0.5c0.3-0.3,0.5-0.8,0.5-1.3c0-0.5-0.2-0.9-0.5-1.2c-0.3-0.3-0.8-0.4-1.4-0.4
							h-0.7v-0.8h0.7c0.6,0,1-0.1,1.3-0.4c0.3-0.3,0.5-0.6,0.5-1.1s-0.2-0.9-0.4-1.1c-0.3-0.3-0.8-0.4-1.3-0.4c-0.6,0-1,0.1-1.3,0.5
							c-0.3,0.3-0.5,0.8-0.6,1.3h-1c0.1-0.8,0.4-1.5,0.9-1.9c0.5-0.5,1.2-0.7,2-0.7C42.1,332.3,42.8,332.5,43.3,332.9z"/>
					</g>
					<g class="st3">
						<path class="st4" d="M439.7,333c0.5,0.5,0.8,1.1,0.8,1.8c0,0.7-0.3,1.4-0.8,2c-0.3,0.3-0.9,0.8-1.8,1.4
							c-1.1,0.7-1.7,1.4-1.9,2h4.5v0.9h-5.7c0-0.8,0.3-1.5,0.9-2.1c0.3-0.4,0.9-0.9,1.9-1.5c0.7-0.5,1.1-0.8,1.3-1.1
							c0.4-0.5,0.7-1,0.7-1.5c0-0.5-0.2-0.9-0.5-1.2s-0.8-0.4-1.3-0.4c-0.6,0-1,0.2-1.4,0.6c-0.3,0.4-0.5,1-0.5,1.7h-1
							c0-1,0.3-1.7,0.8-2.3c0.5-0.6,1.2-0.9,2.1-0.9C438.5,332.3,439.2,332.5,439.7,333z"/>
						<path class="st4" d="M447.5,333.6c0.5,0.8,0.7,1.8,0.7,3.1c0,1.3-0.2,2.3-0.7,3.1c-0.5,0.9-1.3,1.4-2.3,1.4
							c-1,0-1.8-0.5-2.3-1.4c-0.5-0.8-0.7-1.8-0.7-3.1c0-1.3,0.2-2.3,0.7-3.1c0.5-0.9,1.3-1.4,2.3-1.4
							C446.2,332.3,446.9,332.7,447.5,333.6z M443.5,334.3c-0.2,0.6-0.4,1.4-0.4,2.4c0,1,0.1,1.8,0.4,2.4c0.3,0.8,0.9,1.2,1.7,1.2
							s1.3-0.4,1.7-1.2c0.2-0.6,0.4-1.4,0.4-2.4c0-1-0.1-1.8-0.4-2.4c-0.3-0.8-0.9-1.2-1.7-1.2S443.8,333.5,443.5,334.3z"/>
						<path class="st4" d="M452.6,332.4v8.6h-1v-7.4c-0.5,0.6-1.2,0.9-2,1.2v-1c0.4-0.1,0.8-0.3,1.2-0.5c0.4-0.3,0.7-0.6,1-0.9
							H452.6z"/>
						<path class="st4" d="M459.8,332.4v5.8h1.4v0.8h-1.4v1.9h-0.9v-1.9h-4.3v-0.9l4.3-5.7H459.8z M455.4,338.3h3.5v-4.5h0
							L455.4,338.3z"/>
					</g>
					<g class="st3">
						<path class="st4" d="M248.7,333c0.5,0.5,0.8,1.1,0.8,1.8c0,0.7-0.3,1.4-0.8,2c-0.3,0.3-0.9,0.8-1.8,1.4
							c-1.1,0.7-1.7,1.4-1.9,2h4.5v0.9h-5.7c0-0.8,0.3-1.5,0.9-2.1c0.3-0.4,0.9-0.9,1.9-1.5c0.7-0.5,1.1-0.8,1.3-1.1
							c0.4-0.5,0.7-1,0.7-1.5c0-0.5-0.2-0.9-0.5-1.2s-0.8-0.4-1.3-0.4c-0.6,0-1,0.2-1.4,0.6c-0.3,0.4-0.5,1-0.5,1.7h-1
							c0-1,0.3-1.7,0.8-2.3c0.5-0.6,1.2-0.9,2.1-0.9C247.5,332.3,248.2,332.5,248.7,333z"/>
						<path class="st4" d="M256.5,333.6c0.5,0.8,0.7,1.8,0.7,3.1c0,1.3-0.2,2.3-0.7,3.1c-0.5,0.9-1.3,1.4-2.3,1.4
							c-1,0-1.8-0.5-2.3-1.4c-0.5-0.8-0.7-1.8-0.7-3.1c0-1.3,0.2-2.3,0.7-3.1c0.5-0.9,1.3-1.4,2.3-1.4
							C255.2,332.3,255.9,332.7,256.5,333.6z M252.5,334.3c-0.2,0.6-0.4,1.4-0.4,2.4c0,1,0.1,1.8,0.4,2.4c0.3,0.8,0.9,1.2,1.7,1.2
							s1.3-0.4,1.7-1.2c0.2-0.6,0.4-1.4,0.4-2.4c0-1-0.1-1.8-0.4-2.4c-0.3-0.8-0.9-1.2-1.7-1.2S252.8,333.5,252.5,334.3z"/>
						<path class="st4" d="M264,333.6c0.5,0.8,0.7,1.8,0.7,3.1c0,1.3-0.2,2.3-0.7,3.1c-0.5,0.9-1.3,1.4-2.3,1.4
							c-1,0-1.8-0.5-2.3-1.4c-0.5-0.8-0.7-1.8-0.7-3.1c0-1.3,0.2-2.3,0.7-3.1c0.5-0.9,1.3-1.4,2.3-1.4
							C262.7,332.3,263.5,332.7,264,333.6z M260,334.3c-0.2,0.6-0.4,1.4-0.4,2.4c0,1,0.1,1.8,0.4,2.4c0.3,0.8,0.9,1.2,1.7,1.2
							s1.3-0.4,1.7-1.2c0.2-0.6,0.4-1.4,0.4-2.4c0-1-0.1-1.8-0.4-2.4c-0.3-0.8-0.9-1.2-1.7-1.2S260.4,333.5,260,334.3z"/>
						<path class="st4" d="M271.5,333.4c0.5,0.7,0.8,1.8,0.8,3.1c0,1.4-0.3,2.5-0.8,3.3c-0.6,0.9-1.3,1.3-2.3,1.3
							c-1.6,0-2.5-0.8-2.7-2.3h1c0.2,1,0.8,1.5,1.8,1.5c0.7,0,1.2-0.3,1.6-1c0.4-0.6,0.6-1.4,0.6-2.4c0-0.1,0-0.2,0-0.3h0
							c-0.2,0.4-0.5,0.8-0.9,1c-0.4,0.2-0.8,0.4-1.3,0.4c-0.8,0-1.5-0.3-2-0.8c-0.5-0.5-0.7-1.2-0.7-2c0-0.9,0.3-1.5,0.8-2.1
							c0.5-0.6,1.2-0.8,2.1-0.8C270.2,332.3,271,332.7,271.5,333.4z M267.8,333.7c-0.4,0.4-0.5,0.9-0.5,1.5c0,0.6,0.2,1.1,0.5,1.5
							c0.3,0.4,0.8,0.6,1.4,0.6c0.6,0,1-0.2,1.4-0.6c0.4-0.4,0.6-0.9,0.6-1.5c0-0.6-0.2-1.1-0.5-1.5c-0.4-0.4-0.8-0.6-1.4-0.6
							C268.6,333.1,268.1,333.3,267.8,333.7z"/>
					</g>
					<g class="st3">
						<path class="st4" d="M477.7,333c0.5,0.5,0.8,1.1,0.8,1.8c0,0.7-0.3,1.4-0.8,2c-0.3,0.3-0.9,0.8-1.8,1.4
							c-1.1,0.7-1.7,1.4-1.9,2h4.5v0.9h-5.7c0-0.8,0.3-1.5,0.9-2.1c0.3-0.4,0.9-0.9,1.9-1.5c0.7-0.5,1.1-0.8,1.3-1.1
							c0.4-0.5,0.7-1,0.7-1.5c0-0.5-0.2-0.9-0.5-1.2s-0.8-0.4-1.3-0.4c-0.6,0-1,0.2-1.4,0.6c-0.3,0.4-0.5,1-0.5,1.7h-1
							c0-1,0.3-1.7,0.8-2.3c0.5-0.6,1.2-0.9,2.1-0.9C476.5,332.3,477.2,332.5,477.7,333z"/>
						<path class="st4" d="M485.5,333.6c0.5,0.8,0.7,1.8,0.7,3.1c0,1.3-0.2,2.3-0.7,3.1c-0.5,0.9-1.3,1.4-2.3,1.4
							c-1,0-1.8-0.5-2.3-1.4c-0.5-0.8-0.7-1.8-0.7-3.1c0-1.3,0.2-2.3,0.7-3.1c0.5-0.9,1.3-1.4,2.3-1.4
							C484.2,332.3,484.9,332.7,485.5,333.6z M481.5,334.3c-0.2,0.6-0.4,1.4-0.4,2.4c0,1,0.1,1.8,0.4,2.4c0.3,0.8,0.9,1.2,1.7,1.2
							s1.3-0.4,1.7-1.2c0.2-0.6,0.4-1.4,0.4-2.4c0-1-0.1-1.8-0.4-2.4c-0.3-0.8-0.9-1.2-1.7-1.2S481.8,333.5,481.5,334.3z"/>
						<path class="st4" d="M490.6,332.4v8.6h-1v-7.4c-0.5,0.6-1.2,0.9-2,1.2v-1c0.4-0.1,0.8-0.3,1.2-0.5c0.4-0.3,0.7-0.6,1-0.9
							H490.6z"/>
						<path class="st4" d="M498.5,332.4v0.9h-4.2l-0.3,2.9h0c0.2-0.3,0.6-0.5,0.9-0.6c0.3-0.1,0.7-0.2,1.1-0.2c0.8,0,1.5,0.3,2,0.8
							c0.5,0.5,0.8,1.2,0.8,2.2c0,0.9-0.3,1.6-0.9,2.1c-0.6,0.5-1.3,0.8-2.1,0.8c-0.8,0-1.4-0.2-1.9-0.6c-0.6-0.5-0.9-1.1-1-1.9h1
							c0,0.5,0.3,1,0.6,1.2c0.3,0.3,0.8,0.4,1.3,0.4c0.6,0,1.1-0.2,1.5-0.6c0.4-0.4,0.6-0.9,0.6-1.5c0-0.7-0.2-1.2-0.6-1.6
							c-0.3-0.4-0.8-0.6-1.5-0.6c-0.4,0-0.8,0.1-1.1,0.3c-0.3,0.2-0.6,0.4-0.8,0.8h-0.9l0.5-4.7H498.5z"/>
					</g>
					<g class="st3">
						<path class="st4" d="M515.7,333c0.5,0.5,0.8,1.1,0.8,1.8c0,0.7-0.3,1.4-0.8,2c-0.3,0.3-0.9,0.8-1.8,1.4
							c-1.1,0.7-1.7,1.4-1.9,2h4.5v0.9h-5.7c0-0.8,0.3-1.5,0.9-2.1c0.3-0.4,0.9-0.9,1.9-1.5c0.7-0.5,1.1-0.8,1.3-1.1
							c0.4-0.5,0.7-1,0.7-1.5c0-0.5-0.2-0.9-0.5-1.2s-0.8-0.4-1.3-0.4c-0.6,0-1,0.2-1.4,0.6c-0.3,0.4-0.5,1-0.5,1.7h-1
							c0-1,0.3-1.7,0.8-2.3c0.5-0.6,1.2-0.9,2.1-0.9C514.5,332.3,515.2,332.5,515.7,333z"/>
						<path class="st4" d="M523.5,333.6c0.5,0.8,0.7,1.8,0.7,3.1c0,1.3-0.2,2.3-0.7,3.1c-0.5,0.9-1.3,1.4-2.3,1.4
							c-1,0-1.8-0.5-2.3-1.4c-0.5-0.8-0.7-1.8-0.7-3.1c0-1.3,0.2-2.3,0.7-3.1c0.5-0.9,1.3-1.4,2.3-1.4
							C522.2,332.3,522.9,332.7,523.5,333.6z M519.5,334.3c-0.2,0.6-0.4,1.4-0.4,2.4c0,1,0.1,1.8,0.4,2.4c0.3,0.8,0.9,1.2,1.7,1.2
							s1.3-0.4,1.7-1.2c0.2-0.6,0.4-1.4,0.4-2.4c0-1-0.1-1.8-0.4-2.4c-0.3-0.8-0.9-1.2-1.7-1.2S519.8,333.5,519.5,334.3z"/>
						<path class="st4" d="M528.6,332.4v8.6h-1v-7.4c-0.5,0.6-1.2,0.9-2,1.2v-1c0.4-0.1,0.8-0.3,1.2-0.5c0.4-0.3,0.7-0.6,1-0.9
							H528.6z"/>
						<path class="st4" d="M536.7,334.6h-1c-0.2-1-0.8-1.5-1.8-1.5c-0.7,0-1.2,0.3-1.6,1c-0.4,0.6-0.6,1.4-0.6,2.4c0,0,0,0.2,0,0.3
							h0c0.2-0.4,0.5-0.8,0.9-1c0.4-0.3,0.8-0.4,1.3-0.4c0.8,0,1.5,0.3,2,0.8c0.5,0.5,0.7,1.2,0.7,2s-0.3,1.5-0.8,2.1
							c-0.6,0.6-1.2,0.8-2.1,0.8c-1,0-1.8-0.4-2.3-1.2c-0.5-0.7-0.7-1.8-0.7-3.1c0-1.4,0.3-2.5,0.8-3.3c0.6-0.9,1.3-1.3,2.3-1.3
							C535.6,332.3,536.5,333,536.7,334.6z M532.5,336.8c-0.4,0.4-0.6,0.9-0.6,1.5s0.2,1.1,0.5,1.5c0.4,0.4,0.8,0.6,1.4,0.6
							c0.6,0,1-0.2,1.4-0.6c0.4-0.4,0.5-0.9,0.5-1.5s-0.2-1.1-0.5-1.5c-0.4-0.4-0.8-0.6-1.4-0.6
							C533.4,336.2,532.9,336.4,532.5,336.8z"/>
					</g>
					<g class="st3">
						<path class="st4" d="M553.7,333c0.5,0.5,0.8,1.1,0.8,1.8c0,0.7-0.3,1.4-0.8,2c-0.3,0.3-0.9,0.8-1.8,1.4
							c-1.1,0.7-1.7,1.4-1.9,2h4.5v0.9h-5.7c0-0.8,0.3-1.5,0.9-2.1c0.3-0.4,0.9-0.9,1.9-1.5c0.7-0.5,1.1-0.8,1.3-1.1
							c0.4-0.5,0.7-1,0.7-1.5c0-0.5-0.2-0.9-0.5-1.2s-0.8-0.4-1.3-0.4c-0.6,0-1,0.2-1.4,0.6c-0.3,0.4-0.5,1-0.5,1.7h-1
							c0-1,0.3-1.7,0.8-2.3c0.5-0.6,1.2-0.9,2.1-0.9C552.5,332.3,553.2,332.5,553.7,333z"/>
						<path class="st4" d="M561.5,333.6c0.5,0.8,0.7,1.8,0.7,3.1c0,1.3-0.2,2.3-0.7,3.1c-0.5,0.9-1.3,1.4-2.3,1.4
							c-1,0-1.8-0.5-2.3-1.4c-0.5-0.8-0.7-1.8-0.7-3.1c0-1.3,0.2-2.3,0.7-3.1c0.5-0.9,1.3-1.4,2.3-1.4
							C560.2,332.3,560.9,332.7,561.5,333.6z M557.5,334.3c-0.2,0.6-0.4,1.4-0.4,2.4c0,1,0.1,1.8,0.4,2.4c0.3,0.8,0.9,1.2,1.7,1.2
							s1.3-0.4,1.7-1.2c0.2-0.6,0.4-1.4,0.4-2.4c0-1-0.1-1.8-0.4-2.4c-0.3-0.8-0.9-1.2-1.7-1.2S557.8,333.5,557.5,334.3z"/>
						<path class="st4" d="M566.6,332.4v8.6h-1v-7.4c-0.5,0.6-1.2,0.9-2,1.2v-1c0.4-0.1,0.8-0.3,1.2-0.5c0.4-0.3,0.7-0.6,1-0.9
							H566.6z"/>
						<path class="st4" d="M574.3,332.4v0.8l-3.2,7.8h-1l3.2-7.7h-4.6v-0.9H574.3z"/>
					</g>
					<g class="st3">
						<path class="st4" d="M7.6,80.3c0.7,0.6,1,1.3,1,2.3c0,1.3-0.6,2.1-1.9,2.6c0.7,0.2,1.2,0.5,1.5,1c0.4,0.4,0.6,1,0.6,1.7
							c0,1-0.4,1.9-1.1,2.5c-0.7,0.7-1.7,1-2.9,1c-1.1,0-2-0.3-2.7-0.8c-0.8-0.7-1.3-1.6-1.4-2.9h1.3c0,0.9,0.3,1.6,0.9,2
							c0.5,0.4,1.1,0.6,1.8,0.6c0.8,0,1.5-0.2,2-0.7c0.4-0.4,0.7-1,0.7-1.7c0-0.7-0.2-1.2-0.7-1.6c-0.4-0.4-1.1-0.6-1.9-0.6H4v-1
							h0.9c0.8,0,1.3-0.2,1.7-0.5c0.4-0.4,0.6-0.8,0.6-1.5c0-0.6-0.2-1.1-0.6-1.5c-0.4-0.4-1-0.6-1.7-0.6c-0.8,0-1.4,0.2-1.8,0.6
							c-0.4,0.4-0.7,1-0.8,1.8H1.1c0.1-1.1,0.5-2,1.2-2.6c0.7-0.6,1.6-0.9,2.6-0.9S6.9,79.7,7.6,80.3z"/>
						<path class="st4" d="M18,81.3c0.6,1,0.9,2.4,0.9,4.1c0,1.7-0.3,3.1-0.9,4.1c-0.7,1.2-1.7,1.8-3.1,1.8c-1.4,0-2.4-0.6-3.1-1.8
							c-0.6-1-0.9-2.4-0.9-4.1c0-1.7,0.3-3.1,0.9-4.1c0.7-1.2,1.7-1.8,3.1-1.8C16.2,79.5,17.3,80.1,18,81.3z M12.7,82.2
							c-0.3,0.8-0.5,1.8-0.5,3.2c0,1.3,0.2,2.4,0.5,3.2c0.4,1.1,1.2,1.6,2.2,1.6s1.8-0.6,2.2-1.6c0.3-0.8,0.5-1.8,0.5-3.2
							c0-1.3-0.2-2.4-0.5-3.2c-0.4-1.1-1.2-1.6-2.2-1.6S13.1,81.1,12.7,82.2z"/>
					</g>
					<g class="st3">
						<path class="st4" d="M7.4,5.9v7.8h1.9v1.1H7.4v2.6H6.1v-2.6H0.4v-1.2l5.8-7.6H7.4z M1.5,13.6h4.6V7.6h0L1.5,13.6z"/>
						<path class="st4" d="M18,7.5c0.6,1,0.9,2.4,0.9,4.1c0,1.7-0.3,3.1-0.9,4.1c-0.7,1.2-1.7,1.8-3.1,1.8c-1.4,0-2.4-0.6-3.1-1.8
							c-0.6-1-0.9-2.4-0.9-4.1c0-1.7,0.3-3.1,0.9-4.1c0.7-1.2,1.7-1.8,3.1-1.8C16.2,5.7,17.3,6.2,18,7.5z M12.7,8.4
							c-0.3,0.8-0.5,1.8-0.5,3.2c0,1.3,0.2,2.4,0.5,3.2c0.4,1.1,1.2,1.6,2.2,1.6s1.8-0.6,2.2-1.6c0.3-0.8,0.5-1.8,0.5-3.2
							c0-1.3-0.2-2.4-0.5-3.2c-0.4-1.1-1.2-1.6-2.2-1.6S13.1,7.3,12.7,8.4z"/>
					</g>
					<g class="st3">
						<path class="st4" d="M7.6,154.2c0.7,0.6,1,1.4,1,2.4s-0.4,1.9-1.1,2.7c-0.4,0.4-1.2,1-2.4,1.8c-1.5,1-2.3,1.9-2.5,2.6h6v1.2H1
							c0-1,0.4-2,1.1-2.8c0.4-0.5,1.3-1.2,2.5-2c0.9-0.6,1.5-1.1,1.8-1.4c0.6-0.6,0.9-1.3,0.9-2c0-0.7-0.2-1.2-0.6-1.6
							s-1-0.6-1.7-0.6c-0.8,0-1.4,0.3-1.8,0.8c-0.4,0.5-0.7,1.3-0.7,2.3H1.1c0-1.3,0.4-2.3,1.1-3.1c0.7-0.8,1.6-1.2,2.8-1.2
							C6,153.3,6.9,153.6,7.6,154.2z"/>
						<path class="st4" d="M18,155.1c0.6,1,0.9,2.4,0.9,4.1c0,1.7-0.3,3.1-0.9,4.1c-0.7,1.2-1.7,1.8-3.1,1.8c-1.4,0-2.4-0.6-3.1-1.8
							c-0.6-1-0.9-2.4-0.9-4.1c0-1.7,0.3-3.1,0.9-4.1c0.7-1.2,1.7-1.8,3.1-1.8C16.2,153.3,17.3,153.9,18,155.1z M12.7,156
							c-0.3,0.8-0.5,1.8-0.5,3.2c0,1.3,0.2,2.4,0.5,3.2c0.4,1.1,1.2,1.6,2.2,1.6s1.8-0.6,2.2-1.6c0.3-0.8,0.5-1.8,0.5-3.2
							c0-1.3-0.2-2.4-0.5-3.2c-0.4-1.1-1.2-1.6-2.2-1.6S13.1,154.9,12.7,156z"/>
					</g>
					<g class="st3">
						<path class="st4" d="M8.7,227.3v11.4H7.4v-9.8c-0.7,0.7-1.6,1.2-2.7,1.6v-1.3c0.5-0.1,1.1-0.4,1.6-0.7c0.5-0.4,1-0.7,1.4-1.2
							H8.7z"/>
						<path class="st4" d="M18.8,228.9c0.6,1,0.9,2.4,0.9,4.1c0,1.7-0.3,3.1-0.9,4.1c-0.7,1.2-1.7,1.8-3.1,1.8
							c-1.4,0-2.4-0.6-3.1-1.8c-0.6-1-0.9-2.4-0.9-4.1c0-1.7,0.3-3.1,0.9-4.1c0.7-1.2,1.7-1.8,3.1-1.8
							C17.1,227.1,18.1,227.7,18.8,228.9z M13.5,229.8c-0.3,0.8-0.5,1.8-0.5,3.2c0,1.3,0.2,2.4,0.5,3.2c0.4,1.1,1.2,1.6,2.2,1.6
							s1.8-0.6,2.2-1.6c0.3-0.8,0.5-1.8,0.5-3.2c0-1.3-0.2-2.4-0.5-3.2c-0.4-1.1-1.2-1.6-2.2-1.6S13.9,228.7,13.5,229.8z"/>
					</g>
					<g class="st3">
						<path class="st4" d="M17.9,302.7c0.6,1,0.9,2.4,0.9,4.1c0,1.7-0.3,3.1-0.9,4.1c-0.7,1.2-1.7,1.8-3.1,1.8
							c-1.4,0-2.4-0.6-3.1-1.8c-0.6-1-0.9-2.4-0.9-4.1c0-1.7,0.3-3.1,0.9-4.1c0.7-1.2,1.7-1.8,3.1-1.8
							C16.2,300.9,17.2,301.5,17.9,302.7z M12.6,303.7c-0.3,0.8-0.5,1.8-0.5,3.2c0,1.3,0.2,2.4,0.5,3.2c0.4,1.1,1.2,1.6,2.2,1.6
							s1.8-0.6,2.2-1.6c0.3-0.8,0.5-1.8,0.5-3.2c0-1.3-0.2-2.4-0.5-3.2c-0.4-1.1-1.2-1.6-2.2-1.6S13,302.6,12.6,303.7z"/>
					</g>
					<rect id="Rectangle-5_1_" x="29" y="7" class="st0" width="2" height="297"/>
					<rect id="Rectangle-5_2_" x="25" y="6.5" class="st0" width="6" height="2"/>
					<rect id="Rectangle-5-Copy" x="25" y="80.4" class="st0" width="6" height="2"/>
					<rect id="Rectangle-5-Copy-2" x="25" y="154.2" class="st0" width="6" height="2"/>
					<rect id="Rectangle-5-Copy-4" x="25" y="228" class="st0" width="6" height="2"/>
					<polyline id="Path-9" class="st5" points="33,131 36.4,87 39.7,98.4 42.6,103.8 45.8,92.7 49.1,92.7 52.7,77.7 54.9,65.5 
						60.9,87 63.9,84.3 70.5,103.8 73.3,98.3 76.7,126.6 79.8,119.3 81.3,129.6 83.1,141.1 86.6,132.2 92.7,98.3 95.9,89.5 
						98.7,142.6 105.1,153.8 108.2,164.2 111.5,152.2 114.8,208.4 117.8,197 121.7,190 124.6,179.6 127.9,188.7 130.6,186.1 
						133.8,192 136,201.1 139.1,208.4 143.8,207.2 145.9,204.4 148.9,210.4 152.5,210.4 155.9,204.4 158.1,193.4 163.8,183.7 
						168,171.9 171.6,179.6 173.5,192 177.2,204.4 181,195.6 183.7,199.4 193.6,192 199.7,177.8 203.1,159.4 205.9,159.4 209.3,146 
						212.1,199.4 216.4,201.1 218.4,207.2 220.9,207.2 224.4,199.4 230.6,226.7 233.7,229.7 237.5,243.1 239.6,254.3 243,265.8 
						246.5,269.4 250.3,256.1 253.6,247.1 256,236.7 258.9,204.4 262,192 265.7,192 269.2,179.6 272,186.1 275,179.6 278.1,183.7 
						284.5,177.8 291.1,195.6 294.6,197 302.6,214.9 311.3,205.6 321.8,201.1 332.5,212 339.5,214.9 350.1,229.7 361.1,226.7 
						369.4,217.8 378.6,226.7 387.4,214.9 397,210.4 405,217.8 415.8,223.9 424.6,216.2 435.6,213.4 444.3,217.8 453,210.4 
						465.6,210.4 473.6,207.2 491.4,208.4 500.8,216.2 509.9,210.4 521.3,210.4 530.4,207.2 539.1,199.4 548.2,202.6 557.1,208.4 
						565.7,202.6 576.4,202.6 586,199.4 					"/>
					<polyline id="Path-8" class="st6" points="33,176.9 37.2,165.6 43.6,165.6 46.4,163.5 49.7,167.4 52.9,161.2 55.1,161.2 
						58.5,153.1 61.7,163.5 65.1,163.5 70.7,174.5 74.1,174.5 77.5,171.8 80.3,176.9 90,176.9 96.2,167.4 99.5,179.7 103.2,179.7 
						108.8,185.2 113.1,181.9 116.2,181.9 118.8,179.7 122.6,183.5 125,179.7 128,183.5 131.2,176.9 134.5,176.9 136.8,188.2 
						140.3,188.2 143.1,185.2 146.5,185.2 149.3,191 156.6,191 163.4,183.5 169.3,179.7 172.4,179.7 176,186.7 178.4,188.2 
						183.9,183.5 187,179.7 190.7,179.7 193.9,185.2 197,185.2 201.1,179.7 203.4,176.9 206.1,179.7 209.4,179.7 212.9,195.7 
						216.4,199.3 219,199.3 221.7,191 224.6,188.2 227.8,199.3 234.1,191 240.3,213.9 242.7,216.8 246.8,213.9 250.1,213.9 
						253,216.8 257.1,204.8 259.2,191 262.7,184.9 266.1,188.2 269.4,176.9 275.4,171.8 281.4,178.1 284.6,171.8 288,178.1 
						291.1,193.9 294.2,191 303,209.4 322.2,199.3 333.7,209.4 340.6,209.4 350.5,223.2 358.4,216.8 369.6,209.4 378.7,212.1 
						388.2,203.5 405.5,199.3 416,199.3 435,183.5 444.9,188.2 453.7,183.5 472.8,179.7 478.7,171.8 482.3,174.5 491.6,174.5 
						501,185.2 510.4,176.9 519.1,179.7 525.8,178.1 539.3,171.8 548.3,169.5 557,174.5 567.6,174.5 586,163.5 					"/>
					<g class="st3">
						<path class="st7" d="M561.4,110.5l3.7,8.5h0l3.7-8.5h1.4v10h-1.1v-8h0l-3.5,8h-1l-3.5-8h0v8H560v-10H561.4z"/>
						<path class="st7" d="M578.8,111.1c0.7,0.5,1.1,1.3,1.1,2.4h-1.1c-0.1-0.7-0.4-1.3-0.8-1.6c-0.4-0.4-1.1-0.5-1.9-0.5
							c-0.7,0-1.3,0.1-1.7,0.4c-0.5,0.3-0.7,0.7-0.7,1.3c0,0.5,0.3,0.9,0.9,1.2c0.3,0.1,0.9,0.3,1.8,0.6c1.3,0.4,2.2,0.7,2.6,1
							c0.8,0.5,1.2,1.2,1.2,2.1c0,0.9-0.4,1.6-1.1,2.1c-0.7,0.5-1.6,0.7-2.8,0.7c-1.2,0-2.1-0.3-2.8-0.8c-0.8-0.6-1.2-1.5-1.3-2.7
							h1.1c0.1,0.9,0.4,1.5,0.9,1.9c0.5,0.4,1.1,0.6,2,0.6c0.8,0,1.5-0.2,2-0.5c0.5-0.3,0.8-0.7,0.8-1.3c0-0.6-0.3-1.1-1-1.5
							c-0.3-0.2-1-0.4-2.1-0.7c-1.2-0.4-2-0.6-2.3-0.8c-0.8-0.4-1.1-1.1-1.1-1.9c0-0.9,0.4-1.6,1.1-2c0.7-0.4,1.5-0.7,2.5-0.7
							C577.3,110.3,578.2,110.6,578.8,111.1z"/>
						<path class="st7" d="M589.2,111.2c0.8,0.6,1.2,1.4,1.3,2.4h-1.1c-0.1-0.7-0.5-1.3-1.1-1.7c-0.5-0.4-1.2-0.6-2-0.6
							c-1.2,0-2.1,0.4-2.7,1.2c-0.6,0.8-0.9,1.8-0.9,3c0,1.2,0.3,2.2,0.9,3c0.6,0.8,1.5,1.2,2.7,1.2c0.8,0,1.5-0.2,2-0.6
							c0.6-0.4,1-1.1,1.2-2h1.1c-0.2,1.2-0.7,2.1-1.6,2.7c-0.8,0.6-1.7,0.9-2.8,0.9c-1.6,0-2.7-0.5-3.6-1.5
							c-0.8-0.9-1.1-2.1-1.1-3.6c0-1.5,0.4-2.7,1.1-3.7c0.8-1.1,2-1.6,3.6-1.6C587.5,110.3,588.4,110.6,589.2,111.2z"/>
						<path class="st7" d="M593.9,110.5v10h-1.1v-10H593.9z"/>
						<path class="st7" d="M597.9,112.4v-3.2h1v3.2h2.9v-3.3h1v3.3h2.8v-3.3h1v3.3h2.1v1h-2.1v4.4h-4.8v-4.4h-2.9v7h9.3v1h-10.4v-8
							h-1.8v-1H597.9z M602.7,116.8h2.8v-3.4h-2.8V116.8z"/>
						<path class="st7" d="M621.7,109.6v5.6H619c0.9,1.1,2.4,1.9,4.3,2.6l-0.4,0.9c-1.4-0.5-2.5-1.1-3.3-1.8v5.1h-1v-5.3h0.8
							c-0.6-0.5-1.1-1-1.4-1.5h-2.3c-1,1.3-2.6,2.5-4.8,3.3l-0.5-0.9c1.9-0.6,3.4-1.5,4.3-2.5H612v-5.6H621.7z M615.3,116.7
							c0,1.1-0.2,2-0.5,2.8c-0.4,1-1.4,1.8-2.9,2.5l-0.7-0.8c1.3-0.5,2.1-1.2,2.5-1.9c0.3-0.7,0.5-1.5,0.5-2.5H615.3z M616.3,111.9
							v-1.4H613v1.4H616.3z M616.3,112.8H613v1.5h3.3V112.8z M617.3,111.9h3.4v-1.4h-3.4V111.9z M620.7,112.8h-3.4v1.5h3.4V112.8z"
							/>
						<path class="st7" d="M625.3,121.8l-0.2-1c0.5,0,0.9,0.1,1.3,0.1c0.4,0,0.6-0.2,0.6-0.6v-3.4c-0.6,0.2-1.2,0.4-1.9,0.6l-0.2-1
							c0.7-0.2,1.4-0.4,2.1-0.6v-3.2h-1.9v-1h1.9v-2.6h1v2.6h1.6v1h-1.6v2.9c0.6-0.2,1.1-0.5,1.7-0.8v1c-0.6,0.3-1.1,0.5-1.7,0.7v4
							c0,0.8-0.4,1.2-1.2,1.2H625.3z M637,111.1l-5.7,0.3v1.2c0,0.4,0.2,0.5,0.6,0.5h5.3v0.9h-5.8c-0.7,0-1.1-0.4-1.1-1.1v-3.8h1
							v1.3l5.7-0.2V111.1z M636.9,121.9h-1v-0.7h-4.4v0.7h-1v-6.6h6.4V121.9z M635.9,117.8v-1.6h-4.4v1.6H635.9z M635.9,120.3v-1.6
							h-4.4v1.6H635.9z"/>
						<path class="st7" d="M642.3,109.8V109h0.9v0.8h2.2v1.6h0.6v0.8h-0.6v1.6h-2.2v0.7h2.4v2.3H643c-0.2,0.3-0.3,0.5-0.4,0.8h3.1
							v0.6c-0.4,0.7-1,1.3-1.8,1.8c0.7,0.3,1.4,0.6,2.1,1l-0.5,0.7c-0.8-0.4-1.6-0.9-2.4-1.2c-0.9,0.5-2,1-3.2,1.3l-0.6-0.7
							c1.1-0.3,2-0.6,2.8-1c-0.6-0.2-1.2-0.4-1.8-0.6c0.3-0.4,0.5-0.8,0.8-1.2h-1.8v-0.8h2.3c0.1-0.3,0.3-0.5,0.4-0.8h-2.2v-2.3h2.4
							v-0.7H640v-1.6h-0.6v-0.8h0.6v-1.6H642.3z M642.3,115.2h-1.6v0.9h1.6V115.2z M642.3,111.5v-0.9h-1.4v0.9H642.3z M642.3,112.1
							h-1.4v0.9h1.4V112.1z M644.6,118.4h-2.5c-0.2,0.3-0.4,0.6-0.5,0.9c0.5,0.1,0.9,0.3,1.4,0.5
							C643.7,119.3,644.2,118.8,644.6,118.4z M644.6,111.5v-0.9h-1.4v0.9H644.6z M644.6,112.1h-1.4v0.9h1.4V112.1z M644.8,115.2
							h-1.6v0.9h1.6V115.2z M647.1,114.5c-0.2,0.5-0.4,0.9-0.7,1.3l-0.6-0.8c0.8-1.5,1.4-3.5,1.7-6.1l1,0.2
							c-0.1,0.7-0.2,1.4-0.3,2.1h3.7v1h-1c-0.1,2.5-0.5,4.7-1.4,6.4c0.7,1,1.5,1.9,2.6,2.6l-0.6,0.8c-1-0.7-1.9-1.5-2.5-2.5
							c-0.6,1-1.4,1.8-2.3,2.5l-0.5-0.9c1-0.7,1.7-1.5,2.3-2.5C647.7,117.4,647.3,116,647.1,114.5z M647.2,114.5l0.8-0.3
							c0.1,1.2,0.4,2.3,0.9,3.3c0.7-1.5,1-3.3,1.1-5.4h-2C647.7,113,647.5,113.8,647.2,114.5z"/>
					</g>
					<g class="st3">
						<path class="st7" d="M606.1,152.7v10H605v-8.6c-0.6,0.6-1.4,1.1-2.4,1.4v-1.1c0.4-0.1,0.9-0.3,1.4-0.6c0.5-0.3,0.9-0.6,1.2-1
							H606.1z"/>
						<path class="st7" d="M614.7,153.3c0.5,0.5,0.8,1.1,0.8,1.8c0,0.5-0.1,1-0.4,1.3c-0.3,0.4-0.7,0.7-1.2,0.9v0
							c0.5,0.1,1,0.4,1.3,0.9c0.4,0.5,0.6,1,0.6,1.7c0,0.9-0.3,1.6-0.9,2.1c-0.6,0.5-1.5,0.8-2.7,0.8c-1.2,0-2.1-0.3-2.7-0.8
							c-0.6-0.5-0.9-1.2-0.9-2.1c0-0.6,0.2-1.2,0.6-1.7c0.4-0.4,0.8-0.7,1.3-0.9v0c-0.5-0.2-0.9-0.5-1.2-0.9
							c-0.3-0.4-0.4-0.8-0.4-1.3c0-0.7,0.3-1.3,0.8-1.8c0.6-0.5,1.4-0.8,2.5-0.8C613.3,152.5,614.1,152.7,614.7,153.3z M610.4,158.5
							c-0.4,0.4-0.6,0.9-0.6,1.5c0,0.6,0.2,1.1,0.6,1.4c0.4,0.4,1.1,0.6,1.9,0.6s1.4-0.2,1.9-0.6c0.4-0.4,0.6-0.8,0.6-1.4
							c0-0.6-0.2-1.1-0.6-1.5c-0.4-0.4-1.1-0.6-1.9-0.6C611.4,157.9,610.8,158.1,610.4,158.5z M610.6,154c-0.3,0.3-0.5,0.7-0.5,1.2
							c0,0.5,0.2,0.9,0.5,1.2c0.4,0.4,0.9,0.6,1.7,0.6c0.8,0,1.3-0.2,1.7-0.6c0.3-0.3,0.5-0.7,0.5-1.2c0-0.5-0.2-0.9-0.5-1.2
							c-0.4-0.4-1-0.5-1.7-0.5C611.5,153.4,611,153.6,610.6,154z"/>
						<path class="st7" d="M619.3,161.3c0.2,0.2,0.3,0.4,0.3,0.6c0,0.2-0.1,0.4-0.3,0.6s-0.4,0.3-0.6,0.3c-0.3,0-0.4-0.1-0.6-0.3
							c-0.2-0.2-0.3-0.4-0.3-0.6c0-0.3,0.1-0.4,0.3-0.6c0.2-0.2,0.4-0.3,0.6-0.3C618.9,161,619.1,161.1,619.3,161.3z"/>
						<path class="st7" d="M628.5,155.2h-1.1c-0.2-1.1-0.9-1.7-2.1-1.7c-0.8,0-1.4,0.4-1.8,1.2c-0.4,0.7-0.7,1.7-0.7,2.8
							c0,0.1,0,0.2,0,0.4h0.1c0.3-0.5,0.6-0.9,1.1-1.2c0.4-0.3,1-0.4,1.6-0.4c1,0,1.7,0.3,2.3,0.9c0.6,0.6,0.9,1.4,0.9,2.4
							s-0.3,1.8-1,2.5c-0.6,0.6-1.4,1-2.4,1c-1.2,0-2.1-0.5-2.7-1.4c-0.6-0.9-0.9-2-0.9-3.6c0-1.6,0.3-2.9,0.9-3.9
							c0.7-1.1,1.6-1.6,2.7-1.6C627.2,152.5,628.2,153.4,628.5,155.2z M623.6,157.8c-0.4,0.4-0.6,1-0.6,1.7s0.2,1.3,0.6,1.7
							c0.4,0.5,1,0.7,1.7,0.7c0.7,0,1.2-0.2,1.6-0.7c0.4-0.5,0.6-1.1,0.6-1.8c0-0.7-0.2-1.3-0.6-1.7c-0.4-0.4-1-0.7-1.7-0.7
							C624.6,157.1,624.1,157.3,623.6,157.8z"/>
						<path class="st7" d="M636.7,154.1c0.5,0.9,0.8,2.1,0.8,3.6s-0.3,2.7-0.8,3.6c-0.6,1.1-1.5,1.6-2.7,1.6c-1.2,0-2.1-0.5-2.7-1.6
							c-0.5-0.9-0.8-2.1-0.8-3.6s0.3-2.7,0.8-3.6c0.6-1.1,1.5-1.6,2.7-1.6C635.2,152.5,636.1,153,636.7,154.1z M632.1,154.9
							c-0.3,0.7-0.4,1.6-0.4,2.8c0,1.2,0.1,2.1,0.4,2.8c0.4,1,1,1.4,1.9,1.4s1.5-0.5,1.9-1.4c0.3-0.7,0.4-1.6,0.4-2.8
							c0-1.2-0.2-2.1-0.4-2.8c-0.4-1-1-1.4-1.9-1.4S632.5,153.9,632.1,154.9z"/>
						<path class="st7" d="M639.4,158.1l-0.3-1.1c1.4-1.7,2.4-3.7,3-5.9l0.9,0.4c-0.3,1.1-0.8,2.2-1.3,3.1v9.4h-1v-7.7
							C640.3,157,639.9,157.5,639.4,158.1z M646.8,152.6c-0.2-0.5-0.3-0.9-0.5-1.3l1-0.2c0.2,0.4,0.3,0.9,0.5,1.5h3.7v1h-1.1
							c-0.3,1.1-0.7,2-1.1,2.8h2.5v1h-9.1v-1h2.5c-0.3-1-0.7-2-1.1-2.8h-0.9v-1H646.8z M650.6,164.1h-1v-0.7H645v0.7h-1v-5.3h6.7
							V164.1z M649.6,162.3v-2.6H645v2.6H649.6z M649.4,153.6h-4.1c0.4,0.8,0.7,1.8,1,2.8h2C648.8,155.5,649.1,154.6,649.4,153.6z"
							/>
					</g>
					<g class="st3">
						<path class="st8" d="M533.4,235.3l3.7,8.5h0l3.7-8.5h1.4v10h-1.1v-8h0l-3.5,8h-1l-3.5-8h0v8H532v-10H533.4z"/>
						<path class="st8" d="M550.8,235.8c0.7,0.5,1.1,1.3,1.1,2.4h-1.1c-0.1-0.7-0.4-1.3-0.8-1.6c-0.4-0.4-1.1-0.5-1.9-0.5
							c-0.7,0-1.3,0.1-1.7,0.4c-0.5,0.3-0.7,0.7-0.7,1.3c0,0.5,0.3,0.9,0.9,1.2c0.3,0.1,0.9,0.3,1.8,0.6c1.3,0.4,2.2,0.7,2.6,1
							c0.8,0.5,1.2,1.2,1.2,2.1c0,0.9-0.4,1.6-1.1,2.1c-0.7,0.5-1.6,0.7-2.8,0.7c-1.2,0-2.1-0.3-2.8-0.8c-0.8-0.6-1.2-1.5-1.3-2.7
							h1.1c0.1,0.9,0.4,1.5,0.9,1.9c0.5,0.4,1.1,0.6,2,0.6c0.8,0,1.5-0.2,2-0.5c0.5-0.3,0.8-0.7,0.8-1.3c0-0.6-0.3-1.1-1-1.5
							c-0.3-0.2-1-0.4-2.1-0.7c-1.2-0.4-2-0.6-2.3-0.8c-0.8-0.4-1.1-1.1-1.1-1.9c0-0.9,0.4-1.6,1.1-2c0.7-0.4,1.5-0.7,2.5-0.7
							C549.3,235.1,550.2,235.3,550.8,235.8z"/>
						<path class="st8" d="M561.2,236c0.8,0.6,1.2,1.4,1.3,2.4h-1.1c-0.1-0.7-0.5-1.3-1.1-1.7c-0.5-0.4-1.2-0.6-2-0.6
							c-1.2,0-2.1,0.4-2.7,1.2c-0.6,0.8-0.9,1.8-0.9,3c0,1.2,0.3,2.2,0.9,3c0.6,0.8,1.5,1.2,2.7,1.2c0.8,0,1.5-0.2,2-0.6
							c0.6-0.4,1-1.1,1.2-2h1.1c-0.2,1.2-0.7,2.1-1.6,2.7c-0.8,0.6-1.7,0.9-2.8,0.9c-1.6,0-2.7-0.5-3.6-1.5
							c-0.8-0.9-1.1-2.1-1.1-3.6c0-1.5,0.4-2.7,1.1-3.7c0.8-1.1,2-1.6,3.6-1.6C559.5,235.1,560.4,235.4,561.2,236z"/>
						<path class="st8" d="M565.9,235.3v10h-1.1v-10H565.9z"/>
						<path class="st8" d="M570.2,242.6c-0.3,1.4-0.8,2.6-1.5,3.7l-0.8-0.5c0.6-1,1.1-2.1,1.4-3.4L570.2,242.6z M568.1,239.1v-0.9
							h1.6c-0.2-0.6-0.4-1.1-0.7-1.6l0.9-0.3c0.3,0.5,0.5,1.2,0.7,1.9h1.5c0.2-0.6,0.4-1.2,0.6-1.9l0.9,0.3
							c-0.2,0.6-0.4,1.1-0.6,1.6h1.6v0.9h-2.7v1.6h2.5v0.9h-2.5v5.1h-1v-5.1h-2.6v-0.9h2.6v-1.6H568.1z M570.9,235
							c-0.2-0.4-0.4-0.8-0.6-1.2l1-0.2c0.2,0.4,0.4,0.8,0.5,1.3h2.6v0.9h-6.3V235H570.9z M574.2,244.8l-0.9,0.3
							c-0.2-0.9-0.5-1.7-0.9-2.5l0.9-0.2C573.7,243.2,574,244,574.2,244.8z M580.5,234.9c-1.2,0.4-2.6,0.7-4.1,0.8v2.6h4.5v1h-1.5
							v7.5h-1v-7.5h-2v1.6c-0.1,2.4-0.6,4.4-1.6,5.8l-0.7-0.7c0.8-1.2,1.3-2.9,1.4-5.1v-5.9c1.7,0,3.2-0.3,4.6-0.9L580.5,234.9z"/>
						<path class="st8" d="M591.4,242.5h1.6l0.1-1.9h-1.2v-0.9h1.3l0.1-1.7h-1.4v-0.9h1.4l0.1-1.9h-1.5v-1h2.5l-0.3,8.2h1.1v1h-12.5
							v-1h1.1l-0.3-7.9c0.8-0.2,1.6-0.4,2.3-0.8l0.4,0.8c-0.4,0.2-0.9,0.4-1.7,0.6l0.1,1.8h1.4v0.9h-1.3l0.1,1.7h1.3v0.9h-1.2
							l0.1,1.9h1.6v-8.1h5.2V242.5z M587.4,244.4c-1.1,0.9-2.4,1.6-4,2.3l-0.6-0.8c1.6-0.6,2.9-1.3,4-2L587.4,244.4z M590.6,242.5
							v-7.3h-3.5v7.3H590.6z M590,236.2v0.7h-2.3v-0.7H590z M589.9,237.9v3.8h-2.2v-3.8H589.9z M589.3,238.6h-0.9v2.4h0.9V238.6z
							 M595,245.8l-0.6,0.9c-1.4-1-2.8-1.7-4.2-2.3l0.5-0.8C592.3,244.3,593.7,245,595,245.8z"/>
						<path class="st8" d="M602.7,235.4c-0.2-0.6-0.5-1.1-0.7-1.6l1.1-0.2c0.2,0.5,0.4,1.1,0.7,1.8h5.7v1h-5.7v1.8h4.6v5.1
							c0,0.8-0.4,1.3-1.3,1.3h-1.4l-0.3-1l1.3,0.1c0.4,0,0.6-0.2,0.6-0.6v-3.9h-3.5v7.4h-1v-7.4h-3.4v5.5h-1v-6.5h4.4v-1.8H597v-1
							H602.7z"/>
						<path class="st8" d="M612.9,237.6v-3.7h1v3.7h1.5v1h-1.5v4.7c0.5-0.2,1-0.4,1.5-0.6v1c-1.2,0.5-2.5,1-3.9,1.4l-0.3-1
							c0.6-0.1,1.2-0.3,1.7-0.4v-5h-1.6v-1H612.9z M624,239.3v0.9h-5.4c-0.2,0.3-0.3,0.6-0.6,0.9h5.4c0,1.3-0.1,2.4-0.2,3.3
							c-0.1,0.8-0.3,1.4-0.5,1.7c-0.3,0.3-0.7,0.5-1.2,0.5h-1l-0.3-0.9c0.3,0,0.6,0,0.8,0c0.6,0,1-0.2,1.1-0.7
							c0.2-0.5,0.3-1.5,0.4-3.1h-0.8c-1,2.4-2.5,3.9-4.7,4.7l-0.5-0.8c2-0.7,3.5-1.9,4.3-3.9h-1.2c-0.7,1.3-1.9,2.2-3.6,3l-0.6-0.7
							c1.5-0.6,2.5-1.3,3.2-2.3h-1.4c-0.4,0.4-0.8,0.7-1.3,1l-0.6-0.8c1-0.5,1.8-1.2,2.2-1.9h-2v-0.9H624z M623,234.3v4.2h-6.4v-4.2
							H623z M622.1,236.1v-0.9h-4.6v0.9H622.1z M622.1,236.8h-4.6v0.9h4.6V236.8z"/>
						<path class="st8" d="M626.1,246.5l-0.2-1c0.5,0,0.9,0.1,1.3,0.1c0.4,0,0.6-0.2,0.6-0.6v-3.4c-0.6,0.2-1.2,0.4-1.9,0.6l-0.2-1
							c0.7-0.2,1.4-0.4,2.1-0.6v-3.2h-1.9v-1h1.9v-2.6h1v2.6h1.6v1h-1.6v2.9c0.6-0.2,1.1-0.5,1.7-0.8v1c-0.6,0.3-1.1,0.5-1.7,0.7v4
							c0,0.8-0.4,1.2-1.2,1.2H626.1z M637.8,235.9l-5.7,0.3v1.2c0,0.4,0.2,0.5,0.6,0.5h5.3v0.9h-5.8c-0.7,0-1.1-0.4-1.1-1.1v-3.8h1
							v1.3l5.7-0.2V235.9z M637.7,246.7h-1V246h-4.4v0.7h-1v-6.6h6.4V246.7z M636.7,242.6V241h-4.4v1.6H636.7z M636.7,245.1v-1.6
							h-4.4v1.6H636.7z"/>
						<path class="st8" d="M643.1,234.6v-0.8h0.9v0.8h2.2v1.6h0.6v0.8h-0.6v1.6H644v0.7h2.4v2.3h-2.6c-0.2,0.3-0.3,0.5-0.4,0.8h3.1
							v0.6c-0.4,0.7-1,1.3-1.8,1.8c0.7,0.3,1.4,0.6,2.1,1l-0.5,0.7c-0.8-0.4-1.6-0.9-2.4-1.2c-0.9,0.5-2,1-3.2,1.3l-0.6-0.7
							c1.1-0.3,2-0.6,2.8-1c-0.6-0.2-1.2-0.4-1.8-0.6c0.3-0.4,0.5-0.8,0.8-1.2h-1.8v-0.8h2.3c0.1-0.3,0.3-0.5,0.4-0.8h-2.2v-2.3h2.4
							v-0.7h-2.2V237h-0.6v-0.8h0.6v-1.6H643.1z M643.1,240h-1.6v0.9h1.6V240z M643.1,236.2v-0.9h-1.4v0.9H643.1z M643.1,236.9h-1.4
							v0.9h1.4V236.9z M645.4,243.1H643c-0.2,0.3-0.4,0.6-0.5,0.9c0.5,0.1,0.9,0.3,1.4,0.5C644.5,244.1,645,243.6,645.4,243.1z
							 M645.4,236.2v-0.9H644v0.9H645.4z M645.4,236.9H644v0.9h1.4V236.9z M645.6,240H644v0.9h1.6V240z M648,239.3
							c-0.2,0.5-0.4,0.9-0.7,1.3l-0.6-0.8c0.8-1.5,1.4-3.5,1.7-6.1l1,0.2c-0.1,0.7-0.2,1.4-0.3,2.1h3.7v1h-1
							c-0.1,2.5-0.5,4.7-1.4,6.4c0.7,1,1.5,1.9,2.6,2.6l-0.6,0.8c-1-0.7-1.9-1.5-2.5-2.5c-0.6,1-1.4,1.8-2.3,2.5l-0.5-0.9
							c1-0.7,1.7-1.5,2.3-2.5C648.6,242.2,648.2,240.8,648,239.3z M648,239.2l0.8-0.3c0.1,1.2,0.4,2.3,0.9,3.3
							c0.7-1.5,1-3.3,1.1-5.4h-2C648.5,237.8,648.3,238.6,648,239.2z"/>
					</g>
					<g class="st3">
						<path class="st8" d="M609.1,193.1v10H608v-8.6c-0.6,0.6-1.4,1.1-2.4,1.4v-1.1c0.4-0.1,0.9-0.3,1.4-0.6c0.5-0.3,0.9-0.6,1.2-1
							H609.1z"/>
						<path class="st8" d="M617.5,193.1v6.8h1.6v0.9h-1.6v2.3h-1.1v-2.3h-5v-1.1l5-6.6H617.5z M612.3,199.9h4.1v-5.3h0L612.3,199.9z
							"/>
						<path class="st8" d="M622.3,201.7c0.2,0.2,0.3,0.4,0.3,0.6c0,0.2-0.1,0.4-0.3,0.6s-0.4,0.3-0.6,0.3c-0.3,0-0.4-0.1-0.6-0.3
							c-0.2-0.2-0.3-0.4-0.3-0.6c0-0.3,0.1-0.4,0.3-0.6c0.2-0.2,0.4-0.3,0.6-0.3C621.9,201.4,622.1,201.5,622.3,201.7z"/>
						<path class="st8" d="M628.1,193.1v10h-1.1v-8.6c-0.6,0.6-1.4,1.1-2.4,1.4v-1.1c0.4-0.1,0.9-0.3,1.4-0.6c0.5-0.3,0.9-0.6,1.2-1
							H628.1z"/>
						<path class="st8" d="M637.3,193.1v1h-4.9l-0.3,3.3h0.1c0.3-0.3,0.6-0.6,1.1-0.8c0.4-0.2,0.8-0.2,1.3-0.2c1,0,1.7,0.3,2.3,0.9
							c0.6,0.6,0.9,1.5,0.9,2.5c0,1-0.4,1.8-1.1,2.5c-0.7,0.6-1.5,0.9-2.5,0.9c-0.9,0-1.6-0.2-2.3-0.7c-0.7-0.5-1.1-1.3-1.1-2.2h1.1
							c0.1,0.6,0.3,1.1,0.8,1.5c0.4,0.3,0.9,0.4,1.5,0.4c0.7,0,1.3-0.2,1.7-0.7c0.4-0.4,0.7-1,0.7-1.7c0-0.8-0.2-1.4-0.6-1.8
							c-0.4-0.4-1-0.7-1.7-0.7c-0.5,0-0.9,0.1-1.3,0.3c-0.4,0.2-0.7,0.5-0.9,0.9h-1.1l0.5-5.5H637.3z"/>
						<path class="st8" d="M639.6,198.5l-0.3-1.1c1.4-1.7,2.4-3.7,3-5.9l0.9,0.4c-0.3,1.1-0.8,2.2-1.3,3.1v9.4h-1v-7.7
							C640.5,197.4,640.1,198,639.6,198.5z M647.1,193c-0.2-0.5-0.3-0.9-0.5-1.3l1-0.2c0.2,0.4,0.3,0.9,0.5,1.5h3.7v1h-1
							c-0.3,1.1-0.7,2-1.1,2.8h2.5v1H643v-1h2.5c-0.3-1-0.7-2-1.1-2.8h-0.9v-1H647.1z M650.8,204.5h-1v-0.7h-4.6v0.7h-1v-5.3h6.7
							V204.5z M649.8,202.7v-2.6h-4.6v2.6H649.8z M649.6,194h-4.1c0.3,0.8,0.7,1.8,1,2.8h2C649,196,649.3,195,649.6,194z"/>
					</g>
				</g>
			</g>
		</g>
		<g class="st3">
			<path class="st4" d="M4.8,107.4c0.9-0.9,1.6-2,2.3-3.1H1.6v-1.4h7.1v1.2c-0.9,1.7-2,3.1-3.1,4.3c0.4,0.4,0.7,0.9,1,1.3h2.8v1
				c-0.4,1.7-0.7,3.1-1.2,4l-1.3-0.5c0.4-0.9,0.7-1.9,1-3.1H5.7v9.2c0,1.1-0.6,1.7-1.7,1.7H1.9l-0.3-1.4c0.7,0.1,1.3,0.1,1.9,0.1
				c0.4,0,0.7-0.3,0.7-0.8v-8.8H0.9v-1.5H5c-0.9-1-1.9-2.1-3.1-3.3l1.2-0.7C3.7,106.3,4.2,106.9,4.8,107.4z M14.5,119
				c-1.2,1.2-2.6,2.2-4.3,3.1l-0.9-1.1c1.6-0.8,3-1.8,4.2-2.9L14.5,119z M14,106.2c0.2-0.6,0.4-1.2,0.5-1.8H10v-1.4h10.8v1.4h-4.7
				c-0.1,0.6-0.3,1.2-0.6,1.8H20v11.7h-9.2v-11.7H14z M18.5,109.6v-2.1h-6.2v2.1H18.5z M18.5,113v-2.2h-6.2v2.2H18.5z M18.5,114.3
				h-6.2v2.3h6.2V114.3z M21.2,121l-1,1c-0.9-0.9-2.2-2-3.7-3l0.9-0.9C18.9,119.1,20.1,120.1,21.2,121z"/>
			<path class="st4" d="M29.9,102.6c-0.6,1.8-1.3,3.4-2.2,5v14.6h-1.6v-12.2c-0.7,0.9-1.4,1.8-2.2,2.7l-0.5-1.7c2.3-2.7,4-5.7,5-9.2
				L29.9,102.6z M35.8,106.4V102h1.6v4.4h6.3v1.5h-6.3v4.6h4.8v9.7h-1.6v-1h-8v1h-1.6v-9.7h4.7v-4.6h-6v-1.5H35.8z M40.7,119.7V114
				h-8v5.7H40.7z"/>
			<path class="st4" d="M55.5,106.1v-4h1.6v4h8.6v1.5h-7.2c1.5,3.5,4.1,6.6,7.9,9.4l-1.1,1.4c-3.9-3.2-6.6-6.8-8.1-10.7h-0.2v8.6
				h4.7v1.5h-4.7v4.5h-1.6v-4.5h-4.5v-1.5h4.5v-8.6h-0.2c-1.6,4.5-4.4,8.1-8.3,11l-0.9-1.5c3.7-2.5,6.3-5.7,8-9.5h-7.2v-1.5H55.5z"
				/>
			<path class="st4" d="M76.8,109.3c-1.9,1.8-4.3,3.3-7.2,4.5l-0.7-1.5c2.8-1.1,5-2.4,6.8-4.2L76.8,109.3z M85.9,120h2.7v1.5H69.2
				V120h2.9v-7.1h13.9V120z M75.2,105.9c-0.7-1-1.6-2-2.7-3.1l1.3-0.8c1.2,1.2,2.1,2.3,2.8,3.2l-1,0.7h5.6c0.9-1.2,1.7-2.5,2.3-3.9
				l1.5,0.5c-0.6,1.3-1.3,2.4-2.1,3.4h5.3v1.5H69.7v-1.5H75.2z M76.2,120v-5.6h-2.6v5.6H76.2z M80.3,120v-5.6h-2.7v5.6H80.3z
				 M88.8,112.4l-0.9,1.4c-2.2-1.8-4.5-3.3-6.8-4.3l0.8-1.2C84.5,109.4,86.8,110.8,88.8,112.4z M84.4,120v-5.6h-2.6v5.6H84.4z"/>
			<path class="st4" d="M94.9,119.9c1.9-0.4,3.9-1,5.8-1.6l0.4,1.5c-2.4,0.8-5,1.5-7.8,2.1l-0.5-1.5c0.4-0.2,0.5-0.5,0.5-0.9v-17
				h1.6v6.1h5.7v1.5h-5.7V119.9z M104.3,121.6c-1.4,0-2.1-0.7-2.1-2.2v-17.1h1.6v6.4l6.8-0.4v1.5l-6.8,0.4v8.8c0,0.6,0.3,1,1,1h3.3
				c0.4,0,0.8-0.1,1-0.4c0.4-0.4,0.6-1.7,0.7-3.9l1.5,0.5c-0.2,2.6-0.5,4.1-1,4.6c-0.4,0.4-1.1,0.7-1.8,0.7H104.3z"/>
		</g>
		<g class="st3">
			<path class="st4" d="M120.3,98.4c0.4,0.5,0.6,1.1,0.6,2v4.7h-1.1v-1.2c-0.3,0.4-0.7,0.7-1.1,1c-0.5,0.3-1.1,0.4-1.8,0.4
				c-0.7,0-1.3-0.2-1.7-0.5c-0.4-0.4-0.7-0.9-0.7-1.5c0-0.8,0.3-1.4,1-1.9c0.6-0.4,1.4-0.6,2.5-0.6l1.7,0v-0.4
				c0-1.2-0.6-1.8-1.9-1.8c-0.5,0-1,0.1-1.3,0.3c-0.4,0.2-0.6,0.6-0.7,1l-1.1-0.1c0.2-0.8,0.5-1.3,1.1-1.7c0.5-0.3,1.2-0.5,2.1-0.5
				C119.1,97.6,119.8,97.8,120.3,98.4z M118.2,101.6c-1.6,0-2.4,0.6-2.4,1.6c0,0.3,0.1,0.6,0.4,0.8c0.3,0.2,0.6,0.3,1.1,0.3
				c0.7,0,1.3-0.2,1.8-0.7c0.5-0.4,0.8-0.9,0.8-1.5v-0.6L118.2,101.6z"/>
		</g>
		<g class="st3">
			<path class="st4" d="M13.2,11.2c1.2,1.1,1.8,2.5,1.8,4.2c0,1.7-0.7,3.3-2,4.7c-0.7,0.7-2.1,1.8-4.1,3.2c-2.5,1.7-4,3.2-4.4,4.6
				h10.5v2H1.7c0-1.8,0.6-3.5,2-5c0.8-0.9,2.2-2.1,4.3-3.6c1.6-1.1,2.6-1.9,3.1-2.5c1-1.1,1.5-2.3,1.5-3.6c0-1.2-0.4-2.2-1.1-2.8
				s-1.8-1-3.1-1c-1.4,0-2.4,0.4-3.2,1.4c-0.8,0.9-1.2,2.2-1.2,4H1.9c0-2.2,0.6-4,1.9-5.3c1.2-1.3,2.9-2,4.9-2
				C10.5,9.6,12,10.1,13.2,11.2z"/>
			<path class="st4" d="M31.4,12.8C32.5,14.6,33,17,33,20c0,3-0.5,5.4-1.6,7.2c-1.2,2.1-3,3.2-5.4,3.2c-2.4,0-4.2-1.1-5.4-3.2
				C19.5,25.4,19,23,19,20c0-3,0.5-5.4,1.6-7.2c1.2-2.1,3-3.2,5.4-3.2C28.4,9.6,30.2,10.7,31.4,12.8z M22.1,14.5
				c-0.6,1.3-0.8,3.2-0.8,5.5c0,2.3,0.3,4.2,0.8,5.5c0.8,1.9,2.1,2.9,3.9,2.9s3.1-1,3.9-2.9c0.6-1.4,0.9-3.2,0.9-5.5
				c0-2.4-0.3-4.2-0.9-5.5c-0.8-1.9-2.1-2.9-3.9-2.9S22.9,12.5,22.1,14.5z"/>
			<path class="st4" d="M43.5,10v20h-2.3V12.8c-1.3,1.3-2.8,2.2-4.7,2.7v-2.3c0.9-0.3,1.8-0.6,2.8-1.2c1-0.6,1.7-1.3,2.4-2H43.5z"/>
			<path class="st4" d="M60.6,11.2c1.1,1,1.6,2.2,1.6,3.7c0,1.1-0.3,2-0.8,2.7c-0.6,0.8-1.3,1.4-2.4,1.7v0.1c1,0.3,1.9,0.8,2.7,1.7
				c0.8,1,1.2,2.1,1.2,3.4c0,1.8-0.6,3.2-1.8,4.3c-1.3,1.1-3.1,1.7-5.4,1.7c-2.3,0-4.1-0.6-5.4-1.7c-1.2-1.1-1.8-2.5-1.8-4.3
				c0-1.3,0.4-2.4,1.2-3.4c0.7-0.9,1.6-1.5,2.7-1.7v-0.1c-1.1-0.4-1.8-1-2.4-1.7c-0.5-0.7-0.8-1.6-0.8-2.7c0-1.5,0.5-2.7,1.6-3.7
				c1.2-1.1,2.8-1.6,4.9-1.6C57.7,9.6,59.4,10.1,60.6,11.2z M51.9,21.6c-0.8,0.7-1.2,1.7-1.2,2.9c0,1.2,0.4,2.2,1.2,2.9
				c0.8,0.8,2.1,1.1,3.7,1.1s2.9-0.4,3.8-1.2c0.8-0.7,1.2-1.7,1.2-2.9c0-1.2-0.4-2.2-1.2-2.9c-0.9-0.8-2.2-1.2-3.8-1.2
				C54,20.4,52.8,20.8,51.9,21.6z M52.3,12.6c-0.7,0.6-1,1.4-1,2.4c0,1,0.3,1.8,0.9,2.5c0.7,0.7,1.9,1.1,3.4,1.1
				c1.5,0,2.7-0.4,3.4-1.1C59.7,16.8,60,16,60,15c0-1-0.4-1.8-1-2.4c-0.8-0.7-1.9-1.1-3.3-1.1C54.2,11.5,53.1,11.9,52.3,12.6z"/>
			<path class="st4" d="M67.5,17.2l-1.3-1.7c2.8-2.1,4.7-5,5.7-8.7L74,7.3c-0.3,1.1-0.7,2-1.1,3h17.4v2h-8.8v4.5h7.8v1.9h-7.8v6h9.7
				v2h-9.7v6.2h-2v-6.2H66.5v-2h4.6v-8h8.3v-4.5h-7.5C70.8,14.2,69.3,15.9,67.5,17.2z M79.5,24.7v-6h-6.3v6H79.5z"/>
			<path class="st4" d="M109.2,18.8c0.4,0.5,0.6,1.1,0.6,2c0,1.2-0.4,2.3-1.1,3.3c-0.7,0.9-1.7,1.5-2.9,1.8v-1.4
				c0.7-0.3,1.3-0.7,1.8-1.2c0.4-0.6,0.6-1.2,0.6-1.9c-0.1,0.1-0.3,0.1-0.6,0.1c-0.5,0-0.9-0.2-1.2-0.5s-0.5-0.8-0.5-1.2
				c0-0.5,0.2-1,0.5-1.3c0.3-0.3,0.8-0.5,1.3-0.5C108.3,18,108.8,18.2,109.2,18.8z"/>
			<path class="st4" d="M135.5,12.3V7.2h2.1v5.1h10.9v1.9h-9.1c1.9,4.5,5.2,8.4,10.1,11.9l-1.4,1.7c-4.9-4-8.3-8.6-10.2-13.7h-0.2
				v10.9h6v1.9h-6v5.7h-2.1v-5.7h-5.8v-1.9h5.8V14.2h-0.2c-2.1,5.7-5.6,10.4-10.6,14l-1.1-1.9c4.7-3.1,8.1-7.2,10.1-12.2h-9.2v-1.9
				H135.5z"/>
			<path class="st4" d="M162.6,16.3c-2.4,2.3-5.5,4.2-9.1,5.7l-0.9-1.9c3.5-1.3,6.4-3.1,8.7-5.3L162.6,16.3z M174.2,29.9h3.5v1.9
				h-24.8v-1.9h3.7v-9h17.6V29.9z M160.6,12.1c-0.9-1.2-2-2.5-3.4-4l1.7-1c1.5,1.6,2.7,2.9,3.5,4.1l-1.3,1h7.1c1.1-1.6,2.1-3.2,3-5
				l2,0.7c-0.8,1.6-1.7,3.1-2.7,4.3h6.7v2h-23.6v-2H160.6z M161.8,29.9v-7.1h-3.3v7.1H161.8z M167.1,29.9v-7.1h-3.4v7.1H167.1z
				 M177.9,20.3l-1.1,1.8c-2.8-2.3-5.7-4.2-8.6-5.5l1-1.5C172.4,16.5,175.3,18.3,177.9,20.3z M172.3,29.9v-7.1H169v7.1H172.3z"/>
			<path class="st4" d="M185.6,29.9c2.5-0.6,4.9-1.2,7.3-2l0.5,1.9c-3.1,1-6.4,1.9-9.9,2.6l-0.6-1.9c0.4-0.3,0.7-0.7,0.7-1.2V7.7h2
				v7.8h7.2v2h-7.2V29.9z M197.6,32c-1.8,0-2.7-1-2.7-2.8V7.5h2v8.2l8.6-0.5v2l-8.6,0.5v11.2c0,0.8,0.4,1.2,1.2,1.2h4.2
				c0.5,0,1-0.2,1.3-0.5c0.4-0.5,0.8-2.1,0.9-5l1.9,0.6c-0.3,3.2-0.7,5.2-1.3,5.9c-0.6,0.6-1.3,0.9-2.4,0.9H197.6z"/>
			<path class="st4" d="M235.5,8.8v2h-3.7v19c0,1.8-0.9,2.8-2.7,2.8h-4.7l-0.4-2c1.5,0.1,3,0.1,4.4,0.1c0.9,0,1.4-0.5,1.4-1.5V10.8
				h-19.3v-2H235.5z M224.6,25.3h-8.9v2.5h-2V15h10.9V25.3z M222.7,23.5v-6.6h-7v6.6H222.7z"/>
			<path class="st4" d="M242.3,23.7l-0.6-1.7c7.6-0.3,13.9-0.9,19-1.8l1,1.7c-2.9,0.5-5.9,0.9-9,1.2V26h8.8v1.7h-8.8v2.5H264v1.8
				h-24.5v-1.8h11.3v-2.5H242V26h8.8v-2.7C248,23.5,245.2,23.6,242.3,23.7z M245,10c-0.3-1-0.6-1.8-0.9-2.6l2-0.3
				c0.3,0.9,0.6,1.8,0.8,2.9h4.4v1.8h-7.8v4.9c0,0.7,0.3,1.1,1.1,1.1h6v1.8h-6.5c-1.7,0-2.5-0.8-2.5-2.4v-5.4h-1.7V10H245z
				 M259.4,14.3c0.9-1,1.5-2,2-3.1h-6.2c-1,1.4-2.1,2.6-3.5,3.6l-1.1-1.4c2.2-1.5,3.8-3.6,4.6-6.2l1.8,0.3c-0.2,0.7-0.4,1.3-0.7,1.9
				h7.2v1.7c-1.3,4.4-4.9,7.5-10.8,9.3l-1-1.7c1.3-0.4,2.5-0.8,3.6-1.3c-0.7-0.7-1.4-1.3-2.3-2l1.1-1.1c1,0.8,1.9,1.5,2.6,2.3
				c0.6-0.4,1.2-0.8,1.7-1.2c-0.8-0.7-1.7-1.4-2.7-2.2l1.1-1.1C257.7,12.8,258.6,13.6,259.4,14.3z"/>
			<path class="st4" d="M268.7,32.5l-0.4-2c0.8,0.1,1.5,0.1,2.2,0.1s1.1-0.4,1.1-1v-6.9c-1.1,0.4-2.3,0.9-3.5,1.3l-0.5-2
				c1.3-0.3,2.7-0.8,4-1.3v-6.3h-3.5v-1.9h3.5V7.2h2v5.3h2.4v1.9h-2.4v5.5c0.8-0.4,1.6-0.8,2.4-1.2v2c-0.8,0.4-1.6,0.8-2.4,1.2v8.3
				c0,1.6-0.8,2.4-2.4,2.4H268.7z M284.5,18.9c-0.3,0.8-0.6,1.5-0.9,2.2h9.7v2h-2.9c-0.4,2.1-1.3,3.8-2.6,5.2c2,0.9,3.9,1.9,5.7,2.9
				l-1.1,1.6c-1.7-1-3.8-2.1-6-3.2c-1.9,1.3-4.8,2.4-8.8,3.2l-0.8-1.8c3.2-0.6,5.7-1.3,7.5-2.3c-1.7-0.8-3.5-1.5-5.5-2.3
				c0.7-1.1,1.3-2.2,1.9-3.2h-3.7v-2h4.7c0.4-0.9,0.8-1.7,1-2.5L284.5,18.9z M286,9.6h6.3v1.8h-2c-0.5,1.7-1.1,3.2-1.7,4.5h4.3v1.9
				h-15.6V16h4.3c-0.4-1.6-1-3.1-1.7-4.5h-1.9V9.6h6.2c-0.3-0.9-0.7-1.7-1.1-2.4l2.1-0.3C285.3,7.7,285.6,8.6,286,9.6z M282.5,23.1
				c-0.5,0.8-1,1.7-1.5,2.4c1.6,0.6,3.2,1.3,4.8,2c1.3-1.2,2.1-2.6,2.6-4.4H282.5z M288.2,11.5h-6.5c0.6,1.3,1.1,2.9,1.5,4.5h3.2
				C287.2,14.6,287.7,13.1,288.2,11.5z"/>
			<path class="st4" d="M302.5,32.6h-2V19c-0.9,2.7-2,5.1-3.3,7.3l-0.9-2.2c1.9-2.8,3.3-6,4.1-9.6h-3.6v-1.9h3.6V7.1h2v5.5h2.9v1.9
				h-2.9v2.4c1.1,1.1,2.3,2.4,3.4,3.8l-1.1,1.6c-0.9-1.4-1.7-2.5-2.3-3.3V32.6z M312.5,9.2c0.1-0.8,0.2-1.5,0.3-2.2l2,0.3
				c-0.1,0.7-0.2,1.3-0.3,2h6.1V11h-6.4c-0.2,0.7-0.3,1.4-0.5,2.1h6v1.7h-6.5c-0.3,0.7-0.5,1.5-0.8,2.1h9.1v1.8h-3.6
				c0.9,1.8,2.4,3.4,4.5,4.8l-1.2,1.6c-2.4-1.9-4.1-4.1-5.2-6.4h-4.4c-0.8,1.5-1.7,2.8-2.8,4h3.9v-2.7h1.9v2.7h3.8v1.8h-3.8V27h5.8
				v1.8h-5.8v3.9h-1.9v-3.9h-6V27h6v-2.5h-3.9v-1.8c-0.9,1-1.9,1.8-2.9,2.6l-1.1-1.7c1.9-1.2,3.5-2.9,4.7-4.9h-3.9v-1.8h4.9
				c0.3-0.7,0.6-1.4,0.8-2.1h-4v-1.7h4.5c0.2-0.7,0.4-1.4,0.5-2.1h-5.7V9.2H312.5z"/>
			<path class="st4" d="M330.5,18.4l-1.4,1.4c-1-1.3-2.3-2.7-4-4.1l1.4-1.3C328.1,15.8,329.4,17.1,330.5,18.4z M330.8,23.4
				c-1,3.2-2.2,6.3-3.5,9.1l-1.8-0.8c1.4-2.9,2.5-5.9,3.5-9L330.8,23.4z M331.2,11.5l-1.3,1.3c-1-1.2-2.5-2.5-4.3-3.9l1.3-1.3
				C328.6,8.9,330,10.2,331.2,11.5z M334.9,9.6c0.3-0.8,0.5-1.6,0.6-2.5l2,0.3c-0.2,0.8-0.4,1.5-0.7,2.2h3.6v7.9
				c1.6-2.7,2.7-6.1,3.3-10.4l1.9,0.3c-0.3,1.7-0.6,3.2-1,4.7h6.1V14h-1.6c-0.1,4.4-0.9,8.2-2.2,11.4c1.1,2.2,2.5,4.1,4.1,5.8
				l-1.3,1.5c-1.4-1.6-2.7-3.4-3.7-5.3c-1.2,2.1-2.6,3.9-4.4,5.3l-1.1-1.8c1.9-1.5,3.4-3.3,4.5-5.6c-1-2.2-1.8-4.6-2.4-7.3l1.4-0.8
				c0.5,2.1,1.1,4,1.9,5.8c0.8-2.6,1.3-5.6,1.4-9h-3.2c-0.8,2.2-1.7,4.1-2.9,5.7l-1.1-1.4h-3.6l0.8,2.4h4v1.7h-5.6
				c-0.1,0.8-0.2,1.5-0.3,2.2h5.1c0,3.6-0.3,5.9-0.7,6.7c-0.4,0.8-1.3,1.2-2.4,1.2h-1.5l-0.5-1.7h1.5c0.7-0.1,1.2-0.3,1.3-0.8
				c0.2-0.5,0.3-1.8,0.3-3.7H335c-0.2,0.8-0.4,1.5-0.6,2.2c-0.7,1.6-1.7,3.1-3,4.4l-1.2-1.6c1.1-1.1,1.9-2.4,2.5-3.7
				c0.5-1.3,0.8-3,1.1-5.1H331v-1.7h4.4l-0.8-2.4h-2.4V9.6H334.9z M338.7,13.3v-2.2h-4.8v2.2H338.7z M338.7,14.8h-4.8v2h4.8V14.8z"
				/>
			<path class="st4" d="M370.1,9.9h-12.8v8.5c-0.1,6-0.7,10.9-1.9,14.5l-1.5-1.3c1-3.1,1.5-7.5,1.6-13.2V8.2h14.6V9.9z M369.2,15.5
				v6.8h-4.3v1.4h4.8v6.8c0,1.3-0.7,2-2,2h-1.8l-0.4-1.5l1.8,0.1c0.6,0,0.9-0.3,0.9-0.9v-5h-3.1v2.5c0.5-0.1,0.9-0.3,1.3-0.4
				c-0.1-0.4-0.3-0.8-0.4-1.1l1-0.3c0.6,1.3,1,2.5,1.3,3.6L367,30c-0.1-0.5-0.3-1-0.4-1.4c-1.3,0.5-3.2,0.9-5.6,1.2l-0.2-1.5
				c0.9-0.1,1.7-0.2,2.5-0.3v-2.9H360v7.4h-1.6v-8.9h4.8v-1.4h-4.1v-6.8H369.2z M362.5,10.8v1.3h1.1v1.5h-1.1V15h-1.6v-1.3h-2.3
				v-1.5h2.3v-1.3H362.5z M363.3,18.4v-1.7h-2.5v1.7H363.3z M363.3,19.6h-2.5v1.5h2.5V19.6z M367.4,10.8v1.3h2.2v1.5h-2.2V15h-1.6
				v-1.3h-1.2v-1.5h1.2v-1.3H367.4z M364.9,18.4h2.6v-1.7h-2.6V18.4z M367.6,19.6h-2.6v1.5h2.6V19.6z M374.7,7.2v5.2h4.5
				c0,9.5-0.1,15.5-0.4,17.7c-0.2,1.6-1.1,2.4-2.8,2.4c-0.3,0-0.9,0-1.7-0.1l-0.4-1.7c0.7,0.1,1.4,0.1,1.9,0.1
				c0.7,0,1.1-0.5,1.2-1.4c0.2-1.6,0.3-6.7,0.3-15.2h-2.6v0c-0.1,8.5-1,14.7-2.9,18.6l-1.5-1.3c1.7-3.6,2.5-9.4,2.6-17.4v0h-2.4
				v-1.8h2.4V7.2H374.7z"/>
			<path class="st4" d="M394.7,10.3c-0.4-1.2-1-2.2-1.5-3.2l2.2-0.3c0.4,1,0.9,2.2,1.3,3.5h11.5v1.9h-11.4v3.7h9.1v10.2
				c0,1.7-0.9,2.5-2.5,2.5h-2.8l-0.5-1.9l2.7,0.1c0.8,0,1.2-0.4,1.2-1.2v-7.8h-7.1v14.9h-2.1V17.9H388v11h-2V15.9h8.7v-3.7h-11.4
				v-1.9H394.7z"/>
			<path class="st4" d="M415.2,14.6V7.2h1.9v7.4h3.1v2h-3.1v9.4c1-0.4,2-0.8,3-1.2v2c-2.4,1.1-5.1,2-7.9,2.7l-0.5-1.9
				c1.2-0.3,2.3-0.5,3.4-0.9v-10H412v-2H415.2z M437.4,18.2v1.8h-10.7c-0.3,0.6-0.7,1.2-1.1,1.7h10.8c-0.1,2.7-0.2,4.8-0.4,6.5
				c-0.2,1.7-0.6,2.8-1.1,3.5c-0.5,0.6-1.3,1-2.4,1h-2.1l-0.5-1.8c0.6,0.1,1.1,0.1,1.7,0.1c1.1,0,1.9-0.5,2.3-1.4
				c0.3-1,0.6-3,0.7-6.2H433c-1.9,4.7-5,7.8-9.4,9.3l-1.1-1.6c4-1.3,6.9-3.9,8.7-7.7h-2.4c-1.5,2.5-3.8,4.5-7.1,5.9l-1.2-1.4
				c3-1.2,5.1-2.7,6.4-4.5h-2.8c-0.8,0.7-1.7,1.4-2.7,2l-1.1-1.5c2-1.1,3.5-2.4,4.5-3.9h-4.1v-1.8H437.4z M435.3,8.1v8.4h-12.9V8.1
				H435.3z M433.4,11.6V9.8h-9.2v1.8H433.4z M433.4,13.1h-9.2v1.8h9.2V13.1z"/>
			<path class="st4" d="M452.4,9.6V7.2h2.1v2.4h10.1v1.8h-10.1v2.7h8.5v1.8h-8.5v2.7h10.8v1.8h-12.8c-1,1.4-2.2,2.7-3.8,3.8v6
				c2.1-0.6,4.2-1.4,6.2-2.3l0.4,1.9c-2.8,1.2-5.6,2.1-8.5,2.9l-0.7-1.7c0.4-0.2,0.6-0.4,0.6-0.8v-4.6c-1.5,0.9-3.2,1.7-5.1,2.5
				l-1.1-1.8c4.5-1.6,7.7-3.5,9.8-5.9h-8.8v-1.8h10.8v-2.7h-8.5v-1.8h8.5v-2.7h-10.1V9.6H452.4z M464.1,23.3c-1.5,1.5-3.2,2.7-5,3.4
				c1.8,1.9,4.2,3.4,7.1,4.3l-1.2,1.7c-5-1.8-8.6-5.2-10.7-10.1l1.5-0.9c0.6,1.3,1.3,2.6,2.1,3.6c1.7-0.7,3.3-1.9,4.8-3.5
				L464.1,23.3z"/>
			<path class="st4" d="M473.2,17.8v-7h-3.6V8.9h9.2v1.9h-3.5v7h3.1v2h-3.1v6.8c1.2-0.5,2.4-1,3.6-1.6v2c-2.7,1.3-5.7,2.4-8.8,3.3
				l-0.5-1.9c1.2-0.3,2.5-0.6,3.7-1v-7.5H470v-2H473.2z M492.9,8.2v15.5h-3.2v5.9c0,0.5,0.2,0.8,0.6,0.9h1.4c0.6-0.1,1-0.4,1.1-1
				c0.1-0.8,0.2-2,0.2-3.7l1.8,0.7c0,2.7-0.2,4.3-0.6,4.9c-0.4,0.6-1.1,0.9-2.4,1h-1.6c-1.7,0-2.5-0.8-2.5-2.3v-6.3h-2.5
				c-0.3,4.1-2.3,7.1-6.1,9l-1.1-1.7c3.2-1.5,5-3.9,5.3-7.3h-3.2V8.2H492.9z M491,12.7V9.9h-8.8v2.8H491z M491,17.3v-2.9h-8.8v2.9
				H491z M491,18.9h-8.8v3h8.8V18.9z"/>
		</g>
	</g>
</g>
</svg>
