<?xml version="1.0" encoding="utf-8"?>
<!-- Generator: Adobe Illustrator 22.0.1, SVG Export Plug-In . SVG Version: 6.00 Build 0)  -->
<svg version="1.1" id="圖層_1" xmlns="http://www.w3.org/2000/svg" xmlns:xlink="http://www.w3.org/1999/xlink" x="0px" y="0px"
	 viewBox="0 0 320 492" style="enable-background:new 0 0 320 492;" xml:space="preserve">
<style type="text/css">
	.st0{fill:#004483;}
	.st1{fill:#689BC8;}
	.st2{fill:#9CA4AF;}
	.st3{fill:#60828B;}
	.st4{fill:#B7956F;}
	.st5{enable-background:new    ;}
	.st6{fill:#BCBCBC;}
	.st7{fill:#4A4A4A;}
	.st8{fill:#E22227;}
</style>
<title>s1_3_1 copy</title>
<desc>Created with Sketch.</desc>
<g id="s1_3_1-copy">
	<g id="Group-25-Copy-3" transform="translate(0.000000, -6.000000)">
		<path id="Rectangle-10-Copy-2" class="st0" d="M22,276h88v176H22V276z"/>
		<path id="Rectangle-10-Copy-8" class="st1" d="M22,257h88v19H22V257z"/>
		<path id="Rectangle-10-Copy-9" class="st2" d="M22,217h88v40H22V217z"/>
		<path id="Rectangle-10-Copy-10" class="st3" d="M22,177h88v40H22V177z"/>
		<path id="Rectangle-10-Copy-11" class="st4" d="M22,153h88v24H22V153z"/>
		<g class="st5">
			<path class="st4" d="M132.7,165.8v4.4h4.4v1.4h-4.4v4.4h-1.4v-4.4H127v-1.4h4.4v-4.4H132.7z"/>
			<path class="st4" d="M148.2,162.5c0.8,0.7,1.2,1.6,1.2,2.8c0,1.6-0.8,2.7-2.3,3.2c0.8,0.3,1.5,0.7,1.9,1.2
				c0.5,0.6,0.7,1.3,0.7,2.1c0,1.3-0.5,2.4-1.4,3.2c-0.9,0.8-2.1,1.3-3.6,1.3c-1.4,0-2.5-0.4-3.3-1c-1-0.8-1.6-2.1-1.7-3.7h1.7
				c0,1.1,0.4,2,1.1,2.6c0.6,0.5,1.3,0.7,2.2,0.7c1,0,1.8-0.3,2.5-0.9c0.6-0.6,0.9-1.3,0.9-2.1c0-0.9-0.3-1.5-0.8-2
				c-0.6-0.5-1.3-0.7-2.3-0.7h-1.2v-1.3h1.1c1,0,1.7-0.2,2.2-0.6c0.5-0.4,0.8-1.1,0.8-1.9c0-0.8-0.3-1.4-0.7-1.9
				c-0.5-0.5-1.3-0.7-2.2-0.7c-1,0-1.7,0.2-2.2,0.8c-0.6,0.5-0.9,1.3-1,2.2H140c0.1-1.4,0.6-2.5,1.5-3.2c0.8-0.8,1.9-1.2,3.3-1.2
				C146.2,161.4,147.3,161.8,148.2,162.5z"/>
			<path class="st4" d="M158.4,162.9c0.5,0.7,0.8,1.6,0.8,2.7c0,1.1-0.3,2-0.8,2.7c-0.6,0.8-1.4,1.2-2.5,1.2c-1.1,0-1.9-0.4-2.5-1.2
				c-0.5-0.7-0.8-1.6-0.8-2.7c0-1.1,0.2-2.1,0.8-2.7c0.6-0.8,1.4-1.2,2.5-1.2C157,161.7,157.8,162.1,158.4,162.9z M154.6,163.6
				c-0.3,0.5-0.4,1.1-0.4,2c0,0.8,0.1,1.5,0.4,2c0.3,0.6,0.7,0.9,1.3,0.9c0.6,0,1-0.3,1.3-0.9c0.2-0.5,0.4-1.1,0.4-1.9
				c0-0.8-0.1-1.5-0.4-2c-0.3-0.6-0.7-0.9-1.3-0.9C155.3,162.8,154.9,163.1,154.6,163.6z M165.6,161.4l-8,14.8h-1.3l8-14.8H165.6z
				 M168.5,169.4c0.5,0.7,0.8,1.6,0.8,2.7c0,1.1-0.3,2-0.8,2.7c-0.6,0.8-1.4,1.2-2.5,1.2c-1.1,0-1.9-0.4-2.5-1.2
				c-0.5-0.7-0.8-1.6-0.8-2.7c0-1.1,0.2-2.1,0.8-2.7c0.6-0.8,1.4-1.2,2.5-1.2C167.1,168.2,168,168.6,168.5,169.4z M164.7,170.1
				c-0.3,0.5-0.4,1.1-0.4,2c0,0.8,0.1,1.5,0.4,2c0.3,0.6,0.7,0.9,1.3,0.9c0.6,0,1-0.3,1.3-0.9c0.2-0.5,0.4-1.1,0.4-1.9
				c0-0.8-0.1-1.5-0.4-2c-0.3-0.6-0.7-0.9-1.3-0.9C165.5,169.3,165,169.5,164.7,170.1z"/>
		</g>
		<g class="st5">
			<path class="st3" d="M132.7,197.8v4.4h4.4v1.4h-4.4v4.4h-1.4v-4.4H127v-1.4h4.4v-4.4H132.7z"/>
			<path class="st3" d="M149.1,193.7v1.5h-7l-0.5,4.8h0.1c0.4-0.5,0.9-0.8,1.5-1.1c0.6-0.2,1.2-0.3,1.8-0.3c1.4,0,2.5,0.4,3.3,1.3
				c0.8,0.9,1.3,2.1,1.3,3.6c0,1.4-0.5,2.6-1.5,3.5c-1,0.9-2.2,1.3-3.6,1.3c-1.3,0-2.3-0.3-3.2-1c-1-0.8-1.5-1.8-1.6-3.1h1.6
				c0.1,0.9,0.4,1.6,1.1,2.1c0.6,0.4,1.3,0.6,2.2,0.6c1,0,1.8-0.3,2.5-1c0.6-0.6,1-1.5,1-2.5c0-1.1-0.3-2-0.9-2.6
				c-0.6-0.6-1.4-0.9-2.4-0.9c-0.7,0-1.3,0.1-1.8,0.4c-0.6,0.3-1,0.7-1.3,1.3H140l0.8-7.9H149.1z"/>
			<path class="st3" d="M158.4,194.9c0.5,0.7,0.8,1.6,0.8,2.7c0,1.1-0.3,2-0.8,2.7c-0.6,0.8-1.4,1.2-2.5,1.2c-1.1,0-1.9-0.4-2.5-1.2
				c-0.5-0.7-0.8-1.6-0.8-2.7c0-1.1,0.2-2.1,0.8-2.7c0.6-0.8,1.4-1.2,2.5-1.2C157,193.7,157.8,194.1,158.4,194.9z M154.6,195.6
				c-0.3,0.5-0.4,1.1-0.4,2c0,0.8,0.1,1.5,0.4,2c0.3,0.6,0.7,0.9,1.3,0.9c0.6,0,1-0.3,1.3-0.9c0.2-0.5,0.4-1.1,0.4-1.9
				c0-0.8-0.1-1.5-0.4-2c-0.3-0.6-0.7-0.9-1.3-0.9C155.3,194.8,154.9,195.1,154.6,195.6z M165.6,193.4l-8,14.8h-1.3l8-14.8H165.6z
				 M168.5,201.4c0.5,0.7,0.8,1.6,0.8,2.7c0,1.1-0.3,2-0.8,2.7c-0.6,0.8-1.4,1.2-2.5,1.2c-1.1,0-1.9-0.4-2.5-1.2
				c-0.5-0.7-0.8-1.6-0.8-2.7c0-1.1,0.2-2.1,0.8-2.7c0.6-0.8,1.4-1.2,2.5-1.2C167.1,200.2,168,200.6,168.5,201.4z M164.7,202.1
				c-0.3,0.5-0.4,1.1-0.4,2c0,0.8,0.1,1.5,0.4,2c0.3,0.6,0.7,0.9,1.3,0.9c0.6,0,1-0.3,1.3-0.9c0.2-0.5,0.4-1.1,0.4-1.9
				c0-0.8-0.1-1.5-0.4-2c-0.3-0.6-0.7-0.9-1.3-0.9C165.5,201.3,165,201.5,164.7,202.1z"/>
		</g>
		<g class="st5">
			<path class="st2" d="M132.7,237.8v4.4h4.4v1.4h-4.4v4.4h-1.4v-4.4H127v-1.4h4.4v-4.4H132.7z"/>
			<path class="st2" d="M149.1,233.7v1.5h-7l-0.5,4.8h0.1c0.4-0.5,0.9-0.8,1.5-1.1c0.6-0.2,1.2-0.3,1.8-0.3c1.4,0,2.5,0.4,3.3,1.3
				c0.8,0.9,1.3,2.1,1.3,3.6c0,1.4-0.5,2.6-1.5,3.5c-1,0.9-2.2,1.3-3.6,1.3c-1.3,0-2.3-0.3-3.2-1c-1-0.8-1.5-1.8-1.6-3.1h1.6
				c0.1,0.9,0.4,1.6,1.1,2.1c0.6,0.4,1.3,0.6,2.2,0.6c1,0,1.8-0.3,2.5-1c0.6-0.6,1-1.5,1-2.5c0-1.1-0.3-2-0.9-2.6
				c-0.6-0.6-1.4-0.9-2.4-0.9c-0.7,0-1.3,0.1-1.8,0.4c-0.6,0.3-1,0.7-1.3,1.3H140l0.8-7.9H149.1z"/>
			<path class="st2" d="M158.4,234.9c0.5,0.7,0.8,1.6,0.8,2.7c0,1.1-0.3,2-0.8,2.7c-0.6,0.8-1.4,1.2-2.5,1.2c-1.1,0-1.9-0.4-2.5-1.2
				c-0.5-0.7-0.8-1.6-0.8-2.7c0-1.1,0.2-2.1,0.8-2.7c0.6-0.8,1.4-1.2,2.5-1.2C157,233.7,157.8,234.1,158.4,234.9z M154.6,235.6
				c-0.3,0.5-0.4,1.1-0.4,2c0,0.8,0.1,1.5,0.4,2c0.3,0.6,0.7,0.9,1.3,0.9c0.6,0,1-0.3,1.3-0.9c0.2-0.5,0.4-1.1,0.4-1.9
				c0-0.8-0.1-1.5-0.4-2c-0.3-0.6-0.7-0.9-1.3-0.9C155.3,234.8,154.9,235.1,154.6,235.6z M165.6,233.4l-8,14.8h-1.3l8-14.8H165.6z
				 M168.5,241.4c0.5,0.7,0.8,1.6,0.8,2.7c0,1.1-0.3,2-0.8,2.7c-0.6,0.8-1.4,1.2-2.5,1.2c-1.1,0-1.9-0.4-2.5-1.2
				c-0.5-0.7-0.8-1.6-0.8-2.7c0-1.1,0.2-2.1,0.8-2.7c0.6-0.8,1.4-1.2,2.5-1.2C167.1,240.2,168,240.6,168.5,241.4z M164.7,242.1
				c-0.3,0.5-0.4,1.1-0.4,2c0,0.8,0.1,1.5,0.4,2c0.3,0.6,0.7,0.9,1.3,0.9c0.6,0,1-0.3,1.3-0.9c0.2-0.5,0.4-1.1,0.4-1.9
				c0-0.8-0.1-1.5-0.4-2c-0.3-0.6-0.7-0.9-1.3-0.9C165.5,241.3,165,241.5,164.7,242.1z"/>
		</g>
		<g class="st5">
			<path class="st0" d="M132.7,364.8v4.4h4.4v1.4h-4.4v4.4h-1.4v-4.4H127v-1.4h4.4v-4.4H132.7z"/>
			<path class="st0" d="M148.2,361.6c0.8,0.8,1.3,1.8,1.3,3S149,367,148,368c-0.5,0.5-1.5,1.3-3,2.3c-1.8,1.2-2.9,2.3-3.1,3.3h7.5
				v1.5h-9.5c0-1.3,0.5-2.5,1.4-3.5c0.6-0.6,1.6-1.5,3.1-2.5c1.1-0.8,1.9-1.4,2.2-1.8c0.7-0.8,1.1-1.6,1.1-2.6c0-0.9-0.3-1.5-0.8-2
				c-0.5-0.5-1.3-0.7-2.2-0.7c-1,0-1.7,0.3-2.3,1c-0.6,0.6-0.9,1.6-0.9,2.9h-1.6c0-1.6,0.5-2.9,1.3-3.8c0.9-1,2.1-1.4,3.5-1.4
				C146.2,360.4,147.3,360.8,148.2,361.6z"/>
			<path class="st0" d="M160.8,361.6c0.8,0.8,1.3,1.8,1.3,3s-0.5,2.4-1.4,3.4c-0.5,0.5-1.5,1.3-3,2.3c-1.8,1.2-2.9,2.3-3.1,3.3h7.5
				v1.5h-9.5c0-1.3,0.5-2.5,1.4-3.5c0.6-0.6,1.6-1.5,3.1-2.5c1.1-0.8,1.9-1.4,2.2-1.8c0.7-0.8,1.1-1.6,1.1-2.6c0-0.9-0.3-1.5-0.8-2
				c-0.5-0.5-1.3-0.7-2.2-0.7c-1,0-1.7,0.3-2.3,1c-0.6,0.6-0.9,1.6-0.9,2.9h-1.6c0-1.6,0.5-2.9,1.3-3.8c0.9-1,2.1-1.4,3.5-1.4
				C158.8,360.4,159.9,360.8,160.8,361.6z"/>
			<path class="st0" d="M171,361.9c0.5,0.7,0.8,1.6,0.8,2.7c0,1.1-0.3,2-0.8,2.7c-0.6,0.8-1.4,1.2-2.5,1.2c-1.1,0-1.9-0.4-2.5-1.2
				c-0.5-0.7-0.8-1.6-0.8-2.7c0-1.1,0.2-2.1,0.8-2.7c0.6-0.8,1.4-1.2,2.5-1.2C169.6,360.7,170.4,361.1,171,361.9z M167.2,362.6
				c-0.3,0.5-0.4,1.1-0.4,2c0,0.8,0.1,1.5,0.4,2c0.3,0.6,0.7,0.9,1.3,0.9c0.6,0,1-0.3,1.3-0.9c0.2-0.5,0.4-1.1,0.4-1.9
				c0-0.8-0.1-1.5-0.4-2c-0.3-0.6-0.7-0.9-1.3-0.9C167.9,361.8,167.5,362.1,167.2,362.6z M178.2,360.4l-8,14.8h-1.3l8-14.8H178.2z
				 M181.1,368.4c0.5,0.7,0.8,1.6,0.8,2.7c0,1.1-0.3,2-0.8,2.7c-0.6,0.8-1.4,1.2-2.5,1.2c-1.1,0-1.9-0.4-2.5-1.2
				c-0.5-0.7-0.8-1.6-0.8-2.7c0-1.1,0.2-2.1,0.8-2.7c0.6-0.8,1.4-1.2,2.5-1.2C179.7,367.2,180.6,367.6,181.1,368.4z M177.3,369.1
				c-0.3,0.5-0.4,1.1-0.4,2c0,0.8,0.1,1.5,0.4,2c0.3,0.6,0.7,0.9,1.3,0.9c0.6,0,1-0.3,1.3-0.9c0.2-0.5,0.4-1.1,0.4-1.9
				c0-0.8-0.1-1.5-0.4-2c-0.3-0.6-0.7-0.9-1.3-0.9C178.1,368.3,177.6,368.5,177.3,369.1z"/>
		</g>
		<g class="st5">
			<path class="st0" d="M200,369.4h-3.2V368h3.4c0.1-1.5,0.2-3.1,0.3-4.6h12.4l-0.1,4.6h2.5v1.4h-2.6c-0.1,1.4-0.1,2.5-0.2,3.4h2.2
				v1.3h-2.3c0,0.5-0.1,0.9-0.1,1c-0.2,0.6-0.5,1.1-1,1.4c-0.5,0.3-1.2,0.4-2.2,0.4c-0.7,0-1.5,0-2.4,0l-0.4-1.3
				c1,0,1.8,0.1,2.6,0.1c0.5,0,0.9-0.1,1.3-0.2c0.4-0.1,0.6-0.4,0.8-0.9c0-0.1,0.1-0.3,0.1-0.6h-11.7
				C199.6,372.6,199.9,371,200,369.4z M197.9,365.7l-0.9-1.1c1.7-1.6,3.1-3.6,4.2-6.1l1.5,0.3c-0.2,0.5-0.5,1-0.7,1.5h12.3v1.4
				h-13.1C200.3,363.3,199.2,364.6,197.9,365.7z M211.3,369.4h-9.8c-0.1,1.2-0.3,2.4-0.5,3.4h10.1
				C211.2,371.9,211.2,370.8,211.3,369.4z M207.8,368c-1.3-0.8-2.6-1.4-3.9-1.9l0.7-1c1.5,0.5,2.8,1.1,4,1.9L207.8,368h3.5
				c0-1,0.1-2.1,0.1-3.3h-9.6c0,1.2-0.1,2.2-0.2,3.3H207.8z M208.5,371.7l-0.7,1c-1.3-0.8-2.7-1.5-4-2l0.7-0.9
				C205.9,370.3,207.2,370.9,208.5,371.7z"/>
			<path class="st0" d="M224.7,375.2c0,1.1-0.6,1.7-1.7,1.7h-1.6l-0.3-1.3c0.6,0,1.1,0.1,1.6,0.1c0.5,0,0.7-0.3,0.7-1V370
				c-1,0.2-2.1,0.5-3.2,0.6c-0.2,2.6-0.7,4.7-1.7,6.4l-1.1-1c1-1.8,1.4-4.2,1.5-7v-9.7h5.9V375.2z M223.4,364.8v-4.1h-3.2v3.4
				C221.3,364.3,222.3,364.5,223.4,364.8z M223.4,368.8V366c-1-0.3-2.1-0.5-3.2-0.7v4C221.3,369.2,222.4,369,223.4,368.8z
				 M234.3,367.2v1.3c-0.5,1.9-1.4,3.5-2.7,4.9c1.2,0.9,2.6,1.7,4.2,2.4l-0.8,1.2c-1.8-0.8-3.2-1.7-4.4-2.7c-1.3,1.1-2.9,2-4.7,2.6
				l-0.8-1.2c1.8-0.6,3.2-1.4,4.4-2.4c-1.4-1.4-2.3-3-2.8-4.8h-1v-1.4H234.3z M233.3,359.4v4.4c0,0.4,0.2,0.6,0.6,0.6h1.6v1.3h-1.9
				c-1.1,0-1.7-0.6-1.7-1.7v-3.3h-3.4v1.2c0,1.9-0.7,3.4-2.1,4.4l-1-1.1c1.1-0.8,1.7-1.8,1.7-3.2v-2.7H233.3z M230.6,372.4
				c1.1-1.1,1.9-2.4,2.4-3.9h-4.8C228.6,370,229.4,371.3,230.6,372.4z"/>
			<path class="st0" d="M254.1,375.1h2.1v1.3h-18.1v-1.3h2.2v-4.5h13.8V375.1z M246.2,366.3c0.7-0.6,1.2-1.3,1.6-2.1h-4.8
				c-0.2,0.7-0.5,1.3-0.7,1.9c-0.7,1.5-1.8,2.8-3.3,3.9l-0.8-1.1c1.2-1,2.2-2.2,2.8-3.4c0.6-1.2,1-2.8,1.3-4.8h-3v-1.3h13.1v0.7
				c-0.1,1-0.3,1.9-0.5,2.7h3.2v0.8c-0.2,2.7-0.4,4.3-0.8,5c-0.3,0.5-0.8,0.8-1.5,0.9c-0.5,0-1.1,0-1.8,0l-0.5-1.4
				c0.6,0.1,1.1,0.2,1.4,0.2c0.5,0,0.9-0.2,1.2-0.5c0.3-0.4,0.4-1.6,0.6-3.6h-3.4c0.3-1,0.5-2.1,0.7-3.3h-7.3
				c-0.1,0.8-0.3,1.5-0.4,2.2h6v1.2c-0.4,1.1-0.9,2.1-1.8,2.9c0.9,0.5,1.7,1.1,2.4,1.6l-1.1,1.1c-0.7-0.6-1.5-1.2-2.4-1.8
				c-1.1,0.7-2.4,1.3-3.9,1.8l-0.7-1.2c1.3-0.4,2.4-0.8,3.3-1.3c-0.7-0.4-1.4-0.8-2.1-1.2l0.9-0.9
				C244.7,365.5,245.5,365.9,246.2,366.3z M244.4,375.1v-3.2h-2.7v3.2H244.4z M248.5,375.1v-3.2h-2.8v3.2H248.5z M252.7,375.1v-3.2
				h-2.8v3.2H252.7z"/>
			<path class="st0" d="M259.3,364.2l-0.8-1.1c1.3-1.2,2.5-2.6,3.6-4.2h1c1.1,1.1,2.2,2.2,3.3,3.5l-0.9,1c-1-1.3-2-2.3-2.8-3.1
				c-0.5,0.7-1.1,1.4-1.6,2.1h3.4v1.1H261v-1.1C260.4,363,259.9,363.6,259.3,364.2z M265.7,375.7l-1.2,0.5c-0.1-0.4-0.2-0.7-0.4-1.1
				c-1.3,0.6-2.8,1-4.4,1.5l-0.4-1.1c0.3-0.1,0.4-0.3,0.4-0.6v-10.4h5.6v7H261v3.5c1-0.3,1.9-0.7,2.7-1c-0.2-0.6-0.5-1.1-0.8-1.6
				l1.2-0.4C264.7,373.2,265.2,374.4,265.7,375.7z M264,365.8h-3v1.8h3V365.8z M261,370.4h3v-1.8h-3V370.4z M269,376.9l-0.3-1.4
				c0.5,0.1,1,0.1,1.4,0.1c0.4,0,0.7-0.3,0.7-0.7v-5.8h-4.2v-1.4h4.2v-2.4h-2.5v-1.3c-0.5,0.5-1.1,1-1.7,1.4l-0.8-1.2
				c2-1.4,3.7-3.3,5-5.6h1.2c1.1,2.2,2.8,3.9,5.1,5.4l-0.8,1.2c-2-1.3-3.7-3-4.9-5.2c-0.9,1.5-2,2.9-3.1,4h6.3v1.3h-2.5v2.4h4.2v1.4
				h-4.2v6.1c0,1.1-0.5,1.7-1.6,1.7H269z M269.4,371.3c-0.6,1.7-1.4,3.2-2.3,4.5L266,375c0.9-1.2,1.6-2.6,2.3-4.3L269.4,371.3z
				 M276.8,374.8l-1.1,0.8c-0.6-1.3-1.3-2.8-2.3-4.4l1.1-0.7C275.4,372.2,276.2,373.6,276.8,374.8z"/>
			<path class="st0" d="M295.7,360.8l-0.9,0.9h2.4v1.4h-6.2c0.1,2.5,0.4,4.4,0.8,5.9c0.1,0.5,0.3,1,0.4,1.4c1-1.6,1.8-3.5,2.4-5.6
				l1.3,0.6c-0.8,2.6-1.8,4.9-3.1,6.7c0.3,0.6,0.6,1.2,0.9,1.7c0.7,1,1.2,1.4,1.6,1.4c0.4,0,0.7-1.1,1-3.1l1.3,0.7
				c-0.5,2.7-1.2,4-2.1,4c-0.8,0-1.7-0.6-2.7-1.8c-0.4-0.5-0.7-1-1-1.7c-1.4,1.6-3,2.9-4.9,3.7l-0.8-1.2c2-0.9,3.7-2.2,5.1-4
				c-0.3-0.7-0.5-1.5-0.8-2.4c-0.4-1.7-0.7-3.8-0.9-6.3h-6.9v3.3h4.9c0,3.4-0.2,5.6-0.5,6.5c-0.3,0.9-0.9,1.3-1.9,1.3
				c-0.5,0-1.1,0-1.7-0.1l-0.4-1.3c0.8,0,1.4,0.1,2,0.1c0.4,0,0.7-0.3,0.8-0.9c0.1-0.7,0.2-2.1,0.2-4.3h-3.5v0.6
				c-0.1,3.6-0.9,6.5-2.4,8.6l-1.1-1c1.3-1.8,1.9-4.4,2-7.6v-6.7h8.3c0-1-0.1-2-0.1-3.1h1.5c0,1.1,0,2.1,0.1,3.1h3.7
				c-0.6-0.7-1.4-1.5-2.4-2.2l0.9-0.9C294.2,359.3,295.1,360.1,295.7,360.8z"/>
			<path class="st0" d="M305,365.2h9.8v1.2H305v1.7h12.6v1.3h-13v5.9c1.7-0.3,3.4-0.8,5.1-1.4l0.3,1.3c-1.9,0.7-4.2,1.2-6.7,1.7
				l-0.6-1.2c0.3-0.1,0.5-0.3,0.5-0.6v-5.7h-2.8v-1.3h3.2v-8.8h12.2v1.3H305v1.7h9.8v1.2H305V365.2z M312,372.6
				c1.2-0.6,2.4-1.4,3.5-2.6l0.9,0.9c-1,1.1-2.1,1.9-3.4,2.5c1.4,1,3.1,1.8,5.2,2.4l-0.8,1.2c-4-1.1-6.9-3.3-8.6-6.4l1.1-0.7
				C310.4,370.9,311.1,371.8,312,372.6z"/>
		</g>
		<g class="st5">
			<path class="st1" d="M132.7,267.8v4.4h4.4v1.4h-4.4v4.4h-1.4v-4.4H127v-1.4h4.4v-4.4H132.7z"/>
			<path class="st1" d="M148.2,264.6c0.8,0.8,1.3,1.8,1.3,3S149,270,148,271c-0.5,0.5-1.5,1.3-3,2.3c-1.8,1.2-2.9,2.3-3.1,3.3h7.5
				v1.5h-9.5c0-1.3,0.5-2.5,1.4-3.5c0.6-0.6,1.6-1.5,3.1-2.5c1.1-0.8,1.9-1.4,2.2-1.8c0.7-0.8,1.1-1.6,1.1-2.6c0-0.9-0.3-1.5-0.8-2
				c-0.5-0.5-1.3-0.7-2.2-0.7c-1,0-1.7,0.3-2.3,1c-0.6,0.6-0.9,1.6-0.9,2.9h-1.6c0-1.6,0.5-2.9,1.3-3.8c0.9-1,2.1-1.4,3.5-1.4
				C146.2,263.4,147.3,263.8,148.2,264.6z"/>
			<path class="st1" d="M154.8,276c0.2,0.2,0.4,0.5,0.4,0.9c0,0.3-0.1,0.6-0.4,0.9c-0.2,0.2-0.5,0.4-0.9,0.4c-0.4,0-0.6-0.1-0.9-0.4
				c-0.2-0.2-0.4-0.5-0.4-0.9c0-0.4,0.1-0.6,0.4-0.9c0.2-0.2,0.5-0.4,0.9-0.4C154.3,275.6,154.6,275.7,154.8,276z"/>
			<path class="st1" d="M166.4,263.7v9.7h2.3v1.3h-2.3v3.2h-1.6v-3.2h-7.2v-1.6l7.2-9.5H166.4z M159,273.4h5.8v-7.6h-0.1L159,273.4z
				"/>
			<path class="st1" d="M176.9,264.9c0.5,0.7,0.8,1.6,0.8,2.7c0,1.1-0.3,2-0.8,2.7c-0.6,0.8-1.4,1.2-2.5,1.2c-1.1,0-1.9-0.4-2.5-1.2
				c-0.5-0.7-0.8-1.6-0.8-2.7c0-1.1,0.2-2.1,0.8-2.7c0.6-0.8,1.4-1.2,2.5-1.2C175.5,263.7,176.3,264.1,176.9,264.9z M173.1,265.6
				c-0.3,0.5-0.4,1.1-0.4,2c0,0.8,0.1,1.5,0.4,2c0.3,0.6,0.7,0.9,1.3,0.9c0.6,0,1-0.3,1.3-0.9c0.2-0.5,0.4-1.1,0.4-1.9
				c0-0.8-0.1-1.5-0.4-2c-0.3-0.6-0.7-0.9-1.3-0.9C173.8,264.8,173.3,265.1,173.1,265.6z M184.1,263.4l-8,14.8h-1.3l8-14.8H184.1z
				 M187,271.4c0.5,0.7,0.8,1.6,0.8,2.7c0,1.1-0.3,2-0.8,2.7c-0.6,0.8-1.4,1.2-2.5,1.2c-1.1,0-1.9-0.4-2.5-1.2
				c-0.5-0.7-0.8-1.6-0.8-2.7c0-1.1,0.2-2.1,0.8-2.7c0.6-0.8,1.4-1.2,2.5-1.2C185.6,270.2,186.4,270.6,187,271.4z M183.2,272.1
				c-0.3,0.5-0.4,1.1-0.4,2c0,0.8,0.1,1.5,0.4,2c0.3,0.6,0.7,0.9,1.3,0.9c0.6,0,1-0.3,1.3-0.9c0.2-0.5,0.4-1.1,0.4-1.9
				c0-0.8-0.1-1.5-0.4-2c-0.3-0.6-0.7-0.9-1.3-0.9C183.9,271.3,183.5,271.5,183.2,272.1z"/>
		</g>
		<g class="st5">
			<path class="st4" d="M210.7,168.3c-1,1.8-2.1,3.4-3.5,4.8c2.2,1.6,4.8,2.7,7.9,3.5l-0.9,1.3c-3.2-0.9-5.9-2.2-8.1-3.9
				c-2.2,1.8-5,3.1-8.2,4l-0.9-1.3c3.2-0.8,5.8-2,7.9-3.6c-1.5-1.3-2.7-2.8-3.6-4.5l1.2-0.7c0.9,1.6,2,3.1,3.5,4.3
				c1.4-1.3,2.5-2.7,3.3-4.4L210.7,168.3z M205.4,162c-0.4-0.8-0.8-1.6-1.2-2.2l1.6-0.3c0.4,0.8,0.8,1.6,1.2,2.5h7.9v1.4h-17.7V162
				H205.4z M203.8,165c-1.5,2-3.4,3.7-5.6,5.2l-0.9-1.2c2.2-1.4,4-3,5.5-4.9L203.8,165z M214.7,169.3l-1.1,1.1
				c-1.3-1.7-3.2-3.5-5.5-5.4l1-0.9C211.4,165.8,213.2,167.5,214.7,169.3z"/>
			<path class="st4" d="M235.1,160.5v1.4h-10.5l-0.8,3.3h8.6l-1.6,10.7h4.8v1.4h-17.9v-1.4h11.6l0.6-3.5h-9.4l2.6-10.5h-5v-1.4
				H235.1z M230.8,166.6h-7.4l-1.1,4.5h7.9L230.8,166.6z"/>
			<path class="st4" d="M242.1,164.6c-0.9,1.9-2,3.5-3.2,4.9l-1.1-0.8c1.2-1.3,2.3-2.9,3.2-4.7L242.1,164.6z M243.3,171.1
				c0.5-0.9,0.9-2,1.3-3l1.2,0.5c-0.4,1.3-0.9,2.5-1.4,3.5c0.8,0.8,1.6,1.7,2.3,2.6l-1,1.1c-0.7-0.8-1.4-1.6-2.1-2.4
				c-1.3,1.9-2.9,3.4-4.8,4.5l-0.8-1.2c1.9-1,3.5-2.5,4.7-4.3c-0.9-0.9-1.8-1.7-2.7-2.5l0.9-1C241.7,169.6,242.5,170.3,243.3,171.1z
				 M243.7,161.8h3.9v1.4h-9.3v-1.4h4c-0.3-0.7-0.6-1.4-1-2l1.5-0.2C243.1,160.2,243.4,161,243.7,161.8z M243.4,164.8l0.9-0.9
				c0.8,0.6,1.7,1.6,2.8,2.9l-0.9,0.9C245.2,166.6,244.3,165.6,243.4,164.8z M248.3,168.3c-0.3,0.6-0.7,1.1-1,1.5l-0.9-1.1
				c1.6-2.2,2.7-5.3,3.3-9.1l1.4,0.2c-0.2,1.1-0.4,2.1-0.6,3h5.6v1.4h-1.4c-0.1,3.3-0.9,6.2-2.4,8.5c1.2,1.5,2.6,2.8,4.2,4l-1,1.1
				c-1.6-1.2-3-2.5-4.1-3.9c-1.3,1.6-2.9,2.9-4.9,4l-0.8-1.3c2-1,3.6-2.3,4.8-3.8C249.6,171.4,248.9,169.9,248.3,168.3z
				 M248.5,168.1l1-0.5c0.5,1.4,1.2,2.8,2,4c1.2-2,1.9-4.5,2-7.3h-3.3C249.6,165.7,249.1,167,248.5,168.1z"/>
			<path class="st4" d="M274.4,160.5v7.7h-5.9v1.8h8v1.4h-6.7c1.4,1.8,3.8,3.4,7.1,4.8l-1,1.3c-3.5-1.8-5.9-3.8-7.3-6.1h-0.1v6.6
				h-1.5v-6.6H267c-1.5,2.5-4,4.5-7.5,6.1l-0.8-1.3c3.3-1.2,5.6-2.8,7.1-4.7h-6.7V170h8v-1.8h-6v-7.7H274.4z M267.1,163.7v-2h-4.5v2
				H267.1z M267.1,165h-4.5v1.9h4.5V165z M268.5,163.7h4.5v-2h-4.5V163.7z M273,165h-4.5v1.9h4.5V165z"/>
		</g>
		<g class="st5">
			<path class="st3" d="M205.3,195.3v-3.6h1.5v3.6h7.8v1.4H208c1.3,3.2,3.7,6,7.2,8.5l-1,1.2c-3.5-2.9-6-6.1-7.3-9.8h-0.2v7.8h4.3
				v1.4h-4.3v4.1h-1.5v-4.1h-4.1v-1.4h4.1v-7.8h-0.1c-1.5,4.1-4,7.4-7.6,10l-0.8-1.3c3.4-2.2,5.8-5.1,7.2-8.7h-6.5v-1.4H205.3z"/>
			<path class="st3" d="M224.7,198.2c-1.7,1.6-3.9,3-6.5,4.1l-0.6-1.3c2.5-1,4.6-2.2,6.2-3.8L224.7,198.2z M233,208h2.5v1.4h-17.7
				V208h2.6v-6.4H233V208z M223.3,195.2c-0.6-0.9-1.5-1.8-2.5-2.8l1.2-0.7c1.1,1.1,1.9,2.1,2.5,2.9l-0.9,0.7h5.1
				c0.8-1.1,1.5-2.3,2.1-3.6l1.4,0.5c-0.6,1.2-1.2,2.2-1.9,3.1h4.8v1.4h-16.9v-1.4H223.3z M224.1,208v-5.1h-2.4v5.1H224.1z
				 M227.9,208v-5.1h-2.4v5.1H227.9z M235.6,201.1l-0.8,1.3c-2-1.7-4.1-3-6.1-3.9l0.7-1.1C231.7,198.4,233.7,199.6,235.6,201.1z
				 M231.6,208v-5.1h-2.4v5.1H231.6z"/>
			<path class="st3" d="M241.1,207.9c1.8-0.4,3.5-0.9,5.2-1.4l0.4,1.3c-2.2,0.7-4.6,1.3-7.1,1.9l-0.4-1.3c0.3-0.2,0.5-0.5,0.5-0.8
				V192h1.4v5.5h5.1v1.4h-5.1V207.9z M249.7,209.4c-1.3,0-1.9-0.7-1.9-2v-15.5h1.5v5.9l6.2-0.4v1.4l-6.2,0.4v8
				c0,0.6,0.3,0.9,0.9,0.9h3c0.4,0,0.7-0.1,0.9-0.4c0.3-0.3,0.5-1.5,0.6-3.6l1.4,0.4c-0.2,2.3-0.5,3.7-0.9,4.2
				c-0.4,0.4-1,0.6-1.7,0.6H249.7z"/>
			<path class="st3" d="M267.6,191.7v6.2h7.4v1.4h-7.4v8.6h9.1v1.4h-17.8v-1.4h7.2v-16.1H267.6z"/>
			<path class="st3" d="M282.1,194.3c-0.3-0.8-0.6-1.6-1-2.3l1.4-0.4c0.4,0.9,0.7,1.7,0.9,2.4l-0.8,0.3h2.9v1.3h-6.1v-1.3H282.1z
				 M285,208.6h-3.7v1.1H280V203h5.1V208.6z M284.9,197.2v1.2h-4.7v-1.2H284.9z M284.9,200v1.2h-4.7V200H284.9z M283.7,207.4v-3.2
				h-2.4v3.2H283.7z M296.8,208.2c0,1.1-0.5,1.7-1.5,1.7h-2l-0.3-1.3c0.7,0,1.3,0.1,1.9,0.1c0.4,0,0.6-0.3,0.6-1v-7.2h-7.6v2.2
				c0,3.1-0.5,5.5-1.3,7.5l-1.1-1c0.7-1.7,1-3.8,1.1-6.4v-10.2h10.3V208.2z M291,195.9v-2.2h-3.1v2.2H291z M291,199.2v-2.1h-3.1v2.1
				H291z M294.1,202v5.1h-5V202H294.1z M293,203.1h-2.7v2.7h2.7V203.1z M295.5,195.9v-2.2h-3.2v2.2H295.5z M295.5,199.2v-2.1h-3.2
				v2.1H295.5z"/>
		</g>
		<g class="st5">
			<path class="st2" d="M214.1,232.3v1.4h-14.4V248h14.9v1.4h-16.3v-17H214.1z M203.5,240.3l-0.9,0.9c-0.5-0.7-1.3-1.4-2.2-2.1
				l0.9-0.9C202.2,238.9,202.9,239.6,203.5,240.3z M204.1,242.6c-0.6,1.6-1.3,3.1-2.1,4.5l-1.3-0.5c0.8-1.4,1.5-2.9,2.2-4.4
				L204.1,242.6z M204.2,236.7l-0.9,0.9c-0.6-0.6-1.4-1.3-2.4-2l0.9-0.9C202.7,235.4,203.5,236.1,204.2,236.7z M204.1,241.1
				l-0.4-1.3c1.5-1.6,2.5-3.3,3.1-5.2l1.3,0.3c-0.3,0.8-0.6,1.5-0.9,2.2h2.6c-0.2-0.8-0.5-1.5-0.8-2.1l1.4-0.2
				c0.3,0.7,0.5,1.5,0.7,2.3h3v1.2h-3.1v1.6h2.7v1.1h-2.7v1.6h2.7v1.1h-2.7v1.6h3.4v1.2h-8.9v-6.8
				C204.9,240.1,204.5,240.6,204.1,241.1z M206.7,238.3v1.6h2.9v-1.6H206.7z M206.7,241v1.6h2.9V241H206.7z M206.7,243.7v1.6h2.9
				v-1.6H206.7z"/>
			<path class="st2" d="M225.9,233.3c-0.3-0.6-0.6-1.2-0.9-1.7l1.5-0.2c0.3,0.6,0.6,1.2,0.9,1.9h7.9v1.4h-8.4
				c-0.6,1.1-1.2,2.1-2,2.8l2.6-0.2c0.5-0.6,0.9-1.2,1.4-1.8l1.3,0.5c-1.9,2.4-3.6,4.3-5.1,5.5c1.3-0.2,2.5-0.3,3.7-0.5
				c-0.2-0.5-0.5-1-0.7-1.4l1.2-0.4c0.7,1.2,1.2,2.4,1.7,3.7l-1.3,0.6c-0.2-0.5-0.3-0.9-0.5-1.4c-0.6,0.1-1.3,0.2-2,0.3v2.3h8.2v1.4
				h-8.2v4.1h-1.5V246h-8.2v-1.4h8.2v-2.2c-0.9,0.1-1.8,0.2-2.8,0.3l-0.3-1.3l0.5-0.1c0.9-0.5,1.9-1.5,3.2-2.9
				c-1.1,0.1-2.2,0.2-3.4,0.3l-0.3-1.2c1-0.6,1.9-1.6,2.5-2.9H218v-1.4H225.9z M222.4,240.2c-1,1.3-2.1,2.3-3.3,3.2l-1-1.1
				c1.2-0.8,2.2-1.8,3.2-2.9L222.4,240.2z M222.2,237.8l-1,1c-0.7-0.8-1.6-1.6-2.8-2.5l1-1C220.5,236.2,221.4,237,222.2,237.8z
				 M234.6,236.1c-0.9,1.1-1.8,1.9-2.8,2.7l-0.9-1c1-0.7,1.8-1.5,2.6-2.4L234.6,236.1z M235,242.3l-1,1c-0.7-1-1.7-2-3-3.1l0.9-0.9
				C233.1,240.3,234.2,241.3,235,242.3z"/>
			<path class="st2" d="M248.3,233c-1.2,0.5-2.4,0.9-3.6,1.3v5h5.4v-7.4h1.5v7.4h4.6v1.4h-4.6v9.3H250v-9.3h-5.4
				c-0.2,4.2-1.9,7.3-5,9.3l-1.1-0.9c2.8-1.8,4.4-4.6,4.6-8.4h-4.8v-1.4h4.9v-4.7c-1.3,0.3-2.6,0.5-4,0.6l-0.5-1.3
				c3.5-0.3,6.5-1,8.9-2.1L248.3,233z"/>
			<path class="st2" d="M259.1,241.3l-0.5-1.5c2-2.4,3.4-5.1,4.3-8.2l1.3,0.6c-0.4,1.3-0.9,2.5-1.5,3.7V250h-1.4v-11.6
				C260.7,239.4,260,240.4,259.1,241.3z M271.5,231.8c0,0.6-0.1,1.2-0.1,1.8h5v1.3h-5.1c-0.1,0.6-0.2,1.2-0.3,1.7h4.1v11.5h1.9v1.3
				h-13.1v-1.3h2.1v-11.5h3.7c0.1-0.6,0.2-1.2,0.3-1.7h-5.1v-1.3h5.3c0.1-0.7,0.1-1.3,0.2-2L271.5,231.8z M273.7,239.5v-1.6h-6.4
				v1.6H273.7z M273.7,242.3v-1.6h-6.4v1.6H273.7z M273.7,245.2v-1.7h-6.4v1.7H273.7z M273.7,248.1v-1.8h-6.4v1.8H273.7z"/>
		</g>
		<g class="st5">
			<path class="st1" d="M204.1,278.2c0,1.1-0.6,1.7-1.7,1.7h-1.6l-0.3-1.3c0.6,0,1.1,0.1,1.6,0.1s0.7-0.3,0.7-1V273
				c-1,0.2-2.1,0.5-3.2,0.6c-0.2,2.6-0.7,4.7-1.7,6.4l-1.1-1c1-1.8,1.4-4.2,1.5-7v-9.7h5.9V278.2z M202.8,267.8v-4.1h-3.2v3.4
				C200.7,267.3,201.7,267.5,202.8,267.8z M202.8,271.8V269c-1-0.3-2.1-0.5-3.2-0.7v4C200.7,272.2,201.8,272,202.8,271.8z
				 M213.7,270.2v1.3c-0.5,1.9-1.4,3.5-2.7,4.9c1.2,0.9,2.6,1.7,4.2,2.4l-0.8,1.2c-1.8-0.8-3.2-1.7-4.4-2.7c-1.3,1.1-2.9,2-4.7,2.6
				l-0.8-1.2c1.8-0.6,3.2-1.4,4.4-2.4c-1.4-1.4-2.3-3-2.8-4.8h-1v-1.4H213.7z M212.7,262.4v4.4c0,0.4,0.2,0.6,0.6,0.6h1.6v1.3H213
				c-1.1,0-1.7-0.6-1.7-1.7v-3.3h-3.4v1.2c0,1.9-0.7,3.4-2.1,4.4l-1-1.1c1.1-0.8,1.7-1.8,1.7-3.2v-2.7H212.7z M210,275.4
				c1.1-1.1,1.9-2.4,2.4-3.9h-4.8C208,273,208.8,274.3,210,275.4z"/>
			<path class="st1" d="M220.8,274.6c-0.5,1.8-1.1,3.4-2,4.8l-1.2-0.8c0.9-1.3,1.5-2.7,1.9-4.3L220.8,274.6z M224.8,263.1
				c0.3-0.5,0.5-1,0.6-1.6l1.5,0.2c-0.2,0.5-0.4,1-0.6,1.4h6.6v9.8h-12.5v-9.8H224.8z M231.5,266v-1.6h-9.7v1.6H231.5z M231.5,268.8
				v-1.6h-9.7v1.6H231.5z M231.5,270h-9.7v1.7h9.7V270z M223.9,279.7c-1.2,0-1.7-0.6-1.7-1.7v-3.8h1.5v3.5c0,0.5,0.2,0.7,0.7,0.7
				h4.4c0.5,0,0.8-0.1,0.9-0.3c0.2-0.3,0.4-1.1,0.5-2.4l1.4,0.4c-0.2,1.7-0.4,2.7-0.8,3.1c-0.4,0.3-0.9,0.5-1.7,0.5H223.9z
				 M228.9,276.2l-1.1,0.8c-0.6-0.9-1.4-1.8-2.4-2.8l1.1-0.7C227.5,274.5,228.3,275.4,228.9,276.2z M235.8,278.1l-1.1,0.8
				c-0.7-1.3-1.7-2.7-2.9-4.3l1.1-0.7C234.1,275.5,235.1,276.9,235.8,278.1z"/>
		</g>
		<rect id="Rectangle-8-Copy-8" y="452" class="st6" width="320" height="2"/>
		<g class="st5">
			<path class="st7" d="M59.6,476.3c0.7,0.6,1,1.4,1,2.4s-0.4,1.9-1.1,2.7c-0.4,0.4-1.2,1-2.4,1.8c-1.5,1-2.3,1.9-2.5,2.6h6v1.2H53
				c0-1,0.4-2,1.1-2.8c0.4-0.5,1.3-1.2,2.5-2c0.9-0.6,1.5-1.1,1.8-1.4c0.6-0.6,0.9-1.3,0.9-2c0-0.7-0.2-1.2-0.6-1.6s-1-0.6-1.7-0.6
				c-0.8,0-1.4,0.3-1.8,0.8c-0.4,0.5-0.7,1.3-0.7,2.3h-1.3c0-1.3,0.4-2.3,1.1-3.1c0.7-0.8,1.6-1.2,2.8-1.2
				C58,475.3,58.9,475.7,59.6,476.3z"/>
			<path class="st7" d="M70,477.2c0.6,1,0.9,2.4,0.9,4.1c0,1.7-0.3,3.1-0.9,4.1c-0.7,1.2-1.7,1.8-3.1,1.8c-1.4,0-2.4-0.6-3.1-1.8
				c-0.6-1-0.9-2.4-0.9-4.1c0-1.7,0.3-3.1,0.9-4.1c0.7-1.2,1.7-1.8,3.1-1.8C68.2,475.3,69.3,475.9,70,477.2z M64.7,478.1
				c-0.3,0.8-0.5,1.8-0.5,3.2c0,1.3,0.2,2.4,0.5,3.2c0.4,1.1,1.2,1.6,2.2,1.6s1.8-0.6,2.2-1.6c0.3-0.8,0.5-1.8,0.5-3.2
				c0-1.3-0.2-2.4-0.5-3.2c-0.4-1.1-1.2-1.6-2.2-1.6S65.1,477,64.7,478.1z"/>
			<path class="st7" d="M76.9,475.6V487h-1.3v-9.8c-0.7,0.7-1.6,1.2-2.7,1.6v-1.3c0.5-0.1,1.1-0.4,1.6-0.7c0.5-0.4,1-0.7,1.4-1.2
				H76.9z"/>
			<path class="st7" d="M87.1,475.6v1.1L82.9,487h-1.4l4.3-10.2h-6.2v-1.2H87.1z"/>
			<path class="st7" d="M89.8,479.7l-0.8-1c1.6-1.2,2.7-2.9,3.3-4.9l1.2,0.2c-0.2,0.6-0.4,1.2-0.6,1.7h9.9v1.1h-5v2.6h4.5v1.1h-4.5
				v3.5h5.5v1.1h-5.5v3.6h-1.2v-3.6h-7.4V484h2.6v-4.6h4.8v-2.6h-4.3C91.6,478,90.8,478.9,89.8,479.7z M96.6,484v-3.5H93v3.5H96.6z"
				/>
			<path class="st7" d="M108,483.9c-0.4,1.6-1,3-1.7,4.2l-0.9-0.6c0.7-1.2,1.3-2.4,1.6-3.8L108,483.9z M105.6,480v-1h1.9
				c-0.2-0.6-0.5-1.2-0.8-1.8l1-0.4c0.3,0.6,0.5,1.3,0.8,2.2h1.7c0.3-0.7,0.5-1.4,0.7-2.2l1,0.4c-0.2,0.7-0.5,1.3-0.7,1.8h1.8v1
				h-3.1v1.8h2.9v1h-2.9v5.8h-1.2v-5.8h-2.9v-1h2.9V480H105.6z M108.8,475.3c-0.2-0.5-0.4-0.9-0.7-1.3l1.2-0.2
				c0.2,0.4,0.4,1,0.6,1.5h3v1.1h-7.2v-1.1H108.8z M112.6,486.4l-1,0.4c-0.3-1-0.6-2-1-2.9l1-0.3C112,484.6,112.3,485.6,112.6,486.4
				z M119.7,475.1c-1.4,0.5-3,0.8-4.7,0.9v2.9h5.1v1.1h-1.7v8.5h-1.1v-8.5H115v1.8c-0.1,2.8-0.7,5-1.8,6.7l-0.8-0.8
				c1-1.4,1.5-3.3,1.6-5.8v-6.8c1.9,0,3.7-0.4,5.2-1L119.7,475.1z"/>
			<path class="st7" d="M132.2,483.9h1.8l0.1-2.2h-1.4v-1h1.5l0.1-2h-1.6v-1h1.6l0.1-2.2h-1.7v-1.1h2.8l-0.3,9.3h1.2v1.1h-14.3v-1.1
				h1.3l-0.4-9c1-0.2,1.8-0.5,2.6-0.9l0.4,1c-0.4,0.2-1,0.5-1.9,0.7l0.1,2.1h1.6v1h-1.5l0.1,2h1.5v1h-1.4l0.1,2.2h1.8v-9.3h5.9
				V483.9z M127.7,486c-1.2,1-2.8,1.8-4.6,2.6l-0.7-0.9c1.8-0.7,3.3-1.5,4.5-2.3L127.7,486z M131.3,483.9v-8.4h-4v8.4H131.3z
				 M130.6,476.6v0.8H128v-0.8H130.6z M130.5,478.5v4.3H128v-4.3H130.5z M129.8,479.3h-1v2.7h1V479.3z M136.3,487.6l-0.7,1
				c-1.6-1.1-3.2-2-4.8-2.6l0.6-0.9C133.2,485.8,134.8,486.7,136.3,487.6z"/>
			<path class="st7" d="M145.1,475.8c-0.3-0.7-0.5-1.3-0.8-1.8l1.2-0.2c0.3,0.6,0.5,1.3,0.8,2h6.5v1.1h-6.5v2.1h5.2v5.8
				c0,1-0.5,1.5-1.5,1.5h-1.6l-0.3-1.1l1.5,0.1c0.4,0,0.7-0.2,0.7-0.7v-4.4h-4v8.5h-1.2v-8.5h-3.9v6.3h-1.1V479h5v-2.1h-6.5v-1.1
				H145.1z"/>
			<path class="st7" d="M156.8,478.2V474h1.1v4.2h1.7v1.1h-1.7v5.3c0.6-0.2,1.2-0.4,1.7-0.7v1.1c-1.4,0.6-2.9,1.1-4.5,1.6l-0.3-1.1
				c0.7-0.1,1.3-0.3,2-0.5v-5.7H155v-1.1H156.8z M169.5,480.2v1h-6.1c-0.2,0.4-0.4,0.7-0.6,1h6.2c0,1.5-0.1,2.8-0.2,3.7
				c-0.1,0.9-0.3,1.6-0.6,2c-0.3,0.4-0.8,0.5-1.4,0.6h-1.2l-0.3-1c0.3,0,0.7,0,1,0c0.7,0,1.1-0.3,1.3-0.8c0.2-0.5,0.3-1.7,0.4-3.5
				H167c-1.1,2.7-2.9,4.5-5.3,5.3l-0.6-0.9c2.3-0.8,4-2.2,4.9-4.4h-1.4c-0.8,1.4-2.2,2.6-4.1,3.4l-0.7-0.8c1.7-0.7,2.9-1.5,3.6-2.6
				h-1.6c-0.4,0.4-1,0.8-1.5,1.1l-0.6-0.9c1.2-0.6,2-1.4,2.6-2.2H160v-1H169.5z M168.3,474.5v4.8H161v-4.8H168.3z M167.3,476.5v-1.1
				H162v1.1H167.3z M167.3,477.3H162v1.1h5.2V477.3z"/>
			<path class="st7" d="M177.2,487.1c0,0.9-0.4,1.4-1.3,1.4h-1.3l-0.3-1c0.4,0,0.9,0.1,1.3,0.1s0.6-0.3,0.6-0.8V483
				c-0.8,0.2-1.7,0.4-2.6,0.5c-0.2,2-0.6,3.7-1.3,5.1l-0.9-0.8c0.8-1.5,1.2-3.3,1.2-5.6v-7.7h4.7V487.1z M176.1,478.8v-3.3h-2.5v2.7
				C174.4,478.4,175.3,478.6,176.1,478.8z M176.1,482v-2.2c-0.8-0.2-1.7-0.4-2.5-0.6v3.2C174.5,482.3,175.3,482.2,176.1,482z
				 M184.9,480.7v1.1c-0.4,1.5-1.1,2.8-2.1,3.9c0.9,0.7,2,1.3,3.4,1.9l-0.6,1c-1.4-0.6-2.6-1.3-3.5-2.1c-1,0.9-2.3,1.6-3.8,2.1
				l-0.6-1c1.4-0.5,2.6-1.2,3.6-1.9c-1.1-1.1-1.9-2.4-2.2-3.8h-0.8v-1.1H184.9z M184.1,474.5v3.5c0,0.3,0.2,0.5,0.5,0.5h1.2v1.1
				h-1.5c-0.9,0-1.3-0.4-1.3-1.3v-2.6h-2.7v1c0,1.5-0.6,2.7-1.7,3.6l-0.8-0.9c0.9-0.6,1.3-1.5,1.3-2.6v-2.2H184.1z M181.9,485
				c0.8-0.9,1.5-1.9,1.9-3.1h-3.8C180.3,483,180.9,484,181.9,485z"/>
			<path class="st7" d="M194.5,475.8c-0.3-0.7-0.5-1.3-0.8-1.8l1.2-0.2c0.3,0.6,0.5,1.3,0.8,2h6.5v1.1h-6.5v2.1h5.2v5.8
				c0,1-0.5,1.5-1.5,1.5h-1.6l-0.3-1.1l1.5,0.1c0.4,0,0.7-0.2,0.7-0.7v-4.4h-4v8.5h-1.2v-8.5h-3.9v6.3h-1.1V479h5v-2.1h-6.5v-1.1
				H194.5z"/>
			<path class="st7" d="M208.6,473.9v1.7h2.5v1h-2.5v1.9h3.1v1.1h-1.4c-0.1,0.8-0.3,1.6-0.5,2.3h1.4v1h-2.5v1.9h3.1v1.1h-3.1v2.8
				h-1.1v-2.8h-3.2v-1.1h3.2v-1.9h-2.6v-1h1.4c-0.2-0.8-0.3-1.6-0.5-2.3h-1.4v-1.1h3.1v-1.9H205v-1h2.5v-1.7H208.6z M209.3,479.6
				h-2.5c0.2,0.7,0.4,1.4,0.5,2.3h1.4C209,481.1,209.2,480.4,209.3,479.6z M213.2,488.6h-1.1v-14h6.1c0,1.8-0.1,3-0.3,3.6
				c-0.2,0.6-0.8,0.9-1.8,0.9h-1.1l-0.3-1c0.2,0,0.5,0,0.8,0c0.4,0,0.7,0,0.8-0.1c0.2-0.1,0.3-0.2,0.4-0.4c0.1-0.3,0.2-1,0.2-2h-3.9
				v4.7h5.1v1c-0.3,1.8-0.8,3.2-1.6,4.5c0.6,0.7,1.4,1.4,2.3,1.9l-0.8,0.9c-0.8-0.6-1.6-1.3-2.1-1.9c-0.6,0.8-1.4,1.5-2.3,2l-0.6-1
				c0.8-0.5,1.6-1.1,2.1-1.9c-1-1.3-1.6-2.8-1.8-4.4h-0.4V488.6z M216.1,484.8c0.6-1,1-2.2,1.2-3.5h-2.6
				C214.9,482.6,215.3,483.8,216.1,484.8z"/>
			<path class="st7" d="M220.9,475.6v-1h6.2v1h-1.8v1.9h1.4v10h-4.5v1h-0.8v-11h1.4v-1.9H220.9z M225.8,486.5v-4h-0.6
				c-0.5,0-0.8-0.3-0.8-0.8v-3.3h-0.9v1.2c0,1.7-0.4,2.9-1,3.7l-0.4-0.3v3.7H225.8z M222.9,479.5v-1.2h-0.8v4.2
				C222.7,481.9,222.9,480.9,222.9,479.5z M225.3,483.9v1h-2.7v-1H225.3z M224.4,475.6h-0.9v1.9h0.9V475.6z M225,481.5
				c0,0.2,0.1,0.3,0.3,0.3h0.5v-3.4H225V481.5z M228.4,482.2l-0.7,0.3c-0.3-1.5-0.6-2.8-0.9-3.9l0.6-0.3
				C227.8,479.5,228.1,480.8,228.4,482.2z M229.6,474.1v7.1c0,3.4-0.6,5.9-1.8,7.5l-0.8-0.7c1.1-1.4,1.6-3.6,1.6-6.8v-7.1H229.6z
				 M231.1,482.2l-0.5,0.3c-0.3-1.5-0.5-2.8-0.8-3.9l0.5-0.2C230.6,479.5,230.9,480.8,231.1,482.2z M232.2,474.1v14.3h-0.9v-14.3
				H232.2z M233.7,482.2l-0.5,0.3c-0.2-1.5-0.5-2.8-0.8-3.9l0.5-0.2C233.2,479.5,233.5,480.8,233.7,482.2z M234.9,474v14.5h-1V474
				H234.9z"/>
			<path class="st7" d="M238.1,488.7l-0.8-0.7c0.6-1.2,0.9-2.7,0.9-4.5v-4.9c-0.1,0.1-0.1,0.1-0.2,0.2l-0.7-0.8c0.9-1,1.7-2.4,2.4-4
				l1,0.2c-0.1,0.4-0.3,0.7-0.4,1h2.8v0.8c-0.4,0.7-0.7,1.3-1.1,1.8h1.9v9.6c0,0.8-0.4,1.2-1.2,1.2h-1.1l-0.3-1c0.4,0,0.7,0.1,1,0.1
				c0.4,0,0.5-0.2,0.5-0.6v-2.2h-3.9C239,486.3,238.7,487.7,238.1,488.7z M242,476.1h-2.1c-0.3,0.6-0.7,1.2-1,1.7h2.1
				C241.3,477.3,241.6,476.7,242,476.1z M239.2,483.4c0,0.1,0,0.3,0,0.4h1.5v-2.1h-1.4V483.4z M240.7,478.7h-1.4v2h1.4V478.7z
				 M243.1,478.7h-1.5v2h1.5V478.7z M241.6,483.8h1.5v-2.1h-1.5V483.8z M245.1,484l-0.7-0.8c0.7-0.8,1.2-1.8,1.4-3.1l1,0.2
				c-0.1,0.4-0.2,0.8-0.3,1.2h1.5V480h1.1v1.5h2.4v1h-2.4v2h2.7v1h-2.7v3.1H248v-3.1h-3.5v-1h3.5v-2h-1.9
				C245.8,483.1,245.5,483.6,245.1,484z M244.6,475.9v-1h6.7c0,2.2-0.1,3.5-0.4,3.9c-0.3,0.4-0.8,0.6-1.5,0.6c-0.4,0-0.8,0-1.3-0.1
				l-0.3-1c0.5,0,1,0.1,1.4,0.1c0.4,0,0.7-0.2,0.8-0.4c0.1-0.3,0.2-1,0.2-2.1h-2.4c-0.2,0.7-0.4,1.4-0.7,2c-0.4,0.7-1,1.3-1.8,1.8
				l-0.7-0.9c0.7-0.4,1.3-0.9,1.6-1.5c0.2-0.4,0.4-0.9,0.5-1.4H244.6z"/>
			<path class="st7" d="M257.5,488.6h-1.1v-8.2c-0.5,1.6-1.3,3.1-2.2,4.4l-0.5-1.2c1.2-1.6,2.1-3.4,2.6-5.4H254v-1.1h2.3v-3.1h1.1
				v3.1h2.2v1.1h-2.2v0.9c0.8,0.8,1.5,1.7,2.3,2.7l-0.6,0.9c-0.6-1-1.2-1.8-1.7-2.4V488.6z M267.8,475c-1.8,0.7-3.9,1-6.1,1.2v2.9
				h6.5v1.1h-2.4v8.4h-1.2v-8.4h-3v0.2c-0.1,3.4-0.9,6.1-2.4,8.1l-0.8-0.8c1.3-1.8,2-4.2,2.1-7.3v-5.1c2.5-0.1,4.7-0.5,6.6-1.2
				L267.8,475z"/>
		</g>
		<g class="st5">
			<path class="st7" d="M13.2,11.2c1.2,1.1,1.8,2.5,1.8,4.2c0,1.7-0.7,3.3-2,4.7c-0.7,0.7-2.1,1.8-4.1,3.2c-2.5,1.7-4,3.2-4.4,4.6
				h10.5v2H1.7c0-1.8,0.6-3.5,2-5c0.8-0.9,2.2-2.1,4.3-3.6c1.6-1.1,2.6-1.9,3.1-2.5c1-1.1,1.5-2.3,1.5-3.6c0-1.2-0.4-2.2-1.1-2.8
				s-1.8-1-3.1-1c-1.4,0-2.4,0.4-3.2,1.4c-0.8,0.9-1.2,2.2-1.2,4H1.9c0-2.2,0.6-4,1.9-5.3c1.2-1.3,2.9-2,4.9-2
				C10.5,9.6,12,10.1,13.2,11.2z"/>
			<path class="st7" d="M31.4,12.8C32.5,14.6,33,17,33,20c0,3-0.5,5.4-1.6,7.2c-1.2,2.1-3,3.2-5.4,3.2c-2.4,0-4.2-1.1-5.4-3.2
				C19.5,25.4,19,23,19,20c0-3,0.5-5.4,1.6-7.2c1.2-2.1,3-3.2,5.4-3.2C28.4,9.6,30.2,10.7,31.4,12.8z M22.1,14.5
				c-0.6,1.3-0.8,3.2-0.8,5.5c0,2.3,0.3,4.2,0.8,5.5c0.8,1.9,2.1,2.9,3.9,2.9s3.1-1,3.9-2.9c0.6-1.4,0.9-3.2,0.9-5.5
				c0-2.4-0.3-4.2-0.9-5.5c-0.8-1.9-2.1-2.9-3.9-2.9S22.9,12.5,22.1,14.5z"/>
			<path class="st7" d="M43.5,10v20h-2.3V12.8c-1.3,1.3-2.8,2.2-4.7,2.7v-2.3c0.9-0.3,1.8-0.6,2.8-1.2c1-0.6,1.7-1.3,2.4-2H43.5z"/>
			<path class="st7" d="M61.3,10v1.9L54,30h-2.4L59,12.1H48.2V10H61.3z"/>
			<path class="st7" d="M66,17.2l-1.3-1.7c2.8-2.1,4.7-5,5.7-8.7l2.1,0.4c-0.3,1.1-0.7,2-1.1,3h17.4v2H80v4.5h7.8v1.9H80v6h9.7v2H80
				v6.2h-2v-6.2H65v-2h4.6v-8H78v-4.5h-7.5C69.3,14.2,67.8,15.9,66,17.2z M78,24.7v-6h-6.3v6H78z"/>
			<path class="st7" d="M98.6,18.5l-1.4,1.4c-1-1.3-2.3-2.6-3.9-4l1.4-1.4C96.3,15.8,97.6,17.1,98.6,18.5z M98.7,22.6
				c-1,3.6-2,6.9-3.1,10l-1.9-0.8c1.2-3.2,2.3-6.5,3.2-9.9L98.7,22.6z M99.5,11.9l-1.4,1.4c-1-1.3-2.3-2.7-4-4.1l1.4-1.4
				C97,9.1,98.4,10.5,99.5,11.9z M101.6,21.1h4.5c0,4.6-0.1,7.6-0.4,9.1c-0.3,1.6-1.4,2.4-3.4,2.5c-0.6,0-1.1-0.1-1.7-0.1l-0.5-1.7
				c0.6,0.1,1.2,0.1,1.8,0.1c1.2,0,1.9-0.5,2.1-1.5c0.2-1.1,0.3-3.2,0.3-6.6h-4.5l0.7-8.3h3.7V10h-4.3V8.2h6.1v8.1h-3.9L101.6,21.1z
				 M117.9,10h-7.5v2.3h6.6V14h-6.6v2.3h6.6v1.7h-6.6v2.3h8.2v1.8h-8.4v8.3c1.1-0.3,2.2-0.8,3.3-1.3l0.3,1.7
				c-1.6,0.8-3.5,1.4-5.6,1.9l-0.8-1.5c0.6-0.2,0.9-0.5,0.9-1v-8h-1.7v-1.8h1.8V8.2h9.4V10z M114.7,25.5c1-0.6,1.9-1.4,2.8-2.5
				l1.2,1.2c-1,1.2-2.1,2.1-3.3,2.7c1.1,1.9,2.4,3.3,4.1,4.3l-1.1,1.6c-2.9-1.6-4.9-4.6-6.1-9l1.5-0.8
				C114,23.8,114.3,24.7,114.7,25.5z"/>
			<path class="st7" d="M128.4,27.9l0-0.1v4.9h-1.7V13.4h-2v14.8H123V11.6h3.6V7.1h1.7v4.5h3.6v14.3c0,1.3-0.7,2-2,2H128.4z
				 M128.4,26.3l1.1,0c0.5,0,0.8-0.3,0.8-0.8V13.4h-1.9V26.3z M147.4,8.2V10H133V8.2H147.4z M146.9,32.8H145v-1.2h-9.6v1.2h-1.9
				V20.2h13.4V32.8z M145.8,12v6.2h-11.1V12H145.8z M139.2,25v-3.1h-3.9V25H139.2z M139.2,29.8v-3.1h-3.9v3.1H139.2z M143.9,13.6
				h-7.3v2.9h7.3V13.6z M141.1,25h3.9v-3.1h-3.9V25z M145,29.8v-3.1h-3.9v3.1H145z"/>
			<path class="st7" d="M152.4,13.9v-2H163c-0.5-1.5-1.1-2.9-1.7-4.3l2-0.5c0.7,1.6,1.2,3.1,1.6,4.4l-1.1,0.4h11.5v2h-10.4v6.6h9.1
				v1.9h-9.1v7.5h11.4v2h-24.8v-2h11.4v-7.5h-9.1v-1.9h9.1v-6.6H152.4z"/>
			<path class="st7" d="M205,8.2v1.8h-8.3v2.5h6.5v7.1h-11.6c-0.5,0.9-1,1.7-1.4,2.5h15.1V24h-6c-0.6,1.7-1.6,3.1-3.1,4.3
				c2.9,0.9,5.8,1.9,8.7,3.1l-1.3,1.7c-3.1-1.3-6.2-2.5-9.3-3.5c-2.7,1.4-7,2.5-13.1,3.4l-0.8-1.8c5-0.6,8.8-1.4,11.3-2.4
				c-2.3-0.7-4.6-1.3-7-1.8c0.7-1,1.3-2,1.9-2.9h-6.9v-1.8h8c0.5-0.9,1-1.7,1.4-2.5H182v-7.1h6.5v-2.5h-8.3V8.2H205z M188.5,14.3
				h-4.6v3.6h4.6V14.3z M197.3,24h-8.2c-0.5,0.8-0.9,1.5-1.3,2.1c2.1,0.4,4.2,1,6.3,1.6C195.7,26.6,196.7,25.4,197.3,24z
				 M194.8,10.1h-4.4v2.5h4.4V10.1z M194.8,14.3h-4.4v3.6h4.4V14.3z M201.3,14.3h-4.6v3.6h4.6V14.3z"/>
			<path class="st7" d="M220.4,12.1h-10.3v-1.9h10.3v-3h2.1v3h10.3v1.9h-10.3v7.8c3,4.1,6.9,7.4,11.8,9.7l-1.1,1.9
				c-4.1-2.1-7.7-5-10.7-8.6v9.9h-2.1v-9.8c-2.7,3.5-6.2,6.3-10.6,8.6l-1-1.8c5-2.5,8.9-5.8,11.6-9.7V12.1z M211,22.6l-1.3-1.5
				c2.4-2,4.1-4.6,4.9-7.9l1.9,0.3c-0.4,1.5-0.9,2.8-1.5,4c1.3,0.8,2.6,1.6,3.7,2.6l-1.1,1.7c-1.2-1.1-2.4-2-3.5-2.7
				C213.2,20.4,212.2,21.6,211,22.6z M225.5,21.8l-1.2-1.6c2-1.7,3.4-4.1,4.1-7.1l1.9,0.3c-0.3,1.3-0.8,2.6-1.3,3.7
				c1.5,0.9,2.9,2,4.2,3.1l-1.1,1.7c-1.3-1.3-2.7-2.4-4-3.2C227.4,19.9,226.5,21,225.5,21.8z"/>
			<path class="st7" d="M259.7,32.8h-2V31h-14.7v1.7h-2V10.5h6c0.6-1.1,1.1-2.2,1.4-3.4l2,0.3c-0.3,1.1-0.8,2.2-1.3,3.1h10.7V32.8z
				 M257.6,16.6v-4.2h-14.7v4.2H257.6z M257.6,22.7v-4.3h-14.7v4.3H257.6z M257.6,29.1v-4.6h-14.7v4.6H257.6z"/>
		</g>
		<g class="st5">
			<path class="st7" d="M5.7,62.1H1.1v-1.9h4.7c0.2-2.1,0.3-4.3,0.4-6.4h17.4l-0.2,6.4h3.5v1.9h-3.6c-0.1,2-0.2,3.6-0.2,4.8h3.1v1.9
				H23c-0.1,0.7-0.1,1.2-0.2,1.4c-0.3,0.9-0.7,1.5-1.5,2c-0.7,0.4-1.7,0.6-3.1,0.6c-1,0-2.1,0-3.3,0l-0.6-1.9
				c1.3,0.1,2.5,0.1,3.6,0.1c0.7,0,1.3-0.1,1.8-0.2c0.5-0.2,0.9-0.6,1.1-1.2c0.1-0.1,0.1-0.4,0.1-0.8H4.6
				C5.1,66.6,5.4,64.4,5.7,62.1z M2.7,57l-1.3-1.6c2.4-2.2,4.4-5,5.9-8.5l2,0.5c-0.3,0.7-0.7,1.5-1,2.1h17.2v1.9H7.3
				C6,53.6,4.5,55.5,2.7,57z M21.4,62.1H7.7c-0.2,1.7-0.4,3.3-0.7,4.8h14.2C21.2,65.7,21.3,64.1,21.4,62.1z M16.6,60.2
				c-1.8-1.1-3.6-2-5.5-2.7l0.9-1.3c2,0.7,3.9,1.6,5.6,2.6l-0.9,1.4h4.8c0.1-1.4,0.1-2.9,0.1-4.6H8.1c-0.1,1.6-0.1,3.1-0.3,4.6H16.6
				z M17.4,65.3l-1,1.5c-1.8-1.2-3.7-2.1-5.6-2.8l0.9-1.3C13.9,63.4,15.7,64.3,17.4,65.3z"/>
			<path class="st7" d="M40.2,70.3c0,1.6-0.8,2.4-2.4,2.4h-2.3l-0.5-1.8c0.8,0.1,1.5,0.1,2.2,0.1s1-0.5,1-1.4v-6.5
				c-1.4,0.3-2.9,0.6-4.5,0.9c-0.3,3.6-1,6.6-2.3,8.9l-1.5-1.4c1.3-2.6,2-5.8,2.1-9.8V48.2h8.2V70.3z M38.3,55.7V50h-4.5v4.8
				C35.4,55,36.8,55.3,38.3,55.7z M38.3,61.3v-3.8c-1.5-0.4-2.9-0.7-4.5-1V62C35.4,61.8,36.9,61.6,38.3,61.3z M53.6,59.1v1.9
				c-0.7,2.7-2,4.9-3.7,6.8c1.6,1.3,3.6,2.4,5.9,3.3l-1.1,1.7c-2.5-1.1-4.5-2.4-6.2-3.7c-1.8,1.5-4,2.8-6.6,3.7l-1.1-1.7
				c2.5-0.9,4.5-2,6.2-3.4c-1.9-2-3.2-4.2-3.9-6.7h-1.4v-2H53.6z M52.2,48.2v6.1c0,0.6,0.3,0.9,0.9,0.9h2.2V57h-2.7
				c-1.6,0-2.4-0.8-2.4-2.4v-4.6h-4.8v1.7c0,2.7-1,4.8-3,6.2l-1.3-1.5c1.5-1.1,2.3-2.5,2.3-4.5v-3.8H52.2z M48.4,66.4
				c1.5-1.6,2.6-3.4,3.3-5.4H45C45.6,63,46.7,64.8,48.4,66.4z"/>
			<path class="st7" d="M81.3,70.1h3v1.8H58.9v-1.8h3v-6.4h19.3V70.1z M70.2,57.9c1-0.9,1.7-1.8,2.2-2.9h-6.8c-0.3,1-0.6,1.9-1,2.7
				c-1,2-2.5,3.9-4.6,5.5L59,61.6c1.7-1.5,3.1-3.1,3.9-4.8c0.8-1.7,1.4-3.9,1.8-6.7h-4.3v-1.9h18.4v0.9c-0.2,1.4-0.4,2.6-0.7,3.8
				h4.5v1.2c-0.2,3.8-0.6,6-1.1,6.9c-0.4,0.7-1.1,1.1-2.1,1.2c-0.7,0-1.6,0-2.6,0l-0.6-2c0.9,0.1,1.6,0.2,2,0.2
				c0.8-0.1,1.3-0.3,1.7-0.8c0.4-0.5,0.6-2.2,0.8-5h-4.8c0.4-1.4,0.7-3,1-4.6H66.7c-0.2,1.1-0.4,2.1-0.6,3.1h8.3v1.7
				c-0.5,1.6-1.3,2.9-2.5,4.1c1.2,0.8,2.3,1.5,3.3,2.2l-1.5,1.5c-1-0.8-2.1-1.7-3.4-2.5c-1.5,1-3.3,1.8-5.5,2.5l-1-1.7
				c1.8-0.5,3.3-1.1,4.6-1.9c-1-0.6-1.9-1.1-3-1.7l1.3-1.3C68.1,56.7,69.2,57.3,70.2,57.9z M67.7,70.1v-4.5h-3.8v4.5H67.7z
				 M73.5,70.1v-4.5h-3.9v4.5H73.5z M79.4,70.1v-4.5h-3.9v4.5H79.4z"/>
			<path class="st7" d="M88.5,54.8l-1.1-1.5c1.8-1.7,3.5-3.7,5-5.9h1.4c1.6,1.5,3.1,3.1,4.6,4.8l-1.3,1.3c-1.5-1.8-2.7-3.2-3.9-4.3
				c-0.7,1-1.5,2-2.3,2.9h4.7v1.6h-4.8v-1.5C90.1,53.2,89.3,54,88.5,54.8z M97.4,71l-1.7,0.7c-0.2-0.5-0.3-1-0.5-1.5
				c-1.8,0.8-3.9,1.5-6.2,2.1l-0.6-1.6c0.4-0.2,0.6-0.4,0.6-0.8V55.4h7.8v9.9h-6v4.8c1.4-0.4,2.6-0.9,3.7-1.4
				c-0.3-0.8-0.7-1.6-1.1-2.3l1.7-0.5C96.1,67.5,96.8,69.2,97.4,71z M95.1,57.1h-4.2v2.5h4.2V57.1z M90.9,63.6h4.2v-2.5h-4.2V63.6z
				 M102.1,72.7l-0.4-1.9c0.7,0.1,1.4,0.1,2,0.1c0.6,0,1-0.4,1-1v-8.1h-5.9v-1.9h5.9v-3.4h-3.5v-1.8c-0.8,0.7-1.5,1.3-2.3,2L97.7,55
				c2.8-2,5.2-4.6,7-7.8h1.7c1.6,3,4,5.5,7.1,7.5l-1.1,1.6c-2.9-1.8-5.2-4.3-6.9-7.3c-1.3,2.2-2.7,4-4.4,5.5h8.9v1.8h-3.5v3.4h5.9
				v1.9h-5.9v8.6c0,1.5-0.7,2.3-2.2,2.3H102.1z M102.6,64.8c-0.9,2.4-2,4.5-3.2,6.3L97.9,70c1.2-1.7,2.3-3.7,3.2-6L102.6,64.8z
				 M113,69.7l-1.6,1.1c-0.8-1.8-1.9-3.9-3.2-6.2l1.5-0.9C111.1,66.1,112.2,68,113,69.7z"/>
			<path class="st7" d="M139.5,50.1l-1.3,1.3h3.4v1.9H133c0.2,3.5,0.6,6.2,1.1,8.2c0.2,0.7,0.4,1.3,0.6,2c1.4-2.2,2.5-4.9,3.4-7.9
				l1.8,0.8c-1.1,3.7-2.6,6.8-4.4,9.4c0.4,0.9,0.8,1.7,1.3,2.3c0.9,1.3,1.7,2,2.2,2c0.5,0,1-1.5,1.4-4.4l1.8,1
				c-0.7,3.7-1.6,5.6-2.9,5.6c-1.2,0-2.4-0.8-3.8-2.5c-0.5-0.7-1-1.5-1.4-2.3c-2,2.3-4.3,4-6.9,5.2l-1.1-1.7
				c2.8-1.3,5.2-3.1,7.1-5.5c-0.4-1-0.8-2.2-1.1-3.4c-0.6-2.4-1-5.3-1.2-8.8h-9.6V58h6.9c-0.1,4.7-0.3,7.8-0.6,9.2
				c-0.4,1.2-1.2,1.8-2.6,1.9c-0.7,0-1.5-0.1-2.4-0.1l-0.6-1.8c1.1,0.1,2,0.1,2.8,0.1c0.6,0,1-0.4,1.2-1.2c0.2-1,0.3-3,0.3-6h-4.8
				v0.8c-0.1,5-1.2,9-3.3,12.1l-1.5-1.4c1.8-2.6,2.7-6.1,2.8-10.7v-9.3h11.6c-0.1-1.4-0.1-2.8-0.1-4.3h2.1c0,1.6,0,3,0.1,4.3h5.2
				c-0.8-1-2-2-3.4-3.1l1.3-1.2C137.4,48,138.6,49.1,139.5,50.1z"/>
			<path class="st7" d="M152.4,56.3h13.7V58h-13.7v2.4h17.7v1.8h-18.2v8.3c2.4-0.4,4.8-1.1,7.2-2l0.4,1.8c-2.7,1-5.9,1.7-9.4,2.4
				l-0.8-1.7c0.5-0.2,0.7-0.4,0.7-0.8v-8H146v-1.8h4.5V48.1h17V50h-15.1v2.4h13.7v1.7h-13.7V56.3z M162.2,66.6
				c1.7-0.8,3.3-2,4.9-3.6l1.3,1.3c-1.4,1.5-3,2.6-4.8,3.5c2,1.5,4.4,2.6,7.3,3.4l-1.1,1.7c-5.7-1.6-9.7-4.6-12-9l1.6-0.9
				C160.1,64.3,161,65.5,162.2,66.6z"/>
		</g>
		<g class="st5">
			<path class="st8" d="M28.9,114.9l-1.3,0.3l-0.2-0.8c-1.5,0.5-2.9,0.8-4.2,0.9l-0.4-1.4c0.3-0.1,0.5-0.3,0.7-0.4
				c0.5-0.6,1.2-1.5,1.9-2.8c-0.7,0.1-1.5,0.2-2.3,0.3l-0.4-1.4c0.3-0.1,0.5-0.3,0.6-0.6c0.7-1.4,1.3-3,1.9-4.8l1.5,0.6
				c-0.7,1.9-1.5,3.4-2.2,4.6c0.5-0.1,1.1-0.1,1.6-0.2l1.1-2.1l1.5,0.6c-1.5,2.8-2.7,4.8-3.7,6c0.7-0.1,1.4-0.3,2.1-0.5
				c-0.1-0.5-0.3-1-0.4-1.5l1.2-0.4C28.3,112.4,28.6,113.5,28.9,114.9z M24.7,116.3c-0.1,1.6-0.2,3-0.4,4.3l-1.4-0.5
				c0.3-1.2,0.4-2.5,0.5-4L24.7,116.3z M27,119.6l-1.4,0.3c-0.1-1.4-0.2-2.7-0.3-3.7l1.3-0.3C26.7,117.1,26.9,118.3,27,119.6z
				 M29,118c0.3-0.8,0.4-1.6,0.6-2.5l1.4,0.3c-0.3,1.7-0.7,3.2-1.2,4.4l-1.3-0.8c0.2-0.4,0.3-0.8,0.5-1.2l-1.2,0.5
				c-0.2-1.1-0.5-2.1-0.7-2.9l1.2-0.4C28.5,116.3,28.8,117.1,29,118z M32.3,105.6c0.2-0.5,0.4-0.9,0.5-1.4l1.7,0.2
				c-0.1,0.4-0.3,0.8-0.5,1.2h4.4v8.3h-8.9v-8.3H32.3z M37,107h-6v5.6h6V107z M34.3,110c0.3-0.3,0.5-0.6,0.7-1h-1.8
				c-0.4,0.4-0.7,0.7-1.2,1l-0.7-0.9c0.8-0.6,1.4-1.2,1.7-2l1.2,0.1c-0.1,0.2-0.2,0.4-0.3,0.6h2.5v1c-0.3,0.7-0.6,1.3-1,1.7
				c0.5,0.3,0.9,0.6,1.3,0.8l-0.8,0.8c-0.4-0.3-0.8-0.6-1.3-0.9c-0.7,0.5-1.5,0.8-2.5,0.9l-0.5-1.1c0.6-0.1,1.2-0.3,1.7-0.5
				c-0.3-0.1-0.6-0.3-0.8-0.4l0.8-0.8C33.6,109.7,34,109.8,34.3,110z M32.9,120.5c-1,0-1.5-0.5-1.5-1.6v-3.7h1.5v3.4
				c0,0.3,0.1,0.4,0.5,0.4h1.4c0.2,0,0.4-0.1,0.5-0.2c0.1-0.2,0.2-0.6,0.3-1.4l1.4,0.4c-0.1,1.3-0.3,2.1-0.6,2.3
				c-0.3,0.2-0.7,0.3-1.3,0.3H32.9z M35.9,116.7l-1.2,0.8c-0.4-0.8-1-1.8-1.7-2.8l1.2-0.7C34.9,115,35.5,115.9,35.9,116.7z
				 M39.4,118.9l-1.3,0.6c-0.5-1.5-1-2.8-1.6-3.9l1.4-0.5C38.5,116.3,39,117.5,39.4,118.9z"/>
			<path class="st8" d="M46.3,104.2v1.8h2.6v1.5h-2.6v1.8h3.2v1.5h-1.4c-0.1,0.8-0.3,1.5-0.5,2.2h1.3v1.5h-2.7v1.8h3.3v1.5h-3.3v3
				h-1.7v-3h-3.3v-1.5h3.3v-1.8h-2.7V113h1.4c-0.1-0.8-0.3-1.5-0.5-2.2h-1.4v-1.5h3.2v-1.8H42V106h2.6v-1.8H46.3z M46.6,110.8h-2.3
				c0.1,0.7,0.3,1.4,0.5,2.2h1.3C46.3,112.3,46.5,111.6,46.6,110.8z M51.6,120.8h-1.6v-16h7.1c0,2.1-0.1,3.5-0.3,4.2
				c-0.2,0.7-0.9,1-2,1h-1.2l-0.5-1.5c0.2,0,0.5,0,0.9,0c0.4,0,0.6,0,0.8-0.1c0.2-0.1,0.3-0.2,0.4-0.4c0.1-0.3,0.2-0.9,0.2-1.9h-3.9
				v4.9h5.7v1.5c-0.3,1.9-0.8,3.5-1.5,4.8c0.6,0.7,1.4,1.4,2.3,2l-1.1,1.3c-0.8-0.6-1.5-1.3-2.1-2c-0.7,0.8-1.5,1.5-2.4,2l-0.8-1.4
				V120.8z M51.6,119.4c0.8-0.5,1.5-1.1,2.1-1.8c-1-1.4-1.6-3-1.8-4.7h-0.3V119.4z M54.6,116.1c0.5-1,0.8-2.1,1.1-3.3h-2.3
				C53.6,114,54,115.1,54.6,116.1z"/>
			<path class="st8" d="M59.8,106.4v-1.5h7.1v1.5h-2v1.8h1.5v11.5h-5.1v1h-1.2v-12.5h1.5v-1.8H59.8z M65.3,118.2v-4.3h-0.6
				c-0.6,0-0.9-0.3-0.9-1v-3.5H63v1.2c0,1.9-0.4,3.3-1.1,4.1l-0.4-0.4v3.9H65.3z M62.1,110.6v-1.2h-0.7v4.4
				C61.9,113,62.1,111.9,62.1,110.6z M64.7,115.3v1.4h-2.8v-1.4H64.7z M63.8,106.4h-0.8v1.8h0.8V106.4z M64.5,112.7
				c0,0.2,0.1,0.3,0.3,0.3h0.4v-3.6h-0.7V112.7z M68.3,113.5l-0.9,0.5c-0.3-1.7-0.6-3.1-0.9-4.4l0.9-0.4
				C67.7,110.5,68,111.9,68.3,113.5z M69.8,104.4v8c0,3.9-0.7,6.7-2,8.4l-1.2-1c1.2-1.5,1.7-4,1.7-7.4v-8H69.8z M71.3,113.6
				l-0.7,0.4c-0.2-1.7-0.5-3.1-0.7-4.4l0.7-0.3C70.8,110.6,71.1,112,71.3,113.6z M72.8,104.5v16.1h-1.4v-16.1H72.8z M74.3,113.5
				l-0.7,0.4c-0.2-1.7-0.4-3.1-0.7-4.4l0.7-0.3C73.8,110.5,74.1,111.9,74.3,113.5z M75.8,104.4v16.5h-1.4v-16.5H75.8z"/>
			<path class="st8" d="M85.6,105.6c-0.2-0.5-0.5-0.9-0.7-1.3l1.7-0.3c0.3,0.5,0.5,1,0.7,1.6h7.1v1.6h-7.5c-0.4,0.8-0.9,1.5-1.4,2.1
				c0.6,0,1.2-0.1,1.8-0.1c0.4-0.5,0.8-1,1.2-1.5l1.5,0.6c-1.6,2-3,3.5-4.2,4.6c0.9-0.1,1.8-0.2,2.6-0.4c-0.2-0.4-0.4-0.8-0.5-1.1
				l1.4-0.5c0.6,1,1.1,2.1,1.5,3.2l-1.5,0.7c-0.1-0.4-0.3-0.8-0.4-1.1c-0.5,0.1-0.9,0.1-1.4,0.2v1.8h7.3v1.6h-7.3v3.6h-1.7v-3.6
				h-7.2v-1.6h7.2v-1.5c-0.8,0.1-1.6,0.2-2.4,0.2l-0.3-1.5c0.2,0,0.4-0.1,0.6-0.1c0.6-0.3,1.5-1,2.4-2.2c-0.8,0.1-1.7,0.1-2.6,0.2
				l-0.3-1.4c0.8-0.4,1.5-1.2,2.1-2.3h-6.4v-1.6H85.6z M82.9,112.1c-0.9,1.1-1.9,2.1-2.9,2.8l-1.2-1.3c1-0.7,2-1.5,2.8-2.5
				L82.9,112.1z M82.8,109.7l-1.2,1.2c-0.6-0.7-1.5-1.4-2.6-2.2l1.2-1.1C81.2,108.3,82.1,109,82.8,109.7z M93.9,108.5
				c-0.8,1-1.7,1.7-2.5,2.4l-1.1-1.2c0.8-0.6,1.6-1.3,2.3-2.1L93.9,108.5z M94.3,113.7l-1.3,1.2c-0.6-0.9-1.5-1.8-2.6-2.8l1.1-1
				C92.6,112,93.5,112.8,94.3,113.7z"/>
			<path class="st8" d="M108.9,109.8v3.7h3.7v1.6h-3.7v3.8h-1.6v-3.8h-3.8v-1.6h3.8v-3.7H108.9z"/>
			<path class="st8" d="M122.7,106.8c0.8,0.6,1.2,1.5,1.2,2.6c0,1.4-0.7,2.4-2.1,2.8c0.8,0.2,1.3,0.6,1.7,1.1
				c0.4,0.5,0.6,1.1,0.6,1.9c0,1.2-0.4,2.2-1.2,2.9c-0.9,0.8-2,1.2-3.4,1.2c-1.3,0-2.4-0.3-3.2-1c-0.9-0.8-1.4-1.9-1.5-3.3h2
				c0,0.9,0.3,1.5,0.8,2c0.5,0.4,1.1,0.6,1.8,0.6c0.8,0,1.5-0.3,2-0.7c0.4-0.4,0.7-1,0.7-1.6c0-0.8-0.2-1.3-0.7-1.7
				c-0.4-0.4-1.1-0.5-1.9-0.5h-0.9v-1.5h0.9c0.8,0,1.4-0.2,1.8-0.5c0.4-0.3,0.6-0.8,0.6-1.5c0-0.6-0.2-1.1-0.6-1.5
				c-0.4-0.4-1-0.5-1.7-0.5c-0.8,0-1.4,0.2-1.8,0.6c-0.4,0.4-0.7,1-0.8,1.8H115c0.1-1.3,0.6-2.3,1.4-3c0.8-0.7,1.8-1.1,3.1-1.1
				C120.8,105.9,121.9,106.2,122.7,106.8z"/>
			<path class="st8" d="M134.5,106.1v1.6L130,119h-2.1l4.7-11.1h-6.7v-1.8H134.5z"/>
			<path class="st8" d="M139.2,116.8c0.3,0.3,0.4,0.6,0.4,1c0,0.4-0.1,0.7-0.4,1c-0.3,0.2-0.6,0.4-1,0.4c-0.4,0-0.7-0.1-0.9-0.4
				c-0.3-0.3-0.4-0.6-0.4-1c0-0.4,0.1-0.7,0.4-1c0.2-0.3,0.5-0.4,0.9-0.4C138.6,116.4,138.9,116.6,139.2,116.8z"/>
			<path class="st8" d="M150.4,106.1v1.6l-4.6,11.3h-2.1l4.7-11.1h-6.7v-1.8H150.4z"/>
			<path class="st8" d="M158.2,107.2c0.5,0.6,0.7,1.4,0.7,2.5c0,1-0.3,1.8-0.7,2.5c-0.5,0.7-1.3,1-2.3,1c-1,0-1.8-0.4-2.3-1
				c-0.5-0.6-0.7-1.5-0.7-2.5c0-1,0.2-1.9,0.7-2.5c0.5-0.7,1.3-1.1,2.3-1.1C156.9,106.1,157.7,106.5,158.2,107.2z M154.9,108.1
				c-0.2,0.4-0.2,0.9-0.2,1.6c0,0.6,0.1,1.2,0.2,1.6c0.2,0.5,0.6,0.7,1,0.7c0.5,0,0.8-0.3,1-0.7c0.1-0.4,0.2-0.9,0.2-1.5
				c0-0.7-0.1-1.2-0.3-1.6c-0.2-0.5-0.5-0.7-1-0.7C155.5,107.4,155.1,107.6,154.9,108.1z M164.9,105.9l-7.2,13.4h-1.5l7.2-13.4
				H164.9z M167.5,113c0.5,0.6,0.7,1.4,0.7,2.5c0,1-0.3,1.8-0.7,2.5c-0.5,0.7-1.3,1-2.3,1c-1,0-1.8-0.4-2.3-1
				c-0.5-0.6-0.7-1.5-0.7-2.5c0-1,0.2-1.9,0.7-2.5c0.5-0.7,1.3-1.1,2.3-1.1C166.2,112,166.9,112.3,167.5,113z M164.2,113.9
				c-0.2,0.4-0.2,0.9-0.2,1.6c0,0.6,0.1,1.2,0.2,1.6c0.2,0.5,0.6,0.7,1,0.7c0.5,0,0.8-0.3,1-0.7c0.1-0.4,0.2-0.9,0.2-1.5
				c0-0.7-0.1-1.2-0.3-1.6c-0.2-0.5-0.5-0.7-1-0.7C164.7,113.2,164.4,113.4,164.2,113.9z"/>
		</g>
	</g>
</g>
</svg>
