<?xml version="1.0" encoding="UTF-8"?>
<svg width="250px" height="276px" viewBox="0 0 250 276" version="1.1" xmlns="http://www.w3.org/2000/svg" xmlns:xlink="http://www.w3.org/1999/xlink">
    <!-- Generator: Sketch 49 (51002) - http://www.bohemiancoding.com/sketch -->
    <title>s2_f3</title>
    <desc>Created with Sketch.</desc>
    <defs>
        <polygon id="path-1" points="20 4 230 4 230 276 125 216 20 276"></polygon>
        <polygon id="path-3" points="20 -10 230 -10 230 276 125 216 20 276"></polygon>
    </defs>
    <g id="s2_f3" stroke="none" stroke-width="1" fill="none" fill-rule="evenodd">
        <g id="Group-35-Copy-6">
            <polygon id="Combined-Shape" fill="#D2BEA6" points="234 18 16 18 16 22 0 22 0 0 16 0 16 4 234 4 234 0 250 0 250 22 234 22"></polygon>
            <polygon id="Combined-Shape" fill="#B7956F" points="234 18 16 18 16 22 0 22 0 12 250 12 250 22 234 22"></polygon>
            <mask id="mask-2" fill="white">
                <use xlink:href="#path-1"></use>
            </mask>
            <g id="Combined-Shape"></g>
            <g id="Combined-Shape" mask="url(#mask-2)">
                <use fill="#708CB1" fill-rule="evenodd" xlink:href="#path-3"></use>
                <path stroke="#FFBD46" stroke-width="10" d="M25,-5 L25,267.384102 L125,210.241244 L225,267.384102 L225,-5 L25,-5 Z"></path>
                <path stroke="#708CB1" stroke-width="6" d="M23,-7 L23,270.830461 L125,212.544747 L227,270.830461 L227,-7 L23,-7 Z"></path>
            </g>
        </g>
        <g id="view" transform="translate(192.000000, 122.000000)" fill="#FFFFFF" opacity="0.7">
            <path d="M13.1451287,12.4380219 L17.0961941,16.3890873 C17.2914562,16.5843494 17.2914562,16.9009319 17.0961941,17.0961941 C16.9009319,17.2914562 16.5843494,17.2914562 16.3890873,17.0961941 L12.4380219,13.1451287 C11.1187738,14.3000688 9.39112573,15 7.5,15 C3.35786438,15 0,11.6421356 0,7.5 C0,3.35786438 3.35786438,0 7.5,0 C11.6421356,0 15,3.35786438 15,7.5 C15,9.39112573 14.3000688,11.1187738 13.1451287,12.4380219 Z M7,7 L7,3.5 C7,3.22385763 7.22385763,3 7.5,3 C7.77614237,3 8,3.22385763 8,3.5 L8,7 L11.5,7 C11.7761424,7 12,7.22385763 12,7.5 C12,7.77614237 11.7761424,8 11.5,8 L8,8 L8,11.5 C8,11.7761424 7.77614237,12 7.5,12 C7.22385763,12 7,11.7761424 7,11.5 L7,8 L3.5,8 C3.22385763,8 3,7.77614237 3,7.5 C3,7.22385763 3.22385763,7 3.5,7 L7,7 Z M7.5,14 C11.0898509,14 14,11.0898509 14,7.5 C14,3.91014913 11.0898509,1 7.5,1 C3.91014913,1 1,3.91014913 1,7.5 C1,11.0898509 3.91014913,14 7.5,14 Z" id="Combined-Shape"></path>
        </g>
        <path d="M100.964,136.148 L100.964,155.266 L98.9179999,155.266 L98.9179999,154.012 L92.3399999,154.012 L92.3399999,155.288 L90.3599999,155.288 L90.3599999,136.148 L100.964,136.148 Z M92.3399999,152.054 L98.9179999,152.054 L98.9179999,148.688 L92.3399999,148.688 L92.3399999,152.054 Z M92.3399999,146.774 L98.9179999,146.774 L98.9179999,143.32 L92.3399999,143.32 L92.3399999,146.774 Z M92.3399999,141.406 L98.9179999,141.406 L98.9179999,138.106 L92.3399999,138.106 L92.3399999,141.406 Z M86.8399999,144.332 L86.8399999,155.244 L84.7939999,155.244 L84.7939999,144.97 C84.0899999,146.774 83.2319999,148.446 82.2199999,149.942 L81.4279999,147.874 C82.9459999,145.894 84.0459999,143.65 84.7499999,141.098 L81.8679999,141.098 L81.8679999,139.096 L84.7939999,139.096 L84.7939999,134.982 L86.8399999,134.982 L86.8399999,139.096 L89.5019999,139.096 L89.5019999,141.098 L86.8399999,141.098 L86.8399999,142.066 C87.8079999,143.056 88.7979999,144.156 89.7659999,145.344 L88.6219999,147.038 C87.9399999,145.96 87.3459999,145.058 86.8399999,144.332 Z M107.52,135.07 L109.39,135.07 L109.39,140.306 L110.644,140.306 L110.644,135.07 L112.536,135.07 L112.536,140.306 L115.132,140.306 L115.132,142.286 L113.614,142.286 L112.866,144.596 L114.934,144.596 L114.934,146.422 L111.04,146.422 L111.04,148.38 L114.516,148.38 L114.516,150.206 L111.04,150.206 L111.04,152.45 C112.58,152.318 113.922,152.164 115.066,151.988 L115.066,153.836 C112.998,154.188 109.61,154.496 104.858,154.738 L104.572,152.802 C106.156,152.758 107.63,152.692 108.994,152.604 L108.994,150.206 L105.518,150.206 L105.518,148.38 L108.994,148.38 L108.994,146.422 L104.968,146.422 L104.968,144.596 L107.058,144.596 L106.42,142.286 L104.506,142.286 L104.506,140.306 L107.52,140.306 L107.52,135.07 Z M108.972,144.596 L110.952,144.596 L111.722,142.286 L108.356,142.286 L108.972,144.596 Z M114.098,135.752 L115.836,136.214 C115.462,137.556 115,138.744 114.472,139.8 L112.844,139.206 C113.328,138.304 113.746,137.16 114.098,135.752 Z M105.804,135.884 C106.31,136.874 106.75,137.952 107.124,139.14 L105.584,139.822 C105.144,138.546 104.682,137.402 104.176,136.412 L105.804,135.884 Z M115.748,139.316 L120.522,139.316 L120.522,134.96 L122.546,134.96 L122.546,139.316 L124.394,139.316 L124.394,141.34 L122.546,141.34 L122.546,152.978 C122.546,154.452 121.82,155.2 120.368,155.2 L117.596,155.2 L117.134,153.198 C118.014,153.286 118.85,153.33 119.642,153.33 C120.214,153.33 120.522,153.022 120.522,152.45 L120.522,141.34 L115.748,141.34 L115.748,139.316 Z M117.266,143.452 C118.102,145.08 118.806,146.84 119.422,148.688 L117.662,149.48 C117.002,147.412 116.276,145.608 115.484,144.024 L117.266,143.452 Z M129.652,140.218 L135.394,140.218 L135.394,138.81 L137.418,138.81 L137.418,140.218 L141.752,140.218 L141.752,141.758 C142.72,141.01 143.6,140.218 144.392,139.426 L145.888,140.57 C144.876,141.582 143.842,142.528 142.742,143.364 L146.504,143.364 L146.504,145.212 L139.948,145.212 C139.662,145.366 139.376,145.52 139.112,145.674 C138.518,145.982 137.858,146.29 137.154,146.62 L144.15,146.62 L144.15,155.31 L142.126,155.31 L142.126,154.452 L133.128,154.452 L133.128,155.31 L131.104,155.31 L131.104,148.908 C130.026,149.26 128.882,149.612 127.694,149.964 L126.88,148.138 C130.092,147.5 133.106,146.532 135.922,145.212 L127.606,145.212 L127.606,143.364 L135.394,143.364 L135.394,141.978 L129.652,141.978 L129.652,140.218 Z M139.398,143.364 C140.124,142.924 140.806,142.462 141.466,141.978 L137.418,141.978 L137.418,143.364 L139.398,143.364 Z M133.128,151.328 L133.128,152.758 L142.126,152.758 L142.126,151.328 L133.128,151.328 Z M142.126,149.7 L142.126,148.314 L133.128,148.314 L133.128,149.7 L142.126,149.7 Z M127.452,136.17 L132.028,136.17 L132.028,135.048 L134.074,135.048 L134.074,136.17 L136.516,136.17 L136.516,138.018 L134.074,138.018 L134.074,139.404 L132.028,139.404 L132.028,138.018 L127.452,138.018 L127.452,136.17 Z M139.948,135.048 L141.994,135.048 L141.994,136.17 L146.526,136.17 L146.526,138.018 L141.994,138.018 L141.994,139.404 L139.948,139.404 L139.948,138.018 L137.484,138.018 L137.484,136.17 L139.948,136.17 L139.948,135.048 Z M151.85,141.362 L158.582,141.362 L158.582,140.284 L150.178,140.284 L150.178,138.524 L158.582,138.524 L158.582,137.314 C156.47,137.424 154.248,137.512 151.916,137.6 L151.564,135.928 C157.284,135.752 162.344,135.444 166.766,135.004 L167.404,136.698 C165.314,136.874 163.07,137.05 160.672,137.204 L160.672,138.524 L169.12,138.524 L169.12,140.284 L160.672,140.284 L160.672,141.362 L167.426,141.362 L167.426,148.93 L160.672,148.93 L160.672,150.096 L168.35,150.096 L168.35,151.746 L160.672,151.746 L160.672,153 L169.45,153 L169.45,154.782 L149.87,154.782 L149.87,153 L158.582,153 L158.582,151.746 L150.97,151.746 L150.97,150.096 L158.582,150.096 L158.582,148.93 L151.85,148.93 L151.85,141.362 Z M165.402,147.28 L165.402,145.916 L160.672,145.916 L160.672,147.28 L165.402,147.28 Z M158.582,147.28 L158.582,145.916 L153.852,145.916 L153.852,147.28 L158.582,147.28 Z M153.852,144.332 L158.582,144.332 L158.582,143.012 L153.852,143.012 L153.852,144.332 Z M160.672,143.012 L160.672,144.332 L165.402,144.332 L165.402,143.012 L160.672,143.012 Z M62.7719999,176.842 C65.5879999,174.466 67.3039999,171.848 67.8759999,168.988 L62.7059999,168.988 L62.7059999,183.09 L60.5719999,183.09 L60.5719999,166.986 L68.0959999,166.986 L68.0959999,165.27 L65.5879999,165.27 L65.5879999,163.312 L70.1639999,163.312 L70.1639999,166.986 L77.5999999,166.986 L77.5999999,180.56 C77.5999999,182.122 76.8299999,182.914 75.3339999,182.914 L71.9239999,182.914 L71.3959999,180.956 L74.6739999,181.044 C75.2019999,181.044 75.4659999,180.736 75.4659999,180.12 L75.4659999,168.988 L70.3839999,168.988 C70.9559999,171.804 72.6279999,174.334 75.3999999,176.622 L73.9699999,178.514 C71.7039999,176.314 70.0979999,173.938 69.1299999,171.43 C68.1179999,174.026 66.4679999,176.446 64.1799999,178.734 L62.7719999,176.842 Z M81.8679999,173.322 L101.492,173.322 L101.492,175.082 L92.3399999,175.082 L91.7239999,176.358 L100.172,176.358 L100.172,181.22 C100.172,182.562 99.4679999,183.244 98.0599999,183.244 L96.4979999,183.244 L96.0139999,181.462 L97.4879999,181.55 C97.9279999,181.55 98.1699999,181.286 98.1699999,180.802 L98.1699999,178.096 L95.1779999,178.096 L95.1779999,183.046 L93.1759999,183.046 L93.1759999,178.096 L90.4699999,178.096 L90.4699999,183.046 L88.4899999,183.046 L88.4899999,178.096 L85.7179999,178.096 L85.7179999,183.332 L83.7159999,183.332 L83.7159999,176.358 L89.6339999,176.358 L90.2059999,175.082 L81.8679999,175.082 L81.8679999,173.322 Z M83.2099999,163.62 L100.172,163.62 L100.172,165.314 L92.6919999,165.314 L92.6919999,166.326 L101.118,166.326 L101.118,171.056 L99.1159999,171.056 L99.1159999,167.932 L92.6919999,167.932 L92.6919999,172.574 L90.6679999,172.574 L90.6679999,167.932 L84.2439999,167.932 L84.2439999,171.056 L82.2419999,171.056 L82.2419999,166.326 L90.6679999,166.326 L90.6679999,165.314 L83.2099999,165.314 L83.2099999,163.62 Z M85.8939999,168.438 C87.2359999,168.548 88.5339999,168.724 89.7659999,168.966 L89.2159999,170.242 C87.9399999,170.022 86.6199999,169.868 85.2119999,169.758 L85.8939999,168.438 Z M89.2599999,170.792 L89.6999999,172.068 C88.8419999,172.288 87.3899999,172.442 85.3659999,172.574 L84.9259999,171.144 C86.9279999,171.056 88.3799999,170.946 89.2599999,170.792 Z M93.9679999,170.286 L93.7039999,168.878 C95.1339999,168.79 96.4099999,168.636 97.5539999,168.394 L98.0819999,169.78 C96.8939999,170 95.5299999,170.154 93.9679999,170.286 Z M94.2319999,170.836 C95.6619999,170.946 97.0259999,171.122 98.3459999,171.386 L97.7739999,172.75 C96.4539999,172.442 95.0679999,172.222 93.6159999,172.046 L94.2319999,170.836 Z M122.04,163.07 L123.052,164.83 C118.784,165.446 113.108,165.776 106.046,165.776 L105.43,163.906 C112.008,163.906 117.552,163.62 122.04,163.07 Z M123.756,169.604 L123.756,174.884 L121.71,174.884 L121.71,171.562 L106.97,171.562 L106.97,174.884 L104.924,174.884 L104.924,169.604 L108.686,169.604 C108.048,168.614 107.366,167.734 106.64,166.964 L108.488,166.04 C109.236,166.92 109.94,167.888 110.644,168.966 L109.346,169.604 L113.9,169.604 C113.262,168.548 112.58,167.602 111.854,166.788 L113.724,165.886 C114.428,166.722 115.132,167.668 115.792,168.702 L114.01,169.604 L117.574,169.604 C118.388,168.372 119.092,167.052 119.664,165.644 L121.776,166.436 C121.138,167.646 120.478,168.702 119.818,169.604 L123.756,169.604 Z M107.806,173.256 L120.808,173.256 L120.808,175.038 C119.95,176.688 118.608,178.118 116.76,179.328 C118.828,180.186 121.336,180.912 124.262,181.484 L123.052,183.354 C119.686,182.606 116.892,181.66 114.648,180.538 C112.206,181.726 109.192,182.694 105.606,183.42 L104.506,181.44 C107.674,180.912 110.336,180.186 112.514,179.306 C110.71,178.074 109.39,176.688 108.598,175.148 L107.806,175.148 L107.806,173.256 Z M110.732,175.148 C111.612,176.336 112.91,177.392 114.604,178.316 C116.276,177.392 117.574,176.336 118.454,175.148 L110.732,175.148 Z M127.188,164.258 L135.966,164.258 L135.966,162.916 L138.034,162.916 L138.034,164.258 L146.812,164.258 L146.812,166.018 L138.034,166.018 L138.034,166.986 L144.942,166.986 L144.942,173.564 L144.172,173.564 C145.316,174.532 146.218,175.412 146.878,176.16 L145.338,177.216 C144.986,176.776 144.612,176.336 144.194,175.896 C140.784,176.138 135.35,176.358 127.914,176.556 L127.65,174.73 C130.686,174.686 133.458,174.664 135.966,174.62 L135.966,173.564 L129.058,173.564 L129.058,166.986 L135.966,166.986 L135.966,166.018 L127.188,166.018 L127.188,164.258 Z M142.698,174.422 L142.082,173.85 L142.522,173.564 L138.034,173.564 L138.034,174.576 C139.75,174.532 141.312,174.466 142.698,174.422 Z M142.962,172.024 L142.962,170.946 L138.034,170.946 L138.034,172.024 L142.962,172.024 Z M135.966,172.024 L135.966,170.946 L131.038,170.946 L131.038,172.024 L135.966,172.024 Z M131.038,169.604 L135.966,169.604 L135.966,168.526 L131.038,168.526 L131.038,169.604 Z M138.034,168.526 L138.034,169.604 L142.962,169.604 L142.962,168.526 L138.034,168.526 Z M129.036,177.216 L130.906,177.59 C130.378,179.482 129.652,181.11 128.706,182.496 L126.99,181.396 C127.936,180.098 128.618,178.712 129.036,177.216 Z M140.146,182.914 L134.294,182.914 C132.842,182.914 132.116,182.21 132.116,180.802 L132.116,177.128 L134.14,177.128 L134.14,180.362 C134.14,180.78 134.382,181 134.91,181 L139.772,181 C140.08,181 140.322,180.89 140.454,180.714 C140.63,180.494 140.762,179.878 140.828,178.844 L142.72,179.46 C142.566,181.132 142.28,182.122 141.884,182.452 C141.51,182.76 140.938,182.914 140.146,182.914 Z M137.242,176.578 C138.32,177.568 139.156,178.426 139.75,179.174 L138.188,180.252 C137.572,179.438 136.736,178.536 135.68,177.546 L137.242,176.578 Z M143.842,176.71 C145.272,178.316 146.372,179.746 147.142,180.978 L145.492,182.078 C144.7,180.758 143.622,179.306 142.258,177.7 L143.842,176.71 Z M154.732,166.084 L150.75,166.084 L150.75,164.368 L159.044,164.368 C158.824,163.928 158.604,163.51 158.384,163.136 L160.518,162.784 C160.738,163.246 160.958,163.774 161.178,164.368 L168.614,164.368 L168.614,166.084 L165.182,166.084 L166.018,166.656 C165.05,167.184 164.016,167.646 162.938,168.064 C164.478,168.504 165.908,168.944 167.206,169.384 L166.216,170.374 L168.724,170.374 L168.724,172.134 L153.258,172.134 L153.258,174.422 C153.236,175.148 153.192,175.852 153.148,176.534 C154.446,175.522 155.436,174.18 156.096,172.53 L157.724,173.19 L157.306,174.158 L160.606,174.158 L160.606,172.596 L162.63,172.596 L162.63,174.158 L168.152,174.158 L168.152,175.984 L162.63,175.984 L162.63,177.59 L167.712,177.59 L167.712,179.394 L162.63,179.394 L162.63,180.978 L169.274,180.978 L169.274,182.782 L153.302,182.782 L153.302,180.978 L160.606,180.978 L160.606,179.394 L155.546,179.394 L155.546,177.59 L160.606,177.59 L160.606,175.984 L156.228,175.984 C155.7,176.732 155.106,177.348 154.468,177.876 L153.126,176.71 C152.862,179.35 152.202,181.55 151.146,183.31 L149.606,181.924 C150.662,180.12 151.212,177.634 151.256,174.422 L151.256,170.374 L165.336,170.374 C163.972,169.868 162.388,169.362 160.628,168.856 C158.406,169.516 155.986,169.978 153.39,170.286 L152.422,168.988 C154.402,168.768 156.25,168.46 157.922,168.108 C156.602,167.756 155.194,167.404 153.698,167.052 L154.732,166.084 Z M164.016,166.084 L155.194,166.084 C157.13,166.524 158.912,166.964 160.562,167.426 C161.838,167.03 163.004,166.568 164.016,166.084 Z M179.328,162.96 L181.352,162.96 L181.352,166.15 L183.178,166.15 L183.178,162.96 L185.202,162.96 L185.202,166.15 L186.742,166.15 C187.336,165.226 187.842,164.28 188.282,163.268 L190.218,163.994 C189.756,164.808 189.294,165.534 188.832,166.15 L191.978,166.15 L191.978,167.976 L185.84,167.976 L187.534,168.57 C187.226,169.076 186.918,169.538 186.566,169.978 L190.966,169.978 L190.966,171.804 L183.376,171.804 L183.376,173.014 L189.932,173.014 L189.932,174.752 L183.376,174.752 L183.376,175.962 L191.956,175.962 L191.956,177.81 L183.376,177.81 L183.376,183.332 L181.264,183.332 L181.264,177.81 L172.684,177.81 L172.684,175.962 L181.264,175.962 L181.264,174.752 L174.708,174.752 L174.708,173.014 L181.264,173.014 L181.264,171.804 L173.674,171.804 L173.674,169.978 L178.074,169.978 C177.788,169.45 177.458,168.966 177.106,168.504 L178.536,167.976 L172.662,167.976 L172.662,166.15 L175.786,166.15 C175.434,165.38 174.994,164.676 174.51,164.016 L176.468,163.29 C176.952,164.082 177.392,165.05 177.81,166.15 L179.328,166.15 L179.328,162.96 Z M185.466,167.976 L179.196,167.976 C179.57,168.57 179.922,169.23 180.252,169.978 L184.256,169.978 C184.718,169.318 185.114,168.658 185.466,167.976 Z M186.918,178.25 C188.81,179.35 190.394,180.428 191.67,181.506 L190.174,183.002 C189.074,181.924 187.556,180.78 185.576,179.548 L186.918,178.25 Z M177.81,178.206 L179.196,179.438 C177.854,180.802 176.182,181.99 174.202,183.002 L172.904,181.33 C174.84,180.45 176.49,179.394 177.81,178.206 Z" id="相對著重-內需受惠產業" fill="#FFFFFF"></path>
        <g id="section_B_float_view_icon_3" transform="translate(85.000000, 30.000000)" fill="#FFFFFF" fill-rule="nonzero">
            <path d="M38.9646737,64.1365217 L39.7354737,64.1365217 C40.6055368,64.1365217 41.3098737,64.846087 41.3098737,65.7226087 C41.3090105,66.5991304 40.6046737,67.3086957 39.7346105,67.3086957 L1.5744,67.3086957 C0.704336842,67.3086957 0,66.5991304 0,65.7226087 C0,64.846087 0.704336842,64.1365217 1.5744,64.1365217 L2.58256842,64.1365217 L2.58256842,31.8513043 C2.58256842,30.9747826 3.28690526,30.2652174 4.15696842,30.2652174 L16.9947158,30.2652174 C17.8647789,30.2652174 18.5691158,30.9747826 18.5691158,31.8513043 L18.5691158,64.1365217 L22.9781263,64.1365217 L22.9781263,17.3643478 C22.9781263,16.4878261 23.6824632,15.7782609 24.5525263,15.7782609 L37.3902737,15.7782609 C38.2603368,15.7782609 38.9646737,16.4878261 38.9646737,17.3643478 L38.9646737,64.1365217 Z M35.8150105,64.1365217 L35.8150105,18.9504348 L26.1269263,18.9504348 L26.1269263,64.1365217 L35.8150105,64.1365217 Z M5.73136842,64.1365217 L15.4203158,64.1365217 L15.4203158,33.4373913 L5.73136842,33.4373913 L5.73136842,64.1365217 Z M44.9472211,44.2652174 C44.0771579,44.2652174 43.3728211,43.5556522 43.3728211,42.6791304 L43.3728211,1.58608696 C43.3728211,0.709565217 44.0771579,0 44.9472211,0 L57.7832421,0 C58.6533053,0 59.3576421,0.709565217 59.3576421,1.58608696 L59.3576421,36.3808696 C59.3576421,37.2573913 58.6533053,37.9669565 57.7832421,37.9669565 C56.9131789,37.9669565 56.2088421,37.2573913 56.2088421,36.3808696 L56.2088421,3.17217391 L46.5216211,3.17217391 L46.5216211,42.6782609 C46.5216211,43.5556522 45.8172842,44.2652174 44.9472211,44.2652174 Z" id="Combined-Shape"></path>
            <path d="M58.7987158,79.666087 C46.7654316,79.666087 36.9754947,69.8017391 36.9754947,57.6791304 C36.9754947,45.5565217 46.7654316,35.6921739 58.7987158,35.6921739 C70.8337263,35.6921739 80.6236632,45.5565217 80.6236632,57.6791304 C80.6236632,69.8017391 70.8337263,79.666087 58.7987158,79.666087 Z M58.7987158,38.8643478 C48.5012421,38.8643478 40.1242947,47.3034783 40.1242947,57.6782609 C40.1242947,68.053913 48.5012421,76.4930435 58.7987158,76.4930435 C69.0961895,76.4930435 77.4748632,68.053913 77.4748632,57.6782609 C77.4748632,47.3034783 69.0961895,38.8643478 58.7987158,38.8643478 Z" id="XMLID_214_"></path>
            <path d="M49.7899368,67.3634783 C49.3730316,67.3634783 48.9578526,67.1991304 48.6488421,66.8704348 C48.0489474,66.2356522 48.0757053,65.2313043 48.7040842,64.6278261 C49.4161895,63.946087 51.2512632,61.9878261 53.4566316,59.64 C62.2349474,50.2930435 64.7873053,47.7591304 65.8671158,47.3130435 C66.6724421,46.9747826 67.5925684,47.3626087 67.9231579,48.1747826 C68.2442526,48.9617391 67.8920842,49.8565217 67.1359579,50.2165217 C65.9258105,50.9817391 59.3097053,58.0269565 55.7448632,61.8217391 C53.4859789,64.226087 51.6042947,66.2304348 50.8749263,66.9278261 C50.5693684,67.2173913 50.1809474,67.3634783 49.7899368,67.3634783 Z" id="XMLID_208_"></path>
            <path d="M66.4670105,64.8321739 C65.5969474,64.8321739 64.8926105,64.1226087 64.8926105,63.246087 L64.8926105,50.3643478 L52.1057895,50.3643478 C51.2357263,50.3643478 50.5313895,49.6547826 50.5313895,48.7782609 C50.5313895,47.9017391 51.2357263,47.1921739 52.1057895,47.1921739 L66.4670105,47.1921739 C67.3370737,47.1921739 68.0414105,47.9017391 68.0414105,48.7782609 L68.0414105,63.246087 C68.0414105,64.1226087 67.3379368,64.8321739 66.4670105,64.8321739 Z" id="XMLID_179_"></path>
        </g>
    </g>
</svg>