<?xml version="1.0" encoding="UTF-8"?>
<svg width="250px" height="276px" viewBox="0 0 250 276" version="1.1" xmlns="http://www.w3.org/2000/svg" xmlns:xlink="http://www.w3.org/1999/xlink">
    <!-- Generator: Sketch 49 (51002) - http://www.bohemiancoding.com/sketch -->
    <title>s2_f4</title>
    <desc>Created with Sketch.</desc>
    <defs>
        <polygon id="path-1" points="20 4 230 4 230 276 125 216 20 276"></polygon>
        <polygon id="path-3" points="20 -10 230 -10 230 276 125 216 20 276"></polygon>
    </defs>
    <g id="s2_f4" stroke="none" stroke-width="1" fill="none" fill-rule="evenodd">
        <g id="Group-35-Copy-4">
            <polygon id="Combined-Shape" fill="#D2BEA6" points="234 18 16 18 16 22 0 22 0 0 16 0 16 4 234 4 234 0 250 0 250 22 234 22"></polygon>
            <polygon id="Combined-Shape" fill="#B7956F" points="234 18 16 18 16 22 0 22 0 12 250 12 250 22 234 22"></polygon>
            <mask id="mask-2" fill="white">
                <use xlink:href="#path-1"></use>
            </mask>
            <g id="Combined-Shape"></g>
            <g id="Combined-Shape" mask="url(#mask-2)">
                <use fill="#689BC8" fill-rule="evenodd" xlink:href="#path-3"></use>
                <path stroke="#FFBD46" stroke-width="10" d="M25,-5 L25,267.384102 L125,210.241244 L225,267.384102 L225,-5 L25,-5 Z"></path>
                <path stroke="#689BC8" stroke-width="6" d="M23,-7 L23,270.830461 L125,212.544747 L227,270.830461 L227,-7 L23,-7 Z"></path>
            </g>
        </g>
        <g id="view" transform="translate(192.000000, 122.000000)" fill="#FFFFFF" opacity="0.7">
            <path d="M13.1451287,12.4380219 L17.0961941,16.3890873 C17.2914562,16.5843494 17.2914562,16.9009319 17.0961941,17.0961941 C16.9009319,17.2914562 16.5843494,17.2914562 16.3890873,17.0961941 L12.4380219,13.1451287 C11.1187738,14.3000688 9.39112573,15 7.5,15 C3.35786438,15 0,11.6421356 0,7.5 C0,3.35786438 3.35786438,0 7.5,0 C11.6421356,0 15,3.35786438 15,7.5 C15,9.39112573 14.3000688,11.1187738 13.1451287,12.4380219 Z M7,7 L7,3.5 C7,3.22385763 7.22385763,3 7.5,3 C7.77614237,3 8,3.22385763 8,3.5 L8,7 L11.5,7 C11.7761424,7 12,7.22385763 12,7.5 C12,7.77614237 11.7761424,8 11.5,8 L8,8 L8,11.5 C8,11.7761424 7.77614237,12 7.5,12 C7.22385763,12 7,11.7761424 7,11.5 L7,8 L3.5,8 C3.22385763,8 3,7.77614237 3,7.5 C3,7.22385763 3.22385763,7 3.5,7 L7,7 Z M7.5,14 C11.0898509,14 14,11.0898509 14,7.5 C14,3.91014913 11.0898509,1 7.5,1 C3.91014913,1 1,3.91014913 1,7.5 C1,11.0898509 3.91014913,14 7.5,14 Z" id="Combined-Shape"></path>
        </g>
        <path d="M82.3019999,142.594 L85.2719999,142.594 L85.2719999,135.004 L87.2739999,135.004 L87.2739999,142.594 L89.7379999,142.594 L89.7379999,144.508 L87.2739999,144.508 L87.2739999,155.266 L85.2719999,155.266 L85.2719999,144.508 L82.3019999,144.508 L82.3019999,142.594 Z M93.5659999,148.996 L93.5659999,149.106 C93.5659999,149.48 93.5439999,149.854 93.4999999,150.206 L99.0439999,150.206 L99.0439999,148.996 L93.5659999,148.996 Z M99.0439999,147.412 L99.0439999,146.18 L93.5659999,146.18 L93.5659999,147.412 L99.0439999,147.412 Z M93.2579999,151.79 C92.9499999,153.132 92.3999999,154.298 91.6079999,155.288 L90.1119999,153.924 C91.1019999,152.692 91.6079999,151.13 91.6299999,149.238 L91.6299999,144.508 L101.046,144.508 L101.046,153.242 C101.046,154.518 100.32,155.156 98.9119999,155.156 L96.7559999,155.156 L96.2719999,153.352 C96.9979999,153.396 97.6799999,153.44 98.3399999,153.44 C98.8019999,153.44 99.0439999,153.132 99.0439999,152.538 L99.0439999,151.79 L93.2579999,151.79 Z M83.2479999,145.85 L84.6559999,146.224 C84.3259999,148.864 83.9079999,151.174 83.4019999,153.176 L81.8619999,152.626 C82.3899999,150.844 82.8519999,148.578 83.2479999,145.85 Z M89.0779999,145.762 C89.5619999,147.412 89.9799999,149.282 90.3539999,151.394 L88.8139999,151.79 C88.5499999,149.854 88.2199999,147.984 87.8239999,146.18 L89.0779999,145.762 Z M83.7979999,136.808 C84.1059999,138.15 84.3919999,139.69 84.6339999,141.406 L83.2479999,141.758 C82.9839999,140.218 82.6759999,138.722 82.3019999,137.292 L83.7979999,136.808 Z M88.6599999,136.478 L90.1999999,136.676 C90.0679999,138.524 89.7379999,140.152 89.2099999,141.604 L87.8679999,141.164 C88.2639999,139.8 88.5279999,138.238 88.6599999,136.478 Z M90.7939999,136.236 L95.3479999,136.236 L95.3479999,134.938 L97.3499999,134.938 L97.3499999,136.236 L101.772,136.236 L101.772,137.93 L97.3499999,137.93 L97.3499999,139.008 L101.134,139.008 L101.134,140.658 L97.3499999,140.658 L97.3499999,141.758 L102.278,141.758 L102.278,143.496 L90.3539999,143.496 L90.3539999,141.758 L95.3479999,141.758 L95.3479999,140.658 L91.4319999,140.658 L91.4319999,139.008 L95.3479999,139.008 L95.3479999,137.93 L90.7939999,137.93 L90.7939999,136.236 Z M105.006,149.282 L113.784,149.282 L113.784,147.676 L115.852,147.676 L115.852,149.282 L124.674,149.282 L124.674,151.218 L115.852,151.218 L115.852,155.244 L113.784,155.244 L113.784,151.218 L105.006,151.218 L105.006,149.282 Z M112.09,141.142 C111.584,141.736 111.034,142.308 110.44,142.88 L109.824,140.922 C111.562,139.096 112.772,137.116 113.476,134.982 L115.412,135.378 C115.214,135.928 114.994,136.478 114.752,137.006 L117.634,137.006 C117.414,136.39 117.194,135.796 116.93,135.268 L118.998,134.916 C119.218,135.532 119.416,136.214 119.636,137.006 L124.146,137.006 L124.146,138.722 L119.724,138.722 L119.724,139.866 L123.684,139.866 L123.684,141.494 L119.724,141.494 L119.724,142.638 L123.706,142.638 L123.706,144.266 L119.724,144.266 L119.724,145.52 L124.388,145.52 L124.388,147.236 L112.09,147.236 L112.09,141.142 Z M117.744,138.722 L113.982,138.722 L113.982,139.866 L117.744,139.866 L117.744,138.722 Z M117.744,141.494 L113.982,141.494 L113.982,142.638 L117.744,142.638 L117.744,141.494 Z M117.744,144.266 L113.982,144.266 L113.982,145.52 L117.744,145.52 L117.744,144.266 Z M107.14,134.982 C108.46,135.576 109.692,136.302 110.792,137.16 L109.758,138.744 C108.57,137.798 107.338,137.05 106.106,136.5 L107.14,134.982 Z M105.688,138.612 C106.942,139.14 108.086,139.778 109.12,140.526 L108.086,142.132 C106.964,141.296 105.82,140.658 104.632,140.174 L105.688,138.612 Z M109.494,142.682 L110.66,144.046 C109.516,145.542 108.086,146.95 106.392,148.248 L104.984,146.598 C106.788,145.41 108.284,144.09 109.494,142.682 Z M130.086,155.024 L128.194,155.024 L127.732,153 C128.304,153.066 128.854,153.11 129.36,153.11 C129.888,153.11 130.174,152.824 130.174,152.296 L130.174,147.544 C129.338,147.896 128.524,148.204 127.71,148.49 L127.182,146.378 C128.194,146.114 129.206,145.806 130.174,145.432 L130.174,140.834 L127.666,140.834 L127.666,138.832 L130.174,138.832 L130.174,134.982 L132.242,134.982 L132.242,138.832 L134.574,138.832 L134.574,140.834 L132.242,140.834 L132.242,144.508 C132.99,144.112 133.738,143.716 134.464,143.276 L134.464,145.41 C133.716,145.85 132.99,146.246 132.242,146.598 L132.242,152.824 C132.242,154.276 131.516,155.024 130.086,155.024 Z M135.168,144.2 L145.926,144.2 L145.926,146.136 C145.31,148.094 144.254,149.788 142.802,151.196 C144.21,152.076 145.882,152.846 147.84,153.506 L146.718,155.31 C144.562,154.452 142.758,153.506 141.284,152.472 C139.612,153.682 137.566,154.65 135.124,155.376 L133.98,153.616 C136.18,152.956 138.05,152.098 139.568,151.086 C137.984,149.634 136.928,148.006 136.378,146.224 L135.168,146.224 L135.168,144.2 Z M138.314,146.224 C138.842,147.588 139.744,148.842 141.042,149.942 C142.252,148.842 143.176,147.61 143.814,146.224 L138.314,146.224 Z M136.686,135.708 L144.562,135.708 L144.562,140.306 C144.562,140.79 144.87,141.032 145.486,141.032 L147.158,141.032 L147.158,142.968 L144.914,142.968 C143.308,142.968 142.516,142.242 142.516,140.79 L142.516,137.666 L138.732,137.666 L138.732,138.678 C138.732,140.79 137.698,142.44 135.674,143.606 L134.288,142 C135.872,141.274 136.686,140.24 136.686,138.898 L136.686,135.708 Z M160.358,137.798 C159.676,138.7 158.84,139.514 157.85,140.218 L156.706,138.7 C158.246,137.644 159.302,136.368 159.874,134.828 L161.788,135.048 C161.656,135.4 161.524,135.752 161.37,136.082 L169.092,136.082 L169.092,137.534 C168.52,138.7 167.882,139.668 167.2,140.416 L165.77,139.294 C166.188,138.854 166.562,138.37 166.914,137.798 L160.358,137.798 Z M150.898,136.104 L156.354,136.104 L156.354,137.864 L150.898,137.864 L150.898,136.104 Z M150.458,140.064 L156.816,140.064 L156.816,141.846 L150.458,141.846 L150.458,140.064 Z M162.602,137.996 L164.362,138.348 C164.274,138.656 164.186,138.942 164.076,139.228 C165.638,140.68 167.618,141.56 169.994,141.846 L169.136,143.562 C168.542,143.474 167.97,143.342 167.442,143.166 L167.442,152.186 L163.086,152.186 C165.44,152.56 167.706,153.088 169.884,153.77 L169.202,155.42 C166.87,154.584 164.406,153.946 161.854,153.506 L162.536,152.186 L157.476,152.186 L158.378,153.352 C156.75,154.21 154.418,154.892 151.382,155.398 L150.436,153.792 C153.252,153.352 155.408,152.824 156.948,152.186 L152.9,152.186 L152.9,143.1 L158.202,143.1 L157.366,141.824 C160.314,141.296 162.052,140.02 162.602,137.996 Z M159.258,143.1 L167.244,143.1 C165.726,142.572 164.406,141.758 163.262,140.636 C162.338,141.78 161.018,142.616 159.258,143.1 Z M165.396,150.514 L165.396,149.436 L154.946,149.436 L154.946,150.514 L165.396,150.514 Z M154.946,148.072 L165.396,148.072 L165.396,147.104 L154.946,147.104 L154.946,148.072 Z M154.946,145.718 L165.396,145.718 L165.396,144.684 L154.946,144.684 L154.946,145.718 Z M58.8059999,162.828 C59.0039999,163.378 59.2019999,163.972 59.3999999,164.632 L67.9579999,164.632 L67.9579999,166.568 L48.3999999,166.568 L48.3999999,164.632 L57.1339999,164.632 C56.9359999,164.126 56.7159999,163.664 56.4739999,163.224 L58.8059999,162.828 Z M64.3939999,183.2 L62.5679999,183.2 L62.0839999,181.33 L63.7779999,181.418 C64.5919999,181.418 65.0099999,181.11 65.0099999,180.538 L65.0099999,174.972 L51.3699999,174.972 L51.3699999,183.266 L49.3899999,183.266 L49.3899999,173.168 L66.9899999,173.168 L66.9899999,180.978 C66.9899999,182.452 66.1099999,183.2 64.3939999,183.2 Z M51.8539999,167.602 L64.5479999,167.602 L64.5479999,172.178 L51.8539999,172.178 L51.8539999,167.602 Z M62.5459999,170.594 L62.5459999,169.186 L53.8559999,169.186 L53.8559999,170.594 L62.5459999,170.594 Z M53.7239999,176.028 L62.6779999,176.028 L62.6779999,180.648 L53.7239999,180.648 L53.7239999,176.028 Z M60.8299999,179.108 L60.8299999,177.568 L55.5939999,177.568 L55.5939999,179.108 L60.8299999,179.108 Z M74.6019999,163.708 L87.0979999,163.708 L87.0979999,171.386 L74.6019999,171.386 L74.6019999,163.708 Z M85.0079999,169.406 L85.0079999,165.688 L76.6919999,165.688 L76.6919999,169.406 L85.0079999,169.406 Z M79.7939999,173.036 L79.7939999,182.936 L77.7699999,182.936 L77.7699999,181.88 L73.6999999,181.88 L73.6999999,182.936 L71.6539999,182.936 L71.6539999,173.036 L79.7939999,173.036 Z M73.6999999,179.922 L77.7699999,179.922 L77.7699999,175.016 L73.6999999,175.016 L73.6999999,179.922 Z M90.0459999,173.036 L90.0459999,182.936 L87.9559999,182.936 L87.9559999,181.88 L83.7099999,181.88 L83.7099999,182.936 L81.6639999,182.936 L81.6639999,173.036 L90.0459999,173.036 Z M83.7099999,179.922 L87.9559999,179.922 L87.9559999,175.016 L83.7099999,175.016 L83.7099999,179.922 Z M96.514,167.954 C96.294,169.406 95.788,170.616 94.952,171.584 L93.5,170.022 C94.248,169.252 94.644,168.174 94.71,166.788 L94.71,163.62 C97.702,163.576 100.364,163.378 102.696,162.982 L103.598,164.632 C101.508,164.94 99.176,165.138 96.624,165.226 L96.624,166.26 L103.4,166.26 L103.4,167.954 L100.958,167.954 L100.958,170.33 L98.934,170.33 L98.934,167.954 L96.514,167.954 Z M106.084,168.042 C105.82,169.142 105.314,170.066 104.588,170.814 L111.122,170.814 L111.122,180.076 L106.744,180.076 C109.032,180.472 111.232,181.022 113.322,181.704 L112.64,183.354 C110.352,182.54 107.976,181.924 105.512,181.484 L106.216,180.076 L100.826,180.076 L101.772,181.33 C100.21,182.144 97.988,182.804 95.084,183.288 L94.16,181.704 C96.976,181.264 99.132,180.736 100.628,180.076 L96.382,180.076 L96.382,170.814 L104.214,170.814 L102.96,169.472 C103.84,168.724 104.324,167.712 104.412,166.436 L104.412,163.642 C107.36,163.598 109.978,163.378 112.31,162.982 L113.212,164.632 C111.144,164.962 108.856,165.16 106.326,165.248 L106.326,166.304 L113.3,166.304 L113.3,168.042 L110.572,168.042 L110.572,170.352 L108.57,170.352 L108.57,168.042 L106.084,168.042 Z M109.01,178.404 L109.01,177.326 L98.472,177.326 L98.472,178.404 L109.01,178.404 Z M98.472,175.94 L109.01,175.94 L109.01,174.906 L98.472,174.906 L98.472,175.94 Z M98.472,173.498 L109.01,173.498 L109.01,172.464 L98.472,172.464 L98.472,173.498 Z M131.78,162.806 C132.792,163.576 133.65,164.346 134.354,165.138 L133.342,166.15 L135.982,166.15 L135.982,168.152 L129.426,168.152 C129.58,170.748 129.844,172.772 130.218,174.202 C130.306,174.576 130.416,174.95 130.526,175.302 C131.45,173.674 132.22,171.826 132.836,169.736 L134.75,170.55 C133.87,173.366 132.77,175.786 131.406,177.766 C131.648,178.294 131.89,178.734 132.132,179.108 C132.792,180.076 133.32,180.582 133.672,180.582 C133.958,180.582 134.244,179.504 134.53,177.348 L136.422,178.36 C135.872,181.396 135.058,182.936 134.002,182.936 C133.034,182.936 132.022,182.276 130.966,180.978 C130.614,180.538 130.306,180.054 130.02,179.526 C128.546,181.176 126.83,182.43 124.894,183.288 L123.706,181.528 C125.818,180.582 127.6,179.218 129.052,177.414 C128.744,176.622 128.48,175.764 128.238,174.84 C127.754,173.058 127.446,170.836 127.292,168.152 L120.208,168.152 L120.208,171.364 L125.598,171.364 C125.554,175.346 125.356,177.854 125.004,178.91 C124.652,179.834 123.904,180.296 122.76,180.318 C122.232,180.318 121.616,180.274 120.934,180.208 L120.296,178.316 C121.176,178.36 121.902,178.404 122.518,178.404 C122.914,178.382 123.156,178.14 123.288,177.656 C123.42,177.084 123.486,175.632 123.53,173.344 L120.208,173.344 L120.208,173.476 C120.12,177.546 119.218,180.802 117.546,183.266 L115.962,181.858 C117.326,179.856 118.052,177.062 118.118,173.476 L118.118,166.15 L127.182,166.15 C127.138,165.116 127.138,164.038 127.138,162.916 L129.25,162.916 C129.25,164.06 129.294,165.138 129.338,166.15 L132.726,166.15 C132.132,165.49 131.384,164.786 130.46,164.082 L131.78,162.806 Z M144.672,168.702 L144.672,170.066 L155.144,170.066 L155.144,171.826 L144.672,171.826 L144.672,173.212 L158.356,173.212 L158.356,175.148 L144.21,175.148 L144.21,181 C145.992,180.648 147.774,180.164 149.556,179.548 L149.93,181.396 C147.73,182.144 145.222,182.738 142.362,183.222 L141.548,181.484 C141.988,181.286 142.208,181.022 142.208,180.67 L142.208,175.148 L139.304,175.148 L139.304,173.212 L142.648,173.212 L142.648,163.576 L156.266,163.576 L156.266,165.512 L144.672,165.512 L144.672,166.942 L155.122,166.942 L155.122,168.702 L144.672,168.702 Z M150.062,175.478 C150.634,176.446 151.316,177.326 152.152,178.096 C153.406,177.524 154.616,176.644 155.782,175.456 L157.124,176.842 C156.112,177.876 154.968,178.69 153.692,179.306 C155.166,180.296 156.926,181.066 158.972,181.594 L157.806,183.332 C153.406,182.1 150.282,179.812 148.434,176.424 L150.062,175.478 Z M166.562,166.084 L162.58,166.084 L162.58,164.368 L170.874,164.368 C170.654,163.928 170.434,163.51 170.214,163.136 L172.348,162.784 C172.568,163.246 172.788,163.774 173.008,164.368 L180.444,164.368 L180.444,166.084 L177.012,166.084 L177.848,166.656 C176.88,167.184 175.846,167.646 174.768,168.064 C176.308,168.504 177.738,168.944 179.036,169.384 L178.046,170.374 L180.554,170.374 L180.554,172.134 L165.088,172.134 L165.088,174.422 C165.066,175.148 165.022,175.852 164.978,176.534 C166.276,175.522 167.266,174.18 167.926,172.53 L169.554,173.19 L169.136,174.158 L172.436,174.158 L172.436,172.596 L174.46,172.596 L174.46,174.158 L179.982,174.158 L179.982,175.984 L174.46,175.984 L174.46,177.59 L179.542,177.59 L179.542,179.394 L174.46,179.394 L174.46,180.978 L181.104,180.978 L181.104,182.782 L165.132,182.782 L165.132,180.978 L172.436,180.978 L172.436,179.394 L167.376,179.394 L167.376,177.59 L172.436,177.59 L172.436,175.984 L168.058,175.984 C167.53,176.732 166.936,177.348 166.298,177.876 L164.956,176.71 C164.692,179.35 164.032,181.55 162.976,183.31 L161.436,181.924 C162.492,180.12 163.042,177.634 163.086,174.422 L163.086,170.374 L177.166,170.374 C175.802,169.868 174.218,169.362 172.458,168.856 C170.236,169.516 167.816,169.978 165.22,170.286 L164.252,168.988 C166.232,168.768 168.08,168.46 169.752,168.108 C168.432,167.756 167.024,167.404 165.528,167.052 L166.562,166.084 Z M175.846,166.084 L167.024,166.084 C168.96,166.524 170.742,166.964 172.392,167.426 C173.668,167.03 174.834,166.568 175.846,166.084 Z M191.158,162.96 L193.182,162.96 L193.182,166.15 L195.008,166.15 L195.008,162.96 L197.032,162.96 L197.032,166.15 L198.572,166.15 C199.166,165.226 199.672,164.28 200.112,163.268 L202.048,163.994 C201.586,164.808 201.124,165.534 200.662,166.15 L203.808,166.15 L203.808,167.976 L197.67,167.976 L199.364,168.57 C199.056,169.076 198.748,169.538 198.396,169.978 L202.796,169.978 L202.796,171.804 L195.206,171.804 L195.206,173.014 L201.762,173.014 L201.762,174.752 L195.206,174.752 L195.206,175.962 L203.786,175.962 L203.786,177.81 L195.206,177.81 L195.206,183.332 L193.094,183.332 L193.094,177.81 L184.514,177.81 L184.514,175.962 L193.094,175.962 L193.094,174.752 L186.538,174.752 L186.538,173.014 L193.094,173.014 L193.094,171.804 L185.504,171.804 L185.504,169.978 L189.904,169.978 C189.618,169.45 189.288,168.966 188.936,168.504 L190.366,167.976 L184.492,167.976 L184.492,166.15 L187.616,166.15 C187.264,165.38 186.824,164.676 186.34,164.016 L188.298,163.29 C188.782,164.082 189.222,165.05 189.64,166.15 L191.158,166.15 L191.158,162.96 Z M197.296,167.976 L191.026,167.976 C191.4,168.57 191.752,169.23 192.082,169.978 L196.086,169.978 C196.548,169.318 196.944,168.658 197.296,167.976 Z M198.748,178.25 C200.64,179.35 202.224,180.428 203.5,181.506 L202.004,183.002 C200.904,181.924 199.386,180.78 197.406,179.548 L198.748,178.25 Z M189.64,178.206 L191.026,179.438 C189.684,180.802 188.012,181.99 186.032,183.002 L184.734,181.33 C186.67,180.45 188.32,179.394 189.64,178.206 Z" id="精準投資-高品質成長產業" fill="#FFFFFF"></path>
        <g id="Group-20" transform="translate(83.000000, 30.000000)">
            <path d="M41.273396,15.6494671 C39.8751084,15.6494671 38.7442077,14.5185664 38.7451234,13.1211945 L38.7451234,2.52827259 C38.7451234,1.13090063 39.8760241,0 41.273396,0 C42.670768,0 43.8016686,1.13090063 43.8016686,2.52827259 L43.8016686,13.1211945 C43.8016686,14.5185664 42.670768,15.6494671 41.273396,15.6494671 Z M61.656163,7.05645367 C62.354849,5.84680206 63.9033129,5.42191308 65.1102174,6.13250328 C66.319869,6.82935784 66.7346852,8.37507465 66.0359992,9.58472626 L60.7395383,18.7555521 C60.2706953,19.5659545 59.421833,20.0201462 58.5473309,20.0201462 C58.1178634,20.0201462 57.6829016,19.9111768 57.2854839,19.6795024 C56.0758323,18.9826479 55.6610161,17.4369311 56.359702,16.2272795 L61.656163,7.05645367 Z M79.2368604,22.4293766 C80.440102,21.7187864 81.9931445,22.1436754 82.6909148,23.353327 C83.3896008,24.5638943 82.9747846,26.1096112 81.765133,26.80555 L72.5924758,32.1047581 C72.195058,32.3364325 71.7600963,32.4454018 71.3306287,32.4454018 C70.4570423,32.4454018 69.6072644,31.9902945 69.1384214,31.1808077 C68.4397354,29.9702404 68.8545516,28.4245235 70.0642032,27.7285847 L79.2368604,22.4293766 Z M21.9345373,19.2399621 L16.6408235,10.0654735 C15.9421375,8.85490618 16.3569537,7.30918936 17.5666053,6.61325051 C18.7661841,5.9017446 20.3192266,6.32663359 21.0206597,7.5362852 L26.3143735,16.7116895 C27.0130595,17.9222568 26.5982433,19.4679737 25.3885917,20.1639125 C24.991174,20.3955869 24.5562122,20.5045563 24.1267447,20.5045563 C23.2531583,20.5045563 22.4033803,20.0494489 21.9345373,19.2399621 Z M10.4378106,32.938969 L1.26515343,27.6443395 C0.0555018185,26.9474849 -0.359314365,25.4017681 0.339371613,24.1921165 C1.03531046,22.9824649 2.58377441,22.5575759 3.79342602,23.2690818 L12.9660832,28.5627956 C14.1757348,29.2596502 14.590551,30.805367 13.891865,32.0150186 C13.423022,32.8254211 12.5741598,33.2796127 11.6996577,33.2796127 C11.2701901,33.2796127 10.8352283,33.1706434 10.4378106,32.938969 Z" id="Combined-Shape" fill="#FFFFFF" fill-rule="nonzero"></path>
            <g id="Group-19" transform="translate(2.000000, 26.000000)" stroke="#FFFFFF" stroke-linecap="round" stroke-linejoin="round" stroke-width="3">
                <polygon id="Rectangle-21" points="30.4666667 0 49.5333333 0 53 16 27 16"></polygon>
                <polygon id="Rectangle-21-Copy-4" points="30.4666667 32 49.5333333 32 53 48 27 48"></polygon>
                <polygon id="Rectangle-21-Copy-3" points="3.46666667 32 22.5333333 32 26 48 0 48"></polygon>
                <polygon id="Rectangle-21-Copy-5" points="57.4666667 32 76.5333333 32 80 48 54 48"></polygon>
                <polygon id="Rectangle-21-Copy" points="17.4666667 16 36.5333333 16 40 32 14 32"></polygon>
                <polygon id="Rectangle-21-Copy-2" points="44.4666667 16 63.5333333 16 67 32 41 32"></polygon>
            </g>
        </g>
    </g>
</svg>