<?xml version="1.0" encoding="UTF-8"?>
<svg width="250px" height="276px" viewBox="0 0 250 276" version="1.1" xmlns="http://www.w3.org/2000/svg" xmlns:xlink="http://www.w3.org/1999/xlink">
    <!-- Generator: Sketch 49 (51002) - http://www.bohemiancoding.com/sketch -->
    <title>s2_f1</title>
    <desc>Created with Sketch.</desc>
    <defs>
        <polygon id="path-1" points="20 4 230 4 230 276 125 216 20 276"></polygon>
        <polygon id="path-3" points="20 -10 230 -10 230 276 125 216 20 276"></polygon>
    </defs>
    <g id="s2_f1" stroke="none" stroke-width="1" fill="none" fill-rule="evenodd">
        <g id="Group-35-Copy-5">
            <polygon id="Combined-Shape" fill="#D2BEA6" points="234 18 16 18 16 22 0 22 0 0 16 0 16 4 234 4 234 0 250 0 250 22 234 22"></polygon>
            <polygon id="Combined-Shape" fill="#B7956F" points="234 18 16 18 16 22 0 22 0 12 250 12 250 22 234 22"></polygon>
            <mask id="mask-2" fill="white">
                <use xlink:href="#path-1"></use>
            </mask>
            <g id="Combined-Shape"></g>
            <g id="Combined-Shape" mask="url(#mask-2)">
                <use fill="#0B406C" fill-rule="evenodd" xlink:href="#path-3"></use>
                <path stroke="#FFBD46" stroke-width="10" d="M25,-5 L25,267.384102 L125,210.241244 L225,267.384102 L225,-5 L25,-5 Z"></path>
                <path stroke="#0B406C" stroke-width="6" d="M23,-7 L23,270.830461 L125,212.544747 L227,270.830461 L227,-7 L23,-7 Z"></path>
            </g>
        </g>
        <g id="view" transform="translate(192.000000, 122.000000)" fill="#FFFFFF" opacity="0.7">
            <path d="M13.1451287,12.4380219 L17.0961941,16.3890873 C17.2914562,16.5843494 17.2914562,16.9009319 17.0961941,17.0961941 C16.9009319,17.2914562 16.5843494,17.2914562 16.3890873,17.0961941 L12.4380219,13.1451287 C11.1187738,14.3000688 9.39112573,15 7.5,15 C3.35786438,15 0,11.6421356 0,7.5 C0,3.35786438 3.35786438,0 7.5,0 C11.6421356,0 15,3.35786438 15,7.5 C15,9.39112573 14.3000688,11.1187738 13.1451287,12.4380219 Z M7,7 L7,3.5 C7,3.22385763 7.22385763,3 7.5,3 C7.77614237,3 8,3.22385763 8,3.5 L8,7 L11.5,7 C11.7761424,7 12,7.22385763 12,7.5 C12,7.77614237 11.7761424,8 11.5,8 L8,8 L8,11.5 C8,11.7761424 7.77614237,12 7.5,12 C7.22385763,12 7,11.7761424 7,11.5 L7,8 L3.5,8 C3.22385763,8 3,7.77614237 3,7.5 C3,7.22385763 3.22385763,7 3.5,7 L7,7 Z M7.5,14 C11.0898509,14 14,11.0898509 14,7.5 C14,3.91014913 11.0898509,1 7.5,1 C3.91014913,1 1,3.91014913 1,7.5 C1,11.0898509 3.91014913,14 7.5,14 Z" id="Combined-Shape"></path>
        </g>
        <path d="M89.6239999,140.57 L81.6379999,140.57 L81.6379999,138.524 L89.6239999,138.524 C89.2719999,137.446 88.8539999,136.412 88.3699999,135.422 L90.3939999,134.872 C90.9439999,136.192 91.3619999,137.402 91.6699999,138.502 L91.6039999,138.524 L99.7439999,138.524 L99.7439999,140.57 L91.7359999,140.57 L91.7359999,145.146 L98.6879999,145.146 L98.6879999,147.104 L91.7359999,147.104 L91.7359999,152.472 L100.514,152.472 L100.514,154.518 L80.8679999,154.518 L80.8679999,152.472 L89.6239999,152.472 L89.6239999,147.104 L82.6939999,147.104 L82.6939999,145.146 L89.6239999,145.146 L89.6239999,140.57 Z M116.442,135.026 L118.4,135.026 L118.4,139.03 L122.756,139.03 C122.756,146.422 122.646,150.976 122.448,152.692 C122.25,154.276 121.282,155.068 119.544,155.068 C119.148,155.068 118.444,155.024 117.432,154.98 L116.926,153.132 C117.806,153.198 118.598,153.242 119.258,153.242 C119.984,153.242 120.402,152.758 120.534,151.79 C120.666,150.69 120.754,147.082 120.798,140.944 L118.4,140.944 L118.4,141.758 C118.334,147.874 117.014,152.362 114.418,155.178 L113.164,154.078 C110.304,154.43 107.048,154.738 103.418,154.958 L103.154,153.11 C104.738,153.022 106.234,152.912 107.664,152.824 L107.664,151.284 L103.88,151.284 L103.88,149.568 L107.664,149.568 L107.664,148.402 L103.814,148.402 L103.814,141.384 L107.664,141.384 L107.664,140.328 L103.352,140.328 L103.352,138.612 L107.664,138.612 L107.664,137.468 C106.52,137.534 105.288,137.578 103.99,137.578 L103.44,135.928 C107.136,135.928 110.238,135.62 112.768,135.048 L113.692,136.632 C112.504,136.94 111.162,137.16 109.644,137.314 L109.644,138.612 L113.846,138.612 L113.846,140.328 L109.644,140.328 L109.644,141.384 L113.516,141.384 L113.516,148.402 L109.644,148.402 L109.644,149.568 L113.45,149.568 L113.45,151.284 L109.644,151.284 L109.644,152.648 C111.008,152.516 112.262,152.384 113.428,152.252 L113.428,153.286 C115.408,150.734 116.398,146.884 116.442,141.758 L116.442,140.944 L114.462,140.944 L114.462,139.03 L116.442,139.03 L116.442,135.026 Z M111.624,146.862 L111.624,145.586 L109.512,145.586 L109.512,146.862 L111.624,146.862 Z M107.796,146.862 L107.796,145.586 L105.706,145.586 L105.706,146.862 L107.796,146.862 Z M105.706,144.178 L107.796,144.178 L107.796,142.902 L105.706,142.902 L105.706,144.178 Z M109.512,142.902 L109.512,144.178 L111.624,144.178 L111.624,142.902 L109.512,142.902 Z M141.676,142.44 L141.676,136.61 L143.788,136.61 L143.788,144.464 L137.078,144.464 L137.078,152.054 L142.776,152.054 L142.776,146.224 L144.866,146.224 L144.866,155.112 L142.776,155.112 L142.776,154.056 L129.224,154.056 L129.224,155.112 L127.134,155.112 L127.134,146.224 L129.224,146.224 L129.224,152.054 L134.922,152.054 L134.922,144.464 L128.212,144.464 L128.212,136.61 L130.324,136.61 L130.324,142.44 L134.922,142.44 L134.922,134.938 L137.078,134.938 L137.078,142.44 L141.676,142.44 Z M165.502,146.356 L166.316,147.698 C164.468,147.874 162.334,148.028 159.914,148.138 L159.914,149.04 L166.8,149.04 L166.8,150.448 L159.914,150.448 L159.914,151.24 L168.494,151.24 L168.494,152.78 L159.914,152.78 L159.914,153.616 C159.914,154.76 159.166,155.354 157.692,155.354 L155.052,155.354 L154.678,153.682 C155.514,153.748 156.328,153.792 157.12,153.792 C157.626,153.792 157.89,153.572 157.89,153.176 L157.89,152.78 L148.826,152.78 L148.826,151.24 L157.89,151.24 L157.89,150.448 L150.718,150.448 L150.718,149.04 L157.89,149.04 L157.89,148.204 C155.866,148.248 153.688,148.292 151.356,148.292 L150.916,146.972 C156.68,146.972 161.542,146.752 165.502,146.356 Z M149.794,137.556 L153.248,137.556 L153.248,136.962 L149.068,136.962 L149.068,135.554 L153.248,135.554 L153.248,134.916 L155.096,134.916 L155.096,135.554 L159.144,135.554 L159.144,136.962 L155.096,136.962 L155.096,137.556 L158.528,137.556 L158.528,141.89 L155.096,141.89 L155.096,142.506 L159.408,142.506 L159.408,143.826 L155.096,143.826 L155.096,144.948 L156.768,144.948 L156.768,144.178 L158.528,144.178 L158.528,146.246 L149.816,146.246 L149.816,144.178 L151.576,144.178 L151.576,144.948 L153.248,144.948 L153.248,143.826 L148.914,143.826 L148.914,142.506 L153.248,142.506 L153.248,141.89 L149.794,141.89 L149.794,137.556 Z M156.856,140.878 L156.856,140.108 L154.898,140.108 L154.898,140.878 L156.856,140.878 Z M153.446,140.878 L153.446,140.108 L151.466,140.108 L151.466,140.878 L153.446,140.878 Z M151.466,139.272 L153.446,139.272 L153.446,138.568 L151.466,138.568 L151.466,139.272 Z M154.898,138.568 L154.898,139.272 L156.856,139.272 L156.856,138.568 L154.898,138.568 Z M160.486,135.51 L166.36,135.51 L166.36,137.82 C166.36,138.018 166.492,138.128 166.756,138.128 L168.142,138.128 L168.142,139.514 L166.25,139.514 C165.106,139.514 164.534,139.052 164.534,138.172 L164.534,137.05 L162.18,137.05 C162.136,137.6 161.982,138.128 161.762,138.656 C161.498,139.14 161.036,139.646 160.376,140.174 L167.482,140.174 L167.482,141.648 C167.042,142.572 166.36,143.364 165.414,144.068 C166.316,144.376 167.328,144.64 168.472,144.86 L167.856,146.444 C166.206,146.114 164.798,145.652 163.654,145.08 C162.576,145.564 161.3,145.982 159.826,146.334 L158.99,144.794 C160.09,144.574 161.08,144.332 161.96,144.046 C161.058,143.364 160.354,142.594 159.848,141.736 L159.408,141.736 L159.408,140.174 L160.112,140.174 L158.88,139.074 C159.364,138.7 159.76,138.304 160.068,137.886 C160.332,137.446 160.486,136.654 160.486,135.51 Z M161.586,141.736 C162.114,142.33 162.818,142.858 163.676,143.298 C164.49,142.836 165.128,142.308 165.612,141.736 L161.586,141.736 Z M69.8679999,163.972 L88.8319999,163.972 L88.8319999,166.018 L81.7039999,166.018 C81.3079999,166.854 80.8899999,167.668 80.4279999,168.438 L80.4279999,169.406 C83.8819999,171.386 86.8739999,173.564 89.3819999,175.94 L87.9519999,177.678 C85.9059999,175.522 83.3979999,173.498 80.4279999,171.606 L80.4279999,183.31 L78.2719999,183.31 L78.2719999,171.408 C76.2479999,173.762 73.6739999,175.874 70.5719999,177.722 L69.1859999,175.896 C74.0259999,173.168 77.4139999,169.868 79.3499999,166.018 L69.8679999,166.018 L69.8679999,163.972 Z M109.226,171.672 L109.226,183.31 L107.202,183.31 L107.202,182.21 L97.72,182.21 L97.72,183.31 L95.696,183.31 L95.696,171.672 L109.226,171.672 Z M97.72,180.516 L107.202,180.516 L107.202,179.108 L97.72,179.108 L97.72,180.516 Z M97.72,177.524 L107.202,177.524 L107.202,176.226 L97.72,176.226 L97.72,177.524 Z M97.72,174.642 L107.202,174.642 L107.202,173.366 L97.72,173.366 L97.72,174.642 Z M92.484,164.83 L101.438,164.83 C101.174,164.236 100.91,163.686 100.624,163.202 L102.802,162.85 C103.066,163.444 103.308,164.104 103.55,164.83 L111.558,164.83 L111.558,166.722 L96.928,166.722 L96.928,168.152 C96.928,168.548 97.17,168.746 97.698,168.746 L110.106,168.746 L110.106,170.594 L97.126,170.594 C95.718,170.594 95.036,169.934 95.036,168.636 L95.036,166.722 L92.484,166.722 L92.484,164.83 Z M127.266,171.628 L129.334,171.628 L129.334,174.488 L133.58,174.488 L133.58,176.512 L129.334,176.512 L129.334,181 C129.95,181.088 130.654,181.132 131.402,181.132 C132.546,181.132 133.756,181.066 134.988,180.978 L134.57,183.046 L132.348,183.046 C129.4,183.046 127.31,182.65 126.034,181.88 C125.198,181.352 124.472,180.472 123.856,179.218 C123.372,180.714 122.712,182.1 121.92,183.42 L120.314,181.99 C121.898,179.306 122.756,176.336 122.932,173.08 L124.912,173.322 C124.846,174.466 124.714,175.588 124.516,176.644 C125.22,178.58 126.012,179.79 126.914,180.296 C127.024,180.362 127.134,180.428 127.266,180.472 L127.266,171.628 Z M124.648,168.152 C124.076,169.472 123.394,170.616 122.602,171.562 L121.282,169.934 C122.624,168.174 123.526,165.82 123.988,162.872 L126.034,163.224 C125.836,164.346 125.594,165.38 125.286,166.348 C126.056,167.008 126.826,167.756 127.596,168.548 L126.342,170.418 C125.66,169.45 125.088,168.702 124.648,168.152 Z M130.83,168.218 C130.302,169.384 129.664,170.396 128.916,171.254 L127.596,169.626 C128.916,167.954 129.818,165.688 130.28,162.828 L132.326,163.18 C132.106,164.368 131.842,165.446 131.534,166.436 C132.48,167.228 133.448,168.108 134.416,169.098 L133.14,171.012 C132.216,169.802 131.446,168.878 130.83,168.218 Z M117.3,174.51 C116.662,175.104 115.98,175.676 115.232,176.248 L114.616,174.202 C116.53,172.662 117.938,170.902 118.862,168.922 L120.688,169.78 C120.336,170.572 119.896,171.32 119.412,172.046 L119.412,183.178 L117.3,183.178 L117.3,174.51 Z M118.818,162.806 L120.666,163.664 C119.566,166.062 117.74,168.24 115.166,170.176 L114.572,168.174 C116.508,166.634 117.916,164.852 118.818,162.806 Z M138.024,164.456 L141.742,164.456 L141.742,162.938 L143.766,162.938 L143.766,164.456 L150.872,164.456 L150.872,162.938 L152.896,162.938 L152.896,164.456 L156.614,164.456 L156.614,166.216 L152.896,166.216 L152.896,173.102 L156.944,173.102 L156.944,174.906 L152.742,174.906 C153.82,176.006 155.338,176.864 157.274,177.524 L156.416,179.328 C154.898,178.668 153.644,177.92 152.632,177.062 L152.632,178.866 L148.342,178.866 L148.342,180.604 L155.712,180.604 L155.712,182.54 L138.794,182.54 L138.794,180.604 L146.318,180.604 L146.318,178.866 L141.984,178.866 L141.984,177.106 C141.016,177.92 139.85,178.646 138.508,179.306 L137.43,177.546 C139.41,176.842 140.884,175.962 141.896,174.906 L137.694,174.906 L137.694,173.102 L141.742,173.102 L141.742,166.216 L138.024,166.216 L138.024,164.456 Z M142.072,177.018 L146.318,177.018 L146.318,175.478 L148.342,175.478 L148.342,177.018 L152.588,177.018 C151.796,176.358 151.158,175.654 150.674,174.906 L143.942,174.906 C143.436,175.654 142.82,176.358 142.072,177.018 Z M143.766,173.102 L150.872,173.102 L150.872,171.914 L143.766,171.914 L143.766,173.102 Z M143.766,170.286 L150.872,170.286 L150.872,169.098 L143.766,169.098 L143.766,170.286 Z M143.766,167.47 L150.872,167.47 L150.872,166.216 L143.766,166.216 L143.766,167.47 Z M160.156,177.282 L168.934,177.282 L168.934,175.676 L171.002,175.676 L171.002,177.282 L179.824,177.282 L179.824,179.218 L171.002,179.218 L171.002,183.244 L168.934,183.244 L168.934,179.218 L160.156,179.218 L160.156,177.282 Z M167.24,169.142 C166.734,169.736 166.184,170.308 165.59,170.88 L164.974,168.922 C166.712,167.096 167.922,165.116 168.626,162.982 L170.562,163.378 C170.364,163.928 170.144,164.478 169.902,165.006 L172.784,165.006 C172.564,164.39 172.344,163.796 172.08,163.268 L174.148,162.916 C174.368,163.532 174.566,164.214 174.786,165.006 L179.296,165.006 L179.296,166.722 L174.874,166.722 L174.874,167.866 L178.834,167.866 L178.834,169.494 L174.874,169.494 L174.874,170.638 L178.856,170.638 L178.856,172.266 L174.874,172.266 L174.874,173.52 L179.538,173.52 L179.538,175.236 L167.24,175.236 L167.24,169.142 Z M172.894,166.722 L169.132,166.722 L169.132,167.866 L172.894,167.866 L172.894,166.722 Z M172.894,169.494 L169.132,169.494 L169.132,170.638 L172.894,170.638 L172.894,169.494 Z M172.894,172.266 L169.132,172.266 L169.132,173.52 L172.894,173.52 L172.894,172.266 Z M162.29,162.982 C163.61,163.576 164.842,164.302 165.942,165.16 L164.908,166.744 C163.72,165.798 162.488,165.05 161.256,164.5 L162.29,162.982 Z M160.838,166.612 C162.092,167.14 163.236,167.778 164.27,168.526 L163.236,170.132 C162.114,169.296 160.97,168.658 159.782,168.174 L160.838,166.612 Z M164.644,170.682 L165.81,172.046 C164.666,173.542 163.236,174.95 161.542,176.248 L160.134,174.598 C161.938,173.41 163.434,172.09 164.644,170.682 Z" id="主動出擊-不盲從基準" fill="#FFFFFF"></path>
        <path d="M150.914654,41.9111475 L144.196803,41.9111475 C143.848906,41.9111475 143.496108,41.9484814 143.145761,42.023149 L142.740697,42.1094316 L142.660664,41.6962707 C142.197618,39.2762096 140.0988,37.5206904 137.670868,37.5206904 L130.953017,37.5206904 C130.55612,37.5206904 130.155956,37.5688096 129.763959,37.6625589 L129.394012,37.7513305 L129.280496,37.3829701 C128.623084,35.2483053 126.627165,33.7574415 124.426265,33.7574415 L117.705964,33.7574415 C117.259251,33.7574415 116.808454,33.8180052 116.365824,33.9383031 L115.98526,34.0420081 L115.870111,33.6595439 C115.222499,31.5049677 113.222497,30 111.00608,30 L104.286596,30 C101.483,30 99.2028833,32.3171857 99.2028833,35.1653413 L99.2028833,56.6414132 C99.2028833,57.1557903 99.6144802,57.5747587 100.12081,57.5747587 L102.012196,57.5747587 L102.35601,57.3656893 C102.681858,57.1674052 102.846823,56.923491 102.846823,56.6422429 L102.846823,35.1645116 C102.846823,34.3547826 103.492802,33.6968777 104.286596,33.6968777 L111.006897,33.6968777 C111.802324,33.6968777 112.449119,34.3547826 112.449119,35.1645116 L112.449119,54.6560837 C112.449119,54.9024869 112.550385,55.1389344 112.734951,55.3189664 L113.288647,55.8623809 L105.246172,57.5730994 L105.247806,57.5730994 L97.9484925,59.1253566 C96.5683359,59.3925009 95.4143944,60.2719197 94.6940997,61.6034926 C94.060371,62.7840709 93.8513059,64.1894818 94.1052873,65.5592181 L98.5168883,85.4946478 C98.5462881,85.6190939 98.8296693,86.0115138 99.0305679,86.20482 L102.799457,89.8096076 C103.892149,90.8591028 104.886025,91.8239746 105.491987,92.4196564 L105.616936,92.5416135 L105.616936,95.2744491 L102.79619,95.2744491 C102.289861,95.2744491 101.878264,95.6934175 101.878264,96.2077946 L101.878264,111.066655 C101.878264,111.581032 102.289861,112 102.79619,112 L150.488357,112 C150.994687,112 151.4071,111.581032 151.4071,111.066655 L151.4071,96.2077946 C151.4071,95.6934175 150.994687,95.2744491 150.488357,95.2744491 L148.515305,95.2744491 L148.539805,90.8126429 L153.26827,77.6321455 C153.30502,77.531759 153.322986,77.4247354 153.322986,77.310245 L153.322986,67.5777333 C153.322986,67.4250794 153.230703,67.2774034 153.099221,67.0849268 L152.83789,66.7008033 L153.244587,66.4817783 C154.944058,65.5683442 156,63.8393735 156,61.9710233 L156,47.0764888 C156.000816,44.2283332 153.719067,41.9111475 150.914654,41.9111475 Z M129.510794,42.6860317 C129.510794,41.8796212 130.157589,41.2233756 130.953017,41.2233756 L137.670868,41.2233756 C138.466295,41.2233756 139.11309,41.8796212 139.11309,42.6860317 L139.11309,61.9726826 C139.11309,62.7790931 138.466295,63.4353386 137.670868,63.4353386 L130.953017,63.4353386 C130.56837,63.4353386 130.195972,63.2793662 129.932191,63.0064145 C129.657793,62.7309739 129.510794,62.3725693 129.510794,61.9726826 L129.510794,42.6860317 Z M116.090609,54.5648232 L116.090609,39.4861086 L116.143692,39.3906999 C116.223725,39.2471721 116.266191,39.0845626 116.266191,38.9219531 C116.266191,38.1155426 116.91217,37.459297 117.705964,37.459297 L124.426265,37.459297 C125.221692,37.459297 125.868488,38.1155426 125.868488,38.9219531 L125.868488,61.9718529 C125.868488,62.5235638 125.567956,63.0196888 125.093477,63.2694106 L125.08531,63.2826848 L124.489964,63.5655922 L123.647171,59.0374148 C123.193924,56.6115462 121.064073,54.8502196 118.583874,54.8502196 C118.275993,54.8502196 117.964029,54.8775977 117.656965,54.9315243 L115.994243,55.2849511 L116.090609,54.5648232 Z M147.732127,108.265788 L105.55242,108.265788 L105.55242,99.0086606 L147.732127,99.0086606 L147.732127,108.265788 Z M149.657813,76.8945952 L144.929348,90.0701147 C144.892598,90.1705012 144.874631,90.2775248 144.874631,90.3920152 L144.874631,95.2752787 L109.259243,95.2752787 L109.259243,91.4605921 C109.259243,91.3071086 109.033028,90.8491471 108.842746,90.6135292 C108.534865,90.2343835 105.968917,87.7396548 101.97953,83.9407313 L101.888064,83.8536191 L97.6740945,64.8117121 C97.5850785,64.3272021 97.6659279,63.8012101 97.8880596,63.3897084 C98.0881415,63.0279852 98.3486562,62.8155972 98.6647039,62.7550335 L118.373993,58.566179 C118.466275,58.5429491 118.575708,58.5288452 118.683507,58.5288452 C119.358885,58.5288452 119.941981,59.0357555 120.068563,59.7334831 L121.316421,66.438637 C121.389104,66.8202716 121.307438,67.2093729 121.087756,67.5312734 C120.869708,67.8581517 120.52916,68.0763472 120.104497,68.1593112 L110.472801,70.3205245 C109.983621,70.430037 109.67329,70.9070803 109.767206,71.4065238 L110.891747,77.4388393 C110.912981,77.5566483 110.957897,77.6669904 111.02568,77.7715251 L116.109393,85.6414942 C116.375624,86.0529958 116.967703,86.1774419 117.387466,85.9078087 L118.891755,84.9064327 C119.096737,84.7687124 119.237203,84.5604727 119.284569,84.3182177 C119.336019,84.0734738 119.288653,83.8204334 119.156354,83.6204901 L114.353572,76.1238592 L113.836626,73.3536899 L120.832141,71.7823509 C122.179631,71.5218438 123.335206,70.7535968 124.098784,69.6169894 C124.592047,68.8786094 124.847662,67.9718125 124.877878,66.8451608 L124.900745,66.0204982 L125.539373,66.5315567 C125.739455,66.6908476 126.088169,66.8717093 126.404217,66.7331593 C126.774164,66.5705498 127.123695,66.3656286 127.443826,66.1233736 L127.686374,65.9391934 L127.929739,66.1217143 C128.801116,66.775471 129.875025,67.1355349 130.9522,67.1355349 L137.670051,67.1355349 C138.76601,67.1355349 139.809702,66.7854267 140.688429,66.122544 L140.931794,65.9383638 L141.175975,66.122544 C142.052252,66.7854267 143.096761,67.1355349 144.195986,67.1355349 L149.692113,67.1355349 L149.657813,76.8945952 Z M152.35606,61.9726826 C152.35606,62.7790931 151.709265,63.4353386 150.913837,63.4353386 L144.196803,63.4353386 C143.805623,63.4353386 143.452825,63.2876626 143.177611,63.0080738 C142.901579,62.7318036 142.75458,62.3725693 142.75458,61.9726826 L142.75458,47.0764888 C142.75458,46.2667597 143.401376,45.6088549 144.196803,45.6088549 L150.914654,45.6088549 C151.710081,45.6088549 152.356877,46.2667597 152.356877,47.0764888 L152.356877,61.9726826 L152.35606,61.9726826 Z" id="Shape" fill="#FFFFFF" fill-rule="nonzero"></path>
    </g>
</svg>