<?xml version="1.0" encoding="UTF-8"?>
<svg width="250px" height="276px" viewBox="0 0 250 276" version="1.1" xmlns="http://www.w3.org/2000/svg" xmlns:xlink="http://www.w3.org/1999/xlink">
    <!-- Generator: Sketch 49 (51002) - http://www.bohemiancoding.com/sketch -->
    <title>s3_f2</title>
    <desc>Created with Sketch.</desc>
    <defs>
        <polygon id="path-1" points="20 4 230 4 230 276 125 216 20 276"></polygon>
        <polygon id="path-3" points="20 -10 230 -10 230 276 125 216 20 276"></polygon>
    </defs>
    <g id="s3_f2" stroke="none" stroke-width="1" fill="none" fill-rule="evenodd">
        <g id="Group-35-Copy-4">
            <polygon id="Combined-Shape" fill="#D2BEA6" points="234 18 16 18 16 22 0 22 0 0 16 0 16 4 234 4 234 0 250 0 250 22 234 22"></polygon>
            <polygon id="Combined-Shape" fill="#B7956F" points="234 18 16 18 16 22 0 22 0 12 250 12 250 22 234 22"></polygon>
            <mask id="mask-2" fill="white">
                <use xlink:href="#path-1"></use>
            </mask>
            <g id="Combined-Shape"></g>
            <g id="Combined-Shape" mask="url(#mask-2)">
                <use fill="#60828B" fill-rule="evenodd" xlink:href="#path-3"></use>
                <path stroke="#FFBD46" stroke-width="10" d="M25,-5 L25,267.384102 L125,210.241244 L225,267.384102 L225,-5 L25,-5 Z"></path>
                <path stroke="#60828B" stroke-width="6" d="M23,-7 L23,270.830461 L125,212.544747 L227,270.830461 L227,-7 L23,-7 Z"></path>
            </g>
        </g>
        <g id="view" transform="translate(192.000000, 122.000000)" fill="#FFFFFF" opacity="0.7">
            <path d="M13.1451287,12.4380219 L17.0961941,16.3890873 C17.2914562,16.5843494 17.2914562,16.9009319 17.0961941,17.0961941 C16.9009319,17.2914562 16.5843494,17.2914562 16.3890873,17.0961941 L12.4380219,13.1451287 C11.1187738,14.3000688 9.39112573,15 7.5,15 C3.35786438,15 0,11.6421356 0,7.5 C0,3.35786438 3.35786438,0 7.5,0 C11.6421356,0 15,3.35786438 15,7.5 C15,9.39112573 14.3000688,11.1187738 13.1451287,12.4380219 Z M7,7 L7,3.5 C7,3.22385763 7.22385763,3 7.5,3 C7.77614237,3 8,3.22385763 8,3.5 L8,7 L11.5,7 C11.7761424,7 12,7.22385763 12,7.5 C12,7.77614237 11.7761424,8 11.5,8 L8,8 L8,11.5 C8,11.7761424 7.77614237,12 7.5,12 C7.22385763,12 7,11.7761424 7,11.5 L7,8 L3.5,8 C3.22385763,8 3,7.77614237 3,7.5 C3,7.22385763 3.22385763,7 3.5,7 L7,7 Z M7.5,14 C11.0898509,14 14,11.0898509 14,7.5 C14,3.91014913 11.0898509,1 7.5,1 C3.91014913,1 1,3.91014913 1,7.5 C1,11.0898509 3.91014913,14 7.5,14 Z" id="Combined-Shape"></path>
        </g>
        <path d="M84.0339999,140.4 L101.304,140.4 L101.304,141.984 L93.6699999,141.984 L93.6699999,142.798 L102.118,142.798 L102.118,146.692 L100.182,146.692 L100.182,144.294 L93.6699999,144.294 L93.6699999,148.078 L91.6899999,148.078 L91.6899999,144.294 L85.1779999,144.294 L85.1779999,146.692 L83.2419999,146.692 L83.2419999,142.798 L91.6899999,142.798 L91.6899999,141.984 L84.0339999,141.984 L84.0339999,140.4 Z M95.1219999,146.692 C96.6399999,146.78 98.0919999,146.912 99.4999999,147.066 L99.0159999,148.276 C97.5859999,148.012 96.1119999,147.836 94.6159999,147.726 L95.1219999,146.692 Z M86.5859999,144.734 C88.0379999,144.822 89.4239999,144.976 90.7439999,145.174 L90.3039999,146.296 C88.9399999,146.076 87.5099999,145.922 86.0139999,145.834 L86.5859999,144.734 Z M90.3259999,146.67 L90.7219999,147.748 C89.8199999,147.924 88.3019999,148.056 86.1899999,148.144 L85.8379999,146.934 C87.9059999,146.89 89.4019999,146.802 90.3259999,146.67 Z M94.9019999,146.34 L94.6819999,145.196 C96.2219999,145.108 97.5859999,144.954 98.7739999,144.712 L99.2359999,145.9 C98.0039999,146.076 96.5739999,146.23 94.9019999,146.34 Z M90.0399999,148.716 L95.3639999,148.716 L95.3639999,152.434 L90.0399999,152.434 L90.0399999,148.716 Z M93.7579999,151.224 L93.7579999,149.926 L91.6679999,149.926 L91.6679999,151.224 L93.7579999,151.224 Z M83.8359999,148.716 L89.1599999,148.716 L89.1599999,152.434 L83.8359999,152.434 L83.8359999,148.716 Z M87.5539999,151.224 L87.5539999,149.926 L85.4859999,149.926 L85.4859999,151.224 L87.5539999,151.224 Z M96.2659999,148.716 L101.568,148.716 L101.568,152.434 L96.2659999,152.434 L96.2659999,148.716 Z M99.9179999,151.224 L99.9179999,149.926 L97.8719999,149.926 L97.8719999,151.224 L99.9179999,151.224 Z M83.9459999,153.226 L101.436,153.226 L101.436,154.81 L99.0599999,154.81 L98.7959999,155.602 C99.6319999,156.042 100.49,156.526 101.37,157.098 L100.556,158.286 L102.448,158.286 L102.448,159.936 L82.9119999,159.936 L82.9119999,158.286 L85.3319999,158.286 L84.1659999,157.252 C85.3979999,156.504 86.2119999,155.69 86.6299999,154.81 L83.9459999,154.81 L83.9459999,153.226 Z M98.0479999,156.812 C97.6299999,157.34 97.1239999,157.846 96.5519999,158.286 L100.16,158.286 C99.3239999,157.648 98.6199999,157.164 98.0479999,156.812 Z M96.0679999,158.286 L94.9899999,157.318 C96.1339999,156.548 96.9039999,155.712 97.2999999,154.81 L93.6699999,154.81 L93.6699999,158.286 L96.0679999,158.286 Z M88.4119999,154.81 C88.3239999,155.074 88.2359999,155.316 88.1259999,155.58 C88.9179999,155.954 89.7099999,156.394 90.5239999,156.878 L89.5779999,158.264 C88.6539999,157.604 87.9059999,157.098 87.3339999,156.79 C86.8719999,157.318 86.2999999,157.802 85.6179999,158.286 L91.7339999,158.286 L91.7339999,154.81 L88.4119999,154.81 Z M111.028,146.208 L117.122,146.208 L117.122,143.238 C115.538,143.37 113.866,143.458 112.084,143.458 L111.424,141.588 C116.198,141.588 120.202,141.06 123.458,140.004 L124.492,141.764 C122.974,142.292 121.236,142.71 119.256,142.996 L119.256,146.208 L125.394,146.208 L125.394,148.21 L119.256,148.21 L119.256,151.07 L124.096,151.07 L124.096,160.244 L122.028,160.244 L122.028,159.188 L114.526,159.188 L114.526,160.266 L112.436,160.266 L112.436,151.07 L117.122,151.07 L117.122,148.21 L111.028,148.21 L111.028,146.208 Z M114.526,157.23 L122.028,157.23 L122.028,153.028 L114.526,153.028 L114.526,157.23 Z M107.31,140.18 C108.762,141.126 110.016,142.094 111.05,143.062 L109.62,144.47 C108.74,143.568 107.486,142.578 105.88,141.522 L107.31,140.18 Z M106.804,145.416 C108.3,146.494 109.576,147.572 110.588,148.65 L109.136,150.102 C108.234,149.09 106.958,148.012 105.33,146.846 L106.804,145.416 Z M108.938,151.334 L110.852,152.082 C109.928,154.898 108.894,157.538 107.794,160.002 L105.704,159.078 C106.958,156.548 108.036,153.974 108.938,151.334 Z M138.418,145.812 L140.442,145.812 L140.442,148.342 L146.514,148.342 L146.514,155.822 C146.514,157.34 145.744,158.11 144.204,158.11 L142.202,158.11 L141.696,156.174 L143.544,156.24 C144.182,156.24 144.512,155.932 144.512,155.36 L144.512,150.278 L140.442,150.278 L140.442,160.266 L138.418,160.266 L138.418,150.278 L134.304,150.278 L134.304,158.286 L132.302,158.286 L132.302,150.102 C131.312,151.114 130.234,152.06 129.068,152.94 L127.726,151.18 C130.322,149.266 132.412,147.088 133.952,144.668 L128.474,144.668 L128.474,142.622 L135.096,142.622 C135.536,141.698 135.91,140.774 136.218,139.85 L138.33,140.114 C138.044,140.994 137.736,141.83 137.384,142.622 L147.746,142.622 L147.746,144.668 L136.394,144.668 C135.646,145.966 134.81,147.198 133.886,148.342 L138.418,148.342 L138.418,145.812 Z M156.766,151.378 L164.928,151.378 L164.928,157.23 L156.766,157.23 L156.766,151.378 Z M163.058,155.492 L163.058,153.094 L158.658,153.094 L158.658,155.492 L163.058,155.492 Z M166.666,142.622 L155.138,142.622 L155.138,144.558 L166.666,144.558 L166.666,142.622 Z M155.138,146.45 L155.138,147.968 L169.746,147.968 C169.746,153.49 169.636,156.9 169.416,158.22 C169.196,159.496 168.184,160.134 166.38,160.134 C165.852,160.134 164.972,160.09 163.718,160.046 L163.256,158.286 C164.356,158.352 165.28,158.396 166.05,158.396 C166.886,158.396 167.37,158.044 167.524,157.34 C167.634,156.592 167.7,154.106 167.744,149.838 L155.138,149.838 C155.05,153.842 154.038,157.296 152.102,160.178 L150.452,158.704 C152.19,156.328 153.07,153.27 153.092,149.508 L153.092,140.664 L168.69,140.664 L168.69,146.45 L155.138,146.45 Z M60.7579999,168.84 L67.0279999,168.84 L67.0279999,175.924 L65.2239999,175.924 L65.2239999,179.158 L67.1599999,179.158 L67.1599999,180.5 C68.5239999,179.752 69.7559999,178.828 70.8559999,177.684 L70.8559999,175.682 L69.4039999,176.408 C68.7659999,174.78 68.0839999,173.328 67.3579999,172.052 L69.0299999,171.238 C69.6679999,172.514 70.2839999,173.944 70.8559999,175.484 L70.8559999,168.026 L72.8359999,168.026 L72.8359999,178.058 C72.7919999,182.766 71.5599999,186.198 69.1619999,188.376 L67.5999999,186.99 C69.3599999,185.45 70.3939999,183.184 70.7239999,180.192 C69.9319999,181.05 69.0959999,181.798 68.1719999,182.436 L67.1599999,180.786 L67.1599999,180.962 L65.2239999,180.962 L65.2239999,184.328 C65.9059999,184.086 66.5439999,183.844 67.1599999,183.58 L67.1599999,185.472 C65.1799999,186.308 62.9359999,187.1 60.3839999,187.848 L59.7899999,185.978 L60.6259999,185.758 L60.6259999,178.014 L62.3199999,178.014 L62.3199999,185.296 C62.6939999,185.164 63.0679999,185.054 63.4199999,184.944 L63.4199999,175.924 L60.7579999,175.924 L60.7579999,168.84 Z M65.2019999,174.208 L65.2019999,170.556 L62.5839999,170.556 L62.5839999,174.208 L65.2019999,174.208 Z M78.2699999,170.578 L80.0079999,171.414 C79.3039999,173.196 78.4679999,174.736 77.4999999,176.056 L76.0919999,175.066 L76.0919999,176.892 C77.4999999,177.816 78.8199999,178.894 80.0299999,180.148 L78.8419999,181.952 C77.9179999,180.83 77.0159999,179.862 76.0919999,179.07 L76.0919999,185.406 C76.0919999,185.824 76.2679999,186.044 76.6639999,186.044 L77.3679999,186.044 C77.6979999,186.044 77.9179999,185.89 78.0499999,185.604 C78.2259999,185.274 78.3579999,184.284 78.4019999,182.656 L80.2279999,183.228 C80.0739999,185.494 79.8099999,186.836 79.4139999,187.276 C79.0399999,187.672 78.4899999,187.892 77.7419999,187.892 L76.0699999,187.892 C74.7499999,187.892 74.1119999,187.188 74.1119999,185.824 L74.1119999,168.026 L76.0919999,168.026 L76.0919999,174.692 C76.9279999,173.504 77.6539999,172.14 78.2699999,170.578 Z M91.7559999,174.714 C91.5139999,174.934 91.2939999,175.154 91.0739999,175.352 L89.9959999,174.406 L89.9959999,186.132 C89.9959999,187.496 89.3139999,188.178 87.9719999,188.178 L86.5199999,188.178 L86.0139999,186.352 C86.5199999,186.396 86.9819999,186.44 87.3999999,186.44 C87.8399999,186.44 88.0599999,186.11 88.0599999,185.45 L88.0599999,180.874 C87.2459999,181.072 86.4099999,181.248 85.5739999,181.402 C85.3979999,184.174 84.8699999,186.462 84.0119999,188.31 L82.4719999,186.902 C83.2639999,184.966 83.6819999,182.524 83.7039999,179.554 L83.7039999,168.708 L89.9959999,168.708 L89.9959999,173.636 C91.4479999,172.228 92.5479999,170.446 93.2959999,168.246 L95.1879999,168.994 C94.5279999,170.71 93.7799999,172.14 92.9219999,173.328 L99.5659999,173.328 C98.5979999,171.7 97.5639999,170.248 96.5079999,168.928 L98.2899999,168.158 C99.8739999,170.05 101.26,172.118 102.47,174.384 L100.688,175.308 C100.644,175.22 100.6,175.154 100.578,175.11 L100.578,180.28 L98.7299999,180.28 L98.7299999,185.494 C98.7299999,185.868 98.9279999,186.066 99.3239999,186.066 L99.8079999,186.066 C100.072,186.066 100.27,185.934 100.402,185.67 C100.534,185.406 100.644,184.614 100.688,183.272 L102.492,183.866 C102.316,185.802 102.074,186.99 101.722,187.408 C101.37,187.76 100.864,187.936 100.16,187.936 L98.7079999,187.936 C97.4319999,187.936 96.7939999,187.254 96.7939999,185.912 L96.7939999,180.28 L95.4299999,180.28 C95.1659999,183.932 93.7799999,186.616 91.2499999,188.288 L90.1719999,186.55 C92.1519999,185.318 93.2519999,183.228 93.4719999,180.28 L91.7559999,180.28 L91.7559999,174.714 Z M85.6399999,179.488 C86.5199999,179.356 87.3119999,179.18 88.0599999,179.004 L88.0599999,176.232 C87.2679999,175.99 86.4539999,175.792 85.6399999,175.638 L85.6399999,179.488 Z M85.6399999,173.878 C86.4759999,174.032 87.2679999,174.23 88.0599999,174.45 L88.0599999,170.6 L85.6399999,170.6 L85.6399999,173.878 Z M98.6859999,178.432 L98.6859999,175.176 L93.7139999,175.176 L93.7139999,178.432 L98.6859999,178.432 Z M106.034,169.456 L109.752,169.456 L109.752,167.938 L111.776,167.938 L111.776,169.456 L118.882,169.456 L118.882,167.938 L120.906,167.938 L120.906,169.456 L124.624,169.456 L124.624,171.216 L120.906,171.216 L120.906,178.102 L124.954,178.102 L124.954,179.906 L120.752,179.906 C121.83,181.006 123.348,181.864 125.284,182.524 L124.426,184.328 C122.908,183.668 121.654,182.92 120.642,182.062 L120.642,183.866 L116.352,183.866 L116.352,185.604 L123.722,185.604 L123.722,187.54 L106.804,187.54 L106.804,185.604 L114.328,185.604 L114.328,183.866 L109.994,183.866 L109.994,182.106 C109.026,182.92 107.86,183.646 106.518,184.306 L105.44,182.546 C107.42,181.842 108.894,180.962 109.906,179.906 L105.704,179.906 L105.704,178.102 L109.752,178.102 L109.752,171.216 L106.034,171.216 L106.034,169.456 Z M110.082,182.018 L114.328,182.018 L114.328,180.478 L116.352,180.478 L116.352,182.018 L120.598,182.018 C119.806,181.358 119.168,180.654 118.684,179.906 L111.952,179.906 C111.446,180.654 110.83,181.358 110.082,182.018 Z M111.776,178.102 L118.882,178.102 L118.882,176.914 L111.776,176.914 L111.776,178.102 Z M111.776,175.286 L118.882,175.286 L118.882,174.098 L111.776,174.098 L111.776,175.286 Z M111.776,172.47 L118.882,172.47 L118.882,171.216 L111.776,171.216 L111.776,172.47 Z M128.166,182.282 L136.944,182.282 L136.944,180.676 L139.012,180.676 L139.012,182.282 L147.834,182.282 L147.834,184.218 L139.012,184.218 L139.012,188.244 L136.944,188.244 L136.944,184.218 L128.166,184.218 L128.166,182.282 Z M135.25,174.142 C134.744,174.736 134.194,175.308 133.6,175.88 L132.984,173.922 C134.722,172.096 135.932,170.116 136.636,167.982 L138.572,168.378 C138.374,168.928 138.154,169.478 137.912,170.006 L140.794,170.006 C140.574,169.39 140.354,168.796 140.09,168.268 L142.158,167.916 C142.378,168.532 142.576,169.214 142.796,170.006 L147.306,170.006 L147.306,171.722 L142.884,171.722 L142.884,172.866 L146.844,172.866 L146.844,174.494 L142.884,174.494 L142.884,175.638 L146.866,175.638 L146.866,177.266 L142.884,177.266 L142.884,178.52 L147.548,178.52 L147.548,180.236 L135.25,180.236 L135.25,174.142 Z M140.904,171.722 L137.142,171.722 L137.142,172.866 L140.904,172.866 L140.904,171.722 Z M140.904,174.494 L137.142,174.494 L137.142,175.638 L140.904,175.638 L140.904,174.494 Z M140.904,177.266 L137.142,177.266 L137.142,178.52 L140.904,178.52 L140.904,177.266 Z M130.3,167.982 C131.62,168.576 132.852,169.302 133.952,170.16 L132.918,171.744 C131.73,170.798 130.498,170.05 129.266,169.5 L130.3,167.982 Z M128.848,171.612 C130.102,172.14 131.246,172.778 132.28,173.526 L131.246,175.132 C130.124,174.296 128.98,173.658 127.792,173.174 L128.848,171.612 Z M132.654,175.682 L133.82,177.046 C132.676,178.542 131.246,179.95 129.552,181.248 L128.144,179.598 C129.948,178.41 131.444,177.09 132.654,175.682 Z M169.702,177.684 L169.702,188.266 L167.612,188.266 L167.612,187.298 L161.342,187.298 L161.342,188.266 L159.274,188.266 L159.274,177.684 L169.702,177.684 Z M161.342,185.45 L167.612,185.45 L167.612,183.382 L161.342,183.382 L161.342,185.45 Z M161.342,181.534 L167.612,181.534 L167.612,179.51 L161.342,179.51 L161.342,181.534 Z M153.62,188.068 L151.332,188.068 L150.87,186.066 C151.574,186.154 152.256,186.198 152.894,186.198 C153.422,186.198 153.708,185.912 153.708,185.384 L153.708,180.676 C152.828,180.984 151.926,181.248 151.024,181.512 L150.518,179.422 C151.596,179.202 152.652,178.916 153.708,178.586 L153.708,174.01 L150.914,174.01 L150.914,172.008 L153.708,172.008 L153.708,168.048 L155.71,168.048 L155.71,172.008 L157.976,172.008 L157.976,174.01 L155.71,174.01 L155.71,177.882 C156.546,177.552 157.382,177.2 158.174,176.804 L158.174,178.938 C157.36,179.29 156.546,179.642 155.71,179.95 L155.71,185.912 C155.71,187.342 155.006,188.068 153.62,188.068 Z M169.9,169.522 L169.9,171.348 L161.078,171.766 L161.078,173.218 C161.078,173.724 161.342,173.988 161.914,173.988 L170.23,173.988 L170.23,175.902 L160.902,175.902 C159.692,175.902 159.098,175.286 159.098,174.076 L159.098,168.136 L161.078,168.136 L161.078,169.918 L169.9,169.522 Z M178.304,177.112 L178.304,188.222 L176.346,188.222 L176.346,177.596 C175.73,179.466 174.938,181.182 174.014,182.766 L173.112,180.456 C174.542,178.476 175.576,176.232 176.214,173.702 L173.816,173.702 L173.816,171.766 L176.346,171.766 L176.346,167.96 L178.304,167.96 L178.304,171.766 L180.526,171.766 L180.526,173.702 L178.304,173.702 L178.304,174.78 C179.228,175.814 180.152,176.958 181.076,178.19 L179.866,180.016 C179.272,178.85 178.744,177.882 178.304,177.112 Z M181.274,171.7 L184.464,171.7 L184.464,170.402 L180.768,170.402 L180.768,168.642 L193.088,168.642 L193.088,170.402 L189.568,170.402 L189.568,171.7 L192.758,171.7 L192.758,177.09 L181.274,177.09 L181.274,171.7 Z M187.852,170.402 L186.202,170.402 L186.202,171.7 L187.852,171.7 L187.852,170.402 Z M190.954,175.506 L190.954,173.284 L189.414,173.284 L189.414,175.506 L190.954,175.506 Z M187.83,175.506 L187.83,173.284 L186.224,173.284 L186.224,175.506 L187.83,175.506 Z M184.64,175.506 L184.64,173.284 L183.078,173.284 L183.078,175.506 L184.64,175.506 Z M181.912,178.146 L192.252,178.146 L192.252,179.906 L181.912,179.906 L181.912,178.146 Z M180.9,181.006 L193.132,181.006 L193.132,182.766 L187.852,182.766 L187.852,188.156 L185.916,188.156 L185.916,182.766 L180.9,182.766 L180.9,181.006 Z M183.254,183.316 L184.574,184.46 C183.606,185.868 182.44,187.078 181.032,188.134 L179.866,186.594 C181.186,185.67 182.33,184.57 183.254,183.316 Z M190.426,183.338 C191.68,184.46 192.736,185.582 193.594,186.682 L192.23,188.024 C191.504,186.968 190.492,185.802 189.172,184.57 L190.426,183.338 Z" id="靈活布局-跳脫基準指標" fill="#FFFFFF"></path>
        <path d="M138.341176,55.2030972 L135.932846,58.7228916 L132.411765,56.3149751 L134.820372,52.7951807 L138.341176,55.2030972 Z M139.329412,75.5180723 L139.329412,70.5783133 L144.270588,70.5783133 L144.270588,75.5180723 L139.329412,75.5180723 Z M149.211765,75.5180723 L149.211765,70.5783133 L154.152941,70.5783133 L154.152941,75.5180723 L149.211765,75.5180723 Z M106.31303,80.8000927 L108.694118,84.7597858 L107.22867,85.6215627 C107.713226,86.9385729 107.97816,88.3604302 107.97816,89.8432241 C107.97816,96.6636582 102.38644,102.192771 95.48908,102.192771 C88.5914175,102.192771 83,96.6636582 83,89.8432241 C83,83.0227901 88.5914175,77.4939759 95.48908,77.4939759 C99.213268,77.4939759 102.554706,79.1076046 104.842749,81.6642593 L106.31303,80.8000927 Z M161.070744,66.626506 C164.345457,66.626506 167,69.2805982 167,72.5543723 C167,75.8281465 164.345457,78.4819277 161.070744,78.4819277 C157.79603,78.4819277 155.141176,75.8281465 155.141176,72.5543723 C155.141176,69.2805982 157.79603,66.626506 161.070744,66.626506 Z M138.446016,93.8963972 C144.927199,93.8963972 150.2,99.0812687 150.2,105.454371 C150.2,111.827177 144.927199,117.012048 138.446016,117.012048 C131.964532,117.012048 126.692032,111.827177 126.692032,105.454371 C126.692032,101.542222 128.680676,98.0801073 131.714293,95.9879558 L126.765597,84.8216119 C125.868958,85.0229115 124.937045,85.1326034 123.979505,85.1326034 C120.245521,85.1326034 116.889911,83.5159813 114.59284,80.959566 L112.803482,82.00579 L110.427119,78.0755571 L112.208638,77.0340766 C111.718411,75.7165873 111.450384,74.294446 111.450384,72.8121224 C111.450384,69.4042604 112.86559,66.3153944 115.147586,64.0830151 L109.335415,55.6580805 C108.458373,55.9498018 107.519526,56.1104857 106.542087,56.1104857 C101.726952,56.1104857 97.8235294,52.2718604 97.8235294,47.5370223 C97.8235294,42.8021842 101.726952,38.9638554 106.542087,38.9638554 C111.357223,38.9638554 115.260947,42.8021842 115.260947,47.5370223 C115.260947,49.6558557 114.47767,51.5935492 113.182458,53.0898066 L118.993423,61.5126659 C120.522291,60.8577753 122.207936,60.4922343 123.979505,60.4922343 C125.767657,60.4922343 127.468375,60.8651869 129.009002,61.5319361 L129.936091,60.1993272 L133.773788,62.7812385 L132.845191,64.1159226 C135.107591,66.3456338 136.508626,69.4211589 136.508626,72.8121224 C136.508626,77.0373377 134.333358,80.7719038 131.027494,82.9921281 L135.974683,94.1555073 C136.77213,93.9871154 137.598219,93.8963972 138.446016,93.8963972 Z M137.672193,49.2135459 L138.085737,48.6181426 C137.011492,47.2888354 136.364706,45.6104473 136.364706,43.7837296 C136.364706,39.4917025 139.91144,36 144.270739,36 C148.629737,36 152.176471,39.4917025 152.176471,43.7837296 C152.176471,48.0760545 148.629737,51.5680549 144.270739,51.5680549 C143.456661,51.5680549 142.670716,51.4459361 141.931359,51.2195697 L141.522959,51.8072289 L137.672193,49.2135459 Z M138.446016,112.439673 C142.363006,112.439673 145.550082,109.305744 145.550082,105.454371 C145.550082,101.602405 142.363006,98.4687726 138.446016,98.4687726 C134.528725,98.4687726 131.34195,101.602405 131.34195,105.454371 C131.34195,109.305744 134.528725,112.439673 138.446016,112.439673 Z M116.100302,72.8121224 C116.100302,77.0844756 119.634999,80.560228 123.979505,80.560228 C128.324011,80.560228 131.858407,77.0844756 131.858407,72.8121224 C131.858407,68.5400657 128.324011,65.0646098 123.979505,65.0646098 C119.634999,65.0646098 116.100302,68.5400657 116.100302,72.8121224 Z M144.270739,40.5937497 C142.484062,40.5937497 141.030458,42.0249218 141.030458,43.7837296 C141.030458,45.5431331 142.484062,46.9740073 144.270739,46.9740073 C146.057115,46.9740073 147.510719,45.5431331 147.510719,43.7837296 C147.510719,42.0249218 146.057115,40.5937497 144.270739,40.5937497 Z" id="Combined-Shape" stroke="#FFFFFF" stroke-width="3"></path>
    </g>
</svg>