<?xml version="1.0" encoding="UTF-8"?>
<svg width="628px" height="800px" viewBox="0 0 628 800" version="1.1" xmlns="http://www.w3.org/2000/svg" xmlns:xlink="http://www.w3.org/1999/xlink">
    <!-- Generator: Sketch 49 (51002) - http://www.bohemiancoding.com/sketch -->
    <title>wm_right</title>
    <desc>Created with Sketch.</desc>
    <defs></defs>
    <g id="wm_right" stroke="none" stroke-width="1" fill="none" fill-rule="evenodd" opacity="0.1">
        <path d="M560.266826,321.848282 C563.50185,322.246228 575.323582,324.366318 574.548274,326.654506 C572.352712,326.67852 570.28408,326.404075 568.246324,327.450397 C566.928986,328.13308 565.234286,330.390393 563.783157,332.222315 C560.891189,334.623712 555.978618,336.081702 553.402263,335.731785 C551.813911,335.519089 549.234125,335.258366 548.551442,333.646 C549.680098,336.314981 550.84306,338.586016 553.573791,338.956517 C556.541231,338.956517 559.573852,336.771246 561.999262,334.387003 C562.524139,336.270384 562.506986,339.673505 562.41093,341.591192 C562.215388,345.57408 560.743675,349.649592 557.20333,351.793696 C555.179296,353.014978 556.098688,354.946387 556.181022,356.888088 C556.469189,363.958485 553.608097,371.035743 549.803599,376.874567 C548.445094,378.963782 547.237535,380.634468 545.186056,381.972389 C543.63544,382.970684 542.345547,384.349772 541.144849,385.739151 C539.004176,388.222881 537.57706,391.372141 534.832607,393.258952 C531.511819,395.526557 528.149864,393.101146 526.149843,390.260637 C525.16184,388.860966 522.85993,389.348107 521.148078,389.070231 C520.630062,389.811233 519.470531,392.013657 518.671209,392.463061 C517.305843,393.204063 515.731213,393.214355 514.238917,392.957063 C510.547627,392.305255 507.521868,390.860987 504.846026,388.195436 C506.770574,391.317252 511.199435,391.440752 508.571621,395.382473 C508.592205,395.348167 505.906071,394.439067 505.370903,394.257247 C500.355415,392.531672 495.820206,390.205748 492.51657,385.941554 C491.154636,384.181674 489.549131,382.76485 488.595433,380.792274 C488.729225,378.613865 485.593688,380.263967 484.194016,380.34287 C482.248885,380.46294 480.386088,379.142172 478.70168,378.219349 C475.79942,376.603553 473.061828,374.740755 470.420292,372.744165 C465.617499,369.131779 461.096013,364.946488 455.637982,362.29466 C451.047884,359.313498 446.063271,356.284308 441.140408,353.313437 C442.111258,352.490101 443.116414,351.611876 444.169598,350.668471 C457.909017,338.277265 458.677464,317.138115 458.711769,302.592513 C468.135535,308.959644 477.686232,315.549763 487.343276,321.501795 C497.096377,327.505286 512.56137,336.328703 524.00917,329.796905 C517.926776,327.934107 522.053747,315.563485 524.455144,312.390211 C527.134416,308.863589 530.204773,305.511925 533.817159,302.918417 C535.834332,301.470718 538.026464,300.239145 540.342097,299.326614 C541.155141,299.00071 542.891007,298.945821 543.484495,298.249416 C545.038542,296.417494 544.647457,292.45519 545.004236,290.225321 C545.577141,286.647241 546.877326,284.760429 549.347333,282.276699 C552.410829,279.216634 556.668162,277.587115 560.963231,277.419017 C563.237697,277.329822 565.275453,277.868421 567.488168,278.228631 C568.760909,278.431034 572.002794,281.093154 572.730074,280.863306 C570.599692,281.425919 567.817503,282.82902 566.462429,284.736415 C566.438415,284.818749 566.434985,284.911374 566.414401,284.993708 C564.133075,287.175548 563.179377,290.311086 563.512142,292.633579 C563.731698,294.167042 563.011279,297.203093 560.726522,299.134502 C558.342278,301.148245 554.266766,303.000751 549.868779,301.597649 C552.132953,302.321498 553.618389,304.143129 555.326811,304.143129 C558.860294,304.143129 561.26169,302.887542 562.802015,301.587357 C565.865511,298.993849 567.079931,294.890892 566.692277,292.177314 C566.486443,290.743337 566.77118,289.899418 567.299487,288.8874 C567.687141,289.038345 568.067934,289.213304 568.431574,289.415708 C572.956491,291.930313 573.649466,297.18251 573.13145,301.885817 C572.311545,309.374743 569.447022,318.50005 561.783137,321.199905 C560.777981,320.901446 559.628741,320.56182 558.407459,320.314819 C551.216992,317.669853 545.515391,318.170715 541.110543,320.836265 C536.945836,323.361162 534.448384,327.398939 534.081313,332.208593 C533.844604,335.254936 534.033285,338.695794 534.218536,342.016582 C534.503273,347.237904 534.825746,353.14877 533.024698,354.778289 C532.753684,355.02529 530.153314,360.088806 528.777657,360.651419 C530.396885,360.376974 534.287147,357.972147 535.179094,357.159102 C538.115659,354.503844 537.796616,348.637575 537.422685,341.841623 C537.244295,338.620322 537.065906,335.289242 537.282031,332.455594 C537.570199,328.705985 541.690309,325.738545 544.945917,323.7694 C547.916787,321.971783 546.572005,320.733348 549.662946,321.690476 C547.820731,323.028397 546.150046,325.271988 544.873875,328.91868 C546.180921,324.6785 554.345669,322.349145 560.266826,321.848282 Z M540.148613,578.163737 C541.833021,576.990483 543.507137,575.165422 545.050892,572.403816 C547.613525,577.505068 547.071496,583.721254 545.373365,589.357675 C545.922256,587.642392 542.529426,584.434812 542.059438,582.493111 C541.695798,580.973371 541.318436,579.254657 540.148613,578.163737 Z M499.350259,352.061281 C505.367472,352.36317 519.583739,354.476399 520.184088,359.653124 C519.093168,350.208775 500.372568,348.898298 499.508065,348.853701 C496.351944,348.695895 492.224972,347.75592 490.557717,346.520916 C492.327889,347.831392 495.223287,351.855447 499.350259,352.061281 Z M504.818582,374.082086 C509.405249,374.082086 512.348675,371.495439 514.928461,368.582888 C512.835815,370.946549 508.56476,371.008299 504.554428,370.860784 C496.33136,370.572617 486.688038,365.004808 482.842373,359.98932 C476.653631,351.913766 467.696423,347.862267 459.236646,342.575765 C467.4357,347.701031 474.430624,354.294579 480.290032,361.944742 C484.564518,367.519413 495.391385,373.749321 504.818582,374.082086 Z M585.416995,152.039363 C585.622829,151.864404 591.694931,149.0582 598.062062,155.037678 C603.327982,159.984554 607.108466,167.126994 606.607603,174.406655 C603.894025,169.916044 599.523484,169.518098 594.977983,169.127014 C592.360461,168.900596 589.653744,168.667318 586.864694,167.696468 C584.566214,166.897146 583.180265,165.699878 582.624514,164.039484 C581.358635,160.269291 583.32778,154.375578 583.358655,154.32412 C583.187126,154.581412 577.814859,159.771859 579.57474,165.04807 C580.449534,167.686176 582.549041,169.597001 585.81151,170.729088 C588.977922,171.833731 592.017404,172.094454 594.703538,172.324302 C595.115206,172.362038 595.516582,172.399774 595.911097,172.43408 C595.68468,172.626191 595.44111,172.828595 595.14265,173.048151 C594.007133,173.874918 592.765268,174.543878 591.471944,175.089338 C587.0225,172.945234 583.193988,171.919495 580.020714,171.58673 C577.595303,170.358587 576.12016,168.907457 575.650172,167.267647 C575.073837,165.250474 574.878295,162.581493 574.888586,162.56434 C574.819975,162.670688 572.42887,164.128679 572.373981,166.735909 C568.120079,164.612388 564.037705,166.794229 561.372155,168.296817 C561.674045,168.128719 568.675831,166.128699 573.897153,171.775411 C573.705041,171.809717 573.506068,171.844022 573.324248,171.881759 C569.303624,172.746261 568.123509,175.631368 567.09777,177.230012 C567.622647,176.420398 570.727309,175.723993 574.00007,175.020727 C575.375727,174.725698 577.087579,174.567892 579.118475,174.725698 C579.163072,174.746282 579.204239,174.770295 579.27285,174.73942 C583.183696,175.072185 588.315823,176.598787 594.724121,180.540508 C595.859639,182.228347 596.672683,184.128881 597.012309,186.180359 C597.173546,187.178654 597.996882,192.568074 596.741294,192.935145 C596.706989,191.377667 592.346739,190.756735 591.231805,190.513165 C587.821822,189.761871 584.415269,190.218136 580.998425,190.496012 C574.271084,190.149525 572.435731,188.043157 569.574639,185.960803 C566.569463,183.840713 565.76671,180.808092 565.972544,180.434161 C564.970819,182.06368 563.193785,185.387898 567.70155,188.571464 C569.238443,189.693259 570.528336,190.571484 572.140703,191.219861 C569.660403,191.871669 567.375646,193.055214 565.005125,194.574955 C564.891916,194.646997 564.785568,194.715608 564.67236,194.78765 C559.461329,196.492642 555.536761,196.533809 553.258865,194.866553 C550.655065,192.972881 549.23138,189.168383 549.234811,189.137508 C549.221089,189.357064 547.317124,194.48233 551.334317,197.439478 C552.360057,198.194203 553.574477,198.695066 554.936412,198.993525 C553.697978,199.984958 550.771705,201.069017 550.01698,201.398352 C546.778525,202.849481 543.663571,205.662546 541.649829,208.547652 C539.461127,211.679759 536.771563,215.371049 532.363285,212.945638 C532.071687,212.784402 531.244921,212.393317 530.352973,212.053691 C529.632554,211.357286 529.056219,210.616284 528.582801,209.981629 C526.33235,206.931855 527.361519,201.192518 527.382103,201.141059 C527.279186,201.38463 523.85205,205.837505 525.052748,209.961046 C522.023558,211.062257 518.829701,213.916489 513.766185,223.621561 C507.601457,235.439862 484.90483,249.319934 478.431351,251.474329 C471.299203,253.851712 446.160013,267.04224 445.093107,267.601422 L444.715744,267.796964 L444.485897,268.160604 C439.748284,275.604934 433.840849,278.929152 429.422279,280.411157 C432.163302,277.076646 432.21133,273.694108 432.21133,273.488274 L432.207899,270.73696 L429.809933,272.092034 C429.761906,272.119478 424.972835,274.791889 421.600588,273.104051 C416.670864,270.640904 388.818096,268.07141 363.298112,273.227551 C341.246431,277.687287 324.275419,270.74039 321.472647,268.266952 C324.635629,271.515698 340.340762,281.138437 363.936198,276.376811 C389.699751,271.176072 416.40328,274.095484 420.163181,275.975435 C422.924787,277.354522 426.043172,276.887965 428.297054,276.18813 C427.511454,277.930858 426.300464,282.208774 422.780703,283.790265 C424.194096,283.790265 437.72425,284.42492 446.962765,270.249819 C448.039963,269.683776 451.347029,267.961632 455.498015,265.841542 C455.401959,266.050806 455.329917,266.266932 455.309333,266.489919 C455.052041,269.114302 455.700418,271.841602 456.067489,274.43511 C456.633532,278.452304 456.606088,282.637595 456.671268,286.689094 C456.712435,288.942976 456.695282,291.189997 456.630102,293.440448 C455.865085,306.572656 453.055451,325.361869 438.197668,338.75823 C432.022649,344.322609 427.518315,348.895554 424.293583,352.765233 C422.266118,354.219793 420.369015,355.732673 419.134011,357.224969 C418.049952,358.528584 416.272918,363.149557 415.912709,364.79966 C414.338079,372.034724 410.310594,378.803232 406.694777,385.14978 C396.351619,403.311198 379.243385,416.241003 362.19347,427.681942 C356.131659,431.747163 349.726792,435.321813 343.517466,439.174339 C343.383674,439.256673 343.253313,439.339006 343.122951,439.42134 C340.539735,441.030276 338.004546,442.714684 335.531108,444.484856 C341.050889,443.586048 346.649573,442.635781 352.237966,441.493402 L352.237966,441.496833 C360.25863,439.754105 368.289586,438.011377 376.341126,436.464192 C385.881531,434.63913 397.120066,433.616822 406.440915,437.013082 C420.633168,442.189807 426.2147,458.92411 426.310756,472.780168 C426.382798,483.589882 423.192371,503.061777 421.329573,513.67595 C420.674335,516.27975 416.519919,531.809924 415.782347,534.406862 C413.205992,542.743139 409.638203,552.184057 407.034403,560.489459 C406.163039,563.268217 405.109855,566.726228 406.090997,569.611335 C406.931486,572.088204 411.171666,572.475858 413.1957,570.67138 C414.046481,571.021297 423.099746,574.472447 426.098061,575.223741 C427.936844,575.539353 435.514965,575.117394 437.487541,574.952727 C443.127392,574.571934 453.71412,574.30778 459.76907,573.88239 C460.925171,573.625097 467.168802,571.683397 468.297458,571.347201 C470.256311,569.751988 475.312966,565.762239 476.36615,563.820539 C478.712657,559.522039 483.14838,557.546033 487.759061,556.719266 C492.633896,555.841041 497.275452,557.213268 502.122843,557.412241 C502.517358,557.422532 507.337303,556.458543 509.79702,555.484262 C513.783338,553.449936 518.5827,551.518528 523.056159,552.328141 C524.383788,552.575142 526.116224,549.298951 527.454145,548.492768 C529.306651,547.367542 531.42331,546.726026 533.567414,546.527053 C538.195248,546.098233 543.063222,547.470459 546.847137,550.13944 C549.313714,551.882168 554.390952,557.419102 553.481852,560.938863 C552.164515,560.400264 550.360037,559.072635 548.658476,559.477442 C547.227929,560.026332 545.89687,560.80164 544.661866,561.700449 C543.920863,562.245909 543.835099,562.503201 543.910572,562.883994 C538.960264,566.770826 532.81612,572.115648 526.833212,565.511808 C526.833212,565.511808 530.57596,573.796626 538.32561,569.251125 C540.404533,568.036705 542.184997,566.925201 543.783641,566.033254 C543.327375,568.064149 541.687565,573.546194 537.011703,576.421009 C535.992825,576.537648 534.919057,577.247775 533.382164,577.58054 C533.138593,577.631999 532.891593,577.659443 532.648022,577.704041 C528.39412,577.03165 524.754289,573.230582 521.48839,569.789724 C516.678736,564.709055 509.19667,567.649051 505.453922,571.391799 C501.711175,575.134547 497.436689,572.993873 497.436689,572.993873 C497.436689,572.993873 498.771179,577.803527 507.327012,572.462135 C515.745622,567.199647 523.635924,574.362669 527.704576,577.903014 C527.461006,577.879 527.214005,577.868708 526.970435,577.837833 C528.884691,579.240935 530.630849,581.429636 531.402727,583.69381 C531.591408,584.249561 531.251782,589.666426 530.795516,589.985469 C530.040792,588.702437 529.224317,587.618378 528.438717,587.158682 C524.308315,584.753855 520.956652,587.426266 517.213904,590.369692 C513.471156,593.306257 504.918754,588.229019 508.126334,580.211785 C508.126334,580.211785 502.513927,587.426266 509.464255,591.704182 C516.34254,595.937501 519.032104,593.364576 522.970394,590.976902 C522.764561,591.824252 522.671935,592.654449 522.671935,593.299396 C521.869183,594.575566 519.982371,597.711104 518.592992,598.297731 C515.556941,599.577332 511.965138,599.498429 508.956531,598.23255 C507.340734,597.553298 506.033688,596.805434 505.169185,595.536125 C504.373294,594.369732 503.25836,595.892904 501.934161,596.297711 C500.671713,596.83631 499.100514,599.995861 498.507026,601.186268 C497.553328,601.186268 492.654479,605.011349 491.769393,605.460754 C490.270236,607.906747 486.379973,611.158924 484.24273,613.100625 C479.851605,617.107526 473.15514,622.894892 467.110482,620.627288 C466.685092,620.70276 462.654176,617.227596 462.211633,616.791914 C460.37628,614.984006 455.381375,614.09892 452.829034,614.390518 C450.640333,614.321907 446.211471,614.188114 444.02277,614.198406 C438.715684,614.232712 433.408598,614.469421 428.118664,614.860505 C417.034504,615.690703 403.672448,617.91371 392.938206,620.853705 C391.171464,620.747357 385.840364,620.9429 383.943261,620.390578 C372.385683,614.685547 375.668735,597.333742 375.668735,597.333742 C375.668735,597.333742 369.620646,607.296107 373.46288,617.148693 C367.359903,619.148713 359.994477,617.179568 354.958405,613.447112 C348.333982,608.764389 347.318534,601.416116 348.673608,593.896314 C349.418041,589.745329 352.347744,578.894447 353.490123,574.829226 C354.087041,571.501577 355.006433,561.474031 354.80403,558.084632 C353.527859,552.417336 351.35288,544.238866 347.071533,540.08445 C345.977182,539.020974 344.443719,537.998665 342.670116,537.038107 C357.068204,536.780814 361.939608,526.76013 361.939608,526.76013 C349.568986,535.597269 340.536304,533.700166 330.567078,532.111813 C328.5156,531.449714 326.625357,530.893962 325.119339,530.475433 C321.908329,529.542319 313.246149,526.324448 309.897916,526.03628 C308.357591,525.895627 305.445041,525.209514 302.964741,524.849304 C299.908106,528.523441 297.407223,532.046633 295.407203,535.206184 C290.751925,545.003882 284.834198,554.359036 280.628323,564.269943 C274.967889,577.614846 270.30918,591.50864 263.060393,604.133124 C256.363927,615.779897 247.420441,625.893207 237.458076,634.846985 C231.986322,639.773279 215.718576,652.747681 209.80428,657.135375 C208.586429,657.914114 197.718395,665.149178 198.29816,665.241804 C196.702947,665.876458 192.867574,666.655197 192.510795,668.538578 C191.913876,671.660393 192.404447,675.001765 192.267225,678.154455 C192.095696,682.219677 191.402722,691.056816 191.131707,695.122037 C190.030495,702.178712 190.253482,714.617946 190.164287,721.756954 C190.157426,722.487665 190.699456,732.463752 190.232899,732.6936 C191.076818,737.23567 191.128277,740.752 193.598284,744.861819 C194.994525,747.184312 195.735527,748.385011 198.606911,747.692036 C200.390806,747.252924 202.154117,747.153437 203.968887,747.520508 C208.030677,748.364427 211.965537,751.345589 214.878088,753.757278 C220.085687,753.880778 227.468266,756.354216 230.247025,760.879133 C231.893697,763.548114 232.723894,766.838027 232.703311,769.970134 C232.69645,770.91011 232.651852,773.9393 231.691294,774.457315 C231.650127,775.843264 230.315636,776.989073 228.960563,777.805548 C228.072046,758.855099 215.564201,759.294212 215.564201,759.294212 C226.939959,763.990657 226.181804,777.033671 224.432215,784.131512 C223.499101,781.445379 219.186879,778.076563 216.116522,777.483075 C213.80432,777.043962 211.584744,778.007951 209.409765,779.040552 C205.872851,778.395605 201.495448,768.519005 207.492078,763.431475 C207.492078,763.431475 200.661821,764.467506 202.524618,774.814094 C203.039203,777.678617 203.893414,779.582581 204.926015,780.862183 C201.471434,781.884491 197.735547,782.131492 194.534829,780.460806 C193.159172,779.743818 190.445594,777.891312 190.092246,776.196612 C189.865828,775.959903 189.625688,775.781514 189.382118,775.651152 C186.949847,751.547993 172.891386,752.371329 168.788428,750.806991 C164.445331,749.153458 166.719797,739.630205 166.719797,739.630205 C165.066264,744.601096 160.716305,753.911653 173.138386,755.568617 C185.018438,757.153538 187.416404,771.970155 186.150525,776.333835 C185.505578,776.882726 184.936104,777.613436 184.531297,778.375022 C183.426655,780.450515 185.502148,785.363086 185.735426,787.709593 C185.996149,790.347699 184.901799,800.721732 181.244815,799.960146 C180.071561,798.478141 179.659893,796.440385 178.592987,794.893199 C177.735345,793.647904 176.716467,792.512386 175.872548,791.256799 C175.059504,790.056101 174.260182,787.887983 173.032039,786.707868 C170.146932,781.925658 167.309854,771.342361 172.723288,767.983836 C172.723288,767.983836 163.121133,769.081618 167.783272,783.870789 C166.743811,783.194968 165.76953,782.433382 165.014805,781.538004 C163.364703,779.586012 162.517353,777.116004 160.846667,775.188026 C158.009589,771.908404 153.584158,770.495011 150.592704,767.366335 C147.422861,764.052407 145.909981,757.122663 144.980297,752.755552 C143.985433,743.609662 144.067767,732.405432 144.218712,723.235528 C144.297615,718.727764 144.9357,711.763714 145.103798,707.25252 C144.911686,701.115236 144.911686,696.604041 143.693835,690.60055 C142.462262,684.54217 142.177525,676.068671 142.578901,669.965693 C141.704107,667.481963 140.386769,662.274364 140.740117,659.639689 C141.340466,655.193675 147.23761,649.433754 150.922038,647.251913 C154.091882,643.063192 160.266901,635.063111 162.935882,630.548486 C168.143482,621.752513 172.572343,612.256706 175.872548,602.582508 C176.157285,601.615089 176.459175,600.489863 176.754203,599.337192 C180.462646,610.819298 181.948081,622.898322 181.948081,622.898322 C183.944671,616.905123 181.145328,600.527599 176.754203,581.75554 L176.67187,581.752109 C176.397424,580.393605 176.095535,579.048823 175.845103,577.690319 C174.630683,571.227131 173.604943,564.705625 172.843358,558.166965 C171.491715,546.681429 171.453978,535.031225 172.79533,523.535397 C178.171027,494.543681 191.759501,457.119632 208.085566,443.815896 C208.085566,443.815896 192.05796,444.505439 178.774807,468.591446 C178.349417,469.40106 177.875999,470.268993 177.357983,471.184954 C177.351122,471.205538 177.34083,471.22269 177.327108,471.243274 C173.807347,477.486905 168.270413,485.864348 161.299502,491.634561 C167.652911,487.188546 177.70447,479.764801 183.310016,473.562337 C182.404346,476.234748 181.512399,479.071826 180.647896,482.056419 C179.88288,482.138753 178.328833,484.780289 169.035429,491.353254 C159.738594,497.926219 147.817376,501.737579 143.138083,503.977738 C138.482805,506.214468 116.935417,511.816583 91.9506021,507.092693 C86.5680434,506.080676 81.2918323,504.478601 76.1802884,502.512887 C66.2625209,498.698097 56.759852,493.356705 48.7288961,486.372072 C33.8608213,473.445698 23.459344,454.98582 20.2963618,435.448744 C17.6342423,418.999178 19.3804006,401.674818 22.7423556,385.448239 C25.8538793,370.429219 30.9962984,355.694937 38.831712,342.473534 C46.529903,329.461395 57.0342973,317.279454 70.7394101,310.418321 C78.2523505,306.658421 86.6160713,304.764748 95.0243896,305.114666 C99.5527372,305.313638 104.036487,306.157558 108.334987,307.584673 C109.130879,307.848827 110.47223,308.236481 111.892485,308.661871 C122.081267,314.864335 131.271754,317.876373 137.985373,331.053178 C137.985373,331.053178 138.743528,322.315526 121.360848,310.974073 C123.028103,311.210782 124.674775,311.461213 125.518694,311.667047 C128.746857,312.4698 131.878964,313.68079 134.764071,315.341184 C140.431366,318.607083 145.244451,323.804391 147.711028,329.893647 C150.119286,335.818235 153.405768,343.622773 160.232596,345.561043 C166.507102,347.348369 170.098905,341.862893 168.627192,336.583251 C169.172652,336.439167 170.181238,338.93662 170.380211,339.389454 C171.333908,341.60217 171.82791,344.418665 171.316756,346.792617 C170.328753,351.379284 166.13317,355.578297 161.241182,355.444505 C164.74379,358.243847 166.836436,365.149578 163.426453,368.79627 C161.882698,370.456664 158.977008,370.79972 156.877502,370.185649 C156.537876,370.082732 154.935801,369.372605 153.971812,369.056993 C154.894634,368.923201 156.297736,368.158184 156.651084,367.863156 C157.762588,366.947194 158.376659,365.080966 157.567046,363.777351 C155.645928,360.686411 151.072983,363.550934 149.697326,365.674454 C147.563514,368.964367 149.697326,373.376076 151.748805,376.141112 C154.335452,379.623137 158.112506,381.067406 161.546503,383.482524 C159.930706,385.482545 155.903221,385.530573 152.801989,384.930223 C148.3251,383.039981 144.304476,379.187455 143.062611,372.367489 C143.062611,372.367489 144.030031,382.347007 150.26337,386.305881 C151.007803,393.215041 148.671587,400.402078 142.596054,404.330076 C141.72812,404.885828 140.788145,405.246038 139.851601,405.609678 C140.743548,399.884062 140.297574,394.515226 140.297574,394.515226 C139.882476,401.788027 138.901334,402.703988 137.361009,406.861834 C136.228923,407.86699 135.680032,410.278678 134.801807,411.49653 C132.143118,415.177527 128.438106,418.011175 124.863456,420.752198 C121.604418,423.24965 117.765614,425.692213 115.477426,429.181099 C113.213253,432.632249 112.870196,437.325264 113.909658,441.249832 C114.41052,443.146935 115.425968,445.675263 117.528905,446.279042 C119.261341,446.769613 121.182458,445.387095 121.594126,443.709548 C122.033239,441.953098 119.501481,436.429886 118.112101,437.96678 C118.856534,436.872429 120.290511,436.103982 121.484348,436.409303 C123.364299,436.893013 125.004109,438.412753 126.232252,439.839869 C128.541023,442.522572 129.868652,445.867374 129.789749,449.366552 C129.031594,454.217373 125.577014,459.442125 116.763889,453.342578 C116.763889,453.342578 121.467195,459.085347 127.240839,456.810881 C124.551275,460.385531 120.088108,462.049356 115.552899,458.735429 C108.887308,453.864025 104.358961,443.959979 103.998751,435.877565 C103.635111,427.712817 107.233775,420.04207 112.763848,414.203246 C118.276769,410.055692 126.050432,408.844702 132.451869,400.741704 C139.374752,391.976607 136.606285,386.669521 136.606285,386.669521 C136.606285,386.669521 134.76064,397.739958 130.606224,400.741704 C128.609635,402.182542 124.053842,403.740019 119.144702,405.983609 C115.769025,406.741765 108.866725,406.985335 104.307502,398.206515 C104.307502,398.206515 106.966191,408.031657 114.969703,408.052241 C113.058877,409.091703 111.185788,410.264956 109.480796,411.596016 C106.372703,410.189484 103.532194,408.210047 101.309187,405.595955 C98.6161926,402.41582 95.7619613,397.012678 96.6058807,392.703887 C97.4532306,388.340206 102.331496,385.379628 106.389856,384.580306 C108.437904,384.175499 111.384761,383.897623 113.07603,385.389919 C115.326481,387.372787 114.403659,390.566644 112.756987,392.535789 C112.482542,392.487761 111.552858,390.23731 111.388191,389.921697 C110.612883,388.477429 109.051976,387.678107 107.487637,388.377943 C104.726031,389.623238 104.345238,393.431167 105.703743,395.829133 C108.890739,401.465553 117.055487,401.959555 122.410601,399.537575 C128.715982,396.697066 132.921857,388.789611 133.069371,382.0657 C133.137982,379.022788 130.980156,373.15995 127.354047,376.463586 C124.973234,378.617981 125.813723,381.973075 126.908074,384.570014 C122.215059,386.734701 119.206452,378.408717 119.710745,375.03647 C120.149858,372.055308 121.484348,369.307424 123.220215,366.892305 C123.607869,366.353706 126.287141,363.300502 125.865181,362.62125 C121.353987,362.600667 118.064073,359.945408 115.868511,356.175216 C113.991991,352.957345 112.859904,348.576511 114.081186,344.885222 C114.842772,347.643397 116.654111,350.703462 119.408856,351.928175 C122.613005,353.334707 125.422638,350.398142 126.890921,347.849231 C128.568468,344.940111 129.031594,341.598739 128.678246,338.295104 C136.355853,349.166569 139.625183,361.293621 139.625183,361.293621 C134.160291,334.459731 124.46208,322.236623 109.645464,317.186829 C109.580283,317.162815 109.511671,317.13194 109.44306,317.107926 C109.367588,317.080481 109.295546,317.059898 109.196059,317.025592 C86.6469464,309.296526 69.8749073,312.281119 46.6911396,349.554223 C37.9500565,363.605823 34.0014745,380.511654 31.5486196,396.84115 C29.0889035,413.218674 29.037445,430.495006 34.385698,446.330501 C44.6842583,476.838528 75.9504404,497.343023 107.978208,496.132033 C123.354007,495.548837 137.975081,488.886677 148.839685,478.039226 C154.657925,472.231277 159.41269,465.301533 163.570537,458.244858 C164.321831,456.968687 165.04225,455.668502 165.762669,454.371748 C168.098884,449.225899 169.457389,444.947982 169.913654,443.006282 C171.436825,436.567109 173.587791,430.265158 176.291077,424.210209 C177.797096,420.350821 179.594712,416.608073 181.711372,413.047146 C185.968705,405.873831 191.605125,399.914937 197.725256,394.309392 C198.641217,393.472334 199.574331,392.659289 200.493723,391.825662 C200.737293,391.599244 200.967141,391.362535 201.210711,391.136118 C209.481807,383.571719 217.903847,376.165126 226.229832,368.672769 C230.620957,364.696743 235.032665,360.737869 239.358609,356.696662 C242.350063,353.90075 247.362121,347.989884 249.468489,344.408373 C250.902465,339.96579 253.667502,331.289887 254.422227,326.686067 C256.411955,314.583029 255.845912,302.23642 256.044884,290.003021 C257.334777,287.780014 259.307353,284.198502 260.758483,281.004645 C261.242193,279.917155 261.715611,279.632418 264.326272,279.948031 C267.451518,280.328823 272.178838,280.901728 277.523661,275.742156 L279.863307,273.477982 L276.648866,272.997703 C276.573394,272.983981 269.297162,271.83131 267.245684,266.764364 C265.695068,262.932421 266.151333,256.716235 271.122224,250.20845 C265.413761,257.683655 262.261071,263.011324 264.267952,267.971923 C265.972944,272.181228 270.034734,274.304749 272.940424,275.327058 C269.770581,277.371675 266.319431,276.97373 263.918034,276.682131 C262.068959,275.989157 259.626396,274.428249 258.374239,272.277284 C256.586914,269.200066 252.713804,260.246288 258.80306,243.611471 C254.130628,255.879177 253.067153,266.338974 256.98486,273.083467 C257.935127,274.719847 259.098089,276.026893 260.408565,276.963438 C259.423992,277.351092 258.460003,278.273914 257.828779,279.690738 C256.123787,283.440347 253.629766,287.783444 252.487387,289.701131 C251.025966,290.918982 249.434183,291.99961 247.814956,292.997905 C246.079089,294.05452 242.487286,294.668591 241.42381,296.455916 C240.717114,295.128287 243.996735,291.076788 244.497598,289.766312 C246.463313,284.66849 247.17687,279.213889 248.593694,273.951401 C247.876706,274.489999 244.521612,275.882809 244.521612,276.846799 C243.746304,273.062884 245.59881,269.429914 247.832108,266.510502 C242.881801,270.651196 235.279666,273.635788 230.675846,267.350991 C227.300169,262.754032 228.768451,259.182812 229.694704,254.050685 C233.866273,241.90991 240.068737,231.391794 248.092832,218.750157 C257.887099,203.316038 248.435888,177.168261 243.519887,173.562736 C247.334676,176.362078 254.466824,199.755111 244.895544,214.83245 C238.960664,224.187604 234.164732,233.223716 230.363664,242.222092 C225.626052,242.074578 220.915885,243.676652 216.260606,244.335321 C213.104485,244.795017 208.500665,245.168948 205.886573,242.918497 C227.831906,234.379817 227.831906,223.841117 228.195546,205.381239 C228.322477,198.911191 227.344766,191.610946 221.516234,187.782434 C215.567632,183.868158 203.529774,186.324443 203.910567,195.08954 C204.178151,201.412074 212.483552,206.245742 217.13197,200.163348 C213.166235,205.978158 208.912333,210.928465 201.039183,209.559669 C193.900174,208.321235 188.894978,201.597325 187.179695,194.931734 C183.474683,180.578244 192.901879,165.843962 200.517737,154.475065 C196.431932,155.565985 189.862398,158.02227 186.208844,160.14236 C187.793766,157.854173 188.922422,154.341273 190.24319,151.860973 C191.948182,148.639671 193.413034,145.318883 194.534829,141.85058 C195.563999,138.694459 196.565724,135.521185 197.581172,132.358203 C197.968826,131.143783 198.946537,126.440476 199.344483,125.232917 C192.792101,130.361613 185.073327,126.732074 177.52265,123.850398 C180.342576,125.099125 183.807448,120.718291 185.804038,119.191689 C188.96702,116.769709 191.773223,113.836575 193.75609,110.375134 C197.560589,103.706113 199.296455,94.4813196 195.817861,87.3320192 C194.788691,91.4727128 194.774969,95.7609208 194.390745,99.9908092 C193.2072,99.4727937 192.291239,98.6117215 191.251777,97.8707192 C191.320388,98.6117215 191.385569,99.3527238 191.443889,100.100587 C189.364965,96.7592156 186.195122,94.1794297 184.586186,90.5293071 C182.6685,86.18621 182.538138,81.3182363 183.042432,76.6698188 C184.00299,67.8464021 187.313487,59.444945 191.495347,51.6781427 C198.850482,38.0244884 208.89861,24.6830157 223.31385,18.1409256 C218.730614,17.9247999 211.848898,19.4170963 208.034108,21.7807565 C214.981005,15.5062506 220.240063,7.83550413 229.104647,4.17508979 C238.257398,0.408327884 248.610847,0.0481184121 258.154683,2.52155678 C260.363968,3.09446137 262.689892,3.79429692 264.785968,4.82003627 C255.001992,11.9453227 235.962349,27.97979 235.00179,41.413888 C236.09271,26.1581592 269.321176,5.11163441 271.406961,4.14421469 C271.406961,4.14421469 271.365794,4.03786713 271.40353,4.0207143 C275.76035,2.29856997 280.278405,0.905760011 284.943976,0.32599429 C292.985223,-0.658578265 302.371253,0.401466751 308.601162,6.07905413 C310.199806,7.53704485 314.230721,11.8561279 314.230721,11.8561279 C318.337109,5.58848314 308.786412,0.909190577 308.786412,0.909190577 C308.786412,0.909190577 320.330268,2.91264135 323.040416,5.34834349 C325.928952,7.95214339 326.529302,12.6966167 325.942675,16.3433088 C325.575604,18.5697464 324.577309,19.9625563 323.026693,21.5166029 C322.018107,22.5320506 322.755679,23.5852344 323.352597,24.7001685 C322.090149,24.3742647 320.848284,24.0071941 319.692183,23.6058178 C322.783123,21.8768124 323.12961,19.7258473 323.966668,16.8750466 C325.287437,12.377574 321.338855,9.27634201 321.229077,9.10824426 C321.246229,9.13911936 321.774537,12.9436175 320.882589,15.9693771 C320.316546,17.9007859 318.566957,20.384516 315.970018,21.9282709 C314.419402,21.0466153 312.961412,20.1032096 311.56174,19.1803872 C307.849868,16.7343934 304.755497,15.4136253 301.369528,15.8664601 C304.158578,15.4925283 307.232366,18.2507037 310.676654,20.5183081 C312.247854,21.5577697 313.873942,22.6281064 315.664698,23.6161095 C321.609869,26.8854393 333.939325,28.3468606 334.464202,28.4017497 C334.893022,28.494375 335.318413,28.597292 335.754095,28.6727644 C338.622048,29.1599048 341.616933,29.2834052 344.440289,28.4840833 C346.574101,27.8905953 348.594705,27.2182043 350.831434,27.695053 C355.719991,28.7276535 358.889834,33.0638894 362.728638,35.8666621 C368.543448,36.5013169 374.337675,37.355528 380.090735,38.3949896 C385.864378,39.4378818 391.596854,40.6900385 397.26072,42.2029183 C400.060062,42.9542123 402.869696,43.7157981 405.576412,44.7586902 C406.845722,45.2458307 408.015545,46.1858059 409.326022,46.5151402 C412.876658,47.434532 415.037915,47.4139486 416.691448,51.1841411 C417.724048,53.5443708 418.235202,55.986934 417.686312,58.5495671 C417.446172,59.6713624 416.931587,60.5495874 416.893851,61.8291886 C416.571378,60.7142545 414.619385,58.8068596 413.645105,58.4089139 C413.017311,57.6061614 410.989846,56.2819628 409.614189,56.2819628 C407.624461,56.2819628 407.229945,57.4517859 407.168195,58.0212599 C404.372284,57.1704795 397.634651,55.2459317 397.518012,53.4997734 C397.487137,53.0297858 398.259014,52.3848393 399.583213,51.7810596 C400.797633,51.2287385 401.967457,51.1875717 403.102974,51.1429743 C404.904021,51.0709324 406.005233,50.7484592 406.832,48.2681597 C406.375734,49.6369556 404.855994,49.4688579 403.037793,49.5374692 C401.871401,49.5820666 400.420271,49.6369556 398.917683,50.3230689 C398.142375,50.6729867 396.255564,51.7707679 395.915937,53.6095515 C394.495683,61.3146037 401.552358,58.2065105 407.123598,59.8943492 C407.62103,60.0452941 409.212813,59.8806269 409.579883,59.9972662 C409.302008,59.705668 409.175077,58.1070241 409.171646,57.9629403 C410.022427,57.9629403 411.055027,58.0864407 411.367209,58.4809558 C411.830335,59.0675827 411.62107,59.9801133 411.62107,59.9869745 L411.168236,61.7983135 L412.794324,60.8789217 C413.984731,60.2099613 414.372385,60.2820032 414.461579,60.3163088 C414.712011,60.4192258 414.928136,61.177381 415.120248,61.8429109 C415.212873,62.1688147 416.372405,63.5204578 417.380991,64.3232104 C417.785798,65.4484362 418.677746,67.791513 418.941899,68.9579056 C419.182039,70.0110895 419.332984,71.0814262 419.394734,72.158624 C419.144303,75.592621 417.785798,79.208438 415.600527,81.9528911 C412.749727,85.5344024 408.619325,87.6785064 403.658726,88.1553551 C399.542046,88.5533008 395.418505,88.5635925 391.778674,88.5773148 C383.661954,88.5978982 377.253656,88.6184816 374.605259,92.5258967 C371.64125,96.9101606 368.220975,104.333906 368.745852,114.831439 C368.811032,116.135055 368.876213,117.280864 368.951686,118.34777 C368.937963,118.419812 368.910519,118.495284 368.968838,118.577618 C369.267298,122.663422 369.778452,125.027083 371.397679,126.066544 C371.939709,126.413032 372.564072,126.58799 373.315366,126.58799 C374.262202,126.58799 375.404581,126.310115 376.807683,125.747502 C378.111298,125.229486 379.510969,124.399289 381.130196,123.445592 C386.920992,120.039039 394.674072,115.510692 406.753097,119.19512 C406.814847,121.030473 407.010389,125.517654 406.945208,126.004794 C406.485513,129.256971 405.974358,132.546884 404.502645,135.521185 C403.861129,136.82137 403.089252,137.829957 402.224749,138.663584 L401.922859,137.66872 C396.982844,139.171308 390.409878,141.322273 387.264049,142.361735 L386.36181,136.066645 L384.032456,139.473198 C384.00158,139.514365 382.087324,142.286262 379.291413,144.646492 C379.366885,144.008407 379.349732,143.346307 379.188496,142.684208 C378.704786,140.684188 377.102711,139.198753 374.4303,138.2725 C367.095749,135.73388 363.980795,135.171268 360.793799,135.840228 C358.934432,135.517755 347.767938,129.438791 340.930819,119.0133 C336.145179,111.713055 333.380143,103.850196 335.730081,96.621993 C331.575665,109.407714 336.501958,119.661677 342.646103,126.419893 C349.164179,133.593207 358.68057,139.603559 361.332398,139.010071 C363.562266,138.51607 365.936218,138.732195 373.380547,141.308551 C374.948316,141.85058 375.853985,142.567569 376.06668,143.432071 C376.447473,144.982687 375.672165,148.457851 375.071816,149.095937 C378.516105,147.826627 382.348047,146.402942 384.293179,144.258838 L384.629374,146.622498 C384.629374,146.622498 378.320562,152.32753 384.200553,158.93137 C385.195418,160.042874 387.826662,159.41165 388.313802,159.514567 C388.011913,159.157788 387.703162,158.811301 387.408133,158.437369 C390.029086,158.742689 392.183481,161.161239 394.735823,161.881658 C397.898805,162.780466 401.339663,163.003453 404.519798,162.063478 C407.428918,161.198975 410.015565,159.391066 412.091058,157.202365 C413.782327,155.41847 414.595372,152.776934 416.410141,151.195443 C415.850959,152.416725 415.778917,153.768368 415.569652,155.071983 C415.91957,153.802674 416.09796,152.471614 416.410141,151.195443 C415.713736,154.032522 416.080807,156.934781 415.171707,159.785581 C414.40326,162.207561 413.308909,164.523194 412.231711,166.825104 C421.899047,163.679274 430.019198,174.362058 432.835693,182.255791 C433.772238,184.859591 434.266239,187.621197 434.036391,190.396525 C433.298819,193.007186 432.015788,194.90429 430.427435,197.199339 C430.348532,193.981467 429.683003,190.019163 427.230148,187.703531 C425.408517,185.981386 422.962523,185.435926 419.967638,186.087734 C414.691427,187.230113 411.531876,193.429146 412.454698,200.8426 C413.542188,209.590544 420.307265,218.221849 433.031235,219.154963 C430.146129,221.261331 423.291857,223.590686 406.876597,219.604368 C407.236807,213.696932 405.538676,207.353815 396.993135,202.695106 C392.066842,200.005542 388.155996,198.863163 385.010167,197.947202 C378.111298,195.93346 374.183299,195.374277 373.023768,179.727464 C374.299939,196.911171 376.028944,198.671052 384.111359,201.031281 C387.106243,201.902645 390.835269,202.993565 395.456242,205.511601 C407.31571,211.98508 406.554124,222.794794 404.904021,229.8549 C405.346565,227.971519 405.957205,225.769095 406.392887,223.412296 L406.427193,223.793089 C414.574788,225.446622 418.739496,224.908023 423.013981,224.908023 C435.340007,224.908023 437.837459,218.520309 437.96782,218.160099 L438.774003,215.92337 L436.403482,216.009134 C422.588591,216.489413 416.567947,207.919859 415.641694,200.441224 C414.941859,194.818525 417.092824,189.99858 420.64346,189.230133 C422.571438,188.811604 424.005415,189.075757 425.020863,190.036316 C427.710427,192.571504 427.319342,199.38804 426.938549,201.799728 L426.115213,207.093092 L429.717308,203.127357 C430.5132,202.249132 431.18216,201.432657 431.744773,200.657349 C433.010652,201.950673 435.11702,203.367497 435.84773,204.283458 C437.532138,206.393256 438.527003,208.949028 438.485836,211.666037 C440.461842,210.328116 441.593929,208.163429 443.151406,206.437854 C444.482466,204.945557 446.393291,204.238861 447.861574,202.924954 C451.206376,199.926639 455.158389,197.638451 459.371124,196.101557 C467.652511,193.082659 476.928763,192.588657 484.352509,187.429085 C492.585868,181.693178 497.964996,172.488969 505.903327,166.303658 C513.632393,160.265861 522.774852,156.372168 530.490196,150.324079 C537.581177,144.759701 540.541756,134.979156 550.291425,133.579485 C555.097649,132.88308 559.927886,133.263873 564.401345,131.06488 C568.590066,128.985956 572.298509,126.286101 576.816565,124.913874 C579.290003,124.16258 581.989859,123.490189 584.579936,124.028788 C585.197438,124.16258 585.756621,124.423303 586.305511,124.714901 C583.619378,125.829835 582.254012,127.864161 581.526732,128.907053 C581.952123,128.296413 585.842385,127.377021 589.924759,127.154034 C592.700087,126.996228 596.456557,127.596577 600.813377,130.334169 C606.923215,136.406271 608.370914,145.90551 609.046736,154.234925 C605.880323,146.27258 598.782481,142.217651 588.363851,142.413193 C585.705162,142.474943 583.760031,141.871164 582.669111,140.625868 C580.84748,138.546945 579.856046,134.468001 580.137353,132.680676 C579.780574,134.951711 577.444358,139.534948 580.253992,142.742528 C582.00015,144.739117 584.730881,145.713398 588.435893,145.624203 C590.528539,145.583037 592.449656,145.737412 594.209536,146.066746 C594.058591,146.382359 593.890494,146.687679 593.698382,146.975847 C589.732647,145.689384 586.206025,146.111344 583.420405,147.147375 C579.468392,146.670526 569.475153,144.505839 566.939964,141.740802 C570.881685,146.032441 577.986388,148.749449 579.557587,149.212576 C578.984683,149.627674 578.490681,150.046203 578.092735,150.433857 C578.322583,150.20744 583.81492,146.601915 590.031106,149.260604 C587.187167,150.02562 585.454731,152.005057 585.416995,152.039363 Z M395.343033,246.39023 C395.50427,245.999146 400.735883,237.312951 396.65694,229.336885 C394.255543,224.633578 389.69289,221.446582 383.09248,219.871952 C371.768181,217.158374 363.188334,217.926821 357.582789,222.16357 C353.2294,225.443192 350.86917,230.606194 350.570711,237.511924 C350.412905,241.138033 350.608447,244.129487 350.992671,246.585772 C348.800539,243.391915 346.779935,239.628584 346.430017,236.242615 C346.001196,232.101921 344.546636,229.347176 342.100642,228.057283 C339.342467,226.599293 336.323569,228.571868 331.616832,231.120779 C335.273815,229.144773 338.879341,229.992123 340.601485,230.897792 C342.038892,231.655947 342.923978,233.566773 343.23616,236.571949 C344.165843,245.553172 355.517588,254.729937 355.994436,255.203355 C355.723422,254.911757 353.256844,249.628685 353.77829,237.649147 C354.035583,231.748573 355.963561,227.402045 359.514197,224.726203 C364.323852,221.096664 372.00489,220.513468 382.341186,222.993767 C387.981037,224.34198 391.830133,226.962933 393.788986,230.781153 C397.198969,237.42616 395.377339,246.311327 395.343033,246.39023 Z M311.301017,251.923734 C329.030184,253.182752 336.827862,234.252886 336.903334,234.057344 C336.663195,234.691999 329.877534,247.522317 317.784788,249.570365 C321.97694,245.741853 326.872358,239.048818 323.829446,234.740027 C323.568723,234.750318 295.582162,234.314636 283.290443,257.175931 C283.218401,251.920303 282.340176,248.674987 279.492806,247.858513 L278.604289,247.858513 C279.877029,248.455431 282.12062,258.01985 281.081158,267.069684 C288.703877,239.892737 316.484603,237.906439 322.066135,237.734911 C322.546414,240.647462 315.849948,248.462292 311.301017,251.923734 Z M242.850926,103.339042 C241.945257,83.7196328 254.013989,75.2495644 264.665898,73.939088 C269.420663,79.1432572 274.762055,81.7916545 280.631754,81.7916545 C282.405357,81.7916545 284.226987,81.5515148 286.093215,81.0746661 C288.165278,80.5429283 290.498063,80.7144566 292.755375,80.8791238 C296.573596,81.1569997 299.369507,80.9923325 300.703998,76.7349996 C300.182552,78.3988243 296.978403,77.9665729 292.988654,77.6749748 C290.590688,77.5034465 287.873679,77.3044736 285.297324,77.9631424 C277.5168,79.9563014 270.593917,76.9339725 264.710495,68.9716279 C261.544082,64.6834199 260.418857,60.8240327 261.46861,57.8085648 C262.367418,55.2150566 264.720787,53.7399131 266.624751,53.218467 C269.334899,52.4843258 273.101661,50.3059161 277.465341,47.7810192 C281.832452,45.2595529 286.779329,42.4018911 291.558108,40.4773434 C298.53588,37.6608484 300.748595,38.9884776 303.390131,42.8958927 C300.261455,38.2714892 299.307757,33.8872253 290.353979,37.4961812 C285.365935,39.5064931 280.316142,42.4259051 275.856405,45.0022605 C271.688267,47.4105181 268.086172,49.4928719 265.780832,50.1206655 C262.291946,51.074363 259.544062,53.5546625 258.432559,56.7588115 C257.451417,59.5890288 257.293611,64.3437938 262.127279,70.8824533 C262.556099,71.4622191 262.998643,71.976804 263.437755,72.5119724 C252.370748,74.3095892 240.319168,83.3182565 241.248852,103.411084 C241.910951,117.792018 240.079028,135.212434 232.946881,140.992939 C230.665554,142.842014 228.03774,143.346307 224.926217,142.540124 C211.210812,138.972335 213.485278,126.104281 213.61907,125.569112 C213.351486,125.970489 206.377144,135.18842 209.787127,143.747684 C211.903787,149.065061 217.759763,154.670607 226.212679,156.598585 C229.433981,157.332726 232.617547,158.090882 235.413458,158.090882 C240.885212,158.090882 247.578247,156.674058 251.324425,153.864424 C258.535476,148.454421 262.957476,130.255266 262.456613,113.695922 C262.010639,98.9685004 261.863125,90.1347919 274.353817,88.6905235 C260.49776,90.292598 260.089522,97.373287 259.516618,111.682179 C259.423992,113.990951 259.324506,116.491834 259.163269,119.184828 C258.216433,134.992878 254.446241,145.161077 247.636566,150.26919 C242.374077,154.214342 235.118429,155.168039 226.075456,153.106269 C218.171431,151.29836 213.19368,147.956989 211.279424,143.157626 C209.358306,138.341111 210.929506,132.989427 212.418372,129.596597 C212.524719,134.227862 214.40467,141.462926 224.52141,144.094171 C228.120074,145.027285 231.293348,144.402922 233.958898,142.241665 C241.554172,136.083798 243.533609,118.1042 242.850926,103.339042 Z M289.170434,62.7314276 L297.149931,59.0264159 C296.278567,61.074464 295.482676,64.3540855 296.793152,68.1071251 C298.216837,72.1757769 302.011044,72.1551935 303.692021,72.2992773 C302.069363,72.158624 299.390091,70.6628971 298.309462,67.5788179 C296.426081,62.1996898 299.633661,57.1910629 299.664536,57.1464655 L298.683394,57.1464655 L292.426041,59.4483755 L295.108744,53.5409402 L286.621523,55.1944732 C287.376247,54.4706237 287.980027,53.6404266 288.038347,52.8102296 C288.072652,52.3333808 287.949152,51.6335453 287.166983,51.050349 C284.319613,48.9096756 269.314315,54.0692474 265.249094,56.683339 C269.629927,53.866844 284.443113,51.0194739 286.206424,52.3333808 C286.449994,52.5152009 286.443133,52.6352707 286.436272,52.7004514 C286.381383,53.5100651 284.762156,55.7776695 283.046873,56.7245058 L292.35743,55.7124887 L289.170434,62.7314276 Z M319.441751,145.610481 C314.920265,154.975927 316.330228,162.677549 330.628828,173.257416 C339.328745,179.696589 345.246472,187.998559 345.503764,195.991779 C345.733612,203.247427 344.467733,210.334977 340.721555,213.50139 C344.841665,210.022796 347.671882,203.940402 347.424882,196.197613 C347.085255,185.51826 342.110934,175.360353 334.447049,169.686196 C319.73335,158.801009 317.07123,154.210911 320.88602,146.306886 C322.542983,142.87632 325.654507,140.57441 328.663114,138.347972 C332.63914,135.401116 336.014818,132.289592 336.748959,126.649741 C335.863873,131.548589 331.54479,134.21414 327.705986,137.058079 C324.539573,139.401156 321.270243,141.826566 319.441751,145.610481 Z M330.491606,37.2972083 C325.482979,41.6094303 327.500152,47.4928517 327.507013,47.5786158 C327.48643,47.3178928 328.786614,42.7861146 332.752349,39.5716738 C334.426465,38.2166001 336.851876,35.4858693 340.375068,34.9507009 L339.891358,34.9507009 C335.558552,35.6128002 332.560237,35.5133138 330.491606,37.2972083 Z M356.231145,45.5305677 C353.857193,42.3058353 348.406023,42.5253915 339.84333,43.0091014 C349.479791,42.4567802 352.646204,46.1171945 353.613623,47.3933652 C353.966972,47.8599223 354.237986,48.3642155 354.44039,48.8239114 C352.213952,51.9868936 346.793657,55.2699457 337.366461,58.7862762 C339.026855,58.5598588 340.577471,58.3951917 342.035462,58.2373856 C342.412824,58.8960543 345.805654,64.3300715 353.699387,64.769184 C352.526134,67.4759009 349.17447,72.9716683 341.205265,71.1809126 C353.147066,75.410801 358.056207,63.5238884 358.097374,63.4346937 C355.737144,63.2871793 353.623915,62.6422329 351.809145,61.8086052 C355.706269,59.8188767 355.133364,55.6919053 354.467834,53.4723289 C355.174531,52.3196586 355.692547,50.868529 355.994436,48.9748563 L355.942978,48.8376337 C356.62223,47.9422559 357.205426,46.8547663 356.231145,45.5305677 Z M364.86245,53.4826206 C362.327262,55.4449046 361.702899,57.9149124 361.277509,59.3283057 C361.490204,58.6147479 364.402755,57.5341195 366.385622,55.7296416 C368.37192,53.9217331 370.961998,50.5186112 373.613825,48.7553001 C372.035765,49.8050534 368.138641,50.9405709 364.86245,53.4826206 Z M382.128491,54.0418029 C376.697905,56.8994647 372.361669,57.3660217 372.00832,63.0436091 C371.733875,67.4759009 368.320461,79.5858003 361.908733,81.898002 C353.963541,84.7556638 351.589589,95.3046555 353.644498,102.495123 C352.148771,97.2635089 356.313479,87.3251581 362.996222,84.920331 C371.373666,81.9048632 374.931163,67.7743602 375.2159,63.242582 C375.445748,59.5444314 376.492071,57.0092428 382.128491,54.0418029 Z M389.967335,59.0950272 C389.885002,59.1533468 380.437222,63.3557907 379.583011,69.8532834 C379.411483,71.1706209 380.077012,73.8052959 379.970665,75.3181757 C379.610455,80.347386 379.202218,86.0455568 375.922597,88.1210495 C372.090654,90.5498905 367.64807,94.7214592 365.798995,102.031996 C367.740696,95.3595446 373.202157,91.7471581 376.783669,89.4795538 C379.655053,87.657923 380.66707,83.9357585 381.157641,79.9631626 C381.589892,80.1312603 382.114769,80.4571641 382.701396,80.8345264 C386.334366,83.1673116 389.665446,82.7384908 392.975942,82.7384908 C397.713554,82.7384908 401.603817,80.2478996 404.214478,78.8173534 C400.097798,81.0746661 391.415034,83.4520486 383.284592,78.2238654 C382.053019,77.4314046 381.723684,76.2478592 381.559017,75.6097738 C381.562448,75.5514542 381.565878,75.4931346 381.569309,75.4348149 C381.679087,73.9425186 381.778573,72.5359863 381.946671,71.2701073 C382.080463,70.2477986 382.42695,69.2049064 382.900369,68.1757364 C383.596774,67.2803586 385.963864,65.3283663 392.279537,68.0350832 C396.65694,69.911603 401.006898,71.4930942 404.488923,71.4930942 C406.646749,71.4896636 407.857739,70.3610072 409.151063,68.8446969 C406.969222,71.4107606 401.826803,70.3781601 392.914192,66.5599397 C388.996485,64.8789621 386.327504,64.8240731 384.526457,65.3317969 C386.866103,61.8634943 389.919307,59.1293329 389.967335,59.0950272 Z M366.879624,563.381426 C375.668735,548.605977 371.270749,524.238664 368.080322,520.245484 C368.080322,520.245484 369.675535,528.633219 369.277589,544.609367 C368.879644,560.588945 365.28098,556.990281 357.692567,575.367825 C350.100723,593.738508 361.685746,598.932386 361.685746,598.932386 C352.900065,591.343973 358.093943,578.163737 366.879624,563.381426 Z M411.806321,601.831214 C411.106485,600.030167 406.399748,589.776204 390.536809,591.971766 C390.536809,591.971766 401.885123,594.616733 405.432329,601.474435 C403.991491,601.217143 402.735903,600.829489 401.761623,600.253154 C401.761623,600.253154 407.374029,606.136575 420.200917,603.19658 C433.027805,600.253154 450.935361,602.928996 450.935361,602.928996 C445.322955,601.059337 444.520202,596.517267 433.830557,598.65451 C427.192411,599.978708 418.698329,601.615089 411.806321,601.831214 Z M475.484494,570.290587 C469.46042,575.909855 465.446657,585.546316 465.446657,585.546316 C469.865227,583.134627 471.872108,573.902973 482.712698,570.688533 C493.549857,567.477522 505.193199,568.681651 508.809016,566.273394 C508.809016,566.273394 506.802135,566.273394 500.77806,565.470641 C494.757416,564.667889 481.508569,564.667889 475.484494,570.290587 Z M170.088613,647.53322 C177.814248,638.7544 186.593068,619.440312 186.593068,619.440312 C177.814248,631.382113 165.875877,646.829954 163.066243,655.608773 C160.25661,664.391023 149.371422,673.869678 144.105503,665.090859 C144.105503,665.090859 146.561789,677.02923 158.50016,667.900492 C170.438531,658.771755 162.362977,656.312039 170.088613,647.53322 Z M405.193904,98.9698726 C404.730778,98.6885662 404.32254,98.3455096 403.928025,97.9921612 C401.142405,94.9526794 401.259045,91.1447507 401.382545,89.9371913 C402.192159,89.8891634 403.001772,89.8342743 403.814817,89.7553713 C407.756537,89.3745784 411.211118,88.0126436 414.013891,85.7793448 C413.880098,86.7124589 413.914404,87.6798786 413.410111,88.5546731 C412.723998,89.7450796 411.362063,90.4517763 410.161364,91.0040975 C406.631312,92.6164637 406.775395,95.7142651 405.193904,98.9698726 Z M377.201855,117.003674 C378.296205,116.67434 381.544952,118.564582 383.037248,119.648641 C381.819397,120.300448 381.34941,121.456549 380.316809,122.063759 C378.752471,122.983151 377.812496,122.063759 376.622089,122.537178 C374.694111,123.312486 373.863914,123.003735 373.140064,122.537178 C372.069727,121.851064 370.947932,121.504577 370.714654,118.341595 C371.702657,117.617745 374.99257,117.490814 376.409394,117.778982 C376.495158,117.552565 376.999451,117.065424 377.201855,117.003674 Z M408.260537,118.527913 C407.138742,118.160842 406.044391,117.848661 404.984346,117.598229 L405.306819,117.563924 C405.2485,117.0562 404.88486,114.496997 403.646425,113.687384 C403.224465,113.409508 402.747617,113.337466 402.267337,113.48498 C401.766475,113.635925 401.354807,113.944676 400.987736,114.215691 C400.517749,114.57247 400.229581,114.792026 399.896816,114.730276 C399.577773,114.668526 398.853924,114.274011 397.612059,112.280851 C397.481697,112.071587 397.365058,111.896628 397.244988,111.707947 C397.347905,111.79028 397.44053,111.858892 397.509142,111.882906 C403.258771,114.016718 408.432065,113.217396 413.090774,109.196772 C414.113083,108.325408 417.238329,105.162426 418.192027,107.807393 C418.795806,109.491801 417.807803,111.779989 417.018773,113.251702 C415.464726,116.157391 411.344616,117.635966 408.260537,118.527913 Z M403.645739,117.311777 C395.357491,115.737147 389.093276,117.901835 384.297344,120.378703 L383.597509,118.800643 C383.60094,118.797212 383.878815,118.461017 385.329945,118.461017 C388.681608,118.461017 393.402068,116.292899 393.402068,111.469523 C393.402068,110.358019 393.498124,109.805698 393.570165,109.551836 C393.916653,109.812559 394.6851,110.625603 396.249438,113.133347 C397.498164,115.126506 398.530764,116.107648 399.604532,116.306621 C400.62341,116.498733 401.388426,115.925828 401.951039,115.503869 C402.235776,115.291173 402.50336,115.095631 402.7435,115.016728 C403.007654,115.105923 403.439905,116.131662 403.645739,117.311777 Z M391.78284,90.727975 C394.270001,90.7211139 396.98701,90.7039611 399.77606,90.5735995 C399.728032,91.2837268 399.721171,92.4604111 399.964741,93.8223459 C398.637112,94.2134305 396.890954,94.4158339 395.302601,94.5290426 C392.383189,94.7588905 388.75365,92.896093 386.122406,94.0281799 C382.763881,95.4655872 379.717538,92.5050084 376.619737,93.4449836 C379.010842,90.6387803 384.472303,90.7485584 391.78284,90.727975 Z M391.904969,110.32337 C391.904969,114.038674 388.014706,116.855169 385.328573,116.855169 C383.85686,116.855169 382.886009,117.150197 382.374855,117.757408 C380.964892,116.855169 378.460579,115.510387 376.752157,116.007819 C376.28903,116.141611 375.908237,116.398903 375.626931,116.769405 C374.491413,116.591015 372.041989,116.344014 370.443345,117.095308 C370.409039,116.515543 370.381595,115.915194 370.347289,115.297692 C370.028247,108.889394 371.242667,103.695516 372.8962,99.6783228 C374.062593,99.5788363 375.513722,99.637156 376.573767,99.8635733 C378.333648,100.234075 380.000903,100.981938 381.572103,101.849871 C385.318281,103.904781 388.313166,108.038613 391.904969,110.32337 Z" id="Combined-Shape" fill="#004483" transform="translate(314.023368, 400.000000) scale(-1, 1) translate(-314.023368, -400.000000) "></path>
    </g>
</svg>