<!-- Generator: Adobe Illustrator 17.0.0, SVG Export Plug-In  -->
<svg version="1.1"
	 xmlns="http://www.w3.org/2000/svg" xmlns:xlink="http://www.w3.org/1999/xlink" xmlns:a="http://ns.adobe.com/AdobeSVGViewerExtensions/3.0/"
	 x="0px" y="0px" width="59.656px" height="66.128px" viewBox="0 0 59.656 66.128" enable-background="new 0 0 59.656 66.128"
	 xml:space="preserve">
<defs>
</defs>
<path opacity="0.2" fill="none" stroke="#004483" stroke-miterlimit="10" d="M0.548,25.797c0.197,0.721,0.943,1.143,1.658,0.948
	l9.374-2.555l6.727,3.844L7.79,31.84c-0.535,0.194-0.891,0.703-0.889,1.271c0.001,0.568,0.36,1.077,0.895,1.269l10.503,3.752
	l-6.698,3.85l-9.38-2.534c-0.117-0.031-0.236-0.047-0.354-0.047c-0.594,0-1.139,0.397-1.303,0.999
	c-0.194,0.719,0.232,1.46,0.952,1.655l6.773,1.829l-6.197,3.562c-0.647,0.371-0.871,1.197-0.498,1.842
	c0.373,0.647,1.195,0.869,1.842,0.498l6.197-3.561l-1.829,6.772c-0.194,0.719,0.232,1.46,0.952,1.655
	c0.713,0.193,1.46-0.229,1.656-0.952l2.534-9.38l6.783-3.898L17.75,51.535c-0.1,0.56,0.162,1.123,0.656,1.406
	c0.493,0.282,1.11,0.227,1.547-0.142l8.525-7.24v7.753l-6.869,6.869c-0.528,0.528-0.528,1.381,0,1.909
	c0.528,0.528,1.381,0.528,1.909,0l4.96-4.96v7.148c0,0.745,0.605,1.35,1.35,1.35c0.745,0,1.35-0.605,1.35-1.35V57.13l4.96,4.96
	c0.528,0.528,1.381,0.528,1.909,0c0.528-0.528,0.528-1.381,0-1.909l-6.869-6.869v-7.802l8.609,7.25
	c0.436,0.366,1.054,0.421,1.547,0.135c0.493-0.285,0.753-0.849,0.651-1.409l-2.021-11.075l6.773,3.871l2.556,9.373
	c0.197,0.719,0.941,1.146,1.658,0.948c0.719-0.196,1.143-0.938,0.948-1.658l-1.845-6.768l6.206,3.547
	c0.647,0.368,1.471,0.144,1.841-0.502c0.37-0.647,0.144-1.471-0.502-1.841l-6.205-3.546l6.768-1.845
	c0.719-0.197,1.143-0.938,0.948-1.658c-0.165-0.601-0.707-0.995-1.301-0.995c-0.117,0-0.236,0.016-0.356,0.049l-9.373,2.555
	l-6.727-3.844l10.513-3.806c0.535-0.194,0.892-0.703,0.891-1.271c-0.001-0.568-0.359-1.077-0.896-1.269l-10.503-3.752l6.698-3.85
	l9.38,2.534c0.723,0.196,1.462-0.231,1.655-0.952c0.194-0.719-0.231-1.46-0.952-1.656l-6.773-1.829l6.199-3.563
	c0.647-0.371,0.869-1.197,0.498-1.842c-0.25-0.435-0.705-0.678-1.172-0.678c-0.228,0-0.459,0.058-0.671,0.18l-6.198,3.562
	l1.829-6.773c0.194-0.719-0.231-1.46-0.952-1.656c-0.117-0.031-0.236-0.046-0.352-0.046c-0.595,0-1.141,0.395-1.303,0.997
	l-2.534,9.378l-6.784,3.898l1.979-11.111c0.1-0.562-0.163-1.124-0.656-1.408c-0.209-0.12-0.441-0.18-0.672-0.18
	c-0.313,0-0.624,0.109-0.873,0.32l-8.525,7.242v-7.75l6.869-6.87c0.528-0.528,0.528-1.381,0-1.909
	c-0.263-0.263-0.609-0.395-0.954-0.395c-0.346,0-0.691,0.132-0.954,0.395l-4.96,4.962V1.85c0-0.746-0.605-1.35-1.35-1.35
	c-0.745,0-1.35,0.603-1.35,1.35v7.148l-4.96-4.96c-0.263-0.263-0.609-0.395-0.954-0.395c-0.346,0-0.691,0.132-0.954,0.395
	c-0.528,0.528-0.528,1.381,0,1.909l6.869,6.87v7.802l-8.609-7.248c-0.437-0.366-1.054-0.418-1.547-0.136
	c-0.491,0.286-0.753,0.85-0.649,1.411l2.019,11.074l-6.774-3.871l-2.555-9.371c-0.163-0.601-0.707-0.995-1.301-0.995
	c-0.119,0-0.238,0.015-0.356,0.047c-0.719,0.197-1.145,0.938-0.948,1.658l1.845,6.768l-6.205-3.546
	c-0.211-0.121-0.441-0.178-0.668-0.178c-0.468,0-0.925,0.244-1.173,0.68c-0.37,0.647-0.144,1.471,0.502,1.841l6.206,3.544
	L1.496,24.14C0.776,24.337,0.351,25.079,0.548,25.797z M12.239,33.101l9.143-3.31l5.731,3.276l-5.739,3.297L12.239,33.101z
	 M21.065,48.316l1.717-9.645l5.696-3.273v6.623L21.065,48.316z M38.654,48.278l-7.476-6.297v-6.592l5.722,3.27L38.654,48.278z
	 M47.416,33.028l-9.142,3.31l-5.732-3.276l5.739-3.297L47.416,33.028z M38.59,17.813l-1.718,9.645l-5.695,3.273V24.11L38.59,17.813z
	 M21,17.851l7.478,6.295v6.592l-5.723-3.27L21,17.851z"/>
</svg>
