<?xml version="1.0" encoding="utf-8"?>
<!-- Generator: Adobe Illustrator 17.0.0, SVG Export Plug-In . SVG Version: 6.00 Build 0)  -->
<!DOCTYPE svg PUBLIC "-//W3C//DTD SVG 1.1//EN" "http://www.w3.org/Graphics/SVG/1.1/DTD/svg11.dtd">
<svg version="1.1" xmlns="http://www.w3.org/2000/svg" xmlns:xlink="http://www.w3.org/1999/xlink" x="0px" y="0px"
	 width="184.664px" height="52.427px" viewBox="0 0 184.664 52.427" enable-background="new 0 0 184.664 52.427"
	 xml:space="preserve">
<g id="bg">
</g>
<g id="footer">
</g>
<g id="A-背景">
</g>
<g id="A-雪花左右">
</g>
<g id="A-選單">
	<g>
		<g>
			<path fill="#231815" d="M113.6,14.891V8.65h1.92v5.915l0.789-0.181V7.82h2.409v1.673h2.146v0.368
				c1.191-0.652,2.404-1.619,3.639-2.906c-0.39-0.735-0.738-1.516-1.043-2.35c-0.843,0.845-1.609,1.557-2.299,2.135l-0.297-0.115
				c0.829-1.609,1.298-3.692,1.422-6.243h3.04l-0.433,1.578h1.954l0.701-0.829l2.887,0.645l-0.67,0.69
				c-0.602,1.821-1.304,3.227-2.143,4.232c1.222,0.587,2.324,0.908,3.3,0.971v0.32c-0.758,0.175-1.14,0.6-1.14,1.278
				c0,0.17,0.079,0.416,0.243,0.744l-0.204,0.198c-1.601-0.489-2.964-1.137-4.072-1.948c-1.437,0.812-3.074,1.427-4.887,1.851v0.669
				h-2.146v3.012c1.001-0.28,1.957-0.585,2.879-0.925l0.037,0.212c-1.355,1.253-2.525,2.115-3.487,2.602
				c-0.961,0.481-2.353,1.032-4.165,1.654l-0.772-2.37L113.6,14.891z M116.309,1.313h1.657l0.778-0.81l2.619,0.629l-0.651,0.7v5.622
				h-2.613V6.626h-1.79v0.845h-2.514V0.693h2.514V1.313z M116.309,5.335h1.793V2.546h-1.793V5.335z M124.459,10.766h2.288
				l0.763-0.83l2.808,0.582l-0.667,0.757v6.289h-2.791v-0.887h-2.401v0.887h-2.624V10.23h2.624V10.766z M125.675,5.428
				c0.418-0.69,0.721-1.445,0.911-2.254h-2.144l-0.209,0.389C124.49,4.086,124.971,4.713,125.675,5.428 M124.459,15.388h2.398
				v-3.374h-2.398V15.388z"/>
			<path fill="#231815" d="M137.402,4.812V3.508h1.748V0.428h2.833v3.079h1.439v1.304h-1.439v12.805h-2.833V4.812H137.402z
				 M150.21,11.941l0.023-0.758h2.695v0.758h1.595v1.213h-1.595v2.734c0,0.826-0.387,1.342-1.171,1.536
				c-0.775,0.199-1.414,0.298-1.895,0.298c-0.215,0-0.376-0.034-0.475-0.096c-0.088-0.061-0.164-0.23-0.215-0.505
				c-0.11-0.517-0.65-0.862-1.646-1.034l0.059-0.312c0.911,0.09,1.49,0.133,1.745,0.133c0.58,0,0.865-0.177,0.865-0.52v-2.234h-7.29
				l-0.04-1.213H150.21z M143.174,3.239V2.085h4.468V0.451h2.398v1.634h4.632v1.154h-4.632v1.036h1.236l0.673-0.846l2.785,0.656
				l-0.809,0.771v6.032h-2.585V9.073h-1.301v1.39h-2.398v-1.39h-1.216v1.945h-2.627V3.926h2.627v0.349h1.216V3.239H143.174z
				 M143.782,13.559l0.037-0.171c0.136,0.02,0.563,0.014,1.267-0.003c0.704-0.024,1.244,0.038,1.626,0.181
				c0.387,0.139,0.639,0.325,0.766,0.547c0.121,0.222,0.187,0.421,0.187,0.598c0,0.308-0.139,0.597-0.404,0.867
				c-0.269,0.267-0.549,0.403-0.834,0.403c-0.399,0-1.015-0.605-1.858-1.824C144.472,14.016,144.203,13.813,143.782,13.559
				 M146.426,6.261h1.216v-0.85h-1.216V6.261z M146.426,8.074h1.216V7.219h-1.216V8.074z M150.04,6.261h1.301v-0.85h-1.301V6.261z
				 M150.04,8.074h1.301V7.219h-1.301V8.074z M150.79,0.676l0.059-0.247c0.212,0,0.534-0.031,0.953-0.099
				c0.424-0.065,0.747-0.098,0.97-0.098c0.885,0,1.326,0.315,1.326,0.94c0,0.221-0.107,0.41-0.32,0.566
				c-0.215,0.164-0.433,0.245-0.647,0.245c-0.141,0-0.518-0.211-1.137-0.626C151.383,0.937,150.976,0.714,150.79,0.676"/>
			<path fill="#231815" d="M161.241,15.119c0.687-0.547,1.318-1.007,1.869-1.384l-0.042-7.054h-1.912V5.584h1.869l0.735-0.69
				l2.582,0.484L165.54,6.07v7.262c0.232,0.416,0.619,0.807,1.14,1.173V9.287h2.347v0.264h1.841V8.575h-1.312v0.363h-2.429V3.314
				h2.429v0.351h4.592l0.721-0.491l2.636,0.622l-0.964,0.554v4.467l1.963,0.621l-0.747,0.574v3.618c0,0.496-0.079,0.83-0.246,0.997
				c-0.158,0.173-0.483,0.301-0.959,0.393c-0.475,0.089-0.854,0.136-1.151,0.136c-0.257,0-0.393-0.119-0.421-0.342
				c-0.031-0.235-0.164-0.409-0.407-0.529c-0.252-0.124-0.809-0.25-1.705-0.382l0.116-0.243c1.024,0.038,1.634,0.058,1.849,0.058
				c0.297,0,0.498-0.038,0.617-0.107c0.11-0.075,0.173-0.247,0.173-0.513v-2.428l-1.813-0.021c1.038,0.561,1.555,1.111,1.555,1.657
				c0,0.201-0.085,0.362-0.257,0.488c-0.161,0.126-0.359,0.191-0.588,0.191c-0.418,0-0.684-0.279-0.772-0.832
				c-1.275,0.543-2.494,0.945-3.645,1.213l-0.809-1.5c0.676-0.024,1.202-0.051,1.575-0.078v-1.118h-1.841v3.989h-2.087
				c1.253,0.537,3.19,0.803,5.811,0.803c1.397,0,3.357-0.02,5.89-0.074l0.04,0.209c-0.812,0.269-1.216,0.616-1.216,1.046
				c0,0.054,0.017,0.226,0.059,0.515l-0.139,0.215l-5.161-0.105c-1.81-0.042-3.094-0.168-3.86-0.368
				c-0.758-0.208-1.343-0.469-1.742-0.792c-0.401-0.324-0.928-0.857-1.541-1.604c-0.249-0.294-0.436-0.444-0.563-0.444
				c-0.204,0-0.498,0.409-0.885,1.222l-0.843,1.841L161.241,15.119z M161.926,0.157L162.109,0c1.513,0.4,2.353,0.629,2.514,0.691
				c0.153,0.065,0.385,0.257,0.687,0.584c0.294,0.324,0.444,0.649,0.444,0.978c0,0.395-0.136,0.725-0.416,0.993
				c-0.294,0.267-0.636,0.4-1.032,0.4c-0.436,0-1.007-0.823-1.691-2.474C162.471,0.853,162.245,0.513,161.926,0.157 M169.026,1.445
				V0.288H171v1.157h1.982V0.288h1.963v1.157h2.924v1.138h-2.924v0.574h-1.963V2.583H171v0.574h-1.974V2.583h-2.214V1.445H169.026z
				 M169.555,5.584h1.312V4.697h-1.312V5.584z M170.867,6.681h-1.309v0.905h1.309V6.681z M172.79,5.584h1.431V4.697h-1.431V5.584z
				 M172.79,7.586h1.431V6.681h-1.431V7.586z M172.79,9.551h2.768l0.532-0.557l-1.869-0.014V8.575h-1.431V9.551z M172.79,11.679
				c0.294-0.021,0.605-0.064,0.916-0.126c-0.028-0.269-0.124-0.54-0.274-0.809l0.125-0.096h-0.766V11.679z"/>
			<path fill="#231815" d="M184.232,22.747h-77.016h-0.427h-0.031h-0.424H0.424H0v0.43v28.826v0.424h0.424h105.909h0.424h0.031
				h0.427h77.016h0.433v-0.424V23.177v-0.43H184.232z M183.813,51.574h-76.601V23.608h76.601V51.574z M0.848,23.605h105.487v27.967
				H0.848V23.605z"/>
			<path fill="#231815" d="M16.546,34.511l-0.116,7.433c0,0.263-0.116,0.393-0.263,0.393c-0.181,0-0.336-0.14-0.481-0.281
				c-0.795-0.762-2.325-2.327-3.639-3.637c-1.388-1.374-2.774-2.935-3.009-3.174H8.959L9.12,40.38
				c0.031,0.993,0.201,1.339,0.537,1.389c0.252,0.041,0.382,0.059,0.588,0.092c0.139,0.015,0.201,0.078,0.209,0.155
				c0,0.099-0.113,0.17-0.291,0.17c-0.831,0-1.338-0.037-1.578-0.037c-0.125,0-0.713,0.037-1.372,0.037
				c-0.164,0-0.271-0.047-0.271-0.161c0-0.081,0.071-0.136,0.195-0.156c0.178-0.03,0.277-0.035,0.464-0.066
				c0.345-0.05,0.495-0.455,0.506-1.564l0.068-7.464c0-0.315,0.065-0.436,0.204-0.436c0.13,0,0.274,0.156,0.484,0.387
				c0.144,0.165,2.11,2.217,3.967,4.064c0.865,0.864,2.531,2.648,2.749,2.851h0.085l-0.136-5.275
				c-0.023-0.988-0.201-1.339-0.534-1.388c-0.255-0.041-0.382-0.062-0.588-0.088c-0.141-0.024-0.198-0.081-0.218-0.161
				c0-0.103,0.127-0.171,0.3-0.171c0.829,0,1.338,0.04,1.578,0.04c0.11,0,0.71-0.04,1.372-0.04c0.158,0,0.28,0.054,0.28,0.17
				c0,0.074-0.076,0.133-0.204,0.148c-0.181,0.027-0.277,0.04-0.464,0.065C16.704,32.991,16.554,33.4,16.546,34.511"/>
			<path fill="#231815" d="M20.683,41.801c-0.141,0.02-0.243,0.032-0.447,0.061c-0.141,0.021-0.201,0.082-0.206,0.163
				c0,0.102,0.107,0.17,0.288,0.17c0.831,0,1.377-0.042,1.62-0.042c0.744,0,1.83,0.082,3.761,0.082c0.475,0,0.597,0,0.679-0.334
				c0.065-0.257,0.167-1.185,0.167-1.473c0-0.125-0.045-0.23-0.153-0.23c-0.085,0.001-0.167,0.062-0.181,0.201
				c-0.09,0.523-0.269,0.838-0.594,0.991c-0.336,0.151-0.84,0.161-1.171,0.161c-1.315,0-1.471-0.184-1.493-1.065
				c-0.014-0.373,0-1.538,0-1.974v-1.009c0-0.068,0.011-0.126,0.079-0.126c0.308,0,1.496,0.013,1.734,0.04
				c0.478,0.052,0.659,0.239,0.721,0.495c0.042,0.167,0.062,0.396,0.071,0.519c0,0.066,0.065,0.15,0.164,0.15
				c0.11,0,0.139-0.172,0.139-0.273c0-0.093,0.025-0.659,0.051-0.918c0.031-0.65,0.102-0.871,0.102-0.943
				c0-0.079-0.071-0.119-0.122-0.119c-0.059,0-0.147,0.098-0.235,0.191c-0.119,0.127-0.308,0.167-0.622,0.195
				c-0.288,0.025-1.711,0.025-1.988,0.025c-0.082,0-0.093-0.054-0.093-0.143V33.38c0-0.093,0.023-0.131,0.093-0.131
				c0.257,0,1.521,0.025,1.731,0.052c0.647,0.079,0.78,0.24,0.865,0.478c0.051,0.158,0.082,0.37,0.088,0.532
				c0.008,0.115,0.059,0.185,0.156,0.185c0.11,0,0.15-0.086,0.153-0.15c0.025-0.153,0.056-0.805,0.065-0.93
				c0.045-0.591,0.133-0.717,0.133-0.805c0-0.095-0.062-0.143-0.133-0.143c-0.079,0-0.139,0.028-0.192,0.041
				c-0.102,0.028-0.288,0.075-0.523,0.085c-0.243,0.013-3.224,0.013-3.628,0.013c-0.238,0-0.749-0.045-1.575-0.045
				c-0.181,0-0.297,0.072-0.297,0.171c0.009,0.081,0.079,0.139,0.215,0.16c0.204,0.028,0.325,0.047,0.591,0.088
				c0.328,0.05,0.517,0.404,0.526,1.396v1.886v2.245c0,1.167,0,2.124-0.056,2.66C21.107,41.609,20.96,41.752,20.683,41.801"/>
			<path fill="#231815" d="M51.297,41.801c-0.133,0.02-0.238,0.032-0.452,0.061c-0.133,0.021-0.198,0.082-0.206,0.163
				c0,0.102,0.122,0.17,0.297,0.17c0.82,0,1.377-0.042,1.615-0.042c0.744,0,1.832,0.082,3.767,0.082c0.481,0,0.591,0,0.682-0.334
				c0.059-0.257,0.158-1.185,0.158-1.473c0-0.125-0.048-0.23-0.141-0.23c-0.096,0.001-0.164,0.062-0.192,0.201
				c-0.085,0.523-0.257,0.838-0.585,0.991c-0.336,0.151-0.843,0.161-1.182,0.161c-1.304,0-1.456-0.184-1.485-1.065
				c-0.014-0.373,0-1.538,0-1.974v-1.009c0-0.068,0.014-0.126,0.074-0.126c0.314,0,1.499,0.013,1.742,0.04
				c0.478,0.052,0.648,0.239,0.718,0.495c0.04,0.167,0.054,0.396,0.065,0.519c0,0.066,0.071,0.15,0.167,0.15
				c0.108,0,0.133-0.172,0.133-0.273c0-0.093,0.028-0.659,0.057-0.918c0.04-0.65,0.105-0.871,0.105-0.943
				c0-0.079-0.065-0.119-0.116-0.119c-0.071,0-0.155,0.098-0.249,0.191c-0.11,0.127-0.303,0.167-0.614,0.195
				c-0.291,0.025-1.719,0.025-1.994,0.025c-0.073,0-0.088-0.054-0.088-0.143V33.38c0-0.093,0.028-0.131,0.088-0.131
				c0.255,0,1.524,0.025,1.736,0.052c0.639,0.079,0.783,0.24,0.857,0.478c0.054,0.158,0.085,0.37,0.096,0.532
				c0.011,0.115,0.062,0.185,0.15,0.185c0.113,0,0.155-0.086,0.164-0.15c0.025-0.153,0.051-0.805,0.054-0.93
				c0.048-0.591,0.136-0.717,0.136-0.805c0-0.095-0.059-0.143-0.136-0.143c-0.079,0-0.13,0.028-0.19,0.041
				c-0.096,0.028-0.288,0.075-0.523,0.085c-0.243,0.013-3.224,0.013-3.625,0.013c-0.243,0-0.758-0.045-1.578-0.045
				c-0.178,0-0.294,0.072-0.294,0.171c0.009,0.081,0.065,0.139,0.206,0.16c0.209,0.028,0.336,0.047,0.594,0.088
				c0.328,0.05,0.515,0.404,0.523,1.396c0.011,0.373,0.011,0.937,0.011,1.886v2.245c0,1.167,0,2.124-0.059,2.66
				C51.719,41.609,51.574,41.752,51.297,41.801"/>
			<path fill="#231815" d="M83.365,41.796c-0.144,0.025-0.238,0.038-0.452,0.068c-0.139,0.02-0.201,0.081-0.204,0.154
				c0,0.103,0.113,0.177,0.288,0.177c0.831,0,1.386-0.042,1.618-0.042c0.752,0,1.832,0.082,3.767,0.082c0.483,0,0.594,0,0.682-0.336
				c0.062-0.255,0.158-1.182,0.158-1.469c0-0.126-0.045-0.232-0.147-0.232c-0.088,0.001-0.164,0.056-0.181,0.201
				c-0.093,0.519-0.266,0.834-0.594,0.988c-0.336,0.148-0.843,0.164-1.168,0.164c-1.318,0-1.465-0.191-1.493-1.069
				c-0.008-0.369,0-1.543,0-1.974v-1.004c0-0.075,0.014-0.127,0.071-0.127c0.317,0,1.502,0.013,1.739,0.04
				c0.481,0.05,0.659,0.239,0.721,0.495c0.037,0.165,0.054,0.39,0.062,0.517c0,0.065,0.079,0.147,0.161,0.147
				c0.124,0,0.147-0.171,0.147-0.274c0-0.088,0.025-0.653,0.048-0.912c0.04-0.655,0.11-0.871,0.11-0.943
				c0-0.079-0.071-0.116-0.122-0.116c-0.059,0-0.147,0.086-0.243,0.188c-0.113,0.127-0.308,0.167-0.611,0.191
				c-0.291,0.025-1.714,0.025-1.991,0.025c-0.079,0-0.093-0.05-0.093-0.14v-3.219c0-0.089,0.028-0.129,0.093-0.129
				c0.255,0,1.513,0.028,1.725,0.051c0.645,0.078,0.775,0.245,0.865,0.476c0.048,0.163,0.079,0.376,0.093,0.537
				c0.014,0.11,0.059,0.188,0.15,0.188c0.11,0,0.147-0.092,0.161-0.155c0.034-0.15,0.051-0.804,0.062-0.929
				c0.037-0.59,0.122-0.715,0.122-0.803c0-0.095-0.054-0.141-0.124-0.141c-0.085,0-0.139,0.027-0.198,0.04
				c-0.099,0.023-0.286,0.078-0.523,0.082c-0.238,0.011-3.224,0.011-3.62,0.011c-0.246,0-0.752-0.042-1.586-0.042
				c-0.167,0-0.288,0.074-0.288,0.172c0.008,0.081,0.074,0.139,0.206,0.16c0.218,0.025,0.336,0.047,0.597,0.083
				c0.334,0.056,0.517,0.404,0.523,1.4c0.006,0.369,0.006,0.932,0.006,1.883v2.248c0,1.167,0,2.122-0.062,2.654
				C83.784,41.609,83.642,41.752,83.365,41.796"/>
			<path fill="#231815" d="M37.489,34.337c0.025-1.052,0.181-1.36,0.588-1.418c0.113-0.015,0.198-0.027,0.328-0.044
				c0.15-0.015,0.204-0.076,0.204-0.155c0-0.113-0.107-0.164-0.283-0.164c-0.653,0-1.253,0.038-1.369,0.038
				c-0.238,0-0.744-0.038-1.569-0.038c-0.175,0-0.297,0.071-0.297,0.171c0.009,0.079,0.071,0.137,0.204,0.163
				c0.167,0.021,0.291,0.037,0.458,0.062c0.472,0.074,0.594,0.513,0.614,1.424c0,0.373,0.006,3.679,0.006,3.679
				c0,2.315-0.761,3.576-2.435,3.576c-1.914,0-2.5-1.362-2.5-3.589v-1.784c0-1.937,0-2.25,0.028-2.648
				c0.02-0.448,0.155-0.639,0.461-0.69c0.155-0.023,0.243-0.03,0.379-0.052c0.133-0.02,0.198-0.076,0.198-0.168
				c0-0.089-0.107-0.146-0.288-0.146c-0.467,0-1.267,0.047-1.575,0.047c-0.379,0-1.258-0.047-1.94-0.047
				c-0.187,0-0.257,0.065-0.257,0.158c0,0.088,0.062,0.148,0.192,0.164c0.178,0.028,0.317,0.051,0.444,0.064
				c0.427,0.057,0.614,0.294,0.633,0.759c0.042,0.406,0.028,0.622,0.028,2.559v1.862c0,1.844,0.486,2.788,1.143,3.374
				c0.865,0.787,2.013,0.868,2.749,0.868c0.829,0,1.818-0.204,2.636-0.908c1.075-0.909,1.216-2.416,1.216-3.835v-1.362
				C37.483,35.399,37.489,34.705,37.489,34.337"/>
			<path fill="#231815" d="M43.67,33.362c0-0.141,0.025-0.194,0.116-0.219c0.122-0.024,0.24-0.024,0.416-0.024
				c1.094,0,1.598,1.049,1.598,1.9c0,0.622-0.192,1.084-0.523,1.353c-0.223,0.189-0.503,0.242-0.922,0.242
				c-0.291,0-0.489-0.01-0.6-0.041c-0.054-0.011-0.085-0.038-0.085-0.136V33.362z M46.592,39.969c0,1.328-0.97,1.633-1.55,1.633
				c-0.291,0-0.585-0.01-0.928-0.151c-0.413-0.17-0.444-0.386-0.444-1.229v-2.951c0-0.066,0.025-0.088,0.071-0.088
				c0.19,0,0.322,0,0.551,0.011c0.498,0.02,0.789,0.116,1.058,0.304C46.332,38.175,46.592,39.176,46.592,39.969 M41.994,40.428
				c0,1.022-0.124,1.336-0.464,1.383c-0.15,0.011-0.257,0.028-0.464,0.058c-0.141,0.015-0.198,0.073-0.209,0.156
				c0,0.102,0.113,0.17,0.303,0.17c0.82,0,1.42-0.041,1.654-0.041c0.376,0,1.773,0.066,2.084,0.066c2.344,0,3.402-1.417,3.402-2.781
				c0-1.494-1.27-2.395-2.316-2.749c0.684-0.554,1.289-1.179,1.289-2.218c0-0.679-0.41-1.916-2.703-1.916
				c-0.444,0-1.241,0.037-1.855,0.037c-0.249,0-0.913-0.037-1.745-0.037c-0.17,0-0.291,0.071-0.291,0.171
				c0.006,0.078,0.068,0.139,0.204,0.16c0.218,0.028,0.345,0.049,0.6,0.085c0.331,0.052,0.523,0.399,0.523,1.391v1.89v2.227
				L41.994,40.428z"/>
			<path fill="#231815" d="M62.645,33.393c0-0.1,0.031-0.158,0.113-0.178c0.127-0.037,0.362-0.052,0.676-0.052
				c0.747,0,1.945,0.522,1.945,2.33c0,1.043-0.37,1.629-0.752,1.912c-0.232,0.163-0.393,0.215-0.902,0.215
				c-0.314,0-0.699-0.04-0.967-0.129c-0.082-0.038-0.113-0.086-0.113-0.235V33.393z M61.017,38.493c0,1.936,0,2.244-0.028,2.654
				c-0.023,0.446-0.158,0.635-0.466,0.677c-0.153,0.031-0.24,0.038-0.382,0.054c-0.133,0.023-0.184,0.082-0.184,0.173
				c0,0.088,0.096,0.147,0.283,0.147c0.469,0,1.255-0.042,1.552-0.042c0.385,0,1.222,0.042,1.898,0.042
				c0.195,0,0.266-0.066,0.266-0.16c0-0.089-0.065-0.149-0.209-0.168c-0.17-0.024-0.3-0.048-0.43-0.065
				c-0.424-0.056-0.611-0.288-0.639-0.752c-0.031-0.41-0.031-2.759-0.031-2.759c0-0.072,0.034-0.1,0.102-0.1l1.108,0.028
				c0.085,0,0.17,0.013,0.229,0.085c0.161,0.191,0.749,1.065,1.267,1.767c0.701,0.986,1.185,1.584,1.739,1.878
				c0.334,0.18,0.735,0.242,1.442,0.242h1.332c0.153,0,0.24-0.023,0.24-0.126c0-0.061-0.054-0.105-0.153-0.105
				c-0.099,0-0.223-0.011-0.359-0.04c-0.187-0.034-0.715-0.127-1.428-0.864c-0.741-0.79-1.629-1.923-2.76-3.344
				c1.287-1.045,1.685-1.914,1.685-2.855c0-0.855-0.512-1.503-0.874-1.74c-0.682-0.476-1.538-0.559-2.333-0.559
				c-0.399,0-1.719,0.045-2.152,0.045c-0.238,0-0.927-0.041-1.759-0.041c-0.178,0-0.291,0.074-0.291,0.174
				c0.006,0.076,0.074,0.136,0.212,0.157c0.209,0.03,0.325,0.047,0.588,0.086c0.334,0.052,0.52,0.414,0.535,1.41v1.869V38.493z"/>
			<path fill="#231815" d="M123.916,41.794c-0.144,0.018-0.237,0.03-0.455,0.064c-0.136,0.017-0.201,0.079-0.201,0.154
				c0,0.106,0.107,0.174,0.288,0.174c0.831,0,1.383-0.04,1.618-0.04c0.747,0,1.827,0.079,3.767,0.079c0.486,0,0.591,0,0.682-0.337
				c0.062-0.252,0.156-1.179,0.156-1.469c0-0.127-0.045-0.23-0.147-0.23c-0.082,0.007-0.161,0.061-0.184,0.196
				c-0.088,0.522-0.266,0.837-0.594,0.993c-0.339,0.151-0.837,0.164-1.171,0.164c-1.312,0-1.465-0.185-1.487-1.069
				c-0.014-0.369,0-1.538,0-1.971v-1.004c0-0.074,0.014-0.13,0.074-0.13c0.314,0,1.493,0.011,1.748,0.038
				c0.467,0.052,0.645,0.243,0.707,0.496c0.042,0.17,0.062,0.395,0.074,0.523c0,0.062,0.071,0.139,0.156,0.139
				c0.119,0,0.141-0.167,0.141-0.267c0-0.088,0.028-0.66,0.057-0.918c0.031-0.65,0.096-0.865,0.096-0.943s-0.065-0.117-0.116-0.117
				c-0.059,0-0.147,0.092-0.237,0.191c-0.119,0.13-0.308,0.167-0.616,0.191c-0.303,0.028-1.711,0.028-1.985,0.028
				c-0.082,0-0.096-0.052-0.096-0.139v-3.224c0-0.089,0.023-0.131,0.096-0.131c0.252,0,1.513,0.027,1.725,0.058
				c0.645,0.074,0.781,0.24,0.863,0.474c0.057,0.165,0.079,0.375,0.088,0.532c0.014,0.117,0.062,0.192,0.156,0.192
				c0.113,0,0.15-0.088,0.155-0.154c0.025-0.15,0.057-0.803,0.071-0.93c0.037-0.591,0.122-0.711,0.122-0.804
				c0-0.095-0.057-0.141-0.133-0.141c-0.079,0-0.127,0.027-0.187,0.042c-0.107,0.028-0.288,0.074-0.529,0.082
				c-0.24,0.011-3.221,0.011-3.625,0.011c-0.235,0-0.744-0.041-1.572-0.041c-0.184,0-0.294,0.069-0.294,0.168
				c0.006,0.082,0.062,0.14,0.204,0.157c0.215,0.034,0.336,0.052,0.597,0.09c0.331,0.052,0.515,0.409,0.523,1.4
				c0,0.368,0.008,0.929,0.008,1.883V38.5c0,1.169,0,2.121-0.062,2.655C124.341,41.605,124.191,41.749,123.916,41.794"/>
			<path fill="#231815" d="M115.883,33.363c0-0.143,0.028-0.195,0.113-0.218c0.127-0.023,0.243-0.023,0.43-0.023
				c1.086,0,1.584,1.045,1.584,1.9c0,0.628-0.192,1.083-0.523,1.355c-0.215,0.19-0.498,0.242-0.911,0.242
				c-0.294,0-0.486-0.016-0.605-0.041c-0.051-0.011-0.088-0.035-0.088-0.139V33.363z M118.809,39.973
				c0,1.329-0.973,1.632-1.544,1.632c-0.297,0-0.588-0.013-0.936-0.154c-0.41-0.164-0.447-0.38-0.447-1.226v-2.954
				c0-0.061,0.028-0.086,0.076-0.086c0.19,0,0.322,0,0.554,0.011c0.498,0.025,0.786,0.116,1.058,0.307
				C118.538,38.179,118.809,39.176,118.809,39.973 M114.211,40.428c0,1.022-0.127,1.339-0.467,1.383
				c-0.15,0.018-0.257,0.034-0.461,0.058c-0.136,0.018-0.201,0.082-0.209,0.158c0,0.102,0.108,0.17,0.289,0.17
				c0.84,0,1.434-0.044,1.666-0.044c0.387,0,1.773,0.075,2.084,0.075c2.35,0,3.402-1.425,3.402-2.784c0-1.489-1.27-2.4-2.316-2.749
				c0.69-0.557,1.289-1.181,1.289-2.223c0-0.677-0.407-1.916-2.715-1.916c-0.43,0-1.222,0.042-1.852,0.042
				c-0.24,0-0.905-0.04-1.728-0.04c-0.178,0-0.294,0.074-0.294,0.174c0.009,0.075,0.071,0.131,0.206,0.153
				c0.212,0.032,0.334,0.049,0.588,0.09c0.339,0.049,0.532,0.4,0.532,1.388v1.888v2.228L114.211,40.428z"/>
			<path fill="#231815" d="M79.646,38.472c0.028-0.444,0.161-0.639,0.466-0.683c0.158-0.023,0.263-0.04,0.402-0.058
				c0.133-0.023,0.192-0.076,0.192-0.168c0-0.093-0.105-0.15-0.297-0.15c-0.458,0-1.264,0.05-1.567,0.05
				c-0.385,0-1.264-0.05-1.94-0.05c-0.192,0-0.26,0.071-0.26,0.158c0,0.089,0.065,0.15,0.198,0.168
				c0.181,0.027,0.317,0.05,0.444,0.066c0.419,0.055,0.611,0.288,0.636,0.755c0.031,0.406,0.028,0.568,0.028,2.504
				c0,0.218-0.054,0.372-0.246,0.464c-0.311,0.137-0.789,0.137-1.128,0.137c-2.692,0-4.284-1.992-4.284-4.727
				c0-1.451,0.472-2.431,1.176-3.05c0.82-0.718,1.88-0.814,2.585-0.814c1.346,0,2.211,0.523,2.582,0.945
				c0.297,0.336,0.402,0.792,0.484,1.097c0.028,0.1,0.059,0.216,0.204,0.216c0.13,0,0.198-0.11,0.198-0.315
				c0-1.588,0.09-1.981,0.09-2.121c0-0.089-0.028-0.141-0.175-0.151c-0.289-0.018-0.732-0.075-1.004-0.115
				c-0.328-0.055-1.306-0.24-2.39-0.24c-1.032,0-2.251,0.117-3.43,0.83c-1.058,0.645-2.217,2.066-2.217,4.161
				c0,3.515,2.901,4.987,6.032,4.987c0.995,0,2.203-0.182,3.06-0.566c0.161-0.078,0.161-0.117,0.161-0.462V38.472z"/>
			<path fill="#231815" d="M94.676,33.395c0-0.103,0.023-0.15,0.11-0.18c0.13-0.037,0.353-0.05,0.676-0.05
				c0.747,0,1.943,0.523,1.943,2.329c0,1.046-0.368,1.627-0.747,1.909c-0.235,0.167-0.402,0.216-0.908,0.216
				c-0.32,0-0.701-0.038-0.964-0.13c-0.088-0.035-0.11-0.086-0.11-0.226V33.395z M93.042,38.496c0,1.937,0,2.241-0.025,2.651
				c-0.025,0.45-0.156,0.638-0.469,0.687c-0.15,0.024-0.24,0.03-0.379,0.05c-0.127,0.023-0.192,0.079-0.192,0.167
				c0,0.092,0.105,0.148,0.294,0.148c0.461,0,1.244-0.044,1.55-0.044c0.385,0,1.216,0.044,1.895,0.044c0.19,0,0.26-0.069,0.26-0.153
				c0-0.095-0.054-0.148-0.198-0.17c-0.17-0.027-0.314-0.052-0.436-0.066c-0.421-0.056-0.617-0.294-0.642-0.756
				c-0.028-0.406-0.023-2.752-0.023-2.752c0-0.081,0.028-0.102,0.096-0.102l1.111,0.021c0.085,0,0.158,0.016,0.223,0.09
				c0.17,0.191,0.758,1.065,1.27,1.767c0.704,0.986,1.185,1.558,1.734,1.849c0.328,0.182,0.741,0.269,1.451,0.269h1.275
				c0.15,0,0.243-0.058,0.243-0.167c0-0.068-0.059-0.124-0.164-0.136c-0.113-0.017-0.291-0.037-0.444-0.055
				c-0.26-0.03-0.633-0.098-1.281-0.775c-0.752-0.79-1.629-1.922-2.763-3.35c1.289-1.046,1.683-1.912,1.683-2.856
				c0-0.85-0.506-1.496-0.865-1.738c-0.684-0.475-1.538-0.551-2.341-0.551c-0.396,0-1.714,0.041-2.152,0.041
				c-0.235,0-0.919-0.041-1.753-0.041c-0.175,0-0.294,0.074-0.294,0.175c0.011,0.076,0.071,0.137,0.212,0.157
				c0.215,0.025,0.328,0.047,0.588,0.083c0.328,0.055,0.523,0.416,0.529,1.407c0.009,0.368,0.009,0.94,0.009,1.872V38.496z"/>
			<path fill="#231815" d="M159.434,38.302c-0.059,0-0.074-0.041-0.059-0.089l1.247-3.293c0.014-0.057,0.054-0.116,0.09-0.116
				c0.042,0,0.082,0.047,0.096,0.116l1.193,3.304c0.014,0.037,0,0.078-0.062,0.078H159.434z M162.186,39.017
				c0.062,0,0.102,0.025,0.127,0.089l0.922,2.436c0.062,0.153,0.011,0.255-0.125,0.287c-0.107,0.033-0.141,0.099-0.141,0.165
				c0,0.123,0.127,0.164,0.359,0.167c0.407,0.009,0.809,0,1.191,0.004c0.597,0.007,1.108,0.02,1.386,0.02
				c0.274,0,0.376-0.109,0.376-0.216c0-0.074-0.051-0.146-0.181-0.158c-0.099-0.011-0.147-0.014-0.305-0.034
				c-0.263-0.033-0.642-0.119-1.12-1.283c-0.829-1.96-2.907-7.201-3.19-7.918c-0.124-0.296-0.266-0.41-0.416-0.41
				c-0.144,0-0.249,0.14-0.393,0.51l-3.227,8.038c-0.26,0.65-0.535,1.032-1.08,1.096c-0.096,0.013-0.13,0.018-0.283,0.044
				c-0.102,0.009-0.158,0.083-0.158,0.157c0,0.106,0.082,0.174,0.252,0.174c0.67,0,1.244-0.038,1.38-0.038
				c0.407,0,0.976,0.034,1.388,0.038c0.156,0.006,0.24-0.059,0.24-0.167c0-0.076-0.062-0.155-0.192-0.17l-0.237-0.038
				c-0.362-0.064-0.472-0.236-0.472-0.465c0-0.154,0.051-0.386,0.153-0.631l0.622-1.592c0.023-0.081,0.048-0.106,0.116-0.106
				H162.186z"/>
			<path fill="#231815" d="M176.701,34.511l-0.11,7.433c0,0.263-0.122,0.393-0.266,0.393c-0.178,0-0.331-0.14-0.469-0.281
				c-0.814-0.762-2.33-2.327-3.648-3.637c-1.397-1.374-2.78-2.935-3.003-3.174h-0.079l0.158,5.135
				c0.02,0.993,0.198,1.339,0.532,1.389c0.255,0.041,0.379,0.059,0.597,0.092c0.133,0.015,0.198,0.078,0.198,0.155
				c0,0.099-0.119,0.17-0.286,0.17c-0.829,0-1.34-0.037-1.575-0.037c-0.116,0-0.563,0.037-1.23,0.037
				c-0.198,0-0.286-0.059-0.286-0.174c0-0.1,0.068-0.151,0.187-0.167c0.099-0.011,0.181-0.024,0.308-0.035
				c0.368-0.047,0.523-0.462,0.532-1.571l0.076-7.464c0-0.315,0.059-0.436,0.209-0.436c0.125,0,0.263,0.156,0.481,0.387
				c0.156,0.165,2.098,2.217,3.965,4.064c0.862,0.864,2.528,2.648,2.754,2.851h0.074l-0.133-5.275
				c-0.023-0.988-0.198-1.339-0.532-1.388c-0.263-0.041-0.379-0.062-0.594-0.088c-0.141-0.024-0.204-0.081-0.206-0.161
				c0-0.103,0.116-0.171,0.288-0.171c0.837,0,1.343,0.04,1.586,0.04c0.107,0,0.707-0.04,1.369-0.04c0.17,0,0.277,0.054,0.277,0.17
				c0,0.074-0.076,0.133-0.204,0.148c-0.17,0.027-0.274,0.04-0.461,0.065C176.862,32.991,176.721,33.4,176.701,34.511"/>
			<path fill="#231815" d="M135.027,33.397c0-0.103,0.025-0.151,0.11-0.182c0.136-0.035,0.365-0.047,0.679-0.047
				c0.747,0,1.948,0.523,1.948,2.327c0,1.045-0.368,1.627-0.749,1.909c-0.229,0.167-0.399,0.215-0.905,0.215
				c-0.32,0-0.693-0.037-0.973-0.129c-0.085-0.037-0.11-0.086-0.11-0.225V33.397z M141.839,41.84
				c-0.266-0.028-0.642-0.099-1.287-0.775c-0.747-0.79-1.634-1.922-2.763-3.35c1.287-1.046,1.683-1.912,1.683-2.855
				c0-0.85-0.509-1.497-0.868-1.74c-0.69-0.474-1.544-0.55-2.341-0.55c-0.396,0-1.719,0.04-2.155,0.04
				c-0.229,0-0.919-0.04-1.753-0.04c-0.17,0-0.286,0.072-0.286,0.174c0.006,0.078,0.065,0.137,0.204,0.16
				c0.212,0.023,0.339,0.047,0.594,0.082c0.325,0.052,0.512,0.416,0.529,1.405v1.872l0.006,2.233c0,1.937,0,2.24-0.028,2.651
				c-0.028,0.447-0.156,0.638-0.464,0.687c-0.156,0.024-0.243,0.03-0.382,0.052c-0.13,0.021-0.195,0.076-0.195,0.164
				c0,0.092,0.107,0.151,0.294,0.151c0.464,0,1.253-0.048,1.555-0.048c0.382,0,1.216,0.048,1.889,0.048
				c0.192,0,0.263-0.072,0.263-0.157c0-0.093-0.059-0.149-0.198-0.17c-0.173-0.025-0.314-0.052-0.441-0.064
				c-0.421-0.058-0.608-0.296-0.642-0.755c-0.025-0.409-0.025-2.754-0.025-2.754c0-0.081,0.037-0.105,0.102-0.105l1.117,0.024
				c0.082,0,0.161,0.016,0.221,0.09c0.172,0.191,0.749,1.063,1.261,1.767c0.713,0.986,1.191,1.558,1.745,1.849
				c0.334,0.182,0.741,0.269,1.448,0.269h1.199c0.404,0,1.338-0.044,1.584-0.044c0.444,0,0.93,0.044,1.473,0.044
				c0.178,0,0.291-0.058,0.291-0.178c0-0.062-0.034-0.123-0.246-0.157c-0.133-0.023-0.322-0.051-0.484-0.075
				c-0.362-0.062-0.43-0.246-0.43-0.457c0-0.206,0.009-0.315,0.025-0.543l0.605-4.964h0.093c0.441,0.953,1.165,2.559,1.275,2.825
				c0.153,0.355,1.213,2.398,1.516,2.986c0.212,0.401,0.274,0.551,0.402,0.551c0.133,0,0.133-0.033,0.404-0.59l2.842-5.91h0.085
				l0.724,5.545c0.048,0.355,0.011,0.494-0.079,0.533c-0.093,0.037-0.17,0.075-0.17,0.164c0,0.117,0.124,0.16,0.421,0.182
				c0.503,0.042,2.146,0.083,2.469,0.083c0.175,0,0.274-0.074,0.274-0.175c0-0.062-0.031-0.15-0.164-0.18
				c-0.158-0.028-0.274-0.058-0.464-0.099c-0.382-0.083-0.582-0.427-0.696-1.229l-1.157-7.842c-0.034-0.336-0.232-0.383-0.345-0.383
				c-0.11,0-0.235,0.1-0.32,0.303l-3.354,7.191l-3.343-7.07c-0.158-0.331-0.266-0.428-0.467-0.428c-0.133,0-0.218,0.112-0.255,0.329
				l-1.315,8.255c-0.056,0.436-0.113,0.865-0.546,0.944C142.532,41.858,142.182,41.878,141.839,41.84"/>
		</g>
	</g>
</g>
<g id="A-主雪花_x28_一起轉_x29_">
</g>
<g id="A-指標">
</g>
<g id="A-小標">
</g>
<g id="A-主文">
</g>
<g id="A-上文">
</g>
<g id="B-index">
</g>
<g id="圖層_16" display="none">
</g>
<g id="圖層_3">
</g>
<g id="A-04" display="none">
</g>
<g id="A-03" display="none">
</g>
<g id="A-02" display="none">
</g>
<g id="A-01">
</g>
<g id="A-選單_1_">
</g>
<g id="B-04" display="none">
</g>
<g id="B-index_1_">
</g>
<g id="B-03" display="none">
</g>
<g id="B-02" display="none">
</g>
<g id="B-01">
</g>
<g id="C-index">
</g>
<g id="C-mouseover">
</g>
<g id="C-01" display="none">
</g>
<g id="D-01">
</g>
<g id="D-02" display="none">
</g>
</svg>
