<?xml version="1.0" encoding="utf-8"?>
<!-- Generator: Adobe Illustrator 17.0.0, SVG Export Plug-In . SVG Version: 6.00 Build 0)  -->
<!DOCTYPE svg PUBLIC "-//W3C//DTD SVG 1.1//EN" "http://www.w3.org/Graphics/SVG/1.1/DTD/svg11.dtd">
<svg version="1.1" id="圖層_1" xmlns="http://www.w3.org/2000/svg" xmlns:xlink="http://www.w3.org/1999/xlink" x="0px" y="0px"
	 width="100px" height="90px" viewBox="0 0 100 90" enable-background="new 0 0 100 90" xml:space="preserve">
<g id="bg">
</g>
<g id="footer">
</g>
<g id="A-背景">
</g>
<g id="A-雪花左右">
</g>
<g id="A-選單">
</g>
<g id="A-主雪花_x28_一起轉_x29_">
</g>
<g id="A-指標">
</g>
<g id="A-小標">
</g>
<g id="A-主文">
</g>
<g id="A-上文">
</g>
<g id="B-index">
</g>
<g id="圖層_16" display="none">
</g>
<g id="圖層_3">
</g>
<g id="A-04" display="none">
</g>
<g id="A-03" display="none">
</g>
<g id="A-02" display="none">
</g>
<g id="A-01">
</g>
<g id="A-選單_1_">
</g>
<g id="B-04" display="none">
</g>
<g id="B-03" display="none">
</g>
<g id="B-02" display="none">
</g>
<g id="B-01">
</g>
<g id="C-index">
</g>
<g id="C-mouseover">
</g>
<g id="C-01" display="none">
</g>
<g id="D-01">
</g>
<g>
	<path fill="#FFFFFF" d="M85.174,64.44c-0.559-2.229-2.134-3.617-4.107-3.617h-5.62c-0.013-0.072,0.015-0.144-0.003-0.216
		l-2.934-11.61c-0.566-2.229-2.139-3.613-4.107-3.613h-5.622c-0.013-0.072,0.015-0.144-0.003-0.216l-2.934-11.601
		c-0.557-2.233-2.132-3.621-4.107-3.621H42.619c-1.968,0-3.541,1.384-4.107,3.617l-2.93,11.601c-0.019,0.073,0.01,0.147-0.004,0.22
		h-4.575c-1.973,0-3.547,1.388-4.107,3.617l-2.934,11.601c-0.018,0.073,0.01,0.147-0.003,0.22h-4.573
		c-1.973,0-3.547,1.388-4.107,3.617l-2.934,11.606c-0.267,1.06-0.02,2.184,0.678,3.078c0.8,1.024,2.114,1.662,3.428,1.662h18.986
		c0.976,0,1.88-0.437,2.646-1.04c0.766,0.603,1.672,1.04,2.649,1.04h18.986c0.976,0,1.88-0.437,2.646-1.04
		c0.766,0.603,1.672,1.04,2.649,1.04h18.986c1.314,0,2.629-0.638,3.428-1.667c0.699-0.894,0.946-2.017,0.678-3.073L85.174,64.44z
		 M62.368,70.273l-1.245-4.925h2.49L62.368,70.273z M38.087,70.273l-1.245-4.925h2.49L38.087,70.273z M49.704,54.833l-1.245-4.929
		h2.492L49.704,54.833z M68.049,50.124l2.687,10.626l-13.9,0.081c-0.017,0-0.032-0.009-0.049-0.009h-3.847l2.782-10.838h12.316
		C68.026,50.012,68.028,50.057,68.049,50.124z M43.058,34.547h12.325c-0.016,0.027-0.018,0.067,0,0.139l2.685,10.622l-13.92,0.081
		c-0.009,0-0.016-0.004-0.025-0.004h-3.846L43.058,34.547z M31.44,49.985h12.316c-0.011,0.027-0.009,0.072,0.011,0.139l2.687,10.626
		l-13.9,0.081c-0.017,0-0.032-0.009-0.049-0.009h-3.847L31.44,49.985z M17.033,76.293l2.79-10.869h12.316
		c-0.011,0.027-0.009,0.072,0.011,0.139l2.687,10.626L17.033,76.293z M41.314,76.293l2.79-10.869H56.42
		c-0.011,0.027-0.009,0.072,0.011,0.139l2.687,10.626L41.314,76.293z M65.595,76.293l2.79-10.869h12.327
		c-0.018,0.022-0.018,0.067,0,0.139L83.4,76.189L65.595,76.293z"/>
	<path fill="#FFFFFF" d="M49.339,23.453c1.272,0,2.301-1.029,2.301-2.301v-9.638c0-1.272-1.029-2.301-2.301-2.301
		s-2.301,1.029-2.301,2.301v9.638C47.039,22.424,48.067,23.453,49.339,23.453z"/>
	<path fill="#FFFFFF" d="M67.885,15.635l-4.819,8.344c-0.636,1.101-0.258,2.507,0.842,3.141c0.362,0.211,0.757,0.31,1.148,0.31
		c0.795,0,1.568-0.413,1.995-1.15l4.819-8.344c0.636-1.101,0.258-2.507-0.842-3.141C69.929,14.148,68.52,14.534,67.885,15.635z"/>
	<path fill="#FFFFFF" d="M83.88,29.622l-8.346,4.821c-1.101,0.634-1.478,2.04-0.842,3.141c0.427,0.737,1.2,1.15,1.995,1.15
		c0.391,0,0.786-0.099,1.148-0.31l8.346-4.821c1.101-0.634,1.478-2.04,0.842-3.141C86.387,29.362,84.974,28.975,83.88,29.622z"/>
	<path fill="#FFFFFF" d="M31.744,26.72c0.427,0.737,1.2,1.15,1.995,1.15c0.391,0,0.786-0.099,1.148-0.31
		c1.101-0.634,1.478-2.04,0.842-3.141l-4.817-8.348c-0.638-1.101-2.051-1.487-3.143-0.84c-1.101,0.634-1.478,2.04-0.842,3.141
		L31.744,26.72z"/>
	<path fill="#FFFFFF" d="M21.284,39.184c0.362,0.211,0.757,0.31,1.148,0.31c0.795,0,1.568-0.413,1.995-1.15
		c0.636-1.101,0.258-2.507-0.842-3.141l-8.346-4.817c-1.101-0.647-2.509-0.261-3.143,0.84c-0.636,1.101-0.258,2.507,0.842,3.141
		L21.284,39.184z"/>
</g>
</svg>
