<?xml version="1.0" encoding="utf-8"?>
<!-- Generator: Adobe Illustrator 17.0.0, SVG Export Plug-In . SVG Version: 6.00 Build 0)  -->
<!DOCTYPE svg PUBLIC "-//W3C//DTD SVG 1.1//EN" "http://www.w3.org/Graphics/SVG/1.1/DTD/svg11.dtd">
<svg version="1.1" id="圖層_1" xmlns="http://www.w3.org/2000/svg" xmlns:xlink="http://www.w3.org/1999/xlink" x="0px" y="0px"
	 width="115px" height="100px" viewBox="0 0 115 100" enable-background="new 0 0 115 100" xml:space="preserve">
<g id="bg">
</g>
<g id="footer">
</g>
<g id="A-背景">
</g>
<g id="A-雪花左右">
</g>
<g id="A-選單">
</g>
<g id="A-主雪花_x28_一起轉_x29_">
</g>
<g id="A-指標">
</g>
<g id="A-小標">
</g>
<g id="A-主文">
</g>
<g id="A-上文">
</g>
<g id="B-index">
</g>
<g id="圖層_16" display="none">
</g>
<g id="圖層_3">
</g>
<g id="A-04" display="none">
</g>
<g id="A-03" display="none">
</g>
<g id="A-02" display="none">
</g>
<g id="A-01">
</g>
<g id="A-選單_1_">
</g>
<g id="B-04" display="none">
</g>
<g id="B-index_1_">
</g>
<g id="B-03" display="none">
</g>
<g id="B-02" display="none">
</g>
<g id="C-index">
</g>
<g id="C-mouseover">
</g>
<g id="C-01" display="none">
</g>
<g id="D-01">
</g>
<g id="D-02" display="none">
</g>
<g id="XMLID_584_">
	<path id="XMLID_712_" fill="#004483" d="M56.884,81.468H12.674c-1.008,0-1.824-0.816-1.824-1.824c0-1.008,0.816-1.824,1.824-1.824
		h44.211c1.008,0,1.824,0.816,1.824,1.824C58.708,80.652,57.892,81.468,56.884,81.468z"/>
	<path id="XMLID_708_" fill="#004483" d="M30.539,80.923c-1.008,0-1.824-0.816-1.824-1.824V42.516H17.49v36.583
		c0,1.008-0.816,1.824-1.824,1.824s-1.824-0.816-1.824-1.824V40.692c0-1.008,0.816-1.824,1.824-1.824h14.873
		c1.008,0,1.824,0.816,1.824,1.824v38.407C32.363,80.107,31.547,80.923,30.539,80.923z"/>
	<path id="XMLID_635_" fill="#004483" d="M54.167,80.923c-1.008,0-1.824-0.816-1.824-1.824V25.856H41.119v53.242
		c0,1.008-0.816,1.824-1.824,1.824c-1.008,0-1.824-0.816-1.824-1.824V24.032c0-1.008,0.816-1.824,1.824-1.824h14.873
		c1.008,0,1.824,0.816,1.824,1.824v55.066C55.991,80.107,55.176,80.923,54.167,80.923z"/>
	<path id="XMLID_596_" fill="#004483" d="M62.923,54.968c-1.008,0-1.824-0.816-1.824-1.824V5.887c0-1.008,0.816-1.824,1.824-1.824
		h14.871c1.008,0,1.824,0.816,1.824,1.824v40.014c0,1.008-0.816,1.824-1.824,1.824s-1.824-0.816-1.824-1.824V7.711H64.747v45.432
		C64.747,54.152,63.931,54.968,62.923,54.968z"/>
	<path id="XMLID_214_" fill="#004483" d="M79.279,95.616c-13.941,0-25.283-11.344-25.283-25.285
		c0-13.941,11.342-25.285,25.283-25.285c13.943,0,25.285,11.344,25.285,25.285C104.564,84.272,93.222,95.616,79.279,95.616z
		 M79.279,48.694c-11.93,0-21.635,9.705-21.635,21.636c0,11.932,9.705,21.637,21.635,21.637s21.637-9.705,21.637-21.637
		C100.916,58.399,91.209,48.694,79.279,48.694z"/>
	<path id="XMLID_208_" fill="#004483" d="M68.842,81.468c-0.483,0-0.964-0.189-1.322-0.567c-0.695-0.73-0.664-1.885,0.064-2.579
		c0.825-0.784,2.951-3.036,5.506-5.736c10.17-10.749,13.127-13.663,14.378-14.176c0.933-0.389,1.999,0.057,2.382,0.991
		c0.372,0.905-0.036,1.934-0.912,2.348c-1.402,0.88-9.067,8.982-13.197,13.346c-2.617,2.765-4.797,5.07-5.642,5.872
		C69.745,81.3,69.295,81.468,68.842,81.468z"/>
	<path id="XMLID_179_" fill="#004483" d="M88.163,78.557c-1.008,0-1.824-0.816-1.824-1.824V61.919H71.525
		c-1.008,0-1.824-0.816-1.824-1.824c0-1.008,0.816-1.824,1.824-1.824h16.638c1.008,0,1.824,0.816,1.824,1.824v16.638
		C89.987,77.741,89.172,78.557,88.163,78.557z"/>
</g>
</svg>
