<!-- Generator: Adobe Illustrator 17.0.0, SVG Export Plug-In  -->
<svg version="1.1"
	 xmlns="http://www.w3.org/2000/svg" xmlns:xlink="http://www.w3.org/1999/xlink" xmlns:a="http://ns.adobe.com/AdobeSVGViewerExtensions/3.0/"
	 x="0px" y="0px" width="169.303px" height="169.303px" viewBox="0 0 169.303 169.303" enable-background="new 0 0 169.303 169.303"
	 xml:space="preserve">
<defs>
</defs>
<g>
	<circle fill="#6F8DAE" cx="84.651" cy="84.651" r="84.651"/>
</g>
<g>
	<path fill="#FFFFFF" d="M81.203,105.977H64.566c-2.451,5.691-8.364,9.306-17.739,10.843l-1.828-3.656
		c8.254-1.454,13.343-3.85,15.268-7.187H46.017v-3.116h15.329c0.193-0.899,0.291-1.834,0.291-2.804h3.822
		c-0.042,1.121-0.098,2.057-0.166,2.804h15.91V105.977z M82.055,98.831H45.123v-3.074h16.514v-2.721H48.695v-3.013h12.941v-2.596
		H46.868v-3.074h33.317v3.074H65.5v2.596h12.898v3.013H65.5v2.721h16.555V98.831z M59.975,82.92l-3.946,1.06
		c-0.929-1.329-1.967-2.562-3.116-3.697l3.781-1.246C57.911,80.213,59.006,81.508,59.975,82.92z M82.533,113.891l-2.348,2.97
		c-4.459-2.645-9.749-4.812-15.869-6.501l2.305-3.157C73.324,109.251,78.627,111.481,82.533,113.891z M74.743,79.888
		c-0.789,1.26-1.766,2.568-2.929,3.926l-4.175-1.039c1.343-1.385,2.389-2.645,3.136-3.78L74.743,79.888z"/>
	<path fill="#FFFFFF" d="M124.678,105.54c-0.111,3.186-0.388,5.519-0.83,7c-0.443,1.482-1.178,2.476-2.202,2.98
		c-1.024,0.506-2.86,0.759-5.505,0.759c-1.814,0-3.227-0.046-4.237-0.136s-1.821-0.412-2.431-0.966s-0.914-1.343-0.914-2.367V95.798
		h-6.543c-0.276,5.816-1.326,10.22-3.146,13.211s-4.829,5.553-9.025,7.686l-2.762-3.157c3.835-1.592,6.58-3.652,8.235-6.18
		c1.655-2.526,2.565-6.38,2.731-11.56h-9.908v-3.697h35.811v3.697h-11.445v15.62c0,0.443,0.143,0.734,0.426,0.873
		s1.443,0.208,3.479,0.208c1.579,0,2.568-0.094,2.97-0.281c0.402-0.187,0.665-0.478,0.789-0.872
		c0.125-0.395,0.264-1.226,0.416-2.492c0.152-1.268,0.256-2.939,0.312-5.017L124.678,105.54z M121.397,84.021H90.779v-3.738h30.617
		V84.021z"/>
</g>
<g>
	<path fill="#FFFFFF" d="M58.747,45.334h3.587v9.62c0,1.527,0.044,2.517,0.133,2.969c0.153,0.727,0.52,1.311,1.097,1.751
		c0.577,0.44,1.367,0.66,2.368,0.66c1.019,0,1.785-0.208,2.303-0.624c0.517-0.416,0.828-0.927,0.934-1.532
		c0.104-0.606,0.156-1.612,0.156-3.018v-9.826h3.587v9.329c0,2.133-0.097,3.64-0.29,4.52c-0.194,0.881-0.552,1.624-1.072,2.229
		c-0.521,0.606-1.219,1.089-2.091,1.448S67.447,63.4,66.041,63.4c-1.696,0-2.982-0.195-3.859-0.588
		c-0.876-0.392-1.568-0.9-2.078-1.526c-0.508-0.626-0.844-1.282-1.006-1.969c-0.234-1.018-0.351-2.521-0.351-4.508V45.334z"/>
	<path fill="#FFFFFF" d="M76.776,57.318l3.49-0.34c0.209,1.172,0.636,2.032,1.277,2.581c0.643,0.55,1.509,0.824,2.6,0.824
		c1.154,0,2.025-0.244,2.611-0.733c0.586-0.488,0.879-1.061,0.879-1.715c0-0.42-0.124-0.777-0.37-1.072
		c-0.247-0.295-0.677-0.551-1.29-0.77c-0.421-0.145-1.378-0.403-2.872-0.775c-1.923-0.477-3.271-1.062-4.047-1.757
		c-1.091-0.977-1.636-2.169-1.636-3.574c0-0.904,0.256-1.751,0.77-2.538c0.513-0.788,1.252-1.388,2.217-1.8s2.131-0.618,3.496-0.618
		c2.229,0,3.907,0.489,5.034,1.467s1.719,2.282,1.775,3.913l-3.587,0.158c-0.153-0.913-0.482-1.569-0.987-1.97
		c-0.505-0.399-1.263-0.6-2.272-0.6c-1.041,0-1.857,0.215-2.447,0.643c-0.379,0.274-0.569,0.642-0.569,1.103
		c0,0.42,0.178,0.779,0.533,1.078c0.452,0.38,1.551,0.775,3.296,1.188c1.744,0.412,3.035,0.838,3.871,1.278s1.49,1.042,1.963,1.806
		s0.709,1.706,0.709,2.829c0,1.018-0.283,1.971-0.848,2.859c-0.566,0.889-1.365,1.549-2.4,1.981
		c-1.033,0.432-2.322,0.648-3.865,0.648c-2.245,0-3.97-0.52-5.174-1.558C77.729,60.817,77.01,59.304,76.776,57.318z"/>
	<path fill="#FFFFFF" d="M95.217,45.334h6.555c1.479,0,2.605,0.113,3.381,0.339c1.041,0.307,1.934,0.853,2.678,1.636
		c0.742,0.783,1.309,1.743,1.695,2.878c0.389,1.135,0.582,2.534,0.582,4.198c0,1.462-0.182,2.723-0.545,3.78
		c-0.444,1.293-1.078,2.339-1.902,3.139c-0.623,0.605-1.463,1.078-2.521,1.417c-0.792,0.251-1.85,0.376-3.175,0.376h-6.748V45.334z
		 M98.803,48.339v11.765h2.678c1.002,0,1.725-0.056,2.169-0.169c0.581-0.146,1.063-0.392,1.448-0.739
		c0.383-0.348,0.696-0.919,0.938-1.715c0.243-0.795,0.364-1.88,0.364-3.253s-0.121-2.428-0.364-3.163
		c-0.242-0.734-0.581-1.309-1.018-1.72c-0.437-0.412-0.989-0.691-1.66-0.837c-0.501-0.112-1.482-0.169-2.944-0.169H98.803z"/>
</g>
</svg>
