<!-- Generator: Adobe Illustrator 17.0.0, SVG Export Plug-In  -->
<svg version="1.1"
	 xmlns="http://www.w3.org/2000/svg" xmlns:xlink="http://www.w3.org/1999/xlink" xmlns:a="http://ns.adobe.com/AdobeSVGViewerExtensions/3.0/"
	 x="0px" y="0px" width="169.303px" height="169.303px" viewBox="0 0 169.303 169.303" enable-background="new 0 0 169.303 169.303"
	 xml:space="preserve">
<defs>
</defs>
<g>
	<circle fill="#A6C1C7" cx="84.652" cy="84.651" r="84.651"/>
</g>
<g>
	<path fill="#FFFFFF" d="M60.036,84.213H43.44v3.447H58v22.537c0,1.219-0.284,2.178-0.852,2.877
		c-0.568,0.699-1.952,1.049-4.154,1.049c-0.692,0-1.593-0.021-2.7-0.062l-1.392-3.656c0.982,0.056,1.855,0.083,2.617,0.083
		c1.371,0,2.156-0.055,2.357-0.166c0.2-0.11,0.301-0.339,0.301-0.686V91.275h-7.664l3.053,1.517
		c-0.346,1.053-0.955,2.229-1.827,3.531h4.175v3.531h-8.434v2.908h9.285v3.489h-9.285v6.834H39.66v-6.834h-9.348v-3.489h9.348
		v-2.908h-8.371v-3.531h3.863c-0.388-1.011-1.038-2.229-1.952-3.656l3.136-1.392h-7.519v22.787h-3.822V87.66h14.582v-3.447H23.063
		v-3.531h16.514v-3.697h3.863v3.697h16.596V84.213z M46.037,91.275h-9.182c0.914,1.523,1.766,3.206,2.555,5.048h4.3
		C44.818,94.384,45.593,92.701,46.037,91.275z"/>
	<path fill="#FFFFFF" d="M81.472,96.676c0,8.737-3.67,14.65-11.009,17.738l-2.223-3.323c4.819-1.925,7.699-4.715,8.642-8.371
		c-4.46,1.246-7.963,2.112-10.511,2.597l-1.143-3.594c5.317-0.982,9.472-2.042,12.463-3.178v-3.656H66.808v-3.531h10.884v-5.441
		H66.163v-3.614h11.528v-5.317h3.78V96.676z M102.493,104.465H90.28v9.43h-3.864v-36.91h3.864v5.358h11.444v3.614H90.28v5.608
		h10.718v3.614H90.28v5.712h12.213V104.465z"/>
	<path fill="#FFFFFF" d="M114.748,81.346l-3.074,1.496c-1.274-1.8-2.306-3.13-3.095-3.988l2.929-1.496
		C112.45,78.397,113.53,79.726,114.748,81.346z M126.692,94.723c0,0.775-0.287,1.492-0.862,2.15c-0.574,0.657-2.102,0.931-4.58,0.82
		l-0.976-3.24c0.678,0.083,1.419,0.124,2.222,0.124c0.499,0,0.748-0.297,0.748-0.893v-6.959h-3.78v10.76h-3.489v-10.76h-3.863
		v11.466h-3.448V83.402h7.312v-6.418h3.489v6.418h7.229V94.723z M141.938,108.827c0,1.398-0.392,2.347-1.174,2.845
		c-0.782,0.499-2.163,0.748-4.144,0.748c-0.997,0-1.952-0.034-2.866-0.104l-1.06-3.614c0.748,0.027,2.34,0.041,4.777,0.041
		c0.471,0,0.706-0.27,0.706-0.81v-3.905h-9.907v10.033h-3.698v-10.033h-9.99v8.246h-3.697v-11.611h13.688v-2.284h3.698v2.284h13.667
		V108.827z M115.351,88.367c-0.25,2.575-0.582,4.777-0.997,6.604l-1.953-0.519c0.443-2.063,0.769-4.203,0.977-6.419L115.351,88.367z
		 M122.829,92.708l-1.953,0.686c-0.166-1.523-0.505-3.227-1.018-5.11l1.953-0.498C122.323,89.364,122.662,91.005,122.829,92.708z
		 M127.335,79.186c-1.19,1.288-2.438,2.493-3.738,3.614l-3.24-1.578c1.412-1.025,2.721-2.243,3.926-3.656L127.335,79.186z
		 M145.158,95.823l-1.62,3.137c-2.438-0.872-4.701-2.021-6.792-3.448c-2.175,1.537-4.716,2.617-7.623,3.241l-1.662-3.241
		c2.216-0.235,4.376-0.969,6.48-2.201c-1.302-1.468-2.271-2.832-2.908-4.092l2.722-1.87c0.845,1.469,1.751,2.659,2.721,3.573
		c1.149-1.855,1.876-3.939,2.182-6.252h-5.608c-1.108,1.786-2.32,3.379-3.636,4.777l-2.16-2.784
		c2.465-2.783,4.362-6.127,5.691-10.032l3.365,0.769c-0.36,1.191-0.838,2.424-1.434,3.697h10.033v3.573h-2.805
		c-0.471,3.447-1.481,6.231-3.032,8.35C140.58,94.142,142.61,95.076,145.158,95.823z"/>
</g>
<g>
	<path fill="#FFFFFF" d="M58.258,63.098v-3.235l9.329-11.522h-8.275v-3.005h13.001v2.786l-9.729,11.983h10.105v2.993H58.258z"/>
	<path fill="#FFFFFF" d="M91.966,63.098h-3.902l-1.551-4.035h-7.1l-1.467,4.035h-3.805l6.919-17.763h3.792L91.966,63.098z
		 M85.363,56.07l-2.448-6.592l-2.398,6.592H85.363z"/>
	<path fill="#FFFFFF" d="M94.872,63.098V45.335h7.549c1.898,0,3.277,0.159,4.138,0.479s1.549,0.887,2.066,1.702
		c0.517,0.816,0.775,1.749,0.775,2.799c0,1.333-0.392,2.434-1.176,3.302c-0.783,0.868-1.954,1.416-3.514,1.642
		c0.775,0.453,1.416,0.949,1.921,1.49c0.505,0.542,1.186,1.503,2.041,2.884l2.169,3.466h-4.289l-2.593-3.865
		c-0.921-1.381-1.551-2.252-1.891-2.611c-0.339-0.359-0.698-0.605-1.078-0.739c-0.38-0.133-0.981-0.199-1.806-0.199h-0.727v7.415
		H94.872z M98.459,52.847h2.653c1.721,0,2.795-0.072,3.224-0.218c0.428-0.146,0.763-0.396,1.005-0.751
		c0.243-0.355,0.364-0.8,0.364-1.333c0-0.598-0.16-1.08-0.479-1.448c-0.319-0.367-0.77-0.6-1.352-0.696
		c-0.291-0.041-1.163-0.061-2.617-0.061h-2.799V52.847z"/>
</g>
</svg>
