<?xml version="1.0" encoding="utf-8"?>
<!-- Generator: Adobe Illustrator 17.0.0, SVG Export Plug-In . SVG Version: 6.00 Build 0)  -->
<!DOCTYPE svg PUBLIC "-//W3C//DTD SVG 1.1//EN" "http://www.w3.org/Graphics/SVG/1.1/DTD/svg11.dtd">
<svg version="1.1" xmlns="http://www.w3.org/2000/svg" xmlns:xlink="http://www.w3.org/1999/xlink" x="0px" y="0px"
	 width="33.354px" height="43.495px" viewBox="0 0 33.354 43.495" enable-background="new 0 0 33.354 43.495" xml:space="preserve">
<g id="bg">
</g>
<g id="footer">
</g>
<g id="A-背景">
</g>
<g id="A-雪花左右">
</g>
<g id="A-選單">
</g>
<g id="A-主雪花_x28_一起轉_x29_">
</g>
<g id="A-指標">
</g>
<g id="A-小標">
</g>
<g id="A-主文">
</g>
<g id="A-上文">
</g>
<g id="B-index">
</g>
<g id="圖層_16" display="none">
</g>
<g id="圖層_3">
</g>
<g id="A-04" display="none">
</g>
<g id="A-03" display="none">
</g>
<g id="A-02" display="none">
</g>
<g id="A-01">
</g>
<g id="A-選單_1_">
</g>
<g id="B-04" display="none">
</g>
<g id="B-index_1_">
</g>
<g id="B-03" display="none">
</g>
<g id="B-02" display="none">
</g>
<g id="B-01">
</g>
<g id="C-index">
</g>
<g id="C-mouseover">
	<g>
		<g>
			<g>
				<path fill="#FFFFFF" d="M0.826,35.894c0.444,0,0.808-0.364,0.808-0.808V30.61c0-0.71,0.311-1.376,0.852-1.82
					c3.987-3.277,8.303-5.452,9.129-5.861c0.382-0.186,0.613-0.559,0.613-0.986v-6.296c0-0.266-0.133-0.524-0.355-0.666
					c-0.595-0.4-0.959-1.066-0.959-1.776V6.687c0-2.797,2.273-5.071,5.071-5.071h1.403c2.797,0,5.071,2.273,5.071,5.071v6.527
					c0,0.719-0.355,1.376-0.959,1.776c-0.222,0.151-0.355,0.4-0.355,0.666v6.296c0,0.426,0.24,0.799,0.613,0.986
					c0.826,0.4,5.151,2.584,9.129,5.861c0.542,0.444,0.852,1.11,0.852,1.82v4.476c0,0.444,0.364,0.808,0.808,0.808
					s0.808-0.364,0.808-0.808v-4.476c0-1.19-0.524-2.309-1.447-3.064c-3.774-3.099-7.841-5.257-9.155-5.914v-5.577
					c0.826-0.71,1.314-1.741,1.314-2.851V6.687C24.065,3.002,21.064,0,17.379,0h-1.403C12.29,0,9.289,3.002,9.289,6.687v6.527
					c0,1.101,0.488,2.14,1.314,2.851v5.577c-1.314,0.657-5.381,2.815-9.155,5.914C0.533,28.31,0,29.429,0,30.619v4.476
					C0.027,35.53,0.382,35.894,0.826,35.894z"/>
			</g>
		</g>
		<path fill="#FFFFFF" d="M19.652,23.772c0.009-0.453-0.355-0.817-0.799-0.817c-0.444,0-0.808,0.364-0.808,0.808
			c0,0.4-0.169,0.755-0.444,1.003c-0.053,0.036-0.107,0.071-0.151,0.124c-0.213,0.151-0.479,0.231-0.764,0.231
			c-0.746,0-1.359-0.613-1.359-1.359c0-0.444-0.364-0.808-0.808-0.808c-0.444,0-0.808,0.364-0.808,0.808
			c0,0.71,0.258,1.368,0.675,1.883l-0.657,15.141c-0.009,0.24,0.089,0.47,0.266,0.63l2.069,1.874
			c0.151,0.142,0.346,0.204,0.542,0.204s0.391-0.071,0.542-0.204l2.105-1.9c0.177-0.16,0.275-0.391,0.266-0.63l-0.675-14.963
			C19.341,25.264,19.652,24.554,19.652,23.772z M16.624,41.604l-1.252-1.128l0.595-13.844c0.231,0.062,0.47,0.089,0.719,0.089
			c0.204,0,0.4-0.018,0.595-0.062l0.622,13.773L16.624,41.604z"/>
	</g>
</g>
<g id="C-01" display="none">
</g>
<g id="D-01">
</g>
<g id="D-02" display="none">
</g>
</svg>
