<?xml version="1.0" encoding="utf-8"?>
<!-- Generator: Adobe Illustrator 17.0.0, SVG Export Plug-In . SVG Version: 6.00 Build 0)  -->
<!DOCTYPE svg PUBLIC "-//W3C//DTD SVG 1.1//EN" "http://www.w3.org/Graphics/SVG/1.1/DTD/svg11.dtd">
<svg version="1.1" xmlns="http://www.w3.org/2000/svg" xmlns:xlink="http://www.w3.org/1999/xlink" x="0px" y="0px" width="114px"
	 height="115px" viewBox="0 0 114 115" enable-background="new 0 0 114 115" xml:space="preserve">
<g id="bg">
</g>
<g id="footer">
</g>
<g id="A-背景">
</g>
<g id="A-雪花左右">
</g>
<g id="A-選單">
</g>
<g id="A-主雪花_x28_一起轉_x29_">
</g>
<g id="A-指標">
	<ellipse opacity="0.8" fill="#004483" cx="57" cy="57.5" rx="57" ry="57.5"/>
	<g>
		<g>
			<g>
				<g>
					<path fill="#F1B022" d="M28.406,54.498c0,16.343,13.293,29.636,29.636,29.636s29.636-13.293,29.636-29.636
						S74.385,24.862,58.042,24.862S28.406,38.155,28.406,54.498z M85.281,54.498c0,15.024-12.215,27.239-27.239,27.239
						S30.803,69.522,30.803,54.498s12.215-27.239,27.239-27.239S85.281,39.474,85.281,54.498z"/>
				</g>
			</g>
			<g>
				<path fill="#F1B022" d="M48.199,50.285c-0.23,0.23-0.351,0.545-0.351,0.847c0,0.303,0.121,0.617,0.351,0.847l8.995,8.995
					c0.23,0.23,0.533,0.351,0.847,0.351s0.617-0.121,0.847-0.351l8.995-8.995c0.472-0.472,0.472-1.223,0-1.695s-1.223-0.472-1.695,0
					l-8.147,8.147l-8.147-8.147C49.422,49.825,48.659,49.825,48.199,50.285z"/>
			</g>
		</g>
	</g>
</g>
<g id="A-小標">
</g>
<g id="A-主文">
</g>
<g id="A-上文">
</g>
<g id="B-index">
</g>
<g id="圖層_16" display="none">
</g>
<g id="圖層_3">
</g>
<g id="A-04" display="none">
</g>
<g id="A-03" display="none">
</g>
<g id="A-02" display="none">
</g>
<g id="A-01">
</g>
<g id="A-選單_1_">
</g>
<g id="B-04" display="none">
</g>
<g id="B-index_1_">
</g>
<g id="B-03" display="none">
</g>
<g id="B-02" display="none">
</g>
<g id="B-01">
</g>
<g id="C-index">
</g>
<g id="C-mouseover">
</g>
<g id="C-01" display="none">
</g>
<g id="D-01">
</g>
<g id="D-02" display="none">
</g>
</svg>
