<?xml version="1.0" encoding="utf-8"?>
<!-- Generator: Adobe Illustrator 17.0.0, SVG Export Plug-In . SVG Version: 6.00 Build 0)  -->
<!DOCTYPE svg PUBLIC "-//W3C//DTD SVG 1.1//EN" "http://www.w3.org/Graphics/SVG/1.1/DTD/svg11.dtd">
<svg version="1.1" xmlns="http://www.w3.org/2000/svg" xmlns:xlink="http://www.w3.org/1999/xlink" x="0px" y="0px" width="253px"
	 height="175px" viewBox="0 0 253 175" enable-background="new 0 0 253 175" xml:space="preserve">
<g id="bg">
</g>
<g id="footer">
</g>
<g id="A-背景">
</g>
<g id="A-雪花左右">
</g>
<g id="A-選單">
</g>
<g id="A-主雪花_x28_一起轉_x29_">
</g>
<g id="A-指標">
</g>
<g id="A-小標">
</g>
<g id="A-主文">
</g>
<g id="A-上文">
</g>
<g id="B-index">
</g>
<g id="圖層_16" display="none">
</g>
<g id="圖層_3">
</g>
<g id="A-04" display="none">
</g>
<g id="A-03" display="none">
</g>
<g id="A-02" display="none">
</g>
<g id="A-01">
</g>
<g id="A-選單_1_">
</g>
<g id="B-04" display="none">
</g>
<g id="B-index_1_">
</g>
<g id="B-03" display="none">
</g>
<g id="B-02" display="none">
</g>
<g id="B-01">
</g>
<g id="C-index">
</g>
<g id="C-mouseover">
</g>
<g id="C-01">
	<g>
		<g id="XMLID_4146_">
			<path id="XMLID_4149_" fill="#BECAD3" d="M126.469,63.12c-7.154-0.336-14.045-6.553-17.019-15.021
				c-2.319,0.168-4.278-1.441-4.634-3.699l-1.187-7.638c-0.309-1.995,0.79-3.895,2.552-4.681c-0.135-0.794-0.204-1.595-0.204-2.403
				v-2.81c0-7.922,6.444-14.366,14.366-14.366h0.095c1.846-3.116,8.202-2.461,13.597-0.408c1.267,0.481,2.443,1.019,3.513,1.595
				c5.217,2.162,8.697,7.368,8.697,13.179v2.81c0,0.808-0.069,1.616-0.204,2.41c0.692,0.306,1.296,0.786,1.758,1.42
				c0.688,0.946,0.972,2.104,0.794,3.254l-1.187,7.63c-0.328,2.082-2.071,3.597-4.092,3.706
				C140.342,56.56,133.451,62.785,126.469,63.12z M110.745,44.161c0.822,0,1.562,0.539,1.791,1.354
				c2.177,7.638,8.166,13.608,13.933,13.878c5.566-0.27,11.547-6.211,13.736-13.805c0.258-0.903,1.128-1.485,2.082-1.325
				l0.691,0.109c0.321,0.058,0.684-0.204,0.743-0.553l1.187-7.623c0.048-0.306-0.24-0.706-0.546-0.749l-0.856-0.131
				c-0.538-0.081-1.015-0.394-1.303-0.86c-0.287-0.466-0.356-1.033-0.189-1.551c0.332-1.041,0.503-2.126,0.503-3.225v-2.81
				c0-4.303-2.581-8.155-6.571-9.822c-1.1-0.582-2.13-1.048-3.237-1.471c-5.155-1.951-8.614-1.572-9.105-1.106
				c0.04,0.517-0.095,0.903-0.444,1.288c-0.353,0.379-0.804,0.473-1.325,0.473h-1.493c-5.865,0-10.638,4.769-10.638,10.638v2.81
				c0,1.085,0.171,2.177,0.506,3.225c0.164,0.524,0.095,1.085-0.193,1.551c-0.287,0.466-0.764,0.779-1.303,0.86l-0.863,0.131
				c-0.346,0.051-0.593,0.4-0.539,0.749l1.187,7.631c0.054,0.342,0.361,0.633,0.75,0.546l1.209-0.189
				C110.556,44.168,110.651,44.161,110.745,44.161z"/>
			<path id="XMLID_4148_" fill="#BECAD3" d="M155.833,99.51H142.32c-1.03,0-1.864-0.837-1.864-1.864
				c0-1.027,0.834-1.864,1.864-1.864h13.514c1.03,0,1.864,0.837,1.864,1.864C157.697,98.673,156.863,99.51,155.833,99.51z"/>
			<path id="XMLID_4147_" fill="#BECAD3" d="M119.093,107.076c-0.878,0-1.638-0.612-1.824-1.478l-7.554-35.429
				c-5.857,2.796-16.878,5.184-20.474,5.919c-2.738,0.553-7.365,2.548-7.365,6.51v2.141l2.235,20.204
				c0.113,1.027-0.626,1.944-1.649,2.053c-0.994,0.182-1.944-0.619-2.056-1.645l-2.246-20.409l-0.011-2.344
				c0-5.578,5.199-9.124,10.35-10.164c7.703-1.572,17.879-4.223,21.206-6.524c0.226-0.153,0.488-0.262,0.761-0.306
				c1.005-0.11,2.185,0.444,2.392,1.412l6.149,28.848l2.989-15.421l-3.903-10.062c-0.221-0.575-0.149-1.223,0.201-1.733
				c0.346-0.503,0.921-0.808,1.537-0.808h13.229c0.615,0,1.19,0.306,1.536,0.808c0.35,0.509,0.423,1.158,0.201,1.733l-3.903,10.062
				l2.898,15.377l6.243-28.81c0.207-0.976,1.125-1.624,2.115-1.449c0.273,0.044,0.808,0.197,1.038,0.35
				c3.334,2.308,13.506,4.958,21.206,6.524c5.147,1.048,10.346,4.594,10.346,10.164v2.141l-2.257,20.612
				c-0.113,1.019-1.063,1.821-2.057,1.645c-1.023-0.109-1.762-1.027-1.649-2.053l2.246-20.409l-0.011-1.936
				c0-3.961-4.627-5.956-7.361-6.51c-3.597-0.735-14.627-3.123-20.485-5.927l-7.681,35.444c-0.186,0.859-0.943,1.471-1.821,1.471
				c-0.007,0-0.018,0-0.025,0c-0.888-0.015-1.642-0.648-1.806-1.522l-4.7-24.945c-0.065-0.342-0.032-0.692,0.095-1.019l3.109-8.024
				h-7.783l3.113,8.024c0.127,0.327,0.16,0.684,0.095,1.033l-4.835,24.945c-0.171,0.866-0.928,1.5-1.812,1.508
				C119.104,107.076,119.1,107.076,119.093,107.076z"/>
		</g>
		<g id="XMLID_4140_">
			<path id="XMLID_4143_" fill="#BECAD3" d="M48.343,120.686c-7.154-0.336-14.045-6.553-17.019-15.021
				c-2.319,0.168-4.278-1.441-4.634-3.699l-1.187-7.638c-0.309-1.995,0.79-3.895,2.552-4.681c-0.135-0.794-0.204-1.595-0.204-2.403
				v-2.81c0-7.922,6.444-14.366,14.366-14.366h0.095c1.846-3.116,8.202-2.461,13.597-0.408c1.267,0.481,2.443,1.019,3.513,1.595
				c5.217,2.162,8.697,7.368,8.697,13.179v2.81c0,0.808-0.069,1.616-0.204,2.41c0.692,0.306,1.296,0.786,1.758,1.42
				c0.688,0.946,0.972,2.104,0.794,3.254l-1.187,7.63c-0.328,2.082-2.071,3.597-4.092,3.706
				C62.216,114.125,55.325,120.35,48.343,120.686z M32.619,101.726c0.822,0,1.562,0.539,1.791,1.354
				c2.177,7.638,8.166,13.608,13.933,13.878c5.566-0.27,11.547-6.211,13.736-13.805c0.258-0.903,1.128-1.485,2.082-1.325
				l0.691,0.109c0.321,0.058,0.684-0.204,0.743-0.553l1.187-7.623c0.048-0.306-0.24-0.706-0.546-0.749L65.38,92.88
				c-0.538-0.081-1.015-0.394-1.303-0.86c-0.287-0.466-0.356-1.033-0.189-1.551c0.332-1.041,0.503-2.126,0.503-3.225v-2.81
				c0-4.303-2.581-8.155-6.571-9.822c-1.1-0.582-2.13-1.048-3.237-1.471c-5.155-1.951-8.614-1.572-9.105-1.106
				c0.04,0.517-0.095,0.903-0.444,1.288c-0.353,0.379-0.804,0.473-1.325,0.473h-1.493c-5.865,0-10.638,4.769-10.638,10.638v2.81
				c0,1.085,0.171,2.177,0.506,3.225c0.164,0.524,0.095,1.085-0.193,1.551c-0.287,0.466-0.764,0.779-1.303,0.86l-0.863,0.131
				c-0.346,0.051-0.593,0.4-0.539,0.749l1.187,7.631c0.054,0.342,0.361,0.633,0.75,0.546l1.209-0.189
				C32.43,101.733,32.525,101.726,32.619,101.726z"/>
			<path id="XMLID_4142_" fill="#BECAD3" d="M77.707,157.076H64.194c-1.03,0-1.864-0.837-1.864-1.864s0.834-1.864,1.864-1.864
				h13.514c1.03,0,1.864,0.837,1.864,1.864S78.737,157.076,77.707,157.076z"/>
			<path id="XMLID_4141_" fill="#BECAD3" d="M40.967,164.641c-0.878,0-1.638-0.612-1.824-1.478l-7.554-35.429
				c-5.857,2.796-16.878,5.184-20.474,5.919c-2.738,0.553-7.365,2.548-7.365,6.51v2.141l2.235,20.204
				c0.113,1.027-0.626,1.944-1.649,2.053c-0.994,0.182-1.944-0.619-2.056-1.645l-2.246-20.409l-0.011-2.344
				c0-5.578,5.199-9.124,10.35-10.164c7.703-1.572,17.879-4.223,21.206-6.524c0.226-0.153,0.488-0.262,0.761-0.306
				c1.005-0.11,2.185,0.444,2.392,1.412l6.149,28.848l2.989-15.421l-3.903-10.062c-0.221-0.575-0.149-1.223,0.201-1.733
				c0.346-0.503,0.921-0.808,1.537-0.808h13.229c0.615,0,1.19,0.306,1.536,0.808c0.35,0.509,0.423,1.158,0.201,1.733l-3.903,10.062
				l2.898,15.377l6.243-28.81c0.207-0.976,1.125-1.624,2.115-1.449c0.273,0.044,0.808,0.197,1.038,0.35
				c3.334,2.308,13.506,4.958,21.206,6.524c5.147,1.048,10.346,4.594,10.346,10.164v2.141l-2.257,20.612
				c-0.113,1.019-1.063,1.821-2.057,1.645c-1.023-0.109-1.762-1.027-1.649-2.053l2.246-20.409l-0.011-1.936
				c0-3.961-4.627-5.956-7.361-6.51c-3.597-0.735-14.627-3.123-20.485-5.927l-7.681,35.444c-0.186,0.859-0.943,1.471-1.821,1.471
				c-0.007,0-0.018,0-0.025,0c-0.888-0.015-1.642-0.648-1.806-1.522l-4.7-24.945c-0.065-0.342-0.032-0.692,0.095-1.019l3.109-8.024
				h-7.783l3.113,8.024c0.127,0.327,0.16,0.684,0.095,1.033l-4.835,24.945c-0.171,0.866-0.928,1.5-1.812,1.508
				C40.978,164.641,40.974,164.641,40.967,164.641z"/>
		</g>
		<g id="XMLID_4134_">
			<path id="XMLID_4137_" fill="#BECAD3" d="M204.708,120.686c-7.154-0.336-14.045-6.553-17.019-15.021
				c-2.319,0.168-4.278-1.441-4.634-3.699l-1.187-7.638c-0.309-1.995,0.79-3.895,2.552-4.681c-0.135-0.794-0.204-1.595-0.204-2.403
				v-2.81c0-7.922,6.444-14.366,14.366-14.366h0.095c1.846-3.116,8.202-2.461,13.597-0.408c1.267,0.481,2.443,1.019,3.513,1.595
				c5.217,2.162,8.697,7.368,8.697,13.179v2.81c0,0.808-0.069,1.616-0.204,2.41c0.692,0.306,1.296,0.786,1.758,1.42
				c0.688,0.946,0.972,2.104,0.794,3.254l-1.187,7.63c-0.328,2.082-2.071,3.597-4.092,3.706
				C218.582,114.125,211.691,120.35,204.708,120.686z M188.985,101.726c0.822,0,1.562,0.539,1.791,1.354
				c2.177,7.638,8.166,13.608,13.933,13.878c5.566-0.27,11.547-6.211,13.736-13.805c0.258-0.903,1.128-1.485,2.082-1.325
				l0.691,0.109c0.321,0.058,0.684-0.204,0.743-0.553l1.187-7.623c0.048-0.306-0.24-0.706-0.546-0.749l-0.856-0.131
				c-0.538-0.081-1.015-0.394-1.303-0.86c-0.287-0.466-0.356-1.033-0.189-1.551c0.332-1.041,0.503-2.126,0.503-3.225v-2.81
				c0-4.303-2.581-8.155-6.571-9.822c-1.1-0.582-2.13-1.048-3.237-1.471c-5.155-1.951-8.614-1.572-9.105-1.106
				c0.04,0.517-0.095,0.903-0.444,1.288c-0.353,0.379-0.804,0.473-1.325,0.473h-1.493c-5.865,0-10.638,4.769-10.638,10.638v2.81
				c0,1.085,0.171,2.177,0.506,3.225c0.164,0.524,0.095,1.085-0.193,1.551c-0.287,0.466-0.764,0.779-1.303,0.86l-0.863,0.131
				c-0.346,0.051-0.593,0.4-0.539,0.749l1.187,7.631c0.054,0.342,0.361,0.633,0.75,0.546l1.209-0.189
				C188.796,101.733,188.89,101.726,188.985,101.726z"/>
			<path id="XMLID_4136_" fill="#BECAD3" d="M234.073,157.076h-13.514c-1.03,0-1.864-0.837-1.864-1.864s0.834-1.864,1.864-1.864
				h13.514c1.03,0,1.864,0.837,1.864,1.864S235.102,157.076,234.073,157.076z"/>
			<path id="XMLID_4135_" fill="#BECAD3" d="M197.332,164.641c-0.878,0-1.638-0.612-1.824-1.478l-7.554-35.429
				c-5.857,2.796-16.878,5.184-20.474,5.919c-2.738,0.553-7.365,2.548-7.365,6.51v2.141l2.235,20.204
				c0.113,1.027-0.626,1.944-1.649,2.053c-0.994,0.182-1.944-0.619-2.056-1.645l-2.246-20.409l-0.011-2.344
				c0-5.578,5.199-9.124,10.35-10.164c7.703-1.572,17.879-4.223,21.206-6.524c0.226-0.153,0.488-0.262,0.761-0.306
				c1.005-0.11,2.185,0.444,2.392,1.412l6.149,28.848l2.989-15.421l-3.903-10.062c-0.221-0.575-0.149-1.223,0.201-1.733
				c0.346-0.503,0.921-0.808,1.537-0.808h13.229c0.615,0,1.19,0.306,1.536,0.808c0.35,0.509,0.423,1.158,0.201,1.733l-3.903,10.062
				l2.898,15.377l6.243-28.81c0.207-0.976,1.125-1.624,2.115-1.449c0.273,0.044,0.808,0.197,1.038,0.35
				c3.334,2.308,13.506,4.958,21.206,6.524c5.147,1.048,10.346,4.594,10.346,10.164v2.141l-2.257,20.612
				c-0.113,1.019-1.063,1.821-2.057,1.645c-1.023-0.109-1.762-1.027-1.649-2.053l2.246-20.409l-0.011-1.936
				c0-3.961-4.627-5.956-7.361-6.51c-3.597-0.735-14.627-3.123-20.485-5.927l-7.681,35.444c-0.186,0.859-0.943,1.471-1.821,1.471
				c-0.007,0-0.018,0-0.025,0c-0.888-0.015-1.642-0.648-1.806-1.522l-4.7-24.945c-0.065-0.342-0.032-0.692,0.095-1.019l3.109-8.024
				h-7.783l3.113,8.024c0.127,0.327,0.16,0.684,0.095,1.033l-4.835,24.945c-0.171,0.866-0.928,1.5-1.812,1.508
				C197.344,164.641,197.34,164.641,197.332,164.641z"/>
		</g>
	</g>
</g>
<g id="D-01">
</g>
<g id="D-02" display="none">
</g>
</svg>
