<?xml version="1.0" encoding="utf-8"?>
<!-- Generator: Adobe Illustrator 17.0.0, SVG Export Plug-In . SVG Version: 6.00 Build 0)  -->
<!DOCTYPE svg PUBLIC "-//W3C//DTD SVG 1.1//EN" "http://www.w3.org/Graphics/SVG/1.1/DTD/svg11.dtd">
<svg version="1.1" id="Layer_1" xmlns="http://www.w3.org/2000/svg" xmlns:xlink="http://www.w3.org/1999/xlink" x="0px" y="0px"
	 width="253px" height="175px" viewBox="0 0 253 175" enable-background="new 0 0 253 175" xml:space="preserve">
<g id="bg">
</g>
<g id="footer">
</g>
<g id="A-背景">
</g>
<g id="A-雪花左右">
</g>
<g id="A-選單">
</g>
<g id="A-主雪花_x28_一起轉_x29_">
</g>
<g id="A-指標">
</g>
<g id="A-小標">
</g>
<g id="A-主文">
</g>
<g id="A-上文">
</g>
<g id="B-index">
</g>
<g id="圖層_16" display="none">
</g>
<g id="圖層_3">
</g>
<g id="A-04" display="none">
</g>
<g id="A-03" display="none">
</g>
<g id="A-02" display="none">
</g>
<g id="A-01">
</g>
<g id="A-選單_1_">
</g>
<g id="B-04" display="none">
</g>
<g id="B-index_1_">
</g>
<g id="B-03" display="none">
</g>
<g id="B-02" display="none">
</g>
<g id="B-01">
</g>
<g id="C-index">
</g>
<g id="C-mouseover">
</g>
<g id="C-01">
	<g>
		<g enable-background="new    ">
			<path d="M47.027,34.999c-0.562,1.43-1.245,2.66-2.048,3.691l-0.791-0.545c0.674-0.809,1.345-1.995,2.013-3.56L47.027,34.999z
				 M52.52,33.558h-3.639v6.609h-0.896v-6.609h-3.674v-0.861h3.674V30.93h-3.472v-0.896h2.197c-0.105-0.562-0.419-1.453-0.94-2.672
				l0.633-0.431h-1.767v-0.932h3.313c-0.176-0.416-0.428-0.85-0.756-1.301l0.861-0.378c0.287,0.393,0.595,0.952,0.923,1.679h3.146
				v0.932h-1.441l0.668,0.413c-0.217,0.662-0.589,1.559-1.116,2.689h2.092v0.896h-3.445v1.767h3.639V33.558z M50.411,26.931h-3.744
				c0.48,1.172,0.823,2.206,1.028,3.103h1.512C49.716,29.025,50.118,27.991,50.411,26.931z M51.984,37.012l-0.835,0.501
				c-0.275-0.732-0.688-1.582-1.239-2.549l0.756-0.431C51.169,35.295,51.609,36.121,51.984,37.012z M59.885,31.105h-1.942v9.079
				H57.02v-9.079h-2.681c0,4.014-0.762,7.058-2.285,9.132l-0.756-0.58c0.779-1.16,1.334-2.344,1.666-3.551s0.497-2.801,0.497-4.781
				v-5.396c2.268-0.311,4.113-0.823,5.537-1.538l0.703,0.738c-1.594,0.738-3.375,1.263-5.344,1.573v3.507h5.528V31.105z"/>
			<path d="M70.212,27.098c0.035,2.59-0.018,5.129-0.158,7.615c-0.141,2.488-0.256,3.895-0.347,4.219
				c-0.091,0.326-0.293,0.607-0.606,0.844c-0.313,0.238-0.877,0.356-1.692,0.356c-0.316,0-0.712-0.015-1.187-0.044l-0.237-0.949
				c0.592,0.035,1.087,0.053,1.485,0.053c0.527,0,0.876-0.067,1.046-0.202s0.287-0.329,0.352-0.585
				c0.064-0.254,0.154-1.64,0.268-4.156s0.157-4.59,0.127-6.219h-2.971c-0.023,4.822-1.134,8.868-3.331,12.138l-0.721-0.721
				c2.004-2.988,3.041-6.794,3.111-11.417h-2.839v-0.932h2.874c0.059-0.973,0.097-1.875,0.114-2.707h0.949l-0.088,2.707H70.212z
				 M77.578,40.123h-0.976v-1.415h-3.727v1.415h-0.984V25.999h5.687V40.123z M76.602,37.732V26.948h-3.727v10.784H76.602z"/>
			<path d="M85.567,30.068h-2.083v5.361c0.703-0.404,1.351-0.788,1.942-1.151v1.063c-1.729,1.09-3.36,1.898-4.896,2.426
				l-0.185-0.914c0.621-0.205,1.365-0.524,2.232-0.958v-5.827h-2.101v-0.94h2.101v-4.772h0.905v4.772h2.083V30.068z M96.193,39.385
				l-0.492,0.835c-1.811-0.633-3.328-1.45-4.553-2.452c-1.283,0.943-2.76,1.761-4.43,2.452L86.2,39.367
				c1.717-0.621,3.126-1.365,4.228-2.232c-1.248-1.219-2.142-2.95-2.681-5.194h-0.343c-0.076,2.83-1.09,5.572-3.041,8.227
				l-0.773-0.633c1.096-1.4,1.859-2.72,2.289-3.96c0.432-1.238,0.646-2.758,0.646-4.557v-4.535h4.008v-2.092h0.958v2.092h4.315
				c-0.328,1.312-0.729,2.514-1.204,3.604l-0.861-0.308c0.328-0.738,0.615-1.529,0.861-2.373h-3.111v3.612h3.437
				c-0.51,2.666-1.529,4.699-3.059,6.1C92.66,37.902,94.101,38.658,96.193,39.385z M90.533,31.018v-3.612h-3.059v3.612H90.533z
				 M93.793,31.94h-5.115c0.428,1.957,1.251,3.492,2.47,4.605C92.285,35.556,93.167,34.021,93.793,31.94z"/>
		</g>
		<g enable-background="new    ">
			<path d="M196.069,24.541c-0.07,0.369-0.246,1.022-0.527,1.96l-0.422,1.406v12.261h-0.923v-9.958
				c-0.627,1.271-1.096,2.106-1.406,2.505l-0.536-0.87c1.16-1.852,2.139-4.359,2.936-7.523L196.069,24.541z M207.486,40.167h-0.94
				v-1.213h-8.675v1.213h-0.94V24.989h10.556V40.167z M206.528,38.076V25.912h-8.657v12.164H206.528z M205.737,29.559h-3.155v2.074
				h2.18v4.896h-5.124v-4.896h2.048v-2.074h-3.006v-0.914h2.988v-1.767h0.914v1.767h3.155V29.559z M203.83,35.588V32.53h-3.278
				v3.059H203.83z"/>
		</g>
		<g>
			<g enable-background="new    ">
				<path fill="#231815" d="M140.558,32.805l3.778-0.35c0.32,1.777,0.932,3.065,1.835,3.866c0.903,0.802,2.061,1.202,3.474,1.202
					c1.208,0,2.268-0.276,3.178-0.83s1.657-1.293,2.239-2.218s1.07-2.173,1.464-3.746c0.393-1.572,0.59-3.175,0.59-4.806
					c0-0.175-0.008-0.437-0.022-0.786c-0.786,1.252-1.86,2.269-3.222,3.047c-1.361,0.779-2.836,1.169-4.424,1.169
					c-2.65,0-4.893-0.961-6.728-2.884c-1.835-1.922-2.752-4.456-2.752-7.602c0-3.247,0.957-5.861,2.872-7.842
					s4.314-2.972,7.197-2.972c2.083,0,3.987,0.562,5.713,1.683c1.726,1.122,3.036,2.72,3.932,4.795s1.344,5.079,1.344,9.011
					c0,4.092-0.444,7.351-1.333,9.775s-2.21,4.271-3.965,5.537c-1.755,1.268-3.812,1.9-6.171,1.9c-2.505,0-4.551-0.695-6.138-2.086
					C141.831,37.279,140.877,35.324,140.558,32.805z M156.656,18.672c0-2.258-0.601-4.049-1.802-5.374
					c-1.202-1.325-2.647-1.987-4.336-1.987c-1.748,0-3.27,0.713-4.565,2.141c-1.297,1.427-1.944,3.276-1.944,5.548
					c0,2.039,0.615,3.695,1.846,4.97s2.748,1.911,4.555,1.911c1.82,0,3.316-0.637,4.488-1.911
					C156.07,22.694,156.656,20.929,156.656,18.672z"/>
			</g>
		</g>
		<g enable-background="new    ">
			<path d="M196.069,83.421c-0.07,0.369-0.246,1.022-0.527,1.96l-0.422,1.406v12.26h-0.923V89.09
				c-0.627,1.271-1.096,2.106-1.406,2.505l-0.536-0.87c1.16-1.852,2.139-4.359,2.936-7.523L196.069,83.421z M207.486,99.048h-0.94
				v-1.213h-8.675v1.213h-0.94V83.87h10.556V99.048z M206.528,96.956V84.792h-8.657v12.164H206.528z M205.737,88.439h-3.155v2.074
				h2.18v4.896h-5.124v-4.896h2.048v-2.074h-3.006v-0.914h2.988v-1.767h0.914v1.767h3.155V88.439z M203.83,94.469V91.41h-3.278
				v3.059H203.83z"/>
		</g>
		<g enable-background="new    ">
			<path d="M196.069,141.984c-0.07,0.369-0.246,1.022-0.527,1.96l-0.422,1.406v12.261h-0.923v-9.958
				c-0.627,1.271-1.096,2.106-1.406,2.505l-0.536-0.87c1.16-1.852,2.139-4.359,2.936-7.523L196.069,141.984z M207.486,157.611h-0.94
				v-1.213h-8.675v1.213h-0.94v-15.179h10.556V157.611z M206.528,155.52v-12.164h-8.657v12.164H206.528z M205.737,147.003h-3.155
				v2.074h2.18v4.896h-5.124v-4.896h2.048v-2.074h-3.006v-0.914h2.988v-1.767h0.914v1.767h3.155V147.003z M203.83,153.032v-3.059
				h-3.278v3.059H203.83z"/>
		</g>
		<g>
			<g enable-background="new    ">
				<path fill="#231815" d="M160.37,76.91l-3.91,0.306c-0.35-1.543-0.845-2.665-1.485-3.363c-1.063-1.122-2.374-1.683-3.933-1.683
					c-1.252,0-2.352,0.35-3.298,1.049c-1.238,0.903-2.214,2.221-2.928,3.954c-0.713,1.732-1.085,4.201-1.113,7.404
					c0.946-1.441,2.104-2.512,3.473-3.211c1.369-0.698,2.804-1.048,4.304-1.048c2.621,0,4.853,0.965,6.695,2.894
					c1.842,1.931,2.763,4.424,2.763,7.482c0,2.01-0.434,3.877-1.3,5.603s-2.057,3.048-3.571,3.965s-3.232,1.376-5.155,1.376
					c-3.276,0-5.949-1.205-8.017-3.615c-2.068-2.41-3.102-6.382-3.102-11.916c0-6.188,1.143-10.688,3.429-13.499
					c1.995-2.447,4.683-3.67,8.061-3.67c2.52,0,4.584,0.707,6.193,2.119C159.084,72.469,160.049,74.42,160.37,76.91z
					 M144.314,90.716c0,1.354,0.287,2.65,0.862,3.889c0.575,1.237,1.38,2.181,2.414,2.828c1.034,0.648,2.119,0.973,3.255,0.973
					c1.66,0,3.087-0.67,4.281-2.01s1.791-3.16,1.791-5.461c0-2.214-0.59-3.957-1.769-5.232c-1.18-1.273-2.665-1.911-4.457-1.911
					c-1.776,0-3.284,0.638-4.521,1.911C144.934,86.978,144.314,88.648,144.314,90.716z"/>
			</g>
		</g>
		<g>
			<g enable-background="new    ">
				<path fill="#231815" d="M131.764,158.654h-3.932V133.6c-0.947,0.902-2.188,1.807-3.725,2.709
					c-1.537,0.902-2.916,1.58-4.14,2.031v-3.801c2.199-1.033,4.121-2.287,5.767-3.758s2.81-2.896,3.496-4.281h2.533V158.654z"/>
				<path fill="#231815" d="M154.438,158.654v-7.666h-13.894v-3.605l14.614-20.752h3.211v20.752h4.324v3.605h-4.324v7.666H154.438z
					 M154.438,147.383v-14.439l-10.026,14.439H154.438z"/>
			</g>
		</g>
		<g enable-background="new    ">
			<path d="M49.944,84.432c0,0.129-0.469,1.623-1.406,4.482c0.885,1.4,1.327,2.663,1.327,3.788c0,0.727-0.16,1.303-0.479,1.728
				s-1.2,0.643-2.641,0.654l-0.343-0.949l1.371-0.026c0.404-0.012,0.706-0.114,0.905-0.308s0.299-0.454,0.299-0.782
				c0-1.307-0.475-2.628-1.424-3.964c0.838-2.648,1.312-4.189,1.424-4.623h-3.226v14.379h-0.879V83.5h5.071V84.432z M59.973,84.414
				h-1.239v12.814c0,1.031-0.504,1.547-1.512,1.547h-1.934l-0.36-0.914h2.417c0.111,0,0.22-0.056,0.325-0.167
				s0.158-0.217,0.158-0.316V84.414h-7.286V83.5h9.431V84.414z M55.648,94.275h-4.764v-7.453h4.764V94.275z M54.734,93.361v-5.616
				h-2.918v5.616H54.734z"/>
			<path d="M68.665,91.252l-2.013,1.283v6.46h-0.905v-5.924c-1.189,0.604-2.232,1.107-3.129,1.512l-0.378-0.861
				c1.301-0.533,2.47-1.11,3.507-1.731v-3.92h-1.775c-0.258,1.189-0.536,2.18-0.835,2.971l-0.826-0.36
				c0.557-1.576,0.964-3.475,1.222-5.695l0.888,0.22c-0.059,0.574-0.149,1.228-0.272,1.96h1.6v-3.938h0.905v3.938h1.89v0.905h-1.89
				v3.384c0.627-0.352,1.245-0.741,1.854-1.169L68.665,91.252z M77.99,92.878h-2.03v5.089c0,0.246-0.092,0.457-0.277,0.633
				c-0.184,0.176-0.443,0.279-0.777,0.312c-0.334,0.031-0.841,0.048-1.521,0.048c-0.363,0-0.694-0.006-0.993-0.018l-0.308-0.923
				c0.756,0.035,1.342,0.053,1.758,0.053c0.586,0,0.932-0.043,1.037-0.127c0.105-0.085,0.158-0.239,0.158-0.462v-4.605H68.27v-0.905
				h6.768v-1.67h0.923v1.67h2.03V92.878z M77.56,86.233h-3.894v2.522h3.41v0.861h-7.91v-0.861h3.568v-2.522h-4.412v-0.923h4.412
				v-2.065h0.932v2.065h3.894V86.233z M72.374,96.438l-0.809,0.501c-0.475-1.031-1.122-2.016-1.942-2.953l0.791-0.554
				C71.223,94.387,71.876,95.389,72.374,96.438z"/>
			<path d="M87.799,85.082h-2.285v0.703h-0.896v-0.703h-4.271v-0.791h4.271v-1.195h0.896v1.195h2.285V85.082z M87.403,90.25h-5.186
				v8.64h-0.914V86.321h6.1V90.25z M86.489,87.868v-0.721h-4.271v0.721H86.489z M86.489,89.415v-0.773h-4.271v0.773H86.489z
				 M93.257,92.078h-4.614v0.738h3.762v3.067H88.81c0.791,0.662,1.913,1.254,3.366,1.775l-0.431,0.756
				c-1.037-0.387-2.065-0.955-3.085-1.705v2.18h-0.861v-2.382c-1.02,0.773-2.364,1.5-4.034,2.18l-0.536-0.738
				c1.787-0.627,3.126-1.315,4.017-2.065h-3.173v-3.067h3.727v-0.738h-4.641v-0.773h4.641v-0.879h0.844v0.879h4.614V92.078z
				 M87.799,95.128v-1.556h-2.918v1.556H87.799z M87.28,94.442l-0.545,0.466c-0.521-0.311-0.964-0.545-1.327-0.703l0.589-0.448
				C86.431,93.927,86.858,94.155,87.28,94.442z M96.025,85.082H91.78v0.703h-0.923v-0.703h-2.285v-0.791h2.285v-1.195h0.923v1.195
				h4.245V85.082z M91.525,95.128v-1.556h-2.883v1.556H91.525z M95.05,97.826c0,0.27-0.102,0.504-0.303,0.703
				c-0.203,0.199-0.614,0.299-1.235,0.299h-0.835l-0.29-0.932c0.129,0.018,0.287,0.026,0.475,0.026l1.037-0.026
				c0.193,0,0.29-0.108,0.29-0.325V90.25h-5.168v-3.929h6.029V97.826z M90.989,94.311c-0.516,0.299-0.99,0.504-1.424,0.615
				l-0.413-0.598c0.492-0.129,0.952-0.325,1.38-0.589L90.989,94.311z M94.188,87.868v-0.721h-4.28v0.721H94.188z M94.188,89.415
				v-0.773h-4.28v0.773H94.188z"/>
			<path d="M114.096,98.134l-0.642,0.809c-1.934-1.236-3.479-2.667-4.637-4.294c-1.157-1.625-2.02-3.64-2.588-6.042
				c-0.727,4.213-3.179,7.641-7.356,10.283l-0.615-0.817c1.061-0.674,2.083-1.482,3.067-2.426s1.799-1.938,2.443-2.984
				c0.645-1.045,1.143-2.482,1.494-4.311h-6.68V87.42h6.855c0.188-1.477,0.29-2.936,0.308-4.377h1.028
				c-0.059,1.57-0.173,3.029-0.343,4.377h7.374v0.932h-6.671c0.645,2.572,1.532,4.587,2.663,6.043S112.361,97.097,114.096,98.134z"
				/>
		</g>
		<g enable-background="new    ">
			<path d="M47.95,152.013c-0.867,2.074-1.816,3.914-2.848,5.52l-0.809-0.606c0.967-1.307,1.904-3.126,2.812-5.458L47.95,152.013z
				 M47.915,148.91l-0.633,0.756c-0.82-0.803-1.805-1.541-2.953-2.215l0.615-0.756C46.151,147.457,47.141,148.195,47.915,148.91z
				 M48.539,144.067l-0.624,0.756c-0.703-0.68-1.699-1.436-2.988-2.268l0.606-0.773C46.617,142.456,47.619,143.218,48.539,144.067z
				 M59.753,144.595h-9.088c-0.51,0.762-1.084,1.494-1.723,2.197l-0.8-0.58c1.307-1.371,2.329-2.859,3.067-4.465l0.844,0.378
				c-0.246,0.539-0.521,1.061-0.826,1.564h8.525V144.595z M59.973,151.002h-1.512l-0.202,3.199h1.354v0.923h-1.441
				c-0.129,0.85-0.396,1.477-0.8,1.881s-1.075,0.606-2.013,0.606h-1.327l-0.325-0.923h2.109c0.785,0,1.248-0.521,1.389-1.564h-8.051
				c0.363-2.016,0.598-3.39,0.703-4.122h-1.582v-0.923h1.67c0.205-1.494,0.354-2.789,0.448-3.885h8.227
				c-0.029,1.84-0.064,3.135-0.105,3.885h1.459V151.002z M57.521,151.002h-6.75c-0.123,0.955-0.29,2.021-0.501,3.199h7.022
				C57.392,153.088,57.468,152.021,57.521,151.002z M57.67,147.1h-6.407c-0.059,0.592-0.179,1.585-0.36,2.979h6.68L57.67,147.1z
				 M55.596,153.032l-0.589,0.721c-0.838-0.645-1.644-1.154-2.417-1.529l0.545-0.791C54.084,151.96,54.905,152.493,55.596,153.032z
				 M55.781,149.007l-0.615,0.694c-0.803-0.604-1.582-1.081-2.338-1.433l0.589-0.721C54.418,148.052,55.207,148.538,55.781,149.007z
				"/>
			<path d="M78.026,148.427h-4.412v7.646c0,0.305-0.098,0.59-0.294,0.857c-0.196,0.266-0.432,0.436-0.708,0.51
				c-0.275,0.072-1.087,0.109-2.435,0.109c-0.398,0-0.782-0.006-1.151-0.018l-0.36-0.967c0.592,0.035,1.195,0.053,1.811,0.053
				c0.902,0,1.438-0.014,1.608-0.039c0.17-0.027,0.309-0.116,0.417-0.269s0.163-0.308,0.163-0.466v-7.26
				c-2.209,3.668-5.484,6.164-9.826,7.488l-0.598-0.844c4.412-1.266,7.538-3.533,9.378-6.803h-7.594l0.756-5.238h-1.318v-0.993
				h13.614v0.993h-3.463v4.307h4.412V148.427z M72.665,147.495v-4.307h-6.899l-0.624,4.307H72.665z"/>
		</g>
	</g>
</g>
<g id="D-01">
</g>
<g id="D-02" display="none">
</g>
</svg>
