<!-- Generator: Adobe Illustrator 17.0.0, SVG Export Plug-In  -->
<svg version="1.1"
	 xmlns="http://www.w3.org/2000/svg" xmlns:xlink="http://www.w3.org/1999/xlink" xmlns:a="http://ns.adobe.com/AdobeSVGViewerExtensions/3.0/"
	 x="0px" y="0px" width="50px" height="46px" viewBox="0 0 50 46" enable-background="new 0 0 50 46" xml:space="preserve">
<defs>
</defs>
<g>
	<g>
		<path fill="#004483" d="M41.669,45.276H8.328c-0.407,0-0.737-0.33-0.737-0.737V17.138c0-0.407,0.33-0.737,0.737-0.737
			c0.407,0,0.737,0.33,0.737,0.737v26.665h31.868V17.138c0-0.407,0.33-0.737,0.737-0.737c0.407,0,0.737,0.33,0.737,0.737v27.402
			C42.406,44.946,42.078,45.276,41.669,45.276z"/>
		<path fill="#004483" d="M48.576,24.462c-0.181,0-0.364-0.066-0.507-0.2L24.998,2.475L1.93,24.261
			c-0.296,0.28-0.766,0.265-1.042-0.029c-0.278-0.296-0.267-0.762,0.029-1.042L24.491,0.926c0.284-0.27,0.728-0.268,1.014,0
			l23.578,22.263c0.295,0.28,0.308,0.746,0.029,1.042C48.966,24.384,48.772,24.462,48.576,24.462z"/>
		<path fill="#004483" d="M30.88,45.276H19.12c-0.407,0-0.737-0.33-0.737-0.737V28.572c0-0.407,0.33-0.737,0.737-0.737h11.76
			c0.407,0,0.737,0.33,0.737,0.737v15.967C31.617,44.946,31.287,45.276,30.88,45.276z M19.857,43.802h10.287V29.309H19.857V43.802z"
			/>
	</g>
</g>
<rect x="0" y="0" fill="none" width="50" height="46"/>
</svg>
