<?xml version="1.0" encoding="utf-8"?>
<!-- Generator: Adobe Illustrator 17.0.0, SVG Export Plug-In . SVG Version: 6.00 Build 0)  -->
<!DOCTYPE svg PUBLIC "-//W3C//DTD SVG 1.1//EN" "http://www.w3.org/Graphics/SVG/1.1/DTD/svg11.dtd">
<svg version="1.1" xmlns="http://www.w3.org/2000/svg" xmlns:xlink="http://www.w3.org/1999/xlink" x="0px" y="0px"
	 width="24.804px" height="27.541px" viewBox="0 0 24.804 27.541" enable-background="new 0 0 24.804 27.541" xml:space="preserve">
<g id="bg">
</g>
<g id="footer">
</g>
<g id="A-背景">
</g>
<g id="A-雪花左右">
</g>
<g id="A-選單">
</g>
<g id="A-主雪花_x28_一起轉_x29_">
</g>
<g id="A-指標">
</g>
<g id="A-小標">
</g>
<g id="A-主文">
</g>
<g id="A-上文">
</g>
<g id="B-index">
</g>
<g id="圖層_16" display="none">
</g>
<g id="圖層_3">
</g>
<g id="A-04" display="none">
</g>
<g id="A-03" display="none">
</g>
<g id="A-02" display="none">
</g>
<g id="A-01">
</g>
<g id="A-選單_1_">
</g>
<g id="B-04" display="none">
</g>
<g id="B-index_1_">
</g>
<g id="B-03" display="none">
</g>
<g id="B-02" display="none">
</g>
<g id="B-01">
	<path fill="#FFFFFF" d="M24.784,16.843c-0.083-0.305-0.399-0.483-0.701-0.401l-3.964,1.08l-2.845-1.626l4.448-1.61
		c0.226-0.082,0.377-0.297,0.376-0.538s-0.152-0.455-0.378-0.537l-4.441-1.587l2.832-1.628l3.966,1.071
		c0.05,0.013,0.1,0.02,0.15,0.02c0.251,0,0.482-0.168,0.551-0.422c0.082-0.304-0.098-0.618-0.402-0.7L21.51,9.195l2.62-1.506
		c0.273-0.157,0.368-0.506,0.211-0.779c-0.158-0.273-0.505-0.368-0.779-0.211l-2.62,1.506l0.773-2.864
		c0.082-0.304-0.098-0.618-0.402-0.7c-0.301-0.082-0.618,0.097-0.7,0.402L19.541,9.01l-2.868,1.648L17.51,5.96
		c0.042-0.237-0.068-0.475-0.277-0.595c-0.208-0.119-0.469-0.096-0.654,0.06l-3.605,3.062V5.208l2.905-2.905
		c0.223-0.223,0.223-0.584,0-0.807s-0.584-0.223-0.807,0l-2.098,2.098V0.571C12.973,0.256,12.717,0,12.402,0
		c-0.315,0-0.571,0.256-0.571,0.571v3.023L9.734,1.496c-0.223-0.223-0.584-0.223-0.807,0c-0.223,0.223-0.223,0.584,0,0.807
		l2.905,2.905v3.299l-3.64-3.066C8.007,5.287,7.745,5.263,7.537,5.384C7.328,5.505,7.218,5.743,7.262,5.98l0.854,4.683L5.252,9.026
		L4.171,5.063C4.088,4.759,3.773,4.578,3.47,4.662C3.166,4.745,2.987,5.059,3.069,5.363l0.78,2.862l-2.624-1.5
		C0.952,6.569,0.603,6.664,0.447,6.937S0.385,7.559,0.659,7.716l2.624,1.499l-2.862,0.78c-0.304,0.083-0.483,0.397-0.401,0.701
		c0.07,0.254,0.299,0.421,0.55,0.421c0.05,0,0.1-0.007,0.151-0.021l3.964-1.08l2.845,1.626l-4.446,1.61
		c-0.226,0.082-0.377,0.297-0.377,0.538s0.152,0.455,0.379,0.537l4.441,1.587L4.695,17.54l-3.966-1.071
		c-0.306-0.083-0.618,0.098-0.7,0.402c-0.082,0.304,0.098,0.618,0.402,0.7l2.864,0.773l-2.622,1.507
		c-0.273,0.157-0.368,0.506-0.211,0.779c0.106,0.184,0.298,0.287,0.495,0.287c0.096,0,0.194-0.025,0.284-0.076l2.621-1.506
		L3.09,22.199c-0.082,0.304,0.098,0.618,0.402,0.7c0.05,0.013,0.1,0.019,0.149,0.019c0.252,0,0.482-0.167,0.551-0.422l1.071-3.966
		l2.869-1.648l-0.837,4.699c-0.042,0.237,0.069,0.475,0.277,0.595c0.088,0.051,0.187,0.076,0.284,0.076
		c0.132,0,0.264-0.046,0.369-0.135l3.605-3.062v3.277l-2.905,2.905c-0.223,0.223-0.223,0.584,0,0.807
		c0.111,0.111,0.257,0.167,0.404,0.167s0.292-0.056,0.404-0.167l2.098-2.098v3.023c0,0.316,0.256,0.571,0.571,0.571
		s0.571-0.255,0.571-0.571v-3.023l2.098,2.098c0.111,0.111,0.257,0.167,0.404,0.167s0.292-0.056,0.404-0.167
		c0.223-0.223,0.223-0.584,0-0.807l-2.905-2.905v-3.299l3.64,3.065c0.185,0.155,0.446,0.177,0.654,0.058
		c0.208-0.121,0.318-0.36,0.275-0.596l-0.854-4.683l2.865,1.637l1.08,3.963c0.069,0.254,0.299,0.421,0.55,0.421
		c0.05,0,0.1-0.006,0.151-0.02c0.304-0.083,0.484-0.397,0.401-0.701l-0.78-2.862l2.624,1.499c0.089,0.051,0.187,0.075,0.283,0.075
		c0.198,0,0.391-0.103,0.496-0.288c0.156-0.273,0.061-0.622-0.212-0.779l-2.624-1.499l2.862-0.78
		C24.687,17.461,24.867,17.147,24.784,16.843z M19.84,13.755l-3.866,1.4l-2.424-1.385l2.427-1.394L19.84,13.755z M16.108,7.321
		L15.382,11.4l-2.409,1.384V9.983L16.108,7.321z M8.67,7.337L11.831,10v2.788l-2.42-1.383L8.67,7.337z M4.964,13.786l3.866-1.4
		l2.424,1.385l-2.427,1.394L4.964,13.786z M8.697,20.219l0.727-4.079l2.408-1.384v2.8L8.697,20.219z M16.135,20.203l-3.162-2.662
		v-2.788l2.42,1.383L16.135,20.203z"/>
</g>
<g id="C-index">
</g>
<g id="C-mouseover">
</g>
<g id="C-01" display="none">
</g>
<g id="D-01">
</g>
<g id="D-02" display="none">
</g>
</svg>
