<!-- Generator: Adobe Illustrator 17.0.0, SVG Export Plug-In  -->
<svg version="1.1"
	 xmlns="http://www.w3.org/2000/svg" xmlns:xlink="http://www.w3.org/1999/xlink" xmlns:a="http://ns.adobe.com/AdobeSVGViewerExtensions/3.0/"
	 x="0px" y="0px" width="169.303px" height="169.303px" viewBox="0 0 169.303 169.303" enable-background="new 0 0 169.303 169.303"
	 xml:space="preserve">
<defs>
</defs>
<g>
	<circle fill="#BECAD3" cx="84.651" cy="84.651" r="84.651"/>
</g>
<g>
	<path fill="#FFFFFF" d="M53.224,102.736c-1.787,5.761-3.58,10.386-5.38,13.875l-3.137-2.555c2.104-4.293,3.836-8.891,5.192-13.793
		L53.224,102.736z M54.054,95.508l-2.679,2.846c-1.814-2.022-3.968-3.905-6.46-5.65l2.68-2.908
		C49.685,91.235,51.839,93.14,54.054,95.508z M54.74,84.665l-2.763,2.68c-2.049-2.327-4.147-4.259-6.293-5.796l2.929-2.638
		C50.981,80.684,53.023,82.602,54.74,84.665z M82.096,107.971H69.114c-1.911,4.681-6.688,7.574-14.332,8.683l-1.952-3.448
		c6.078-0.665,10.178-2.41,12.296-5.234H54.054v-3.282h12.173c0.152-1.052,0.207-1.717,0.166-1.994l3.718,0.042
		c0.042,0.637-0.021,1.287-0.187,1.952h12.172V107.971z M80.517,100.264c0,2.077-1.246,3.116-3.738,3.116
		c-0.457,0-0.907-0.027-1.351-0.083l-1.163-3.282l1.953-0.041c0.166,0,0.321-0.09,0.467-0.271c0.146-0.18,0.218-0.359,0.218-0.54
		v-14H59.476v18.175h-3.718V81.985h8.849c0.567-0.831,1.121-1.814,1.661-2.949l3.656,1.018c-0.305,0.623-0.686,1.267-1.143,1.932
		h11.735V100.264z M75.594,88.694c-1.385,0.305-3.289,0.561-5.712,0.769v3.739h5.629v2.68h-3.759
		c1.301,0.747,2.464,1.502,3.489,2.264l-1.911,2.514c-1.246-1.039-2.396-1.862-3.448-2.473v3.49h-3.344V98.52
		c-1.537,1.481-2.86,2.575-3.968,3.281l-2.472-2.305c1.454-0.762,3.032-1.967,4.736-3.614h-4.093v-2.68h5.796v-3.448
		c-1.897,0.097-3.49,0.125-4.777,0.083l-1.185-2.68c5.4,0.098,9.95-0.242,13.647-1.018L75.594,88.694z M65.251,91.894l-2.285,0.976
		c-0.554-0.595-1.149-1.135-1.786-1.62l2.16-1.101C63.81,90.495,64.447,91.076,65.251,91.894z M82.533,113.974l-2.431,2.887
		c-2.964-1.842-6.709-3.628-11.237-5.358l2.181-2.93C75.061,110.041,78.89,111.841,82.533,113.974z M75.325,90.772
		c-0.374,0.499-1.011,1.171-1.911,2.015l-2.368-1.163c0.679-0.595,1.344-1.26,1.994-1.994L75.325,90.772z"/>
	<path fill="#FFFFFF" d="M94.31,83.709l-3.074,1.496c-1.274-1.8-2.306-3.13-3.095-3.988l2.929-1.496
		C92.011,80.76,93.091,82.089,94.31,83.709z M106.254,97.086c0,0.775-0.287,1.492-0.862,2.15c-0.574,0.657-2.102,0.931-4.58,0.82
		l-0.976-3.24c0.678,0.083,1.419,0.124,2.222,0.124c0.499,0,0.748-0.297,0.748-0.893v-6.959h-3.78v10.76h-3.489v-10.76h-3.863
		v11.466h-3.448V85.766h7.312v-6.418h3.489v6.418h7.229V97.086z M121.5,111.191c0,1.398-0.392,2.347-1.174,2.845
		c-0.782,0.499-2.163,0.748-4.144,0.748c-0.997,0-1.952-0.034-2.866-0.104l-1.06-3.614c0.748,0.027,2.34,0.041,4.777,0.041
		c0.471,0,0.706-0.27,0.706-0.81v-3.905h-9.907v10.033h-3.698v-10.033h-9.99v8.246h-3.697v-11.611h13.688v-2.284h3.698v2.284H121.5
		V111.191z M94.913,90.731c-0.25,2.575-0.582,4.777-0.997,6.604l-1.953-0.519c0.443-2.063,0.769-4.203,0.977-6.419L94.913,90.731z
		 M102.39,95.071l-1.953,0.686c-0.166-1.523-0.505-3.227-1.018-5.11l1.953-0.498C101.884,91.728,102.224,93.368,102.39,95.071z
		 M106.897,81.549c-1.19,1.288-2.438,2.493-3.738,3.614l-3.24-1.578c1.412-1.025,2.721-2.243,3.926-3.656L106.897,81.549z
		 M124.719,98.187l-1.62,3.137c-2.438-0.872-4.701-2.021-6.792-3.448c-2.175,1.537-4.716,2.617-7.623,3.241l-1.662-3.241
		c2.216-0.235,4.376-0.969,6.48-2.201c-1.302-1.468-2.271-2.832-2.908-4.092l2.722-1.87c0.845,1.469,1.751,2.659,2.721,3.573
		c1.149-1.855,1.876-3.939,2.182-6.252h-5.608c-1.108,1.786-2.32,3.379-3.636,4.777l-2.16-2.784
		c2.465-2.783,4.362-6.127,5.691-10.032l3.365,0.769c-0.36,1.191-0.838,2.424-1.434,3.697h10.033v3.573h-2.805
		c-0.471,3.447-1.481,6.231-3.032,8.35C120.142,96.505,122.172,97.44,124.719,98.187z"/>
</g>
<g>
	<path fill="#FFFFFF" d="M74.105,63.098h-3.902l-1.551-4.035h-7.1l-1.467,4.035h-3.805L63.2,45.335h3.792L74.105,63.098z
		 M67.502,56.07l-2.448-6.592l-2.398,6.592H67.502z"/>
	<path fill="#FFFFFF" d="M76.975,45.335h3.587v9.62c0,1.527,0.044,2.517,0.133,2.969c0.153,0.727,0.52,1.311,1.097,1.751
		s1.367,0.66,2.369,0.66c1.018,0,1.785-0.208,2.302-0.624s0.828-0.927,0.934-1.532c0.104-0.606,0.157-1.612,0.157-3.018v-9.826
		h3.586v9.329c0,2.133-0.097,3.64-0.29,4.52c-0.194,0.881-0.552,1.624-1.072,2.229c-0.521,0.606-1.218,1.089-2.091,1.448
		c-0.872,0.359-2.011,0.539-3.417,0.539c-1.696,0-2.982-0.195-3.858-0.588c-0.877-0.392-1.569-0.9-2.078-1.526
		s-0.845-1.282-1.006-1.969c-0.234-1.018-0.352-2.521-0.352-4.508V45.335z"/>
	<path fill="#FFFFFF" d="M95.901,45.335h6.555c1.479,0,2.605,0.113,3.381,0.339c1.042,0.307,1.935,0.853,2.678,1.636
		s1.309,1.743,1.696,2.878s0.581,2.534,0.581,4.198c0,1.462-0.182,2.723-0.545,3.78c-0.444,1.293-1.078,2.339-1.902,3.139
		c-0.622,0.605-1.462,1.078-2.521,1.417c-0.791,0.251-1.85,0.376-3.174,0.376h-6.749V45.335z M99.487,48.34v11.765h2.678
		c1.002,0,1.725-0.056,2.169-0.169c0.582-0.146,1.064-0.392,1.448-0.739s0.696-0.919,0.938-1.715
		c0.243-0.795,0.364-1.88,0.364-3.253s-0.121-2.428-0.364-3.163c-0.242-0.734-0.581-1.309-1.018-1.72
		c-0.436-0.412-0.989-0.691-1.66-0.837c-0.501-0.112-1.482-0.169-2.944-0.169H99.487z"/>
</g>
</svg>
