<?xml version="1.0" encoding="utf-8"?>
<!-- Generator: Adobe Illustrator 17.0.0, SVG Export Plug-In . SVG Version: 6.00 Build 0)  -->
<!DOCTYPE svg PUBLIC "-//W3C//DTD SVG 1.1//EN" "http://www.w3.org/Graphics/SVG/1.1/DTD/svg11.dtd">
<svg version="1.1" id="圖層_1" xmlns="http://www.w3.org/2000/svg" xmlns:xlink="http://www.w3.org/1999/xlink" x="0px" y="0px"
	 width="100px" height="90px" viewBox="0 0 100 90" enable-background="new 0 0 100 90" xml:space="preserve">
<g id="bg">
</g>
<g id="footer">
</g>
<g id="A-背景">
</g>
<g id="A-雪花左右">
</g>
<g id="A-選單">
</g>
<g id="A-主雪花_x28_一起轉_x29_">
</g>
<g id="A-指標">
</g>
<g id="A-小標">
</g>
<g id="A-主文">
</g>
<g id="A-上文">
</g>
<g id="B-index">
</g>
<g id="圖層_16" display="none">
</g>
<g id="圖層_3">
</g>
<g id="A-04" display="none">
</g>
<g id="A-03" display="none">
</g>
<g id="A-02" display="none">
</g>
<g id="A-01">
</g>
<g id="A-選單_1_">
</g>
<g id="B-04" display="none">
</g>
<g id="B-03" display="none">
</g>
<g id="B-02" display="none">
</g>
<g id="B-01">
</g>
<g id="C-index">
</g>
<g id="C-mouseover">
</g>
<g id="C-01" display="none">
</g>
<g id="D-01">
</g>
<g id="XMLID_523_">
	<path id="XMLID_1946_" fill="#FFFFFF" d="M63.523,51.395c-0.782,0-1.416-0.633-1.416-1.416v-4.291c0-0.782,0.633-1.416,1.416-1.416
		c0.782,0,1.416,0.633,1.416,1.416v4.291C64.939,50.761,64.306,51.395,63.523,51.395z"/>
	<path id="XMLID_1945_" fill="#FFFFFF" d="M63.523,74.413c-0.782,0-1.416-0.633-1.416-1.416v-4.292c0-0.782,0.633-1.416,1.416-1.416
		c0.782,0,1.416,0.633,1.416,1.416v4.292C64.939,73.778,64.306,74.413,63.523,74.413z"/>
	<path id="XMLID_1940_" fill="#FFFFFF" d="M63.525,80.528c-11.682,0-21.185-9.504-21.185-21.187s9.504-21.187,21.185-21.187
		S84.71,47.658,84.71,59.341S75.207,80.528,63.525,80.528z M63.525,40.987c-10.121,0-18.354,8.235-18.354,18.356
		s8.233,18.356,18.354,18.356s18.354-8.235,18.354-18.356S73.645,40.987,63.525,40.987z"/>
	<path id="XMLID_1936_" fill="#FFFFFF" d="M64.38,69.441c-0.515,0-1.046-0.03-1.59-0.091c-1.818-0.205-3.577-0.791-5.438-1.413
		l-0.387-0.127c-0.741-0.246-1.143-1.048-0.897-1.789c0.246-0.744,1.048-1.145,1.791-0.899l0.389,0.13
		c1.792,0.597,3.337,1.111,4.861,1.283c3.171,0.357,5.05-0.611,5.75-1.64c0.439-0.644,0.488-1.366,0.135-2.03
		c-0.701-1.322-2.707-2.107-5.369-2.107c-0.032,0-0.061,0-0.092,0c-3.863,0-6.773-1.311-7.989-3.597
		c-0.834-1.568-0.719-3.404,0.304-4.908c1.534-2.251,4.707-3.348,8.505-2.917c1.846,0.207,3.636,0.805,5.532,1.438l0.308,0.102
		c0.743,0.248,1.143,1.048,0.897,1.792c-0.248,0.738-1.049,1.147-1.791,0.896l-0.311-0.105c-1.826-0.608-3.404-1.134-4.953-1.309
		c-3.208-0.373-5.126,0.639-5.845,1.693c-0.435,0.642-0.487,1.347-0.147,1.988c0.699,1.313,2.748,2.096,5.489,2.096
		c0.03-0.003,0.061-0.003,0.092,0c3.784,0,6.651,1.313,7.87,3.611c0.844,1.59,0.733,3.44-0.296,4.949
		C69.909,68.383,67.422,69.441,64.38,69.441z"/>
	<path id="XMLID_1934_" fill="#FFFFFF" d="M61.01,20.073c-0.782,0-1.416-0.633-1.416-1.416v-6.354H22.195v4.939h6.306
		c0.782,0,1.416,0.633,1.416,1.416s-0.633,1.416-1.416,1.416h-7.722c-0.782,0-1.416-0.633-1.416-1.416v-7.77
		c0-0.782,0.633-1.416,1.416-1.416H61.01c0.782,0,1.416,0.633,1.416,1.416v7.77C62.425,19.44,61.793,20.073,61.01,20.073z"/>
	<path id="XMLID_1511_" fill="#FFFFFF" d="M68.575,27.846H57.112c-0.782,0-1.416-0.633-1.416-1.416s0.633-1.416,1.416-1.416H67.16
		v-4.942H29.761v6.357c0,0.782-0.633,1.416-1.416,1.416s-1.416-0.633-1.416-1.416v-7.773c0-0.782,0.633-1.416,1.416-1.416h40.231
		c0.782,0,1.416,0.633,1.416,1.416v7.773C69.991,27.212,69.358,27.846,68.575,27.846z"/>
	<path id="XMLID_1134_" fill="#FFFFFF" d="M56.935,35.619c-0.782,0-1.416-0.633-1.416-1.416v-6.357H18.122v6.357
		c0,0.782-0.633,1.416-1.416,1.416c-0.782,0-1.416-0.633-1.416-1.416V26.43c0-0.782,0.633-1.416,1.416-1.416h40.23
		c0.782,0,1.416,0.633,1.416,1.416v7.773C58.35,34.985,57.718,35.619,56.935,35.619z"/>
	<path id="XMLID_961_" fill="#FFFFFF" d="M16.705,43.39c-0.782,0-1.416-0.633-1.416-1.416v-7.771c0-0.782,0.633-1.416,1.416-1.416
		h40.23c0.782,0,1.416,0.633,1.416,1.416v5.668c0,0.782-0.633,1.416-1.416,1.416c-0.782,0-1.416-0.633-1.416-1.416v-4.252H18.122
		v6.354C18.122,42.756,17.488,43.39,16.705,43.39z"/>
	<path id="XMLID_959_" fill="#FFFFFF" d="M16.705,51.163c-0.782,0-1.416-0.633-1.416-1.416v-7.773c0-0.782,0.633-1.416,1.416-1.416
		h37.016c0.782,0,1.416,0.633,1.416,1.416c0,0.782-0.633,1.416-1.416,1.416h-35.6v6.357C18.122,50.529,17.488,51.163,16.705,51.163z
		"/>
	<path id="XMLID_847_" fill="#FFFFFF" d="M16.705,58.932c-0.782,0-1.416-0.633-1.416-1.416v-7.771c0-0.782,0.633-1.416,1.416-1.416
		h29.34c0.782,0,1.416,0.633,1.416,1.416c0,0.782-0.633,1.416-1.416,1.416H18.122v6.354C18.122,58.299,17.488,58.932,16.705,58.932z
		"/>
	<path id="XMLID_813_" fill="#FFFFFF" d="M16.705,66.705c-0.782,0-1.416-0.633-1.416-1.416v-7.773c0-0.782,0.633-1.416,1.416-1.416
		h26.748c0.782,0,1.416,0.633,1.416,1.416c0,0.782-0.633,1.416-1.416,1.416H18.122v6.357C18.122,66.072,17.488,66.705,16.705,66.705
		z"/>
	<path id="XMLID_797_" fill="#FFFFFF" d="M48.854,74.475H16.705c-0.782,0-1.416-0.633-1.416-1.416v-7.77
		c0-0.782,0.633-1.416,1.416-1.416h27.745c0.782,0,1.416,0.633,1.416,1.416c0,0.782-0.633,1.416-1.416,1.416H18.122v4.939h30.733
		c0.782,0,1.416,0.633,1.416,1.416C50.269,73.843,49.637,74.475,48.854,74.475z"/>
</g>
</svg>
