<?xml version="1.0" encoding="utf-8"?>
<!-- Generator: Adobe Illustrator 17.0.0, SVG Export Plug-In . SVG Version: 6.00 Build 0)  -->
<!DOCTYPE svg PUBLIC "-//W3C//DTD SVG 1.1//EN" "http://www.w3.org/Graphics/SVG/1.1/DTD/svg11.dtd">
<svg version="1.1" xmlns="http://www.w3.org/2000/svg" xmlns:xlink="http://www.w3.org/1999/xlink" x="0px" y="0px"
	 width="294.681px" height="21.239px" viewBox="0 0 294.681 21.239" enable-background="new 0 0 294.681 21.239"
	 xml:space="preserve">
<g id="bg">
</g>
<g id="footer">
</g>
<g id="A-背景">
</g>
<g id="A-雪花左右">
</g>
<g id="A-選單">
</g>
<g id="A-主雪花_x28_一起轉_x29_">
</g>
<g id="A-指標">
</g>
<g id="A-小標">
</g>
<g id="A-主文">
</g>
<g id="A-上文">
</g>
<g id="B-index">
</g>
<g id="圖層_16" display="none">
</g>
<g id="圖層_3">
	<g>
		<g>
			<g id="XMLID_4539_">
				<path id="XMLID_4577_" fill="#F1B022" d="M3.723,12.254c0,0.362-0.021,0.702-0.042,1H18.7v1.511h-2.085l1.043,1.042
					c0.085,0.086,0.127,0.192,0.127,0.277c0,0.127-0.171,0.17-0.511,0.17c-0.659,0.34-1.318,0.681-1.978,0.979
					c1.021,0.447,2.383,0.808,4.064,1.106l-1.085,1.659c-2.234-0.532-3.978-1.234-5.233-2.085c-0.979-0.659-2-1.702-3.021-3.148
					H7.638v2.872c1.276-0.107,2.51-0.235,3.744-0.383v1.489c-1.405,0.212-3.639,0.532-6.659,0.915
					c-0.128,0.213-0.277,0.34-0.404,0.34c-0.127,0-0.213-0.107-0.234-0.298l-0.426-1.787c0.724-0.042,1.426-0.085,2.149-0.127
					v-3.021H3.553c-0.086,0.638-0.191,1.255-0.34,1.808c-0.255,0.957-0.745,2.148-1.468,3.595L0,19.317
					c0.702-1.191,1.191-2.234,1.447-3.17c0.34-1.319,0.532-2.617,0.532-3.893V8.531h16.637v1.574H3.723V12.254z M16.36,1.552v6.064
					H3.978V1.552H16.36z M16.871,10.934v1.405H4.978v-1.405H16.871z M14.615,3.957V2.957H5.723v0.999H14.615z M14.615,5.191H5.723
					v0.999h8.893V5.191z M13.701,16.381c0.957-0.51,1.787-1.064,2.51-1.616H11.85C12.446,15.445,13.062,15.977,13.701,16.381z"/>
				<path id="XMLID_4572_" fill="#F1B022" d="M27.073,9.935c0.213,0.064,0.34,0.149,0.34,0.256c0,0.063-0.063,0.149-0.17,0.256
					c-0.128,0.043-0.34,0.319-0.596,0.829h4.255V9.53l1.744,0.128c0.319,0.043,0.489,0.127,0.489,0.276
					c0,0.107-0.107,0.276-0.32,0.511v0.829h6.552v1.659h-6.552v1.744h5.468v1.575h-5.468v1.66h7.382v1.66h-18.19v-1.66h8.894v-1.66
					h-5.234v-1.575h5.234v-1.744h-5.149c-0.553,0.936-1.148,1.83-1.829,2.66l-1.829-1c1.362-1.446,2.467-3.191,3.318-5.233
					L27.073,9.935z M38.221,1.552v7.553H24.754V1.552H38.221z M36.306,4.616V3.212h-9.637v1.404H36.306z M36.306,6.106h-9.637v1.34
					h9.637V6.106z"/>
				<path id="XMLID_4567_" fill="#F1B022" d="M48.338,9.935c0.213,0.064,0.34,0.149,0.34,0.256c0,0.063-0.063,0.149-0.17,0.256
					c-0.128,0.043-0.34,0.319-0.596,0.829h4.255V9.53l1.744,0.128c0.319,0.043,0.489,0.127,0.489,0.276
					c0,0.107-0.107,0.276-0.32,0.511v0.829h6.552v1.659h-6.552v1.744h5.468v1.575h-5.468v1.66h7.382v1.66h-18.19v-1.66h8.894v-1.66
					h-5.234v-1.575h5.234v-1.744h-5.149c-0.553,0.936-1.148,1.83-1.829,2.66l-1.829-1c1.362-1.446,2.467-3.191,3.318-5.233
					L48.338,9.935z M59.486,1.552v7.553H46.019V1.552H59.486z M57.571,4.616V3.212h-9.637v1.404H57.571z M57.571,6.106h-9.637v1.34
					h9.637V6.106z"/>
				<path id="XMLID_4560_" fill="#F1B022" d="M71.603,8.191v1.575h-4.021c-0.149,0.681-0.298,1.362-0.469,1.999h3.915
					c-0.171,2.469-0.383,4.128-0.596,4.957c-0.212,1.192-0.681,2-1.446,2.468c-0.681,0.425-1.787,0.638-3.362,0.638l-0.51-1.659
					c1.765,0,2.85-0.234,3.255-0.702c0.34-0.425,0.637-1.829,0.915-4.212H66.71c-0.191,0.638-0.383,1.255-0.596,1.829l-1.744-0.404
					c0.596-1.702,1.042-3.34,1.382-4.914h-1.638V8.191H71.603z M70.773,1.787v4.999h-5.914V1.787H70.773z M69.113,3.212h-2.574
					v2.149h2.574V3.212z M77.347,0.851c0.319,0.043,0.489,0.127,0.489,0.276c0,0.085-0.127,0.234-0.34,0.425v0.405h4.489v1.34
					h-4.489v1.065h5.574v3.34h-1.744V5.872h-3.659v1.382l3.149-0.553l0.17,1.405L77.666,8.68v0.425c0,0.681,0.149,0.999,0.489,0.999
					h2c0.298,0,0.511-0.063,0.681-0.191c0.128-0.085,0.277-0.446,0.404-1.064l1.66,0.511c-0.191,0.808-0.469,1.34-0.852,1.574
					c-0.403,0.277-0.915,0.404-1.553,0.404h-2.574c-1.277,0-1.914-0.425-1.914-1.319V8.956l-1.83,0.32L74.092,7.85l1.915-0.32V5.872
					h-2.086v3.723c0,2.17-0.191,4.127-0.574,5.829c-0.256,1.277-0.787,2.872-1.574,4.808l-1.744-0.83
					c0.766-1.66,1.276-3.127,1.553-4.404c0.383-1.829,0.595-3.638,0.595-5.404V4.361h3.49V0.702L77.347,0.851z M76.879,12.531
					c0.234,0.042,0.361,0.127,0.361,0.234c0,0.17-0.107,0.319-0.319,0.405c-0.064,0.595-0.085,1.169-0.085,1.68
					c0,0.894-0.107,1.702-0.298,2.383c-0.149,0.532-0.404,1.021-0.745,1.531c-0.319,0.426-0.766,0.851-1.362,1.319l-1.829-0.766
					c0.638-0.34,1.127-0.723,1.489-1.106c0.383-0.404,0.638-0.851,0.787-1.341c0.191-0.51,0.298-1.17,0.298-2.021v-2.51
					L76.879,12.531z M80.432,12.701c0.255,0.042,0.383,0.149,0.383,0.32c0,0.17-0.128,0.34-0.362,0.51
					c-0.212,0.127-0.298,0.34-0.298,0.638v2.425c0,0.574,0.064,0.999,0.234,1.298c0.128,0.213,0.362,0.298,0.745,0.34
					c0.213-0.043,0.383-0.106,0.511-0.212c0.17-0.128,0.297-0.511,0.425-1.192l1.659,0.745c-0.213,0.936-0.469,1.531-0.766,1.808
					c-0.277,0.234-0.596,0.361-0.979,0.361h-1.234c-0.787,0-1.383-0.255-1.787-0.744c-0.383-0.469-0.553-1.128-0.553-2v-4.574
					L80.432,12.701z"/>
				<path id="XMLID_4550_" fill="#F1B022" d="M92.527,4.446v1.744h-7.148V4.446H92.527z M92.612,13.169v6.744h-1.829v-0.915h-3.319
					v0.999h-1.829v-6.828H92.612z M91.868,1.467v1.66h-5.659v-1.66H91.868z M91.868,7.531V9.19h-5.659V7.531H91.868z M91.868,10.36
					v1.66h-5.659v-1.66H91.868z M90.783,17.424v-2.659h-3.319v2.659H90.783z M103.909,1.701v1.744H99.76v7.574h4.745v1.829H99.76
					v7.148h-2v-7.148h-4.893V11.02h4.893V3.446h-4.403V1.701H103.909z M95.527,6.999c0.213,0.724,0.575,1.468,1.085,2.277
					l-1.914,0.915c-0.341-0.787-0.639-1.575-0.852-2.34c-0.256-0.83-0.447-1.744-0.574-2.723l1.68-0.425
					C95.081,5.552,95.272,6.318,95.527,6.999z M104.25,5.361c-0.298,1.489-0.851,3.064-1.66,4.744l-1.829-0.829
					c0.893-1.405,1.511-3,1.829-4.745L104.25,5.361z"/>
				<path id="XMLID_4544_" fill="#F1B022" d="M109.325,13.361c0.149,0.042,0.234,0.106,0.234,0.234c0,0.149-0.127,0.319-0.34,0.489
					c-0.34,1.808-0.744,3.362-1.233,4.659l-1.66-0.574c0.298-0.618,0.553-1.298,0.766-2.042c0.256-0.958,0.468-2.022,0.638-3.192
					L109.325,13.361z M112.005,1.34c0.191,0.107,0.298,0.191,0.298,0.276c0,0.171-0.128,0.319-0.34,0.425l-2.489,3.234
					c0.468,0.383,0.915,0.787,1.362,1.17l2.298-3.149l1.362,0.894c0.127,0.085,0.212,0.213,0.212,0.34
					c0,0.127-0.149,0.213-0.404,0.256l-4.149,5.148c1.128-0.107,2.234-0.234,3.319-0.404c-0.171-0.489-0.34-0.957-0.511-1.425
					l1.66-0.32c0.574,1.404,0.999,2.766,1.255,4.064l-1.66,0.34c-0.106-0.426-0.212-0.83-0.297-1.213
					c-0.638,0.106-1.341,0.212-2.128,0.34v8.679h-1.744v-8.425c-0.808,0.128-1.68,0.235-2.574,0.362
					c-0.127,0.212-0.276,0.319-0.404,0.319c-0.127,0-0.191-0.085-0.191-0.276l-0.404-1.702c0.553-0.042,1.084-0.085,1.616-0.127
					l1.681-2.277c-1.192-1.064-2.255-1.978-3.213-2.744l0.999-1.341c0.213,0.17,0.447,0.34,0.66,0.489l2.425-3.638L112.005,1.34z
					 M114.644,15.871c0.468-0.808,0.83-1.638,1.084-2.447c0.681-2.106,1-4.212,0.979-6.318V3.446h-1.404V1.872h6.808l0.489-0.256
					c0.171,0,0.34,0.064,0.51,0.171l1.043,0.659c0.127,0.085,0.191,0.17,0.191,0.256c0,0.212-0.17,0.404-0.489,0.595l-1.511,4.404
					h1.575c0.149-0.107,0.234-0.17,0.276-0.17c0.128,0,0.256,0.064,0.383,0.17l0.936,0.83c0.107,0.085,0.171,0.191,0.171,0.319
					c0,0.149-0.213,0.32-0.596,0.511c-0.766,3.084-1.638,5.318-2.617,6.68c-0.064,0.086-0.128,0.171-0.191,0.256
					c0.254,0.256,0.532,0.489,0.808,0.681c0.723,0.574,1.702,1.021,2.914,1.362l-1.489,1.659c-1.17-0.553-2.171-1.212-2.979-1.978
					c-0.171-0.149-0.298-0.298-0.425-0.426c-1.043,0.958-2.32,1.766-3.83,2.404l-1.148-1.575c1.148-0.361,2.064-0.786,2.787-1.255
					c0.403-0.256,0.786-0.553,1.128-0.872c-0.298-0.383-0.533-0.787-0.745-1.191c-0.553-0.958-0.979-2.021-1.277-3.17
					c-0.127,0.617-0.276,1.213-0.447,1.766c-0.617,2.085-1.574,3.936-2.872,5.552l-1.829-0.915c0.574-0.659,1.064-1.34,1.489-2.021
					l-1.233,0.276c-0.235-1.297-0.511-2.489-0.83-3.574l1.574-0.34C114.218,13.786,114.473,14.849,114.644,15.871z M120.473,7.701
					l1.489-4.255h-3.425v3.659c0,0.213-0.022,0.404-0.022,0.596H120.473z M119.494,11.424c0.256,1.021,0.681,2,1.234,2.915
					c0.127,0.256,0.276,0.469,0.425,0.638c0.127-0.212,0.256-0.446,0.383-0.659c0.617-1.064,1.191-2.723,1.702-4.957h-4.213
					C119.111,10.084,119.281,10.765,119.494,11.424z"/>
				<path id="XMLID_4542_" fill="#F1B022" d="M130.872,3.851v7.072h-1.14V3.851h-2.638V2.786h6.417v1.065H130.872z"/>
				<path id="XMLID_4540_" fill="#F1B022" d="M141.629,10.924v-6.02l-2.465,6.02h-1.065l-2.465-6.02v6.02h-1.128V2.786h1.437
					l2.687,6.652l2.688-6.652h1.437v8.138H141.629z"/>
			</g>
			<polygon id="XMLID_4538_" fill="#F1B022" points="169.349,0 172.8,6.991 180.515,8.112 174.932,13.554 176.25,21.239 
				169.349,17.611 162.448,21.239 163.766,13.554 158.183,8.112 165.899,6.991 			"/>
			<polygon id="XMLID_4537_" fill="#F1B022" points="197.891,0 201.341,6.991 209.057,8.112 203.474,13.554 204.792,21.239 
				197.891,17.611 190.99,21.239 192.308,13.554 186.725,8.112 194.44,6.991 			"/>
			<polygon id="XMLID_4536_" fill="#F1B022" points="226.432,0 229.883,6.991 237.598,8.112 232.015,13.554 233.333,21.239 
				226.432,17.611 219.531,21.239 220.85,13.554 215.267,8.112 222.982,6.991 			"/>
			<polygon id="XMLID_4535_" fill="#F1B022" points="254.974,0 258.424,6.991 266.14,8.112 260.557,13.554 261.875,21.239 
				254.974,17.611 248.073,21.239 249.391,13.554 243.808,8.112 251.524,6.991 			"/>
			<polygon id="XMLID_4534_" fill="#F1B022" points="283.515,0 286.966,6.991 294.681,8.112 289.098,13.554 290.416,21.239 
				283.515,17.611 276.615,21.239 277.933,13.554 272.35,8.112 280.065,6.991 			"/>
			<g>
				<path fill="#F1B022" d="M145.249,2.652l0.343-1.056c0.788,0.277,1.36,0.518,1.718,0.722c-0.095-0.897-0.145-1.515-0.149-1.853
					h1.078c-0.015,0.491-0.071,1.106-0.171,1.845c0.511-0.258,1.096-0.496,1.755-0.714l0.343,1.056
					c-0.63,0.208-1.247,0.348-1.852,0.417c0.302,0.263,0.729,0.73,1.278,1.405L148.7,5.106c-0.288-0.392-0.628-0.925-1.02-1.599
					c-0.366,0.699-0.688,1.231-0.967,1.599l-0.877-0.632c0.575-0.709,0.986-1.178,1.234-1.405
					C146.431,2.945,145.824,2.806,145.249,2.652z"/>
			</g>
		</g>
	</g>
</g>
<g id="A-04" display="none">
</g>
<g id="A-03" display="none">
</g>
<g id="A-02" display="none">
</g>
<g id="A-01">
</g>
<g id="A-選單_1_">
</g>
<g id="B-04" display="none">
</g>
<g id="B-index_1_">
</g>
<g id="B-03" display="none">
</g>
<g id="B-02" display="none">
</g>
<g id="B-01">
</g>
<g id="C-index">
</g>
<g id="C-mouseover">
</g>
<g id="C-01" display="none">
</g>
<g id="D-01">
</g>
<g id="D-02" display="none">
</g>
</svg>
