<?xml version="1.0" encoding="utf-8"?>
<!-- Generator: Adobe Illustrator 17.0.0, SVG Export Plug-In . SVG Version: 6.00 Build 0)  -->
<!DOCTYPE svg PUBLIC "-//W3C//DTD SVG 1.1//EN" "http://www.w3.org/Graphics/SVG/1.1/DTD/svg11.dtd">
<svg version="1.1" xmlns="http://www.w3.org/2000/svg" xmlns:xlink="http://www.w3.org/1999/xlink" x="0px" y="0px"
	 width="20.355px" height="20.355px" viewBox="0 0 20.355 20.355" enable-background="new 0 0 20.355 20.355" xml:space="preserve">
<g id="bg">
</g>
<g id="footer">
</g>
<g id="A-背景">
</g>
<g id="A-雪花左右">
</g>
<g id="A-選單">
</g>
<g id="A-主雪花_x28_一起轉_x29_">
</g>
<g id="A-指標">
</g>
<g id="A-小標">
</g>
<g id="A-主文">
</g>
<g id="A-上文">
</g>
<g id="B-index">
</g>
<g id="圖層_16" display="none">
</g>
<g id="圖層_3">
</g>
<g id="A-04" display="none">
</g>
<g id="A-03" display="none">
</g>
<g id="A-02" display="none">
</g>
<g id="A-01">
</g>
<g id="A-選單_1_">
</g>
<g id="B-04" display="none">
</g>
<g id="B-index_1_">
	<g>
		<g>
			<path fill="#FFFFFF" d="M7.921,15.841c1.932,0,3.688-0.685,5.058-1.844l6.147,6.147c0.141,0.14,0.316,0.211,0.509,0.211
				c0.176,0,0.369-0.07,0.509-0.211c0.281-0.281,0.281-0.738,0-1.019l-6.147-6.147c1.142-1.37,1.844-3.144,1.844-5.058
				C15.841,3.548,12.294,0,7.921,0C3.565,0,0,3.565,0,7.921C0,12.294,3.565,15.841,7.921,15.841z M7.921,1.44
				c3.583,0,6.481,2.915,6.481,6.481c0,3.583-2.898,6.481-6.481,6.481S1.44,11.486,1.44,7.921C1.44,4.355,4.355,1.44,7.921,1.44z"/>
			<path fill="#FFFFFF" d="M7.201,12.61c0,0.404,0.316,0.72,0.72,0.72c0.404,0,0.72-0.316,0.72-0.72V8.641h3.969
				c0.404,0,0.72-0.316,0.72-0.72c0-0.404-0.316-0.72-0.72-0.72H8.641V3.231c0-0.404-0.316-0.72-0.72-0.72
				c-0.404,0-0.72,0.316-0.72,0.72v3.969H3.231c-0.404,0-0.72,0.316-0.72,0.72c0,0.404,0.316,0.72,0.72,0.72h3.969V12.61z"/>
		</g>
	</g>
</g>
<g id="B-03" display="none">
</g>
<g id="B-02" display="none">
</g>
<g id="B-01">
</g>
<g id="C-index">
</g>
<g id="C-mouseover">
</g>
<g id="C-01" display="none">
</g>
<g id="D-01">
</g>
<g id="D-02" display="none">
</g>
</svg>
