<!-- Generator: Adobe Illustrator 17.0.0, SVG Export Plug-In  -->
<svg version="1.1"
	 xmlns="http://www.w3.org/2000/svg" xmlns:xlink="http://www.w3.org/1999/xlink" xmlns:a="http://ns.adobe.com/AdobeSVGViewerExtensions/3.0/"
	 x="0px" y="0px" width="53.662px" height="59.473px" viewBox="0 0 53.662 59.473" enable-background="new 0 0 53.662 59.473"
	 xml:space="preserve">
<defs>
</defs>
<path opacity="0.2" fill="none" stroke="#FFFFFF" stroke-miterlimit="10" d="M53.119,36.26c-0.177-0.647-0.847-1.026-1.488-0.851
	l-8.416,2.294l-6.04-3.451l9.443-3.417c0.48-0.175,0.8-0.631,0.799-1.142c-0.001-0.51-0.324-0.967-0.803-1.139l-9.429-3.369
	l6.013-3.456l8.421,2.275c0.105,0.028,0.212,0.042,0.318,0.042c0.533,0,1.023-0.356,1.169-0.897
	c0.175-0.646-0.208-1.311-0.854-1.486l-6.081-1.642l5.564-3.198c0.58-0.333,0.782-1.075,0.447-1.654
	c-0.334-0.58-1.072-0.78-1.654-0.447l-5.564,3.197l1.642-6.08c0.175-0.646-0.208-1.311-0.854-1.486
	c-0.64-0.173-1.311,0.206-1.487,0.854l-2.275,8.421l-6.09,3.5l1.777-9.976c0.09-0.503-0.145-1.008-0.589-1.263
	c-0.442-0.253-0.996-0.204-1.389,0.127l-7.654,6.5v-6.961L34.21,5.39c0.474-0.474,0.474-1.24,0-1.714s-1.24-0.474-1.714,0
	L28.043,8.13V1.712c0-0.669-0.543-1.212-1.212-1.212S25.62,1.043,25.62,1.712V8.13l-4.454-4.454c-0.474-0.474-1.24-0.474-1.714,0
	c-0.474,0.474-0.474,1.24,0,1.714l6.167,6.167v7.004l-7.729-6.509c-0.391-0.328-0.946-0.378-1.389-0.121
	c-0.442,0.256-0.676,0.762-0.584,1.265l1.814,9.943l-6.081-3.476l-2.295-8.415c-0.177-0.646-0.845-1.029-1.488-0.851
	c-0.646,0.176-1.026,0.842-0.851,1.488l1.657,6.076l-5.572-3.185c-0.58-0.331-1.321-0.13-1.653,0.451
	c-0.332,0.58-0.13,1.321,0.451,1.653l5.571,3.184l-6.076,1.657c-0.646,0.177-1.026,0.842-0.851,1.488
	c0.148,0.539,0.635,0.893,1.168,0.893c0.105,0,0.212-0.015,0.32-0.044l8.415-2.294l6.04,3.451l-9.439,3.417
	c-0.48,0.175-0.801,0.631-0.8,1.142c0.001,0.51,0.322,0.967,0.805,1.139l9.429,3.369l-6.013,3.456l-8.421-2.275
	c-0.65-0.176-1.312,0.207-1.486,0.854c-0.175,0.646,0.207,1.311,0.854,1.487l6.081,1.642L1.93,42.648
	c-0.58,0.333-0.78,1.075-0.447,1.654c0.224,0.39,0.633,0.608,1.052,0.608c0.205,0,0.412-0.052,0.602-0.161l5.565-3.198L7.06,47.632
	c-0.175,0.646,0.207,1.311,0.854,1.487c0.105,0.028,0.212,0.041,0.316,0.041c0.534,0,1.024-0.355,1.169-0.896l2.275-8.42l6.091-3.5
	l-1.777,9.976c-0.09,0.504,0.147,1.009,0.589,1.264c0.188,0.108,0.396,0.161,0.604,0.161c0.281,0,0.56-0.098,0.784-0.287
	l7.654-6.502v6.958l-6.167,6.168c-0.474,0.474-0.474,1.24,0,1.714c0.236,0.236,0.547,0.355,0.857,0.355s0.62-0.119,0.857-0.355
	l4.454-4.455v6.418c0,0.67,0.543,1.212,1.212,1.212s1.212-0.542,1.212-1.212v-6.418l4.454,4.454
	c0.236,0.236,0.547,0.355,0.857,0.355s0.62-0.119,0.857-0.355c0.474-0.474,0.474-1.24,0-1.714l-6.167-6.168V40.91l7.729,6.508
	c0.393,0.328,0.946,0.376,1.389,0.122c0.441-0.257,0.676-0.763,0.583-1.266l-1.813-9.942l6.082,3.476l2.294,8.414
	c0.147,0.539,0.635,0.893,1.168,0.893c0.107,0,0.213-0.013,0.32-0.042c0.646-0.177,1.028-0.842,0.851-1.488l-1.657-6.076
	l5.571,3.184c0.189,0.109,0.396,0.16,0.6,0.16c0.421,0,0.83-0.219,1.053-0.611c0.332-0.58,0.13-1.321-0.451-1.653l-5.572-3.182
	l6.077-1.657C52.914,37.572,53.296,36.905,53.119,36.26z M42.623,29.703l-8.209,2.971l-5.146-2.941l5.153-2.961L42.623,29.703z
	 M34.699,16.043l-1.541,8.66l-5.114,2.939v-5.947L34.699,16.043z M18.907,16.077l6.712,5.653v5.919l-5.137-2.936L18.907,16.077z
	 M11.04,29.769l8.208-2.971l5.147,2.941l-5.153,2.961L11.04,29.769z M18.964,43.429l1.543-8.66l5.113-2.939v5.945L18.964,43.429z
	 M34.757,43.395l-6.714-5.652v-5.919l5.138,2.936L34.757,43.395z"/>
</svg>
