<!-- Generator: Adobe Illustrator 17.0.0, SVG Export Plug-In  -->
<svg version="1.1"
	 xmlns="http://www.w3.org/2000/svg" xmlns:xlink="http://www.w3.org/1999/xlink" xmlns:a="http://ns.adobe.com/AdobeSVGViewerExtensions/3.0/"
	 x="0px" y="0px" width="582.029px" height="16.216px" viewBox="0 0 582.029 16.216" enable-background="new 0 0 582.029 16.216"
	 xml:space="preserve">
<defs>
</defs>
<g>
	<path fill="#F0B020" d="M3.744,7.014L2.697,8.297C1.936,7.547,1.037,6.85,0,6.205l0.975-1.31C2.006,5.517,2.93,6.223,3.744,7.014z
		 M3.779,10.327c-0.615,2.25-1.412,4.189-2.391,5.818L0,15.152c0.902-1.459,1.682-3.343,2.338-5.651L3.779,10.327z M3.814,2.769
		L2.662,3.99C1.947,3.053,1.139,2.215,0.236,1.477l1.064-1.266C2.391,1.125,3.229,1.978,3.814,2.769z M15.803,13.896l-0.984,1.222
		c-1.881-1.271-3.299-2.681-4.254-4.228v5.168H8.982v-5.15c-1.324,1.711-2.801,3.114-4.43,4.21l-1.037-1.222
		c2.162-1.342,3.686-2.766,4.57-4.271H3.963V8.095h5.02v-1.38h1.582v1.38h5.045v1.529h-4.088
		C12.283,11.06,13.711,12.483,15.803,13.896z M9.018,2.821c0.094,2.531-1.178,4.104-3.814,4.72L4.139,6.24
		C5.434,5.965,6.33,5.563,6.828,5.036s0.713-1.277,0.643-2.25L9.018,2.821z M15.318,3.902h-1.564V2.083H5.801V3.92H4.209V0.589
		h11.109V3.902z M15.213,6.908h-3.059c-0.34,0-0.635-0.116-0.887-0.348s-0.379-0.517-0.379-0.856V2.786h1.529v2.399
		c0,0.059,0.033,0.117,0.098,0.176s0.123,0.088,0.176,0.088h2.521V6.908z"/>
	<path fill="#F0B020" d="M33.803,14.845l-1.258,1.195c-3.428-2.988-5.613-6.255-6.557-9.8c-1.195,4.096-3.516,7.318-6.961,9.668
		l-1.168-1.257c1.553-1.025,2.893-2.273,4.021-3.744s1.987-3.084,2.579-4.839s0.889-2.901,0.889-3.44l-0.053-0.36h-2.18v-1.6h3.691
		c0.158,3.457,0.84,6.262,2.047,8.415S31.711,13.157,33.803,14.845z"/>
	<path fill="#F0B020" d="M51.881,5.432l-0.764,1.494c-0.891-0.357-1.488-0.604-1.793-0.738V7.4h-4.58v2.514h4.43v1.547h-4.43v2.61
		h6.592v1.529H36.43v-1.529h6.662v-2.61h-4.535V9.914h4.535V7.4h-4.605V6.047c-0.545,0.246-1.15,0.498-1.818,0.756L35.93,5.326
		c2.543-0.943,4.494-2.019,5.854-3.226h-1.424V0.571h4.43C45.973,2.534,48.336,4.154,51.881,5.432z M48.586,5.827
		c-2.016-1.002-3.572-2.183-4.668-3.542c-1.078,1.26-2.738,2.44-4.982,3.542H48.586z"/>
	<path fill="#F0B020" d="M59.686,11.663c-1.646,1.137-3.398,2.156-5.256,3.059l-0.588-1.512c0.803-0.34,1.514-0.688,2.135-1.046
		V7.717h-1.688V6.258h1.688V2.716H54.07V1.204h5.404v1.512h-1.941v3.542h1.67v1.459h-1.67v3.568c0.668-0.34,1.309-0.724,1.924-1.151
		L59.686,11.663z M63.289,10.925c-1.09,1.312-2.361,2.572-3.814,3.779l-1.027-1.239c1.547-1.271,2.83-2.514,3.85-3.727
		L63.289,10.925z M69.916,13.28l-0.975,1.283c-1.705-1.512-2.947-3.445-3.727-5.801v5.563c0,0.352-0.1,0.663-0.299,0.936
		s-0.416,0.462-0.65,0.567s-0.598,0.158-1.09,0.158c-0.451,0-0.93-0.015-1.434-0.044l-0.51-1.547
		c0.305,0.023,0.93,0.035,1.873,0.035c0.105,0,0.223-0.055,0.352-0.163s0.193-0.215,0.193-0.32V4.641h-4.246V3.146h4.246v-2.9h1.564
		v2.9h4.465v1.494h-4.465v0.545c0.258,0.908,0.57,1.752,0.939,2.531c0.686-0.539,1.41-1.377,2.172-2.514l1.195,1.116
		c-0.949,1.254-1.852,2.194-2.707,2.821C67.453,10.617,68.486,11.997,69.916,13.28z M63.035,8.402l-1.381,0.773
		c-0.609-1.23-1.33-2.303-2.162-3.217l1.389-0.835C61.695,6.021,62.414,7.113,63.035,8.402z M69.117,2.013l-1.293,0.976
		c-0.328-0.527-0.867-1.11-1.617-1.749l1.223-0.993C68.133,0.797,68.695,1.386,69.117,2.013z"/>
	<path fill="#F0B020" d="M74.971,11.136c-0.574,1.559-1.158,2.76-1.75,3.604l-1.291-0.976c0.621-0.885,1.172-1.98,1.652-3.287
		L74.971,11.136z M80.332,10.002h-3.367v6.012h-1.582v-6.012H72.07V8.508h3.312V7.093h-3.129V5.651h1.768
		c-0.17-0.592-0.422-1.277-0.756-2.057l1.072-0.554h-2.049V1.6h2.883c-0.111-0.34-0.293-0.706-0.545-1.099l1.715-0.378
		C76.658,0.738,76.881,1.23,77.01,1.6h3.023v1.441h-1.951l1.115,0.615c-0.281,0.721-0.586,1.386-0.914,1.995h1.768v1.441h-3.086
		v1.415h3.367V10.002z M77.686,3.041H74.76c0.398,0.891,0.715,1.761,0.949,2.61h0.957C77.07,4.843,77.41,3.973,77.686,3.041z
		 M80.016,12.867l-1.301,0.738c-0.275-0.943-0.66-1.843-1.152-2.698l1.336-0.615C79.443,11.229,79.816,12.088,80.016,12.867z
		 M87.715,7.181H86.08v8.798h-1.564V7.181h-1.82c-0.035,4.102-0.721,7.04-2.057,8.815l-1.309-1.072
		c1.172-1.576,1.758-3.99,1.758-7.242v-6.17c2.01-0.275,3.703-0.721,5.08-1.336l1.098,1.336c-1.307,0.568-2.83,1.022-4.57,1.362
		v2.76h5.02V7.181z"/>
	<path fill="#F0B020" d="M96.371,13.729c-1.324,0.949-3.178,1.755-5.562,2.417l-0.791-1.477c2.051-0.486,3.744-1.146,5.08-1.978
		L96.371,13.729z M105.732,12.401H90.07v-1.494h1.098l-0.359-9.809c1.061-0.234,1.998-0.571,2.812-1.011l0.623,1.424
		c-0.662,0.352-1.283,0.604-1.863,0.756l0.07,1.784h1.441v1.433h-1.389l0.053,1.934h1.336v1.433h-1.301l0.088,2.057h1.873V0.668
		h6.627v10.239h1.871l0.088-2.074h-1.326V7.374h1.361l0.07-1.907h-1.432V4.008h1.512l0.053-1.872h-1.697V0.624h3.297l-0.379,10.283
		h1.135V12.401z M99.809,10.907V2.101h-3.85v8.807H99.809z M99.377,4.28h-3.023V2.936h3.023V4.28z M99.219,9.861h-2.645V5.221h2.645
		V9.861z M98.139,8.508V6.565h-0.545v1.942H98.139z M105.785,14.88l-0.967,1.283c-1.693-0.891-3.445-1.641-5.256-2.25l1.002-1.257
		C102.381,13.248,104.121,13.989,105.785,14.88z"/>
	<path fill="#F0B020" d="M123.732,15.39h-11.391v0.624h-1.627V9.018c-0.627,0.627-1.195,1.125-1.705,1.494l-1.098-1.318
		c1.893-1.395,3.387-2.997,4.482-4.808h-3.93V2.839h4.809c0.34-0.662,0.711-1.556,1.115-2.681l1.582,0.413
		c-0.281,0.82-0.574,1.576-0.879,2.268h8.385v1.547h-9.211c-0.568,0.984-1.209,1.939-1.924,2.865v6.574h4.57V9.624h-3.656V8.095
		h3.656V5.221h1.67v2.874h3.928v1.529h-3.928v4.201h5.15V15.39z"/>
	<path fill="#F0B020" d="M131.439,12.612c-1.916,0.973-3.592,1.711-5.027,2.215L126,13.315c0.639-0.205,1.291-0.457,1.959-0.756
		V5.941h-1.723V4.43h1.723V0.308h1.609V4.43h1.617v1.512h-1.617v5.88c0.598-0.252,1.178-0.533,1.74-0.844L131.439,12.612z
		 M141.838,12.542c-0.047,1.189-0.201,1.996-0.462,2.421s-0.722,0.679-1.384,0.761s-1.838,0.123-3.525,0.123
		c-1.324,0-2.227-0.025-2.707-0.075s-0.855-0.227-1.125-0.531s-0.404-0.765-0.404-1.38V8.13l-1.248,0.492l-0.193-1.626l1.441-0.589
		V2.373h1.564v3.366l2.109-0.826V0.29h1.564v3.973l3.744-1.529c-0.059,3.064-0.316,5.687-0.773,7.866l-1.529-0.466
		c0.352-1.646,0.572-3.328,0.66-5.045l-2.102,0.853v6.75h-1.564V6.601l-2.109,0.853v6.258c0,0.346,0.129,0.536,0.387,0.571
		s1.082,0.053,2.471,0.053c1.418,0,2.346-0.012,2.785-0.035s0.69-0.233,0.752-0.629s0.102-0.968,0.119-1.718L141.838,12.542z"/>
	<path fill="#F0B020" d="M159.732,3.762h-7.041v2.197h5.994v6.495c0,1.406-0.574,2.109-1.723,2.109
		c-1.031,0-1.752-0.006-2.162-0.018l-0.518-1.644c0.809,0.047,1.564,0.07,2.268,0.07c0.1,0,0.201-0.04,0.307-0.119
		s0.158-0.171,0.158-0.276V7.559h-4.324v8.42h-1.635v-8.42h-4.297v6.97h-1.645V5.959h5.941V3.762h-6.986V2.197h7.021
		c-0.246-0.527-0.57-1.063-0.975-1.608l1.748-0.431c0.381,0.598,0.748,1.277,1.1,2.039h6.768V3.762z"/>
	<path fill="#F0B020" d="M166.982,5.757h-1.512v3.814c0.223-0.123,0.621-0.381,1.195-0.773l0.246,1.547
		c-2.115,1.418-3.621,2.32-4.518,2.707l-0.5-1.441c0.949-0.439,1.637-0.8,2.064-1.081V5.757h-1.74V4.315h1.74v-3.99h1.512v3.99
		h1.512V5.757z M177.715,8.604h-6.514c-0.264,0.404-0.475,0.703-0.633,0.896h6.785c-0.047,1.312-0.112,2.514-0.197,3.604
		s-0.17,1.735-0.255,1.938s-0.224,0.386-0.417,0.55s-0.456,0.279-0.787,0.347s-1.051,0.102-2.158,0.102l-0.5-1.441
		c0.322,0.023,0.65,0.035,0.984,0.035c0.75,0.006,1.207-0.091,1.371-0.29s0.283-1.374,0.359-3.524h-0.482
		c-0.902,2.186-2.631,3.932-5.186,5.238l-1.117-1.046c2.273-1.049,3.861-2.446,4.764-4.192H172.6
		c-1.137,1.605-2.982,2.979-5.537,4.122l-1.029-1.116c2.244-0.914,3.854-1.916,4.826-3.006h-1.547
		c-0.703,0.598-1.359,1.09-1.969,1.477l-1.02-1.099c1.342-0.744,2.408-1.608,3.199-2.593h-2.822V7.286h11.014V8.604z M176.801,6.372
		h-9.115V0.571h9.115V6.372z M175.271,2.856V1.925h-6.057v0.932H175.271z M175.271,5.054V4.104h-6.057v0.949H175.271z"/>
	<path fill="#F0B020" d="M185.615,8.481c0.363,0,0.672,0.121,0.924,0.364s0.377,0.538,0.377,0.884c0,0.352-0.129,0.645-0.387,0.879
		s-0.562,0.352-0.914,0.352s-0.656-0.117-0.914-0.352s-0.387-0.527-0.387-0.879c0-0.346,0.127-0.641,0.379-0.884
		S185.252,8.481,185.615,8.481z"/>
	<path fill="#F0B020" d="M201.084,1.942c-0.902,1.307-2.252,2.452-4.051,3.437h3.242v4.087h-3.559l-0.186,1.564h3.947
		c-0.029,1.623-0.133,2.758-0.309,3.405s-0.459,1.066-0.852,1.257s-1.172,0.286-2.338,0.286c-0.393,0-0.879-0.006-1.459-0.018
		l-0.537-1.477c0.615,0.041,1.617,0.062,3.006,0.062c0.562,0,0.844-0.721,0.844-2.162h-4.051l0.527-4.271h3.418V6.75h-2.988V5.994
		c-0.381,0.188-0.873,0.378-1.477,0.571l-0.738-1.31c0.92-0.287,1.803-0.647,2.646-1.081c-0.439-0.275-0.955-0.545-1.547-0.809
		l1.062-1.116c0.492,0.205,1.146,0.548,1.961,1.028c0.592-0.398,1.102-0.844,1.529-1.336h-4.053V0.536h5.959V1.942z M209.479,5.309
		l-0.818,1.257c-0.621-0.27-1.172-0.551-1.652-0.844v1.819c0,0.193,0.104,0.29,0.309,0.29h1.6v1.362h-2.109
		c-0.861,0-1.293-0.442-1.293-1.327V6.768h-1.766c0,1.248-0.689,2.215-2.066,2.9l-0.975-1.178c0.475-0.199,0.851-0.468,1.129-0.805
		s0.418-0.883,0.418-1.639V5.379h4.156c-2.238-1.371-3.768-2.968-4.588-4.79l1.424-0.448c0.164,0.41,0.469,0.891,0.914,1.441
		c0.527-0.434,0.984-0.914,1.371-1.441l1.293,0.809c-0.568,0.697-1.125,1.257-1.67,1.679c0.176,0.176,0.445,0.404,0.809,0.686
		c0.674-0.557,1.256-1.116,1.748-1.679l1.24,0.791c-0.592,0.691-1.188,1.263-1.785,1.714C207.746,4.509,208.518,4.898,209.479,5.309
		z M209.135,15.1l-1.115,1.011c-0.762-0.568-1.645-1.151-2.646-1.749c-1.025,0.762-2.305,1.362-3.84,1.802l-0.791-1.318
		c1.406-0.369,2.475-0.8,3.207-1.292c-0.955-0.557-1.766-0.996-2.434-1.318l0.922-0.949h-1.062V9.896h6.732v1.389
		c-0.492,0.732-1.02,1.409-1.582,2.03C207.428,13.89,208.297,14.484,209.135,15.1z M206.252,11.285h-3.383
		c0.814,0.41,1.6,0.829,2.355,1.257C205.676,12.067,206.018,11.648,206.252,11.285z"/>
	<path fill="#F0B020" d="M216.562,5.054h-1.416v2.848c0.281-0.111,0.684-0.305,1.205-0.58l0.141,1.591
		c-0.229,0.117-0.678,0.337-1.346,0.659v4.86c0,0.645-0.156,1.073-0.47,1.287s-0.942,0.321-1.886,0.321
		c-0.229,0-0.428-0.009-0.598-0.026l-0.545-1.529c0.691,0.029,1.189,0.044,1.494,0.044c0.328,0,0.492-0.176,0.492-0.527v-3.797
		c-0.65,0.258-1.262,0.469-1.836,0.633l-0.344-1.529c0.645-0.199,1.371-0.457,2.18-0.773v-3.48h-2.021V3.542h2.004V0.308h1.529
		v3.234h1.416V5.054z M226.678,5.449h-7.988v1.336c0,3.656-0.521,6.703-1.564,9.141l-1.318-1.116
		c0.891-1.916,1.336-4.538,1.336-7.866V0.519h9.535V5.449z M225.078,4.069V1.96h-6.389v2.109H225.078z M227.021,16.014h-1.477
		v-0.536h-6.689v-4.14h1.494v2.812h1.846v-3.533h-2.873V6.715h1.424v2.531h1.449V6.064h1.459v3.182h1.424V6.715h1.389v3.902h-2.812
		v3.533h1.891v-2.812h1.477V16.014z"/>
	<path fill="#F0B020" d="M234.869,7.699l-1.062,1.213c-0.211-0.527-0.449-1.025-0.713-1.494v8.578h-1.52V8.473
		c-0.27,1.02-0.695,2.01-1.275,2.971l-0.826-1.775c0.785-1.348,1.428-2.95,1.926-4.808h-1.82V3.313h1.996V0.246h1.52v3.067h1.67
		V4.86h-1.67v0.325C233.773,6.029,234.365,6.867,234.869,7.699z M245.346,15.662h-10.959V14.15h10.959V15.662z M245.1,2.065h-4.939
		l-1.098,1.749h1.301v8.244c0,0.428-0.127,0.779-0.379,1.055s-0.514,0.443-0.786,0.505s-0.827,0.093-1.665,0.093l-0.502-1.477
		l1.354-0.018c0.381,0,0.572-0.208,0.572-0.624V5.309h-1.67V3.814l1.186-1.749h-3.779V0.589H245.1V2.065z M238.078,11.628h-3.076
		V5.81h3.076V11.628z M236.873,10.134v-2.83h-0.668v2.83H236.873z M245.479,12.252l-1.301,0.817c-0.182-0.65-0.48-1.45-0.896-2.399
		c-0.521,0.984-1.059,1.819-1.609,2.505l-0.949-1.222c0.844-1.166,1.428-2.168,1.75-3.006c-0.469-0.955-1.029-1.928-1.68-2.918
		l0.941-0.844h-0.854V3.762h3.877c0.047,1.477-0.211,3.173-0.773,5.089C244.465,9.771,244.963,10.904,245.479,12.252z
		 M243.334,5.186h-1.389c0.229,0.357,0.594,0.976,1.098,1.854C243.213,6.231,243.311,5.613,243.334,5.186z"/>
	<path fill="#F0B020" d="M253.811,14.001c-1.822,0.967-3.695,1.652-5.617,2.057l-0.773-1.529c1.869-0.346,3.566-0.917,5.09-1.714
		L253.811,14.001z M263.293,12.489h-15.609v-1.406h1.627V0.589h12.252v10.494h1.73V12.489z M259.91,3.199V2.013h-8.93v1.187H259.91z
		 M259.91,5.774V4.553h-8.93v1.222H259.91z M259.91,8.35V7.11h-8.93V8.35H259.91z M259.91,11.083V9.721h-8.93v1.362H259.91z
		 M263.479,14.827l-0.924,1.336c-1.758-0.861-3.574-1.532-5.449-2.013l0.949-1.389C260.059,13.318,261.867,14.007,263.479,14.827z"
		/>
	<path fill="#F0B020" d="M269.129,6.979l-1.115,1.099c-0.703-0.75-1.551-1.482-2.541-2.197l1.152-1.116
		C267.604,5.473,268.438,6.211,269.129,6.979z M269.252,10.257c-0.645,1.91-1.455,3.823-2.434,5.739l-1.328-0.949
		c0.92-1.723,1.734-3.642,2.443-5.757L269.252,10.257z M269.631,2.593l-1.17,1.037c-0.686-0.797-1.525-1.594-2.521-2.391l1.08-1.081
		C268.01,0.85,268.881,1.661,269.631,2.593z M275.52,6.618c-0.697,0.604-1.586,1.242-2.664,1.916l-0.562-1.028
		c0.205-0.158,0.309-0.346,0.309-0.562V5.994c-0.521,0.932-1.375,1.884-2.559,2.856l-1.062-1.099
		c1.312-1.008,2.205-2.039,2.68-3.094h-2.152l0.703-2.716h-0.686V0.554h5.502v1.389h-1.117c-0.041,0.381-0.123,0.832-0.246,1.354
		h1.477v1.362h-1.889c-0.035,0.123-0.109,0.299-0.221,0.527h0.941v1.002c0.252-0.176,0.58-0.428,0.984-0.756L275.52,6.618z
		 M280.432,15.961h-1.582v-0.677h-6.662v0.677h-1.625V8.912h9.869V15.961z M272.434,1.942h-0.861l-0.324,1.354h0.922
		C272.264,2.968,272.352,2.517,272.434,1.942z M278.85,11.408V10.31h-6.662v1.099H278.85z M278.85,13.931v-1.187h-6.662v1.187
		H278.85z M281.479,6.407c0,0.873-0.125,1.407-0.374,1.604s-0.708,0.295-1.376,0.295c-0.615,0-1.018-0.073-1.208-0.22
		s-0.286-0.407-0.286-0.782V6.548c-0.551,0.75-1.23,1.436-2.039,2.057l-1.037-1.063c1.207-0.867,2.061-1.828,2.559-2.883h-2.127
		l0.668-2.716h-0.562V0.554h5.404v1.389h-1.266c-0.047,0.445-0.123,0.896-0.229,1.354h1.74v1.362h-2.117
		c-0.041,0.205-0.109,0.381-0.203,0.527h0.562v1.617c0,0.094,0.041,0.141,0.123,0.141l0.291,0.018c0.164,0,0.246-0.36,0.246-1.081
		L281.479,6.407z M278.357,1.942h-0.756l-0.324,1.354h0.852C278.234,2.856,278.311,2.405,278.357,1.942z"/>
	<path fill="#F0B020" d="M298.449,3.331c-0.012,3.217-0.084,5.804-0.219,7.761s-0.322,3.168-0.562,3.634s-0.559,0.796-0.954,0.989
		s-1.278,0.29-2.649,0.29c-0.41,0-0.809-0.009-1.195-0.026l-0.615-1.67c0.592,0.035,1.588,0.053,2.988,0.053
		c0.229,0,0.432-0.062,0.61-0.185s0.304-0.278,0.374-0.466s0.154-0.863,0.254-2.026s0.17-2.324,0.211-3.484l0.098-3.322h-5.221
		c-0.17,2.848-0.775,5.093-1.815,6.736s-2.702,3.11-4.987,4.399l-1.082-1.327c1.688-0.814,3.104-1.919,4.25-3.313
		s1.818-3.56,2.018-6.495h-5.705V3.331h5.793c0.07-0.938,0.096-1.972,0.078-3.103h1.652c0,0.891-0.035,1.925-0.105,3.103H298.449z"
		/>
	<path fill="#F0B020" d="M308.416,15.838h-1.547v-1.187h-3.252v1.362h-1.59V2.918h1.607c0.451-0.832,0.803-1.746,1.055-2.742
		l1.662,0.272c-0.088,0.568-0.369,1.392-0.844,2.47h2.908V15.838z M306.869,7.813V4.482h-3.252v3.331H306.869z M306.869,13.104
		V9.325h-3.252v3.779H306.869z M317.117,3.006c-0.012,1.723-0.072,3.956-0.184,6.701s-0.275,4.364-0.492,4.856
		s-0.547,0.854-0.989,1.085s-1.519,0.354-3.229,0.365l-0.598-1.582l2.408-0.018c0.229,0,0.471-0.097,0.729-0.29
		s0.451-1.497,0.58-3.911s0.191-4.295,0.186-5.643h-3.613c-0.562,1.43-1.197,2.648-1.906,3.656l-1.23-1.099
		c1.289-2.086,2.197-4.415,2.725-6.987l1.582,0.343c-0.117,0.609-0.328,1.45-0.633,2.522H317.117z M314.508,11.048l-1.406,0.905
		c-0.773-1.547-1.604-2.839-2.488-3.876l1.406-0.879C313.215,8.692,314.045,9.976,314.508,11.048z"/>
	<path fill="#F0B020" d="M325.66,13.79h-1.564v-1.046H321.6v1.459h-1.572V1.099h5.633V13.79z M324.096,6.135V2.646H321.6v3.489
		H324.096z M324.096,11.232V7.629H321.6v3.604H324.096z M334.811,14.089c0,0.592-0.088,1.017-0.264,1.274s-0.404,0.425-0.686,0.501
		s-0.82,0.114-1.617,0.114c-0.521,0-1.023-0.012-1.504-0.035l-0.545-1.582c0.967,0.023,1.768,0.035,2.4,0.035
		c0.393,0,0.588-0.179,0.588-0.536v-3.366h-4.191c-0.258,2.385-0.906,4.263-1.943,5.634l-1.354-0.94
		c1.178-1.693,1.768-3.92,1.768-6.68V0.686h7.348V14.089z M333.184,4.729V2.25h-4.096v2.479H333.184z M333.184,8.965V6.319h-4.096
		v2.646H333.184z"/>
	<path fill="#F0B020" d="M351.439,15.943h-1.67v-1.204h-8.518v1.204h-1.713V0.721h11.9V15.943z M349.77,6.715V2.268h-8.518v4.447
		H349.77z M349.77,13.175V8.262h-8.518v4.913H349.77z"/>
	<path fill="#F0B020" d="M371.566,14.256l-0.615,1.652l-4.588-0.018c-1.869,0-3.239-0.169-4.109-0.506s-1.545-0.763-2.025-1.278
		c-1.359,0.809-2.584,1.482-3.674,2.021l-0.959-1.354c3.574-1.799,6.357-3.501,8.35-5.106s3.555-3.378,4.686-5.317h-12.209V2.821
		h6.504c-0.281-0.674-0.646-1.356-1.098-2.048l1.582-0.615c0.586,0.967,1.02,1.854,1.301,2.663h5.791v1.529
		c-1.74,3.281-4.723,6.258-8.947,8.93c0.322,0.328,0.852,0.584,1.587,0.769s1.513,0.277,2.333,0.277h1.828
		C369.043,14.326,370.465,14.303,371.566,14.256z"/>
	<path fill="#F0B020" d="M389.293,15.662h-15.697v-1.371h7.041v-1.459h-5.396v-1.336h5.396v-1.327h-4.281
		c-0.504,0.586-1.127,1.131-1.871,1.635l-1.047-1.116c1.172-0.803,2.238-1.96,3.199-3.472l1.529,0.413
		c-0.24,0.404-0.492,0.8-0.756,1.187h3.227V7.523h1.617v1.292h6.23v1.354h-6.23v1.327h5.422v1.336h-5.422v1.459h7.039V15.662z
		 M387.967,6.873h-13.035V0.554h13.035V6.873z M386.357,3.059V1.872h-9.826v1.187H386.357z M386.357,5.546V4.351h-9.826v1.195
		H386.357z"/>
	<path fill="#F0B020" d="M397.195,8.481c0.363,0,0.67,0.121,0.922,0.364s0.379,0.538,0.379,0.884c0,0.352-0.129,0.645-0.387,0.879
		s-0.562,0.352-0.914,0.352s-0.656-0.117-0.914-0.352s-0.387-0.527-0.387-0.879c0-0.346,0.125-0.641,0.377-0.884
		S396.832,8.481,397.195,8.481z"/>
	<path fill="#F0B020" d="M408.814,9.264c-0.75,0.896-1.633,1.72-2.646,2.47l-1.098-1.081c0.557-0.346,1.295-0.999,2.215-1.96
		L408.814,9.264z M420.873,4.298h-1.477V6.39h-5.67v0.844h7.129V8.42h-15.697V7.233h7.021V6.39h-5.783V5.221h5.783V4.298h-7.039
		V3.111h7.039V2.285h-5.801V1.116h5.801v-0.87h1.547v0.87h5.67v1.995h1.477V4.298z M420.891,15.768h-15.697v-1.283h1.801v-3.076
		h12.209v3.076h1.688V15.768z M410.598,14.484l-0.018-1.811h-2.021v1.811H410.598z M412.197,10.723l-1.459,0.396
		c-0.27-0.762-0.551-1.456-0.844-2.083l1.512-0.29C411.641,9.226,411.904,9.885,412.197,10.723z M414.141,14.484v-1.811h-2.031
		v1.811H414.141z M416.117,10.758l-1.494,0.36c-0.316-0.797-0.65-1.491-1.002-2.083l1.494-0.343
		C415.578,9.53,415.912,10.219,416.117,10.758z M417.814,3.111V2.303h-4.088v0.809H417.814z M417.814,5.221V4.298h-4.088v0.923
		H417.814z M417.674,14.484v-1.811h-2.039v1.811H417.674z M421.057,10.819l-1.195,0.949c-0.797-0.867-1.66-1.641-2.592-2.32
		l1.301-0.826C419.566,9.349,420.395,10.081,421.057,10.819z"/>
	<path fill="#F0B020" d="M438.891,13.623c-0.082,0.627-0.24,1.129-0.475,1.507s-0.506,0.609-0.813,0.694s-1.019,0.128-2.132,0.128
		c-1.523,0-2.471-0.061-2.843-0.181s-0.558-0.476-0.558-1.067v-1.187h-2.109c-0.258,0.732-0.756,1.321-1.494,1.767
		s-2.309,0.727-4.711,0.844l-0.562-1.406c1.658-0.023,2.871-0.129,3.639-0.316s1.242-0.483,1.424-0.888h-2.795V7.576h11.197v5.941
		h-3.041v0.686c0,0.205,0.059,0.338,0.176,0.399s0.559,0.093,1.326,0.093c0.955,0,1.546-0.04,1.771-0.119s0.395-0.593,0.506-1.542
		L438.891,13.623z M430.883,1.512h-2.25V2.32h1.803v2.663h-1.803v0.809h2.232v1.099h-6.986V0.448h7.004V1.512z M427.104,2.32V1.512
		h-1.695V2.32H427.104z M428.941,3.99V3.296h-3.533V3.99H428.941z M427.104,5.792V4.983h-1.695v0.809H427.104z M435.041,9.229V8.604
		h-8.016v0.624H435.041z M435.041,10.854v-0.668h-8.016v0.668H435.041z M435.041,12.472v-0.65h-8.016v0.65H435.041z M438.697,1.978
		h-5.617c-0.434,0.656-0.885,1.184-1.354,1.582l-1.062-0.932c0.738-0.598,1.332-1.474,1.783-2.628l1.406,0.378
		c-0.059,0.217-0.131,0.396-0.219,0.536h5.062V1.978z M438.301,6.908h-6.986V4.087h6.986V6.908z M433.424,5.924V5.089h-0.686v0.835
		H433.424z M437.773,3.472h-4.982V2.575h4.982V3.472z M435.146,5.924V5.089h-0.633v0.835H435.146z M436.912,5.924V5.089h-0.633
		v0.835H436.912z"/>
	<path fill="#F0B020" d="M444.129,11.136c-0.574,1.559-1.158,2.76-1.75,3.604l-1.291-0.976c0.621-0.885,1.172-1.98,1.652-3.287
		L444.129,11.136z M449.49,10.002h-3.367v6.012h-1.582v-6.012h-3.312V8.508h3.312V7.093h-3.129V5.651h1.768
		c-0.17-0.592-0.422-1.277-0.756-2.057l1.072-0.554h-2.049V1.6h2.883c-0.111-0.34-0.293-0.706-0.545-1.099l1.715-0.378
		c0.316,0.615,0.539,1.107,0.668,1.477h3.023v1.441h-1.951l1.115,0.615c-0.281,0.721-0.586,1.386-0.914,1.995h1.768v1.441h-3.086
		v1.415h3.367V10.002z M446.844,3.041h-2.926c0.398,0.891,0.715,1.761,0.949,2.61h0.957C446.229,4.843,446.568,3.973,446.844,3.041z
		 M449.174,12.867l-1.301,0.738c-0.275-0.943-0.66-1.843-1.152-2.698l1.336-0.615C448.602,11.229,448.975,12.088,449.174,12.867z
		 M456.873,7.181h-1.635v8.798h-1.564V7.181h-1.82c-0.035,4.102-0.721,7.04-2.057,8.815l-1.309-1.072
		c1.172-1.576,1.758-3.99,1.758-7.242v-6.17c2.01-0.275,3.703-0.721,5.08-1.336l1.098,1.336c-1.307,0.568-2.83,1.022-4.57,1.362
		v2.76h5.02V7.181z"/>
	<path fill="#F0B020" d="M465.529,13.729c-1.324,0.949-3.178,1.755-5.562,2.417l-0.791-1.477c2.051-0.486,3.744-1.146,5.08-1.978
		L465.529,13.729z M474.891,12.401h-15.662v-1.494h1.098l-0.359-9.809c1.061-0.234,1.998-0.571,2.812-1.011l0.623,1.424
		c-0.662,0.352-1.283,0.604-1.863,0.756l0.07,1.784h1.441v1.433h-1.389l0.053,1.934h1.336v1.433h-1.301l0.088,2.057h1.873V0.668
		h6.627v10.239h1.871l0.088-2.074h-1.326V7.374h1.361l0.07-1.907h-1.432V4.008h1.512l0.053-1.872h-1.697V0.624h3.297l-0.379,10.283
		h1.135V12.401z M468.967,10.907V2.101h-3.85v8.807H468.967z M468.535,4.28h-3.023V2.936h3.023V4.28z M468.377,9.861h-2.645V5.221
		h2.645V9.861z M467.297,8.508V6.565h-0.545v1.942H467.297z M474.943,14.88l-0.967,1.283c-1.693-0.891-3.445-1.641-5.256-2.25
		l1.002-1.257C471.539,13.248,473.279,13.989,474.943,14.88z"/>
	<path fill="#F0B020" d="M492.891,3.762h-7.041v2.197h5.994v6.495c0,1.406-0.574,2.109-1.723,2.109
		c-1.031,0-1.752-0.006-2.162-0.018l-0.518-1.644c0.809,0.047,1.564,0.07,2.268,0.07c0.1,0,0.201-0.04,0.307-0.119
		s0.158-0.171,0.158-0.276V7.559h-4.324v8.42h-1.635v-8.42h-4.297v6.97h-1.645V5.959h5.941V3.762h-6.986V2.197h7.021
		c-0.246-0.527-0.57-1.063-0.975-1.608l1.748-0.431c0.381,0.598,0.748,1.277,1.1,2.039h6.768V3.762z"/>
	<path fill="#F0B020" d="M500.141,5.757h-1.512v3.814c0.223-0.123,0.621-0.381,1.195-0.773l0.246,1.547
		c-2.115,1.418-3.621,2.32-4.518,2.707l-0.5-1.441c0.949-0.439,1.637-0.8,2.064-1.081V5.757h-1.74V4.315h1.74v-3.99h1.512v3.99
		h1.512V5.757z M510.873,8.604h-6.514c-0.264,0.404-0.475,0.703-0.633,0.896h6.785c-0.047,1.312-0.112,2.514-0.197,3.604
		s-0.17,1.735-0.255,1.938s-0.224,0.386-0.417,0.55s-0.456,0.279-0.787,0.347s-1.051,0.102-2.158,0.102l-0.5-1.441
		c0.322,0.023,0.65,0.035,0.984,0.035c0.75,0.006,1.207-0.091,1.371-0.29s0.283-1.374,0.359-3.524h-0.482
		c-0.902,2.186-2.631,3.932-5.186,5.238l-1.117-1.046c2.273-1.049,3.861-2.446,4.764-4.192h-1.133
		c-1.137,1.605-2.982,2.979-5.537,4.122l-1.029-1.116c2.244-0.914,3.854-1.916,4.826-3.006h-1.547
		c-0.703,0.598-1.359,1.09-1.969,1.477l-1.02-1.099c1.342-0.744,2.408-1.608,3.199-2.593h-2.822V7.286h11.014V8.604z M509.959,6.372
		h-9.115V0.571h9.115V6.372z M508.43,2.856V1.925h-6.057v0.932H508.43z M508.43,5.054V4.104h-6.057v0.949H508.43z"/>
	<path fill="#F0B020" d="M528.891,11.461h-15.645v-1.459h2.293V7.576h-1.969V6.117h1.969V4.245c-0.275,0.24-0.686,0.583-1.23,1.028
		l-1.186-1.239c1.699-1.213,2.977-2.528,3.832-3.946l1.678,0.466c-0.264,0.51-0.582,0.979-0.957,1.406h10.73v1.494H516.33
		c-0.158,0.182-0.404,0.428-0.738,0.738h1.547v1.925h1.67V4.192h1.529v1.925h1.785V4.192h1.512v1.925h1.783V4.192h1.547v1.925h1.6
		v1.459h-1.6v2.426h1.926V11.461z M516.709,12.577c-0.574,1.4-1.26,2.613-2.057,3.639l-1.494-0.958
		c0.65-0.75,1.324-1.863,2.021-3.34L516.709,12.577z M518.809,10.002V7.576h-1.67v2.426H518.809z M520.488,15.601l-1.592,0.475
		c-0.211-1.096-0.539-2.244-0.984-3.445l1.529-0.536C519.834,13.014,520.184,14.183,520.488,15.601z M522.123,10.002V7.576h-1.785
		v2.426H522.123z M524.768,15.46l-1.547,0.615c-0.346-1.143-0.832-2.282-1.459-3.419l1.547-0.598
		C523.982,13.377,524.469,14.511,524.768,15.46z M525.418,10.002V7.576h-1.783v2.426H525.418z M529.014,15.425l-1.582,0.686
		c-0.492-1.23-1.152-2.426-1.979-3.586L527,11.821C527.832,12.987,528.504,14.188,529.014,15.425z"/>
	<path fill="#F0B020" d="M546.459,4.5h-1.529V2.54h-3.453v0.738c0,0.076,0.036,0.153,0.109,0.232s0.15,0.119,0.232,0.119h2.611
		v1.283h-3.332c-0.346,0-0.615-0.12-0.809-0.36S540,4.02,540,3.674V2.54h-1.75c-0.428,0.926-1.121,1.62-2.082,2.083l0.861,0.255
		c-0.152,0.346-0.314,0.639-0.484,0.879h2.189v3.709c0.193-0.27,0.369-0.551,0.527-0.844l1.002,1.028
		c-0.387,0.604-0.896,1.292-1.529,2.065v2.936c0,0.375-0.09,0.665-0.269,0.87s-0.422,0.343-0.729,0.413s-0.994,0.105-2.061,0.105
		l-0.414-1.371c0.844,0.012,1.382,0.009,1.613-0.009s0.348-0.146,0.348-0.387V12.99c-1.283,1.014-3.07,1.945-5.361,2.795
		l-0.773-1.301c1.846-0.539,3.482-1.263,4.912-2.171c-2.092,0.234-3.58,0.396-4.465,0.483l-0.307-1.222
		c0.48-0.029,0.938-0.067,1.371-0.114V5.757h2.215c0.146-0.199,0.301-0.451,0.465-0.756l-1.168,0.202l-0.537-1.371
		c1.271-0.064,2.262-0.495,2.971-1.292h-3.41V4.5h-1.529V1.204h6.391c-0.111-0.217-0.285-0.498-0.52-0.844l1.697-0.308
		c0.193,0.322,0.4,0.706,0.623,1.151h6.662V4.5z M537.223,7.699V6.926h-3.094v0.773H537.223z M537.223,9.466V8.675h-3.094v0.791
		H537.223z M537.223,10.942v-0.448h-3.094v0.826C535.342,11.238,536.373,11.112,537.223,10.942z M546.223,10.978
		c-0.059,1.295-0.152,2.295-0.281,3.001s-0.264,1.159-0.404,1.358s-0.332,0.344-0.572,0.435s-0.74,0.148-1.502,0.172
		s-1.629,0.035-2.602,0.035l-0.432-1.38c0.416,0.023,0.867,0.035,1.354,0.035c1.441,0,2.234-0.049,2.378-0.146
		s0.253-0.417,0.329-0.962s0.115-0.943,0.115-1.195h-4.588l0.605-3.911h3.807V7.075H540V5.774h5.924v3.946h-3.982l-0.184,1.257
		H546.223z"/>
	<path fill="#F0B020" d="M565.014,13.245c-0.094,0.943-0.293,1.611-0.598,2.004s-0.807,0.589-1.504,0.589
		c-5.273,0-8.107-0.017-8.503-0.049s-0.721-0.168-0.976-0.408s-0.383-0.7-0.383-1.38v-4.79h-0.686
		c-0.029,3.352-0.811,5.669-2.346,6.952l-0.949-1.187c1.225-1.072,1.836-2.994,1.836-5.766h-1.186V1.74h1.775
		c0.275-0.533,0.486-1.066,0.633-1.6l1.582,0.22c-0.17,0.445-0.385,0.905-0.643,1.38h3.701v7.471h-2.303v4.79
		c0,0.17,0.072,0.293,0.219,0.369s1.658,0.114,4.535,0.114c2.18,0,3.41-0.037,3.691-0.11s0.479-0.628,0.59-1.665L565.014,13.245z
		 M552.541,4.746V3.129h-1.326v1.617H552.541z M552.541,7.849V6.082h-1.326v1.767H552.541z M555.258,4.746V3.129h-1.293v1.617
		H555.258z M555.258,7.849V6.082h-1.293v1.767H555.258z M558.447,13.535l-1.01,0.431c-0.029-0.17-0.094-0.354-0.193-0.554
		c-0.645,0.182-1.342,0.343-2.092,0.483l-0.449-0.923c0.457-1.26,0.783-2.344,0.977-3.252l1.115,0.264
		c-0.234,0.949-0.518,1.813-0.852,2.593c0.17-0.012,0.453-0.07,0.852-0.176c-0.088-0.199-0.223-0.434-0.404-0.703l0.959-0.413
		C557.807,11.982,558.172,12.732,558.447,13.535z M564.943,10.31l-0.984,1.266c-0.768-0.979-1.518-1.802-2.25-2.47v4.685h-1.512
		V9.018c-0.475,0.973-1.1,1.963-1.873,2.971l-0.887-1.187c0.996-1.236,1.795-2.505,2.398-3.806h-2.521V5.528h2.883V3.674h-2.541
		V2.25h2.541V0.308h1.512V2.25h2.715v1.424h-2.715v1.854h2.908v1.468h-2.908V7.4C562.916,8.303,563.994,9.272,564.943,10.31z"/>
	<path fill="#F0B020" d="M582.029,3.331c-0.012,3.217-0.086,5.804-0.221,7.761s-0.322,3.168-0.562,3.634s-0.558,0.796-0.953,0.989
		s-1.279,0.29-2.65,0.29c-0.41,0-0.809-0.009-1.195-0.026l-0.615-1.67c0.592,0.035,1.588,0.053,2.988,0.053
		c0.229,0,0.433-0.062,0.611-0.185s0.303-0.278,0.373-0.466s0.156-0.863,0.256-2.026s0.17-2.324,0.211-3.484l0.096-3.322h-5.221
		c-0.17,2.848-0.774,5.093-1.814,6.736s-2.703,3.11-4.988,4.399l-1.08-1.327c1.688-0.814,3.104-1.919,4.249-3.313
		s1.817-3.56,2.017-6.495h-5.703V3.331h5.791c0.07-0.938,0.098-1.972,0.08-3.103h1.652c0,0.891-0.035,1.925-0.105,3.103H582.029z"/>
</g>
</svg>
