<?xml version="1.0" encoding="utf-8"?>
<!-- Generator: Adobe Illustrator 17.0.0, SVG Export Plug-In . SVG Version: 6.00 Build 0)  -->
<!DOCTYPE svg PUBLIC "-//W3C//DTD SVG 1.1//EN" "http://www.w3.org/Graphics/SVG/1.1/DTD/svg11.dtd">
<svg version="1.1" id="圖層_1" xmlns="http://www.w3.org/2000/svg" xmlns:xlink="http://www.w3.org/1999/xlink" x="0px" y="0px"
	 width="100px" height="90px" viewBox="0 0 100 90" enable-background="new 0 0 100 90" xml:space="preserve">
<g id="bg">
</g>
<g id="footer">
</g>
<g id="A-背景">
</g>
<g id="A-雪花左右">
</g>
<g id="A-選單">
</g>
<g id="A-主雪花_x28_一起轉_x29_">
</g>
<g id="A-指標">
</g>
<g id="A-小標">
</g>
<g id="A-主文">
</g>
<g id="A-上文">
</g>
<g id="B-index">
</g>
<g id="圖層_16" display="none">
</g>
<g id="圖層_3">
</g>
<g id="A-04" display="none">
</g>
<g id="A-03" display="none">
</g>
<g id="A-02" display="none">
</g>
<g id="A-01">
</g>
<g id="A-選單_1_">
</g>
<g id="B-04" display="none">
</g>
<g id="B-03" display="none">
</g>
<g id="B-02" display="none">
</g>
<g id="B-01">
</g>
<g id="C-index">
</g>
<g id="C-mouseover">
</g>
<g id="C-01" display="none">
</g>
<g id="D-01">
</g>
<g id="D-02" display="none">
</g>
<path fill="#FFFFFF" d="M72.612,19.981H66.75c-0.303,0-0.612,0.032-0.917,0.096l-0.354,0.074l-0.07-0.355
	c-0.404-2.078-2.235-3.587-4.354-3.587h-5.861c-0.347,0-0.695,0.041-1.037,0.122l-0.323,0.076l-0.099-0.317
	c-0.574-1.833-2.315-3.114-4.236-3.114h-5.864c-0.39,0-0.783,0.052-1.169,0.155l-0.332,0.089l-0.1-0.329
	c-0.565-1.851-2.31-3.143-4.244-3.143h-5.864c-2.446,0-4.436,1.99-4.436,4.436v18.446c0,0.442,0.359,0.801,0.801,0.801h1.65
	l0.3-0.18c0.284-0.17,0.428-0.38,0.428-0.621V14.186c0-0.695,0.563-1.261,1.256-1.261h5.864c0.694,0,1.258,0.565,1.258,1.261v16.741
	c0,0.212,0.088,0.414,0.249,0.57l0.483,0.467l-7.017,1.469h0.001l-6.369,1.333c-1.205,0.229-2.211,0.985-2.84,2.128
	c-0.553,1.014-0.736,2.221-0.514,3.398l3.85,17.123c0.025,0.107,0.273,0.444,0.448,0.61l3.289,3.096
	c0.953,0.901,1.82,1.73,2.35,2.241l0.109,0.105v2.347h-2.461c-0.442,0-0.801,0.36-0.801,0.802V79.38
	c0,0.442,0.359,0.802,0.801,0.802h41.614c0.442,0,0.802-0.36,0.802-0.802V66.617c0-0.442-0.36-0.802-0.802-0.802h-1.722l0.022-3.832
	l4.126-11.321c0.032-0.086,0.048-0.178,0.048-0.276v-8.36c0-0.131-0.081-0.258-0.196-0.423l-0.228-0.33l0.355-0.188
	c1.483-0.785,2.404-2.269,2.404-3.874V24.418C77.05,21.971,75.059,19.981,72.612,19.981z M53.936,20.647
	c0-0.693,0.565-1.256,1.259-1.256h5.861c0.694,0,1.258,0.563,1.258,1.256v16.565c0,0.693-0.564,1.256-1.258,1.256h-5.861
	c-0.335,0-0.66-0.134-0.891-0.368c-0.239-0.236-0.367-0.544-0.367-0.888V20.647z M42.226,30.85V17.898l0.047-0.082
	c0.07-0.124,0.107-0.263,0.107-0.403c0-0.693,0.563-1.256,1.256-1.256H49.5c0.694,0,1.258,0.563,1.258,1.256v19.798
	c0,0.474-0.262,0.9-0.676,1.115l-0.007,0.011l-0.519,0.243l-0.736-3.889c-0.396-2.084-2.254-3.596-4.418-3.596
	c-0.269,0-0.541,0.024-0.809,0.07l-1.451,0.303L42.226,30.85z M69.835,76.974H33.03v-7.951h36.805V76.974z M71.516,50.029
	L67.39,61.345c-0.032,0.086-0.048,0.178-0.048,0.276v4.194H36.265V62.54c0-0.132-0.197-0.525-0.364-0.727
	c-0.269-0.326-2.507-2.468-5.989-5.731l-0.08-0.075L26.156,39.65c-0.078-0.416-0.007-0.868,0.186-1.222
	c0.175-0.311,0.402-0.493,0.678-0.545l17.198-3.597c0.081-0.02,0.176-0.032,0.27-0.032c0.589,0,1.098,0.435,1.209,1.034l1.089,5.759
	c0.063,0.328-0.008,0.662-0.2,0.938c-0.19,0.28-0.487,0.468-0.858,0.54l-8.405,1.857c-0.427,0.094-0.697,0.504-0.616,0.932
	l0.981,5.182c0.018,0.101,0.057,0.196,0.117,0.286l4.436,6.76c0.232,0.354,0.749,0.46,1.115,0.229l1.312-0.86
	c0.179-0.118,0.301-0.297,0.343-0.505c0.045-0.21,0.004-0.427-0.112-0.599l-4.191-6.439l-0.451-2.379l6.104-1.349
	c1.176-0.224,2.184-0.884,2.85-1.86c0.43-0.634,0.653-1.413,0.68-2.381l0.02-0.708l0.557,0.439c0.174,0.137,0.479,0.292,0.754,0.173
	c0.323-0.14,0.628-0.316,0.907-0.524l0.212-0.158l0.213,0.157c0.761,0.561,1.697,0.871,2.637,0.871h5.861
	c0.956,0,1.867-0.301,2.634-0.87l0.212-0.158l0.213,0.158c0.765,0.569,1.676,0.87,2.635,0.87h4.796L71.516,50.029z M73.87,37.212
	c0,0.693-0.564,1.256-1.258,1.256H66.75c-0.342,0-0.649-0.127-0.889-0.367c-0.241-0.238-0.369-0.546-0.369-0.889V24.418
	c0-0.695,0.564-1.261,1.258-1.261h5.861c0.694,0,1.258,0.565,1.258,1.261V37.212z"/>
</svg>
