<?xml version="1.0" encoding="utf-8"?>
<!-- Generator: Adobe Illustrator 17.0.0, SVG Export Plug-In . SVG Version: 6.00 Build 0)  -->
<!DOCTYPE svg PUBLIC "-//W3C//DTD SVG 1.1//EN" "http://www.w3.org/Graphics/SVG/1.1/DTD/svg11.dtd">
<svg version="1.1" id="圖層_1" xmlns="http://www.w3.org/2000/svg" xmlns:xlink="http://www.w3.org/1999/xlink" x="0px" y="0px"
	 width="100px" height="90px" viewBox="0 0 100 90" enable-background="new 0 0 100 90" xml:space="preserve">
<g id="bg">
</g>
<g id="footer">
</g>
<g id="A-背景">
</g>
<g id="A-雪花左右">
</g>
<g id="A-選單">
</g>
<g id="A-主雪花_x28_一起轉_x29_">
</g>
<g id="A-指標">
</g>
<g id="A-小標">
</g>
<g id="A-主文">
</g>
<g id="A-上文">
</g>
<g id="B-index">
</g>
<g id="圖層_16" display="none">
</g>
<g id="圖層_3">
</g>
<g id="A-04" display="none">
</g>
<g id="A-03" display="none">
</g>
<g id="A-02" display="none">
</g>
<g id="A-01">
</g>
<g id="A-選單_1_">
</g>
<g id="B-04" display="none">
</g>
<g id="B-03" display="none">
</g>
<g id="B-02" display="none">
</g>
<g id="B-01">
</g>
<g id="C-index">
</g>
<g id="C-mouseover">
</g>
<g id="C-01" display="none">
</g>
<g id="D-01">
</g>
<g id="XMLID_584_">
	<path id="XMLID_712_" fill="#FFFFFF" d="M49.361,69.548H15.048c-0.782,0-1.416-0.633-1.416-1.416c0-0.782,0.633-1.416,1.416-1.416
		h34.314c0.782,0,1.416,0.633,1.416,1.416C50.777,68.915,50.144,69.548,49.361,69.548z"/>
	<path id="XMLID_708_" fill="#FFFFFF" d="M28.914,69.125c-0.782,0-1.416-0.633-1.416-1.416V39.316h-8.712v28.393
		c0,0.782-0.633,1.416-1.416,1.416s-1.416-0.633-1.416-1.416V37.9c0-0.782,0.633-1.416,1.416-1.416h11.544
		c0.782,0,1.416,0.633,1.416,1.416v29.809C30.33,68.492,29.696,69.125,28.914,69.125z"/>
	<path id="XMLID_635_" fill="#FFFFFF" d="M47.252,69.125c-0.782,0-1.416-0.633-1.416-1.416V26.385h-8.711v41.323
		c0,0.782-0.633,1.416-1.416,1.416s-1.416-0.633-1.416-1.416V24.97c0-0.782,0.633-1.416,1.416-1.416h11.543
		c0.782,0,1.416,0.633,1.416,1.416v42.739C48.668,68.492,48.036,69.125,47.252,69.125z"/>
	<path id="XMLID_596_" fill="#FFFFFF" d="M54.048,48.98c-0.782,0-1.416-0.633-1.416-1.416V10.887c0-0.782,0.633-1.416,1.416-1.416
		H65.59c0.782,0,1.416,0.633,1.416,1.416v31.056c0,0.782-0.633,1.416-1.416,1.416s-1.416-0.633-1.416-1.416V12.302h-8.711v35.261
		C55.464,48.347,54.831,48.98,54.048,48.98z"/>
	<path id="XMLID_214_" fill="#FFFFFF" d="M66.743,80.529c-10.82,0-19.623-8.805-19.623-19.625S55.923,41.28,66.743,41.28
		c10.822,0,19.625,8.805,19.625,19.625S77.565,80.529,66.743,80.529z M66.743,44.111c-9.259,0-16.792,7.532-16.792,16.793
		c0,9.261,7.532,16.793,16.792,16.793s16.793-7.532,16.793-16.793C83.536,51.643,76.002,44.111,66.743,44.111z"/>
	<path id="XMLID_208_" fill="#FFFFFF" d="M58.642,69.548c-0.375,0-0.748-0.147-1.026-0.44c-0.539-0.567-0.515-1.463,0.05-2.002
		c0.64-0.608,2.29-2.356,4.273-4.452c7.893-8.343,10.188-10.604,11.159-11.003c0.724-0.302,1.551,0.044,1.849,0.769
		c0.289,0.702-0.028,1.501-0.708,1.822c-1.088,0.683-7.037,6.971-10.243,10.358c-2.031,2.146-3.723,3.935-4.379,4.557
		C59.343,69.418,58.994,69.548,58.642,69.548z"/>
	<path id="XMLID_179_" fill="#FFFFFF" d="M73.638,67.289c-0.782,0-1.416-0.633-1.416-1.416V54.375H60.725
		c-0.782,0-1.416-0.633-1.416-1.416c0-0.782,0.633-1.416,1.416-1.416h12.913c0.782,0,1.416,0.633,1.416,1.416v12.913
		C75.054,66.655,74.421,67.289,73.638,67.289z"/>
</g>
</svg>
