<?xml version="1.0" encoding="utf-8"?>
<!-- Generator: Adobe Illustrator 17.0.0, SVG Export Plug-In . SVG Version: 6.00 Build 0)  -->
<!DOCTYPE svg PUBLIC "-//W3C//DTD SVG 1.1//EN" "http://www.w3.org/Graphics/SVG/1.1/DTD/svg11.dtd">
<svg version="1.1" id="圖層_1" xmlns="http://www.w3.org/2000/svg" xmlns:xlink="http://www.w3.org/1999/xlink" x="0px" y="0px"
	 width="115px" height="100px" viewBox="0 0 115 100" enable-background="new 0 0 115 100" xml:space="preserve">
<path fill="#004483" d="M83.646,15.212H75.42c-0.426,0-0.858,0.045-1.287,0.135l-0.496,0.104l-0.098-0.498
	c-0.567-2.917-3.137-5.033-6.11-5.033h-8.226c-0.486,0-0.976,0.058-1.456,0.171l-0.453,0.107l-0.139-0.444
	c-0.805-2.573-3.249-4.37-5.944-4.37h-8.229c-0.547,0-1.099,0.073-1.641,0.218l-0.466,0.125l-0.141-0.461
	c-0.793-2.597-3.242-4.411-5.956-4.411H26.55c-3.433,0-6.225,2.793-6.225,6.226v25.886c0,0.62,0.504,1.125,1.124,1.125h2.316
	l0.421-0.252c0.399-0.239,0.601-0.533,0.601-0.872V7.08c0-0.976,0.791-1.769,1.763-1.769h8.229c0.974,0,1.766,0.793,1.766,1.769
	v23.494c0,0.297,0.124,0.582,0.35,0.799l0.678,0.655l-9.848,2.062h0.002l-8.938,1.871c-1.69,0.322-3.103,1.382-3.985,2.987
	c-0.776,1.423-1.032,3.117-0.721,4.768l5.402,24.029c0.036,0.15,0.383,0.623,0.629,0.856l4.615,4.345
	c1.338,1.265,2.555,2.428,3.297,3.146l0.153,0.147v3.294h-3.454c-0.62,0-1.124,0.505-1.124,1.125v17.91
	c0,0.62,0.504,1.125,1.124,1.125h58.399c0.62,0,1.125-0.505,1.125-1.125v-17.91c0-0.62-0.505-1.125-1.125-1.125h-2.416l0.03-5.378
	l5.79-15.887c0.045-0.121,0.067-0.25,0.067-0.388V46.149c0-0.184-0.113-0.362-0.274-0.594l-0.32-0.463l0.498-0.264
	c2.081-1.101,3.374-3.185,3.374-5.437V21.438C89.874,18.005,87.08,15.212,83.646,15.212z M57.437,16.146
	c0-0.972,0.792-1.763,1.766-1.763h8.226c0.974,0,1.766,0.791,1.766,1.763v23.247c0,0.972-0.792,1.763-1.766,1.763h-8.226
	c-0.471,0-0.927-0.188-1.25-0.517c-0.336-0.332-0.516-0.764-0.516-1.246V16.146z M41.004,30.464V12.289l0.065-0.115
	c0.098-0.173,0.15-0.369,0.15-0.565c0-0.972,0.791-1.763,1.763-1.763h8.229c0.974,0,1.766,0.791,1.766,1.763v27.783
	c0,0.665-0.368,1.263-0.949,1.564l-0.01,0.016l-0.729,0.341l-1.032-5.458c-0.555-2.924-3.163-5.047-6.2-5.047
	c-0.377,0-0.759,0.033-1.135,0.098l-2.036,0.426L41.004,30.464z M79.749,95.192H28.1V84.034h51.649V95.192z M82.107,57.379
	l-5.79,15.881c-0.045,0.121-0.067,0.25-0.067,0.388v5.886H32.639v-4.598c0-0.185-0.277-0.737-0.51-1.021
	c-0.377-0.457-3.519-3.464-8.404-8.043l-0.112-0.105l-5.16-22.952c-0.109-0.584-0.01-1.218,0.262-1.714
	c0.245-0.436,0.564-0.692,0.951-0.765L43.8,35.287c0.113-0.028,0.247-0.045,0.379-0.045c0.827,0,1.541,0.611,1.696,1.452
	l1.528,8.082c0.089,0.46-0.011,0.929-0.28,1.317c-0.267,0.394-0.684,0.657-1.204,0.757l-11.794,2.605
	c-0.599,0.132-0.979,0.707-0.864,1.309l1.377,7.271c0.026,0.142,0.081,0.275,0.164,0.401l6.225,9.486
	c0.326,0.496,1.051,0.646,1.565,0.321l1.842-1.207c0.251-0.166,0.423-0.417,0.481-0.709c0.063-0.295,0.005-0.6-0.157-0.841
	l-5.881-9.036l-0.633-3.339l8.566-1.894c1.65-0.314,3.065-1.24,4-2.61c0.604-0.89,0.917-1.983,0.954-3.341l0.028-0.994l0.782,0.616
	c0.245,0.192,0.672,0.41,1.059,0.243c0.453-0.196,0.881-0.443,1.273-0.735l0.297-0.222l0.298,0.22
	c1.067,0.788,2.382,1.222,3.701,1.222h8.226c1.342,0,2.62-0.422,3.696-1.221l0.298-0.222l0.299,0.222
	c1.073,0.799,2.352,1.221,3.698,1.221h6.73L82.107,57.379z M85.411,39.393c0,0.972-0.792,1.763-1.766,1.763H75.42
	c-0.479,0-0.911-0.178-1.248-0.515c-0.338-0.333-0.518-0.766-0.518-1.248V21.438c0-0.976,0.792-1.769,1.766-1.769h8.226
	c0.974,0,1.766,0.793,1.766,1.769V39.393z"/>
</svg>
