<!-- Generator: Adobe Illustrator 17.0.0, SVG Export Plug-In  -->
<svg version="1.1"
	 xmlns="http://www.w3.org/2000/svg" xmlns:xlink="http://www.w3.org/1999/xlink" xmlns:a="http://ns.adobe.com/AdobeSVGViewerExtensions/3.0/"
	 x="0px" y="0px" width="821.994px" height="724.904px" viewBox="0 0 821.994 724.904" enable-background="new 0 0 821.994 724.904"
	 xml:space="preserve">
<defs>
</defs>
<rect x="0" y="0" fill="none" width="821.994" height="724.904"/>
<path opacity="0.8" fill="#FFFFFF" d="M485.867,403.245c0.337-0.583,0.339-1.272,0.007-1.847c-0.159-0.274-0.387-0.499-0.681-0.669
	l-14.928-8.623c-0.982-0.567-1.527-1.672-1.379-2.797c0.149-1.126,0.96-2.051,2.057-2.345l12.698-3.403
	c0.977-0.263,1.56-1.276,1.297-2.257c-0.043-0.161-0.101-0.302-0.186-0.447c-0.414-0.718-1.266-1.065-2.072-0.853l-21.664,5.809
	c-0.721,0.191-1.484,0.091-2.129-0.28l-6.797-3.918c-0.984-0.567-1.529-1.67-1.382-2.796c0.148-1.126,0.959-2.052,2.055-2.347
	l12.695-3.408c0.479-0.128,0.876-0.432,1.122-0.858c0.247-0.427,0.313-0.923,0.186-1.397c-0.059-0.209-0.132-0.359-0.179-0.441
	c-0.417-0.722-1.269-1.066-2.077-0.855l-21.673,5.808c-0.72,0.191-1.485,0.093-2.129-0.28l-6.792-3.917
	c-0.983-0.567-1.529-1.671-1.381-2.797c0.148-1.126,0.959-2.051,2.056-2.346l12.698-3.405c0.911-0.246,1.478-1.142,1.315-2.085
	c-0.054-0.312-0.055-0.631-0.003-0.943c0.076-0.448,0.005-0.887-0.197-1.239c-0.245-0.424-0.642-0.729-1.117-0.856l-12.694-3.404
	c-1.097-0.294-1.908-1.22-2.056-2.345c-0.148-1.126,0.397-2.23,1.38-2.798l6.791-3.92c0.645-0.371,1.408-0.474,2.13-0.28
	l21.675,5.807c0.475,0.126,0.969,0.063,1.393-0.183c0.423-0.244,0.726-0.64,0.853-1.112c0.177-0.644-0.037-1.153-0.181-1.401
	c-0.247-0.429-0.645-0.736-1.118-0.863l-12.695-3.395c-1.096-0.293-1.909-1.219-2.058-2.345c-0.148-1.126,0.397-2.23,1.38-2.798
	l6.795-3.923c0.643-0.372,1.408-0.473,2.13-0.281l21.674,5.807c0.983,0.264,1.994-0.323,2.259-1.306
	c0.125-0.471,0.06-0.97-0.185-1.393c-0.244-0.424-0.647-0.73-1.132-0.863l-12.686-3.393c-1.097-0.293-1.909-1.219-2.058-2.345
	c-0.148-1.126,0.397-2.23,1.38-2.798l14.937-8.624c0.425-0.246,0.729-0.641,0.855-1.115c0.127-0.474,0.061-0.971-0.185-1.398
	c-0.507-0.878-1.634-1.182-2.51-0.676l-14.937,8.624c-0.981,0.568-2.211,0.49-3.112-0.204c-0.901-0.691-1.297-1.857-1.002-2.953
	l3.405-12.702c0.126-0.474,0.062-0.97-0.183-1.393c-0.245-0.425-0.642-0.729-1.121-0.858c-0.474-0.127-0.974-0.064-1.4,0.183
	c-0.423,0.245-0.725,0.641-0.85,1.113l-5.811,21.683c-0.193,0.719-0.662,1.332-1.308,1.704l-6.795,3.923
	c-0.981,0.568-2.212,0.488-3.112-0.204c-0.901-0.691-1.297-1.857-1.002-2.953l3.406-12.703c0.17-0.633-0.045-1.144-0.188-1.393
	c-0.142-0.246-0.475-0.685-1.101-0.849c-0.501-0.136-0.992-0.072-1.414,0.173c-0.421,0.243-0.723,0.638-0.848,1.111l-5.812,21.683
	c-0.193,0.719-0.662,1.332-1.308,1.704l-6.79,3.921c-0.981,0.567-2.21,0.487-3.111-0.203c-0.901-0.691-1.298-1.857-1.004-2.953
	l3.396-12.698c0.175-0.641-0.038-1.149-0.181-1.395c-0.206-0.357-0.539-0.628-0.967-0.787c-0.299-0.111-0.577-0.271-0.821-0.475
	c-0.737-0.617-1.794-0.574-2.46,0.093l-9.299,9.298c-0.803,0.802-2.01,1.044-3.059,0.609c-1.049-0.435-1.732-1.458-1.732-2.594
	l0.003-7.842c0-0.745,0.296-1.458,0.822-1.984l15.869-15.866c0.589-0.59,0.712-1.505,0.296-2.224c-0.07-0.122-0.18-0.26-0.335-0.421
	c-0.62-0.616-1.871-0.654-2.566,0.04l-9.297,9.297c-0.803,0.803-2.01,1.041-3.06,0.609c-1.049-0.436-1.732-1.46-1.732-2.595
	l0.006-7.846c0.001-0.743,0.296-1.456,0.821-1.982l15.86-15.867c0.588-0.588,0.711-1.502,0.297-2.22
	c-0.081-0.141-0.18-0.27-0.295-0.385c-0.715-0.716-1.883-0.717-2.601,0.001l-9.292,9.297c-0.803,0.801-2.008,1.044-3.059,0.609
	c-1.049-0.434-1.733-1.457-1.733-2.592l-0.005-17.242c0-0.334-0.082-0.652-0.238-0.923c-0.33-0.57-0.943-0.925-1.6-0.925
	c-1.012,0.003-1.84,0.832-1.842,1.848l-0.001,17.238c0,1.136-0.684,2.159-1.732,2.593c-1.049,0.436-2.257,0.193-3.059-0.609
	l-9.293-9.292c-0.349-0.349-0.811-0.541-1.304-0.542h-0.002c-0.491,0-0.952,0.191-1.299,0.537c-0.713,0.717-0.715,1.889,0.003,2.606
	l15.867,15.865c0.526,0.526,0.822,1.24,0.822,1.985v7.848c0,1.136-0.684,2.159-1.732,2.593c-1.049,0.437-2.257,0.194-3.059-0.609
	l-9.298-9.298c-0.349-0.35-0.809-0.54-1.298-0.54c-0.492,0-0.952,0.191-1.298,0.537c-0.718,0.721-0.72,1.887-0.005,2.601
	l15.867,15.869c0.526,0.526,0.822,1.24,0.822,1.985l0.001,7.845c0,1.135-0.684,2.158-1.732,2.593
	c-1.048,0.435-2.257,0.195-3.059-0.608l-9.298-9.295c-0.668-0.666-1.729-0.711-2.463-0.101c-0.245,0.203-0.522,0.364-0.82,0.473
	c-0.9,0.333-1.394,1.274-1.15,2.188l3.404,12.695c0.294,1.096-0.101,2.262-1.001,2.954c-0.902,0.692-2.131,0.771-3.112,0.205
	l-6.797-3.921c-0.645-0.372-1.116-0.986-1.309-1.705l-5.806-21.676c-0.044-0.157-0.105-0.309-0.186-0.448
	c-0.413-0.715-1.264-1.065-2.069-0.852c-0.474,0.126-0.87,0.429-1.116,0.854c-0.249,0.429-0.314,0.926-0.187,1.402l3.409,12.694
	c0.294,1.096-0.101,2.262-1.001,2.954c-0.9,0.693-2.13,0.771-3.112,0.206l-6.799-3.923c-0.645-0.373-1.117-0.986-1.309-1.705
	l-5.803-21.676c-0.044-0.159-0.104-0.306-0.183-0.443c-0.417-0.719-1.269-1.075-2.085-0.856c-0.464,0.124-0.86,0.429-1.106,0.855
	c-0.246,0.427-0.311,0.922-0.183,1.396l3.398,12.7c0.293,1.097-0.103,2.262-1.004,2.953s-2.13,0.771-3.111,0.203l-14.929-8.622
	c-0.877-0.504-2.008-0.201-2.521,0.679c-0.241,0.418-0.306,0.916-0.177,1.392c0.128,0.476,0.432,0.873,0.856,1.117l14.934,8.627
	c0.983,0.567,1.527,1.672,1.379,2.798c-0.149,1.125-0.96,2.05-2.057,2.344l-12.7,3.4c-0.977,0.262-1.558,1.276-1.296,2.26
	c0.264,0.971,1.274,1.555,2.251,1.295l21.675-5.803c0.716-0.191,1.482-0.093,2.127,0.28l6.796,3.916
	c0.984,0.567,1.53,1.671,1.382,2.798c-0.148,1.126-0.959,2.051-2.057,2.346l-12.697,3.404c-0.477,0.128-0.874,0.431-1.118,0.857
	c-0.246,0.425-0.312,0.921-0.185,1.395c0.259,0.963,1.298,1.562,2.261,1.305l21.672-5.809c0.715-0.194,1.486-0.092,2.13,0.28
	l6.789,3.919c0.983,0.568,1.528,1.672,1.38,2.798c-0.148,1.126-0.96,2.051-2.057,2.345l-12.698,3.404
	c-0.914,0.244-1.478,1.142-1.316,2.089c0.054,0.313,0.054,0.633,0,0.947c-0.161,0.944,0.405,1.839,1.315,2.082l12.698,3.408
	c1.096,0.294,1.908,1.22,2.056,2.346c0.148,1.125-0.397,2.229-1.38,2.796l-6.791,3.921c-0.644,0.373-1.409,0.472-2.13,0.281
	l-21.676-5.807c-0.482-0.129-0.972-0.066-1.394,0.176c-0.423,0.244-0.726,0.641-0.853,1.118c-0.13,0.481-0.065,0.974,0.179,1.398
	c0.246,0.426,0.643,0.73,1.118,0.858l12.7,3.404c1.096,0.293,1.909,1.219,2.057,2.345c0.148,1.126-0.397,2.23-1.38,2.797
	l-6.797,3.925c-0.645,0.372-1.413,0.473-2.13,0.281l-21.673-5.809c-0.478-0.128-0.975-0.066-1.4,0.179
	c-0.423,0.245-0.726,0.641-0.853,1.118c-0.13,0.481-0.065,0.974,0.179,1.398c0.246,0.426,0.643,0.73,1.118,0.858l12.702,3.403
	c1.096,0.293,1.909,1.219,2.057,2.345c0.148,1.126-0.397,2.23-1.38,2.797l-14.939,8.625c-0.876,0.507-1.178,1.634-0.671,2.512
	c0.248,0.428,0.644,0.733,1.118,0.86c0.473,0.128,0.967,0.06,1.393-0.183l14.939-8.625c0.981-0.569,2.211-0.488,3.112,0.204
	s1.297,1.858,1.002,2.954l-3.406,12.698c-0.127,0.474-0.061,0.97,0.185,1.396c0.246,0.426,0.642,0.73,1.118,0.858
	c0.985,0.26,1.992-0.322,2.254-1.301l5.807-21.674c0.193-0.719,0.662-1.332,1.308-1.704l6.797-3.924
	c0.981-0.57,2.211-0.489,3.112,0.204c0.901,0.692,1.297,1.858,1.002,2.954l-3.405,12.696c-0.262,0.98,0.322,1.992,1.302,2.255
	c0.474,0.124,0.971,0.062,1.395-0.183c0.424-0.245,0.727-0.641,0.853-1.113l5.81-21.678c0.193-0.719,0.662-1.332,1.308-1.704
	l6.791-3.921c0.981-0.568,2.209-0.49,3.112,0.204c0.901,0.691,1.297,1.856,1.002,2.953l-3.398,12.692
	c-0.243,0.913,0.25,1.854,1.15,2.188c0.298,0.11,0.575,0.27,0.82,0.473c0.734,0.612,1.797,0.569,2.47-0.099l9.293-9.291
	c0.803-0.802,2.009-1.044,3.059-0.609c1.049,0.434,1.732,1.458,1.732,2.593v7.839c0,0.745-0.296,1.458-0.822,1.985l-15.87,15.869
	c-0.705,0.704-0.702,1.894,0.005,2.602c0.687,0.689,1.902,0.691,2.594-0.004l9.303-9.293c0.803-0.802,2.009-1.044,3.059-0.606
	c1.049,0.435,1.732,1.459,1.732,2.594l-0.005,7.846c-0.001,0.744-0.296,1.457-0.822,1.984l-15.866,15.86
	c-0.711,0.714-0.71,1.887,0.006,2.61c0.713,0.712,1.882,0.714,2.599-0.004l9.294-9.294c0.801-0.803,2.009-1.046,3.058-0.609
	c1.049,0.434,1.733,1.457,1.733,2.592l0.005,17.242c-0.001,0.495,0.189,0.955,0.535,1.301c0.346,0.348,0.808,0.539,1.298,0.539
	h0.001h0.001c1.017,0,1.843-0.825,1.844-1.839l-0.005-17.242c0-1.136,0.684-2.159,1.733-2.594c1.049-0.434,2.256-0.194,3.059,0.608
	l9.301,9.297c0.346,0.347,0.806,0.537,1.296,0.537h0.001c0.492,0,0.955-0.192,1.303-0.54c0.59-0.588,0.713-1.5,0.3-2.217
	c-0.081-0.141-0.186-0.276-0.309-0.4l-15.86-15.852c-0.526-0.527-0.822-1.242-0.822-1.987l0.004-7.847
	c0.001-1.136,0.685-2.159,1.734-2.593c1.046-0.433,2.257-0.193,3.058,0.61l9.291,9.299c0.347,0.346,0.772,0.516,1.303,0.536
	c0.492-0.001,0.951-0.192,1.296-0.538c0.596-0.592,0.715-1.5,0.301-2.219c-0.079-0.137-0.181-0.268-0.304-0.393l-15.859-15.857
	c-0.527-0.526-0.822-1.241-0.822-1.986l0.003-7.846c0-1.135,0.684-2.158,1.733-2.592c1.05-0.438,2.258-0.195,3.059,0.609
	l9.295,9.297c0.667,0.668,1.728,0.706,2.466,0.094c0.245-0.203,0.522-0.364,0.821-0.474c0.896-0.331,1.389-1.268,1.145-2.181
	l-3.4-12.698c-0.294-1.097,0.101-2.262,1.002-2.953c0.902-0.691,2.131-0.771,3.112-0.204l6.794,3.923
	c0.645,0.372,1.115,0.985,1.308,1.704l5.809,21.673c0.127,0.475,0.431,0.871,0.858,1.118c0.424,0.243,0.917,0.309,1.386,0.183
	c0.485-0.128,0.88-0.431,1.126-0.855c0.245-0.425,0.31-0.918,0.183-1.391l-3.402-12.701c-0.294-1.097,0.101-2.262,1.002-2.953
	c0.899-0.692,2.128-0.773,3.111-0.205l6.794,3.919c0.645,0.372,1.116,0.986,1.309,1.705l5.805,21.673
	c0.264,0.982,1.279,1.565,2.257,1.306c0.979-0.263,1.564-1.273,1.302-2.25l-3.406-12.701c-0.294-1.097,0.101-2.263,1.002-2.954
	c0.901-0.692,2.131-0.772,3.112-0.204l14.935,8.626c0.424,0.242,0.918,0.307,1.395,0.182
	C485.226,403.975,485.622,403.671,485.867,403.245z M399.206,339.584c1.1-0.633,2.492-0.451,3.388,0.448l5.738,5.745
	c0.526,0.526,0.821,1.24,0.821,1.984v4.201c0,1.003-0.535,1.93-1.404,2.431c-0.434,0.25-0.918,0.376-1.403,0.376
	c-0.485,0-0.97-0.125-1.404-0.376l-3.637-2.102c-0.644-0.373-1.115-0.985-1.307-1.704l-2.102-7.845
	C397.569,341.515,398.105,340.219,399.206,339.584z M389.486,362.725c-1.227-0.329-2.081-1.441-2.081-2.711
	c0-1.27,0.853-2.382,2.081-2.711l7.85-2.103c0.718-0.192,1.488-0.092,2.134,0.282l3.637,2.106c0.867,0.502,1.401,1.428,1.4,2.431
	c-0.001,1.002-0.535,1.928-1.404,2.43l-3.639,2.101c-0.43,0.248-0.916,0.376-1.404,0.376c-0.243,0-0.488-0.032-0.726-0.096
	L389.486,362.725z M408.335,374.251l-5.748,5.746c-0.541,0.54-1.259,0.821-1.986,0.821c-0.481,0-0.965-0.123-1.404-0.376
	c-1.1-0.636-1.636-1.931-1.307-3.158l2.105-7.844c0.193-0.719,0.663-1.331,1.308-1.703l3.639-2.101
	c0.868-0.503,1.938-0.502,2.806-0.001s1.404,1.426,1.404,2.429l0.004,4.199C409.159,373.008,408.863,373.724,408.335,374.251z
	 M412.833,347.765c-0.001-0.746,0.295-1.461,0.822-1.988l5.748-5.747c0.898-0.898,2.288-1.083,3.389-0.445
	c1.1,0.636,1.636,1.931,1.307,3.158l-2.107,7.85c-0.193,0.719-0.663,1.331-1.308,1.703l-3.637,2.1
	c-0.434,0.251-0.919,0.376-1.404,0.376s-0.969-0.125-1.403-0.376c-0.868-0.501-1.404-1.426-1.404-2.429L412.833,347.765z
	 M422.789,380.438c-0.439,0.253-0.923,0.376-1.404,0.376c-0.726,0-1.445-0.281-1.986-0.822l-5.737-5.737
	c-0.526-0.525-0.821-1.238-0.822-1.982l-0.004-4.207c-0.001-1.003,0.534-1.932,1.403-2.433c0.87-0.503,1.939-0.503,2.809,0
	l3.637,2.101c0.644,0.372,1.114,0.985,1.307,1.703l2.104,7.843C424.425,378.507,423.889,379.803,422.789,380.438z M424.655,364.828
	c-0.239,0.064-0.484,0.096-0.727,0.096c-0.489,0-0.974-0.128-1.404-0.376l-3.636-2.102c-0.868-0.502-1.403-1.429-1.403-2.431
	c0-1.002,0.535-1.929,1.404-2.43l3.637-2.1c0.643-0.372,1.407-0.475,2.128-0.281l7.85,2.096c1.227,0.328,2.082,1.44,2.082,2.71
	c0.001,1.271-0.853,2.384-2.08,2.713L424.655,364.828z"/>
</svg>
