<?xml version="1.0" encoding="utf-8"?>
<!-- Generator: Adobe Illustrator 17.0.0, SVG Export Plug-In . SVG Version: 6.00 Build 0)  -->
<!DOCTYPE svg PUBLIC "-//W3C//DTD SVG 1.1//EN" "http://www.w3.org/Graphics/SVG/1.1/DTD/svg11.dtd">
<svg version="1.1" id="Layer_1" xmlns="http://www.w3.org/2000/svg" xmlns:xlink="http://www.w3.org/1999/xlink" x="0px" y="0px"
	 width="253px" height="175px" viewBox="0 0 253 175" enable-background="new 0 0 253 175" xml:space="preserve">
<g id="bg">
</g>
<g id="footer">
</g>
<g id="A-背景">
</g>
<g id="A-雪花左右">
</g>
<g id="A-選單">
</g>
<g id="A-主雪花_x28_一起轉_x29_">
</g>
<g id="A-指標">
</g>
<g id="A-小標">
</g>
<g id="A-主文">
</g>
<g id="A-上文">
</g>
<g id="B-index">
</g>
<g id="圖層_16" display="none">
</g>
<g id="圖層_3">
</g>
<g id="A-04" display="none">
</g>
<g id="A-03" display="none">
</g>
<g id="A-02" display="none">
</g>
<g id="A-01">
</g>
<g id="A-選單_1_">
</g>
<g id="B-04" display="none">
</g>
<g id="B-index_1_">
</g>
<g id="B-03" display="none">
</g>
<g id="B-02" display="none">
</g>
<g id="B-01">
</g>
<g id="C-index">
</g>
<g id="C-mouseover">
</g>
<g id="C-01">
	<g>
		<g enable-background="new    ">
			<path d="M197.15,52.673c-0.229,0.545-0.536,1.201-0.923,1.969l-0.589,1.134v12.287h-0.958V57.516
				c-0.539,0.867-1.204,1.775-1.995,2.725l-0.598-0.888c1.67-1.975,3.038-4.315,4.104-7.022L197.15,52.673z M208.075,67.632H196.5
				v-0.932h3.639c-0.305-2.918-0.976-6.141-2.013-9.668l0.624-0.343h-2.013v-0.932h5.344c-0.252-1.096-0.612-2.153-1.081-3.173
				l0.905-0.308c0.434,0.99,0.829,2.15,1.187,3.48h4.693v0.932h-1.811l0.571,0.22c-0.527,3.686-1.236,6.949-2.127,9.791h3.656
				V67.632z M205.57,56.69h-6.495c0.973,3.639,1.658,6.976,2.057,10.011h2.32C204.489,63.384,205.195,60.047,205.57,56.69z"/>
		</g>
		<g enable-background="new    ">
			<path d="M197.15,111.236c-0.229,0.545-0.536,1.201-0.923,1.969l-0.589,1.134v12.287h-0.958v-10.547
				c-0.539,0.867-1.204,1.775-1.995,2.725l-0.598-0.888c1.67-1.975,3.038-4.315,4.104-7.022L197.15,111.236z M208.075,126.195H196.5
				v-0.932h3.639c-0.305-2.918-0.976-6.141-2.013-9.668l0.624-0.343h-2.013v-0.932h5.344c-0.252-1.096-0.612-2.153-1.081-3.173
				l0.905-0.308c0.434,0.99,0.829,2.15,1.187,3.48h4.693v0.932h-1.811l0.571,0.22c-0.527,3.686-1.236,6.949-2.127,9.791h3.656
				V126.195z M205.57,115.253h-6.495c0.973,3.639,1.658,6.976,2.057,10.011h2.32C204.489,121.947,205.195,118.61,205.57,115.253z"/>
		</g>
		<g>
			<g enable-background="new    ">
				<path fill="#231815" d="M117.976,61.696l3.932-0.523c0.451,2.228,1.22,3.833,2.305,4.816c1.084,0.982,2.406,1.475,3.964,1.475
					c1.85,0,3.411-0.641,4.686-1.923c1.274-1.281,1.912-2.868,1.912-4.762c0-1.806-0.59-3.295-1.77-4.467
					c-1.18-1.173-2.68-1.759-4.5-1.759c-0.743,0-1.668,0.146-2.774,0.437l0.437-3.451c0.262,0.029,0.473,0.044,0.633,0.044
					c1.675,0,3.182-0.438,4.522-1.311c1.339-0.874,2.009-2.221,2.009-4.041c0-1.442-0.487-2.636-1.463-3.583
					c-0.977-0.946-2.236-1.42-3.779-1.42c-1.529,0-2.804,0.48-3.823,1.442c-1.02,0.961-1.675,2.402-1.966,4.324l-3.932-0.698
					c0.48-2.636,1.573-4.679,3.276-6.128c1.704-1.449,3.823-2.173,6.357-2.173c1.747,0,3.356,0.375,4.827,1.125
					c1.471,0.75,2.596,1.773,3.375,3.069c0.778,1.297,1.169,2.673,1.169,4.129c0,1.384-0.372,2.644-1.114,3.779
					c-0.743,1.136-1.843,2.039-3.299,2.708c1.894,0.438,3.364,1.344,4.413,2.72c1.048,1.377,1.572,3.099,1.572,5.166
					c0,2.797-1.02,5.167-3.058,7.11c-2.039,1.944-4.617,2.917-7.733,2.917c-2.811,0-5.145-0.838-7.001-2.513
					C119.297,66.532,118.238,64.361,117.976,61.696z"/>
				<path fill="#231815" d="M143.819,61.763l4.128-0.35c0.307,2.01,1.016,3.521,2.131,4.532c1.113,1.013,2.457,1.519,4.029,1.519
					c1.893,0,3.496-0.714,4.807-2.141c1.311-1.428,1.965-3.32,1.965-5.68c0-2.242-0.629-4.012-1.889-5.309
					c-1.26-1.296-2.91-1.944-4.947-1.944c-1.268,0-2.41,0.288-3.43,0.863s-1.821,1.321-2.403,2.239l-3.692-0.48l3.103-16.449h15.925
					v3.757h-12.779l-1.727,8.606c1.924-1.34,3.939-2.01,6.051-2.01c2.797,0,5.156,0.969,7.078,2.905s2.883,4.427,2.883,7.471
					c0,2.898-0.844,5.403-2.533,7.515c-2.053,2.592-4.857,3.888-8.41,3.888c-2.912,0-5.289-0.815-7.132-2.446
					S144.081,64.457,143.819,61.763z"/>
			</g>
		</g>
		<g>
			<g enable-background="new    ">
				<path fill="#231815" d="M141.991,120.26l3.932-0.523c0.451,2.228,1.22,3.833,2.305,4.816c1.085,0.982,2.406,1.475,3.965,1.475
					c1.85,0,3.411-0.641,4.686-1.923c1.274-1.281,1.911-2.868,1.911-4.762c0-1.806-0.59-3.295-1.77-4.467
					c-1.18-1.173-2.68-1.759-4.499-1.759c-0.743,0-1.668,0.146-2.774,0.437l0.437-3.451c0.263,0.029,0.473,0.044,0.634,0.044
					c1.674,0,3.182-0.438,4.521-1.311c1.34-0.874,2.01-2.221,2.01-4.041c0-1.442-0.488-2.636-1.464-3.583
					c-0.976-0.946-2.235-1.42-3.778-1.42c-1.529,0-2.804,0.48-3.823,1.442c-1.02,0.961-1.675,2.402-1.966,4.324l-3.932-0.698
					c0.48-2.636,1.572-4.679,3.276-6.128c1.704-1.448,3.822-2.173,6.356-2.173c1.747,0,3.356,0.375,4.827,1.125
					s2.596,1.772,3.375,3.068c0.779,1.297,1.169,2.673,1.169,4.129c0,1.384-0.371,2.644-1.114,3.779
					c-0.742,1.136-1.842,2.039-3.298,2.708c1.893,0.438,3.363,1.344,4.412,2.72c1.049,1.377,1.573,3.099,1.573,5.166
					c0,2.797-1.02,5.167-3.059,7.11c-2.039,1.944-4.616,2.917-7.732,2.917c-2.812,0-5.145-0.838-7.001-2.513
					C143.312,125.096,142.253,122.925,141.991,120.26z"/>
			</g>
		</g>
		<g enable-background="new    ">
			<path d="M59.542,63.044H52.3c-0.346,1.084-1.021,1.992-2.026,2.725s-2.811,1.45-5.418,2.153l-0.545-0.826
				c1.893-0.451,3.442-0.991,4.649-1.621s1.998-1.44,2.373-2.431h-6.442V62.2h6.653c0.105-0.334,0.167-0.794,0.185-1.38l0.932,0.035
				c-0.029,0.615-0.076,1.063-0.141,1.345h7.022V63.044z M60.026,60.258H44.364v-0.914h7.348v-1.679h-5.836v-0.861h5.836V55.16
				h-6.557v-0.879h14.062v0.879h-6.574v1.644h5.854v0.861h-5.854v1.679h7.383V60.258z M50.428,53.455l-0.844,0.554
				c-0.428-0.475-1.052-0.952-1.872-1.433l0.888-0.562C49.344,52.447,49.954,52.928,50.428,53.455z M59.885,67.245l-0.58,0.773
				c-1.881-1.195-4.052-2.247-6.513-3.155l0.501-0.791C55.485,64.84,57.682,65.897,59.885,67.245z M56.352,52.576
				c-0.516,0.516-1.163,0.993-1.942,1.433l-0.861-0.554c0.715-0.369,1.374-0.838,1.978-1.406L56.352,52.576z"/>
			<path d="M77.217,67.922h-0.896v-1.257H64.113v1.222h-0.94V52.532h14.045V67.922z M76.321,65.769V53.42H64.113v12.349H76.321z
				 M70.379,63.009c-2.268,0.65-4.075,1.066-5.423,1.248l-0.123-0.888c1.441-0.17,3.264-0.571,5.467-1.204L70.379,63.009z
				 M75.723,62.525c-0.152,0.633-0.352,1.182-0.598,1.648c-0.246,0.465-0.447,0.753-0.602,0.861s-0.368,0.162-0.637,0.162
				c-0.551,0-1.107-0.621-1.67-1.863c-0.604,0.715-1.26,1.345-1.969,1.89l-0.721-0.642c0.756-0.498,1.506-1.236,2.25-2.215
				c-0.586-1.693-0.943-3.577-1.072-5.651h-5.854v-0.853h5.774c-0.029-0.562-0.035-1.192-0.018-1.89h0.905
				c-0.018,0.516-0.006,1.146,0.035,1.89h3.973v0.853h-3.938c0.146,1.939,0.416,3.516,0.809,4.729
				c0.656-1.043,1.251-2.262,1.784-3.656l0.826,0.36c-0.604,1.547-1.342,2.988-2.215,4.324c0.199,0.51,0.407,0.926,0.624,1.248
				s0.369,0.483,0.457,0.483c0.281,0,0.63-0.715,1.046-2.145L75.723,62.525z M69.588,61.611h-3.911v-3.48h3.911V61.611z
				 M68.683,60.706v-1.705h-2.101v1.705H68.683z M74.537,55.204l-0.791,0.378c-0.246-0.428-0.554-0.838-0.923-1.23l0.773-0.431
				C73.989,54.319,74.302,54.747,74.537,55.204z"/>
		</g>
		<g enable-background="new    ">
			<path d="M60.026,119.05l-0.501,0.809c-1.846-1.061-4.14-2.115-6.882-3.164v2.558h4.86v7.374h-0.932v-0.984h-8.771v0.984h-0.967
				v-7.374h4.878v-3.19c-2.016,1.74-4.26,2.988-6.732,3.744l-0.633-0.809c2.584-0.762,4.781-1.931,6.592-3.507h-6.372v-0.888h7.146
				v-1.942c-1.693,0.146-3.542,0.231-5.546,0.255l-0.413-0.879c0.375,0.012,0.765,0.018,1.169,0.018c3.82,0,7.33-0.387,10.529-1.16
				l0.51,0.817c-1.553,0.375-3.325,0.662-5.317,0.861v2.03h7.242v0.888h-7.242v0.325C55.708,116.917,58.169,117.995,60.026,119.05z
				 M56.572,121.968v-1.819h-8.771v1.819H56.572z M56.572,124.736v-1.872h-8.771v1.872H56.572z"/>
			<path d="M65.783,117.644l-0.606,0.721c-0.82-0.867-1.775-1.623-2.865-2.268l0.615-0.703
				C64.058,116.091,65.01,116.841,65.783,117.644z M65.625,121.59c-0.668,1.623-1.521,3.261-2.558,4.913l-0.756-0.615
				c0.914-1.307,1.767-2.944,2.558-4.913L65.625,121.59z M66.091,112.897l-0.624,0.686c-0.873-0.902-1.764-1.57-2.672-2.004
				l0.545-0.773C64.354,111.362,65.271,112.06,66.091,112.897z M78.211,120.562l-0.58,0.773c-1.043-0.656-1.907-1.327-2.593-2.013
				v3.762h-6.117v1.767c0,0.287,0.145,0.469,0.435,0.545s1.616,0.114,3.977,0.114c1.342,0,2.104-0.026,2.29-0.079
				c0.184-0.053,0.336-0.212,0.457-0.479c0.119-0.267,0.229-0.734,0.329-1.402l0.861,0.343c-0.111,1.646-0.782,2.47-2.013,2.47
				c-0.592,0-1.613-0.008-3.063-0.021c-1.45-0.016-2.317-0.021-2.602-0.018c-0.284,0.002-0.56-0.042-0.826-0.133
				s-0.464-0.258-0.593-0.5c-0.129-0.243-0.193-0.597-0.193-1.06v-4.482c-0.469,0.375-1.002,0.741-1.6,1.099l-0.668-0.738
				c1.816-0.979,3.076-2.083,3.779-3.313h-3.217v-0.896h2.874v-2.268h-2.646v-0.923h2.646v-2.232h0.905v2.232h4.017v-2.232h0.932
				v2.232h2.593v0.923h-2.593v2.268h2.848v0.896h-3.349C75.322,118.543,76.559,119.665,78.211,120.562z M74.124,122.17v-2.145
				h-5.203v2.145H74.124z M74.862,119.12c-0.545-0.504-1.02-1.146-1.424-1.925h-2.865c-0.375,0.686-0.855,1.327-1.441,1.925H74.862z
				 M74.071,116.299v-2.268h-4.017v2.268H74.071z"/>
		</g>
	</g>
</g>
<g id="D-01">
</g>
<g id="D-02" display="none">
</g>
</svg>
