<?xml version="1.0" encoding="utf-8"?>
<!-- Generator: Adobe Illustrator 17.0.0, SVG Export Plug-In . SVG Version: 6.00 Build 0)  -->
<!DOCTYPE svg PUBLIC "-//W3C//DTD SVG 1.1//EN" "http://www.w3.org/Graphics/SVG/1.1/DTD/svg11.dtd">
<svg version="1.1" id="圖層_1" xmlns="http://www.w3.org/2000/svg" xmlns:xlink="http://www.w3.org/1999/xlink" x="0px" y="0px"
	 width="115px" height="100px" viewBox="0 0 115 100" enable-background="new 0 0 115 100" xml:space="preserve">
<g id="bg">
</g>
<g id="footer">
</g>
<g id="A-背景">
</g>
<g id="A-雪花左右">
</g>
<g id="A-選單">
</g>
<g id="A-主雪花_x28_一起轉_x29_">
</g>
<g id="A-指標">
</g>
<g id="A-小標">
</g>
<g id="A-主文">
</g>
<g id="A-上文">
</g>
<g id="B-index">
</g>
<g id="圖層_16" display="none">
</g>
<g id="圖層_3">
</g>
<g id="A-04" display="none">
</g>
<g id="A-03" display="none">
</g>
<g id="A-02" display="none">
</g>
<g id="A-01">
</g>
<g id="A-選單_1_">
</g>
<g id="B-04" display="none">
</g>
<g id="B-index_1_">
</g>
<g id="B-03" display="none">
</g>
<g id="B-02" display="none">
</g>
<g id="C-index">
</g>
<g id="C-mouseover">
</g>
<g id="C-01" display="none">
</g>
<g id="D-01">
</g>
<g id="D-02" display="none">
</g>
<g id="XMLID_523_">
	<path id="XMLID_1946_" fill="#004483" d="M74.924,58.239c-1.008,0-1.824-0.816-1.824-1.824v-5.529c0-1.008,0.816-1.824,1.824-1.824
		c1.008,0,1.824,0.816,1.824,1.824v5.529C76.748,57.423,75.932,58.239,74.924,58.239z"/>
	<path id="XMLID_1945_" fill="#004483" d="M74.924,87.896c-1.008,0-1.824-0.816-1.824-1.824v-5.53c0-1.008,0.816-1.824,1.824-1.824
		c1.008,0,1.824,0.816,1.824,1.824v5.53C76.748,87.079,75.932,87.896,74.924,87.896z"/>
	<path id="XMLID_1940_" fill="#004483" d="M74.926,95.776c-15.051,0-27.296-12.245-27.296-27.298S59.875,41.18,74.926,41.18
		s27.296,12.245,27.296,27.298S89.977,95.776,74.926,95.776z M74.926,44.829c-13.04,0-23.648,10.61-23.648,23.65
		s10.608,23.65,23.648,23.65s23.648-10.61,23.648-23.65S87.965,44.829,74.926,44.829z"/>
	<path id="XMLID_1936_" fill="#004483" d="M76.028,81.49c-0.664,0-1.348-0.039-2.049-0.117c-2.343-0.264-4.609-1.019-7.006-1.821
		l-0.499-0.164c-0.955-0.317-1.473-1.35-1.156-2.305c0.317-0.958,1.35-1.475,2.307-1.158l0.501,0.167
		c2.309,0.769,4.3,1.432,6.263,1.653c4.085,0.46,6.506-0.787,7.409-2.113c0.566-0.83,0.629-1.76,0.174-2.615
		c-0.903-1.703-3.488-2.715-6.917-2.715c-0.041,0-0.078,0-0.119,0c-4.977,0-8.727-1.689-10.293-4.635
		c-1.074-2.02-0.926-4.386,0.392-6.324c1.976-2.9,6.064-4.314,10.958-3.759c2.378,0.267,4.685,1.037,7.127,1.853l0.397,0.132
		c0.957,0.32,1.473,1.35,1.156,2.309c-0.319,0.951-1.352,1.478-2.307,1.154l-0.401-0.135c-2.353-0.784-4.386-1.461-6.381-1.686
		c-4.133-0.481-6.605,0.823-7.531,2.181c-0.561,0.827-0.627,1.735-0.189,2.562c0.9,1.692,3.541,2.7,7.072,2.7
		c0.039-0.004,0.078-0.004,0.119,0c4.876,0,8.569,1.692,10.14,4.653c1.087,2.049,0.944,4.432-0.381,6.377
		C83.152,80.128,79.947,81.49,76.028,81.49z"/>
	<path id="XMLID_1934_" fill="#004483" d="M71.685,17.883c-1.008,0-1.824-0.816-1.824-1.824V7.872H21.675v6.363h8.125
		c1.008,0,1.824,0.816,1.824,1.824c0,1.008-0.816,1.824-1.824,1.824h-9.949c-1.008,0-1.824-0.816-1.824-1.824V6.048
		c0-1.008,0.816-1.824,1.824-1.824h51.835c1.008,0,1.824,0.816,1.824,1.824v10.011C73.509,17.068,72.694,17.883,71.685,17.883z"/>
	<path id="XMLID_1511_" fill="#004483" d="M81.433,27.898h-14.77c-1.008,0-1.824-0.816-1.824-1.824c0-1.008,0.816-1.824,1.824-1.824
		h12.946v-6.367H31.423v8.191c0,1.008-0.816,1.824-1.824,1.824c-1.008,0-1.824-0.816-1.824-1.824V16.059
		c0-1.008,0.816-1.824,1.824-1.824h51.835c1.008,0,1.824,0.816,1.824,1.824v10.015C83.257,27.082,82.441,27.898,81.433,27.898z"/>
	<path id="XMLID_1134_" fill="#004483" d="M66.435,37.913c-1.008,0-1.824-0.816-1.824-1.824v-8.191H16.427v8.191
		c0,1.008-0.816,1.824-1.824,1.824s-1.824-0.816-1.824-1.824V26.074c0-1.008,0.816-1.824,1.824-1.824h51.833
		c1.008,0,1.824,0.816,1.824,1.824v10.015C68.259,37.097,67.444,37.913,66.435,37.913z"/>
	<path id="XMLID_961_" fill="#004483" d="M14.602,47.925c-1.008,0-1.824-0.816-1.824-1.824V36.089c0-1.008,0.816-1.824,1.824-1.824
		h51.833c1.008,0,1.824,0.816,1.824,1.824v7.303c0,1.008-0.816,1.824-1.824,1.824c-1.008,0-1.824-0.816-1.824-1.824v-5.479H16.427
		v8.187C16.427,47.109,15.611,47.925,14.602,47.925z"/>
	<path id="XMLID_959_" fill="#004483" d="M14.602,57.94c-1.008,0-1.824-0.816-1.824-1.824V46.101c0-1.008,0.816-1.824,1.824-1.824
		h47.693c1.008,0,1.824,0.816,1.824,1.824c0,1.008-0.816,1.824-1.824,1.824H16.427v8.191C16.427,57.124,15.611,57.94,14.602,57.94z"
		/>
	<path id="XMLID_847_" fill="#004483" d="M14.602,67.951c-1.008,0-1.824-0.816-1.824-1.824V56.115c0-1.008,0.816-1.824,1.824-1.824
		h37.803c1.008,0,1.824,0.816,1.824,1.824c0,1.008-0.816,1.824-1.824,1.824H16.427v8.187C16.427,67.135,15.611,67.951,14.602,67.951
		z"/>
	<path id="XMLID_813_" fill="#004483" d="M14.602,77.966c-1.008,0-1.824-0.816-1.824-1.824V66.127c0-1.008,0.816-1.824,1.824-1.824
		h34.463c1.008,0,1.824,0.816,1.824,1.824c0,1.008-0.816,1.824-1.824,1.824H16.427v8.191C16.427,77.15,15.611,77.966,14.602,77.966z
		"/>
	<path id="XMLID_797_" fill="#004483" d="M56.023,87.977H14.602c-1.008,0-1.824-0.816-1.824-1.824V76.142
		c0-1.008,0.816-1.824,1.824-1.824H50.35c1.008,0,1.824,0.816,1.824,1.824c0,1.008-0.816,1.824-1.824,1.824H16.427v6.363h39.597
		c1.008,0,1.824,0.816,1.824,1.824C57.847,87.162,57.032,87.977,56.023,87.977z"/>
</g>
</svg>
