<!-- Generator: Adobe Illustrator 17.0.0, SVG Export Plug-In  -->
<svg version="1.1"
	 xmlns="http://www.w3.org/2000/svg" xmlns:xlink="http://www.w3.org/1999/xlink" xmlns:a="http://ns.adobe.com/AdobeSVGViewerExtensions/3.0/"
	 x="0px" y="0px" width="223.69px" height="248.261px" viewBox="0 0 223.69 248.261" enable-background="new 0 0 223.69 248.261"
	 xml:space="preserve">
<defs>
</defs>
<path opacity="0.2" fill="none" stroke="#FFFFFF" stroke-miterlimit="10" d="M0.683,96.543c0.748,2.736,3.582,4.34,6.293,3.597
	l35.589-9.701l25.54,14.595l-39.93,14.451c-2.029,0.738-3.382,2.67-3.377,4.827c0.005,2.157,1.368,4.089,3.398,4.817l39.874,14.246
	l-25.428,14.615l-35.61-9.619c-0.446-0.118-0.897-0.179-1.343-0.179c-2.255,0-4.325,1.507-4.945,3.792
	c-0.738,2.731,0.881,5.545,3.613,6.283l25.715,6.944L6.545,178.734c-2.455,1.409-3.305,4.545-1.891,6.995
	c1.414,2.455,4.535,3.3,6.995,1.891l23.526-13.518l-6.944,25.71c-0.738,2.731,0.881,5.545,3.613,6.283
	c2.706,0.733,5.545-0.871,6.288-3.613l9.619-35.61l25.75-14.799l-7.512,42.185c-0.379,2.127,0.615,4.264,2.49,5.34
	c1.87,1.071,4.212,0.861,5.873-0.538l32.366-27.488v29.435L80.64,227.084c-2.004,2.004-2.004,5.242,0,7.246
	c2.004,2.004,5.242,2.004,7.246,0l18.832-18.832v27.139c0,2.829,2.296,5.124,5.124,5.124c2.829,0,5.124-2.296,5.124-5.124v-27.139
	L135.8,234.33c2.004,2.004,5.242,2.004,7.246,0c2.004-2.004,2.004-5.242,0-7.246l-26.078-26.078v-29.619l32.684,27.524
	c1.655,1.389,4.002,1.599,5.873,0.512c1.87-1.081,2.859-3.223,2.47-5.35l-7.671-42.046l25.715,14.697l9.706,35.584
	c0.748,2.731,3.572,4.351,6.293,3.597c2.731-0.743,4.34-3.562,3.597-6.293l-7.005-25.694l23.562,13.467
	c2.455,1.399,5.586,0.548,6.99-1.906c1.404-2.455,0.548-5.586-1.906-6.99l-23.557-13.462l25.694-7.005
	c2.731-0.748,4.34-3.562,3.597-6.293c-0.625-2.28-2.685-3.777-4.94-3.777c-0.446,0-0.897,0.061-1.353,0.184l-35.584,9.701
	l-25.54-14.595l39.915-14.451c2.029-0.738,3.387-2.67,3.382-4.827c-0.005-2.157-1.363-4.089-3.403-4.817l-39.874-14.246
	l25.428-14.615l35.61,9.619c2.747,0.743,5.55-0.876,6.283-3.613c0.738-2.731-0.876-5.545-3.613-6.288l-25.715-6.944l23.537-13.529
	c2.455-1.409,3.3-4.545,1.891-6.995c-0.948-1.65-2.675-2.572-4.448-2.572c-0.866,0-1.742,0.22-2.547,0.682l-23.532,13.523
	l6.944-25.715c0.738-2.731-0.876-5.545-3.613-6.288c-0.446-0.118-0.897-0.174-1.337-0.174c-2.26,0-4.33,1.501-4.945,3.787
	l-9.619,35.605l-25.756,14.799L157.692,54c0.379-2.132-0.62-4.269-2.49-5.345c-0.794-0.456-1.676-0.682-2.552-0.682
	c-1.189,0-2.368,0.415-3.316,1.214L116.968,76.68V47.256l26.078-26.084c2.004-2.004,2.004-5.242,0-7.246
	c-0.999-0.999-2.311-1.501-3.623-1.501c-1.312,0-2.624,0.502-3.623,1.501l-18.832,18.838V5.624c0-2.834-2.296-5.124-5.124-5.124
	s-5.124,2.291-5.124,5.124v27.139L87.886,13.931c-0.999-0.999-2.311-1.501-3.623-1.501s-2.624,0.502-3.623,1.501
	c-2.004,2.004-2.004,5.242,0,7.246l26.078,26.084V76.88L74.035,49.362c-1.66-1.389-4.002-1.589-5.873-0.518
	c-1.865,1.086-2.859,3.228-2.465,5.355l7.666,42.041l-25.72-14.697l-9.701-35.579c-0.62-2.28-2.685-3.777-4.94-3.777
	c-0.451,0-0.902,0.056-1.353,0.179c-2.731,0.748-4.346,3.562-3.597,6.293l7.005,25.694L11.501,60.892
	c-0.799-0.461-1.676-0.676-2.537-0.676c-1.778,0-3.51,0.928-4.453,2.583c-1.404,2.455-0.548,5.586,1.906,6.99L29.98,83.245
	L4.28,90.25C1.549,90.998-0.065,93.817,0.683,96.543z M45.066,124.271l34.713-12.565l21.759,12.437l-21.789,12.519L45.066,124.271z
	 M78.575,182.035l6.518-36.62l21.625-12.427v25.146L78.575,182.035z M145.352,181.891l-28.384-23.906v-25.028l21.723,12.417
	L145.352,181.891z M178.62,123.995l-34.708,12.565l-21.764-12.437l21.789-12.519L178.62,123.995z M145.111,66.232l-6.523,36.619
	l-21.62,12.427V90.137L145.111,66.232z M78.329,66.375l28.39,23.901v25.028l-21.728-12.417L78.329,66.375z"/>
</svg>
