<?xml version="1.0" encoding="utf-8"?>
<!-- Generator: Adobe Illustrator 17.0.0, SVG Export Plug-In . SVG Version: 6.00 Build 0)  -->
<!DOCTYPE svg PUBLIC "-//W3C//DTD SVG 1.1//EN" "http://www.w3.org/Graphics/SVG/1.1/DTD/svg11.dtd">
<svg version="1.1" xmlns="http://www.w3.org/2000/svg" xmlns:xlink="http://www.w3.org/1999/xlink" x="0px" y="0px"
	 width="72.357px" height="75.841px" viewBox="0 0 72.357 75.841" enable-background="new 0 0 72.357 75.841" xml:space="preserve">
<g id="bg">
</g>
<g id="footer">
</g>
<g id="A-背景">
</g>
<g id="A-雪花左右">
</g>
<g id="A-選單">
</g>
<g id="A-主雪花_x28_一起轉_x29_">
</g>
<g id="A-指標">
</g>
<g id="A-小標">
</g>
<g id="A-主文">
</g>
<g id="A-上文">
</g>
<g id="B-index">
</g>
<g id="圖層_16" display="none">
</g>
<g id="圖層_3">
</g>
<g id="A-04" display="none">
</g>
<g id="A-03" display="none">
</g>
<g id="A-02" display="none">
</g>
<g id="A-01">
</g>
<g id="A-選單_1_">
</g>
<g id="B-04" display="none">
</g>
<g id="B-index_1_">
</g>
<g id="B-03" display="none">
</g>
<g id="B-02" display="none">
</g>
<g id="B-01">
	<g>
		<g>
			<g>
				<path fill="#FFFFFF" d="M70.299,4.288C68.24,1.564,65.05,0,61.536,0H10.821C7.307,0,4.118,1.564,2.059,4.288
					c-1.935,2.554-2.539,5.774-1.672,8.809C3.7,24.785,17.54,33.098,25.791,35.761l8.762,8.762v9.366H13.437
					c-0.898,0-1.61,0.728-1.61,1.61v18.732c0,0.898,0.728,1.61,1.61,1.61H58.92c0.898,0,1.61-0.728,1.61-1.61V55.499
					c0-0.898-0.728-1.61-1.61-1.61H37.789v-9.366l8.762-8.762c8.267-2.663,22.091-10.976,25.42-22.664
					C72.837,10.063,72.234,6.843,70.299,4.288L70.299,4.288z M57.31,72.621H15.047V57.124H57.31V72.621z M3.483,12.214
					c-0.588-2.059-0.17-4.257,1.146-5.976c2.787-3.653,7.23-3.003,7.23-3.003c-0.387,9.722,2.678,19.181,8.607,26.766
					C13.515,26.348,5.728,20.125,3.483,12.214L3.483,12.214z M46.303,31.442l-10.124,10.14L26.054,31.457
					c-7.462-7.462-11.409-17.679-10.96-28.222h42.185C57.728,13.762,53.78,23.98,46.303,31.442L46.303,31.442z M68.874,12.214
					C66.63,20.11,58.858,26.348,51.892,29.986c5.929-7.586,8.994-17.044,8.607-26.751c0,0,4.536-0.619,7.23,3.003
					C69.029,7.988,69.463,10.155,68.874,12.214z"/>
			</g>
		</g>
		<path fill="#FFFFFF" d="M43.67,19.773c-0.05-0.184-0.241-0.293-0.424-0.242l-2.398,0.654l-1.721-0.984l2.691-0.974
			c0.137-0.05,0.228-0.18,0.228-0.325c0-0.145-0.092-0.276-0.229-0.325l-2.687-0.96l1.714-0.985l2.4,0.648
			c0.03,0.008,0.06,0.012,0.09,0.012c0.152,0,0.291-0.102,0.333-0.256c0.05-0.184-0.059-0.374-0.243-0.423l-1.733-0.468l1.586-0.911
			c0.165-0.095,0.223-0.306,0.127-0.471c-0.095-0.165-0.306-0.222-0.471-0.127l-1.586,0.911l0.468-1.733
			c0.05-0.184-0.059-0.374-0.243-0.423c-0.182-0.049-0.374,0.059-0.424,0.243l-0.648,2.4l-1.735,0.997l0.506-2.843
			c0.026-0.143-0.041-0.287-0.168-0.36c-0.126-0.072-0.284-0.058-0.396,0.036l-2.181,1.852v-1.984l1.757-1.758
			c0.135-0.135,0.135-0.353,0-0.488c-0.135-0.135-0.353-0.135-0.488,0l-1.269,1.269V9.928c0-0.191-0.155-0.345-0.345-0.345
			s-0.345,0.155-0.345,0.345v1.829l-1.269-1.269c-0.135-0.135-0.353-0.135-0.488,0c-0.135,0.135-0.135,0.353,0,0.488l1.757,1.758
			v1.996l-2.203-1.855c-0.112-0.094-0.27-0.108-0.396-0.035c-0.126,0.073-0.193,0.217-0.166,0.361l0.517,2.834l-1.733-0.99
			l-0.654-2.398c-0.05-0.184-0.241-0.293-0.424-0.242c-0.184,0.05-0.293,0.24-0.242,0.424l0.472,1.732l-1.588-0.908
			c-0.165-0.094-0.376-0.037-0.471,0.128c-0.095,0.165-0.037,0.376,0.128,0.471l1.588,0.907l-1.732,0.472
			c-0.184,0.05-0.293,0.24-0.242,0.424c0.042,0.154,0.181,0.255,0.333,0.255c0.03,0,0.06-0.004,0.091-0.012l2.398-0.654l1.721,0.984
			l-2.69,0.974c-0.137,0.05-0.228,0.18-0.228,0.325s0.092,0.276,0.229,0.325l2.687,0.96l-1.714,0.985l-2.4-0.648
			c-0.185-0.05-0.374,0.059-0.423,0.243c-0.05,0.184,0.059,0.374,0.243,0.424l1.733,0.468l-1.586,0.912
			c-0.165,0.095-0.222,0.306-0.127,0.471c0.064,0.111,0.18,0.173,0.3,0.173c0.058,0,0.117-0.015,0.172-0.046l1.586-0.911
			l-0.468,1.733c-0.05,0.184,0.059,0.374,0.243,0.424c0.03,0.008,0.06,0.012,0.09,0.012c0.152,0,0.292-0.101,0.333-0.255l0.648-2.4
			l1.736-0.997l-0.506,2.843c-0.026,0.144,0.042,0.288,0.168,0.36c0.054,0.031,0.113,0.046,0.172,0.046
			c0.08,0,0.16-0.028,0.223-0.082l2.181-1.853v1.983l-1.757,1.758c-0.135,0.135-0.135,0.353,0,0.488
			c0.067,0.067,0.156,0.101,0.244,0.101s0.177-0.034,0.244-0.101l1.269-1.27V25.9c0,0.191,0.155,0.345,0.345,0.345
			c0.191,0,0.345-0.154,0.345-0.345v-1.829l1.269,1.269c0.067,0.067,0.156,0.101,0.244,0.101c0.088,0,0.177-0.034,0.244-0.101
			c0.135-0.135,0.135-0.353,0-0.488l-1.757-1.758v-1.996l2.203,1.855c0.112,0.094,0.27,0.107,0.396,0.035
			c0.126-0.073,0.193-0.218,0.166-0.361l-0.517-2.833l1.733,0.99l0.654,2.398c0.042,0.154,0.181,0.255,0.333,0.255
			c0.03,0,0.061-0.004,0.091-0.012c0.184-0.05,0.293-0.24,0.242-0.424l-0.472-1.732l1.588,0.907
			c0.054,0.031,0.113,0.046,0.171,0.046c0.12,0,0.237-0.063,0.3-0.174c0.095-0.165,0.037-0.376-0.128-0.471l-1.588-0.907
			l1.732-0.472C43.612,20.147,43.721,19.957,43.67,19.773z M40.679,17.904l-2.339,0.847l-1.466-0.838l1.468-0.844L40.679,17.904z
			 M38.421,14.012l-0.439,2.468l-1.457,0.837v-1.695L38.421,14.012z M33.921,14.021l1.913,1.611v1.687l-1.464-0.837L33.921,14.021z
			 M31.678,17.923l2.339-0.847l1.467,0.838l-1.468,0.844L31.678,17.923z M33.937,21.816l0.44-2.468l1.457-0.837v1.694L33.937,21.816
			z M38.437,21.806l-1.913-1.611v-1.687l1.464,0.837L38.437,21.806z"/>
	</g>
</g>
<g id="C-index">
</g>
<g id="C-mouseover">
</g>
<g id="C-01" display="none">
</g>
<g id="D-01">
</g>
<g id="D-02" display="none">
</g>
</svg>
