<?xml version="1.0" encoding="utf-8"?>
<!-- Generator: Adobe Illustrator 17.0.0, SVG Export Plug-In . SVG Version: 6.00 Build 0)  -->
<!DOCTYPE svg PUBLIC "-//W3C//DTD SVG 1.1//EN" "http://www.w3.org/Graphics/SVG/1.1/DTD/svg11.dtd">
<svg version="1.1" xmlns="http://www.w3.org/2000/svg" xmlns:xlink="http://www.w3.org/1999/xlink" x="0px" y="0px"
	 width="59.272px" height="59.272px" viewBox="0 0 59.272 59.272" enable-background="new 0 0 59.272 59.272" xml:space="preserve">
<g id="bg">
</g>
<g id="footer">
</g>
<g id="A-背景">
</g>
<g id="A-雪花左右">
</g>
<g id="A-選單">
</g>
<g id="A-主雪花_x28_一起轉_x29_">
</g>
<g id="A-指標">
</g>
<g id="A-小標">
</g>
<g id="A-主文">
</g>
<g id="A-上文">
</g>
<g id="B-index">
</g>
<g id="圖層_16" display="none">
</g>
<g id="圖層_3">
</g>
<g id="A-04" display="none">
</g>
<g id="A-03" display="none">
</g>
<g id="A-02" display="none">
</g>
<g id="A-01">
	<g>
		<g>
			<g>
				<g>
					<path fill="#123A5F" d="M29.636,59.272c16.343,0,29.636-13.293,29.636-29.636S45.979,0,29.636,0C13.293,0,0,13.293,0,29.636
						C0,45.979,13.293,59.272,29.636,59.272z M29.636,2.397c15.024,0,27.239,12.215,27.239,27.239S44.66,56.875,29.636,56.875
						S2.397,44.66,2.397,29.636S14.612,2.397,29.636,2.397z"/>
				</g>
			</g>
			<g>
				<path fill="#123A5F" d="M25.423,39.478c0.23,0.23,0.545,0.351,0.847,0.351s0.617-0.121,0.847-0.351l8.995-8.995
					c0.23-0.23,0.351-0.533,0.351-0.847c0-0.315-0.121-0.617-0.351-0.847l-8.995-8.995c-0.472-0.472-1.223-0.472-1.695,0
					c-0.472,0.472-0.472,1.223,0,1.695l8.147,8.147l-8.147,8.147C24.963,38.256,24.963,39.018,25.423,39.478z"/>
			</g>
		</g>
	</g>
</g>
<g id="A-選單_1_">
</g>
<g id="B-04" display="none">
</g>
<g id="B-index_1_">
</g>
<g id="B-03" display="none">
</g>
<g id="B-02" display="none">
</g>
<g id="B-01">
</g>
<g id="C-index">
</g>
<g id="C-mouseover">
</g>
<g id="C-01" display="none">
</g>
<g id="D-01">
</g>
<g id="D-02" display="none">
</g>
</svg>
