<?xml version="1.0" encoding="utf-8"?>
<!-- Generator: Adobe Illustrator 17.0.0, SVG Export Plug-In . SVG Version: 6.00 Build 0)  -->
<!DOCTYPE svg PUBLIC "-//W3C//DTD SVG 1.1//EN" "http://www.w3.org/Graphics/SVG/1.1/DTD/svg11.dtd">
<svg version="1.1" id="Layer_1" xmlns="http://www.w3.org/2000/svg" xmlns:xlink="http://www.w3.org/1999/xlink" x="0px" y="0px"
	 width="115px" height="100px" viewBox="0 0 115 100" enable-background="new 0 0 115 100" xml:space="preserve">
<g id="bg">
</g>
<g id="footer">
</g>
<g id="A-背景">
</g>
<g id="A-雪花左右">
</g>
<g id="A-選單">
</g>
<g id="A-主雪花_x28_一起轉_x29_">
</g>
<g id="A-指標">
</g>
<g id="A-小標">
</g>
<g id="A-主文">
</g>
<g id="A-上文">
</g>
<g id="B-index">
</g>
<g id="圖層_16" display="none">
</g>
<g id="圖層_3">
</g>
<g id="A-04" display="none">
</g>
<g id="A-03" display="none">
</g>
<g id="A-02" display="none">
</g>
<g id="A-01">
</g>
<g id="A-選單_1_">
</g>
<g id="B-04" display="none">
</g>
<g id="B-index_1_">
</g>
<g id="B-03" display="none">
</g>
<g id="B-02" display="none">
</g>
<g id="C-index">
</g>
<g id="C-mouseover">
</g>
<g id="C-01" display="none">
</g>
<g id="D-01">
</g>
<g id="D-02" display="none">
</g>
<g>
	<path fill="#004483" d="M99.719,73.333c-0.671-2.675-2.562-4.341-4.929-4.341h-6.746c-0.016-0.086,0.018-0.173-0.004-0.259
		l-3.522-13.936c-0.68-2.675-2.567-4.336-4.929-4.336h-6.748c-0.016-0.086,0.018-0.173-0.004-0.259l-3.522-13.925
		c-0.669-2.68-2.559-4.347-4.929-4.347H48.641c-2.362,0-4.25,1.661-4.929,4.341l-3.516,13.925c-0.022,0.087,0.012,0.176-0.004,0.264
		h-5.491c-2.368,0-4.258,1.666-4.929,4.341L26.25,68.727c-0.022,0.088,0.012,0.176-0.004,0.264h-5.489
		c-2.368,0-4.258,1.666-4.929,4.341l-3.522,13.93c-0.321,1.273-0.024,2.621,0.814,3.694c0.96,1.23,2.537,1.995,4.115,1.995h22.788
		c1.172,0,2.257-0.524,3.176-1.248c0.92,0.723,2.007,1.248,3.18,1.248h22.788c1.172,0,2.257-0.524,3.176-1.248
		c0.92,0.723,2.007,1.248,3.18,1.248h22.788c1.577,0,3.155-0.766,4.115-2.001c0.839-1.073,1.135-2.421,0.814-3.689L99.719,73.333z
		 M72.345,80.334l-1.494-5.912h2.988L72.345,80.334z M43.202,80.334l-1.494-5.912h2.988L43.202,80.334z M57.145,61.802l-1.495-5.916
		h2.991L57.145,61.802z M79.163,56.151l3.225,12.754l-16.684,0.097c-0.021,0-0.038-0.01-0.059-0.01h-4.617l3.339-13.008H79.15
		C79.136,56.016,79.139,56.07,79.163,56.151z M49.167,37.453H63.96c-0.019,0.032-0.022,0.081,0,0.167l3.222,12.749l-16.708,0.097
		c-0.01,0-0.019-0.005-0.03-0.005h-4.616L49.167,37.453z M35.224,55.984h14.782c-0.013,0.032-0.011,0.086,0.013,0.167l3.225,12.754
		L36.56,69.002c-0.021,0-0.038-0.01-0.059-0.01h-4.617L35.224,55.984z M17.931,87.56l3.349-13.046h14.782
		c-0.013,0.032-0.011,0.086,0.013,0.167l3.225,12.754L17.931,87.56z M47.075,87.56l3.349-13.046h14.782
		c-0.013,0.032-0.011,0.086,0.013,0.167l3.225,12.754L47.075,87.56z M76.219,87.56l3.349-13.046h14.796
		c-0.022,0.027-0.022,0.081,0,0.167l3.225,12.754L76.219,87.56z"/>
	<path fill="#004483" d="M56.707,24.138c1.526,0,2.761-1.235,2.761-2.761V9.809c0-1.526-1.235-2.761-2.761-2.761
		c-1.526,0-2.761,1.235-2.761,2.761v11.568C53.945,22.903,55.18,24.138,56.707,24.138z"/>
	<path fill="#004483" d="M78.966,14.754l-5.784,10.015c-0.763,1.321-0.31,3.009,1.011,3.77c0.434,0.253,0.909,0.372,1.378,0.372
		c0.955,0,1.882-0.496,2.394-1.381l5.784-10.015c0.763-1.321,0.31-3.009-1.011-3.77C81.42,12.969,79.729,13.433,78.966,14.754z"/>
	<path fill="#004483" d="M98.165,31.542l-10.017,5.787c-1.321,0.76-1.774,2.448-1.011,3.77c0.512,0.884,1.44,1.381,2.394,1.381
		c0.469,0,0.944-0.119,1.378-0.372l10.017-5.787c1.321-0.76,1.774-2.448,1.011-3.77C101.175,31.23,99.479,30.766,98.165,31.542z"/>
	<path fill="#004483" d="M35.588,28.059c0.512,0.884,1.44,1.381,2.394,1.381c0.469,0,0.944-0.119,1.378-0.372
		c1.321-0.76,1.774-2.448,1.011-3.77l-5.781-10.02c-0.766-1.321-2.462-1.785-3.772-1.008c-1.321,0.76-1.774,2.448-1.011,3.77
		L35.588,28.059z"/>
	<path fill="#004483" d="M23.033,43.019c0.434,0.253,0.909,0.372,1.378,0.372c0.955,0,1.882-0.496,2.394-1.381
		c0.763-1.321,0.31-3.009-1.011-3.77l-10.017-5.781c-1.321-0.777-3.012-0.313-3.772,1.008c-0.763,1.321-0.31,3.009,1.011,3.77
		L23.033,43.019z"/>
</g>
</svg>
