<?xml version="1.0" encoding="UTF-8"?>
<svg width="120px" height="164px" viewBox="0 0 120 164" version="1.1" xmlns="http://www.w3.org/2000/svg" xmlns:xlink="http://www.w3.org/1999/xlink">
    <!-- Generator: Sketch 49 (51002) - http://www.bohemiancoding.com/sketch -->
    <title>btn_usd</title>
    <desc>Created with Sketch.</desc>
    <defs></defs>
    <g id="btn_usd" stroke="none" stroke-width="1" fill="none" fill-rule="evenodd">
        <g id="美元" transform="translate(1.000000, 1.000000)">
            <path d="M0.274,58.8947692 C0.274,26.5209231 26.5186154,0.273230769 58.8955385,0.273230769 C91.2693846,0.273230769 117.514,26.5209231 117.514,58.8947692 C117.514,91.2686154 91.2693846,117.513231 58.8955385,117.513231 C26.5186154,117.513231 0.274,91.2686154 0.274,58.8947692" id="Fill-4" fill="#FEFEFE"></path>
            <path d="M7.29323077,31.0583077 C7.37938462,30.8967692 7.46707692,30.7398462 7.55630769,30.5783077 L6.65630769,30.5783077 L7.29323077,31.0583077 Z" id="Fill-6" fill="#FEFEFE"></path>
            <path d="M7.29323077,31.0583077 L6.65630769,30.5783077 L7.55630769,30.5783077 C7.56246154,30.5752308 7.56246154,30.566 7.56861538,30.5629231 L6.60092308,30.5629231 L7.28246154,31.0736923 C7.28861538,31.0706154 7.28861538,31.0644615 7.29323077,31.0583077" id="Fill-8" fill="#FEFEFE"></path>
            <path d="M60.7112308,18.3329231 L101.211231,18.3329231 C97.8573846,14.8329231 94.0696923,11.7467692 89.9373846,9.16523077 L60.7112308,9.16523077 L60.7112308,18.3329231 Z" id="Fill-10" fill="#FEFEFE"></path>
            <path d="M60.7112308,36.3887692 L113.034308,36.3887692 C111.702,33.1795385 110.088154,30.1118462 108.231231,27.2210769 L60.7112308,27.2210769 L60.7112308,36.3887692 Z" id="Fill-12" fill="#FEFEFE"></path>
            <path d="M1.86661538,72.5066154 L115.922,72.5066154 C116.629692,69.5312308 117.111231,66.4696923 117.346615,63.3389231 L0.443538462,63.3389231 C0.678923077,66.4696923 1.16046154,69.5312308 1.86661538,72.5066154" id="Fill-14" fill="#FEFEFE"></path>
            <path d="M60.7112308,54.4476923 L117.346615,54.4476923 C117.111231,51.3169231 116.629692,48.2584615 115.922,45.28 L60.7112308,45.28 L60.7112308,54.4476923 Z" id="Fill-16" fill="#FEFEFE"></path>
            <path d="M27.8492308,108.621385 L89.9430769,108.621385 C94.0753846,106.036769 97.8615385,102.953692 101.216923,99.4536923 L16.5738462,99.4536923 C19.9276923,102.953692 23.7153846,106.036769 27.8492308,108.621385" id="Fill-18" fill="#FEFEFE"></path>
            <path d="M9.55738462,90.5624615 L108.231231,90.5624615 C110.092769,87.6747692 111.702,84.6070769 113.034308,81.3978462 L4.75430769,81.3978462 C6.08815385,84.6070769 7.69738462,87.6747692 9.55738462,90.5624615" id="Fill-20" fill="#FEFEFE"></path>
            <path d="M58.8887692,117.512615 L58.8964615,117.512615 L58.9010769,117.512615 C70.2995385,117.512615 80.938,114.255692 89.9441538,108.621846 L27.8487692,108.621846 C36.8533846,114.255692 47.4887692,117.512615 58.8887692,117.512615" id="Fill-22" fill="#E50113"></path>
            <path d="M16.5736923,99.4536923 L101.218308,99.4536923 C103.826,96.7290769 106.181385,93.7536923 108.230615,90.5629231 L9.55676923,90.5629231 C11.6090769,93.7536923 13.9629231,96.7290769 16.5736923,99.4536923" id="Fill-26" fill="#E50113"></path>
            <path d="M4.75415385,81.3978462 L113.034154,81.3978462 C114.224923,78.544 115.195692,75.5716923 115.921846,72.5070769 L1.86646154,72.5070769 C2.59261538,75.5716923 3.56646154,78.544 4.75415385,81.3978462" id="Fill-30" fill="#E50113"></path>
            <path d="M60.7112308,63.3269231 L0.437384615,63.3269231 C0.437384615,63.3269231 0.443538462,63.3361538 0.443538462,63.3392308 L117.346615,63.3392308 C117.462,61.87 117.514308,60.3884615 117.514308,58.8946154 C117.514308,57.3976923 117.462,55.9146154 117.346615,54.4484615 L60.7112308,54.4484615 L60.7112308,63.3269231 Z" id="Fill-34" fill="#E50113"></path>
            <path d="M60.7112308,27.2210769 L108.231231,27.2210769 C106.182,24.0333846 103.825077,21.0549231 101.211231,18.3333846 L60.7112308,18.3333846 L60.7112308,27.2210769 Z" id="Fill-38" fill="#E50113"></path>
            <path d="M60.7112308,45.28 L115.922,45.28 C115.195846,42.2153846 114.225077,39.2461538 113.034308,36.3892308 L60.7112308,36.3892308 L60.7112308,45.28 Z" id="Fill-42" fill="#E50113"></path>
            <path d="M60.7112308,9.16523077 L89.9373846,9.16523077 C81.4143077,3.83138462 71.4296923,0.628307692 60.7112308,0.300615385 L60.7112308,9.16523077 Z" id="Fill-46" fill="#E50113"></path>
            <path d="M58.8963077,0.274769231 L58.8886154,0.274769231 C36.7932308,0.274769231 17.5578462,12.504 7.56861538,30.5624615 L8.89476923,30.5624615 L9.63476923,28.5409231 L10.3747692,30.5624615 L12.7055385,30.5624615 L10.8132308,31.9393846 L11.4947692,33.9916923 L11.4747692,33.9763077 L9.63476923,32.6178462 L7.75630769,33.9916923 L8.44861538,31.9501538 L7.28246154,31.0732308 C6.30246154,32.8947692 5.41169231,34.7778462 4.61938462,36.7101538 L4.86861538,36.7101538 L4.51476923,36.9686154 C4.15784615,37.8547692 3.81784615,38.7563077 3.504,39.664 L3.664,40.1424615 L3.63938462,40.124 L3.40553846,39.9501538 C2.33476923,43.0870769 1.524,46.344 0.996307692,49.6947692 L1.06553846,49.6947692 L1.79784615,47.6716923 L2.53938462,49.6947692 L4.86861538,49.6947692 L2.97630769,51.0732308 L3.664,53.1255385 L3.63938462,53.1101538 L1.79784615,51.7486154 L0.607076923,52.6270769 C0.388615385,54.6855385 0.274769231,56.7732308 0.274769231,58.8947692 C0.274769231,60.3855385 0.330153846,61.864 0.437846154,63.3270769 L60.7116923,63.3270769 L60.7116923,54.4470769 L60.7116923,45.2793846 L60.7116923,36.3886154 L60.7116923,27.2209231 L60.7116923,18.3332308 L60.7116923,9.16553846 L60.7116923,0.300923077 C60.1086154,0.285538462 59.5070769,0.274769231 58.9009231,0.274769231 L58.8963077,0.274769231 Z" id="Fill-50" fill="#182A87"></path>
            <polygon id="Fill-54" fill="#FEFEFE" points="38.5733846 9.024 40.4472308 7.65015385 42.2887692 9.00861538 42.3133846 9.024 41.6256923 6.97169231 43.518 5.59476923 41.1872308 5.59476923 40.4472308 3.57323077 39.7133846 5.59476923 37.4210769 5.59476923 39.2610769 6.984"></polygon>
            <polygon id="Fill-56" fill="#FEFEFE" points="38.5733846 9.024 40.4472308 7.65015385 42.2887692 9.00861538 42.3133846 9.024 41.6256923 6.97169231 43.518 5.59476923 41.1872308 5.59476923 40.4472308 3.57323077 39.7133846 5.59476923 37.4210769 5.59476923 39.2610769 6.984"></polygon>
            <polygon id="Fill-58" fill="#FEFEFE" points="56.6847692 5.59553846 55.9432308 3.574 55.2109231 5.59553846 52.9170769 5.59553846 54.7632308 6.98323077 54.0724615 9.02476923 55.9432308 7.65092308 57.7847692 9.00938462 57.8078462 9.02476923 57.1216923 6.97246154 59.0155385 5.59553846"></polygon>
            <polygon id="Fill-60" fill="#FEFEFE" points="56.6847692 5.59553846 55.9432308 3.574 55.2109231 5.59553846 52.9170769 5.59553846 54.7632308 6.98323077 54.0724615 9.02476923 55.9432308 7.65092308 57.7847692 9.00938462 57.8078462 9.02476923 57.1216923 6.97246154 59.0155385 5.59553846"></polygon>
            <polygon id="Fill-62" fill="#FEFEFE" points="33.3584615 11.7433846 32.6169231 9.72184615 31.88 11.7433846 29.5846154 11.7433846 31.4307692 13.1310769 30.7384615 15.1741538 32.6169231 13.7987692 34.4569231 15.1572308 34.4784615 15.1741538 33.7907692 13.1218462 35.6876923 11.7433846"></polygon>
            <polygon id="Fill-64" fill="#FEFEFE" points="33.3584615 11.7433846 32.6169231 9.72184615 31.88 11.7433846 29.5846154 11.7433846 31.4307692 13.1310769 30.7384615 15.1741538 32.6169231 13.7987692 34.4569231 15.1572308 34.4784615 15.1741538 33.7907692 13.1218462 35.6876923 11.7433846"></polygon>
            <polygon id="Fill-66" fill="#FEFEFE" points="48.7641538 11.7433846 48.0241538 9.72184615 47.2841538 11.7433846 44.9903077 11.7433846 46.838 13.1310769 46.1456923 15.1741538 48.0241538 13.7987692 49.8641538 15.1572308 49.8856923 15.1741538 49.2026154 13.1218462 51.0949231 11.7433846"></polygon>
            <polygon id="Fill-68" fill="#FEFEFE" points="48.7641538 11.7433846 48.0241538 9.72184615 47.2841538 11.7433846 44.9903077 11.7433846 46.838 13.1310769 46.1456923 15.1741538 48.0241538 13.7987692 49.8641538 15.1572308 49.8856923 15.1741538 49.2026154 13.1218462 51.0949231 11.7433846"></polygon>
            <polygon id="Fill-70" fill="#FEFEFE" points="22.0078462 18.3538462 23.854 19.7415385 23.1678462 21.7830769 25.0386154 20.4061538 26.8816923 21.7676923 26.9016923 21.7830769 26.2186154 19.7307692 28.1109231 18.3538462 25.7816923 18.3538462 25.0386154 16.3323077 24.3032308 18.3538462"></polygon>
            <polygon id="Fill-72" fill="#FEFEFE" points="22.0078462 18.3538462 23.854 19.7415385 23.1678462 21.7830769 25.0386154 20.4061538 26.8816923 21.7676923 26.9016923 21.7830769 26.2186154 19.7307692 28.1109231 18.3538462 25.7816923 18.3538462 25.0386154 16.3323077 24.3032308 18.3538462"></polygon>
            <polygon id="Fill-74" fill="#FEFEFE" points="39.7136923 18.3538462 37.4213846 18.3538462 39.2613846 19.7415385 38.5736923 21.7830769 40.4475385 20.4061538 42.2890769 21.7676923 42.3121538 21.7830769 41.626 19.7307692 43.5183077 18.3538462 41.1875385 18.3538462 40.4475385 16.3323077"></polygon>
            <polygon id="Fill-76" fill="#FEFEFE" points="39.7136923 18.3538462 37.4213846 18.3538462 39.2613846 19.7415385 38.5736923 21.7830769 40.4475385 20.4061538 42.2890769 21.7676923 42.3121538 21.7830769 41.626 19.7307692 43.5183077 18.3538462 41.1875385 18.3538462 40.4475385 16.3323077"></polygon>
            <polygon id="Fill-78" fill="#FEFEFE" points="55.3596923 18.3538462 53.0704615 18.3538462 54.912 19.7415385 54.2243077 21.7830769 56.0966154 20.4061538 57.9396923 21.7676923 57.9596923 21.7830769 57.2766154 19.7307692 59.1689231 18.3538462 56.8381538 18.3538462 56.0966154 16.3323077"></polygon>
            <polygon id="Fill-80" fill="#FEFEFE" points="55.3596923 18.3538462 53.0704615 18.3538462 54.912 19.7415385 54.2243077 21.7830769 56.0966154 20.4061538 57.9396923 21.7676923 57.9596923 21.7830769 57.2766154 19.7307692 59.1689231 18.3538462 56.8381538 18.3538462 56.0966154 16.3323077"></polygon>
            <polygon id="Fill-82" fill="#FEFEFE" points="15.3326154 27.9332308 17.2110769 26.5563077 19.0464615 27.9147692 19.0726154 27.9332308 18.3818462 25.8778462 20.2803077 24.5024615 17.9449231 24.5024615 17.2110769 22.4793846 16.4726154 24.5024615 14.1772308 24.5024615 16.0233846 25.8901538"></polygon>
            <polygon id="Fill-84" fill="#FEFEFE" points="15.3326154 27.9332308 17.2110769 26.5563077 19.0464615 27.9147692 19.0726154 27.9332308 18.3818462 25.8778462 20.2803077 24.5024615 17.9449231 24.5024615 17.2110769 22.4793846 16.4726154 24.5024615 14.1772308 24.5024615 16.0233846 25.8901538"></polygon>
            <polygon id="Fill-86" fill="#FEFEFE" points="35.6872308 24.5016923 33.358 24.5016923 32.6164615 22.4801538 31.8795385 24.5016923 29.5841538 24.5016923 31.4303077 25.8893846 30.738 27.9324615 32.6164615 26.5570769 34.4564615 27.9155385 34.478 27.9324615 33.7918462 25.8786154"></polygon>
            <polygon id="Fill-88" fill="#FEFEFE" points="35.6872308 24.5016923 33.358 24.5016923 32.6164615 22.4801538 31.8795385 24.5016923 29.5841538 24.5016923 31.4303077 25.8893846 30.738 27.9324615 32.6164615 26.5570769 34.4564615 27.9155385 34.478 27.9324615 33.7918462 25.8786154"></polygon>
            <polygon id="Fill-90" fill="#FEFEFE" points="51.0943077 24.5016923 48.7635385 24.5016923 48.0235385 22.4801538 47.2835385 24.5016923 44.9896923 24.5016923 46.8373846 25.8893846 46.1450769 27.9324615 48.0235385 26.5570769 49.8635385 27.9155385 49.8866154 27.9324615 49.2035385 25.8786154"></polygon>
            <polygon id="Fill-92" fill="#FEFEFE" points="51.0943077 24.5016923 48.7635385 24.5016923 48.0235385 22.4801538 47.2835385 24.5016923 44.9896923 24.5016923 46.8373846 25.8893846 46.1450769 27.9324615 48.0235385 26.5570769 49.8635385 27.9155385 49.8866154 27.9324615 49.2035385 25.8786154"></polygon>
            <path d="M7.756,33.9909231 L9.63446154,32.6170769 L11.4744615,33.9755385 L11.4944615,33.9909231 L10.8129231,31.9386154 L12.7052308,30.5616923 L10.3744615,30.5616923 L9.63446154,28.5401538 L8.89446154,30.5616923 L7.56830769,30.5616923 C7.56215385,30.5647692 7.56215385,30.574 7.556,30.5770769 C7.46830769,30.7401538 7.37907692,30.8955385 7.29292308,31.0586154 C7.28830769,31.0647692 7.28830769,31.0709231 7.28215385,31.074 L8.44830769,31.9509231 L7.756,33.9909231 Z" id="Fill-94" fill="#FEFEFE"></path>
            <path d="M7.756,33.9909231 L9.63446154,32.6170769 L11.4744615,33.9755385 L11.4944615,33.9909231 L10.8129231,31.9386154 L12.7052308,30.5616923 L10.3744615,30.5616923 L9.63446154,28.5401538 L8.89446154,30.5616923 L7.56830769,30.5616923 C7.56215385,30.5647692 7.56215385,30.574 7.556,30.5770769 C7.46830769,30.7401538 7.37907692,30.8955385 7.29292308,31.0586154 C7.28830769,31.0647692 7.28830769,31.0709231 7.28215385,31.074 L8.44830769,31.9509231 L7.756,33.9909231 Z" id="Fill-96" fill="#FEFEFE"></path>
            <polygon id="Fill-98" fill="#FEFEFE" points="23.1676923 33.9909231 25.0384615 32.6170769 26.8815385 33.9755385 26.9015385 33.9909231 26.2184615 31.9386154 28.1107692 30.5616923 25.7815385 30.5616923 25.0384615 28.5401538 24.3030769 30.5616923 22.0076923 30.5616923 23.8538462 31.9509231"></polygon>
            <polygon id="Fill-100" fill="#FEFEFE" points="23.1676923 33.9909231 25.0384615 32.6170769 26.8815385 33.9755385 26.9015385 33.9909231 26.2184615 31.9386154 28.1107692 30.5616923 25.7815385 30.5616923 25.0384615 28.5401538 24.3030769 30.5616923 22.0076923 30.5616923 23.8538462 31.9509231"></polygon>
            <polygon id="Fill-102" fill="#FEFEFE" points="41.1875385 30.5624615 40.4475385 28.5409231 39.7136923 30.5624615 37.4213846 30.5624615 39.2613846 31.9501538 38.5736923 33.9916923 40.4475385 32.6178462 42.2890769 33.9763077 42.3121538 33.9916923 41.626 31.9393846 43.5183077 30.5624615"></polygon>
            <polygon id="Fill-104" fill="#FEFEFE" points="41.1875385 30.5624615 40.4475385 28.5409231 39.7136923 30.5624615 37.4213846 30.5624615 39.2613846 31.9501538 38.5736923 33.9916923 40.4475385 32.6178462 42.2890769 33.9763077 42.3121538 33.9916923 41.626 31.9393846 43.5183077 30.5624615"></polygon>
            <polygon id="Fill-106" fill="#FEFEFE" points="56.5450769 30.5624615 55.8050769 28.5409231 55.0666154 30.5624615 52.7727692 30.5624615 54.6189231 31.9501538 53.9327692 33.9916923 55.8050769 32.6178462 57.6466154 33.9763077 57.6666154 33.9916923 56.9835385 31.9393846 58.8743077 30.5624615"></polygon>
            <polygon id="Fill-108" fill="#FEFEFE" points="56.5450769 30.5624615 55.8050769 28.5409231 55.0666154 30.5624615 52.7727692 30.5624615 54.6189231 31.9501538 53.9327692 33.9916923 55.8050769 32.6178462 57.6466154 33.9763077 57.6666154 33.9916923 56.9835385 31.9393846 58.8743077 30.5624615"></polygon>
            <path d="M3.66353846,40.1418462 L3.50353846,39.6633846 C3.50046154,39.6726154 3.50046154,39.6849231 3.49584615,39.6941538 C3.46661538,39.7756923 3.43892308,39.8510769 3.40969231,39.9310769 C3.40969231,39.9372308 3.40507692,39.9403077 3.40507692,39.9495385 L3.63892308,40.1233846 L3.66353846,40.1418462 Z" id="Fill-110" fill="#FEFEFE"></path>
            <path d="M3.66353846,40.1418462 L3.50353846,39.6633846 C3.50046154,39.6726154 3.50046154,39.6849231 3.49584615,39.6941538 C3.46661538,39.7756923 3.43892308,39.8510769 3.40969231,39.9310769 C3.40969231,39.9372308 3.40507692,39.9403077 3.40507692,39.9495385 L3.63892308,40.1233846 L3.66353846,40.1418462 Z" id="Fill-112" fill="#FEFEFE"></path>
            <path d="M4.61446154,36.7283077 C4.58523077,36.7975385 4.55446154,36.8667692 4.52984615,36.936 C4.52369231,36.9483077 4.51907692,36.9590769 4.516,36.9683077 L4.86830769,36.7098462 L4.61907692,36.7098462 C4.61907692,36.716 4.61446154,36.7190769 4.61446154,36.7283077" id="Fill-114" fill="#FEFEFE"></path>
            <path d="M4.61446154,36.7283077 C4.58523077,36.7975385 4.55446154,36.8667692 4.52984615,36.936 C4.52369231,36.9483077 4.51907692,36.9590769 4.516,36.9683077 L4.86830769,36.7098462 L4.61907692,36.7098462 C4.61907692,36.716 4.61446154,36.7190769 4.61446154,36.7283077" id="Fill-116" fill="#FEFEFE"></path>
            <polygon id="Fill-118" fill="#FEFEFE" points="14.1772308 36.7103077 16.0233846 38.098 15.3326154 40.1410769 17.2110769 38.7656923 19.0464615 40.1241538 19.0726154 40.1410769 18.3818462 38.0872308 20.2803077 36.7103077 17.9449231 36.7103077 17.2110769 34.6887692 16.4726154 36.7103077"></polygon>
            <polygon id="Fill-120" fill="#FEFEFE" points="14.1772308 36.7103077 16.0233846 38.098 15.3326154 40.1410769 17.2110769 38.7656923 19.0464615 40.1241538 19.0726154 40.1410769 18.3818462 38.0872308 20.2803077 36.7103077 17.9449231 36.7103077 17.2110769 34.6887692 16.4726154 36.7103077"></polygon>
            <polygon id="Fill-122" fill="#FEFEFE" points="31.8801538 36.7103077 29.5847692 36.7103077 31.4309231 38.098 30.7386154 40.1410769 32.6170769 38.7656923 34.4570769 40.1241538 34.4770769 40.1410769 33.7909231 38.0872308 35.6878462 36.7103077 33.3586154 36.7103077 32.6170769 34.6887692"></polygon>
            <polygon id="Fill-124" fill="#FEFEFE" points="31.8801538 36.7103077 29.5847692 36.7103077 31.4309231 38.098 30.7386154 40.1410769 32.6170769 38.7656923 34.4570769 40.1241538 34.4770769 40.1410769 33.7909231 38.0872308 35.6878462 36.7103077 33.3586154 36.7103077 32.6170769 34.6887692"></polygon>
            <polygon id="Fill-126" fill="#FEFEFE" points="47.2843077 36.7103077 44.9904615 36.7103077 46.8381538 38.098 46.1458462 40.1410769 48.0227692 38.7656923 49.8643077 40.1241538 49.8858462 40.1410769 49.2027692 38.0872308 51.0950769 36.7103077 48.7643077 36.7103077 48.0227692 34.6887692"></polygon>
            <polygon id="Fill-128" fill="#FEFEFE" points="47.2843077 36.7103077 44.9904615 36.7103077 46.8381538 38.098 46.1458462 40.1410769 48.0227692 38.7656923 49.8643077 40.1241538 49.8858462 40.1410769 49.2027692 38.0872308 51.0950769 36.7103077 48.7643077 36.7103077 48.0227692 34.6887692"></polygon>
            <polygon id="Fill-130" fill="#FEFEFE" points="7.756 46.9747692 9.63446154 45.6009231 11.4744615 46.9593846 11.4944615 46.9747692 10.8129231 44.9224615 12.7052308 43.5455385 10.3744615 43.5455385 9.63446154 41.5270769 8.89446154 43.5455385 6.60061538 43.5455385 8.44830769 44.9378462"></polygon>
            <polygon id="Fill-132" fill="#FEFEFE" points="7.756 46.9747692 9.63446154 45.6009231 11.4744615 46.9593846 11.4944615 46.9747692 10.8129231 44.9224615 12.7052308 43.5455385 10.3744615 43.5455385 9.63446154 41.5270769 8.89446154 43.5455385 6.60061538 43.5455385 8.44830769 44.9378462"></polygon>
            <polygon id="Fill-134" fill="#FEFEFE" points="26.8816923 46.9596923 26.9016923 46.9750769 26.2186154 44.9227692 28.1109231 43.5458462 25.7816923 43.5458462 25.0386154 41.5273846 24.3032308 43.5458462 22.0078462 43.5458462 23.854 44.9381538 23.1678462 46.9750769 25.0386154 45.6012308"></polygon>
            <polygon id="Fill-136" fill="#FEFEFE" points="26.8816923 46.9596923 26.9016923 46.9750769 26.2186154 44.9227692 28.1109231 43.5458462 25.7816923 43.5458462 25.0386154 41.5273846 24.3032308 43.5458462 22.0078462 43.5458462 23.854 44.9381538 23.1678462 46.9750769 25.0386154 45.6012308"></polygon>
            <polygon id="Fill-138" fill="#FEFEFE" points="41.1875385 43.5461538 40.4475385 41.5276923 39.7136923 43.5461538 37.4213846 43.5461538 39.2613846 44.9369231 38.5736923 46.9753846 40.4475385 45.6015385 42.2890769 46.96 42.3121538 46.9753846 41.626 44.9230769 43.5183077 43.5461538"></polygon>
            <polygon id="Fill-140" fill="#FEFEFE" points="41.1875385 43.5461538 40.4475385 41.5276923 39.7136923 43.5461538 37.4213846 43.5461538 39.2613846 44.9369231 38.5736923 46.9753846 40.4475385 45.6015385 42.2890769 46.96 42.3121538 46.9753846 41.626 44.9230769 43.5183077 43.5461538"></polygon>
            <polygon id="Fill-142" fill="#FEFEFE" points="58.6964615 43.5461538 56.3656923 43.5461538 55.6241538 41.5276923 54.8918462 43.5461538 52.598 43.5461538 54.4441538 44.9369231 53.7533846 46.9753846 55.6241538 45.6015385 57.4656923 46.96 57.4903077 46.9753846 56.8041538 44.9230769"></polygon>
            <polygon id="Fill-144" fill="#FEFEFE" points="58.6964615 43.5461538 56.3656923 43.5461538 55.6241538 41.5276923 54.8918462 43.5461538 52.598 43.5461538 54.4441538 44.9369231 53.7533846 46.9753846 55.6241538 45.6015385 57.4656923 46.96 57.4903077 46.9753846 56.8041538 44.9230769"></polygon>
            <path d="M3.63938462,53.1104615 L3.664,53.1258462 L2.97630769,51.0735385 L4.86861538,49.6935385 L2.53938462,49.6935385 L1.79784615,47.672 L1.06553846,49.6935385 L0.996307692,49.6935385 C0.991692308,49.7027692 0.991692308,49.7058462 0.991692308,49.7150769 C0.842461538,50.6673846 0.711692308,51.6289231 0.611692308,52.6027692 C0.611692308,52.6089231 0.607076923,52.6150769 0.607076923,52.6273846 L1.79784615,51.7489231 L3.63938462,53.1104615 Z" id="Fill-146" fill="#FEFEFE"></path>
            <path d="M3.63938462,53.1104615 L3.664,53.1258462 L2.97630769,51.0735385 L4.86861538,49.6935385 L2.53938462,49.6935385 L1.79784615,47.672 L1.06553846,49.6935385 L0.996307692,49.6935385 C0.991692308,49.7027692 0.991692308,49.7058462 0.991692308,49.7150769 C0.842461538,50.6673846 0.711692308,51.6289231 0.611692308,52.6027692 C0.611692308,52.6089231 0.607076923,52.6150769 0.607076923,52.6273846 L1.79784615,51.7489231 L3.63938462,53.1104615 Z" id="Fill-148" fill="#FEFEFE"></path>
            <polygon id="Fill-150" fill="#FEFEFE" points="15.3326154 53.1255385 17.2110769 51.7486154 19.0464615 53.1101538 19.0726154 53.1255385 18.3818462 51.0732308 20.2803077 49.6947692 17.9449231 49.6947692 17.2110769 47.6716923 16.4726154 49.6947692 14.1772308 49.6947692 16.0233846 51.0855385"></polygon>
            <polygon id="Fill-152" fill="#FEFEFE" points="15.3326154 53.1255385 17.2110769 51.7486154 19.0464615 53.1101538 19.0726154 53.1255385 18.3818462 51.0732308 20.2803077 49.6947692 17.9449231 49.6947692 17.2110769 47.6716923 16.4726154 49.6947692 14.1772308 49.6947692 16.0233846 51.0855385"></polygon>
            <polygon id="Fill-154" fill="#FEFEFE" points="33.3584615 49.694 32.6169231 47.6724615 31.88 49.694 29.5846154 49.694 31.4307692 51.0847692 30.7384615 53.1247692 32.6169231 51.7493846 34.4569231 53.1109231 34.4784615 53.1247692 33.7907692 51.0724615 35.6876923 49.694"></polygon>
            <polygon id="Fill-156" fill="#FEFEFE" points="33.3584615 49.694 32.6169231 47.6724615 31.88 49.694 29.5846154 49.694 31.4307692 51.0847692 30.7384615 53.1247692 32.6169231 51.7493846 34.4569231 53.1109231 34.4784615 53.1247692 33.7907692 51.0724615 35.6876923 49.694"></polygon>
            <polygon id="Fill-158" fill="#FEFEFE" points="48.7641538 49.694 48.0241538 47.6724615 47.2841538 49.694 44.9903077 49.694 46.838 51.0847692 46.1456923 53.1247692 48.0241538 51.7493846 49.8641538 53.1109231 49.8856923 53.1247692 49.2026154 51.0724615 51.0949231 49.694"></polygon>
            <polygon id="Fill-160" fill="#FEFEFE" points="48.7641538 49.694 48.0241538 47.6724615 47.2841538 49.694 44.9903077 49.694 46.838 51.0847692 46.1456923 53.1247692 48.0241538 51.7493846 49.8641538 53.1109231 49.8856923 53.1247692 49.2026154 51.0724615 51.0949231 49.694"></polygon>
            <polygon id="Fill-162" fill="#FEFEFE" points="10.3747692 56.4338462 9.63476923 54.4123077 8.89476923 56.4338462 6.60092308 56.4338462 8.44861538 57.8215385 7.75630769 59.8646154 9.63476923 58.4861538 11.4747692 59.8476923 11.4947692 59.8646154 10.8132308 57.8107692 12.7055385 56.4338462"></polygon>
            <polygon id="Fill-164" fill="#FEFEFE" points="10.3747692 56.4338462 9.63476923 54.4123077 8.89476923 56.4338462 6.60092308 56.4338462 8.44861538 57.8215385 7.75630769 59.8646154 9.63476923 58.4861538 11.4747692 59.8476923 11.4947692 59.8646154 10.8132308 57.8107692 12.7055385 56.4338462"></polygon>
            <polygon id="Fill-166" fill="#FEFEFE" points="25.7818462 56.4338462 25.0387692 54.4123077 24.3033846 56.4338462 22.008 56.4338462 23.8541538 57.8215385 23.168 59.8646154 25.0387692 58.4861538 26.8818462 59.8476923 26.9018462 59.8646154 26.2187692 57.8107692 28.1110769 56.4338462"></polygon>
            <polygon id="Fill-168" fill="#FEFEFE" points="25.7818462 56.4338462 25.0387692 54.4123077 24.3033846 56.4338462 22.008 56.4338462 23.8541538 57.8215385 23.168 59.8646154 25.0387692 58.4861538 26.8818462 59.8476923 26.9018462 59.8646154 26.2187692 57.8107692 28.1110769 56.4338462"></polygon>
            <polygon id="Fill-170" fill="#FEFEFE" points="41.1875385 56.4338462 40.4475385 54.4123077 39.7136923 56.4338462 37.4213846 56.4338462 39.2613846 57.8215385 38.5736923 59.8646154 40.4475385 58.4861538 42.2890769 59.8476923 42.3121538 59.8646154 41.626 57.8107692 43.5183077 56.4338462"></polygon>
            <polygon id="Fill-172" fill="#FEFEFE" points="41.1875385 56.4338462 40.4475385 54.4123077 39.7136923 56.4338462 37.4213846 56.4338462 39.2613846 57.8215385 38.5736923 59.8646154 40.4475385 58.4861538 42.2890769 59.8476923 42.3121538 59.8646154 41.626 57.8107692 43.5183077 56.4338462"></polygon>
            <polygon id="Fill-174" fill="#FEFEFE" points="55.0667692 56.4338462 52.7729231 56.4338462 54.6190769 57.8215385 53.9329231 59.8646154 55.8036923 58.4861538 57.6467692 59.8476923 57.6652308 59.8646154 56.9836923 57.8107692 58.8744615 56.4338462 56.5452308 56.4338462 55.8036923 54.4123077"></polygon>
            <polygon id="Fill-176" fill="#FEFEFE" points="55.0667692 56.4338462 52.7729231 56.4338462 54.6190769 57.8215385 53.9329231 59.8646154 55.8036923 58.4861538 57.6467692 59.8476923 57.6652308 59.8646154 56.9836923 57.8107692 58.8744615 56.4338462 56.5452308 56.4338462 55.8036923 54.4123077"></polygon>
        </g>
        <path d="M37.304,143.816 L42.728,143.816 C42.392,143 42.008,142.256 41.6,141.584 L43.376,141.296 C43.76,142.04 44.144,142.88 44.48,143.816 L49.592,143.816 C50.024,142.952 50.336,142.088 50.552,141.2 L52.352,141.44 C52.112,142.28 51.776,143.072 51.344,143.816 L56.696,143.816 L56.696,145.4 L47.864,145.4 L47.864,147.704 L55.424,147.704 L55.424,149.192 L47.864,149.192 L47.864,151.544 L57.488,151.544 L57.488,153.128 L36.512,153.128 L36.512,151.544 L46.136,151.544 L46.136,149.192 L38.648,149.192 L38.648,147.704 L46.136,147.704 L46.136,145.4 L37.304,145.4 L37.304,143.816 Z M46.4,153.8 L48.104,153.992 C48.008,154.592 47.888,155.168 47.744,155.72 L56.96,155.72 L56.96,157.304 L47.144,157.304 C46.592,158.408 45.848,159.392 44.936,160.232 C43.376,161.624 40.616,162.728 36.68,163.544 L35.96,161.864 C39.464,161.24 42.008,160.304 43.544,159.08 C44.168,158.552 44.72,157.976 45.152,157.304 L37.064,157.304 L37.064,155.72 L45.92,155.72 C46.136,155.096 46.304,154.472 46.4,153.8 Z M48.68,158.216 C52.112,159.272 55.232,160.568 58.04,162.08 L57.056,163.568 C54.032,161.888 50.936,160.544 47.768,159.584 L48.68,158.216 Z M63.32,142.736 L79.904,142.736 L79.904,144.416 L63.32,144.416 L63.32,142.736 Z M61.472,149.792 L81.992,149.792 L81.992,151.472 L75.368,151.472 L75.368,160.424 C75.368,161.096 75.704,161.456 76.424,161.456 L79.088,161.456 C79.616,161.456 79.976,161.264 80.168,160.904 C80.456,160.472 80.624,159.176 80.72,157.016 L82.304,157.52 C82.136,160.136 81.824,161.72 81.344,162.272 C80.936,162.752 80.288,163.016 79.424,163.016 L75.944,163.016 C74.432,163.016 73.688,162.272 73.688,160.784 L73.688,151.472 L69.368,151.472 L69.368,151.832 C69.296,154.952 68.648,157.472 67.448,159.368 C66.248,161.12 64.328,162.488 61.664,163.472 L60.728,162.008 C63.32,161.048 65.12,159.8 66.152,158.216 C67.112,156.584 67.64,154.448 67.688,151.832 L67.688,151.472 L61.472,151.472 L61.472,149.792 Z" id="美元" fill="#4A4A4A"></path>
    </g>
</svg>