<?xml version="1.0" encoding="UTF-8"?>
<svg width="48px" height="44px" viewBox="0 0 48 44" version="1.1" xmlns="http://www.w3.org/2000/svg" xmlns:xlink="http://www.w3.org/1999/xlink">
    <!-- Generator: Sketch 49 (51002) - http://www.bohemiancoding.com/sketch -->
    <title>btn_arrow_l</title>
    <desc>Created with Sketch.</desc>
    <defs></defs>
    <g id="btn_arrow_l" stroke="none" stroke-width="1" fill="none" fill-rule="evenodd">
        <path d="M33.1480679,19.5708938 C31.4895488,19.5708938 27.1380122,19.030319 24.4438084,17.0733456 C20.9891534,14.5769576 18.8489756,12.282415 18.8489756,6.74790403 C18.8489756,2.96852096 22.440061,0 26.3087526,0 C30.1774443,0 34.3225557,2.43026628 35.9110801,5.06121803 C31.3519321,5.06121803 28.5201115,6.88362774 28.5201115,11.8102821 C28.5201115,14.9145268 30.7990923,17.1406275 33.1480679,17.1406275 C33.1480679,15.7242288 34.0461359,14.2393883 35.8422718,14.2393883 C35.2206237,15.2509359 34.8054007,16.1290799 34.8054007,17.1406275 C36.4639199,17.1406275 38.3976725,16.6012128 39.7785854,15.3193778 C38.3976725,15.0502505 37.2931794,14.5096757 37.2931794,13.4296863 C37.2931794,12.1478513 38.7429007,10.9321381 40.3326115,10.9321381 C41.9899443,10.9321381 43.3020488,11.8775639 43.3020488,13.4969681 C43.3020488,16.1963617 39.7785854,19.030319 34.8054007,19.3017664 L34.8054007,20.6508832 C36.5339146,20.6508832 37.9148275,20.5163195 38.9505122,20.1114685 C39.709777,19.8400211 40.4014199,19.5708938 41.0918763,19.5708938 C42.0587526,19.5708938 45.5134077,20.9200105 48,22.00116 C45.5134077,23.0799895 42.0587526,24.4291062 41.0918763,24.4291062 C40.4014199,24.4291062 39.709777,24.1599789 38.9505122,23.8908516 C37.9148275,23.4860005 36.5339146,23.3502768 34.8054007,23.3502768 L34.8054007,24.6993936 C39.7785854,24.969681 43.3020488,27.8047983 43.3020488,30.5041919 C43.3020488,32.1224361 41.9899443,33.0678619 40.3326115,33.0678619 C38.7429007,33.0678619 37.2931794,31.8533087 37.2931794,30.5703137 C37.2931794,29.4914843 38.3976725,28.9520696 39.7785854,28.6817822 C38.3976725,27.3999473 36.4639199,26.8593725 34.8054007,26.8593725 C34.8054007,27.8709201 35.2206237,28.7490641 35.8422718,29.7606117 C34.0461359,29.7606117 33.1480679,28.2757712 33.1480679,26.8593725 C30.7990923,26.8593725 28.5201115,29.0866333 28.5201115,32.1908779 C28.5201115,37.1163723 31.3519321,38.939942 35.9110801,38.939942 C34.3225557,41.5708938 30.1774443,44 26.3087526,44 C22.440061,44 18.8489756,41.031479 18.8489756,37.252096 C18.8489756,31.717585 20.9891534,29.4230424 24.4438084,26.9266544 C27.1380122,24.969681 31.4895488,24.4291062 33.1480679,24.4291062 L33.1480679,23.3502768 C29.2105679,23.3502768 25.2730679,25.1054047 21.8884077,26.8593725 C20.2986969,27.6690746 18.3649443,28.6133404 16.6376168,28.6133404 C14.565061,28.6133404 12.2860801,27.6690746 9.7994878,26.3187978 C7.38170383,25.0369628 3.03824571,23.2145531 0,22.00116 C3.03824571,20.7854469 7.38170383,18.9641972 9.7994878,17.6812022 C12.2860801,16.3309254 14.565061,15.3866596 16.6376168,15.3866596 C18.3649443,15.3866596 20.2986969,16.3309254 21.8884077,17.1406275 C25.2730679,18.8957553 29.2105679,20.6508832 33.1480679,20.6508832 L33.1480679,19.5708938 Z" id="Fill-1" fill="#004483"></path>
    </g>
</svg>