<?xml version="1.0" encoding="UTF-8"?>
<svg width="152px" height="200px" viewBox="0 0 152 200" version="1.1" xmlns="http://www.w3.org/2000/svg" xmlns:xlink="http://www.w3.org/1999/xlink">
    <!-- Generator: Sketch 49 (51002) - http://www.bohemiancoding.com/sketch -->
    <title>f_pop1_3</title>
    <desc>Created with Sketch.</desc>
    <defs>
        <polygon id="path-1" points="0 0 152 0 152 210 76 166 8.22876159e-14 210"></polygon>
    </defs>
    <g id="f_pop1_3" stroke="none" stroke-width="1" fill="none" fill-rule="evenodd">
        <g id="Group-40" transform="translate(0.000000, -10.000000)">
            <g id="Group-35-Copy-6">
                <g id="Combined-Shape">
                    <use fill="#708CB1" fill-rule="evenodd" xlink:href="#path-1"></use>
                    <path stroke="#FFBD46" stroke-width="10" d="M5,5 L5,201.327764 L76,160.2225 L147,201.327764 L147,5 L5,5 Z"></path>
                    <path stroke="#708CB1" stroke-width="6" d="M3,3 L3,204.796658 L76,162.5335 L149,204.796658 L149,3 L3,3 Z"></path>
                </g>
                <g id="section_B_float_view_icon_3" transform="translate(36.000000, 43.000000)" fill="#FFFFFF" fill-rule="nonzero">
                    <path d="M38.9646737,64.1365217 L39.7354737,64.1365217 C40.6055368,64.1365217 41.3098737,64.846087 41.3098737,65.7226087 C41.3090105,66.5991304 40.6046737,67.3086957 39.7346105,67.3086957 L1.5744,67.3086957 C0.704336842,67.3086957 0,66.5991304 0,65.7226087 C0,64.846087 0.704336842,64.1365217 1.5744,64.1365217 L2.58256842,64.1365217 L2.58256842,31.8513043 C2.58256842,30.9747826 3.28690526,30.2652174 4.15696842,30.2652174 L16.9947158,30.2652174 C17.8647789,30.2652174 18.5691158,30.9747826 18.5691158,31.8513043 L18.5691158,64.1365217 L22.9781263,64.1365217 L22.9781263,17.3643478 C22.9781263,16.4878261 23.6824632,15.7782609 24.5525263,15.7782609 L37.3902737,15.7782609 C38.2603368,15.7782609 38.9646737,16.4878261 38.9646737,17.3643478 L38.9646737,64.1365217 Z M35.8150105,64.1365217 L35.8150105,18.9504348 L26.1269263,18.9504348 L26.1269263,64.1365217 L35.8150105,64.1365217 Z M5.73136842,64.1365217 L15.4203158,64.1365217 L15.4203158,33.4373913 L5.73136842,33.4373913 L5.73136842,64.1365217 Z M44.9472211,44.2652174 C44.0771579,44.2652174 43.3728211,43.5556522 43.3728211,42.6791304 L43.3728211,1.58608696 C43.3728211,0.709565217 44.0771579,0 44.9472211,0 L57.7832421,0 C58.6533053,0 59.3576421,0.709565217 59.3576421,1.58608696 L59.3576421,36.3808696 C59.3576421,37.2573913 58.6533053,37.9669565 57.7832421,37.9669565 C56.9131789,37.9669565 56.2088421,37.2573913 56.2088421,36.3808696 L56.2088421,3.17217391 L46.5216211,3.17217391 L46.5216211,42.6782609 C46.5216211,43.5556522 45.8172842,44.2652174 44.9472211,44.2652174 Z" id="Combined-Shape"></path>
                    <path d="M58.7987158,79.666087 C46.7654316,79.666087 36.9754947,69.8017391 36.9754947,57.6791304 C36.9754947,45.5565217 46.7654316,35.6921739 58.7987158,35.6921739 C70.8337263,35.6921739 80.6236632,45.5565217 80.6236632,57.6791304 C80.6236632,69.8017391 70.8337263,79.666087 58.7987158,79.666087 Z M58.7987158,38.8643478 C48.5012421,38.8643478 40.1242947,47.3034783 40.1242947,57.6782609 C40.1242947,68.053913 48.5012421,76.4930435 58.7987158,76.4930435 C69.0961895,76.4930435 77.4748632,68.053913 77.4748632,57.6782609 C77.4748632,47.3034783 69.0961895,38.8643478 58.7987158,38.8643478 Z" id="XMLID_214_"></path>
                    <path d="M49.7899368,67.3634783 C49.3730316,67.3634783 48.9578526,67.1991304 48.6488421,66.8704348 C48.0489474,66.2356522 48.0757053,65.2313043 48.7040842,64.6278261 C49.4161895,63.946087 51.2512632,61.9878261 53.4566316,59.64 C62.2349474,50.2930435 64.7873053,47.7591304 65.8671158,47.3130435 C66.6724421,46.9747826 67.5925684,47.3626087 67.9231579,48.1747826 C68.2442526,48.9617391 67.8920842,49.8565217 67.1359579,50.2165217 C65.9258105,50.9817391 59.3097053,58.0269565 55.7448632,61.8217391 C53.4859789,64.226087 51.6042947,66.2304348 50.8749263,66.9278261 C50.5693684,67.2173913 50.1809474,67.3634783 49.7899368,67.3634783 Z" id="XMLID_208_"></path>
                    <path d="M66.4670105,64.8321739 C65.5969474,64.8321739 64.8926105,64.1226087 64.8926105,63.246087 L64.8926105,50.3643478 L52.1057895,50.3643478 C51.2357263,50.3643478 50.5313895,49.6547826 50.5313895,48.7782609 C50.5313895,47.9017391 51.2357263,47.1921739 52.1057895,47.1921739 L66.4670105,47.1921739 C67.3370737,47.1921739 68.0414105,47.9017391 68.0414105,48.7782609 L68.0414105,63.246087 C68.0414105,64.1226087 67.3379368,64.8321739 66.4670105,64.8321739 Z" id="XMLID_179_"></path>
                </g>
            </g>
        </g>
    </g>
</svg>