<?xml version="1.0" encoding="UTF-8"?>
<svg width="152px" height="200px" viewBox="0 0 152 200" version="1.1" xmlns="http://www.w3.org/2000/svg" xmlns:xlink="http://www.w3.org/1999/xlink">
    <!-- Generator: Sketch 49 (51002) - http://www.bohemiancoding.com/sketch -->
    <title>f_pop2_1</title>
    <desc>Created with Sketch.</desc>
    <defs>
        <polygon id="path-1" points="0 0 152 0 152 210 76 166 8.22876159e-14 210"></polygon>
    </defs>
    <g id="f_pop2_1" stroke="none" stroke-width="1" fill="none" fill-rule="evenodd">
        <g id="Group-50" transform="translate(0.000000, -10.000000)">
            <g id="Group-35-Copy-5">
                <g id="Combined-Shape">
                    <use fill="#0B406C" fill-rule="evenodd" xlink:href="#path-1"></use>
                    <path stroke="#FFBD46" stroke-width="10" d="M5,5 L5,201.327764 L76,160.2225 L147,201.327764 L147,5 L5,5 Z"></path>
                    <path stroke="#0B406C" stroke-width="6" d="M3,3 L3,204.796658 L76,162.5335 L149,204.796658 L149,3 L3,3 Z"></path>
                </g>
                <path d="M115.46268,92.1476014 C115.761209,92.1476014 116.001419,92.3893876 116.001419,92.687601 C116.001419,92.7181789 115.998897,92.7481263 115.994168,92.777128 C115.353608,99.4572973 113.018339,105.917117 109.239918,111.460229 C109.153544,111.586954 109.017362,111.670807 108.865418,111.690982 C108.84146,111.694449 108.817502,111.696026 108.793859,111.696026 C108.666189,111.696026 108.541355,111.650632 108.443317,111.566779 L95.5756921,100.585212 C95.3786695,100.417191 95.3288622,100.132533 95.4568481,99.9074545 C96.751523,97.6339714 97.6256728,95.1748142 98.0553397,92.5987044 C98.0985271,92.3386346 98.3239209,92.1476014 98.5877736,92.1476014 L115.460158,92.1476014 L115.46268,92.1476014 Z M91.5017377,105.626816 L104.311359,116.55889 C104.426105,116.656613 104.494826,116.798154 104.500185,116.949152 C104.506175,117.100151 104.448486,117.246105 104.341306,117.352655 C96.7787909,124.863471 86.7464004,129 76.092049,129 C53.9851681,129 36,111.014832 36,88.907951 C36,78.8676796 39.7295589,69.2621189 46.5014619,61.8600588 C53.2295471,54.5059146 62.3777002,49.9400342 72.2612992,49.0025219 C72.278322,49.0006305 72.2953448,49 72.3123675,49 C72.4463429,49 72.5759049,49.0494921 72.6755195,49.1405953 C72.7883741,49.2427318 72.852367,49.3880557 72.852367,49.5399995 L72.852367,66.4120688 C72.852367,66.6759215 72.6613339,66.9010001 72.4009489,66.9445027 C61.6337429,68.7407183 53.8187235,77.977768 53.8187235,88.907951 C53.8187235,101.189551 63.8104485,111.181277 76.092049,111.181277 C81.5055994,111.181277 86.727171,109.21042 90.7943478,105.632175 C90.8961691,105.542332 91.0235245,105.497569 91.1511951,105.497569 C91.2757134,105.497569 91.4005469,105.540756 91.5017377,105.626816 Z M89.4681178,61.5365635 C89.9179598,61.5365635 90.282688,61.9012917 90.282688,62.3511337 L90.282688,85.4368227 C90.282688,85.8866647 89.9179598,86.2513929 89.4681178,86.2513929 L80.967775,86.2513929 C80.517933,86.2513929 80.15352,85.8866647 80.15352,85.4368227 L80.15352,62.3511337 C80.15352,61.9012917 80.517933,61.5365635 80.967775,61.5365635 L89.4681178,61.5365635 Z M101.783858,69.3697405 C102.2337,69.3697405 102.598113,69.7341535 102.598113,70.1839955 L102.598113,85.4370119 C102.598113,85.8868539 102.2337,86.2515821 101.783858,86.2515821 L93.2835155,86.2515821 C92.8336735,86.2515821 92.4692605,85.8868539 92.4692605,85.4370119 L92.4692605,70.1839955 C92.4692605,69.7341535 92.8336735,69.3697405 93.2835155,69.3697405 L101.783858,69.3697405 Z M114.09963,51.7454547 C114.549157,51.7454547 114.913885,52.1098677 114.913885,52.5597097 L114.913885,85.4369488 C114.913885,85.8867908 114.549157,86.251519 114.09963,86.251519 L105.599288,86.251519 C105.149446,86.251519 104.784717,85.8867908 104.784717,85.4369488 L104.784717,52.5597097 C104.784717,52.1098677 105.149446,51.7454547 105.599288,51.7454547 L114.09963,51.7454547 Z" id="Combined-Shape" stroke="#FFFFFF" stroke-width="3"></path>
            </g>
        </g>
    </g>
</svg>