<?xml version="1.0" encoding="UTF-8"?>
<svg width="152px" height="200px" viewBox="0 0 152 200" version="1.1" xmlns="http://www.w3.org/2000/svg" xmlns:xlink="http://www.w3.org/1999/xlink">
    <!-- Generator: Sketch 49 (51002) - http://www.bohemiancoding.com/sketch -->
    <title>f_pop2_2</title>
    <desc>Created with Sketch.</desc>
    <defs>
        <polygon id="path-1" points="0 0 152 0 152 210 76 166 8.22876159e-14 210"></polygon>
    </defs>
    <g id="f_pop2_2" stroke="none" stroke-width="1" fill="none" fill-rule="evenodd">
        <g id="Group-49" transform="translate(0.000000, -10.000000)">
            <g id="Group-35-Copy-4">
                <g id="Combined-Shape">
                    <use fill="#60828B" fill-rule="evenodd" xlink:href="#path-1"></use>
                    <path stroke="#FFBD46" stroke-width="10" d="M5,5 L5,201.327764 L76,160.2225 L147,201.327764 L147,5 L5,5 Z"></path>
                    <path stroke="#60828B" stroke-width="6" d="M3,3 L3,204.796658 L76,162.5335 L149,204.796658 L149,3 L3,3 Z"></path>
                </g>
                <path d="M89.3411765,67.2030972 L86.9328456,70.7228916 L83.4117647,68.3149751 L85.8203721,64.7951807 L89.3411765,67.2030972 Z M90.3294118,87.5180723 L90.3294118,82.5783133 L95.2705882,82.5783133 L95.2705882,87.5180723 L90.3294118,87.5180723 Z M100.211765,87.5180723 L100.211765,82.5783133 L105.152941,82.5783133 L105.152941,87.5180723 L100.211765,87.5180723 Z M57.3130299,92.8000927 L59.6941176,96.7597858 L58.2286702,97.6215627 C58.7132255,98.9385729 58.97816,100.36043 58.97816,101.843224 C58.97816,108.663658 53.3864404,114.192771 46.48908,114.192771 C39.5914175,114.192771 34,108.663658 34,101.843224 C34,95.0227901 39.5914175,89.4939759 46.48908,89.4939759 C50.213268,89.4939759 53.5547056,91.1076046 55.842749,93.6642593 L57.3130299,92.8000927 Z M112.070744,78.626506 C115.345457,78.626506 118,81.2805982 118,84.5543723 C118,87.8281465 115.345457,90.4819277 112.070744,90.4819277 C108.79603,90.4819277 106.141176,87.8281465 106.141176,84.5543723 C106.141176,81.2805982 108.79603,78.626506 112.070744,78.626506 Z M89.4460162,105.896397 C95.9271989,105.896397 101.2,111.081269 101.2,117.454371 C101.2,123.827177 95.9271989,129.012048 89.4460162,129.012048 C82.964532,129.012048 77.6920324,123.827177 77.6920324,117.454371 C77.6920324,113.542222 79.6806764,110.080107 82.7142933,107.987956 L77.7655965,96.8216119 C76.8689581,97.0229115 75.937045,97.1326034 74.979505,97.1326034 C71.2455213,97.1326034 67.8899106,95.5159813 65.5928398,92.959566 L63.8034822,94.00579 L61.4271189,90.0755571 L63.2086376,89.0340766 C62.7184109,87.7165873 62.4503842,86.294446 62.4503842,84.8121224 C62.4503842,81.4042604 63.8655896,78.3153944 66.1475858,76.0830151 L60.3354148,67.6580805 C59.4583733,67.9498018 58.5195259,68.1104857 57.5420874,68.1104857 C52.7269519,68.1104857 48.8235294,64.2718604 48.8235294,59.5370223 C48.8235294,54.8021842 52.7269519,50.9638554 57.5420874,50.9638554 C62.357223,50.9638554 66.260947,54.8021842 66.260947,59.5370223 C66.260947,61.6558557 65.4776697,63.5935492 64.1824582,65.0898066 L69.9934232,73.5126659 C71.5222913,72.8577753 73.2079355,72.4922343 74.979505,72.4922343 C76.7676566,72.4922343 78.4683754,72.8651869 80.0090017,73.5319361 L80.9360909,72.1993272 L84.773788,74.7812385 L83.8451914,76.1159226 C86.1075905,78.3456338 87.5086259,81.4211589 87.5086259,84.8121224 C87.5086259,89.0373377 85.333358,92.7719038 82.0274935,94.9921281 L86.9746828,106.155507 C87.7721302,105.987115 88.5982195,105.896397 89.4460162,105.896397 Z M88.6721933,61.2135459 L89.0857369,60.6181426 C88.0114917,59.2888354 87.3647059,57.6104473 87.3647059,55.7837296 C87.3647059,51.4917025 90.9114396,48 95.2707395,48 C99.6297369,48 103.176471,51.4917025 103.176471,55.7837296 C103.176471,60.0760545 99.6297369,63.5680549 95.2707395,63.5680549 C94.4566607,63.5680549 93.6707161,63.4459361 92.9313595,63.2195697 L92.5229587,63.8072289 L88.6721933,61.2135459 Z M89.4460162,124.439673 C93.3630058,124.439673 96.5500823,121.305744 96.5500823,117.454371 C96.5500823,113.602405 93.3630058,110.468773 89.4460162,110.468773 C85.5287251,110.468773 82.3419501,113.602405 82.3419501,117.454371 C82.3419501,121.305744 85.5287251,124.439673 89.4460162,124.439673 Z M67.1003019,84.8121224 C67.1003019,89.0844756 70.6349991,92.560228 74.979505,92.560228 C79.3240109,92.560228 82.8584066,89.0844756 82.8584066,84.8121224 C82.8584066,80.5400657 79.3240109,77.0646098 74.979505,77.0646098 C70.6349991,77.0646098 67.1003019,80.5400657 67.1003019,84.8121224 Z M95.2707395,52.5937497 C93.4840618,52.5937497 92.0304576,54.0249218 92.0304576,55.7837296 C92.0304576,57.5431331 93.4840618,58.9740073 95.2707395,58.9740073 C97.0571147,58.9740073 98.5107188,57.5431331 98.5107188,55.7837296 C98.5107188,54.0249218 97.0571147,52.5937497 95.2707395,52.5937497 Z" id="Combined-Shape" stroke="#FFFFFF" stroke-width="3"></path>
            </g>
        </g>
    </g>
</svg>