<?xml version="1.0" encoding="UTF-8"?>
<svg width="152px" height="200px" viewBox="0 0 152 200" version="1.1" xmlns="http://www.w3.org/2000/svg" xmlns:xlink="http://www.w3.org/1999/xlink">
    <!-- Generator: Sketch 49 (51002) - http://www.bohemiancoding.com/sketch -->
    <title>f_pop2_4</title>
    <desc>Created with Sketch.</desc>
    <defs>
        <polygon id="path-1" points="0 0 152 0 152 210 76 166 8.22876159e-14 210"></polygon>
    </defs>
    <g id="f_pop2_4" stroke="none" stroke-width="1" fill="none" fill-rule="evenodd">
        <g id="Group-47" transform="translate(0.000000, -10.000000)">
            <g id="Group-35-Copy-4">
                <g id="Combined-Shape">
                    <use fill="#689BC8" fill-rule="evenodd" xlink:href="#path-1"></use>
                    <path stroke="#FFBD46" stroke-width="10" d="M5,5 L5,201.327764 L76,160.2225 L147,201.327764 L147,5 L5,5 Z"></path>
                    <path stroke="#689BC8" stroke-width="6" d="M3,3 L3,204.796658 L76,162.5335 L149,204.796658 L149,3 L3,3 Z"></path>
                </g>
                <g id="Group-28" transform="translate(36.000000, 48.000000)" stroke="#FFFFFF" stroke-width="3">
                    <path d="M1.91488076,55.8017453 C2.21588555,55.5268364 2.82511939,55.0202743 3.55790879,54.4706286 C4.85539137,53.4974218 6.31573471,52.5499036 7.91223607,51.6970131 C12.5067863,49.2424908 17.3140835,48.0296049 22.1234271,48.6642342 L22.4082823,48.7036641 C25.2869165,49.1306026 27.3034526,49.8568411 30.567826,51.4057414 C30.7696914,51.5016211 30.7696914,51.5016211 30.971411,51.5976135 C33.4624313,52.7866237 34.5519776,53.2322411 36.0498572,53.5803646 C37.8727779,54.0020985 39.8479834,54.3973612 42.6635974,54.9194764 C43.2001472,55.0189718 43.6287243,55.0977546 44.5940337,55.2746839 C48.6269229,56.0124354 51.3662568,56.5445481 53.5280924,57.0541471 L55.394024,56.0825254 C57.3519489,55.0630012 59.3862087,53.9368617 61.3711097,52.7480688 C61.525415,52.6557238 61.6874675,52.5453751 62.0524699,52.2863536 C62.8189872,51.7465936 63.2420044,51.4591788 63.8204226,51.1016412 C64.9169782,50.4238273 65.9523561,49.9093857 66.9667085,49.5879556 C67.9375592,49.2803104 68.8601565,49.1611728 69.7357662,49.2770624 C70.1505821,49.3321265 70.5479022,49.440052 70.9199328,49.6002538 C72.8909874,49.0928084 75.0959117,48.9349555 76.9559619,49.1793362 C79.1578454,49.4716216 80.7816604,50.3109833 81.3231367,51.7795576 C81.837897,53.1734216 81.2398616,54.6681673 79.8800542,56.1797178 C71.6269649,65.358657 49.7682715,78.3765001 41.7491116,80.2825317 C40.3551212,80.6131183 38.8094504,80.6778991 37.2681632,80.4743326 C35.75253,80.2731868 34.2842444,79.8114894 33.0072828,79.1303755 C30.2561046,77.6640162 17.0538197,73.6037324 12.7049446,73.0292695 C12.6256629,73.0190761 12.5414456,73.009323 12.3793344,72.9907172 C10.5472502,72.7989008 7.75461294,73.51839 5.81548762,74.5540664 L-1.5,78.7230706 L-1.5,57.7657255 L1.88377941,55.817226 L1.91488076,55.8017453 Z" id="Fill-1"></path>
                    <path d="M40.9004895,43.9951921 C38.789598,30.3011356 40.3899071,21.0390663 45.7014168,16.2089844 C54.2346199,8.44921875 62.8029793,7.49414063 69.2033699,0 C75.1997457,3.75642373 79.8498543,23.0722656 69.2033699,36.2675781 C62.5106719,44.5625456 53.8903356,48.2109207 43.3423609,47.2127033 C51.4578131,40.541843 59.5324407,33.1018819 63.1230469,19 C60.8612445,28.60323 49.3681282,35.1196957 40.9004895,43.9951921 Z" id="Combined-Shape" stroke-linejoin="round"></path>
                    <path d="M15.4700194,34.9637252 C14.3682187,27.815977 15.2035159,22.9815485 17.9759108,20.4604395 C22.4299005,16.4101532 26.9022403,15.9116407 30.2429874,12 C33.372855,13.9607025 35.8000251,24.042797 30.2429874,30.9302207 C26.7496676,35.2598609 22.2501979,37.1641663 16.7445783,36.6431369 C20.9805188,33.1612154 25.1951504,29.2778542 27.0693027,21.9172377 C25.8887327,26.9297385 19.889787,30.3310721 15.4700194,34.9637252 Z" id="Combined-Shape-Copy-4" stroke-linejoin="round" transform="translate(24.280934, 24.363543) scale(-1, 1) translate(-24.280934, -24.363543) "></path>
                </g>
            </g>
        </g>
    </g>
</svg>