<?xml version="1.0" encoding="UTF-8"?>
<svg width="288px" height="124px" viewBox="0 0 288 124" version="1.1" xmlns="http://www.w3.org/2000/svg" xmlns:xlink="http://www.w3.org/1999/xlink">
    <!-- Generator: Sketch 49 (51002) - http://www.bohemiancoding.com/sketch -->
    <title>ic_currency</title>
    <desc>Created with Sketch.</desc>
    <defs></defs>
    <g id="ic_currency" stroke="none" stroke-width="1" fill="none" fill-rule="evenodd">
        <g id="Group-Copy">
            <path d="M80.496,63.3 L83.556,64.884 C83.052,65.424 82.584,65.928 82.116,66.396 L91.728,66.396 L91.728,69.06 C87.84,75.972 80.64,79.896 70.092,80.76 L68.652,77.664 C71.676,77.484 74.376,77.088 76.752,76.44 C75.744,75.216 74.664,74.1 73.584,73.092 L76.536,71.688 C77.724,72.84 78.876,74.064 79.956,75.36 C83.268,73.956 85.896,71.976 87.804,69.42 L78.12,69.42 C75.312,71.076 72.036,72.3 68.256,73.128 L66.24,69.996 C72.612,68.844 77.364,66.612 80.496,63.3 Z M79.92,85.8 C81.216,87.096 82.44,88.464 83.592,89.94 C87.12,88.356 89.964,86.232 92.052,83.532 L82.188,83.532 C79.056,84.972 75.384,86.124 71.172,86.952 L69.12,83.892 C76.968,83.136 82.764,80.832 86.436,76.944 L89.352,78.528 C88.704,79.212 87.984,79.86 87.264,80.436 L96.444,80.436 L96.444,83.1 C91.296,91.524 81.72,95.916 67.68,96.276 L66.312,93 C71.748,93 76.428,92.388 80.352,91.164 C79.236,89.724 78.084,88.392 76.896,87.24 L79.92,85.8 Z M102.816,69.024 L102.132,65.856 C106.164,65.46 109.728,64.704 112.86,63.588 L113.976,66.612 C112.68,67.044 111.348,67.44 109.944,67.764 L109.944,73.092 L113.832,73.092 L113.832,76.296 L109.944,76.296 L109.944,77.952 C111.492,79.5 113.076,81.228 114.732,83.172 L112.86,86.016 C111.744,84.072 110.772,82.452 109.944,81.156 L109.944,96.78 L106.668,96.78 L106.668,81.696 C105.588,84.648 104.22,87.384 102.564,89.832 L101.124,86.16 C103.572,83.244 105.3,79.968 106.38,76.296 L102.528,76.296 L102.528,73.092 L106.668,73.092 L106.668,68.448 C105.408,68.664 104.112,68.88 102.816,69.024 Z M115.596,74.208 L122.652,74.208 L122.652,72.336 L114.12,72.336 L114.12,69.492 L122.652,69.492 L122.652,67.656 C120.42,67.764 118.044,67.836 115.524,67.836 L114.516,64.992 C121.428,64.956 127.26,64.488 131.976,63.588 L133.524,66.252 C131.328,66.756 128.808,67.116 125.964,67.404 L125.964,69.492 L134.424,69.492 L134.424,72.336 L125.964,72.336 L125.964,74.208 L132.984,74.208 L132.984,86.304 L125.964,86.304 L125.964,88.212 L133.704,88.212 L133.704,91.056 L125.964,91.056 L125.964,93.108 L134.568,93.108 L134.568,96.024 L114.012,96.024 L114.012,93.108 L122.652,93.108 L122.652,91.056 L114.876,91.056 L114.876,88.212 L122.652,88.212 L122.652,86.304 L115.596,86.304 L115.596,74.208 Z M129.708,83.604 L129.708,81.588 L125.964,81.588 L125.964,83.604 L129.708,83.604 Z M122.652,83.604 L122.652,81.588 L118.836,81.588 L118.836,83.604 L122.652,83.604 Z M118.836,78.996 L122.652,78.996 L122.652,76.944 L118.836,76.944 L118.836,78.996 Z M125.964,76.944 L125.964,78.996 L129.708,78.996 L129.708,76.944 L125.964,76.944 Z M140.184,87.384 L142.992,87.744 C142.812,90.84 142.38,93.612 141.696,95.988 L138.744,95.088 C139.536,92.856 140.004,90.264 140.184,87.384 Z M146.736,86.844 C147.204,89.076 147.636,91.524 147.996,94.116 L145.08,94.764 C144.828,91.992 144.54,89.544 144.18,87.384 L146.736,86.844 Z M150.552,77.52 C151.344,79.608 152.064,82.02 152.712,84.684 L149.976,85.368 L149.616,83.784 C146.196,84.828 142.92,85.512 139.824,85.872 L138.996,82.956 C139.572,82.74 140.04,82.416 140.4,82.056 C141.624,80.976 143.1,79.068 144.864,76.404 C143.172,76.692 141.408,76.944 139.572,77.232 L138.78,74.316 C139.284,74.1 139.716,73.704 140.112,73.128 C141.804,70.32 143.28,67.188 144.576,63.732 L147.78,64.956 C146.124,68.628 144.432,71.652 142.704,73.992 C144.072,73.812 145.44,73.596 146.808,73.344 C147.564,72.048 148.392,70.644 149.256,69.132 L152.244,70.248 C148.86,75.864 146.052,79.932 143.82,82.452 C145.548,82.164 147.24,81.768 148.896,81.336 C148.608,80.328 148.284,79.32 147.924,78.384 L150.552,77.52 Z M150.444,85.908 C151.092,87.276 151.632,88.752 152.136,90.3 C153.9,85.476 154.8,79.068 154.872,71.004 L154.872,67.836 L152.1,67.836 L152.1,64.74 L168.3,64.74 L168.3,66.468 C167.796,69.816 167.148,72.66 166.392,74.964 L170.46,74.964 L170.46,78.024 C169.668,82.236 168.192,85.872 166.032,88.968 C167.76,90.804 169.74,92.46 171.936,93.9 L169.632,96.6 C167.544,95.016 165.672,93.288 164.016,91.452 C162,93.576 159.66,95.376 156.96,96.852 L154.836,94.224 C157.608,92.676 159.948,90.876 161.82,88.824 C160.056,86.52 158.58,84 157.392,81.336 C156.564,87.78 154.98,92.82 152.64,96.42 L150.228,94.296 C150.876,93.252 151.452,92.1 151.956,90.84 L149.796,91.776 C149.256,89.832 148.68,88.14 148.068,86.7 L150.444,85.908 Z M159.12,78.096 C160.308,81.12 161.856,83.856 163.764,86.34 C165.42,83.892 166.536,81.12 167.184,78.096 L159.12,78.096 Z M157.932,74.964 L163.188,74.964 C163.836,72.912 164.412,70.536 164.88,67.836 L158.04,67.836 L158.04,71.004 C158.04,72.372 158.004,73.704 157.932,74.964 Z M177.732,64.74 L192.672,64.74 L192.672,76.908 L184.068,76.908 C183.996,78.132 183.96,79.284 183.888,80.364 L193.68,80.364 C193.68,86.88 193.5,90.912 193.14,92.46 C192.744,94.98 190.728,96.24 187.092,96.24 C186.516,96.24 185.508,96.168 184.068,96.06 L183.312,93.108 C184.572,93.216 185.652,93.288 186.588,93.288 C188.532,93.288 189.648,92.532 189.972,91.02 C190.152,90.264 190.26,87.78 190.332,83.604 L183.564,83.604 C183.276,85.764 182.952,87.492 182.556,88.86 C181.62,91.812 180.072,94.368 177.876,96.528 L175.644,93.684 C177.444,91.884 178.74,89.796 179.532,87.348 C180.18,85.152 180.612,81.66 180.756,76.908 L177.732,76.908 L177.732,64.74 Z M189.36,73.704 L189.36,67.944 L181.044,67.944 L181.044,73.704 L189.36,73.704 Z M196.74,66.648 L200.088,66.648 L200.088,88.86 L196.74,88.86 L196.74,66.648 Z M203.904,96.384 L198.72,96.384 L197.928,93.108 C199.62,93.252 201.204,93.324 202.716,93.324 C203.724,93.324 204.228,92.712 204.228,91.524 L204.228,63.588 L207.612,63.588 L207.612,92.388 C207.612,95.052 206.352,96.384 203.904,96.384 Z M228.708,76.26 L231.696,76.26 L231.696,78.132 L236.664,78.132 L236.664,76.26 L239.688,76.26 L239.688,78.132 L244.116,78.132 L244.116,80.976 L239.688,80.976 L239.688,83.496 L245.16,83.496 L245.16,86.412 L237.744,86.412 C240.228,87.384 242.532,88.572 244.656,89.976 L243,92.496 C240.624,90.768 238.212,89.436 235.764,88.464 L237.204,86.412 L230.544,86.412 L232.38,88.068 C230.58,89.652 228.348,91.056 225.684,92.28 L223.884,89.904 C226.332,88.896 228.42,87.708 230.112,86.412 L223.236,86.412 L223.236,83.496 L228.708,83.496 L228.708,80.976 L224.172,80.976 L224.172,78.132 L228.708,78.132 L228.708,76.26 Z M231.696,83.496 L236.664,83.496 L236.664,80.976 L231.696,80.976 L231.696,83.496 Z M216.072,63.732 C218.232,65.388 220.068,67.08 221.544,68.772 L219.348,71.004 C218.016,69.42 216.18,67.692 213.804,65.856 L216.072,63.732 Z M213.228,72.3 L221.724,72.3 L221.724,74.928 C220.608,76.8 219.312,78.672 217.8,80.544 L222.084,80.544 L222.084,82.74 C221.616,85.44 221.076,87.672 220.428,89.436 C220.716,89.616 221.04,89.832 221.328,90.12 C222.48,91.2 223.56,91.956 224.64,92.388 C225.72,92.82 227.232,93.036 229.212,93.072 C231.156,93.108 233.388,93.144 235.908,93.144 C238.5,93.144 241.848,93.036 245.952,92.892 L245.196,96.132 L236.34,96.132 C233.82,96.132 231.372,96.06 229.068,95.988 C226.62,95.916 224.748,95.592 223.488,95.088 C221.976,94.512 220.644,93.576 219.42,92.316 C219.132,92.028 218.844,91.92 218.556,91.92 C217.836,91.92 216.684,93.468 215.1,96.636 L212.724,94.404 C214.308,91.38 215.856,89.58 217.332,89.004 C217.98,87.276 218.52,85.404 218.916,83.352 L213.876,83.352 L213.876,80.832 C215.568,78.888 216.972,77.052 218.052,75.324 L213.228,75.324 L213.228,72.3 Z M241.344,66.9 L237.564,66.9 L237.564,68.844 L241.344,68.844 L241.344,66.9 Z M237.564,71.112 L237.564,72.228 C237.564,72.768 237.924,73.056 238.644,73.056 L244.656,73.056 L244.656,75.54 L237.204,75.54 C235.512,75.54 234.684,74.856 234.684,73.488 L234.684,64.524 L244.188,64.524 L244.188,71.112 L237.564,71.112 Z M224.028,76.26 L223.056,74.172 C223.56,73.884 223.848,73.38 223.848,72.696 L223.848,64.524 L233.316,64.524 L233.316,71.148 L226.728,71.148 L226.728,73.452 C228.888,73.236 231.012,72.984 233.1,72.66 L233.748,75 C230.904,75.432 227.664,75.864 224.028,76.26 Z M226.728,68.88 L230.472,68.88 L230.472,66.972 L226.728,66.972 L226.728,68.88 Z M262.044,64.308 L281.736,64.308 L281.736,72.732 L273.6,72.732 L273.6,74.388 L280.584,74.388 L280.584,77.268 L273.6,77.268 L273.6,78.96 L282.348,78.96 L282.348,81.984 L278.208,81.984 C277.992,82.848 277.704,83.712 277.38,84.54 L281.052,84.54 L281.052,87.348 L273.708,87.348 L273.708,89.22 L282.672,89.22 L282.672,92.244 L273.708,92.244 L273.708,96.456 L270.36,96.456 L270.36,92.244 L260.784,92.244 L260.784,89.22 L270.36,89.22 L270.36,87.348 L262.26,87.348 L262.26,84.54 L266.256,84.54 C265.968,83.604 265.68,82.776 265.392,81.984 L261.396,81.984 L261.396,78.96 L270.288,78.96 L270.288,77.268 L263.124,77.268 L263.124,74.388 L270.288,74.388 L270.288,72.732 L262.044,72.732 L262.044,64.308 Z M274.14,84.54 C274.464,83.676 274.716,82.848 274.896,81.984 L268.704,81.984 C268.956,82.776 269.208,83.64 269.496,84.54 L274.14,84.54 Z M278.712,69.96 L278.712,67.08 L275.976,67.08 L275.976,69.96 L278.712,69.96 Z M273.24,69.96 L273.24,67.08 L270.504,67.08 L270.504,69.96 L273.24,69.96 Z M267.732,69.96 L267.732,67.08 L265.068,67.08 L265.068,69.96 L267.732,69.96 Z M254.196,96.312 L251.172,96.312 L250.416,93.036 C251.316,93.18 252.18,93.252 253.008,93.252 C253.8,93.252 254.196,92.784 254.196,91.92 L254.196,84.288 C252.972,84.756 251.784,85.188 250.596,85.584 L249.732,82.2 C251.244,81.84 252.72,81.372 254.196,80.868 L254.196,73.272 L250.056,73.272 L250.056,70.068 L254.196,70.068 L254.196,63.696 L257.508,63.696 L257.508,70.068 L260.748,70.068 L260.748,73.272 L257.508,73.272 L257.508,79.5 C258.552,78.996 259.56,78.456 260.568,77.916 L260.568,81.3 C259.56,81.84 258.516,82.344 257.508,82.848 L257.508,92.784 C257.508,95.124 256.392,96.312 254.196,96.312 Z" id="多種級別選擇" fill="#4A4A4A"></path>
            <path d="M80,120 C58.9177747,120 41.6449079,103.690198 40.1108059,83 L16,83 L16,89 L0,80 L16,71 L16,77 L40.1108059,77 C40.7625635,68.2098451 44.2550803,60.2103271 49.6735809,53.9162216 L31.9289322,36.1715729 L27.6862915,40.4142136 L22.736544,22.736544 L40.4142136,27.6862915 L36.1715729,31.9289322 L53.9162216,49.6735809 C60.2103271,44.2550803 68.2098451,40.7625635 77,40.1108059 L77,16 L71,16 L80,0 L89,16 L83,16 L83,40.1108059 C90.8465474,40.6925985 98.0630938,43.5379853 103.998969,47.9962963 L100.399124,52.7968519 C94.7167824,48.5289648 87.6537269,46 80,46 C61.2223185,46 46,61.2223185 46,80 C46,98.7776815 61.2223185,114 80,114 L80,120 Z" id="Combined-Shape" fill="#A7C0DC"></path>
        </g>
    </g>
</svg>