<?xml version="1.0" encoding="UTF-8"?>
<svg width="288px" height="124px" viewBox="0 0 288 124" version="1.1" xmlns="http://www.w3.org/2000/svg" xmlns:xlink="http://www.w3.org/1999/xlink">
    <!-- Generator: Sketch 49 (51002) - http://www.bohemiancoding.com/sketch -->
    <title>ic_download</title>
    <desc>Created with Sketch.</desc>
    <defs></defs>
    <g id="ic_download" stroke="none" stroke-width="1" fill="none" fill-rule="evenodd">
        <g id="Group-19" transform="translate(22.000000, 6.000000)">
            <path d="M43.412,58.704 L74.624,58.704 L74.624,61.908 L60.692,61.908 L60.692,64.392 L71.708,64.392 L71.708,79.188 L60.188,79.188 C59.792,81.276 59.18,82.968 58.352,84.3 C63.32,86.244 69.116,87.288 75.812,87.504 L74.948,90.816 C67.748,90.492 61.484,89.16 56.156,86.784 C53.564,88.8 49.496,90.132 43.916,90.78 L42.44,87.648 C47.048,87.36 50.504,86.532 52.808,85.128 C50.864,84.048 49.1,82.824 47.516,81.492 L50.144,79.692 C51.692,80.916 53.384,81.96 55.184,82.896 C55.832,81.888 56.372,80.628 56.732,79.188 L46.4,79.188 L46.4,64.392 L57.308,64.392 L57.308,61.908 L43.412,61.908 L43.412,58.704 Z M68.324,76.2 L68.324,73.14 L60.692,73.14 L60.692,74.004 C60.692,74.796 60.656,75.516 60.584,76.2 L68.324,76.2 Z M57.2,76.2 C57.272,75.48 57.308,74.724 57.308,74.004 L57.308,73.14 L49.784,73.14 L49.784,76.2 L57.2,76.2 Z M49.784,70.332 L57.308,70.332 L57.308,67.308 L49.784,67.308 L49.784,70.332 Z M60.692,67.308 L60.692,70.332 L68.324,70.332 L68.324,67.308 L60.692,67.308 Z M95.5759999,57.3 L98.6359999,58.884 C98.1319999,59.424 97.6639999,59.928 97.1959999,60.396 L106.808,60.396 L106.808,63.06 C102.92,69.972 95.7199999,73.896 85.1719999,74.76 L83.7319999,71.664 C86.7559999,71.484 89.4559999,71.088 91.8319999,70.44 C90.8239999,69.216 89.7439999,68.1 88.6639999,67.092 L91.6159999,65.688 C92.8039999,66.84 93.9559999,68.064 95.0359999,69.36 C98.3479999,67.956 100.976,65.976 102.884,63.42 L93.1999999,63.42 C90.3919999,65.076 87.1159999,66.3 83.3359999,67.128 L81.3199999,63.996 C87.6919999,62.844 92.4439999,60.612 95.5759999,57.3 Z M94.9999999,79.8 C96.2959999,81.096 97.5199999,82.464 98.6719999,83.94 C102.2,82.356 105.044,80.232 107.132,77.532 L97.2679999,77.532 C94.1359999,78.972 90.4639999,80.124 86.2519999,80.952 L84.1999999,77.892 C92.0479999,77.136 97.8439999,74.832 101.516,70.944 L104.432,72.528 C103.784,73.212 103.064,73.86 102.344,74.436 L111.524,74.436 L111.524,77.1 C106.376,85.524 96.7999999,89.916 82.7599999,90.276 L81.3919999,87 C86.8279999,87 91.5079999,86.388 95.4319999,85.164 C94.3159999,83.724 93.1639999,82.392 91.9759999,81.24 L94.9999999,79.8 Z M117.932,59.928 L124.016,59.928 L124.016,57.444 L127.328,57.444 L127.328,59.928 L138.956,59.928 L138.956,57.444 L142.268,57.444 L142.268,59.928 L148.352,59.928 L148.352,62.808 L142.268,62.808 L142.268,74.076 L148.892,74.076 L148.892,77.028 L142.016,77.028 C143.78,78.828 146.264,80.232 149.432,81.312 L148.028,84.264 C145.544,83.184 143.492,81.96 141.836,80.556 L141.836,83.508 L134.816,83.508 L134.816,86.352 L146.876,86.352 L146.876,89.52 L119.192,89.52 L119.192,86.352 L131.504,86.352 L131.504,83.508 L124.412,83.508 L124.412,80.628 C122.828,81.96 120.92,83.148 118.724,84.228 L116.96,81.348 C120.2,80.196 122.612,78.756 124.268,77.028 L117.392,77.028 L117.392,74.076 L124.016,74.076 L124.016,62.808 L117.932,62.808 L117.932,59.928 Z M124.556,80.484 L131.504,80.484 L131.504,77.964 L134.816,77.964 L134.816,80.484 L141.764,80.484 C140.468,79.404 139.424,78.252 138.632,77.028 L127.616,77.028 C126.788,78.252 125.78,79.404 124.556,80.484 Z M127.328,74.076 L138.956,74.076 L138.956,72.132 L127.328,72.132 L127.328,74.076 Z M127.328,69.468 L138.956,69.468 L138.956,67.524 L127.328,67.524 L127.328,69.468 Z M127.328,64.86 L138.956,64.86 L138.956,62.808 L127.328,62.808 L127.328,64.86 Z M160.7,68.316 C159.116,69.252 157.46,70.116 155.732,70.908 L153.752,68.064 C159.98,65.328 165.02,61.836 168.908,57.588 L171.644,57.588 C174.992,61.764 179.996,65.22 186.692,67.992 L184.748,70.836 C183.02,70.116 181.364,69.324 179.852,68.46 L179.852,70.332 L171.968,70.332 L171.968,74.688 L184.496,74.688 L184.496,77.856 L171.968,77.856 L171.968,86.676 L175.352,86.676 C176.468,84.444 177.44,82.032 178.304,79.476 L181.4,80.592 C180.608,82.86 179.744,84.876 178.808,86.676 L185.756,86.676 L185.756,89.916 L154.76,89.916 L154.76,86.676 L161.816,86.676 C161.132,84.624 160.268,82.68 159.26,80.844 L162.32,79.728 C163.328,81.672 164.264,83.976 165.128,86.676 L168.584,86.676 L168.584,77.856 L156.02,77.856 L156.02,74.688 L168.584,74.688 L168.584,70.332 L160.7,70.332 L160.7,68.316 Z M177.872,67.272 C174.92,65.4 172.4,63.24 170.276,60.792 C167.9,63.24 165.272,65.4 162.392,67.272 L177.872,67.272 Z M194.972,88.584 L194.972,90.636 L191.84,90.636 L191.84,77.568 L201.776,77.568 L201.776,90.132 L198.644,90.132 L198.644,88.584 L194.972,88.584 Z M198.644,85.488 L198.644,80.592 L194.972,80.592 L194.972,85.488 L198.644,85.488 Z M191.012,61.8 L195.62,61.8 C195.116,60.612 194.576,59.424 193.964,58.272 L197.276,57.408 C197.996,58.992 198.5,60.468 198.86,61.8 L202.568,61.8 L202.568,64.968 L191.012,64.968 L191.012,61.8 Z M192.092,67.164 L201.524,67.164 L201.524,70.152 L192.092,70.152 L192.092,67.164 Z M192.092,72.168 L201.524,72.168 L201.524,75.192 L192.092,75.192 L192.092,72.168 Z M211.712,66.804 L203.828,66.804 L203.828,63.564 L208.76,63.564 C207.824,61.8 206.852,60.216 205.844,58.848 L208.688,57.48 C209.732,59.028 210.74,60.72 211.712,62.556 L209.66,63.564 L215.024,63.564 C215.996,61.62 216.86,59.532 217.616,57.372 L220.856,58.488 C220.1,60.36 219.272,62.052 218.372,63.564 L222.944,63.564 L222.944,66.804 L215.096,66.804 L215.096,71.304 L221.864,71.304 L221.864,74.544 L215.096,74.544 L215.096,79.188 L223.88,79.188 L223.88,82.464 L215.096,82.464 L215.096,90.816 L211.712,90.816 L211.712,82.464 L202.964,82.464 L202.964,79.188 L211.712,79.188 L211.712,74.544 L204.908,74.544 L204.908,71.304 L211.712,71.304 L211.712,66.804 Z M248.54,57.444 L251.924,57.444 L251.924,59.568 L259.988,59.568 L259.988,62.34 L251.924,62.34 L251.924,64.176 L258.764,64.176 L258.764,66.912 L251.924,66.912 L251.924,68.676 L261.032,68.676 L261.032,71.484 L239.324,71.484 L239.324,70.404 L237.452,70.872 C236.912,68.712 236.264,66.696 235.508,64.788 L235.508,90.564 L232.196,90.564 L232.196,57.588 L235.508,57.588 L235.508,64.392 L237.74,63.636 C238.388,65.148 238.964,66.804 239.54,68.676 L248.54,68.676 L248.54,66.912 L241.592,66.912 L241.592,64.176 L248.54,64.176 L248.54,62.34 L240.368,62.34 L240.368,59.568 L248.54,59.568 L248.54,57.444 Z M245.192,80.484 C245.192,81.132 245.156,81.78 245.084,82.428 L255.2,82.428 L255.2,80.484 L245.192,80.484 Z M255.2,77.892 L255.2,75.804 L245.192,75.804 L245.192,77.892 L255.2,77.892 Z M244.652,85.056 C244.076,87.216 243.14,89.124 241.844,90.708 L239.324,88.512 C241.052,86.424 241.952,83.832 242.024,80.7 L242.024,73.068 L258.476,73.068 L258.476,87.576 C258.476,89.556 257.396,90.564 255.236,90.564 L250.772,90.564 L249.944,87.648 C251.528,87.72 252.968,87.756 254.264,87.756 C254.876,87.756 255.2,87.288 255.2,86.388 L255.2,85.056 L244.652,85.056 Z M228.632,64.536 L231.224,64.716 C231.152,68.316 230.756,71.736 230.072,74.976 L227.48,74.256 C228.164,71.16 228.56,67.92 228.632,64.536 Z" id="更多基金詳情" fill="#4A4A4A"></path>
            <path d="M82,44 L76,44 L76,6 L32,6 L6,32 L6,106 L50,106 L50,112 L0,112 L0,30 L30,0 L82,0 L82,44 Z M32,32 L32,6 L38,6 L38,32 L38,38 L6,38 L6,32 L32,32 Z" id="Combined-Shape" fill="#A7C0DC"></path>
        </g>
    </g>
</svg>