<?xml version="1.0" encoding="UTF-8"?>
<svg width="22px" height="24px" viewBox="0 0 22 24" version="1.1" xmlns="http://www.w3.org/2000/svg" xmlns:xlink="http://www.w3.org/1999/xlink">
    <!-- Generator: Sketch 49 (51002) - http://www.bohemiancoding.com/sketch -->
    <title>img_bullet</title>
    <desc>Created with Sketch.</desc>
    <defs></defs>
    <g id="img_bullet" stroke="none" stroke-width="1" fill="none" fill-rule="evenodd">
        <path d="M17.5317006,13.6607083 C22.3047363,13.6607083 24.7948129,9.01720067 16.9532639,9.01720067 C12.7166816,9.01720067 12.110256,12.6749859 12.2380719,15.144688 L11.7081492,15.144688 C11.8704847,11.944688 12.9499222,6.73097246 12.9499222,5.48982574 C12.9499222,4.1470489 12.8650226,3.06419337 12.3425637,2.01461495 C11.7697247,0.862507026 11.0000307,0.000899381675 11.0000307,0.000899381675 C11.0000307,0.000899381675 10.2303368,0.862507026 9.65656487,2.01461495 C9.13410592,3.06419337 9.05013931,4.1470489 9.05013931,5.48982574 C9.05013931,6.73097246 10.1286439,11.944688 10.2909793,15.144688 L9.76198962,15.144688 C9.88980548,12.6749859 9.28244695,9.01720067 5.0467976,9.01720067 C-2.79568441,9.01720067 -0.30467478,13.6607083 4.46836091,13.6607083 C4.46836091,13.6607083 3.90578458,13.3810006 4.41331613,12.8917369 C4.90965213,12.4132659 8.42132264,12.3377178 8.58085921,15.1455874 C8.18248426,15.1590781 7.86527705,15.4747611 7.86527705,15.8605958 C7.86527705,16.2113547 8.12650652,16.5027544 8.47170261,16.5648117 C7.76824895,19.8682406 4.09704187,18.3356942 4.09704187,18.3356942 C4.09704187,18.3356942 4.95443433,21.2514896 6.8166273,20.4204609 C8.09665172,19.8484542 8.82622833,18.8195616 9.42519019,17.2762226 C9.46997239,17.1584036 9.53527976,16.911973 9.59685528,16.577403 L10.2863145,16.577403 C10.1109176,18.8951096 9.05013931,18.7143339 9.05013931,20.6839798 C9.05013931,23.1833614 11.0000307,24 11.0000307,24 C11.0000307,24 12.9499222,23.1833614 12.9499222,20.6839798 C12.9499222,18.7143339 11.8891439,18.8951096 11.712814,16.577403 L12.4022732,16.577403 C12.4638488,16.911973 12.5300891,17.1584036 12.5758043,17.2762226 C13.1738332,18.8195616 13.9034098,19.8484542 15.1825012,20.4204609 C17.0456272,21.2514896 17.9030196,18.3356942 17.9030196,18.3356942 C17.9030196,18.3356942 14.2308796,19.8682406 13.5283589,16.5648117 C13.873555,16.5027544 14.1338515,16.2113547 14.1338515,15.8605958 C14.1338515,15.4747611 13.8166443,15.1590781 13.4192023,15.1455874 C13.5787388,12.3377178 17.0894764,12.4132659 17.5867454,12.8917369 C18.0942769,13.3810006 17.5317006,13.6607083 17.5317006,13.6607083" id="Page-1" fill="#3D3D3D"></path>
    </g>
</svg>