<?xml version="1.0" encoding="utf-8"?>
<!-- Generator: Adobe Illustrator 22.0.1, SVG Export Plug-In . SVG Version: 6.00 Build 0)  -->
<svg version="1.1" id="圖層_1" xmlns="http://www.w3.org/2000/svg" xmlns:xlink="http://www.w3.org/1999/xlink" x="0px" y="0px"
	 viewBox="0 0 656 492" style="enable-background:new 0 0 656 492;" xml:space="preserve">
<style type="text/css">
	.st0{enable-background:new    ;}
	.st1{fill:#4A4A4A;}
	.st2{fill:#BCBCBC;}
	.st3{fill:#B7956F;}
	.st4{fill:#004483;}
	.st5{fill:none;stroke:#004483;stroke-width:4;stroke-linecap:round;stroke-linejoin:round;stroke-dasharray:1,6;}
	.st6{fill:none;stroke:#004483;stroke-width:4;stroke-linecap:round;stroke-linejoin:round;stroke-dasharray:1;}
	.st7{fill:none;stroke:#B7956F;stroke-width:4;stroke-linecap:round;stroke-linejoin:round;stroke-dasharray:1,6;}
	.st8{fill:none;stroke:#B7956F;stroke-width:4;stroke-linecap:round;stroke-linejoin:round;stroke-dasharray:1;}
	.st9{fill:none;stroke:#FBB613;stroke-width:4;stroke-linecap:round;}
</style>
<title>s1_1_1 copy</title>
<desc>Created with Sketch.</desc>
<g id="s1_1_1-copy">
	<g id="Group-2" transform="translate(1.000000, 0.000000)">
		<g class="st0">
			<path class="st1" d="M21.1,70.6v1.1L16.8,82h-1.4l4.3-10.2h-6.2v-1.2H21.1z"/>
		</g>
		<g class="st0">
			<path class="st1" d="M20.6,127.4h-1.3c-0.3-1.3-1-2-2.4-2c-0.9,0-1.6,0.4-2.1,1.3c-0.5,0.8-0.8,1.9-0.8,3.2c0,0.1,0,0.2,0,0.4
				h0.1c0.3-0.6,0.7-1.1,1.2-1.4c0.5-0.3,1.1-0.5,1.8-0.5c1.1,0,2,0.4,2.6,1.1c0.7,0.7,1,1.6,1,2.7c0,1.1-0.4,2.1-1.1,2.8
				c-0.7,0.7-1.6,1.1-2.8,1.1c-1.4,0-2.4-0.5-3.1-1.6c-0.7-1-1-2.3-1-4.1c0-1.8,0.4-3.3,1.1-4.5c0.8-1.2,1.8-1.8,3.1-1.8
				C19.1,124.3,20.3,125.4,20.6,127.4z M15,130.4c-0.5,0.5-0.7,1.2-0.7,2c0,0.8,0.2,1.5,0.7,2c0.5,0.5,1.1,0.8,1.9,0.8
				c0.8,0,1.4-0.3,1.9-0.8c0.5-0.5,0.7-1.2,0.7-2s-0.2-1.5-0.7-1.9c-0.5-0.5-1.1-0.8-1.9-0.8C16.2,129.6,15.5,129.9,15,130.4z"/>
		</g>
		<g class="st0">
			<path class="st1" d="M20.3,178.6v1.2h-5.6l-0.4,3.8h0.1c0.3-0.4,0.7-0.7,1.2-0.9c0.4-0.2,0.9-0.3,1.5-0.3c1.1,0,2,0.3,2.6,1
				c0.7,0.7,1,1.7,1,2.9c0,1.2-0.4,2.1-1.2,2.8c-0.8,0.7-1.7,1-2.8,1c-1,0-1.9-0.3-2.6-0.8c-0.8-0.6-1.2-1.4-1.3-2.5h1.3
				c0.1,0.7,0.4,1.3,0.9,1.7c0.4,0.3,1,0.5,1.7,0.5c0.8,0,1.5-0.3,2-0.8c0.5-0.5,0.8-1.2,0.8-2c0-0.9-0.3-1.6-0.7-2.1
				c-0.5-0.5-1.1-0.8-2-0.8c-0.5,0-1,0.1-1.5,0.4c-0.4,0.2-0.8,0.6-1,1h-1.2l0.6-6.3H20.3z"/>
		</g>
		<g class="st0">
			<path class="st1" d="M19.4,232.6v7.8h1.9v1.1h-1.9v2.6h-1.2v-2.6h-5.7v-1.2l5.8-7.6H19.4z M13.5,240.3h4.6v-6.1h0L13.5,240.3z"/>
		</g>
		<g class="st0">
			<path class="st1" d="M19.6,287.2c0.7,0.6,1,1.3,1,2.3c0,1.3-0.6,2.1-1.9,2.6c0.7,0.2,1.2,0.5,1.5,1c0.4,0.4,0.6,1,0.6,1.7
				c0,1-0.4,1.9-1.1,2.5c-0.7,0.7-1.7,1-2.9,1c-1.1,0-2-0.3-2.7-0.8c-0.8-0.7-1.3-1.6-1.4-2.9h1.3c0,0.9,0.3,1.6,0.9,2
				c0.5,0.4,1.1,0.6,1.8,0.6c0.8,0,1.5-0.2,2-0.7c0.4-0.4,0.7-1,0.7-1.7c0-0.7-0.2-1.2-0.7-1.6c-0.4-0.4-1.1-0.6-1.9-0.6H16v-1h0.9
				c0.8,0,1.3-0.2,1.7-0.5c0.4-0.4,0.6-0.8,0.6-1.5c0-0.6-0.2-1.1-0.6-1.5c-0.4-0.4-1-0.6-1.7-0.6c-0.8,0-1.4,0.2-1.8,0.6
				c-0.4,0.4-0.7,1-0.8,1.8h-1.3c0.1-1.1,0.5-2,1.2-2.6c0.7-0.6,1.6-0.9,2.6-0.9S18.9,286.6,19.6,287.2z"/>
		</g>
		<g class="st0">
			<path class="st1" d="M19.6,341.3c0.7,0.6,1,1.4,1,2.4s-0.4,1.9-1.1,2.7c-0.4,0.4-1.2,1-2.4,1.8c-1.5,1-2.3,1.9-2.5,2.6h6v1.2H13
				c0-1,0.4-2,1.1-2.8c0.4-0.5,1.3-1.2,2.5-2c0.9-0.6,1.5-1.1,1.8-1.4c0.6-0.6,0.9-1.3,0.9-2c0-0.7-0.2-1.2-0.6-1.6s-1-0.6-1.7-0.6
				c-0.8,0-1.4,0.3-1.8,0.8c-0.4,0.5-0.7,1.3-0.7,2.3h-1.3c0-1.3,0.4-2.3,1.1-3.1c0.7-0.8,1.6-1.2,2.8-1.2
				C18,340.3,18.9,340.7,19.6,341.3z"/>
		</g>
		<g class="st0">
			<path class="st1" d="M20.7,394.6V406h-1.3v-9.8c-0.7,0.7-1.6,1.2-2.7,1.6v-1.3c0.5-0.1,1.1-0.4,1.6-0.7c0.5-0.4,1-0.7,1.4-1.2
				H20.7z"/>
		</g>
		<g class="st0">
			<path class="st1" d="M19.9,450.2c0.6,1,0.9,2.4,0.9,4.1c0,1.7-0.3,3.1-0.9,4.1c-0.7,1.2-1.7,1.8-3.1,1.8c-1.4,0-2.4-0.6-3.1-1.8
				c-0.6-1-0.9-2.4-0.9-4.1c0-1.7,0.3-3.1,0.9-4.1c0.7-1.2,1.7-1.8,3.1-1.8C18.2,448.3,19.2,448.9,19.9,450.2z M14.6,451.1
				c-0.3,0.8-0.5,1.8-0.5,3.2c0,1.3,0.2,2.4,0.5,3.2c0.4,1.1,1.2,1.6,2.2,1.6s1.8-0.6,2.2-1.6c0.3-0.8,0.5-1.8,0.5-3.2
				c0-1.3-0.2-2.4-0.5-3.2c-0.4-1.1-1.2-1.6-2.2-1.6S15,450,14.6,451.1z"/>
		</g>
		<g class="st0">
			<path class="st1" d="M67.6,478.3c0.7,0.6,1,1.4,1,2.4s-0.4,1.9-1.1,2.7c-0.4,0.4-1.2,1-2.4,1.8c-1.5,1-2.3,1.9-2.5,2.6h6v1.2H61
				c0-1,0.4-2,1.1-2.8c0.4-0.5,1.3-1.2,2.5-2c0.9-0.6,1.5-1.1,1.8-1.4c0.6-0.6,0.9-1.3,0.9-2c0-0.7-0.2-1.2-0.6-1.6s-1-0.6-1.7-0.6
				c-0.8,0-1.4,0.3-1.8,0.8c-0.4,0.5-0.7,1.3-0.7,2.3h-1.3c0-1.3,0.4-2.3,1.1-3.1c0.7-0.8,1.6-1.2,2.8-1.2
				C66,477.3,66.9,477.7,67.6,478.3z"/>
			<path class="st1" d="M78,479.2c0.6,1,0.9,2.4,0.9,4.1c0,1.7-0.3,3.1-0.9,4.1c-0.7,1.2-1.7,1.8-3.1,1.8c-1.4,0-2.4-0.6-3.1-1.8
				c-0.6-1-0.9-2.4-0.9-4.1c0-1.7,0.3-3.1,0.9-4.1c0.7-1.2,1.7-1.8,3.1-1.8C76.2,477.3,77.3,477.9,78,479.2z M72.7,480.1
				c-0.3,0.8-0.5,1.8-0.5,3.2c0,1.3,0.2,2.4,0.5,3.2c0.4,1.1,1.2,1.6,2.2,1.6s1.8-0.6,2.2-1.6c0.3-0.8,0.5-1.8,0.5-3.2
				c0-1.3-0.2-2.4-0.5-3.2c-0.4-1.1-1.2-1.6-2.2-1.6S73.1,479,72.7,480.1z"/>
			<path class="st1" d="M84.9,477.6V489h-1.3v-9.8c-0.7,0.7-1.6,1.2-2.7,1.6v-1.3c0.5-0.1,1.1-0.4,1.6-0.7c0.5-0.4,1-0.7,1.4-1.2
				H84.9z"/>
			<path class="st1" d="M91.8,477.6V489h-1.3v-9.8c-0.7,0.7-1.6,1.2-2.7,1.6v-1.3c0.5-0.1,1.1-0.4,1.6-0.7c0.5-0.4,1-0.7,1.4-1.2
				H91.8z"/>
		</g>
		<g class="st0">
			<path class="st1" d="M133.6,478.3c0.7,0.6,1,1.4,1,2.4s-0.4,1.9-1.1,2.7c-0.4,0.4-1.2,1-2.4,1.8c-1.5,1-2.3,1.9-2.5,2.6h6v1.2
				H127c0-1,0.4-2,1.1-2.8c0.4-0.5,1.3-1.2,2.5-2c0.9-0.6,1.5-1.1,1.8-1.4c0.6-0.6,0.9-1.3,0.9-2c0-0.7-0.2-1.2-0.6-1.6
				s-1-0.6-1.7-0.6c-0.8,0-1.4,0.3-1.8,0.8c-0.4,0.5-0.7,1.3-0.7,2.3h-1.3c0-1.3,0.4-2.3,1.1-3.1c0.7-0.8,1.6-1.2,2.8-1.2
				C132,477.3,132.9,477.7,133.6,478.3z"/>
			<path class="st1" d="M144,479.2c0.6,1,0.9,2.4,0.9,4.1c0,1.7-0.3,3.1-0.9,4.1c-0.7,1.2-1.7,1.8-3.1,1.8c-1.4,0-2.4-0.6-3.1-1.8
				c-0.6-1-0.9-2.4-0.9-4.1c0-1.7,0.3-3.1,0.9-4.1c0.7-1.2,1.7-1.8,3.1-1.8C142.2,477.3,143.3,477.9,144,479.2z M138.7,480.1
				c-0.3,0.8-0.5,1.8-0.5,3.2c0,1.3,0.2,2.4,0.5,3.2c0.4,1.1,1.2,1.6,2.2,1.6s1.8-0.6,2.2-1.6c0.3-0.8,0.5-1.8,0.5-3.2
				c0-1.3-0.2-2.4-0.5-3.2c-0.4-1.1-1.2-1.6-2.2-1.6S139.1,479,138.7,480.1z"/>
			<path class="st1" d="M150.9,477.6V489h-1.3v-9.8c-0.7,0.7-1.6,1.2-2.7,1.6v-1.3c0.5-0.1,1.1-0.4,1.6-0.7c0.5-0.4,1-0.7,1.4-1.2
				H150.9z"/>
			<path class="st1" d="M160.6,478.3c0.7,0.6,1,1.4,1,2.4s-0.4,1.9-1.1,2.7c-0.4,0.4-1.2,1-2.4,1.8c-1.5,1-2.3,1.9-2.5,2.6h6v1.2
				H154c0-1,0.4-2,1.1-2.8c0.4-0.5,1.3-1.2,2.5-2c0.9-0.6,1.5-1.1,1.8-1.4c0.6-0.6,0.9-1.3,0.9-2c0-0.7-0.2-1.2-0.6-1.6
				s-1-0.6-1.7-0.6c-0.8,0-1.4,0.3-1.8,0.8c-0.4,0.5-0.7,1.3-0.7,2.3h-1.3c0-1.3,0.4-2.3,1.1-3.1c0.7-0.8,1.6-1.2,2.8-1.2
				C159.1,477.3,159.9,477.7,160.6,478.3z"/>
		</g>
		<g class="st0">
			<path class="st1" d="M201.6,478.3c0.7,0.6,1,1.4,1,2.4s-0.4,1.9-1.1,2.7c-0.4,0.4-1.2,1-2.4,1.8c-1.5,1-2.3,1.9-2.5,2.6h6v1.2
				H195c0-1,0.4-2,1.1-2.8c0.4-0.5,1.3-1.2,2.5-2c0.9-0.6,1.5-1.1,1.8-1.4c0.6-0.6,0.9-1.3,0.9-2c0-0.7-0.2-1.2-0.6-1.6
				s-1-0.6-1.7-0.6c-0.8,0-1.4,0.3-1.8,0.8c-0.4,0.5-0.7,1.3-0.7,2.3h-1.3c0-1.3,0.4-2.3,1.1-3.1c0.7-0.8,1.6-1.2,2.8-1.2
				C200,477.3,200.9,477.7,201.6,478.3z"/>
			<path class="st1" d="M212,479.2c0.6,1,0.9,2.4,0.9,4.1c0,1.7-0.3,3.1-0.9,4.1c-0.7,1.2-1.7,1.8-3.1,1.8c-1.4,0-2.4-0.6-3.1-1.8
				c-0.6-1-0.9-2.4-0.9-4.1c0-1.7,0.3-3.1,0.9-4.1c0.7-1.2,1.7-1.8,3.1-1.8C210.2,477.3,211.3,477.9,212,479.2z M206.7,480.1
				c-0.3,0.8-0.5,1.8-0.5,3.2c0,1.3,0.2,2.4,0.5,3.2c0.4,1.1,1.2,1.6,2.2,1.6s1.8-0.6,2.2-1.6c0.3-0.8,0.5-1.8,0.5-3.2
				c0-1.3-0.2-2.4-0.5-3.2c-0.4-1.1-1.2-1.6-2.2-1.6S207.1,479,206.7,480.1z"/>
			<path class="st1" d="M218.9,477.6V489h-1.3v-9.8c-0.7,0.7-1.6,1.2-2.7,1.6v-1.3c0.5-0.1,1.1-0.4,1.6-0.7c0.5-0.4,1-0.7,1.4-1.2
				H218.9z"/>
			<path class="st1" d="M228.6,478.2c0.7,0.6,1,1.3,1,2.3c0,1.3-0.6,2.1-1.9,2.6c0.7,0.2,1.2,0.5,1.5,1c0.4,0.4,0.6,1,0.6,1.7
				c0,1-0.4,1.9-1.1,2.5c-0.7,0.7-1.7,1-2.9,1c-1.1,0-2-0.3-2.7-0.8c-0.8-0.7-1.3-1.6-1.4-2.9h1.3c0,0.9,0.3,1.6,0.9,2
				c0.5,0.4,1.1,0.6,1.8,0.6c0.8,0,1.5-0.2,2-0.7c0.4-0.4,0.7-1,0.7-1.7c0-0.7-0.2-1.2-0.7-1.6c-0.4-0.4-1.1-0.6-1.9-0.6h-0.9v-1
				h0.9c0.8,0,1.3-0.2,1.7-0.5c0.4-0.4,0.6-0.8,0.6-1.5c0-0.6-0.2-1.1-0.6-1.5c-0.4-0.4-1-0.6-1.7-0.6c-0.8,0-1.4,0.2-1.8,0.6
				c-0.4,0.4-0.7,1-0.8,1.8h-1.3c0.1-1.1,0.5-2,1.2-2.6c0.7-0.6,1.6-0.9,2.6-0.9S228,477.6,228.6,478.2z"/>
		</g>
		<g class="st0">
			<path class="st1" d="M269.6,478.3c0.7,0.6,1,1.4,1,2.4s-0.4,1.9-1.1,2.7c-0.4,0.4-1.2,1-2.4,1.8c-1.5,1-2.3,1.9-2.5,2.6h6v1.2
				H263c0-1,0.4-2,1.1-2.8c0.4-0.5,1.3-1.2,2.5-2c0.9-0.6,1.5-1.1,1.8-1.4c0.6-0.6,0.9-1.3,0.9-2c0-0.7-0.2-1.2-0.6-1.6
				s-1-0.6-1.7-0.6c-0.8,0-1.4,0.3-1.8,0.8c-0.4,0.5-0.7,1.3-0.7,2.3h-1.3c0-1.3,0.4-2.3,1.1-3.1c0.7-0.8,1.6-1.2,2.8-1.2
				C268,477.3,268.9,477.7,269.6,478.3z"/>
			<path class="st1" d="M280,479.2c0.6,1,0.9,2.4,0.9,4.1c0,1.7-0.3,3.1-0.9,4.1c-0.7,1.2-1.7,1.8-3.1,1.8c-1.4,0-2.4-0.6-3.1-1.8
				c-0.6-1-0.9-2.4-0.9-4.1c0-1.7,0.3-3.1,0.9-4.1c0.7-1.2,1.7-1.8,3.1-1.8C278.2,477.3,279.3,477.9,280,479.2z M274.7,480.1
				c-0.3,0.8-0.5,1.8-0.5,3.2c0,1.3,0.2,2.4,0.5,3.2c0.4,1.1,1.2,1.6,2.2,1.6s1.8-0.6,2.2-1.6c0.3-0.8,0.5-1.8,0.5-3.2
				c0-1.3-0.2-2.4-0.5-3.2c-0.4-1.1-1.2-1.6-2.2-1.6S275.1,479,274.7,480.1z"/>
			<path class="st1" d="M286.9,477.6V489h-1.3v-9.8c-0.7,0.7-1.6,1.2-2.7,1.6v-1.3c0.5-0.1,1.1-0.4,1.6-0.7c0.5-0.4,1-0.7,1.4-1.2
				H286.9z"/>
			<path class="st1" d="M296.4,477.6v7.8h1.9v1.1h-1.9v2.6h-1.2v-2.6h-5.7v-1.2l5.8-7.6H296.4z M290.5,485.3h4.6v-6.1h0L290.5,485.3
				z"/>
		</g>
		<g class="st0">
			<path class="st1" d="M337.6,478.3c0.7,0.6,1,1.4,1,2.4s-0.4,1.9-1.1,2.7c-0.4,0.4-1.2,1-2.4,1.8c-1.5,1-2.3,1.9-2.5,2.6h6v1.2
				H331c0-1,0.4-2,1.1-2.8c0.4-0.5,1.3-1.2,2.5-2c0.9-0.6,1.5-1.1,1.8-1.4c0.6-0.6,0.9-1.3,0.9-2c0-0.7-0.2-1.2-0.6-1.6
				s-1-0.6-1.7-0.6c-0.8,0-1.4,0.3-1.8,0.8c-0.4,0.5-0.7,1.3-0.7,2.3h-1.3c0-1.3,0.4-2.3,1.1-3.1c0.7-0.8,1.6-1.2,2.8-1.2
				C336,477.3,336.9,477.7,337.6,478.3z"/>
			<path class="st1" d="M348,479.2c0.6,1,0.9,2.4,0.9,4.1c0,1.7-0.3,3.1-0.9,4.1c-0.7,1.2-1.7,1.8-3.1,1.8c-1.4,0-2.4-0.6-3.1-1.8
				c-0.6-1-0.9-2.4-0.9-4.1c0-1.7,0.3-3.1,0.9-4.1c0.7-1.2,1.7-1.8,3.1-1.8C346.2,477.3,347.3,477.9,348,479.2z M342.7,480.1
				c-0.3,0.8-0.5,1.8-0.5,3.2c0,1.3,0.2,2.4,0.5,3.2c0.4,1.1,1.2,1.6,2.2,1.6s1.8-0.6,2.2-1.6c0.3-0.8,0.5-1.8,0.5-3.2
				c0-1.3-0.2-2.4-0.5-3.2c-0.4-1.1-1.2-1.6-2.2-1.6S343.1,479,342.7,480.1z"/>
			<path class="st1" d="M354.9,477.6V489h-1.3v-9.8c-0.7,0.7-1.6,1.2-2.7,1.6v-1.3c0.5-0.1,1.1-0.4,1.6-0.7c0.5-0.4,1-0.7,1.4-1.2
				H354.9z"/>
			<path class="st1" d="M365.4,477.6v1.2h-5.6l-0.4,3.8h0.1c0.3-0.4,0.7-0.7,1.2-0.9c0.4-0.2,0.9-0.3,1.5-0.3c1.1,0,2,0.3,2.6,1
				c0.7,0.7,1,1.7,1,2.9c0,1.2-0.4,2.1-1.2,2.8c-0.8,0.7-1.7,1-2.8,1c-1,0-1.9-0.3-2.6-0.8c-0.8-0.6-1.2-1.4-1.3-2.5h1.3
				c0.1,0.7,0.4,1.3,0.9,1.7c0.4,0.3,1,0.5,1.7,0.5c0.8,0,1.5-0.3,2-0.8c0.5-0.5,0.8-1.2,0.8-2c0-0.9-0.3-1.6-0.7-2.1
				c-0.5-0.5-1.1-0.8-2-0.8c-0.5,0-1,0.1-1.5,0.4c-0.4,0.2-0.8,0.6-1,1h-1.2l0.6-6.3H365.4z"/>
		</g>
		<g class="st0">
			<path class="st1" d="M405.6,478.3c0.7,0.6,1,1.4,1,2.4s-0.4,1.9-1.1,2.7c-0.4,0.4-1.2,1-2.4,1.8c-1.5,1-2.3,1.9-2.5,2.6h6v1.2
				H399c0-1,0.4-2,1.1-2.8c0.4-0.5,1.3-1.2,2.5-2c0.9-0.6,1.5-1.1,1.8-1.4c0.6-0.6,0.9-1.3,0.9-2c0-0.7-0.2-1.2-0.6-1.6
				s-1-0.6-1.7-0.6c-0.8,0-1.4,0.3-1.8,0.8c-0.4,0.5-0.7,1.3-0.7,2.3h-1.3c0-1.3,0.4-2.3,1.1-3.1c0.7-0.8,1.6-1.2,2.8-1.2
				C404,477.3,404.9,477.7,405.6,478.3z"/>
			<path class="st1" d="M416,479.2c0.6,1,0.9,2.4,0.9,4.1c0,1.7-0.3,3.1-0.9,4.1c-0.7,1.2-1.7,1.8-3.1,1.8c-1.4,0-2.4-0.6-3.1-1.8
				c-0.6-1-0.9-2.4-0.9-4.1c0-1.7,0.3-3.1,0.9-4.1c0.7-1.2,1.7-1.8,3.1-1.8C414.2,477.3,415.3,477.9,416,479.2z M410.7,480.1
				c-0.3,0.8-0.5,1.8-0.5,3.2c0,1.3,0.2,2.4,0.5,3.2c0.4,1.1,1.2,1.6,2.2,1.6s1.8-0.6,2.2-1.6c0.3-0.8,0.5-1.8,0.5-3.2
				c0-1.3-0.2-2.4-0.5-3.2c-0.4-1.1-1.2-1.6-2.2-1.6S411.1,479,410.7,480.1z"/>
			<path class="st1" d="M422.9,477.6V489h-1.3v-9.8c-0.7,0.7-1.6,1.2-2.7,1.6v-1.3c0.5-0.1,1.1-0.4,1.6-0.7c0.5-0.4,1-0.7,1.4-1.2
				H422.9z"/>
			<path class="st1" d="M433.7,480.4h-1.3c-0.3-1.3-1-2-2.4-2c-0.9,0-1.6,0.4-2.1,1.3c-0.5,0.8-0.8,1.9-0.8,3.2c0,0.1,0,0.2,0,0.4
				h0.1c0.3-0.6,0.7-1.1,1.2-1.4c0.5-0.3,1.1-0.5,1.8-0.5c1.1,0,2,0.4,2.6,1.1c0.7,0.7,1,1.6,1,2.7c0,1.1-0.4,2.1-1.1,2.8
				c-0.7,0.7-1.6,1.1-2.8,1.1c-1.4,0-2.4-0.5-3.1-1.6c-0.7-1-1-2.3-1-4.1c0-1.8,0.4-3.3,1.1-4.5c0.8-1.2,1.8-1.8,3.1-1.8
				C432.1,477.3,433.3,478.4,433.7,480.4z M428.1,483.4c-0.5,0.5-0.7,1.2-0.7,2c0,0.8,0.2,1.5,0.7,2c0.5,0.5,1.1,0.8,1.9,0.8
				c0.8,0,1.4-0.3,1.9-0.8c0.5-0.5,0.7-1.2,0.7-2s-0.2-1.5-0.7-1.9c-0.5-0.5-1.1-0.8-1.9-0.8C429.2,482.6,428.6,482.9,428.1,483.4z"
				/>
		</g>
		<g class="st0">
			<path class="st1" d="M469.6,478.3c0.7,0.6,1,1.4,1,2.4s-0.4,1.9-1.1,2.7c-0.4,0.4-1.2,1-2.4,1.8c-1.5,1-2.3,1.9-2.5,2.6h6v1.2
				H463c0-1,0.4-2,1.1-2.8c0.4-0.5,1.3-1.2,2.5-2c0.9-0.6,1.5-1.1,1.8-1.4c0.6-0.6,0.9-1.3,0.9-2c0-0.7-0.2-1.2-0.6-1.6
				s-1-0.6-1.7-0.6c-0.8,0-1.4,0.3-1.8,0.8c-0.4,0.5-0.7,1.3-0.7,2.3h-1.3c0-1.3,0.4-2.3,1.1-3.1c0.7-0.8,1.6-1.2,2.8-1.2
				C468,477.3,468.9,477.7,469.6,478.3z"/>
			<path class="st1" d="M480,479.2c0.6,1,0.9,2.4,0.9,4.1c0,1.7-0.3,3.1-0.9,4.1c-0.7,1.2-1.7,1.8-3.1,1.8c-1.4,0-2.4-0.6-3.1-1.8
				c-0.6-1-0.9-2.4-0.9-4.1c0-1.7,0.3-3.1,0.9-4.1c0.7-1.2,1.7-1.8,3.1-1.8C478.2,477.3,479.3,477.9,480,479.2z M474.7,480.1
				c-0.3,0.8-0.5,1.8-0.5,3.2c0,1.3,0.2,2.4,0.5,3.2c0.4,1.1,1.2,1.6,2.2,1.6s1.8-0.6,2.2-1.6c0.3-0.8,0.5-1.8,0.5-3.2
				c0-1.3-0.2-2.4-0.5-3.2c-0.4-1.1-1.2-1.6-2.2-1.6S475.1,479,474.7,480.1z"/>
			<path class="st1" d="M486.9,477.6V489h-1.3v-9.8c-0.7,0.7-1.6,1.2-2.7,1.6v-1.3c0.5-0.1,1.1-0.4,1.6-0.7c0.5-0.4,1-0.7,1.4-1.2
				H486.9z"/>
			<path class="st1" d="M497.1,477.6v1.1l-4.2,10.4h-1.4l4.3-10.2h-6.2v-1.2H497.1z"/>
			<path class="st1" d="M507.1,477.6v1.1h-6.3v3.8h6v1.1h-6v5.3h-1.3v-11.4H507.1z"/>
		</g>
		<g class="st0">
			<path class="st1" d="M537.6,478.3c0.7,0.6,1,1.4,1,2.4s-0.4,1.9-1.1,2.7c-0.4,0.4-1.2,1-2.4,1.8c-1.5,1-2.3,1.9-2.5,2.6h6v1.2
				H531c0-1,0.4-2,1.1-2.8c0.4-0.5,1.3-1.2,2.5-2c0.9-0.6,1.5-1.1,1.8-1.4c0.6-0.6,0.9-1.3,0.9-2c0-0.7-0.2-1.2-0.6-1.6
				s-1-0.6-1.7-0.6c-0.8,0-1.4,0.3-1.8,0.8c-0.4,0.5-0.7,1.3-0.7,2.3h-1.3c0-1.3,0.4-2.3,1.1-3.1c0.7-0.8,1.6-1.2,2.8-1.2
				C536,477.3,536.9,477.7,537.6,478.3z"/>
			<path class="st1" d="M548,479.2c0.6,1,0.9,2.4,0.9,4.1c0,1.7-0.3,3.1-0.9,4.1c-0.7,1.2-1.7,1.8-3.1,1.8c-1.4,0-2.4-0.6-3.1-1.8
				c-0.6-1-0.9-2.4-0.9-4.1c0-1.7,0.3-3.1,0.9-4.1c0.7-1.2,1.7-1.8,3.1-1.8C546.2,477.3,547.3,477.9,548,479.2z M542.7,480.1
				c-0.3,0.8-0.5,1.8-0.5,3.2c0,1.3,0.2,2.4,0.5,3.2c0.4,1.1,1.2,1.6,2.2,1.6s1.8-0.6,2.2-1.6c0.3-0.8,0.5-1.8,0.5-3.2
				c0-1.3-0.2-2.4-0.5-3.2c-0.4-1.1-1.2-1.6-2.2-1.6S543.1,479,542.7,480.1z"/>
			<path class="st1" d="M554.9,477.6V489h-1.3v-9.8c-0.7,0.7-1.6,1.2-2.7,1.6v-1.3c0.5-0.1,1.1-0.4,1.6-0.7c0.5-0.4,1-0.7,1.4-1.2
				H554.9z"/>
			<path class="st1" d="M564.7,478.3c0.6,0.6,0.9,1.3,0.9,2.1c0,0.6-0.1,1.1-0.4,1.5c-0.3,0.4-0.8,0.8-1.4,1v0
				c0.6,0.1,1.1,0.5,1.5,1c0.4,0.5,0.7,1.2,0.7,1.9c0,1-0.4,1.8-1.1,2.4c-0.7,0.6-1.8,0.9-3.1,0.9c-1.3,0-2.4-0.3-3.1-0.9
				c-0.7-0.6-1.1-1.4-1.1-2.4c0-0.7,0.2-1.4,0.7-1.9c0.4-0.5,0.9-0.8,1.5-1v0c-0.6-0.2-1.1-0.5-1.4-1c-0.3-0.4-0.4-0.9-0.4-1.5
				c0-0.8,0.3-1.5,0.9-2.1c0.7-0.6,1.6-0.9,2.8-0.9C563,477.3,564,477.7,564.7,478.3z M559.7,484.2c-0.5,0.4-0.7,1-0.7,1.7
				c0,0.7,0.2,1.2,0.7,1.6c0.5,0.4,1.2,0.7,2.1,0.7c0.9,0,1.6-0.2,2.1-0.7c0.4-0.4,0.7-1,0.7-1.6c0-0.7-0.2-1.2-0.7-1.7
				c-0.5-0.5-1.2-0.7-2.1-0.7C560.9,483.5,560.2,483.7,559.7,484.2z M560,479c-0.4,0.4-0.6,0.8-0.6,1.4c0,0.6,0.2,1.1,0.5,1.4
				c0.4,0.4,1.1,0.6,2,0.6c0.9,0,1.5-0.2,2-0.6c0.4-0.4,0.5-0.8,0.5-1.4c0-0.6-0.2-1-0.6-1.4c-0.5-0.4-1.1-0.6-1.9-0.6
				C561,478.4,560.4,478.6,560,479z"/>
			<path class="st1" d="M575.9,477.6v1.1h-6.3v3.8h6v1.1h-6v5.3h-1.3v-11.4H575.9z"/>
		</g>
		<g class="st0">
			<path class="st1" d="M605.6,478.3c0.7,0.6,1,1.4,1,2.4s-0.4,1.9-1.1,2.7c-0.4,0.4-1.2,1-2.4,1.8c-1.5,1-2.3,1.9-2.5,2.6h6v1.2
				H599c0-1,0.4-2,1.1-2.8c0.4-0.5,1.3-1.2,2.5-2c0.9-0.6,1.5-1.1,1.8-1.4c0.6-0.6,0.9-1.3,0.9-2c0-0.7-0.2-1.2-0.6-1.6
				s-1-0.6-1.7-0.6c-0.8,0-1.4,0.3-1.8,0.8c-0.4,0.5-0.7,1.3-0.7,2.3h-1.3c0-1.3,0.4-2.3,1.1-3.1c0.7-0.8,1.6-1.2,2.8-1.2
				C604,477.3,604.9,477.7,605.6,478.3z"/>
			<path class="st1" d="M616,479.2c0.6,1,0.9,2.4,0.9,4.1c0,1.7-0.3,3.1-0.9,4.1c-0.7,1.2-1.7,1.8-3.1,1.8c-1.4,0-2.4-0.6-3.1-1.8
				c-0.6-1-0.9-2.4-0.9-4.1c0-1.7,0.3-3.1,0.9-4.1c0.7-1.2,1.7-1.8,3.1-1.8C614.2,477.3,615.3,477.9,616,479.2z M610.7,480.1
				c-0.3,0.8-0.5,1.8-0.5,3.2c0,1.3,0.2,2.4,0.5,3.2c0.4,1.1,1.2,1.6,2.2,1.6s1.8-0.6,2.2-1.6c0.3-0.8,0.5-1.8,0.5-3.2
				c0-1.3-0.2-2.4-0.5-3.2c-0.4-1.1-1.2-1.6-2.2-1.6S611.1,479,610.7,480.1z"/>
			<path class="st1" d="M622.9,477.6V489h-1.3v-9.8c-0.7,0.7-1.6,1.2-2.7,1.6v-1.3c0.5-0.1,1.1-0.4,1.6-0.7c0.5-0.4,1-0.7,1.4-1.2
				H622.9z"/>
			<path class="st1" d="M632.9,478.9c0.7,1,1,2.3,1,4.1c0,1.8-0.4,3.3-1.1,4.5c-0.8,1.2-1.8,1.8-3.1,1.8c-2.1,0-3.3-1-3.6-3.1h1.3
				c0.2,1.3,1,2,2.4,2c0.9,0,1.6-0.4,2.1-1.3c0.5-0.8,0.8-1.9,0.8-3.2c0-0.1,0-0.2,0-0.4h-0.1c-0.3,0.6-0.7,1-1.2,1.4
				c-0.5,0.3-1.1,0.5-1.8,0.5c-1.1,0-2-0.4-2.7-1.1c-0.7-0.7-1-1.6-1-2.7c0-1.1,0.4-2.1,1.1-2.8c0.7-0.8,1.6-1.1,2.8-1.1
				C631.1,477.3,632.1,477.9,632.9,478.9z M627.9,479.2c-0.5,0.5-0.7,1.2-0.7,2c0,0.8,0.2,1.5,0.7,1.9c0.5,0.5,1.1,0.8,1.9,0.8
				c0.7,0,1.4-0.3,1.9-0.8c0.5-0.5,0.7-1.2,0.7-2c0-0.8-0.2-1.5-0.7-2c-0.5-0.5-1.1-0.8-1.9-0.8C629,478.5,628.4,478.7,627.9,479.2z
				"/>
			<path class="st1" d="M643.9,477.6v1.1h-6.3v3.8h6v1.1h-6v5.3h-1.3v-11.4H643.9z"/>
		</g>
		<rect id="Rectangle-5" x="43" y="454" class="st2" width="612" height="2"/>
		<g class="st0">
			<path class="st3" d="M155.3,415.8l-0.9,0.9h2.4v1.4h-6.2c0.1,2.5,0.4,4.4,0.8,5.9c0.1,0.5,0.3,1,0.4,1.4c1-1.6,1.8-3.5,2.4-5.6
				l1.3,0.6c-0.8,2.6-1.8,4.9-3.1,6.7c0.3,0.6,0.6,1.2,0.9,1.7c0.7,1,1.2,1.4,1.6,1.4c0.4,0,0.7-1.1,1-3.1l1.3,0.7
				c-0.5,2.7-1.2,4-2.1,4c-0.8,0-1.7-0.6-2.7-1.8c-0.4-0.5-0.7-1-1-1.7c-1.4,1.6-3,2.9-4.9,3.7l-0.8-1.2c2-0.9,3.7-2.2,5.1-4
				c-0.3-0.7-0.5-1.5-0.8-2.4c-0.4-1.7-0.7-3.8-0.9-6.3h-6.9v3.3h4.9c0,3.4-0.2,5.6-0.5,6.5c-0.3,0.9-0.9,1.3-1.9,1.3
				c-0.5,0-1.1,0-1.7-0.1l-0.4-1.3c0.8,0,1.4,0.1,2,0.1c0.4,0,0.7-0.3,0.8-0.9c0.1-0.7,0.2-2.1,0.2-4.3h-3.5v0.6
				c-0.1,3.6-0.9,6.5-2.4,8.6l-1.1-1c1.3-1.8,1.9-4.4,2-7.6v-6.7h8.3c0-1-0.1-2-0.1-3.1h1.5c0,1.1,0,2.1,0.1,3.1h3.7
				c-0.6-0.7-1.4-1.5-2.4-2.2l0.9-0.9C153.8,414.3,154.7,415.1,155.3,415.8z"/>
			<path class="st3" d="M168,424.5c-0.8,0.1-1.8,0.3-2.9,0.4v1.3c0,1-0.6,1.4-1.7,1.4h-1.7l-0.3-1.2c0.7,0.1,1.2,0.1,1.6,0.1
				c0.5,0,0.8-0.2,0.8-0.7V425c-1.2,0.1-2.6,0.2-4,0.3l-0.2-1.1c1.5-0.1,2.9-0.1,4.2-0.2v-0.8l1.8-0.9h-5.1v-1.1h7v0.9l-2.3,1.2v0.6
				c1.1-0.1,2.1-0.3,2.9-0.4V424.5z M164.7,414.9h4v1.2h-9.2v-1.2h3.7c-0.2-0.4-0.4-0.7-0.5-1l1.5-0.3
				C164.3,414,164.5,414.4,164.7,414.9z M163.4,428.6c-0.8,1.3-1.7,2.4-2.7,3.3l-1.2-0.8c1-0.9,1.9-1.9,2.7-3L163.4,428.6z
				 M167.5,417v3.3h-6.8V417H167.5z M166.2,417.9h-4.1v1.4h4.1V417.9z M167.4,431.8l-1.4,0.3c-0.2-1.4-0.5-2.6-0.8-3.7l1.4-0.3
				C166.9,429.3,167.2,430.5,167.4,431.8z M175.1,426.4c-0.3-0.4-0.6-1-0.7-1.8c-0.2-0.9-0.2-2-0.2-3.3c0-1,0-2.1,0.1-3.4h-1.7
				c-0.1,1.6-0.3,3.1-0.7,4.4c0.7,0.8,1.3,1.6,2,2.6l-1,1c-0.5-0.8-1-1.5-1.5-2.1c-0.7,1.5-1.6,2.8-2.8,3.8l-1.1-0.9
				c1.3-1.1,2.2-2.4,2.8-4.1c-0.6-0.6-1.3-1.2-1.9-1.8l0.8-1c0.5,0.4,1,0.8,1.5,1.3c0.2-1,0.4-2.1,0.5-3.2h-2.2v-1.4h2.3v-2.9h1.4
				v2.9h3.1c-0.2,1.7-0.2,3.3-0.2,4.8c0,1.3,0,2.2,0.1,3c0.1,0.7,0.3,1.1,0.5,1.1c0.2,0,0.3-0.3,0.4-0.7c0.1-0.4,0.2-0.9,0.2-1.7
				l1.1,0.5c-0.2,1.4-0.4,2.4-0.7,2.9c-0.2,0.3-0.6,0.5-0.9,0.6C175.8,427,175.5,426.8,175.1,426.4z M172,431.8l-1.4,0.3
				c-0.3-1.5-0.7-2.7-1.1-3.8l1.4-0.3C171.2,429.2,171.6,430.4,172,431.8z M177.3,431.3l-1.2,0.8c-0.7-1.2-1.6-2.4-2.7-3.8l1.2-0.8
				C175.8,428.9,176.7,430.2,177.3,431.3z"/>
			<path class="st3" d="M197.5,432h-1.4v-0.9h-13.7v0.9h-1.4v-17.5h16.6V432z M196.1,429.8v-14h-13.7v14H196.1z M189.7,418
				c0-0.6,0-1.1,0-1.7h1.3c0,0.6,0,1.2,0,1.7h1.8c-0.2-0.5-0.5-1-0.7-1.4l1.1-0.2c0.2,0.5,0.4,1,0.7,1.6h1.2v1.3h-4.1
				c0,1.6,0.2,2.9,0.3,4c0.1,0.4,0.1,0.9,0.2,1.2c0.6-1.2,1.1-2.6,1.6-4.2l1.1,0.6c-0.6,2.1-1.4,3.9-2.2,5.3l0.2,0.5
				c0.3,0.7,0.7,1.1,1,1.1c0.3,0,0.7-0.9,1.1-2.6l1,0.6c-0.6,2.2-1.2,3.3-2,3.3c-0.6,0-1.2-0.4-1.7-1.3c-0.1-0.2-0.2-0.4-0.3-0.6
				c-0.7,0.8-1.4,1.5-2.2,2l-0.7-1.1c0.9-0.6,1.7-1.3,2.3-2.3c-0.2-0.6-0.4-1.2-0.5-2c-0.2-1.2-0.4-2.8-0.5-4.7h-6.4V418H189.7z
				 M188.9,427.1c-1.6,0.4-3.3,0.7-5.3,0.9l-0.2-1.3c2.1-0.2,3.9-0.5,5.5-0.8V427.1z M188.7,420.7v4.2H184v-4.2H188.7z M187.5,421.8
				h-2.4v2.1h2.4V421.8z"/>
			<path class="st3" d="M215.8,418.7v1.3h-4.5c-0.6,0.4-1.1,0.7-1.7,1.1c0.8,0.9,1.4,1.8,1.9,2.8c1.7-0.6,3.3-1.7,4.8-3.1l1,1
				c-1.4,1.3-3.1,2.3-4.9,3c1.6,1.8,3.8,3.4,6.4,4.6l-0.7,1.3c-2.5-1.3-4.5-2.8-6-4.6c0.1,0.5,0.1,1,0.1,1.6c0,1.6-0.2,2.6-0.7,3.2
				c-0.5,0.7-1.6,1-3.3,1h-0.7l-0.5-1.3h0.9c1.2,0,1.9-0.2,2.2-0.5c0.4-0.4,0.5-1.2,0.5-2.5c0-0.4,0-0.7-0.1-1
				c-2.2,1.8-5.2,3.2-8.8,4.3l-0.7-1.2c4-1.2,7.1-2.6,9.2-4.4c-0.2-0.5-0.3-1-0.6-1.5c-1.9,1.5-4.5,2.7-7.7,3.6l-0.7-1.2
				c3.3-0.9,5.9-2,7.8-3.4c-0.2-0.4-0.5-0.7-0.8-1c-0.2,0.1-0.3,0.1-0.5,0.2c-1.4,0.6-3.2,1.3-5.4,1.9l-0.7-1.2
				c1.9-0.4,3.7-1,5.2-1.6c0.7-0.3,1.4-0.6,2.1-1h-5.3v-1.3H215.8z M210.7,415.4h7.5v3.5h-1.4v-2.1h-14v2.1h-1.4v-3.5h7.9
				c-0.2-0.6-0.5-1.2-0.7-1.6l1.5-0.2C210.3,414.1,210.5,414.7,210.7,415.4z"/>
			<path class="st3" d="M228.5,425.6l-1.2,0.3c-0.1-0.4-0.2-0.8-0.3-1.1c-1.9,0.6-3.6,0.9-5.3,1.2l-0.4-1.3c0.2-0.1,0.4-0.2,0.6-0.4
				c0.7-0.8,1.6-2,2.6-3.7l-3.1,0.5l-0.4-1.3c0.2-0.1,0.4-0.3,0.6-0.5c1-1.6,1.8-3.5,2.5-5.7l1.3,0.5c-0.9,2.3-1.8,4.2-2.8,5.6
				c0.8-0.1,1.7-0.2,2.6-0.4c0.5-0.9,1-1.9,1.5-2.9l1.3,0.5c-2,3.6-3.6,6.1-4.8,7.6c1.1-0.2,2.2-0.5,3.4-0.8
				c-0.2-0.6-0.4-1.2-0.6-1.7l1.1-0.4C227.7,422.8,228.2,424.1,228.5,425.6z M223.3,427.1c-0.1,1.7-0.4,3.3-0.7,4.6l-1.3-0.4
				c0.4-1.3,0.7-2.7,0.8-4.4L223.3,427.1z M226.2,430.7l-1.3,0.3c-0.2-1.5-0.4-2.8-0.6-4l1.2-0.3C225.7,428,226,429.3,226.2,430.7z
				 M228.6,429.6l-1.2,0.3c-0.2-1.2-0.5-2.2-0.8-3.3l1.1-0.4C228.1,427.3,228.4,428.4,228.6,429.6z M231.8,416.9
				c-0.6,1.3-1.2,2.4-1.9,3.2c0.6,0.8,1.3,1.8,2,3.2l-1.2,0.7c-0.7-1.4-1.4-2.7-2.3-3.8c0.8-1.2,1.5-2.5,2-3.8L231.8,416.9z
				 M229.4,426v-1.3h9.5v1.3h-4.1v4.2h4.7v1.3h-11v-1.3h4.8V426H229.4z M239.3,414.4v1.3H229v-1.3H239.3z M235.5,416.9
				c-0.6,1.3-1.2,2.3-1.8,3.2c0.6,0.8,1.3,1.8,2,3.1l-1.2,0.7c-0.7-1.4-1.4-2.7-2.3-3.8c0.8-1.2,1.5-2.5,2-3.7L235.5,416.9z
				 M239.2,417c-0.6,1.3-1.2,2.3-1.9,3.2c0.7,0.8,1.3,1.8,2.1,3.1l-1.2,0.7c-0.7-1.4-1.4-2.7-2.3-3.8c0.8-1.2,1.5-2.4,2.1-3.7
				L239.2,417z"/>
			<path class="st3" d="M246.2,421.5l-1,1c-0.8-0.9-1.8-1.9-3.1-2.9l1-0.9C244.3,419.6,245.4,420.6,246.2,421.5z M246.9,424.7
				c-0.9,2.5-2,4.9-3.1,7.1l-1.3-0.6c1.2-2.3,2.3-4.6,3.2-7L246.9,424.7z M246.7,416.7l-1,1c-0.8-0.9-1.8-1.8-3.1-2.8l1-0.9
				C244.8,414.9,245.8,415.8,246.7,416.7z M246.9,418.8v-1.1h4.5c0,2.7-0.1,4.3-0.3,4.9c-0.2,0.6-0.6,0.8-1.2,0.9h-0.9l-0.3-0.9h0.9
				c0.3,0,0.5-0.3,0.6-0.7c0.1-0.4,0.1-1.5,0.1-3.1h-1c-0.2,1.1-0.4,2.1-0.7,2.7c-0.4,0.8-0.9,1.4-1.6,2.1l-0.7-0.9
				c0.6-0.5,1.1-1.1,1.4-1.7c0.3-0.6,0.5-1.3,0.6-2.2H246.9z M256.9,423.7h1.3v8.3h-1.3v-3.4h-7.2c-0.4,1.4-1.1,2.6-2.2,3.4
				l-1.1-0.9c1.5-1.1,2.3-2.7,2.4-5.1v-2.2h1.3v1h6.8V423.7z M254.3,415.1h5.6v1.2h-12.7v-1.2h5.8c-0.2-0.5-0.4-0.9-0.6-1.2l1.4-0.2
				C253.9,414.1,254.1,414.5,254.3,415.1z M250.1,426c0,0.5-0.1,1-0.1,1.5h7v-1.6L250.1,426L250.1,426z M253.5,418.5
				c0.6-0.7,1.2-1.4,1.6-2.2l0.9,0.6c-0.6,1-1.3,1.8-2,2.5v4h-1.2v-4.1c-0.5-0.8-1.1-1.5-1.9-2.3l0.8-0.7
				C252.4,417.1,253,417.8,253.5,418.5z M255.4,423.3l-0.4-1.1c0.4-0.2,0.6-0.4,0.6-0.7V418c1.4-0.2,2.6-0.6,3.5-1.2l0.6,1
				c-0.4,0.2-0.7,0.4-1.1,0.6c0.3,1.5,0.8,2.8,1.6,4l-0.8,1c-0.2-0.4-0.4-0.8-0.6-1.1C257.9,422.6,256.8,422.9,255.4,423.3z
				 M256.7,418.8v3.1c0.7-0.2,1.3-0.4,1.7-0.6c-0.3-0.9-0.6-1.8-0.7-2.7C257.3,418.7,257,418.8,256.7,418.8z"/>
			<path class="st3" d="M278.9,415.8l-0.9,0.9h2.4v1.4h-6.2c0.1,2.5,0.4,4.4,0.8,5.9c0.1,0.5,0.3,1,0.4,1.4c1-1.6,1.8-3.5,2.4-5.6
				l1.3,0.6c-0.8,2.6-1.8,4.9-3.1,6.7c0.3,0.6,0.6,1.2,0.9,1.7c0.7,1,1.2,1.4,1.6,1.4c0.4,0,0.7-1.1,1-3.1l1.3,0.7
				c-0.5,2.7-1.2,4-2.1,4c-0.8,0-1.7-0.6-2.7-1.8c-0.4-0.5-0.7-1-1-1.7c-1.4,1.6-3,2.9-4.9,3.7l-0.8-1.2c2-0.9,3.7-2.2,5.1-4
				c-0.3-0.7-0.5-1.5-0.8-2.4c-0.4-1.7-0.7-3.8-0.9-6.3H266v3.3h4.9c0,3.4-0.2,5.6-0.5,6.5c-0.3,0.9-0.9,1.3-1.9,1.3
				c-0.5,0-1.1,0-1.7-0.1l-0.4-1.3c0.8,0,1.4,0.1,2,0.1c0.4,0,0.7-0.3,0.8-0.9c0.1-0.7,0.2-2.1,0.2-4.3H266v0.6
				c-0.1,3.6-0.9,6.5-2.4,8.6l-1.1-1c1.3-1.8,1.9-4.4,2-7.6v-6.7h8.3c0-1-0.1-2-0.1-3.1h1.5c0,1.1,0,2.1,0.1,3.1h3.7
				c-0.6-0.7-1.4-1.5-2.4-2.2l0.9-0.9C277.4,414.3,278.3,415.1,278.9,415.8z"/>
			<path class="st3" d="M288.2,420.2h9.8v1.2h-9.8v1.7h12.6v1.3h-13v5.9c1.7-0.3,3.4-0.8,5.1-1.4l0.3,1.3c-1.9,0.7-4.2,1.2-6.7,1.7
				l-0.6-1.2c0.3-0.1,0.5-0.3,0.5-0.6v-5.7h-2.8v-1.3h3.2v-8.8h12.2v1.3h-10.8v1.7h9.8v1.2h-9.8V420.2z M295.2,427.6
				c1.2-0.6,2.4-1.4,3.5-2.6l0.9,0.9c-1,1.1-2.1,1.9-3.4,2.5c1.4,1,3.1,1.8,5.2,2.4l-0.8,1.2c-4-1.1-6.9-3.3-8.6-6.4l1.1-0.7
				C293.6,425.9,294.3,426.8,295.2,427.6z"/>
			<path class="st3" d="M312.1,415.3c-0.3-0.6-0.6-1.2-0.9-1.7l1.5-0.2c0.3,0.6,0.6,1.2,0.9,1.9h7.9v1.4H313c-0.6,1.1-1.2,2.1-2,2.8
				l2.6-0.2c0.5-0.6,0.9-1.2,1.4-1.8l1.3,0.5c-1.9,2.4-3.6,4.3-5.1,5.5c1.3-0.2,2.5-0.3,3.7-0.5c-0.2-0.5-0.5-1-0.7-1.4l1.2-0.4
				c0.7,1.2,1.2,2.4,1.7,3.7l-1.3,0.6c-0.2-0.5-0.3-0.9-0.5-1.4c-0.6,0.1-1.3,0.2-2,0.3v2.3h8.2v1.4h-8.2v4.1h-1.5V428h-8.2v-1.4
				h8.2v-2.2c-0.9,0.1-1.8,0.2-2.8,0.3l-0.3-1.3l0.5-0.1c0.9-0.5,1.9-1.5,3.2-2.9c-1.1,0.1-2.2,0.2-3.4,0.3l-0.3-1.2
				c1-0.6,1.9-1.6,2.5-2.9h-7.4v-1.4H312.1z M308.6,422.2c-1,1.3-2.1,2.3-3.3,3.2l-1-1.1c1.2-0.8,2.2-1.8,3.2-2.9L308.6,422.2z
				 M308.4,419.8l-1,1c-0.7-0.8-1.6-1.6-2.8-2.5l1-1C306.7,418.2,307.6,419,308.4,419.8z M320.8,418.1c-0.9,1.1-1.8,1.9-2.8,2.7
				l-0.9-1c1-0.7,1.8-1.5,2.6-2.4L320.8,418.1z M321.2,424.3l-1,1c-0.7-1-1.7-2-3-3.1l0.9-0.9C319.3,422.3,320.4,423.3,321.2,424.3z
				"/>
		</g>
		<g class="st0">
			<path class="st4" d="M142,123.2c-0.5,2-1.2,3.8-2.1,5.3l-1.2-0.8c0.9-1.4,1.6-3,2-4.8L142,123.2z M139,118.2v-1.3h2.3
				c-0.3-0.8-0.6-1.6-1-2.3l1.3-0.5c0.4,0.8,0.7,1.7,1,2.7h2.2c0.3-0.9,0.6-1.8,0.9-2.7l1.3,0.4c-0.3,0.8-0.6,1.6-0.9,2.3h2.3v1.3
				h-3.9v2.2h3.6v1.3h-3.6v7.3H143v-7.3h-3.7v-1.3h3.7v-2.2H139z M143.1,112.4c-0.3-0.6-0.6-1.2-0.9-1.7l1.5-0.2
				c0.3,0.6,0.5,1.2,0.8,1.9h3.8v1.3h-9v-1.3H143.1z M147.7,126.3l-1.2,0.5c-0.3-1.2-0.8-2.4-1.2-3.6l1.2-0.3
				C147,124.1,147.4,125.2,147.7,126.3z M156.7,112.2c-1.8,0.6-3.7,1-5.9,1.2v3.7h6.4v1.4h-2.1V129h-1.4v-10.6h-2.9v2.2
				c-0.1,3.5-0.8,6.3-2.3,8.3l-1-1.1c1.2-1.8,1.8-4.2,1.9-7.3v-8.4c2.4,0,4.6-0.5,6.5-1.3L156.7,112.2z"/>
			<path class="st4" d="M172.3,123.1h2.3l0.1-2.7H173v-1.2h1.8l0.1-2.5h-1.9v-1.2h2l0.1-2.7h-2.1v-1.4h3.5l-0.4,11.7h1.5v1.4h-17.9
				v-1.4h1.6l-0.5-11.2c1.2-0.2,2.3-0.6,3.2-1.1l0.5,1.2c-0.5,0.3-1.3,0.6-2.4,0.9l0.1,2.6h2v1.2h-1.9l0.1,2.4h1.8v1.2h-1.8l0.1,2.7
				h2.3v-11.6h7.4V123.1z M166.6,125.7c-1.6,1.2-3.5,2.3-5.8,3.2l-0.9-1.2c2.2-0.8,4.1-1.8,5.7-2.9L166.6,125.7z M171.1,123.1v-10.4
				h-5v10.4H171.1z M170.2,114v1H167v-1H170.2z M170.2,116.4v5.4H167v-5.4H170.2z M169.3,117.4H168v3.4h1.3V117.4z M177.4,127.8
				l-0.8,1.2c-2-1.4-4-2.4-6-3.2l0.7-1.1C173.5,125.5,175.6,126.6,177.4,127.8z"/>
			<path class="st4" d="M188.4,113c-0.3-0.8-0.7-1.6-1-2.3l1.5-0.2c0.3,0.7,0.6,1.6,1,2.5h8.2v1.4h-8.1v2.6h6.5v7.3
				c0,1.2-0.6,1.8-1.8,1.8h-2l-0.4-1.4l1.9,0.1c0.6,0,0.8-0.3,0.8-0.8v-5.6h-5.1V129h-1.5v-10.6h-4.8v7.8h-1.4V117h6.2v-2.6h-8.1
				V113H188.4z"/>
			<path class="st4" d="M203.1,116v-5.3h1.4v5.3h2.2v1.4h-2.2v6.7c0.7-0.3,1.4-0.6,2.1-0.9v1.4c-1.7,0.8-3.6,1.4-5.6,1.9l-0.4-1.4
				c0.8-0.2,1.7-0.4,2.5-0.6v-7.1h-2.3V116H203.1z M218.9,118.5v1.3h-7.6c-0.2,0.4-0.5,0.8-0.8,1.2h7.7c0,1.9-0.1,3.5-0.3,4.7
				c-0.2,1.2-0.4,2-0.8,2.5c-0.4,0.4-0.9,0.7-1.7,0.7h-1.5l-0.4-1.3c0.4,0,0.8,0.1,1.2,0.1c0.8,0,1.4-0.3,1.6-1
				c0.2-0.7,0.4-2.2,0.5-4.4h-1.1c-1.4,3.4-3.6,5.6-6.7,6.7l-0.8-1.2c2.9-1,4.9-2.8,6.2-5.5h-1.7c-1,1.8-2.7,3.2-5.1,4.2l-0.8-1
				c2.1-0.8,3.6-1.9,4.6-3.2h-2c-0.6,0.5-1.2,1-1.9,1.4l-0.8-1.1c1.5-0.8,2.5-1.7,3.2-2.8H207v-1.3H218.9z M217.4,111.4v6h-9.2v-6
				H217.4z M216.1,113.9v-1.3h-6.5v1.3H216.1z M216.1,114.9h-6.5v1.3h6.5V114.9z"/>
			<path class="st4" d="M228.5,122.6l-1.2,0.3c-0.1-0.4-0.2-0.8-0.3-1.1c-1.9,0.6-3.6,0.9-5.3,1.2l-0.4-1.3c0.2-0.1,0.4-0.2,0.6-0.4
				c0.7-0.8,1.6-2,2.6-3.7l-3.1,0.5l-0.4-1.3c0.2-0.1,0.4-0.3,0.6-0.5c1-1.6,1.8-3.5,2.5-5.7l1.3,0.5c-0.9,2.3-1.8,4.2-2.8,5.6
				c0.8-0.1,1.7-0.2,2.6-0.4c0.5-0.9,1-1.9,1.5-2.9l1.3,0.5c-2,3.6-3.6,6.1-4.8,7.6c1.1-0.2,2.2-0.5,3.4-0.8
				c-0.2-0.6-0.4-1.2-0.6-1.7l1.1-0.4C227.7,119.8,228.2,121.1,228.5,122.6z M223.3,124.1c-0.1,1.7-0.4,3.3-0.7,4.6l-1.3-0.4
				c0.4-1.3,0.7-2.7,0.8-4.4L223.3,124.1z M226.2,127.7l-1.3,0.3c-0.2-1.5-0.4-2.8-0.6-4l1.2-0.3C225.7,125,226,126.3,226.2,127.7z
				 M228.6,126.6l-1.2,0.3c-0.2-1.2-0.5-2.2-0.8-3.3l1.1-0.4C228.1,124.3,228.4,125.4,228.6,126.6z M231.8,113.9
				c-0.6,1.3-1.2,2.4-1.9,3.2c0.6,0.8,1.3,1.8,2,3.2l-1.2,0.7c-0.7-1.4-1.4-2.7-2.3-3.8c0.8-1.2,1.5-2.5,2-3.8L231.8,113.9z
				 M229.4,123v-1.3h9.5v1.3h-4.1v4.2h4.7v1.3h-11v-1.3h4.8V123H229.4z M239.3,111.4v1.3H229v-1.3H239.3z M235.5,113.9
				c-0.6,1.3-1.2,2.3-1.8,3.2c0.6,0.8,1.3,1.8,2,3.1l-1.2,0.7c-0.7-1.4-1.4-2.7-2.3-3.8c0.8-1.2,1.5-2.5,2-3.7L235.5,113.9z
				 M239.2,114c-0.6,1.3-1.2,2.3-1.9,3.2c0.7,0.8,1.3,1.8,2.1,3.1l-1.2,0.7c-0.7-1.4-1.4-2.7-2.3-3.8c0.8-1.2,1.5-2.4,2.1-3.7
				L239.2,114z"/>
			<path class="st4" d="M246.2,118.5l-1,1c-0.8-0.9-1.8-1.9-3.1-2.9l1-0.9C244.3,116.6,245.4,117.6,246.2,118.5z M246.9,121.7
				c-0.9,2.5-2,4.9-3.1,7.1l-1.3-0.6c1.2-2.3,2.3-4.6,3.2-7L246.9,121.7z M246.7,113.7l-1,1c-0.8-0.9-1.8-1.8-3.1-2.8l1-0.9
				C244.8,111.9,245.8,112.8,246.7,113.7z M246.9,115.8v-1.1h4.5c0,2.7-0.1,4.3-0.3,4.9c-0.2,0.6-0.6,0.8-1.2,0.9h-0.9l-0.3-0.9h0.9
				c0.3,0,0.5-0.3,0.6-0.7c0.1-0.4,0.1-1.5,0.1-3.1h-1c-0.2,1.1-0.4,2.1-0.7,2.7c-0.4,0.8-0.9,1.4-1.6,2.1l-0.7-0.9
				c0.6-0.5,1.1-1.1,1.4-1.7c0.3-0.6,0.5-1.3,0.6-2.2H246.9z M256.9,120.7h1.3v8.3h-1.3v-3.4h-7.2c-0.4,1.4-1.1,2.6-2.2,3.4
				l-1.1-0.9c1.5-1.1,2.3-2.7,2.4-5.1v-2.2h1.3v1h6.8V120.7z M254.3,112.1h5.6v1.2h-12.7v-1.2h5.8c-0.2-0.5-0.4-0.9-0.6-1.2l1.4-0.2
				C253.9,111.1,254.1,111.5,254.3,112.1z M250.1,123c0,0.5-0.1,1-0.1,1.5h7v-1.6L250.1,123L250.1,123z M253.5,115.5
				c0.6-0.7,1.2-1.4,1.6-2.2l0.9,0.6c-0.6,1-1.3,1.8-2,2.5v4h-1.2v-4.1c-0.5-0.8-1.1-1.5-1.9-2.3l0.8-0.7
				C252.4,114.1,253,114.8,253.5,115.5z M255.4,120.3l-0.4-1.1c0.4-0.2,0.6-0.4,0.6-0.7V115c1.4-0.2,2.6-0.6,3.5-1.2l0.6,1
				c-0.4,0.2-0.7,0.4-1.1,0.6c0.3,1.5,0.8,2.8,1.6,4l-0.8,1c-0.2-0.4-0.4-0.8-0.6-1.1C257.9,119.6,256.8,119.9,255.4,120.3z
				 M256.7,115.8v3.1c0.7-0.2,1.3-0.4,1.7-0.6c-0.3-0.9-0.6-1.8-0.7-2.7C257.3,115.7,257,115.8,256.7,115.8z"/>
			<path class="st4" d="M278.9,112.8l-0.9,0.9h2.4v1.4h-6.2c0.1,2.5,0.4,4.4,0.8,5.9c0.1,0.5,0.3,1,0.4,1.4c1-1.6,1.8-3.5,2.4-5.6
				l1.3,0.6c-0.8,2.6-1.8,4.9-3.1,6.7c0.3,0.6,0.6,1.2,0.9,1.7c0.7,1,1.2,1.4,1.6,1.4c0.4,0,0.7-1.1,1-3.1l1.3,0.7
				c-0.5,2.7-1.2,4-2.1,4c-0.8,0-1.7-0.6-2.7-1.8c-0.4-0.5-0.7-1-1-1.7c-1.4,1.6-3,2.9-4.9,3.7l-0.8-1.2c2-0.9,3.7-2.2,5.1-4
				c-0.3-0.7-0.5-1.5-0.8-2.4c-0.4-1.7-0.7-3.8-0.9-6.3H266v3.3h4.9c0,3.4-0.2,5.6-0.5,6.5c-0.3,0.9-0.9,1.3-1.9,1.3
				c-0.5,0-1.1,0-1.7-0.1l-0.4-1.3c0.8,0,1.4,0.1,2,0.1c0.4,0,0.7-0.3,0.8-0.9c0.1-0.7,0.2-2.1,0.2-4.3H266v0.6
				c-0.1,3.6-0.9,6.5-2.4,8.6l-1.1-1c1.3-1.8,1.9-4.4,2-7.6v-6.7h8.3c0-1-0.1-2-0.1-3.1h1.5c0,1.1,0,2.1,0.1,3.1h3.7
				c-0.6-0.7-1.4-1.5-2.4-2.2l0.9-0.9C277.4,111.3,278.3,112.1,278.9,112.8z"/>
			<path class="st4" d="M288.2,117.2h9.8v1.2h-9.8v1.7h12.6v1.3h-13v5.9c1.7-0.3,3.4-0.8,5.1-1.4l0.3,1.3c-1.9,0.7-4.2,1.2-6.7,1.7
				l-0.6-1.2c0.3-0.1,0.5-0.3,0.5-0.6v-5.7h-2.8v-1.3h3.2v-8.8h12.2v1.3h-10.8v1.7h9.8v1.2h-9.8V117.2z M295.2,124.6
				c1.2-0.6,2.4-1.4,3.5-2.6l0.9,0.9c-1,1.1-2.1,1.9-3.4,2.5c1.4,1,3.1,1.8,5.2,2.4l-0.8,1.2c-4-1.1-6.9-3.3-8.6-6.4l1.1-0.7
				C293.6,122.9,294.3,123.8,295.2,124.6z"/>
			<path class="st4" d="M312.1,112.3c-0.3-0.6-0.6-1.2-0.9-1.7l1.5-0.2c0.3,0.6,0.6,1.2,0.9,1.9h7.9v1.4H313c-0.6,1.1-1.2,2.1-2,2.8
				l2.6-0.2c0.5-0.6,0.9-1.2,1.4-1.8l1.3,0.5c-1.9,2.4-3.6,4.3-5.1,5.5c1.3-0.2,2.5-0.3,3.7-0.5c-0.2-0.5-0.5-1-0.7-1.4l1.2-0.4
				c0.7,1.2,1.2,2.4,1.7,3.7l-1.3,0.6c-0.2-0.5-0.3-0.9-0.5-1.4c-0.6,0.1-1.3,0.2-2,0.3v2.3h8.2v1.4h-8.2v4.1h-1.5V125h-8.2v-1.4
				h8.2v-2.2c-0.9,0.1-1.8,0.2-2.8,0.3l-0.3-1.3l0.5-0.1c0.9-0.5,1.9-1.5,3.2-2.9c-1.1,0.1-2.2,0.2-3.4,0.3l-0.3-1.2
				c1-0.6,1.9-1.6,2.5-2.9h-7.4v-1.4H312.1z M308.6,119.2c-1,1.3-2.1,2.3-3.3,3.2l-1-1.1c1.2-0.8,2.2-1.8,3.2-2.9L308.6,119.2z
				 M308.4,116.8l-1,1c-0.7-0.8-1.6-1.6-2.8-2.5l1-1C306.7,115.2,307.6,116,308.4,116.8z M320.8,115.1c-0.9,1.1-1.8,1.9-2.8,2.7
				l-0.9-1c1-0.7,1.8-1.5,2.6-2.4L320.8,115.1z M321.2,121.3l-1,1c-0.7-1-1.7-2-3-3.1l0.9-0.9C319.3,119.3,320.4,120.3,321.2,121.3z
				"/>
		</g>
		<path id="Path-2" class="st5" d="M417,221l68-16l68-16l68-5"/>
		<path id="Path-2_1_" class="st6" d="M77,110l68,53l68,16l68,22l68,20h68"/>
		<path id="Path-2-Copy-2" class="st7" d="M417,362l68-26l68,10l68,17"/>
		<path id="Path-2-Copy-2_1_" class="st8" d="M77,364l68,26l68-7l68-42l68-5l68,26"/>
		<path id="新興國家與成熟國家實質GDP年增率_x28__x25__x29_" class="st1" d="M6,11.7H0.4V9.9h3.2
			C3.3,8.8,2.8,7.7,2.3,6.8l1.8-0.6c0.5,1.1,1,2.3,1.4,3.8h3C9,8.7,9.4,7.5,9.8,6.1l1.8,0.6c-0.4,1.2-0.8,2.2-1.3,3.2h3.2v1.8H8v3.1
			h5v1.8H8v10.2H6V16.7H0.9v-1.8H6V11.7z M24.1,1.4l1,1.8c-2.5,0.9-5.2,1.5-8.2,1.6V10h9v1.9H23v14.9h-2V11.9h-4.1V15
			c-0.1,4.9-1.2,8.8-3.2,11.7l-1.5-1.5C14,22.8,14.8,19.4,15,15V3.2C18.4,3.2,21.4,2.6,24.1,1.4z M0.7,3.6h5.4
			C5.7,2.7,5.3,1.9,4.9,1.2L7,0.9C7.3,1.7,7.7,2.6,8,3.6h5.3v1.8H0.7V3.6z M2.8,18.2l1.8,0.4C4,21.5,3,23.9,1.7,26L0.1,25
			C1.4,22.9,2.3,20.7,2.8,18.2z M10.9,18.1c0.7,1.8,1.3,3.4,1.7,4.9l-1.7,0.6c-0.5-1.7-1.1-3.4-1.7-5.1L10.9,18.1z M47,2.2v16.3h3.2
			l0.2-3.8h-2.5V13h2.5l0.1-3.4h-2.7V7.8h2.8l0.2-3.8h-3V2.2h4.9l-0.6,16.4h2.1v1.9h-25v-1.9h2.3L30.9,2.8c1.7-0.3,3.2-0.9,4.5-1.6
			l0.7,1.7c-0.7,0.4-1.8,0.8-3.3,1.3L33,7.8h2.7v1.7h-2.7l0.2,3.4h2.5v1.7h-2.5l0.2,3.8h3.2V2.2H47z M38.4,18.5h6.9V3.9h-6.9V18.5z
			 M39.6,5.8h4.5v1.4h-4.5V5.8z M39.7,9.2h4.4v7.6h-4.4V9.2z M42.8,15.3v-4.7H41v4.7H42.8z M45.6,20.8c3.1,1.2,6,2.6,8.6,4.3
			L53,26.8c-2.7-1.9-5.5-3.4-8.4-4.5L45.6,20.8z M37.7,21l1.4,1.2c-2.2,1.7-4.9,3.2-8.1,4.5l-1.3-1.6C32.9,23.9,35.6,22.6,37.7,21z
			 M82.3,2.3v24.5h-2v-1.2H61.1v1.2h-2V2.3H82.3z M61.1,23.7h19.2V4.1H61.1V23.7z M62.5,7.2h8.9c0-0.8,0-1.6,0-2.4h1.8
			c0,0.8,0,1.6,0,2.4h2.6c-0.3-0.7-0.6-1.4-1-2l1.6-0.3c0.3,0.7,0.6,1.4,0.9,2.3h1.7V9h-5.7c0.1,2.3,0.2,4.1,0.5,5.5
			c0.1,0.6,0.2,1.2,0.3,1.7c0.9-1.7,1.6-3.6,2.2-5.9l1.5,0.8c-0.9,3-1.9,5.5-3.1,7.4l0.3,0.8c0.5,1,0.9,1.5,1.3,1.5
			c0.5,0,1-1.2,1.5-3.7l1.5,0.8c-0.8,3.1-1.7,4.7-2.8,4.7c-0.8,0-1.6-0.6-2.4-1.8c-0.2-0.3-0.3-0.6-0.4-0.9c-1,1.2-2,2.1-3,2.9
			l-1-1.5c1.2-0.8,2.3-1.9,3.3-3.2c-0.3-0.8-0.5-1.7-0.7-2.7c-0.3-1.7-0.6-3.9-0.7-6.5h-9V7.2z M63.3,11H70v5.9h-6.7V11z M68.4,15.4
			v-2.9H65v2.9H68.4z M70.2,18.4V20c-2.2,0.5-4.6,1-7.4,1.3l-0.3-1.8C65.4,19.2,68,18.8,70.2,18.4z M99.9,1c0.3,0.8,0.6,1.7,1,2.6
			h10.5v4.9h-2v-3H89.7v3h-2V3.6h11.1c-0.3-0.8-0.6-1.6-1-2.3L99.9,1z M91.1,8.2h16.8v1.9h-6.4c-0.8,0.6-1.6,1-2.3,1.5
			c1.1,1.2,2,2.5,2.6,3.9c2.4-0.9,4.6-2.4,6.8-4.3l1.4,1.4c-2,1.8-4.3,3.3-6.8,4.3c2.3,2.6,5.3,4.7,9,6.5l-1,1.8
			c-3.5-1.8-6.3-3.9-8.4-6.5c0.1,0.7,0.2,1.5,0.2,2.2c0,2.2-0.3,3.7-0.9,4.5c-0.7,1-2.2,1.4-4.6,1.4h-0.9L95.8,25h1.3
			c1.7,0,2.7-0.3,3.1-0.7c0.5-0.6,0.8-1.7,0.8-3.5c0-0.5-0.1-1-0.1-1.5c-3.1,2.5-7.2,4.5-12.3,6l-1-1.7c5.6-1.6,9.9-3.7,12.9-6.2
			c-0.2-0.8-0.5-1.5-0.8-2.1c-2.7,2.1-6.3,3.8-10.8,5l-1-1.7c4.7-1.2,8.3-2.8,10.9-4.8c-0.3-0.5-0.7-1-1.1-1.5
			c-0.2,0.1-0.4,0.2-0.6,0.3c-1.9,0.9-4.5,1.8-7.6,2.7l-1-1.7c2.7-0.6,5.1-1.3,7.3-2.3c1-0.4,2-0.9,2.9-1.4h-7.4V8.2z M123.7,1.6
			l0.8,1.8c-1,0.4-2.6,0.9-4.9,1.4l0.2,3.1h4.2v1.8h-4.1l0.2,3.4h3.7V15H120l0.2,3.6h16.4l0.2-3.5h-3.1v-1.8h3.2l0.2-3.4h-3.2V8h3.3
			l0.2-3.4h-3.6V2.6h5.6l-0.7,15.9h2.2v1.9h-24.8v-1.9h2.4l-0.6-15.3C119.8,2.9,121.9,2.3,123.7,1.6z M132.2,20.7
			c3.2,1.2,6.1,2.6,8.7,4.3l-1.1,1.7c-2.8-1.9-5.7-3.4-8.6-4.5L132.2,20.7z M124.2,20.8l1.5,1.3c-2.2,1.7-5,3.2-8.3,4.5l-1.3-1.6
			C119.3,23.8,122,22.4,124.2,20.8z M128,5.4c-0.2,0.9-0.3,1.8-0.5,2.6h4.7c-0.1,5.2-0.3,8.1-0.8,8.8c-0.4,0.6-1.2,0.9-2.5,0.9H128
			l-0.5-1.8c0.5,0,1,0,1.5,0c0.6,0,0.9-0.2,1.1-0.6c0.2-0.4,0.3-2.3,0.4-5.6h-5c0.6-3.2,1.1-6,1.4-8.5l1.8,0.2
			c-0.1,0.8-0.2,1.5-0.3,2.2h4.2v1.8H128z M125.3,10.9L127,11c-0.1,2.3-0.5,4.5-1.3,6.7l-1.6-0.5C124.8,15.2,125.2,13.1,125.3,10.9z
			 M164,1c1.3,1,2.5,2,3.4,3.1l-1.3,1.3h3.4v1.9H161c0.2,3.5,0.6,6.2,1.1,8.2c0.2,0.7,0.4,1.3,0.6,2c1.4-2.2,2.5-4.9,3.4-7.9
			l1.8,0.8c-1.1,3.7-2.6,6.8-4.4,9.4c0.4,0.9,0.8,1.7,1.3,2.3c0.9,1.3,1.7,2,2.2,2c0.5,0,1-1.5,1.4-4.4l1.8,1
			c-0.7,3.7-1.6,5.6-2.9,5.6c-1.2,0-2.4-0.8-3.8-2.5c-0.5-0.7-1-1.5-1.4-2.3c-2,2.3-4.3,4-6.9,5.2l-1.1-1.7c2.8-1.3,5.2-3.1,7.1-5.5
			c-0.4-1-0.8-2.2-1.1-3.4c-0.6-2.4-1-5.3-1.2-8.8h-9.6V12h6.9c-0.1,4.7-0.3,7.8-0.6,9.2c-0.4,1.2-1.2,1.8-2.6,1.9
			c-0.7,0-1.5-0.1-2.4-0.1l-0.6-1.8c1.1,0.1,2,0.1,2.8,0.1c0.6,0,1-0.4,1.2-1.2c0.2-1,0.3-3,0.3-6h-4.8v0.8c-0.1,5-1.2,9-3.3,12.1
			l-1.5-1.4c1.8-2.6,2.7-6.1,2.8-10.7V5.4h11.6c-0.1-1.4-0.1-2.8-0.1-4.3h2.1c0,1.6,0,3,0.1,4.3h5.2c-0.8-1-2-2-3.4-3.1L164,1z
			 M175.1,5.8h9.5v4.6h-9.5V5.8z M182.7,9V7.1h-5.8V9H182.7z M185.2,14.8v1.5c-1.1,0.2-2.5,0.4-4.1,0.5v1.9c0,1.3-0.8,2-2.4,2h-2.3
			l-0.5-1.7c0.9,0.1,1.7,0.2,2.2,0.2c0.7,0,1.1-0.3,1.1-0.9v-1.2c-1.7,0.1-3.6,0.3-5.7,0.4l-0.3-1.6c2.2-0.1,4.1-0.2,5.9-0.3v-1.1
			l2.5-1.3h-7.2v-1.5h9.8v1.3l-3.2,1.7v0.8C182.6,15.2,184,15,185.2,14.8z M196.7,19.8c-0.5,0-1-0.3-1.5-0.8c-0.4-0.5-0.8-1.3-1-2.5
			c-0.2-1.3-0.3-2.8-0.3-4.6c0-1.4,0-2.9,0.1-4.7h-2.4c-0.1,2.3-0.4,4.4-1,6.2c1,1.1,1.9,2.3,2.8,3.6l-1.5,1.4
			c-0.7-1.1-1.4-2.1-2.1-3c-1,2.2-2.2,3.9-3.9,5.3l-1.5-1.3c1.8-1.5,3.1-3.4,4-5.7c-0.9-0.9-1.8-1.7-2.7-2.5l1.2-1.3
			c0.7,0.5,1.4,1.1,2.1,1.8c0.3-1.4,0.6-2.9,0.6-4.5h-3.1V5.2h3.2V1.1h2v4.1h4.4c-0.2,2.4-0.3,4.6-0.3,6.7c0,1.8,0.1,3.1,0.2,4.1
			c0.2,1,0.4,1.6,0.7,1.6c0.3-0.1,0.5-0.4,0.6-1c0.1-0.5,0.2-1.3,0.3-2.4L199,15c-0.3,2-0.6,3.4-1,4
			C197.7,19.5,197.2,19.7,196.7,19.8z M179.8,1.1c0.3,0.5,0.5,1.1,0.7,1.8h5.6v1.6h-12.9V2.9h5.2c-0.3-0.5-0.5-1-0.8-1.4L179.8,1.1z
			 M177.1,21.3l1.7,0.8c-1.1,1.8-2.3,3.3-3.8,4.6l-1.7-1.2C174.8,24.3,176,22.9,177.1,21.3z M183.2,21.5c0.4,1.6,0.8,3.3,1.2,5.1
			l-2,0.5c-0.3-2-0.7-3.7-1.1-5.2L183.2,21.5z M189.1,21.2c0.6,1.6,1.2,3.4,1.7,5.3l-2,0.4c-0.4-2-1-3.8-1.6-5.4L189.1,21.2z
			 M194.4,20.5c1.6,2,2.9,3.8,3.8,5.3l-1.7,1.2c-0.9-1.6-2.2-3.4-3.8-5.4L194.4,20.5z M226.5,2.3v24.5h-2v-1.2h-19.2v1.2h-2V2.3
			H226.5z M205.3,23.7h19.2V4.1h-19.2V23.7z M206.7,7.2h8.9c0-0.8,0-1.6,0-2.4h1.8c0,0.8,0,1.6,0,2.4h2.6c-0.3-0.7-0.6-1.4-1-2
			l1.6-0.3c0.3,0.7,0.6,1.4,0.9,2.3h1.7V9h-5.7c0.1,2.3,0.2,4.1,0.5,5.5c0.1,0.6,0.2,1.2,0.3,1.7c0.9-1.7,1.6-3.6,2.2-5.9l1.5,0.8
			c-0.9,3-1.9,5.5-3.1,7.4l0.3,0.8c0.5,1,0.9,1.5,1.3,1.5c0.5,0,1-1.2,1.5-3.7l1.5,0.8c-0.8,3.1-1.7,4.7-2.8,4.7
			c-0.8,0-1.6-0.6-2.4-1.8c-0.2-0.3-0.3-0.6-0.4-0.9c-1,1.2-2,2.1-3,2.9l-1-1.5c1.2-0.8,2.3-1.9,3.3-3.2c-0.3-0.8-0.5-1.7-0.7-2.7
			c-0.3-1.7-0.6-3.9-0.7-6.5h-9V7.2z M207.5,11h6.7v5.9h-6.7V11z M212.6,15.4v-2.9h-3.3v2.9H212.6z M214.4,18.4V20
			c-2.2,0.5-4.6,1-7.4,1.3l-0.3-1.8C209.6,19.2,212.2,18.8,214.4,18.4z M244.1,1c0.3,0.8,0.6,1.7,1,2.6h10.5v4.9h-2v-3h-19.7v3h-2
			V3.6H243c-0.3-0.8-0.6-1.6-1-2.3L244.1,1z M235.3,8.2h16.8v1.9h-6.4c-0.8,0.6-1.6,1-2.3,1.5c1.1,1.2,2,2.5,2.6,3.9
			c2.4-0.9,4.6-2.4,6.8-4.3l1.4,1.4c-2,1.8-4.3,3.3-6.8,4.3c2.3,2.6,5.3,4.7,9,6.5l-1,1.8c-3.5-1.8-6.3-3.9-8.4-6.5
			c0.1,0.7,0.2,1.5,0.2,2.2c0,2.2-0.3,3.7-0.9,4.5c-0.7,1-2.2,1.4-4.6,1.4h-0.9L240,25h1.3c1.7,0,2.7-0.3,3.1-0.7
			c0.5-0.6,0.8-1.7,0.8-3.5c0-0.5-0.1-1-0.1-1.5c-3.1,2.5-7.2,4.5-12.3,6l-1-1.7c5.6-1.6,9.9-3.7,12.9-6.2c-0.2-0.8-0.5-1.5-0.8-2.1
			c-2.7,2.1-6.3,3.8-10.8,5l-1-1.7c4.7-1.2,8.3-2.8,10.9-4.8c-0.3-0.5-0.7-1-1.1-1.5c-0.2,0.1-0.4,0.2-0.6,0.3
			c-1.9,0.9-4.5,1.8-7.6,2.7l-1-1.7c2.7-0.6,5.1-1.3,7.3-2.3c1-0.4,2-0.9,2.9-1.4h-7.4V8.2z M265.3,6.2h15.3l-0.3,2.6h4.2v1.6h-4.4
			l-0.3,2.6h-15.6l0.4-2.6h-4V8.8h4.2L265.3,6.2z M266.2,11.8h5l0.3-1.6h-5L266.2,11.8z M273.3,10.3l-0.3,1.6h5.1l0.2-1.6H273.3z
			 M266.7,9h5l0.3-1.6h-5L266.7,9z M273.8,7.5L273.5,9h5l0.2-1.6H273.8z M264.2,14.3H281v8.9h-5.2c2.9,0.5,5.6,1.1,8.2,2l-0.6,1.6
			c-2.7-1-5.5-1.8-8.5-2.4l0.6-1.2h-5.8l0.9,1.1c-2,1-4.8,1.9-8.6,2.5l-0.9-1.6c3.6-0.6,6.4-1.2,8.3-2.1h-5.1V14.3z M279.1,21.9
			v-1.4h-13v1.4H279.1z M266.1,19.4h13v-1.3h-13V19.4z M266.1,16.9h13v-1.4h-13V16.9z M284.1,3.1v4.5h-1.9V4.8h-19.3v2.9H261V3.1
			h10.6c-0.3-0.6-0.5-1.2-0.8-1.8l2-0.3c0.3,0.6,0.6,1.3,0.8,2.1H284.1z M292.2,7.1c-0.2,1.9-0.9,3.5-1.9,4.7l-1.4-1.5
			c1-1,1.5-2.5,1.6-4.3V2.1c3.7-0.1,7-0.3,9.9-0.8l0.9,1.6c-2.7,0.4-5.7,0.7-9,0.8v1.8h8.9v1.7h-3.4v3.3h-2V7.1H292.2z M304.5,7.2
			c-0.3,1.6-1.1,2.9-2.2,3.9l-1.4-1.5c1.2-1,1.8-2.3,1.9-4V2.2c3.6-0.1,6.9-0.3,9.9-0.9l0.9,1.6c-2.6,0.5-5.6,0.8-8.8,0.8v1.8h9.1
			v1.7h-3.7v3.2h-1.9V7.2H304.5z M292.6,11.2h18.3v11.4h-18.3V11.2z M308.8,20.9v-1.8h-14.3v1.8H308.8z M294.6,17.7h14.3V16h-14.3
			V17.7z M294.6,14.6h14.3v-1.8h-14.3V14.6z M304.8,22.9c3.1,0.6,6.1,1.3,9,2.4l-0.7,1.6c-2.9-1.1-5.9-2-9.1-2.5L304.8,22.9z
			 M298.1,22.9l1,1.3c-2,1.1-4.8,2-8.6,2.7l-0.9-1.5C293.3,24.6,296.2,23.8,298.1,22.9z M326.8,3.6c2.5,0,4.5,0.6,6,1.8
			c1.4,1.1,2.3,2.8,2.6,5h-2.3c-0.3-1.5-1-2.7-2-3.5c-1.1-0.9-2.5-1.3-4.3-1.3c-2.2,0-3.9,0.8-5.2,2.3c-1.3,1.5-1.9,3.6-1.9,6.1
			c0,2.5,0.6,4.5,1.8,6c1.3,1.5,3.3,2.3,5.9,2.3c1.1,0,2.1-0.2,3.1-0.4c1-0.3,1.8-0.7,2.5-1.1v-5.1h-6.3v-2h8.5v8.2
			c-1,0.8-2.1,1.4-3.5,1.8c-1.5,0.4-3,0.7-4.6,0.7c-3.2,0-5.6-1-7.4-3c-1.6-1.9-2.4-4.3-2.4-7.3s0.8-5.4,2.4-7.3
			C321.5,4.7,323.9,3.6,326.8,3.6z M340,4h7.2c3.2,0,5.5,0.9,7.2,2.7c1.5,1.7,2.2,4.1,2.2,7.3c0,3.1-0.8,5.5-2.4,7.3
			c-1.7,1.8-4.1,2.7-7.2,2.7H340V4z M342.3,6v16h4.3c2.6,0,4.6-0.7,5.9-2.1c1.2-1.3,1.9-3.3,1.9-5.9c0-2.7-0.6-4.7-1.7-6
			c-1.2-1.4-3.1-2-5.8-2H342.3z M360.6,4h8.2c4.6,0,6.9,2,6.9,5.9c0,3.9-2.3,5.9-6.9,5.9h-5.9V24h-2.3V4z M362.9,6v7.8h5.7
			c1.6,0,2.8-0.3,3.6-1c0.8-0.6,1.1-1.6,1.1-3S373,7.6,372.2,7c-0.8-0.7-2-1-3.6-1H362.9z M384.5,6.2c-1.2,2-2.6,3.6-4.4,5l-1.3-1.7
			c2.8-2.1,4.7-5,5.7-8.7l2.1,0.4c-0.3,1.1-0.7,2-1.1,3h17.4v2h-8.8v4.5h7.8v1.9h-7.8v6h9.7v2h-9.7v6.2h-2v-6.2h-12.9v-2h4.6v-8h8.3
			V6.2H384.5z M385.7,18.7h6.3v-6h-6.3V18.7z M407.7,8.6h3.1V1.3h2v7.3h2.8v1.9h-2.8v9.3c1.1-0.4,2.2-1,3.2-1.5v2
			c-2.5,1.2-5.1,2.3-8,3.1l-0.5-2c1.1-0.3,2.2-0.6,3.2-0.9v-10h-3.1V8.6z M421.2,1.2c0.4,1,0.8,2.2,1.2,3.6h3.9
			c0.5-1.2,0.9-2.5,1.1-3.8l2,0.3c-0.3,1.2-0.6,2.4-1.1,3.5h3.7v9.4h-15.3V4.7h3.8c-0.4-1.2-0.8-2.2-1.3-3.2L421.2,1.2z M430.3,12.5
			V6.4h-5.2v6.1H430.3z M423.5,12.5V6.4h-5v6.1H423.5z M421,7.5c0.5,1.1,0.9,2.3,1.3,3.6l-1.3,0.3c-0.4-1.2-0.8-2.4-1.3-3.6L421,7.5
			z M427.6,7.4l1.4,0.3c-0.4,1.5-0.8,2.7-1.4,3.9l-1.3-0.5C426.8,10.1,427.2,8.9,427.6,7.4z M431.1,16v10.8h-1.9v-1.2h-9.4v1.2h-1.9
			V16H431.1z M419.8,24h9.4v-2.4h-9.4V24z M419.8,20.1h9.4v-2.4h-9.4V20.1z M437.1,3.5h11c-0.4-0.8-0.8-1.6-1.3-2.3l2-0.3
			c0.4,0.8,0.9,1.7,1.3,2.7h11v1.9h-11.7c-0.8,1.6-1.7,2.9-2.7,3.9l3.7-0.3c0.6-0.8,1.3-1.7,2-2.5l1.8,0.7c-2.7,3.4-5.1,6-7.1,7.6
			c1.8-0.2,3.5-0.5,5.2-0.8c-0.3-0.7-0.6-1.4-1-2l1.7-0.6c0.9,1.6,1.7,3.4,2.4,5.2l-1.8,0.8c-0.2-0.7-0.5-1.3-0.7-1.9
			c-0.9,0.2-1.8,0.3-2.7,0.4v3.3h11.5v1.9h-11.5v5.7h-2.1v-5.7h-11.4v-1.9h11.4v-3c-1.3,0.1-2.6,0.3-3.9,0.4l-0.4-1.8l0.7-0.2
			c1.2-0.7,2.7-2,4.5-4c-1.5,0.1-3.1,0.3-4.7,0.4l-0.4-1.6c1.5-0.9,2.6-2.2,3.5-4h-10.3V3.5z M441.8,11.9l1.5,1.1
			c-1.5,1.8-3,3.2-4.6,4.4l-1.3-1.5C439,14.8,440.4,13.4,441.8,11.9z M439,6.3c1.6,1.1,2.9,2.3,4,3.4l-1.4,1.4c-1-1.1-2.3-2.2-4-3.4
			L439,6.3z M456.5,11.9c1.7,1.4,3.2,2.7,4.4,4.1l-1.5,1.5c-1-1.3-2.4-2.8-4.2-4.3L456.5,11.9z M458.7,6.2l1.6,1.1
			c-1.3,1.5-2.6,2.7-3.9,3.7l-1.3-1.5C456.4,8.7,457.6,7.5,458.7,6.2z M469.7,0.8h2c-1.1,1.8-2,3.8-2.7,5.8
			c-0.8,2.5-1.2,4.9-1.2,7.3c0,2.4,0.4,4.8,1.2,7.3c0.6,2,1.5,3.9,2.7,5.8h-2c-1.2-1.8-2.2-3.8-2.9-5.8c-0.8-2.4-1.2-4.8-1.2-7.3
			c0-2.5,0.4-4.9,1.2-7.3C467.5,4.6,468.5,2.6,469.7,0.8z M494.8,13.1c1.5,0,2.6,0.5,3.4,1.7c0.7,1,1.1,2.2,1.1,3.8
			c0,1.6-0.4,2.9-1.1,3.8c-0.8,1.1-2,1.6-3.4,1.6c-1.5,0-2.7-0.6-3.4-1.6c-0.7-1-1.1-2.3-1.1-3.8c0-1.6,0.3-2.9,1.1-3.8
			C492.2,13.6,493.3,13.1,494.8,13.1z M492.4,3.6h1.8L483,24.4h-1.8L492.4,3.6z M480.6,4c1.5,0,2.6,0.5,3.4,1.7
			c0.7,1,1.1,2.2,1.1,3.8c0,1.6-0.4,2.9-1.1,3.8c-0.8,1.1-2,1.6-3.4,1.6c-1.5,0-2.7-0.6-3.4-1.6c-0.7-1-1.1-2.3-1.1-3.8
			c0-1.6,0.3-2.9,1.1-3.8C477.9,4.5,479.1,4,480.6,4z M494.8,14.6c-0.9,0-1.5,0.4-1.9,1.2c-0.4,0.7-0.5,1.6-0.5,2.8
			c0,1.1,0.2,2.1,0.5,2.7c0.4,0.8,1,1.2,1.9,1.2c0.8,0,1.5-0.4,1.9-1.2c0.3-0.7,0.5-1.6,0.5-2.7c0-1.2-0.2-2.1-0.5-2.8
			C496.3,15,495.7,14.6,494.8,14.6z M480.6,5.5c-0.9,0-1.5,0.4-1.9,1.2c-0.4,0.7-0.5,1.6-0.5,2.8c0,1.1,0.2,2.1,0.5,2.7
			c0.4,0.8,1,1.2,1.9,1.2c0.8,0,1.5-0.4,1.9-1.2c0.3-0.7,0.5-1.6,0.5-2.7c0-1.2-0.2-2.1-0.6-2.8C482.1,5.9,481.4,5.5,480.6,5.5z
			 M503.8,0.8h2c1.2,1.8,2.2,3.7,2.9,5.8c0.8,2.4,1.2,4.8,1.2,7.3c0,2.4-0.4,4.9-1.2,7.3c-0.7,2-1.7,3.9-2.9,5.8h-2
			c1.1-1.9,2-3.8,2.7-5.8c0.8-2.5,1.2-4.9,1.2-7.3c0-2.4-0.4-4.8-1.2-7.3C505.8,4.6,504.9,2.7,503.8,0.8z"/>
		<path id="Line" class="st9" d="M375.5,419.5h229"/>
		<path id="Line-decoration-1" class="st9" d="M593.7,422.5l10.8-3l-10.8-3"/>
		<path id="Line-Copy" class="st9" d="M295.8,245.5c37.2,30,77.3,45,120.3,45s105.8-23.1,188.4-69.3"/>
		<path id="Line-Copy-decoration-1" class="st9" d="M596.6,229l8-7.9l-10.9,2.7"/>
	</g>
</g>
</svg>
