<?xml version="1.0" encoding="utf-8"?>
<!-- Generator: Adobe Illustrator 22.0.1, SVG Export Plug-In . SVG Version: 6.00 Build 0)  -->
<svg version="1.1" id="圖層_1" xmlns="http://www.w3.org/2000/svg" xmlns:xlink="http://www.w3.org/1999/xlink" x="0px" y="0px"
	 viewBox="0 0 320 492" style="enable-background:new 0 0 320 492;" xml:space="preserve">
<style type="text/css">
	.st0{fill:#BCBCBC;}
	.st1{enable-background:new    ;}
	.st2{fill:#4A4A4A;}
	.st3{fill:#B7956F;}
	.st4{fill:none;stroke:#004483;stroke-width:4;stroke-linecap:round;}
	.st5{fill:none;stroke:#004483;stroke-width:4;stroke-linecap:round;stroke-dasharray:2,6;}
	.st6{fill:none;stroke:#004483;stroke-width:4;stroke-linecap:round;stroke-dasharray:1;}
	.st7{fill:#004483;}
	.st8{fill:none;stroke:#FFFFFF;}
	.st9{fill:none;stroke:#FBB613;stroke-width:4;stroke-linecap:square;}
</style>
<title>s1_2_2 copy</title>
<desc>Created with Sketch.</desc>
<g id="s1_2_2-copy">
	<g id="Group-25">
		<g id="Group-44" transform="translate(0.000000, 366.000000)">
			<rect id="Rectangle-8-Copy-8" x="3" y="30" class="st0" width="314" height="2"/>
			<g class="st1">
				<path class="st2" d="M8.9,10.3v1.1H0.8v-1.1H8.9z"/>
				<path class="st2" d="M18.8,6.4h-1.3c-0.3-1.3-1-2-2.4-2c-0.9,0-1.6,0.4-2.1,1.3c-0.5,0.8-0.8,1.9-0.8,3.2c0,0.1,0,0.2,0,0.4h0.1
					c0.3-0.6,0.7-1.1,1.2-1.4c0.5-0.3,1.1-0.5,1.8-0.5c1.1,0,2,0.4,2.6,1.1c0.7,0.7,1,1.6,1,2.7s-0.4,2.1-1.1,2.8s-1.6,1.1-2.8,1.1
					c-1.4,0-2.4-0.5-3.1-1.6c-0.7-1-1-2.3-1-4.1s0.4-3.3,1.1-4.5c0.8-1.2,1.8-1.8,3.1-1.8C17.2,3.3,18.5,4.4,18.8,6.4z M13.2,9.4
					c-0.5,0.5-0.7,1.2-0.7,2s0.2,1.5,0.7,2s1.1,0.8,1.9,0.8c0.8,0,1.4-0.3,1.9-0.8s0.7-1.2,0.7-2S17.5,9.9,17,9.5
					c-0.5-0.5-1.1-0.8-1.9-0.8C14.3,8.6,13.7,8.9,13.2,9.4z"/>
			</g>
			<g class="st1">
				<path class="st2" d="M53.9,10.3v1.1h-8.1v-1.1H53.9z"/>
				<path class="st2" d="M62.5,3.6v7.8h1.9v1.1h-1.9V15h-1.2v-2.6h-5.7v-1.2l5.8-7.6H62.5z M56.6,11.3h4.6v-6l0,0L56.6,11.3z"/>
			</g>
			<g class="st1">
				<path class="st2" d="M105.9,10.3v1.1h-8.1v-1.1H105.9z"/>
				<path class="st2" d="M114.7,4.3c0.7,0.6,1,1.4,1,2.4s-0.4,1.9-1.1,2.7c-0.4,0.4-1.2,1-2.4,1.8c-1.5,1-2.3,1.9-2.5,2.6h6V15h-7.6
					c0-1,0.4-2,1.1-2.8c0.4-0.5,1.3-1.2,2.5-2c0.9-0.6,1.5-1.1,1.8-1.4c0.6-0.6,0.9-1.3,0.9-2s-0.2-1.2-0.6-1.6s-1-0.6-1.7-0.6
					c-0.8,0-1.4,0.3-1.8,0.8s-0.7,1.3-0.7,2.3h-1.3c0-1.3,0.4-2.3,1.1-3.1s1.6-1.2,2.8-1.2C113.2,3.3,114,3.7,114.7,4.3z"/>
			</g>
			<g class="st1">
				<path class="st2" d="M161.9,5.2c0.6,1,0.9,2.4,0.9,4.1s-0.3,3.1-0.9,4.1c-0.7,1.2-1.7,1.8-3.1,1.8c-1.4,0-2.4-0.6-3.1-1.8
					c-0.6-1-0.9-2.4-0.9-4.1s0.3-3.1,0.9-4.1c0.7-1.2,1.7-1.8,3.1-1.8C160.2,3.3,161.2,3.9,161.9,5.2z M156.6,6.1
					c-0.3,0.8-0.5,1.8-0.5,3.2c0,1.3,0.2,2.4,0.5,3.2c0.4,1.1,1.2,1.6,2.2,1.6s1.8-0.6,2.2-1.6c0.3-0.8,0.5-1.8,0.5-3.2
					c0-1.3-0.2-2.4-0.5-3.2c-0.4-1.1-1.2-1.6-2.2-1.6S157,5,156.6,6.1z"/>
			</g>
			<g class="st1">
				<path class="st2" d="M213.6,4.3c0.7,0.6,1,1.4,1,2.4s-0.4,1.9-1.1,2.7c-0.4,0.4-1.2,1-2.4,1.8c-1.5,1-2.3,1.9-2.5,2.6h6V15H207
					c0-1,0.4-2,1.1-2.8c0.4-0.5,1.3-1.2,2.5-2c0.9-0.6,1.5-1.1,1.8-1.4c0.6-0.6,0.9-1.3,0.9-2s-0.2-1.2-0.6-1.6s-1-0.6-1.7-0.6
					c-0.8,0-1.4,0.3-1.8,0.8c-0.4,0.5-0.7,1.3-0.7,2.3h-1.3c0-1.3,0.4-2.3,1.1-3.1c0.7-0.8,1.6-1.2,2.8-1.2
					C212,3.3,212.9,3.7,213.6,4.3z"/>
			</g>
			<g class="st1">
				<path class="st2" d="M266.4,3.6v7.8h1.9v1.1h-1.9V15h-1.2v-2.6h-5.7v-1.2l5.8-7.6H266.4z M260.5,11.3h4.6v-6l0,0L260.5,11.3z"/>
			</g>
			<g class="st1">
				<path class="st2" d="M317.6,6.4h-1.3c-0.3-1.3-1-2-2.4-2c-0.9,0-1.6,0.4-2.1,1.3c-0.5,0.8-0.8,1.9-0.8,3.2c0,0.1,0,0.2,0,0.4
					h0.1c0.3-0.6,0.7-1.1,1.2-1.4c0.5-0.3,1.1-0.5,1.8-0.5c1.1,0,2,0.4,2.6,1.1c0.7,0.7,1,1.6,1,2.7s-0.4,2.1-1.1,2.8
					s-1.6,1.1-2.8,1.1c-1.4,0-2.4-0.5-3.1-1.6c-0.7-1-1-2.3-1-4.1s0.4-3.3,1.1-4.5c0.8-1.2,1.8-1.8,3.1-1.8
					C316.1,3.3,317.3,4.4,317.6,6.4z M312,9.4c-0.5,0.5-0.7,1.2-0.7,2s0.2,1.5,0.7,2s1.1,0.8,1.9,0.8s1.4-0.3,1.9-0.8s0.7-1.2,0.7-2
					s-0.2-1.5-0.7-1.9c-0.5-0.5-1.1-0.8-1.9-0.8C313.2,8.6,312.5,8.9,312,9.4z"/>
			</g>
			<rect id="Rectangle-8-Copy-9" x="3" y="26" class="st0" width="2" height="6"/>
			<rect id="Rectangle-8-Copy-11" x="107" y="26" class="st0" width="2" height="6"/>
			<rect id="Rectangle-8-Copy-13" x="263" y="26" class="st0" width="2" height="6"/>
			<rect id="Rectangle-8-Copy-10" x="55" y="26" class="st0" width="2" height="6"/>
			<rect id="Rectangle-8-Copy-14" x="211" y="26" class="st0" width="2" height="6"/>
			<rect id="Rectangle-8-Copy-12" x="159" y="26" class="st0" width="2" height="6"/>
			<rect id="Rectangle-8-Copy-15" x="315" y="26" class="st0" width="2" height="6"/>
			<rect id="Rectangle-11" x="41" y="44" class="st3" width="76" height="16"/>
			<rect id="Rectangle-11-Copy-12" x="119" y="44" class="st3" width="42" height="16"/>
			<path id="Line-Copy-3" class="st4" d="M144,52h43"/>
			<path id="Line-Copy-4" class="st5" d="M187,52.3h96.2"/>
			<path id="Line-Copy-5" class="st6" d="M277.7,52.3h10.5"/>
			<path id="Line-Copy-5-decoration-1" class="st6" d="M277.4,55.3l10.8-3l-10.8-3"/>
			<g id="Rectangle-18">
				<g>
					<polygon id="path-1" class="st7" points="145,45 152,52 145,59 138,52 					"/>
				</g>
				<path class="st8" d="M145,45.7l-6.3,6.3l6.3,6.3l6.3-6.3L145,45.7z"/>
			</g>
		</g>
		<g id="Group-45" transform="translate(32.000000, 448.000000)">
			<g class="st1">
				<path class="st2" d="M28.8,5.9v0.9c-0.6,0.9-1.2,1.9-1.9,2.8H29v0.8c-0.3,1.3-0.6,2.4-1,3.2c0.1,0.1,0.2,0.1,0.3,0.3
					c0.5,0.5,0.9,0.8,1.4,1.1c0.5,0.2,1.1,0.3,2,0.3c0.8,0,1.7,0,2.8,0c1.2,0,2.8,0,4.8-0.1L39,16.3h-4.4c-1.1,0-2.1,0-3,0
					c-1,0-1.8-0.2-2.3-0.4c-0.6-0.3-1.2-0.7-1.7-1.2c-0.1-0.1-0.2-0.2-0.4-0.2c-0.4,0-0.9,0.7-1.7,2.1l-0.8-0.8
					c0.8-1.5,1.5-2.3,2.2-2.5c0.4-0.8,0.7-1.7,0.9-2.8h-2.4V9.6c0.8-0.9,1.5-1.8,2-2.7h-2.6v-1H28.8z M28.6,4.4l-0.8,0.8
					c-0.6-0.7-1.4-1.5-2.4-2.3l0.8-0.8C27.2,2.9,28,3.6,28.6,4.4z M32,7.5c-0.1,2.6-0.7,4.7-1.8,6.3L29.4,13c1-1.4,1.5-3.4,1.6-6V3
					c2.4,0,4.6-0.4,6.6-0.9l0.6,1c-1.8,0.5-3.9,0.8-6.1,0.9v2.5H39v1.1h-2.7v6.8h-1.1V7.5H32z"/>
				<path class="st2" d="M46.4,7.9L47.3,4H42V2.9h13V4h-6.6l-0.8,3.9H53v6.9h2.6v1.1H41.4v-1.1H45l1.2-5.7h-3.4V7.9H46.4z
					 M51.8,14.8V9h-4.5l-1.2,5.7L51.8,14.8L51.8,14.8z"/>
				<path class="st2" d="M58.5,7.7l-0.8-1c1.6-1.2,2.7-2.9,3.3-4.9L62.2,2c-0.2,0.6-0.4,1.2-0.6,1.7h9.9v1.1h-5v2.6H71v1.1h-4.5V12
					H72v1.1h-5.5v3.6h-1.2v-3.6h-7.4V12h2.6V7.4h4.8V4.8H61C60.3,6,59.5,6.9,58.5,7.7z M65.3,12V8.5h-3.6V12H65.3z"/>
				<path class="st2" d="M74.7,16.4l-0.2-1.1c0.4,0,0.8,0.1,1.2,0.1c0.4,0,0.7-0.2,0.7-0.7v-3.9c-0.6,0.3-1.3,0.5-2,0.8L74,10.4
					c0.8-0.2,1.5-0.5,2.3-0.8V6h-2V4.9h2v-3h1.2v2.9h1.8V6h-1.8v3.1c0.6-0.3,1.2-0.6,1.7-1v1.2c-0.6,0.3-1.2,0.6-1.7,0.9V15
					c0,1-0.5,1.4-1.4,1.4H74.7z M87.4,8.8v1.1c-0.5,1.5-1.3,2.8-2.5,3.9c1.1,0.7,2.4,1.4,3.9,1.9l-0.6,1c-1.6-0.6-3-1.4-4.1-2.2
					c-1.2,0.9-2.8,1.7-4.6,2.2l-0.6-1c1.7-0.5,3.1-1.2,4.3-2c-1.2-1.1-2.1-2.4-2.5-3.8h-1V8.8H87.4z M86.4,2.6V6
					c0,0.4,0.2,0.6,0.7,0.6h1.3v1.1h-1.6c-1,0-1.5-0.5-1.5-1.4V3.7h-3.1v0.9c0,1.5-0.7,2.7-2.2,3.5l-0.8-0.9C80.4,6.6,81,5.8,81,4.7
					V2.6H86.4z M84.1,13c1-0.9,1.8-1.9,2.3-3.1h-4.5C82.2,11,83,12.1,84.1,13z"/>
				<path class="st2" d="M95.5,5.7v1h-4.6v-1H95.5z M96.6,15.1c-1.2,0.6-2.9,1.2-5.1,1.6L91,15.8c2.2-0.4,3.9-0.8,5.1-1.4L96.6,15.1
					z M95.1,2.9v1h-3.9v-1H95.1z M103.1,7.9v6.3H92.8V7.9H103.1z M102,9.8v-1h-8.1v1H102z M102,11.5v-0.9h-8.1v0.9H102z M102,12.3
					h-8.1v1h8.1V12.3z M96.1,5.6l-0.6-0.8c1.2-0.8,2-1.7,2.4-2.9l1,0.1c-0.1,0.3-0.2,0.6-0.4,0.8h5.7v0.8c-0.4,0.8-0.9,1.5-1.4,2.1
					L102,5.1c0.4-0.4,0.7-0.8,1-1.3h-5C97.5,4.5,96.9,5.1,96.1,5.6z M100.8,4.3c-0.1,0.3-0.1,0.5-0.2,0.7c1.2,1.2,2.6,1.9,4.4,2.1
					l-0.5,1c-1.7-0.3-3.2-1-4.4-2.3c-0.8,1.1-2,1.7-3.7,2.1L95.9,7c2.2-0.4,3.5-1.4,3.9-3L100.8,4.3z M105,15.8l-0.4,0.9
					c-1.7-0.6-3.5-1.1-5.3-1.5l0.4-0.8C101.5,14.7,103.3,15.2,105,15.8z"/>
				<path class="st2" d="M113.1,3.6V1.9h1.2v1.7h3.8v1.1h-3.8v1.9h2c1.5-1.1,2.8-2.3,4-3.6l0.9,0.6c-0.9,1.1-2,2.1-3,3h3.4v1.1h-4.9
					c-0.2,0.2-0.5,0.3-0.7,0.5c-0.7,0.4-1.6,0.9-2.5,1.3h6.1v7.2h-1.2V16h-6.9v0.7h-1.2v-5.9c-0.9,0.3-1.8,0.6-2.7,0.9l-0.5-1.1
					c2.7-0.6,5.2-1.6,7.5-2.9h-7.3V6.6h5.8V4.7h-4.4V3.6H113.1z M118.4,10.4h-6.9v1.7h6.9V10.4z M111.4,14.9h6.9v-1.7h-6.9V14.9z"/>
				<path class="st2" d="M125.6,5l-0.9,0.4c-0.4-0.9-0.7-1.8-1.1-2.5l0.9-0.3C124.9,3.3,125.3,4.1,125.6,5z M127.1,2v4h1.2V2h1.1v4
					h2v1h-1.1l-0.7,2h1.7v1h-3v1.7h2.7v1h-2.7v2c1.2-0.1,2.2-0.2,3.1-0.4v1c-1.7,0.3-4.1,0.5-7.4,0.7l-0.2-1.1
					c1.2,0,2.3-0.1,3.4-0.2v-2.1h-2.7v-1h2.7V9.9h-3.1v-1h1.7l-0.5-2h-1.5v-1h2.3V2H127.1z M128.5,9l0.7-2h-2.9l0.5,2H128.5z
					 M131.9,2.8c-0.3,1-0.7,1.9-1.1,2.6L129.9,5c0.4-0.7,0.7-1.5,1-2.5L131.9,2.8z M134.5,11.9l-1,0.4c-0.5-1.5-1.1-2.8-1.7-3.9
					l1-0.3C133.4,9.3,134,10.6,134.5,11.9z M135.6,5.2V1.9h1.1v3.3h1.5v1.1h-1.5v8.8c0,0.9-0.5,1.4-1.4,1.4h-2l-0.2-1.1
					c0.7,0,1.3,0.1,1.9,0.1c0.4,0,0.7-0.2,0.7-0.7V6.3H132V5.2H135.6z"/>
				<path class="st2" d="M142.6,11.9c-0.4,1.6-1,3-1.7,4.2l-0.9-0.6c0.7-1.2,1.3-2.4,1.6-3.8L142.6,11.9z M140.2,8V7h1.9
					c-0.2-0.6-0.5-1.2-0.8-1.8l1-0.4c0.3,0.6,0.5,1.3,0.8,2.2h1.7c0.3-0.7,0.5-1.4,0.7-2.2l1,0.4c-0.2,0.7-0.5,1.3-0.7,1.8h1.8v1
					h-3.1v1.8h2.9v1h-2.9v5.8h-1.2v-5.8h-2.9v-1h2.9V8H140.2z M143.4,3.3c-0.2-0.5-0.4-0.9-0.7-1.3l1.2-0.2c0.2,0.4,0.4,1,0.6,1.5h3
					v1.1h-7.2V3.3H143.4z M147.2,14.4l-1,0.4c-0.3-1-0.6-2-1-2.9l1-0.3C146.6,12.6,146.9,13.6,147.2,14.4z M154.3,3.1
					c-1.4,0.5-3,0.8-4.7,0.9v3h5.1v1.1H153v8.5h-1.1V8.1h-2.3v1.8c-0.1,2.8-0.7,5-1.8,6.7l-0.8-0.8c1-1.4,1.5-3.3,1.6-5.8V3.1
					c1.9,0,3.7-0.4,5.2-1L154.3,3.1z"/>
				<path class="st2" d="M166.8,11.9h1.8l0.1-2.2h-1.4v-1h1.5l0.1-2h-1.6v-1h1.6l0.1-2.2h-1.7v-1h2.8l-0.3,9.3h1.2V13h-14.3v-1.1
					h1.3l-0.4-9c1-0.2,1.8-0.5,2.6-0.9l0.4,1c-0.4,0.2-1,0.5-1.9,0.7l0.1,2.1h1.6v1h-1.5l0.1,2h1.5v1H159l0.1,2.2h1.8V2.6h5.9V11.9z
					 M162.3,14c-1.2,1-2.8,1.8-4.6,2.6l-0.7-0.9c1.8-0.7,3.3-1.5,4.5-2.3L162.3,14z M165.8,11.9V3.5h-4v8.4H165.8z M165.2,4.6v0.8
					h-2.6V4.6H165.2z M165.1,6.5v4.3h-2.5V6.5H165.1z M164.4,7.3h-1V10h1V7.3z M170.9,15.6l-0.7,1c-1.6-1.1-3.2-2-4.8-2.6l0.6-0.9
					C167.8,13.8,169.4,14.7,170.9,15.6z"/>
				<path class="st2" d="M179.7,3.8c-0.3-0.7-0.5-1.3-0.8-1.8l1.2-0.2c0.3,0.6,0.5,1.3,0.8,2h6.5v1.1h-6.5V7h5.2v5.8
					c0,1-0.5,1.5-1.5,1.5H183l-0.3-1.1l1.5,0.1c0.4,0,0.7-0.2,0.7-0.7V8.2h-4v8.5h-1.2V8.2h-3.9v6.3h-1.1V7h5V4.9h-6.5V3.8H179.7z"
					/>
				<path class="st2" d="M191.4,6.2V2h1.1v4.2h1.7v1.1h-1.7v5.3c0.6-0.2,1.2-0.4,1.7-0.7V13c-1.4,0.6-2.9,1.1-4.5,1.6l-0.3-1.1
					c0.7-0.1,1.3-0.3,2-0.5V7.3h-1.8V6.2H191.4z M204.1,8.2v1H198c-0.2,0.4-0.4,0.7-0.6,1h6.2c0,1.5-0.1,2.8-0.2,3.7
					c-0.1,0.9-0.3,1.6-0.6,2s-0.8,0.5-1.4,0.6h-1.2l-0.3-1c0.3,0,0.7,0,1,0c0.7,0,1.1-0.3,1.3-0.8s0.3-1.7,0.4-3.5h-0.9
					c-1.1,2.7-2.9,4.5-5.3,5.3l-0.6-0.9c2.3-0.8,4-2.2,4.9-4.4h-1.4c-0.8,1.4-2.2,2.6-4.1,3.4l-0.7-0.8c1.7-0.7,2.9-1.5,3.7-2.6
					h-1.6c-0.4,0.4-1,0.8-1.5,1.1l-0.6-0.9c1.2-0.6,2-1.4,2.6-2.2h-2.3v-1C194.8,8.2,204.1,8.2,204.1,8.2z M202.9,2.5v4.8h-7.4V2.5
					H202.9z M201.8,4.5V3.4h-5.2v1.1H201.8z M201.8,5.3h-5.2v1.1h5.2V5.3z"/>
				<path class="st2" d="M209.9,2v3.2h3.3c0,5-0.1,8.1-0.2,9.3c-0.2,1.3-0.9,2-2.4,2c-0.2,0-0.6,0-1.2-0.1l-0.3-1.1
					c0.5,0,1,0.1,1.3,0.1c0.8,0,1.3-0.5,1.4-1.4c0.1-0.8,0.2-3.4,0.2-7.7h-2.1c-0.1,4.7-1.1,8.2-3.2,10.3l-0.8-0.8
					c1.9-2,2.8-5.2,2.9-9.6h-2.6v-1h2.6V2H209.9z M219.9,16.4h-1.1v-1.1h-3v1.1h-1.1V4.3h5.2L219.9,16.4L219.9,16.4z M218.7,14.2
					V5.4h-3v8.8H218.7z"/>
				<path class="st2" d="M225.9,8.5l-0.8,0.8c-0.6-0.8-1.5-1.7-2.7-2.6l0.8-0.8C224.3,6.8,225.1,7.7,225.9,8.5z M226,10.7
					c-0.7,2-1.5,4-2.3,5.8l-1.1-0.5c0.9-1.9,1.7-3.8,2.4-5.7L226,10.7z M226.4,4.6l-0.8,0.8c-0.7-0.8-1.6-1.6-2.8-2.5l0.8-0.8
					C224.7,3,225.6,3.8,226.4,4.6z M236.6,7.3c-0.5,2.5-1.3,4.5-2.2,6.1c0,0,0,0,0,0.1c0.3,1.2,0.7,1.9,1.1,2c0.3,0,0.6-1,0.9-2.9
					l0.9,0.6c-0.3,2.3-0.9,3.4-1.7,3.4c-0.4,0-0.8-0.3-1.2-0.8c-0.3-0.4-0.5-0.8-0.6-1.3c-0.7,0.8-1.4,1.5-2.2,2l-0.6-0.8
					c1-0.6,1.8-1.4,2.5-2.4c0-0.1-0.1-0.3-0.1-0.4c-0.3-1.3-0.4-3.8-0.4-7.5h-5v5c0,2.7-0.5,4.8-1.5,6.4l-0.8-0.8
					c0.8-1.3,1.2-3.2,1.3-5.6V4.2h5.8c0-0.7,0-1.4,0-2.1h1.1c0,0.7,0,1.4,0,2.1h1.4c-0.2-0.6-0.4-1.1-0.7-1.6l0.9-0.2
					c0.2,0.5,0.4,1.1,0.7,1.8h0.8v1.1h-3.1c0,2.9,0.1,5,0.3,6.5c0.7-1.4,1.2-3,1.6-4.9L236.6,7.3z M232.1,6.6v1h-3.5v-1H232.1z
					 M232,8.9v4.5h-3.1V8.9H232z M231.1,9.7h-1.4v2.8h1.4V9.7z"/>
				<path class="st2" d="M239.3,3.9V2.8h5.1v1.1h-2.3c-0.2,1.3-0.5,2.5-0.9,3.6h2.9v7.6h-2.7v1h-1.1V9.5c-0.3,0.6-0.6,1.1-1,1.6
					l-0.6-0.9c1.1-1.8,1.9-3.9,2.2-6.3C240.9,3.9,239.3,3.9,239.3,3.9z M243.1,14.1V8.6h-1.7v5.5H243.1z M246.3,11.6
					c-0.2,1.6-0.5,3.1-0.9,4.3l-1-0.3c0.4-1.1,0.7-2.5,1-4.2L246.3,11.6z M253.2,9.7c0,3.4-0.2,5.4-0.5,6s-1,0.9-2.1,0.9
					c-0.4,0-0.8,0-1.2,0l-0.2-1c0.5,0,0.9,0.1,1.3,0.1c0.9,0,1.4-0.3,1.5-1s0.2-2,0.2-4h-6.6V2.5h7.5v1h-2.9v1.4h2.6v0.9h-2.6v1.5
					h2.7v0.9h-2.7v1.4h3V9.7z M246.5,3.5v1.4h2.4V3.5H246.5z M246.5,7.3h2.4V5.8h-2.4V7.3z M246.5,9.7h2.4V8.3h-2.4V9.7z M248,15.4
					l-0.9,0.1c0-1.7-0.1-2.9-0.3-3.8l0.8-0.1C247.9,12.5,248,13.8,248,15.4z M249.8,14.6l-0.9,0.1c-0.1-1.4-0.2-2.4-0.4-3.2l0.8-0.1
					C249.6,12.2,249.8,13.2,249.8,14.6z M251.7,13.8l-0.8,0.3c-0.2-0.9-0.4-1.8-0.7-2.7l0.8-0.2C251.3,12.1,251.6,13,251.7,13.8z"/>
				<path class="st2" d="M269.4,2.6v1.1h-11.8v10.6c0,0.5,0.2,0.7,0.7,0.7h11.4v1.1H258c-1,0-1.5-0.5-1.5-1.6V3.7h-0.8V2.6H269.4z
					 M263.1,9.6V14h-4.4V9.6H263.1z M262.1,10.6h-2.3V13h2.3V10.6z M267.2,4.7v3.8h-7.3V4.7H267.2z M266.1,5.7H261v1.7h5.1V5.7z
					 M268.8,9.6V14h-4.3V9.6H268.8z M267.8,10.6h-2.3V13h2.3V10.6z"/>
				<path class="st2" d="M278.4,7.8h-4.5v8.7h-1.2v-14h5.7V7.8z M277.2,3.5h-3.3v1.2h3.3V3.5z M273.9,6.8h3.3V5.6h-3.3V6.8z
					 M282.1,9v6.2h-5.9V9H282.1z M281,11.6V10h-3.7v1.6H281z M281,12.5h-3.7v1.7h3.7V12.5z M279.9,7.8V2.4h5.7v12.9
					c0,0.8-0.4,1.2-1.2,1.2c-0.5,0-1.1,0-1.6,0l-0.3-1.1c0.5,0,1,0.1,1.5,0.1c0.3,0,0.5-0.2,0.5-0.5V7.8H279.9z M284.5,3.5H281v1.2
					h3.5V3.5z M281.1,6.8h3.5V5.6h-3.5V6.8z"/>
			</g>
			<rect id="Rectangle-11-Copy-13" class="st3" width="16" height="16"/>
			<polygon id="Rectangle-18-Copy" class="st7" points="8,25 16,33 8,41 0,33 			"/>
			<g class="st1">
				<path class="st2" d="M37.4,41.6h-1.2v-1h-8.4v1.1h-1.2v-14h10.7v13.9H37.4z M36.2,31.5v-2.7h-8.4v2.7H36.2z M36.2,35.4v-2.8
					h-8.4v2.8H36.2z M36.2,39.4v-3h-8.4v3H36.2z"/>
				<path class="st2" d="M42.2,41.7l-0.8-0.8c0.7-1.2,1.1-2.7,1.1-4.5v-5.1h5.7v8.8c0,0.9-0.5,1.3-1.4,1.3h-1.4l-0.3-1
					c0.5,0,1,0.1,1.4,0.1s0.7-0.2,0.7-0.7v-1.6h-3.7C43.2,39.6,42.8,40.7,42.2,41.7z M52.4,27.3c-0.3,0.6-0.7,1.2-1.1,1.6h4V30H41.6
					v-1.1h4.1c-0.3-0.7-0.7-1.3-1-1.8l1.2-0.2c0.4,0.6,0.7,1.2,1.1,2h3c0.5-0.6,0.9-1.3,1.3-2L52.4,27.3z M43.6,36.4
					c0,0.3,0,0.5,0,0.8h3.6v-1.9h-3.6V36.4z M47.2,32.4h-3.6v1.8h3.6V32.4z M51.1,32.1V39H50v-6.9H51.1z M51,41.5l-0.2-1.1
					c0.7,0,1.3,0.1,1.9,0.1c0.4,0,0.7-0.2,0.7-0.7v-8.9h1.1v9.2c0,0.9-0.5,1.4-1.4,1.4C53.1,41.5,51,41.5,51,41.5z"/>
				<path class="st2" d="M65,27.6v1.1h-2.1v1.9h1.8v10.8h-1v-0.7h-4.5v0.8h-1v-11h1.7v-1.9h-2.1v-1.1H65V27.6z M63.7,39.7v-4.1h-0.8
					c-0.7,0-1-0.3-1-1v-3h-1v1.1c0,1.7-0.4,2.9-1.2,3.7l-0.6-0.5c0.6-0.7,1-1.7,1-3.2v-1.1h-1v8.1C59.1,39.7,63.7,39.7,63.7,39.7z
					 M63.1,37.1v1h-3.2v-1H63.1z M62,30.5v-1.9h-1.1v1.9H62z M63.7,31.6h-1v2.8c0,0.2,0.1,0.4,0.4,0.4h0.6V31.6z M71.7,40.4
					c-0.3,0.5-0.7,0.8-1.5,0.8h-3c-0.9,0-1.4-0.5-1.4-1.6v-6.7h4.4v-4.3h-4.7v-1.1h5.8V34h-4.4v5.2c0,0.6,0.3,0.9,0.8,0.9h2.4
					c0.4,0,0.7-0.2,0.8-0.7c0.1-0.4,0.2-1.3,0.2-2.6l1.1,0.4C72.1,38.8,71.9,39.9,71.7,40.4z"/>
				<path class="st2" d="M80.8,31.5l0.1-0.9h-5.2v-3h11.6v3h-5.2L82,31.5h6.4v0.9h-6.5c-0.1,0.3-0.1,0.6-0.2,0.9h4.6v7.1h2.3v0.9
					H74.3v-0.9h2.3v-7.1h3.9c0.1-0.3,0.1-0.6,0.2-0.9h-6.1v-0.9H80.8z M79.1,28.4h-2.4v1.3h2.4V28.4z M85.2,35.1v-1h-7.4v1H85.2z
					 M85.2,36.8v-1h-7.4v1H85.2z M85.2,38.5v-1h-7.4v1H85.2z M85.2,40.3v-1.1h-7.4v1.1H85.2z M82.7,28.4h-2.5v1.3h2.5V28.4z
					 M86.1,28.4h-2.4v1.3h2.4V28.4z"/>
			</g>
		</g>
		<g id="Group-30">
			<g class="st1">
				<path class="st2" d="M11.4,28.3c0,1.6-0.8,2.4-2.4,2.4H6.7l-0.5-1.8C7,28.9,7.8,29,8.5,29s1-0.5,1-1.4v-6.5
					C8.1,21.4,6.6,21.7,5,22c-0.3,3.6-1,6.6-2.3,8.9l-1.5-1.4c1.3-2.6,2-5.8,2.1-9.8V6.2h8.2v22.1H11.4z M9.5,13.7V8H5v4.8
					C6.6,13,8,13.3,9.5,13.7z M9.5,19.3v-3.8C8,15,6.5,14.7,5,14.4V20C6.6,19.8,8.1,19.6,9.5,19.3z M24.8,17.1V19
					c-0.7,2.7-2,4.9-3.7,6.8c1.6,1.3,3.6,2.4,5.9,3.3l-1.1,1.7c-2.5-1.1-4.5-2.4-6.2-3.7c-1.8,1.5-4,2.8-6.6,3.7L12,29.1
					c2.5-0.9,4.5-2,6.2-3.4c-1.9-2-3.2-4.2-3.9-6.7h-1.4v-2h11.9V17.1z M23.4,6.2v6.1c0,0.6,0.3,0.9,0.9,0.9h2.2V15h-2.7
					c-1.6,0-2.4-0.8-2.4-2.4V8h-4.8v1.7c0,2.7-1,4.8-3,6.2l-1.3-1.5c1.5-1.1,2.3-2.5,2.3-4.5V6.2H23.4z M19.5,24.4
					c1.5-1.6,2.6-3.4,3.3-5.4h-6.7C16.8,21,17.9,22.8,19.5,24.4z"/>
				<path class="st2" d="M54.1,6.1V8H34v19.9h20.8v1.9H32V6.1H54.1z M39.3,17.2L38,18.4c-0.8-1-1.8-1.9-3.1-3l1.3-1.2
					C37.4,15.2,38.4,16.2,39.3,17.2z M40.1,20.5c-0.9,2.2-1.8,4.4-2.9,6.3L35.4,26c1.1-2,2.2-4.1,3-6.2L40.1,20.5z M40.3,12.2
					L39,13.5c-0.8-0.9-1.9-1.8-3.4-2.8l1.3-1.3C38.2,10.4,39.3,11.3,40.3,12.2z M40.1,18.3l-0.6-1.8c2-2.2,3.5-4.6,4.3-7.3l1.8,0.4
					c-0.4,1.1-0.8,2.1-1.3,3.1h3.6c-0.3-1.1-0.7-2-1.1-2.9l1.9-0.3c0.4,1,0.7,2,1,3.3h4.2v1.7h-4.4v2.3h3.8v1.5h-3.8v2.2h3.8V22
					h-3.8v2.3h4.8V26H41.9v-9.5C41.3,17,40.7,17.7,40.1,18.3z M43.8,14.4v2.3h4v-2.3H43.8z M43.8,18.2v2.2h4v-2.2H43.8z M43.8,21.9
					v2.3h4v-2.3H43.8z"/>
				<path class="st2" d="M66.4,5.9c-0.6,1.9-1.3,3.7-2.1,5.3v19.6h-2v-16c-0.9,1.3-1.9,2.6-3,3.9l-0.6-2c2.7-3.4,4.7-7.2,5.9-11.5
					L66.4,5.9z M73.7,28c-1.9,1.1-4.3,2.1-7.3,2.9l-0.8-1.7c2.8-0.6,5.1-1.4,6.9-2.4L73.7,28z M76.1,5.1v1.5h7.3v1.6h-7.3v1.5h6.4
					v1.6h-6.4V13h8v1.6H66.5V13h7.7v-1.6H68V9.8h6.2V8.3h-7.1V6.6h7.1V5.1H76.1z M82.1,16v10.7H68.2V16H82.1z M80.2,19.1v-1.6H70
					v1.6H80.2z M80.2,22.1v-1.6H70v1.6H80.2z M80.2,23.6H70v1.5h10.3v-1.5H80.2z M84.5,29.1l-0.7,1.6c-2.3-1-4.7-1.8-7.2-2.4
					l0.7-1.5C79.9,27.4,82.2,28.1,84.5,29.1z"/>
				<path class="st2" d="M99.3,8.3c-0.4-1.2-1-2.2-1.5-3.2l2.2-0.3c0.4,1,0.9,2.2,1.3,3.5h11.5v1.9h-11.4v3.7h9.1v10.2
					c0,1.7-0.9,2.5-2.5,2.5h-2.8l-0.5-1.9l2.7,0.1c0.8,0,1.2-0.4,1.2-1.2v-7.8h-7.1v14.9h-2.1V15.9h-6.7v11h-2v-13h8.7v-3.7H88V8.3
					H99.3z"/>
				<path class="st2" d="M120.8,11.8V9.4h-3.9V7.7h3.9V5.2h1.8v2.5h3.8v1.7h-3.8v2.4h3.4v10.7h-3.4v2.4h3.9v1.7h-3.9v4.2h-1.8v-4.2
					h-4v-1.7h4v-2.4h-3.5V11.8H120.8z M121,16.4v-3.1h-2.1v3.1H121z M121,17.9h-2.1V21h2.1V17.9z M122.4,16.4h2.1v-3.1h-2.1V16.4z
					 M124.5,17.9h-2.1V21h2.1V17.9z M133.3,6.6V5h1.9v1.6h6v1.6h-6v1.6h5.3v8.1h-0.9c1,1.3,1.8,2.4,2.4,3.4l-1.3,0.9
					c-0.3-0.4-0.5-0.9-0.8-1.4c-0.4,0.1-0.9,0.1-1.3,0.1v2.2h3.3v1.7h-3.3v3.8c0,1.4-0.7,2.1-2,2.1h-2.8l-0.4-1.8
					c0.9,0.1,1.7,0.1,2.5,0.1c0.5,0,0.8-0.3,0.8-0.9v-3.3h-9.3v-1.7h9.3V21c-2.5,0.2-5.5,0.3-9.1,0.4l-0.2-1.6
					c2.2-0.1,4.1-0.1,6-0.2v-1.9H128V9.6h5.3V8h-6V6.6H133.3z M133,27.7l-1,1.5c-1.2-1.1-2.5-2-3.8-2.7l0.9-1.3
					C130.6,25.8,131.8,26.7,133,27.7z M133.4,13.1v-2h-3.7v2H133.4z M133.4,14.5h-3.7v2h3.7V14.5z M135.1,13.1h3.7v-2h-3.7V13.1z
					 M138.8,14.5h-3.7v2h3.7V14.5z M137.9,17.9h-2.7v1.8c1.4-0.1,2.7-0.1,3.8-0.2C138.7,18.9,138.3,18.4,137.9,17.9z"/>
				<path class="st2" d="M148,19h6.1c0,4.6-0.2,7.7-0.5,9.2c-0.3,1.6-1.7,2.4-4.3,2.5c-0.7,0-1.5-0.1-2.2-0.1l-0.5-1.9
					c0.7,0.1,1.5,0.1,2.3,0.1c1.6,0,2.5-0.5,2.8-1.5c0.2-1,0.4-3.2,0.4-6.5h-6.2l0.9-8.1h5.3V8.3h-6V6.4h8v8.2h-5.5L148,19z
					 M161.6,16.1v-2.4h2v2.4h5.6v7h-5.6v4.4c1.4-0.2,2.7-0.4,3.9-0.6c-0.3-0.8-0.6-1.5-0.9-2.3l1.7-0.5c1,2.2,1.8,4.1,2.4,5.9
					l-1.9,0.7c-0.2-0.8-0.5-1.5-0.7-2.2c-3,0.7-7.3,1.3-12.8,1.8l-0.3-2c2.4-0.1,4.5-0.3,6.6-0.5v-4.7h-5.7v-7
					C155.9,16.1,161.6,16.1,161.6,16.1z M170.5,13.3l-1.8,0.9c-0.3-0.6-0.6-1.3-1-1.8c-3.6,0.4-7.6,0.8-12.1,1l-0.3-1.8
					c1.5-0.6,3.4-2.7,5.7-6.5l2,0.7c-1.5,2.3-3,4.2-4.5,5.6c2.9-0.2,5.6-0.4,8.2-0.7c-0.6-1-1.2-1.9-1.8-2.7l1.7-0.8
					C168,9,169.3,11.1,170.5,13.3z M161.6,17.9h-3.9v3.4h3.9V17.9z M167.4,17.9h-3.8v3.4h3.8V17.9z"/>
			</g>
			<g class="st1">
				<path class="st2" d="M184.7,49.8v1.8h-8v-1.8H184.7z M186.6,66.2c-2.1,1.1-5.1,2-9,2.7l-0.9-1.6c3.9-0.6,6.9-1.5,8.9-2.5
					L186.6,66.2z M184.1,44.7v1.7h-6.9v-1.7H184.1z M198.1,53.6v11.1H180V53.6H198.1z M196.1,56.9v-1.7H182v1.7H196.1z M196.1,59.9
					v-1.6H182v1.6H196.1z M196.1,61.3H182v1.8h14.1V61.3z M185.8,49.5l-1.1-1.5c2-1.4,3.4-3.1,4.2-5l1.8,0.2c-0.2,0.5-0.4,1-0.6,1.5
					h10v1.4c-0.7,1.5-1.5,2.7-2.4,3.7l-1.4-1.1c0.6-0.7,1.2-1.5,1.8-2.4h-9C188.2,47.6,187.1,48.6,185.8,49.5z M194.1,47.2
					c-0.1,0.4-0.3,0.9-0.4,1.3c2,2,4.6,3.3,7.8,3.7l-0.8,1.7c-3.1-0.5-5.6-1.8-7.7-3.9c-1.3,1.8-3.5,3.1-6.5,3.6l-1-1.5
					c3.9-0.7,6.2-2.4,6.9-5.2L194.1,47.2z M201.3,67.3l-0.7,1.6c-3-1.1-6.1-2-9.4-2.6L192,65C195.2,65.5,198.3,66.3,201.3,67.3z"/>
				<path class="st2" d="M206.3,53.4l-1.2-1.7c4.9-2.2,8.8-5,11.9-8.3h1.6c2.7,3.3,6.6,6.1,11.8,8.3l-1.1,1.7
					c-1.5-0.6-2.9-1.3-4.1-2.1v1.5h-6.4v4h10v1.9h-10v7.5h3.1c1-1.8,1.8-3.8,2.5-5.9l1.8,0.6c-0.7,2-1.5,3.7-2.3,5.2h5.8V68h-23.9
					v-1.9h5.8c-0.6-1.8-1.3-3.4-2.2-5l1.8-0.7c0.9,1.6,1.7,3.5,2.4,5.7h3.2v-7.5h-10v-1.9h10v-4h-6.4v-1.6
					C209.1,51.9,207.7,52.7,206.3,53.4z M217.8,45.3c-2.1,2.2-4.5,4.1-7.1,5.7h13.9C222,49.3,219.7,47.4,217.8,45.3z"/>
				<path class="st2" d="M245.1,61.9c0.6-0.2,1.3-0.4,1.9-0.6v1.9c-3.6,1.2-7.9,2.3-12.7,3.3l-0.6-2c0.7-0.1,1.3-0.3,2-0.4V44.8h9.4
					L245.1,61.9L245.1,61.9z M243.2,50.6v-4h-5.4v4H243.2z M243.2,56.7v-4.2h-5.4v4.2H243.2z M243.2,62.4v-3.9h-5.4v5.2
					C239.7,63.3,241.4,62.8,243.2,62.4z M252.2,43.3v5.6h6.2c0,8.7-0.1,14.1-0.4,16.2c-0.3,2.3-1.7,3.5-4.2,3.5
					c-0.4,0-1.2,0-2.4-0.1l-0.5-1.8c1,0.1,1.8,0.1,2.5,0.1c1.5,0,2.4-0.8,2.6-2.5c0.2-1.5,0.3-6,0.3-13.5h-4.2v0.4
					c-0.1,8.1-2.1,14-6,17.7l-1.5-1.3c3.6-3.4,5.4-8.8,5.5-16.4v-0.4h-3.5v-2h3.5v-5.6h2.1V43.3z"/>
				<path class="st2" d="M263,47.8v-2h10.4v2h-4.3v13.4c1.5-0.5,3-1,4.4-1.6v2c-3.2,1.3-6.6,2.4-10.2,3.2l-0.5-2
					c1.5-0.3,2.9-0.6,4.3-1v-14C267.1,47.8,263,47.8,263,47.8z M272.7,57.1l-1.3-1.5c2.4-3.1,4-7.3,4.8-12.6l2,0.3
					c-0.3,1.5-0.6,2.9-0.9,4.1h10.3v1.9h-2.4c-0.2,4.7-1.5,8.7-3.8,12c1.9,2.2,4.3,4.2,7,5.9l-1.3,1.5c-2.7-1.8-5-3.7-6.9-5.9
					c-2.1,2.3-4.7,4.3-8,5.9L271,67c3.3-1.5,5.9-3.3,7.9-5.6c-1.6-2.1-2.9-4.4-3.8-6.8l1.6-0.9c0.9,2.2,2,4.2,3.5,6.1
					c2-2.9,3-6.4,3.2-10.5h-6.5C275.7,52.5,274.4,55.1,272.7,57.1z"/>
				<path class="st2" d="M305.5,63.1c0.3,0.3,0.5,0.7,0.5,1.2s-0.2,0.9-0.5,1.2c-0.3,0.3-0.8,0.5-1.2,0.5s-0.9-0.2-1.2-0.5
					c-0.3-0.3-0.5-0.7-0.5-1.2s0.1-0.9,0.5-1.2c0.3-0.3,0.7-0.5,1.2-0.5S305.1,62.8,305.5,63.1z M305.6,46l-0.4,14.6h-1.7L303,46
					H305.6z"/>
			</g>
			<g id="Group-43" transform="translate(0.000000, 106.000000)">
				<g class="st1">
					<path class="st7" d="M34.3,8.1v1.2c-0.7,1.2-1.6,2.4-2.5,3.6h2.8v1c-0.3,1.7-0.8,3.1-1.3,4.2c0.1,0.1,0.3,0.2,0.4,0.3
						c0.6,0.6,1.2,1.1,1.9,1.4c0.6,0.3,1.5,0.4,2.6,0.4s2.3,0,3.7,0c1.6,0,3.7,0,6.3-0.1l-0.4,1.5H42c-1.5,0-2.8,0-3.9-0.1
						c-1.3,0-2.4-0.2-3-0.5c-0.8-0.4-1.5-0.9-2.2-1.6c-0.2-0.1-0.3-0.2-0.5-0.2c-0.5,0-1.2,0.9-2.2,2.8l-1.1-1c1-1.9,2-3,2.9-3.2
						c0.5-1.1,0.9-2.3,1.2-3.7H30V13c1-1.2,1.9-2.4,2.7-3.5h-3.4V8.1H34.3z M34,6.1l-1,1c-0.8-0.9-1.8-2-3.1-3l1-1
						C32.1,4.1,33.2,5.1,34,6.1z M38.5,10.2c-0.2,3.4-1,6.1-2.4,8.2l-1-1.1c1.3-1.9,2-4.5,2.1-7.8V4.2c3.2-0.1,6.1-0.5,8.7-1.2
						l0.7,1.3c-2.4,0.7-5.1,1-8,1.2v3.3h9v1.4H44v8.9h-1.4v-8.9C42.6,10.2,38.5,10.2,38.5,10.2z"/>
					<path class="st7" d="M69.4,18.4v1.5H50.7v-1.5H69.4z M67.5,5.2v1.5H52.6V5.2H67.5z"/>
					<path class="st7" d="M73.1,10.4l-1-1.3c2.1-1.6,3.5-3.8,4.3-6.5L77.9,3c-0.2,0.8-0.5,1.5-0.8,2.2h13v1.5h-6.6V10h5.9v1.4h-5.9
						V16h7.3v1.5h-7.3v4.7H82v-4.7h-9.7V16h3.5v-6H82V6.7h-5.6C75.5,8.2,74.4,9.4,73.1,10.4z M82,16v-4.5h-4.7V16H82z"/>
					<path class="st7" d="M99.9,7.8v1.3h-6V7.8H99.9z M101.4,20.1c-1.6,0.8-3.8,1.5-6.7,2L93.9,21c2.9-0.5,5.2-1.1,6.7-1.8
						L101.4,20.1z M99.5,4.1v1.3h-5.2V4.1H99.5z M109.9,10.7V19H96.4v-8.3H109.9z M108.4,13.2v-1.3H97.9v1.3H108.4z M108.4,15.4
						v-1.2H97.9v1.2H108.4z M108.4,16.5H97.9v1.3h10.6L108.4,16.5L108.4,16.5z M100.8,7.7L100,6.6c1.5-1,2.6-2.3,3.1-3.8l1.4,0.2
						c-0.1,0.4-0.3,0.8-0.5,1.1h7.5v1.1c-0.5,1.1-1.2,2-1.8,2.8l-1-0.8c0.5-0.5,0.9-1.1,1.3-1.8h-6.7C102.5,6.2,101.7,7,100.8,7.7z
						 M107,5.9c-0.1,0.3-0.2,0.7-0.3,0.9c1.5,1.5,3.5,2.5,5.8,2.8l-0.6,1.3c-2.3-0.4-4.2-1.3-5.8-3c-1,1.4-2.6,2.3-4.9,2.7l-0.7-1.1
						c2.9-0.5,4.6-1.8,5.2-3.9L107,5.9z M112.4,21l-0.5,1.2c-2.2-0.8-4.6-1.5-7-1.9l0.5-1.1C107.8,19.6,110.1,20.2,112.4,21z"/>
					<path class="st7" d="M116,10.5l-0.9-1.3c3.7-1.6,6.6-3.7,8.9-6.3h1.2c2,2.5,5,4.6,8.9,6.2l-0.9,1.3c-1.1-0.5-2.1-1-3.1-1.6V10
						h-4.8v3h7.5v1.4h-7.5V20h2.3c0.7-1.4,1.3-2.8,1.9-4.4l1.4,0.5c-0.5,1.5-1.1,2.8-1.7,3.9h4.3v1.4h-18V20h4.3
						c-0.4-1.3-1-2.6-1.7-3.8l1.4-0.5c0.7,1.2,1.2,2.6,1.8,4.3h2.4v-5.6h-7.5V13h7.5v-3h-4.8V8.8C118.2,9.5,117.1,10,116,10.5z
						 M124.7,4.4c-1.6,1.6-3.3,3.1-5.3,4.3h10.5C127.8,7.5,126.1,6.1,124.7,4.4z"/>
					<path class="st7" d="M143.6,3.7v1.2c-0.6,1.8-1.3,3.8-2.1,5.8c1.3,1.8,2,3.4,2.1,4.9c0,1-0.2,1.7-0.6,2.1
						c-0.5,0.5-1.5,0.8-2.9,0.8l-0.5-1.6c0.3,0,0.6,0.1,0.8,0.1c0.7,0,1.2-0.2,1.4-0.4c0.2-0.2,0.4-0.6,0.4-1.1c0-1.4-0.7-3-2.1-4.7
						c0.9-2.1,1.6-4.1,2.1-5.8H139v17h-1.5V3.7H143.6z M148.9,15.8v-2.1h1.4v2.1h4.4v1.4h-4.4V20h5.3v1.4h-12.1V20h5.3v-2.8h-4.2
						v-1.4C144.6,15.8,148.9,15.8,148.9,15.8z M148.9,5.1V3h1.4v2.1h4.3v1.4h-4.3v2.1h5V10h-2.9v1.6c0,0.4,0.2,0.7,0.6,0.7h2.4v1.2
						h-3c-0.9,0-1.4-0.4-1.4-1.3V10h-2.4c-0.6,2-1.9,3.5-4.1,4.6l-0.7-1.3c1.8-0.8,2.9-1.9,3.3-3.3h-3.3V8.6h5V6.5h-4.1V5.1H148.9z"
						/>
					<path class="st7" d="M160.2,16.9c-0.1,1.8-0.3,3.4-0.7,4.8l-1.3-0.4c0.4-1.3,0.7-2.9,0.7-4.6L160.2,16.9z M165.7,15.2l-1.2,0.3
						l-0.2-1.1c-1.9,0.6-3.7,0.9-5.4,1.2l-0.4-1.3c0.3-0.1,0.5-0.2,0.6-0.4c0.8-0.8,1.7-2.1,2.9-4c-1.1,0.2-2.2,0.3-3.3,0.5
						l-0.4-1.2c0.2-0.1,0.4-0.3,0.6-0.5c1.1-1.7,2.1-3.6,2.9-5.8l1.3,0.5c-1,2.4-2.1,4.3-3.2,5.7c0.9-0.1,1.8-0.2,2.8-0.4
						c0.4-0.8,0.9-1.6,1.4-2.5l1.3,0.5c-2,3.5-3.6,6-4.9,7.5c1.2-0.2,2.4-0.5,3.5-0.8c-0.2-0.7-0.4-1.3-0.5-1.9l1.2-0.4
						C165,12.3,165.3,13.7,165.7,15.2z M163.1,20.8l-1.3,0.3c-0.1-1.6-0.3-3.1-0.5-4.3l1.2-0.3C162.7,17.8,162.9,19.2,163.1,20.8z
						 M165.7,19.5l-1.1,0.5c-0.3-1.4-0.6-2.6-0.9-3.7l1.1-0.4C165,17,165.4,18.2,165.7,19.5z M176.3,12.6v6.9h-3.2
						c1.6,0.5,3.1,1,4.4,1.7l-0.7,1.1c-1.4-0.8-2.9-1.4-4.4-1.8l0.6-0.9h-3.3l0.8,0.9c-1.3,0.7-2.8,1.3-4.7,1.8l-0.5-1.1
						c1.8-0.4,3.3-0.9,4.4-1.6h-2.8v-6.9h9.4V12.6z M170.8,4V2.8h1.4V4h4.8v1.1h-4.8v1.1h4.2v1h-9.9v-1h4.2V5.1H166V4H170.8z
						 M176.8,8.1v3.5h-10.7V8.1H176.8z M169.5,9.1h-2v1.6h2V9.1z M174.8,14.7v-1.2h-6.7v1.2H174.8z M174.8,16.5v-1h-6.7v1H174.8z
						 M174.8,17.4h-6.7v1.1h6.7V17.4z M172.5,9.1h-2v1.6h2V9.1z M175.6,9.1h-2v1.6h2V9.1z"/>
					<path class="st7" d="M197.7,21.8h-1.5v-0.9h-13.9v0.9h-1.5V4.1h16.8L197.7,21.8L197.7,21.8z M196.3,19.5V5.4h-13.9v14.1H196.3z
						 M193.4,8.7v7.5h-8.1V8.7C185.3,8.7,193.4,8.7,193.4,8.7z M192,10h-5.3v4.9h5.3V10z"/>
					<path class="st7" d="M206,11.2l-1.1,1.1c-0.8-1-1.9-2-3.4-3.1l1.1-1C203.9,9.2,205.1,10.2,206,11.2z M206.1,14.2
						c-0.8,2.7-1.7,5.2-2.8,7.5l-1.4-0.6c1.1-2.4,2-4.9,2.8-7.4L206.1,14.2z M206.4,5.8l-1.1,1.1c-0.8-0.9-1.9-1.8-3.3-2.8l1.1-1
						C204.4,4,205.5,4.9,206.4,5.8z M210,12.6c-0.1,2.7-0.4,4.7-0.8,6c-0.5,1.3-1.4,2.5-2.5,3.4l-1-1.2c1-0.8,1.7-1.8,2.2-2.9
						c0.4-1.1,0.6-2.9,0.7-5.4h1.4V12.6z M213.8,3.2c-0.3,0.6-0.5,1.2-0.8,1.7h6.8v1.4h-7.6c-0.9,1.5-1.9,2.8-3,3.9
						c2.6-0.1,5.1-0.3,7.5-0.6c-0.5-0.7-1-1.3-1.5-1.9l1.2-0.7c1.5,1.8,2.7,3.3,3.5,4.6l-1.3,0.9c-0.3-0.5-0.7-1.1-1.1-1.7
						c-3.3,0.4-6.6,0.6-10,0.8l-0.4-1.3c1.3-1,2.4-2.3,3.4-3.9H207V4.9h4.4c0.3-0.7,0.7-1.4,1-2.1L213.8,3.2z M213.7,12.6v9.1h-1.5
						v-9.1H213.7z M216.2,19.8v-7.2h1.4v7c0,0.5,0.2,0.7,0.6,0.7h2.2v1.4h-2.7C216.7,21.7,216.2,21.1,216.2,19.8z"/>
					<path class="st7" d="M226.2,16c-0.5,2.1-1.3,4-2.2,5.5l-1.2-0.8c1-1.5,1.7-3.2,2.1-5L226.2,16z M223,10.8V9.4h2.4
						c-0.3-0.8-0.6-1.6-1-2.4l1.3-0.5c0.4,0.8,0.7,1.7,1,2.9h2.3c0.4-0.9,0.7-1.8,0.9-2.9l1.4,0.5c-0.3,0.9-0.6,1.7-0.9,2.4h2.4v1.4
						h-4.1v2.3h3.8v1.4h-3.8v7.6h-1.5v-7.6h-3.8v-1.4h3.8v-2.3H223z M227.2,4.7c-0.3-0.6-0.6-1.2-0.9-1.7l1.6-0.3
						c0.3,0.6,0.5,1.3,0.8,2h4v1.4h-9.5V4.7H227.2z M232.1,19.2l-1.3,0.5c-0.4-1.3-0.8-2.6-1.3-3.8l1.3-0.3
						C231.4,16.9,231.8,18.1,232.1,19.2z M241.5,4.4c-1.8,0.7-3.9,1.1-6.2,1.2v3.9h6.7V11h-2.2v11.2h-1.5V11h-3v2.3
						c-0.1,3.7-0.9,6.6-2.4,8.8l-1.1-1.1c1.3-1.8,1.9-4.4,2-7.6v-9c2.5,0,4.8-0.5,6.9-1.4L241.5,4.4z"/>
					<path class="st7" d="M257.8,15.9h2.4l0.1-2.8h-1.8v-1.3h1.9l0.1-2.6h-2V7.9h2.1l0.1-2.8h-2.2V3.6h3.7l-0.4,12.3h1.6v1.4h-18.8
						v-1.4h1.7l-0.5-11.8c1.3-0.3,2.4-0.7,3.4-1.2l0.5,1.3c-0.5,0.3-1.4,0.6-2.5,1l0.1,2.8h2.1v1.3h-2l0.1,2.6h1.9v1.3h-1.8l0.1,2.8
						h2.4V3.7h7.7L257.8,15.9L257.8,15.9z M251.9,18.7c-1.6,1.3-3.7,2.4-6,3.4l-0.9-1.2c2.4-0.9,4.3-1.9,6-3.1L251.9,18.7z
						 M256.6,15.9v-11h-5.2v11H256.6z M255.7,6.4v1.1h-3.4V6.4H255.7z M255.6,8.9v5.7h-3.3V8.9C252.3,8.9,255.6,8.9,255.6,8.9z
						 M254.7,9.9h-1.3v3.5h1.3V9.9z M263.2,20.8l-0.9,1.3c-2.1-1.4-4.2-2.6-6.3-3.4l0.8-1.1C259.1,18.5,261.3,19.6,263.2,20.8z"/>
					<path class="st7" d="M274.7,5.3c-0.3-0.9-0.7-1.7-1.1-2.4l1.6-0.3c0.3,0.8,0.7,1.7,1,2.6h8.6v1.4h-8.5v2.8h6.8V17
						c0,1.3-0.7,1.9-1.9,1.9h-2.1l-0.4-1.4l2,0.1c0.6,0,0.9-0.3,0.9-0.9v-5.8h-5.3V22h-1.6V10.9h-5.1v8.2h-1.5V9.4h6.6V6.7h-8.5V5.3
						H274.7z"/>
					<path class="st7" d="M290,8.4V2.9h1.4v5.5h2.3v1.5h-2.3v7c0.8-0.3,1.5-0.6,2.2-0.9v1.5c-1.8,0.8-3.8,1.5-5.9,2l-0.4-1.4
						c0.9-0.2,1.7-0.4,2.6-0.7V9.9h-2.4V8.4H290z M306.6,11.1v1.3h-8c-0.3,0.5-0.5,0.9-0.8,1.3h8.1c0,2-0.1,3.6-0.3,4.9
						c-0.2,1.2-0.4,2.1-0.8,2.6s-1,0.7-1.8,0.8h-1.6l-0.4-1.4c0.4,0,0.9,0.1,1.3,0.1c0.9,0,1.4-0.4,1.7-1.1c0.3-0.7,0.4-2.3,0.5-4.6
						h-1.2c-1.4,3.5-3.8,5.9-7,7l-0.8-1.2c3-1,5.2-2.9,6.5-5.8h-1.8c-1.1,1.9-2.9,3.4-5.3,4.4l-0.9-1c2.2-0.9,3.8-2,4.8-3.4h-2.1
						c-0.6,0.5-1.3,1-2,1.5l-0.8-1.1c1.5-0.8,2.6-1.8,3.4-2.9h-3v-1.3L306.6,11.1L306.6,11.1z M305.1,3.6v6.3h-9.7V3.6H305.1z
						 M303.7,6.2V4.8h-6.9v1.4H303.7z M303.7,7.3h-6.9v1.4h6.9V7.3z"/>
				</g>
				<g class="st1">
					<path class="st7" d="M34.4,35.4c-1,2.3-2.7,4.3-5.1,6.1L28.9,40c1.9-1.5,3.3-3.3,4.2-5.3L34.4,35.4z M29.4,47.3L29,45.8
						c1.9-1.6,3.4-3.3,4.2-5.2l1.3,0.6c-0.4,0.8-0.8,1.5-1.3,2.2V54h-1.6v-8.8C31,46,30.2,46.6,29.4,47.3z M42.7,43.1v3H47v1.5h-4.3
						v4.8c0.7,0.1,1.5,0.2,2.4,0.2c1,0,2.1,0,3.2-0.1L48,53.9h-2.2c-2.7,0-4.7-0.4-5.9-1.1c-0.9-0.5-1.7-1.5-2.3-3
						c-0.5,1.6-1.1,3-2,4.4l-1.2-1c1.5-2.6,2.4-5.5,2.5-8.7l1.4,0.2c-0.1,1.1-0.2,2.2-0.4,3.2c0.7,2,1.5,3.3,2.4,3.9
						c0.2,0.1,0.4,0.2,0.7,0.3v-8.9h1.7V43.1z M36.4,42.8l-1-1.2c1.3-1.7,2.2-4,2.7-6.9l1.5,0.3c-0.2,1.1-0.4,2.1-0.7,3.1
						c0.8,0.7,1.5,1.5,2.3,2.3l-0.9,1.3c-0.8-1-1.4-1.8-1.9-2.4C37.8,40.7,37.2,41.9,36.4,42.8z M42.4,42.6l-1-1.2
						c1.3-1.6,2.2-3.9,2.6-6.7l1.5,0.3c-0.2,1.2-0.5,2.2-0.8,3.2c0.9,0.8,1.9,1.7,2.9,2.8l-0.9,1.4c-1-1.3-1.8-2.2-2.4-2.9
						C43.7,40.7,43.1,41.7,42.4,42.6z"/>
					<path class="st7" d="M59.5,37.9c0.9,0.8,1.3,1.9,1.3,3.2s-0.5,2.5-1.5,3.5c-0.5,0.5-1.6,1.4-3.1,2.4c-1.9,1.3-3,2.4-3.3,3.4
						h7.9V52h-10c0-1.4,0.5-2.6,1.5-3.7c0.6-0.7,1.7-1.6,3.3-2.7c1.2-0.8,2-1.4,2.4-1.9c0.8-0.8,1.2-1.7,1.2-2.7
						c0-0.9-0.3-1.6-0.8-2.1S57,38.2,56,38.2s-1.8,0.3-2.4,1c-0.6,0.7-0.9,1.7-0.9,3H51c0-1.7,0.5-3,1.4-4s2.2-1.5,3.7-1.5
						C57.4,36.7,58.6,37.1,59.5,37.9z"/>
					<path class="st7" d="M73,39.1c0.8,1.3,1.2,3.1,1.2,5.4s-0.4,4.1-1.2,5.4c-0.9,1.6-2.3,2.4-4.1,2.4c-1.8,0-3.1-0.8-4.1-2.4
						c-0.8-1.3-1.2-3.2-1.2-5.4s0.4-4.1,1.2-5.4c0.9-1.6,2.2-2.4,4.1-2.4C70.8,36.7,72.1,37.5,73,39.1z M66.1,40.3
						c-0.4,1-0.6,2.4-0.6,4.2c0,1.7,0.2,3.1,0.6,4.2c0.6,1.4,1.6,2.2,2.9,2.2s2.3-0.7,2.9-2.2c0.4-1,0.7-2.4,0.7-4.2
						s-0.2-3.1-0.7-4.2c-0.6-1.4-1.6-2.2-2.9-2.2S66.7,38.9,66.1,40.3z"/>
					<path class="st7" d="M82,37v15h-1.7V39.1c-0.9,1-2.1,1.6-3.5,2.1v-1.7c0.7-0.2,1.4-0.5,2.1-0.9c0.7-0.5,1.3-1,1.8-1.5L82,37
						L82,37z"/>
					<path class="st7" d="M94.7,37.8c0.9,0.7,1.3,1.7,1.3,3c0,1.7-0.8,2.8-2.5,3.4c0.9,0.3,1.6,0.7,2,1.3c0.5,0.6,0.8,1.3,0.8,2.2
						c0,1.4-0.5,2.5-1.4,3.3c-1,0.9-2.2,1.3-3.8,1.3c-1.4,0-2.6-0.4-3.5-1.1c-1.1-0.9-1.7-2.2-1.8-3.8h1.7c0,1.2,0.4,2.1,1.2,2.7
						c0.6,0.5,1.4,0.8,2.4,0.8c1.1,0,1.9-0.3,2.6-0.9c0.6-0.6,0.9-1.3,0.9-2.2s-0.3-1.6-0.9-2.1S92.3,45,91.3,45h-1.2v-1.3h1.2
						c1,0,1.8-0.2,2.3-0.7s0.8-1.1,0.8-2s-0.3-1.5-0.8-2s-1.3-0.7-2.3-0.7s-1.8,0.3-2.4,0.8s-0.9,1.3-1,2.3h-1.7
						c0.1-1.4,0.7-2.6,1.6-3.4c0.9-0.8,2-1.2,3.5-1.2S93.9,37.1,94.7,37.8z"/>
					<path class="st7" d="M99.9,42.4l-1-1.3c2.1-1.6,3.5-3.8,4.3-6.5l1.6,0.3c-0.2,0.8-0.5,1.5-0.8,2.2h13v1.5h-6.6V42h5.9v1.4h-5.9
						V48h7.3v1.5h-7.3v4.7h-1.5v-4.7h-9.7V48h3.5v-6h6.2v-3.4h-5.6C102.4,40.2,101.3,41.4,99.9,42.4z M108.9,48v-4.5h-4.7V48H108.9z
						"/>
					<path class="st7" d="M122.7,50.2c-0.1,1.5-0.5,2.8-1,4l-1.3-0.4c0.6-1.1,0.9-2.3,1.1-3.7L122.7,50.2z M125.6,49.2l-1,0.4
						c-0.1-0.3-0.1-0.7-0.2-1c-1.3,0.3-2.4,0.5-3.5,0.6l-0.2-1c0.6-0.4,1.3-1.2,2.2-2.6c-0.7,0.1-1.4,0.2-2.2,0.3l-0.2-0.9
						c0.8-0.6,1.4-1.6,1.9-3.1l1.2,0.1c-0.5,1.2-1,2.1-1.6,2.8c0.5-0.1,1-0.1,1.5-0.2c0.3-0.5,0.6-1,0.9-1.5l1.1,0.4
						c-1.4,2.3-2.5,3.8-3.3,4.6c0.6-0.1,1.2-0.2,2-0.4c-0.1-0.5-0.3-0.9-0.4-1.3l0.9-0.3C125,47.1,125.3,48.1,125.6,49.2z
						 M129.5,35.6v5.9h-8.1v-5.9H129.5z M128.2,38.1v-1.3h-5.4v1.3H128.2z M128.2,39.1h-5.4v1.3h5.4V39.1z M125.5,53.7l-1.2,0.3
						c-0.2-1.4-0.4-2.6-0.6-3.6l1.2-0.2C125.1,51.2,125.3,52.4,125.5,53.7z M130.7,48.8l-0.9,0.4c-0.1-0.3-0.1-0.6-0.2-0.8
						c-1.3,0.3-2.4,0.6-3.4,0.8l-0.2-1c0.5-0.4,1.1-1.2,1.9-2.6c-0.7,0.1-1.4,0.2-2.2,0.3l-0.2-0.9c0.7-0.6,1.3-1.6,1.7-3.1l1.2,0.1
						c-0.4,1.1-0.9,2.1-1.5,2.8c0.5-0.1,1.1-0.2,1.6-0.3c0.3-0.5,0.5-1,0.8-1.6l1.1,0.4c-1.2,2.3-2.2,3.9-2.9,4.7
						c0.6-0.1,1.2-0.3,2-0.5c-0.2-0.5-0.4-1-0.5-1.4l0.9-0.3C130.1,46.8,130.4,47.8,130.7,48.8z M128.2,53.4l-1.2,0.3
						c-0.3-1.3-0.6-2.5-1-3.5l1.1-0.2C127.5,51,127.9,52.1,128.2,53.4z M130.6,52.2l-1,0.5c-0.4-1-0.8-2-1.3-2.8l1-0.4
						C129.8,50.4,130.2,51.3,130.6,52.2z M134.4,51.1c-0.9,1.2-2,2.2-3.2,3.1l-0.8-1.1c1.2-0.8,2.2-1.8,3.1-2.9L134.4,51.1z
						 M134,38.8c0.2-0.6,0.3-1.2,0.4-1.8h-3.8v-1.3h8.9V37h-3.7c-0.1,0.6-0.2,1.2-0.4,1.8h3.4v10.9h-7.5V38.8H134z M137.4,41.9V40
						h-4.7v1.9H137.4z M137.4,45.1v-1.9h-4.7v1.9H137.4z M137.4,46.3h-4.7v2.1h4.7V46.3z M139.6,53.1l-0.9,0.9
						c-0.7-0.9-1.7-1.9-2.9-3l0.9-0.8C137.8,51.2,138.8,52.1,139.6,53.1z"/>
					<path class="st7" d="M150.3,40v-1.5h1.4V40h4.3v1.3h-4.3V43h2c1.8-1.1,3.5-2.4,4.9-3.9l1.1,0.8c-1.1,1.1-2.3,2.2-3.5,3h4.3v1.3
						h-6.4c-0.3,0.2-0.7,0.4-1,0.5c-0.8,0.4-1.7,0.8-2.6,1.2h7.6v8h-1.5V53h-9.1v0.9H146v-6.4c-1.1,0.4-2.3,0.7-3.6,1.1l-0.6-1.3
						c3.4-0.7,6.5-1.7,9.3-3.1h-8.7V43h7.7v-1.7h-5.7V40H150.3z M147,36.2V35h1.5v1.2h2.5v1.3h-2.5V39H147v-1.5h-4.5v-1.3H147z
						 M156.7,47.4h-9.1V49h9.1V47.4z M147.6,52h9.1v-1.7h-9.1V52z M156.1,34.9v1.2h4.5v1.3h-4.5V39h-1.5v-1.5H152v-1.3h2.6V35
						L156.1,34.9L156.1,34.9z"/>
					<path class="st7" d="M168,43.5l-1.1,1c-0.8-1.1-2-2.2-3.5-3.4l1-1C165.9,41.3,167,42.4,168,43.5z M168.1,46.3
						c-0.9,2.7-1.9,5.2-3,7.6l-1.4-0.6c1.2-2.5,2.2-5,3.1-7.5L168.1,46.3z M168.7,38.4l-1,1c-0.9-1-2.1-2.1-3.7-3.3l1-1
						C166.5,36.3,167.7,37.4,168.7,38.4z M182,41.8c-0.7,3.2-1.7,5.9-2.9,7.9v0.1c0.4,1.6,0.9,2.5,1.4,2.6c0.4,0,0.8-1.3,1.1-3.8
						l1.2,0.8c-0.4,3-1.1,4.5-2.2,4.5c-0.6,0-1.1-0.4-1.6-1.1c-0.3-0.5-0.6-1.1-0.8-1.7c-0.9,1.1-1.8,2-2.9,2.6l-0.8-1.1
						c1.3-0.8,2.4-1.8,3.3-3.1c0-0.2-0.1-0.4-0.1-0.5c-0.3-1.7-0.5-5-0.6-9.9h-6.2v6.6c0,3.5-0.7,6.3-2,8.4l-1.1-1
						c1.1-1.8,1.6-4.2,1.7-7.4v-8h7.6c0-0.9,0-1.8,0-2.8h1.4c0,1,0,1.9,0,2.8h1.9c-0.3-0.8-0.6-1.5-0.9-2.1l1.2-0.2
						c0.3,0.7,0.6,1.5,0.9,2.4h1v1.4h-4.1c0,3.8,0.2,6.6,0.4,8.5c0.9-1.8,1.6-3.9,2-6.4L182,41.8z M176.2,41v1.3h-4.5V41H176.2z
						 M176,44v5.9h-4.1V44H176z M174.9,45.1H173v3.7h1.9V45.1z"/>
					<path class="st7" d="M185.5,37.4V36h6.7v1.5h-3c-0.3,1.7-0.7,3.3-1.2,4.7h3.8v10h-3.5v1.3h-1.4v-8.6c-0.4,0.8-0.8,1.5-1.3,2.2
						l-0.8-1.2c1.5-2.4,2.5-5.2,2.9-8.3h-2.2V37.4z M190.5,50.8v-7.3h-2.2v7.3H190.5z M194.7,47.6c-0.3,2.2-0.7,4.1-1.1,5.7
						l-1.3-0.4c0.5-1.4,0.9-3.3,1.3-5.5L194.7,47.6z M203.7,45c0,4.5-0.3,7.1-0.7,7.9c-0.5,0.8-1.4,1.1-2.7,1.1c-0.5,0-1.1,0-1.6,0
						l-0.3-1.3c0.6,0,1.2,0.1,1.7,0.1c1.2,0,1.8-0.4,2-1.3c0.2-0.9,0.3-2.6,0.3-5.2h-8.7V35.6h9.9v1.3h-3.8v1.9h3.4V40h-3.4v1.9h3.5
						v1.2h-3.5V45H203.7z M195,36.9v1.9h3.2v-1.9H195z M195,41.9h3.2V40H195V41.9z M195,45h3.2v-1.8H195V45z M197,52.5l-1.2,0.1
						c-0.1-2.2-0.2-3.9-0.4-5l1.1-0.1C196.8,48.7,196.9,50.4,197,52.5z M199.4,51.4l-1.2,0.1c-0.1-1.8-0.3-3.2-0.5-4.2l1.1-0.1
						C199,48.3,199.3,49.7,199.4,51.4z M201.8,50.4l-1.1,0.4c-0.3-1.2-0.5-2.4-0.9-3.6l1-0.3C201.3,48.2,201.6,49.4,201.8,50.4z"/>
					<path class="st7" d="M217.5,52.1c-3.2,0.7-6.7,1.3-10.5,1.7l-0.3-1.4c1.7-0.2,3.3-0.4,4.9-0.7v-4h-4.1v-1.5h4.1v-2.4h1.5v2.4
						h3.8v1.5h-3.8v3.7c1.5-0.3,2.9-0.5,4.4-0.9L217.5,52.1L217.5,52.1z M217.5,35.8v1.4h-5.4c-1,2.1-2,3.7-2.8,4.7
						c2.1-0.2,4.1-0.5,5.9-0.8c-0.5-0.8-1-1.5-1.6-2.3l1.2-0.8c1.4,1.9,2.5,3.5,3.2,5l-1.3,0.9c-0.3-0.5-0.6-1.1-0.9-1.7
						c-2.6,0.5-5.6,0.9-8.7,1.2l-0.4-1.4c0.3,0,0.5-0.1,0.6-0.1c0.9-0.8,1.9-2.3,3.1-4.7H207v-1.4C207,35.8,217.5,35.8,217.5,35.8z
						 M220.7,36.8v13h-1.5v-13H220.7z M219.9,53.9l-0.3-1.5c1,0,2,0.1,2.9,0.1c0.6,0,0.9-0.3,0.9-0.9V34.9h1.5V52
						c0,1.3-0.7,1.9-1.9,1.9H219.9z"/>
					<path class="st7" d="M244.8,54.1h-1.5v-1.4h-11v1.4h-1.5V35.9h14.1v18.2H244.8z M243.3,40.8v-3.5h-11v3.5H243.3z M243.3,45.9
						v-3.7h-11v3.7H243.3z M243.3,51.2v-3.9h-11v3.9H243.3z"/>
					<path class="st7" d="M251.1,54.2l-1.1-1c1-1.6,1.4-3.5,1.5-5.9v-6.7h7.5v11.6c0,1.1-0.6,1.7-1.8,1.7h-1.9l-0.4-1.3
						c0.7,0,1.3,0.1,1.8,0.1c0.6,0,0.9-0.3,0.9-0.9v-2.1h-4.8C252.4,51.4,251.9,52.9,251.1,54.2z M264.4,35.3
						c-0.4,0.8-0.9,1.5-1.4,2.2h5.3V39h-18.1v-1.5h5.4c-0.4-0.9-0.9-1.7-1.4-2.4l1.5-0.3c0.5,0.8,1,1.6,1.4,2.6h4.1
						c0.6-0.8,1.2-1.7,1.7-2.7L264.4,35.3z M252.8,47.2c0,0.4,0,0.7,0,1h4.7v-2.5h-4.7V47.2z M257.5,42h-4.7v2.4h4.7V42z
						 M262.8,41.6v9.1h-1.4v-9.1H262.8z M262.6,53.9l-0.3-1.4c0.9,0.1,1.7,0.1,2.5,0.1c0.6,0,0.9-0.3,0.9-0.9V40.1h1.5v12
						c0,1.2-0.6,1.8-1.8,1.8C265.4,53.9,262.6,53.9,262.6,53.9z"/>
					<path class="st7" d="M271.9,53.9l-0.3-1.5c0.6,0,1.1,0.1,1.7,0.1s0.8-0.3,0.8-0.8v-5.2c-0.9,0.3-1.7,0.7-2.6,0.9l-0.4-1.5
						c1-0.3,2-0.6,3-0.9v-4.7h-2.6v-1.4h2.6v-4h1.5v4h1.8v1.4h-1.8v4.1c0.6-0.3,1.2-0.6,1.8-0.9V45c-0.6,0.3-1.2,0.6-1.8,0.9v6.2
						c0,1.2-0.6,1.8-1.8,1.8H271.9z M283.7,43.7c-0.2,0.6-0.4,1.2-0.7,1.7h7.3v1.5h-2.2c-0.3,1.6-1,2.9-2,3.9
						c1.5,0.7,2.9,1.4,4.2,2.2l-0.8,1.2c-1.3-0.8-2.8-1.6-4.5-2.4c-1.4,1-3.6,1.8-6.6,2.4l-0.6-1.4c2.4-0.4,4.3-1,5.6-1.7
						c-1.3-0.6-2.6-1.2-4.1-1.7c0.5-0.8,1-1.7,1.4-2.4H278v-1.5h3.5c0.3-0.7,0.6-1.3,0.8-1.8H283.7z M284.9,36.7h4.7v1.4h-1.5
						c-0.4,1.3-0.8,2.4-1.3,3.4h3.2V43h-11.7v-1.4h3.2c-0.3-1.2-0.8-2.4-1.3-3.4h-1.4v-1.4h4.6c-0.3-0.7-0.5-1.3-0.8-1.8l1.6-0.3
						C284.4,35.3,284.6,36,284.9,36.7z M282.3,46.8c-0.4,0.6-0.7,1.2-1.1,1.8c1.2,0.5,2.4,0.9,3.6,1.5c0.9-0.9,1.6-2,2-3.3H282.3z
						 M286.6,38.1h-4.9c0.4,1,0.8,2.1,1.2,3.4h2.4C285.8,40.4,286.2,39.3,286.6,38.1z"/>
					<path class="st7" d="M298.1,40.1v1.2c-0.7,1.2-1.6,2.4-2.5,3.6h2.8v1c-0.3,1.7-0.8,3.1-1.3,4.2c0.1,0.1,0.3,0.2,0.4,0.3
						c0.6,0.6,1.2,1.1,1.9,1.4c0.6,0.3,1.5,0.4,2.6,0.4s2.3,0,3.7,0c1.6,0,3.7,0,6.3-0.1l-0.4,1.5h-5.8c-1.5,0-2.8,0-3.9-0.1
						c-1.3,0-2.4-0.2-3-0.5c-0.8-0.4-1.5-0.9-2.2-1.6c-0.2-0.1-0.3-0.2-0.5-0.2c-0.5,0-1.2,0.9-2.2,2.8l-1.1-1c1-1.9,2-3,2.9-3.2
						c0.5-1.1,0.9-2.3,1.2-3.7h-3.2V45c1-1.2,1.9-2.4,2.7-3.5H293v-1.4H298.1z M297.9,38.1l-1,1c-0.8-0.9-1.8-2-3.1-3l1-1
						C296,36.1,297.1,37.1,297.9,38.1z M302.3,42.2c-0.2,3.4-1,6.1-2.4,8.2l-1-1.1c1.3-1.9,2-4.5,2.1-7.8v-5.3
						c3.2-0.1,6.1-0.5,8.7-1.2l0.7,1.3c-2.4,0.7-5.1,1-8,1.2v3.3h9v1.4h-3.5v8.9h-1.4v-8.9C306.5,42.2,302.3,42.2,302.3,42.2z"/>
				</g>
				<g class="st1">
					<path class="st7" d="M39.3,66.8v3.8h7.5v9.9h-1.5v-1.3h-6v7.2h-1.6v-7.2h-6v1.3h-1.5v-9.9h7.5v-3.8H39.3z M37.7,77.6V72h-6v5.6
						H37.7z M45.3,77.6V72h-6v5.6H45.3z"/>
					<path class="st7" d="M69.6,83.3v1.5h-19v-1.5h5.9c-0.7-4-1.5-7.9-2.4-11.7h-2.5v-1.4h7.9c-0.3-1.1-0.7-2.1-1.2-3.1l1.6-0.3
						c0.4,1,0.7,2.1,1,3.3h7.7v1.4H66c-0.7,4.4-1.6,8.3-2.7,11.7L69.6,83.3L69.6,83.3z M55.6,71.7c0.9,3.5,1.7,7.4,2.4,11.7h3.8
						c1-3.2,1.9-7.1,2.7-11.7H55.6z"/>
				</g>
				<g class="st1">
					<path class="st7" d="M35.3,103.8v1.3h-6v-1.3H35.3z M36.7,116.1c-1.6,0.8-3.8,1.5-6.7,2l-0.7-1.2c2.9-0.5,5.2-1.1,6.7-1.8
						L36.7,116.1z M34.8,100.1v1.3h-5.2v-1.3H34.8z M45.3,106.7v8.3H31.7v-8.3H45.3z M43.8,109.2v-1.3H33.2v1.3H43.8z M43.8,111.4
						v-1.2H33.2v1.2H43.8z M43.8,112.5H33.2v1.3h10.6C43.8,113.8,43.8,112.5,43.8,112.5z M36.1,103.7l-0.8-1.1
						c1.5-1,2.6-2.3,3.1-3.8l1.4,0.2c-0.1,0.4-0.3,0.8-0.5,1.1h7.5v1.1c-0.5,1.1-1.2,2-1.8,2.8l-1-0.8c0.5-0.5,0.9-1.1,1.3-1.8h-6.7
						C37.9,102.2,37.1,103,36.1,103.7z M42.3,101.9c-0.1,0.3-0.2,0.7-0.3,0.9c1.5,1.5,3.5,2.5,5.8,2.8l-0.6,1.3
						c-2.3-0.4-4.2-1.3-5.8-3c-1,1.4-2.6,2.3-4.9,2.7l-0.7-1.1c2.9-0.5,4.6-1.8,5.2-3.9L42.3,101.9z M47.7,117l-0.5,1.2
						c-2.2-0.8-4.6-1.5-7-1.9l0.5-1.1C43.2,115.6,45.5,116.2,47.7,117z"/>
					<path class="st7" d="M51.4,106.5l-0.9-1.3c3.7-1.6,6.6-3.7,8.9-6.3h1.2c2,2.5,5,4.6,8.9,6.2l-0.9,1.3c-1.1-0.5-2.1-1-3.1-1.6
						v1.2h-4.8v3h7.5v1.4h-7.5v5.6H63c0.7-1.4,1.3-2.8,1.9-4.4l1.4,0.5c-0.5,1.5-1.1,2.8-1.7,3.9H69v1.4H51V116h4.3
						c-0.4-1.3-1-2.6-1.7-3.8l1.4-0.5c0.7,1.2,1.2,2.6,1.8,4.3h2.4v-5.6h-7.5V109h7.5v-3h-4.8v-1.2C53.5,105.5,52.5,106,51.4,106.5z
						 M60.1,100.4c-1.6,1.6-3.3,3.1-5.3,4.3h10.5C63.2,103.5,61.5,102.1,60.1,100.4z"/>
					<path class="st7" d="M82.4,98.9v5.9h7.5v11.3c0,1.3-0.6,2-1.9,2h-2l-0.4-1.5l1.8,0.1c0.6,0,0.9-0.3,0.9-0.9v-9.5H74.9v11.9
						h-1.5v-13.3h7.4V99L82.4,98.9L82.4,98.9z M77.9,103.3l-1.3,0.6c-0.6-1.3-1.3-2.5-2.1-3.6l1.4-0.5
						C76.6,100.9,77.3,102,77.9,103.3z M85.5,108.6v6.2h-7.7v-6.2H85.5z M84,110h-4.8v3.4H84V110z M88.7,100c-0.6,1.5-1.3,2.8-2.3,4
						l-1.2-0.7c0.9-1.1,1.6-2.4,2.1-3.8L88.7,100z"/>
					<path class="st7" d="M103.9,98.9v2.9h7.2v1.5h-7.2v3.7h8.3v1.5h-6.9c1.4,2.6,3.8,5,7.3,7.1l-1,1.3c-3.6-2.5-6.1-5.3-7.5-8.4
						h-0.2v9.6h-1.6v-9.6h-0.2c-1.5,3.4-4.1,6.3-7.6,8.5l-0.9-1.4c3.4-1.8,5.8-4.2,7.3-7.1H94V107h8.3v-3.7h-7.1v-1.5h7.1v-2.9
						H103.9z"/>
					<path class="st7" d="M120.3,104.1v1.2c-0.8,1.2-1.6,2.4-2.6,3.6h2.8v1c-0.3,1.7-0.7,3.1-1.2,4.2c0.2,0.1,0.4,0.2,0.5,0.4
						c0.7,0.6,1.3,1.1,2,1.4s1.6,0.4,2.8,0.4c1.1,0,2.5,0,3.9,0c1.5,0,3.5,0,5.9-0.1l-0.3,1.4h-5.3c-1.6,0-3,0-4.2-0.1
						c-1.4,0-2.5-0.2-3.3-0.5c-0.9-0.3-1.7-0.9-2.4-1.6c-0.2-0.1-0.4-0.2-0.5-0.2c-0.5,0-1.2,0.9-2.2,2.8l-1.1-1
						c1-1.9,1.9-2.9,2.8-3.2c0.5-1.1,0.8-2.3,1.1-3.7h-3.2V109c1.1-1.2,2-2.4,2.8-3.5h-3.2v-1.4H120.3z M120.2,102l-1,1
						c-0.8-0.9-1.9-1.9-3.3-3l1-1C118.3,100.1,119.3,101.1,120.2,102z M133.5,105.7v7.9c0,1-0.6,1.6-1.8,1.6h-1.9l-0.4-1.3l1.8,0.1
						c0.5,0,0.8-0.2,0.8-0.7v-6.2h-9.1v8h-1.5v-9.3h1.4v-6.2h9.1v6.2L133.5,105.7L133.5,105.7z M130.6,100.9h-6.3v4.9h2.3v-3.1h3.9
						v-1.8H130.6z M130.2,108.3v4.5h-5.5v-4.5H130.2z M128.9,109.4H126v2.1h2.9V109.4z M130.6,105.7v-1.9h-2.7v1.9H130.6z"/>
					<path class="st7" d="M142.2,98.9v1.3h3.2v1.2h-3.2v1.6h3.8v1.2h-2v1c0,0.3,0.2,0.4,0.6,0.4h1.2v1.1H144c-0.9,0-1.4-0.5-1.4-1.4
						v-1.1h-2.1c-0.3,1.5-1.2,2.6-2.8,3.4l-1-0.9c1.4-0.6,2.2-1.4,2.5-2.5h-2.4V103h3.8v-1.6h-3.2v-1.2h3.2v-1.3H142.2z
						 M140.7,114.2c-0.8,1.5-1.6,2.8-2.6,3.9l-1.2-0.9c1-1,1.8-2.2,2.6-3.7L140.7,114.2z M142.3,106.5v1.6h2.9v1.3h-2.9v1.8
						c1.3-0.1,2.4-0.3,3.5-0.4v1.3c-2.5,0.4-5.3,0.7-8.5,0.9l-0.2-1.3c1.3-0.1,2.6-0.2,3.7-0.3v-2h-3.2v-1.3h3.2v-1.6H142.3z
						 M145,117.8l-1.5,0.3c-0.3-1.5-0.6-2.8-0.9-4l1.4-0.3C144.4,115,144.7,116.3,145,117.8z M153,112.1c-0.4-0.4-0.7-1-0.8-1.9
						c-0.2-1-0.3-2.2-0.3-3.5c0-1.2,0-2.6,0.1-4.2h-2v0.3c0,1.7-0.1,3.2-0.4,4.5c0.7,0.6,1.4,1.2,2,1.9l-0.9,1.1
						c-0.5-0.5-0.9-1-1.4-1.5c-0.5,1.8-1.3,3.2-2.3,4.3l-1-0.9c1-1.1,1.7-2.6,2.2-4.4c-0.6-0.5-1.3-1-2-1.4l0.8-1
						c0.5,0.3,1,0.7,1.4,1c0.2-1.1,0.3-2.3,0.3-3.5v-0.3h-2.1V101h2.1v-2.1h1.3v2.1h3.4c-0.1,2-0.2,3.9-0.2,5.6
						c0,1.4,0.1,2.5,0.2,3.3c0.2,0.8,0.4,1.2,0.7,1.2c0.2,0,0.3-0.3,0.4-0.8c0.1-0.4,0.2-1.1,0.2-2l1.2,0.5
						c-0.2,1.6-0.4,2.7-0.8,3.2c-0.3,0.4-0.6,0.6-0.9,0.7C153.7,112.7,153.3,112.5,153,112.1z M149.8,117.6l-1.5,0.3
						c-0.3-1.5-0.8-2.9-1.3-4.1l1.4-0.3C149,114.8,149.4,116.2,149.8,117.6z M155.3,117.2l-1.2,0.8c-0.7-1.3-1.7-2.6-2.9-4.2
						l1.2-0.8C153.7,114.7,154.6,116,155.3,117.2z"/>
					<path class="st7" d="M168.9,107.6c0.3,0.4,0.4,0.9,0.4,1.5c0,0.9-0.3,1.7-0.8,2.5c-0.5,0.7-1.3,1.1-2.2,1.4v-1
						c0.5-0.2,1-0.5,1.3-0.9s0.4-0.9,0.4-1.4c-0.1,0-0.3,0.1-0.5,0.1c-0.4,0-0.7-0.1-0.9-0.4s-0.4-0.6-0.4-0.9
						c0-0.4,0.1-0.7,0.4-0.9c0.2-0.3,0.6-0.4,1-0.4C168.2,107,168.6,107.2,168.9,107.6z"/>
					<path class="st7" d="M185.2,99.3c-0.4,1.4-0.9,2.8-1.5,4v14.8h-1.5V106c-0.7,1-1.4,2.1-2.3,3l-0.5-1.6c2-2.6,3.5-5.5,4.5-8.8
						L185.2,99.3z M185.9,101.3v-1.5H196v0.7c-0.3,2-0.7,4-1.1,6h3.4v0.7c-0.1,3.8-0.3,6.3-0.5,7.5s-0.5,2.1-1,2.5s-1.2,0.7-2.2,0.7
						h-2.5l-0.4-1.5c0.9,0,1.7,0.1,2.5,0.1s1.3-0.2,1.6-0.5s0.5-1,0.6-1.9s0.3-3,0.4-6.3h-3.7c0.5-2.3,1-4.5,1.3-6.6h-4.3v3.9
						c-0.1,5.8-1.6,10.1-4.5,12.7l-1.2-1.1c2.8-2.4,4.2-6.3,4.2-11.7v-3.9h-2.7V101.3z"/>
					<path class="st7" d="M205.4,118.1l-1.1-1c1.3-1.3,1.9-3,2-5.1v-4.9c-1.2,1.4-2.5,2.8-4.1,4l-1-1.3c2.6-2.1,4.7-4.5,6.1-7.2
						h-5.6v-1.4h6.3c0.4-0.8,0.7-1.6,0.9-2.5l1.5,0.2c-0.2,0.8-0.5,1.6-0.8,2.3H220v1.4h-11.1c-0.4,0.8-0.9,1.7-1.4,2.5h9.8v11.2
						c0,1.1-0.6,1.7-1.8,1.7h-2.2l-0.4-1.4c0.8,0,1.5,0.1,2.1,0.1c0.5,0,0.8-0.3,0.8-0.9v-2.2h-8.5
						C207.3,115.4,206.6,116.9,205.4,118.1z M207.7,111.9c0,0.1,0,0.2,0,0.4h8.4V110h-8.4V111.9z M216.1,106.4h-8.4v2.3h8.4V106.4z"
						/>
					<path class="st7" d="M228,98.9v4.2h4.3c0,6.6-0.1,10.6-0.3,12.2c-0.2,1.7-1.2,2.6-3.1,2.6c-0.3,0-0.8,0-1.6-0.1l-0.4-1.4
						c0.7,0,1.3,0.1,1.8,0.1c1.1,0,1.7-0.6,1.9-1.8c0.1-1.1,0.2-4.5,0.3-10.1H228c-0.1,6.2-1.5,10.7-4.2,13.6l-1.1-1
						c2.4-2.6,3.7-6.8,3.8-12.6h-3.4v-1.5h3.4v-4.2C226.5,98.9,228,98.9,228,98.9z M241,117.8h-1.5v-1.4h-3.9v1.4h-1.4V102h6.9v15.8
						H241z M239.6,114.9v-11.5h-3.9v11.5H239.6z"/>
					<path class="st7" d="M244.8,101.4V100h6.7v1.5h-3c-0.3,1.7-0.7,3.3-1.2,4.7h3.8v10h-3.5v1.3h-1.4v-8.6
						c-0.4,0.8-0.8,1.5-1.3,2.2l-0.8-1.2c1.5-2.4,2.5-5.2,2.9-8.3h-2.2V101.4z M249.8,114.8v-7.3h-2.2v7.3H249.8z M254,111.6
						c-0.3,2.2-0.7,4.1-1.1,5.7l-1.3-0.4c0.5-1.4,0.9-3.3,1.3-5.5L254,111.6z M263,109c0,4.5-0.3,7.1-0.7,7.9s-1.4,1.1-2.7,1.1
						c-0.5,0-1.1,0-1.6,0l-0.3-1.3c0.6,0,1.2,0.1,1.7,0.1c1.2,0,1.8-0.4,2-1.3s0.3-2.6,0.3-5.2H253V99.6h9.9v1.3H259v1.9h3.4v1.2
						H259v1.9h3.5v1.2H259v1.8L263,109L263,109z M254.4,100.9v1.9h3.2v-1.9H254.4z M254.4,105.9h3.2V104h-3.2L254.4,105.9
						L254.4,105.9z M254.4,109h3.2v-1.8h-3.2L254.4,109L254.4,109z M256.3,116.5l-1.2,0.1c-0.1-2.2-0.2-3.9-0.4-5l1.1-0.1
						C256.1,112.7,256.2,114.4,256.3,116.5z M258.7,115.4l-1.2,0.1c-0.1-1.8-0.3-3.2-0.5-4.2l1.1-0.1
						C258.4,112.3,258.6,113.7,258.7,115.4z M261.2,114.4l-1.1,0.4c-0.3-1.2-0.5-2.4-0.9-3.6l1-0.3
						C260.6,112.2,260.9,113.4,261.2,114.4z"/>
					<path class="st7" d="M282.7,109.6v1.4h-6.4v5h8.2v1.4h-17.9V116h8.1v-5h-6.4v-1.4H282.7z M274.5,102.6
						c-1.1,2.8-3.5,4.7-7.2,5.9l-0.7-1.3c3.4-1,5.6-2.6,6.4-4.8L274.5,102.6z M276.4,100.9h8v4.1h-1.5v-2.8h-4.4v3.4
						c0,0.5,0.3,0.7,0.8,0.7h4.7v1.4h-5.4c-1,0-1.6-0.5-1.6-1.4v-4.1h-8.8v2.8h-1.5v-4.1h8.2c-0.3-0.7-0.6-1.4-0.9-2l1.6-0.3
						C275.8,99.3,276.1,100.1,276.4,100.9z"/>
					<path class="st7" d="M296,106.6h-5.9v11.5h-1.5V99.6h7.4V106.6z M294.5,100.9h-4.4v1.6h4.4V100.9z M290.1,105.2h4.4v-1.6h-4.4
						V105.2z M300.9,108.1v8.1h-7.7v-8.1H300.9z M299.5,111.5v-2.2h-4.8v2.2H299.5z M299.5,112.8h-4.8v2.2h4.8V112.8z M298,106.6
						v-7.1h7.5v16.9c0,1-0.5,1.6-1.6,1.6c-0.7,0-1.4,0-2.1,0l-0.4-1.4c0.7,0,1.4,0.1,2,0.1c0.4,0,0.7-0.2,0.7-0.7v-9.3L298,106.6
						L298,106.6z M304,100.9h-4.5v1.6h4.5V100.9z M299.5,105.2h4.5v-1.6h-4.5V105.2z"/>
				</g>
				<path id="Page-1-Copy-2" class="st7" d="M15.9,15.5c4.3,0,6.6-4.3-0.5-4.3c-3.9,0-4.4,3.4-4.3,5.6h-0.5c0.1-2.9,1.1-7.7,1.1-8.9
					s-0.1-2.2-0.6-3.2C10.7,3.8,10,3,10,3S9.3,3.8,8.8,4.8S8.2,6.8,8.2,8c0,1.1,1,5.9,1.1,8.9H8.9c0.1-2.3-0.4-5.6-4.3-5.6
					c-7.1,0-4.9,4.3-0.5,4.3c0,0-0.5-0.3-0.1-0.7c0.5-0.4,3.6-0.5,3.8,2.1c-0.4,0-0.7,0.3-0.7,0.7c0,0.3,0.2,0.6,0.6,0.6
					c-0.6,3-4,1.6-4,1.6s0.8,2.7,2.5,1.9c1.2-0.5,1.8-1.5,2.4-2.9c0-0.1,0.1-0.3,0.2-0.6h0.6c-0.2,2.1-1.1,2-1.1,3.8
					c0,2.3,1.8,3,1.8,3s1.8-0.7,1.8-3c0-1.8-1-1.6-1.1-3.8h0.6c0.1,0.3,0.1,0.5,0.2,0.6c0.5,1.4,1.2,2.4,2.4,2.9
					c1.7,0.8,2.5-1.9,2.5-1.9s-3.3,1.4-4-1.6c0.3-0.1,0.6-0.3,0.6-0.6c0-0.4-0.3-0.6-0.6-0.7c0.1-2.6,3.3-2.5,3.8-2.1
					C16.4,15.3,15.9,15.5,15.9,15.5"/>
				<path id="Page-1-Copy-6" class="st7" d="M15.9,47.5c4.3,0,6.6-4.3-0.5-4.3c-3.9,0-4.4,3.4-4.3,5.6h-0.5c0.1-2.9,1.1-7.7,1.1-8.9
					c0-1.2-0.1-2.2-0.6-3.2C10.7,35.8,10,35,10,35s-0.7,0.8-1.2,1.8s-0.6,2-0.6,3.2c0,1.1,1,5.9,1.1,8.9H8.9
					c0.1-2.3-0.4-5.6-4.3-5.6c-7.1,0-4.9,4.3-0.5,4.3c0,0-0.5-0.3-0.1-0.7c0.5-0.4,3.6-0.5,3.8,2.1c-0.4,0-0.7,0.3-0.7,0.7
					c0,0.3,0.2,0.6,0.6,0.6c-0.6,3-4,1.6-4,1.6s0.8,2.7,2.5,1.9c1.2-0.5,1.8-1.5,2.4-2.9c0-0.1,0.1-0.3,0.2-0.6h0.6
					c-0.2,2.1-1.1,2-1.1,3.8c0,2.3,1.8,3,1.8,3s1.8-0.7,1.8-3c0-1.8-1-1.6-1.1-3.8h0.6c0.1,0.3,0.1,0.5,0.2,0.6
					c0.5,1.4,1.2,2.4,2.4,2.9c1.7,0.8,2.5-1.9,2.5-1.9s-3.3,1.4-4-1.6c0.3-0.1,0.6-0.3,0.6-0.6c0-0.4-0.3-0.6-0.6-0.7
					c0.1-2.6,3.3-2.5,3.8-2.1C16.4,47.3,15.9,47.5,15.9,47.5"/>
				<path id="Page-1-Copy-8" class="st7" d="M15.9,111.5c4.3,0,6.6-4.3-0.5-4.3c-3.9,0-4.4,3.4-4.3,5.6h-0.5
					c0.1-2.9,1.1-7.7,1.1-8.9c0-1.2-0.1-2.2-0.6-3.2c-0.5-1.1-1.2-1.8-1.2-1.8s-0.7,0.8-1.2,1.8s-0.6,2-0.6,3.2c0,1.1,1,5.9,1.1,8.9
					H8.9c0.1-2.3-0.4-5.6-4.3-5.6c-7.1,0-4.9,4.3-0.5,4.3c0,0-0.5-0.3-0.1-0.7c0.5-0.4,3.6-0.5,3.8,2.1c-0.4,0-0.7,0.3-0.7,0.7
					c0,0.3,0.2,0.6,0.6,0.6c-0.6,3-4,1.6-4,1.6s0.8,2.7,2.5,1.9c1.2-0.5,1.8-1.5,2.4-2.9c0-0.1,0.1-0.3,0.2-0.6h0.6
					c-0.2,2.1-1.1,2-1.1,3.8c0,2.3,1.8,3,1.8,3s1.8-0.7,1.8-3c0-1.8-1-1.6-1.1-3.8h0.6c0.1,0.3,0.1,0.5,0.2,0.6
					c0.5,1.4,1.2,2.4,2.4,2.9c1.7,0.8,2.5-1.9,2.5-1.9s-3.3,1.4-4-1.6c0.3-0.1,0.6-0.3,0.6-0.6c0-0.4-0.3-0.6-0.6-0.7
					c0.1-2.6,3.3-2.5,3.8-2.1C16.4,111.3,15.9,111.5,15.9,111.5"/>
			</g>
			<path id="Line-Copy-3_1_" class="st9" d="M0,50h164"/>
			<path id="Line-Copy-3-decoration-1" class="st9" d="M164,50l-10.8-3v6L164,50z"/>
		</g>
		<g class="st1">
			<path class="st2" d="M6.6,286.5v1.3c-0.8,1.3-1.7,2.6-2.7,3.8h2.9v1.1c-0.4,1.8-0.8,3.3-1.4,4.4c0.1,0.1,0.3,0.2,0.4,0.4
				c0.6,0.7,1.3,1.1,2,1.5c0.7,0.3,1.6,0.4,2.7,0.5c1.1,0,2.4,0,3.8,0c1.7,0,3.9,0,6.6-0.1l-0.4,1.6h-6.1c-1.5,0-2.9,0-4.1-0.1
				c-1.4,0-2.5-0.2-3.2-0.6c-0.8-0.4-1.6-0.9-2.3-1.7c-0.2-0.2-0.3-0.2-0.5-0.2c-0.5,0-1.3,1-2.3,2.9l-1.2-1c1.1-2,2.1-3.1,3-3.4
				c0.5-1.1,1-2.4,1.3-3.8H2v-1.2c1.1-1.2,2-2.5,2.8-3.7H1.2v-1.5h5.4V286.5z M6.3,284.4l-1.1,1c-0.8-1-1.9-2-3.3-3.2l1.1-1
				C4.3,282.3,5.4,283.4,6.3,284.4z M11,288.7c-0.2,3.6-1,6.4-2.5,8.6l-1.1-1.1c1.3-2,2-4.7,2.2-8.2v-5.6c3.3-0.1,6.4-0.5,9.1-1.2
				l0.8,1.4c-2.5,0.7-5.3,1.1-8.4,1.2v3.4h9.5v1.5h-3.7v9.3h-1.5v-9.3L11,288.7L11,288.7z"/>
			<path class="st2" d="M30.8,289.3l1.1-5.4h-7.3v-1.5h17.9v1.5h-9l-1.1,5.4h7.4v9.4h3.6v1.6H23.8v-1.6h5l1.6-7.9h-4.7v-1.5H30.8z
				 M38.1,298.7v-7.9H32l-1.7,7.9H38.1z"/>
			<path class="st2" d="M47.2,288.9l-1.1-1.3c2.2-1.7,3.7-3.9,4.5-6.8l1.6,0.3c-0.2,0.8-0.5,1.6-0.8,2.4h13.7v1.5h-6.9v3.5h6.1v1.5
				h-6.1v4.8h7.6v1.5h-7.6v4.9h-1.6v-4.9H46.4v-1.5H50v-6.3h6.5V285h-5.9C49.8,286.6,48.6,287.9,47.2,288.9z M56.6,294.8V290h-5v4.8
				H56.6z"/>
			<path class="st2" d="M72.2,294.8c-0.6,2.2-1.3,4.2-2.3,5.8l-1.3-0.8c1-1.6,1.7-3.3,2.2-5.3L72.2,294.8z M68.8,289.4V288h2.6
				c-0.3-0.9-0.7-1.7-1.1-2.5l1.4-0.5c0.4,0.8,0.7,1.8,1.1,3h2.4c0.4-0.9,0.7-1.9,1-3l1.4,0.5c-0.3,0.9-0.6,1.8-1,2.5h2.5v1.4h-4.3
				v2.4h3.9v1.4h-3.9v8h-1.6v-8h-4v-1.4h4v-2.4H68.8z M73.3,282.9c-0.3-0.7-0.6-1.3-1-1.8l1.7-0.3c0.3,0.6,0.6,1.3,0.9,2.1H79v1.5
				h-9.9v-1.5L73.3,282.9L73.3,282.9z M78.4,298.2l-1.3,0.5c-0.4-1.4-0.8-2.7-1.4-4l1.3-0.4C77.6,295.8,78.1,297,78.4,298.2z
				 M88.3,282.7c-1.9,0.7-4.1,1.1-6.5,1.3v4h7v1.5h-2.3v11.7H85v-11.7h-3.2v2.4c-0.1,3.8-0.9,6.9-2.5,9.2l-1.1-1.2
				c1.3-1.9,2-4.6,2.1-8v-9.3c2.7,0,5.1-0.5,7.2-1.4L88.3,282.7z"/>
			<path class="st2" d="M105.4,294.7h2.5l0.1-3h-1.9v-1.4h2l0.1-2.7h-2.1v-1.3h2.2l0.1-3H106v-1.5h3.9l-0.5,12.8h1.7v1.5H91.5v-1.5
				h1.8l-0.5-12.4c1.3-0.3,2.5-0.7,3.6-1.3l0.6,1.3c-0.6,0.3-1.4,0.7-2.6,1l0.1,2.9h2.2v1.4h-2.1l0.1,2.7h2v1.4h-1.9l0.1,3h2.5
				v-12.8h8.1L105.4,294.7L105.4,294.7z M99.1,297.6c-1.7,1.3-3.8,2.5-6.3,3.5l-1-1.3c2.5-0.9,4.6-2,6.2-3.2L99.1,297.6z M104,294.7
				v-11.5h-5.5v11.5H104z M103.1,284.7v1.1h-3.6v-1.1H103.1z M103,287.3v6h-3.5v-6H103z M102,288.5h-1.4v3.7h1.4V288.5z M111,299.9
				l-0.9,1.4c-2.2-1.5-4.4-2.7-6.6-3.6l0.8-1.2C106.7,297.4,109,298.5,111,299.9z"/>
			<path class="st2" d="M121.8,299.2c0,1.3-0.6,1.9-1.8,1.9h-1.8l-0.4-1.4c0.6,0,1.2,0.1,1.7,0.1s0.8-0.4,0.8-1.1v-5.1
				c-1.1,0.3-2.3,0.5-3.6,0.7c-0.2,2.8-0.8,5.1-1.8,7l-1.2-1.1c1.1-2,1.6-4.6,1.6-7.7v-10.6h6.4v17.3H121.8z M120.3,287.8v-4.5h-3.5
				v3.8C118,287.2,119.2,287.4,120.3,287.8z M120.3,292.1v-3c-1.1-0.3-2.3-0.6-3.5-0.8v4.4C118.1,292.6,119.2,292.4,120.3,292.1z
				 M132.4,290.4v1.5c-0.6,2.1-1.6,3.9-2.9,5.4c1.3,1,2.8,1.8,4.7,2.6l-0.9,1.4c-1.9-0.9-3.6-1.8-4.9-2.9c-1.4,1.2-3.2,2.2-5.2,2.9
				l-0.9-1.3c1.9-0.7,3.6-1.6,4.9-2.7c-1.5-1.5-2.6-3.3-3.1-5.2H123v-1.5h9.4V290.4z M131.3,281.9v4.8c0,0.4,0.2,0.7,0.7,0.7h1.7
				v1.5h-2.1c-1.2,0-1.8-0.6-1.8-1.8v-3.6H126v1.3c0,2.1-0.8,3.7-2.3,4.9l-1.1-1.2c1.2-0.8,1.8-2,1.8-3.5v-3L131.3,281.9
				L131.3,281.9z M128.2,296.2c1.2-1.2,2-2.6,2.6-4.2h-5.3C126.1,293.5,126.9,294.9,128.2,296.2z"/>
			<path class="st2" d="M145.6,283.6c-0.4-0.9-0.7-1.7-1.1-2.5l1.7-0.3c0.4,0.8,0.7,1.7,1.1,2.8h9v1.5h-8.9v2.9h7.2v8
				c0,1.3-0.7,2-2,2h-2.2l-0.4-1.5l2.1,0.1c0.6,0,0.9-0.3,0.9-0.9v-6.1h-5.6v11.7h-1.6v-11.7h-5.3v8.6h-1.6V288h6.9v-2.9h-8.9v-1.5
				H145.6z"/>
			<path class="st2" d="M167,294.1l-1.3,0.3c-0.1-0.4-0.2-0.8-0.3-1.2c-2,0.6-4,1-5.8,1.3l-0.4-1.4c0.3-0.1,0.5-0.2,0.7-0.4
				c0.8-0.8,1.8-2.2,2.9-4l-3.4,0.5l-0.4-1.4c0.2-0.1,0.5-0.3,0.6-0.6c1.1-1.8,2-3.9,2.8-6.2l1.4,0.6c-1,2.6-2,4.6-3.1,6.1
				c0.9-0.1,1.9-0.3,2.8-0.4c0.5-1,1.1-2,1.7-3.2l1.4,0.5c-2.2,4-3.9,6.7-5.3,8.3c1.2-0.2,2.5-0.5,3.7-0.9c-0.2-0.7-0.4-1.3-0.6-1.9
				l1.2-0.4C166.1,291,166.6,292.5,167,294.1z M161.2,295.8c-0.1,1.9-0.4,3.6-0.8,5.1l-1.4-0.4c0.5-1.4,0.7-3,0.8-4.8L161.2,295.8z
				 M164.3,299.8l-1.4,0.3c-0.2-1.7-0.4-3.1-0.7-4.4l1.3-0.3C163.9,296.8,164.1,298.2,164.3,299.8z M167.1,298.6l-1.3,0.4
				c-0.2-1.3-0.5-2.5-0.9-3.6l1.2-0.4C166.5,296,166.8,297.2,167.1,298.6z M170.5,284.6c-0.7,1.4-1.4,2.6-2.1,3.5
				c0.7,0.9,1.5,2,2.2,3.5l-1.3,0.7c-0.7-1.6-1.6-3-2.5-4.2c0.9-1.3,1.7-2.7,2.2-4.2L170.5,284.6z M167.9,294.6v-1.5h10.5v1.5h-4.5
				v4.6h5.2v1.5H167v-1.5h5.3v-4.6H167.9z M178.8,281.9v1.5h-11.4v-1.5H178.8z M174.6,284.6c-0.7,1.4-1.3,2.6-2,3.5
				c0.7,0.8,1.5,2,2.2,3.5l-1.3,0.7c-0.7-1.6-1.6-2.9-2.5-4.2c0.9-1.3,1.7-2.7,2.2-4.1L174.6,284.6z M178.7,284.7
				c-0.7,1.4-1.4,2.6-2.1,3.5c0.7,0.8,1.5,2,2.3,3.5l-1.3,0.7c-0.7-1.6-1.6-2.9-2.5-4.2c0.9-1.3,1.7-2.7,2.3-4.1L178.7,284.7z"/>
			<path class="st2" d="M184.4,289.2V284h-2.7v-1.5h7v1.5H186v5.2h2.4v1.5H186v5c0.8-0.3,1.6-0.6,2.4-0.9v1.5
				c-2,0.8-4.2,1.5-6.5,2.1l-0.4-1.5c1-0.2,1.9-0.4,2.9-0.7v-5.5H182v-1.5H184.4z M200.5,281.9v10.2h-4.6v2.6h5v1.5h-5v2.9h5.8v1.5
				h-13.2V299h5.9v-2.9h-5v-1.5h5V292h-4.6v-10.2h10.7V281.9z M194.3,286.3v-3h-3.1v3H194.3z M194.3,287.7h-3.1v3h3.1V287.7z
				 M195.9,286.3h3.1v-3h-3.1V286.3z M199,287.7h-3.1v3h3.1V287.7z"/>
			<path class="st2" d="M214.8,286c1.2,6,4.4,10.6,9.5,13.7l-1,1.4c-4.5-2.9-7.5-6.9-9.1-11.9c-1.3,4.8-4.4,8.8-9.3,11.9l-1-1.4
				c6.1-3.7,9.2-8.8,9.4-15.1c0-1.5,0-2.7,0-3.5h1.6C214.9,283,214.9,284.6,214.8,286z"/>
			<path class="st2" d="M231.6,301.2H230V290c-0.7,2.1-1.7,4-2.9,5.7l-0.6-1.6c1.6-2.1,2.8-4.6,3.5-7.3h-3v-1.5h3.1V281h1.6v4.3h2.8
				v1.5h-2.8v1.2c1,1.1,2,2.2,3,3.5l-0.9,1.3c-0.8-1.3-1.6-2.3-2.2-3.1L231.6,301.2L231.6,301.2z M245.8,301.2h-1.5v-1.4H237v1.4
				h-1.5v-18.9h10.3V301.2z M244.2,287.6v-3.8H237v3.8H244.2z M244.2,293v-3.9H237v3.9H244.2z M244.2,298.3v-3.9H237v3.9H244.2z"/>
			<path class="st2" d="M252,285.3l-1.2,0.5c-0.5-1.3-1-2.4-1.5-3.5l1.3-0.4C251.1,283,251.6,284.1,252,285.3z M254.1,281.1v5.5h1.7
				v-5.5h1.5v5.5h2.8v1.5h-1.6l-0.9,2.8h2.3v1.4h-4.1v2.4h3.7v1.4h-3.7v2.8c1.6-0.2,3-0.3,4.3-0.6v1.4c-2.3,0.4-5.7,0.7-10.2,1
				l-0.2-1.5c1.7-0.1,3.2-0.2,4.6-0.2v-3h-3.7v-1.4h3.7v-2.4H250v-1.4h2.3l-0.7-2.8h-2v-1.5h3.2V281L254.1,281.1L254.1,281.1z
				 M256.1,290.8l0.9-2.8h-4l0.7,2.8H256.1z M260.6,282.2c-0.4,1.4-0.9,2.6-1.5,3.6l-1.3-0.5c0.5-0.9,1-2.1,1.4-3.5L260.6,282.2z
				 M264.3,294.8l-1.3,0.6c-0.7-2-1.5-3.8-2.4-5.4l1.4-0.4C262.8,291.2,263.6,292.9,264.3,294.8z M265.7,285.6V281h1.5v4.5h2v1.5h-2
				v12.1c0,1.3-0.7,2-2,2h-2.8l-0.3-1.5c0.9,0.1,1.8,0.1,2.6,0.1c0.6,0,0.9-0.3,0.9-0.9v-11.7h-5v-1.5H265.7z"/>
			<path class="st2" d="M277.2,281.1v4.4h4.5c0,6.9-0.1,11.1-0.3,12.7c-0.2,1.8-1.3,2.7-3.2,2.7c-0.3,0-0.9,0-1.7-0.1l-0.4-1.5
				c0.7,0,1.3,0.1,1.8,0.1c1.1,0,1.8-0.6,2-1.9c0.1-1.1,0.2-4.7,0.3-10.6h-2.9c-0.1,6.5-1.5,11.2-4.4,14.2l-1.2-1
				c2.6-2.8,3.9-7.2,3.9-13.2h-3.5v-1.5h3.5V281L277.2,281.1L277.2,281.1z M290.9,300.9h-1.5v-1.5h-4.1v1.5h-1.5v-16.6h7.2v16.6
				H290.9z M289.4,297.9v-12.1h-4.1v12.1H289.4z"/>
			<path class="st2" d="M299.1,290.1l-1.1,1.1c-0.9-1.1-2.1-2.3-3.7-3.6l1.1-1C296.9,287.8,298.1,288.9,299.1,290.1z M299.2,293.1
				c-0.9,2.8-2,5.5-3.2,8l-1.5-0.6c1.3-2.6,2.4-5.2,3.3-7.9L299.2,293.1z M299.8,284.8l-1.1,1.1c-0.9-1.1-2.2-2.2-3.8-3.4l1.1-1
				C297.5,282.5,298.8,283.7,299.8,284.8z M313.8,288.4c-0.7,3.4-1.7,6.2-3.1,8.3v0.1c0.4,1.7,0.9,2.6,1.5,2.7c0.5,0,0.9-1.4,1.2-4
				l1.2,0.9c-0.4,3.1-1.2,4.7-2.3,4.7c-0.6,0-1.2-0.4-1.7-1.1c-0.4-0.5-0.6-1.1-0.9-1.8c-0.9,1.1-1.9,2-3.1,2.8l-0.9-1.1
				c1.3-0.8,2.5-1.9,3.4-3.3c0-0.2-0.1-0.4-0.1-0.5c-0.4-1.8-0.6-5.3-0.6-10.3H302v6.9c0,3.7-0.7,6.6-2,8.8l-1.2-1.1
				c1.1-1.8,1.7-4.4,1.7-7.7v-8.3h8c0-0.9,0-1.9,0-2.9h1.5c0,1,0,2,0,2.9h2c-0.3-0.8-0.6-1.6-0.9-2.2l1.3-0.2
				c0.3,0.7,0.6,1.5,0.9,2.5h1.1v1.5H310c0,3.9,0.2,6.9,0.4,9c0.9-1.9,1.7-4.1,2.1-6.7L313.8,288.4z M307.7,287.5v1.3h-4.8v-1.3
				H307.7z M307.5,290.7v6.1h-4.3v-6.1H307.5z M306.3,291.8h-2v3.9h2V291.8z"/>
		</g>
		<g class="st1">
			<path class="st2" d="M1.5,315.8v-1.5h7.1v1.5H5.3c-0.3,1.8-0.7,3.4-1.3,5h4v10.4H4.3v1.3H2.9v-9c-0.4,0.8-0.9,1.5-1.4,2.3
				l-0.8-1.3c1.5-2.5,2.6-5.4,3.1-8.6L1.5,315.8L1.5,315.8z M6.6,329.7v-7.6H4.3v7.6H6.6z M11.1,326.4c-0.3,2.3-0.7,4.2-1.2,5.9
				l-1.3-0.5c0.5-1.5,0.9-3.5,1.3-5.8L11.1,326.4z M20.5,323.7c0,4.7-0.3,7.5-0.7,8.3c-0.5,0.8-1.4,1.2-2.8,1.2c-0.6,0-1.1,0-1.7,0
				l-0.3-1.4c0.6,0,1.2,0.1,1.8,0.1c1.2,0,1.9-0.5,2.1-1.3c0.2-0.9,0.3-2.7,0.3-5.4H9.9V314h10.3v1.3h-4v2h3.6v1.3h-3.6v2h3.7v1.3
				h-3.7v1.9L20.5,323.7L20.5,323.7z M11.4,315.1v2h3.4v-2H11.4z M11.4,320.4h3.4v-2h-3.4V320.4z M11.4,323.7h3.4v-1.9h-3.4V323.7z
				 M13.5,331.5l-1.2,0.2c-0.1-2.3-0.2-4-0.4-5.3l1.1-0.1C13.2,327.5,13.4,329.3,13.5,331.5z M16,330.4l-1.2,0.2
				c-0.1-1.9-0.3-3.3-0.6-4.4l1.1-0.1C15.6,327.1,15.8,328.6,16,330.4z M18.5,329.3l-1.1,0.4c-0.3-1.3-0.6-2.5-1-3.7l1.1-0.3
				C18,327,18.3,328.2,18.5,329.3z"/>
			<path class="st2" d="M28.4,329.3L28.4,329.3v3.8H27v-15.2h-1.5v11.6h-1.3v-13H27V313h1.3v3.5h2.8v11.2c0,1.1-0.5,1.6-1.5,1.6
				L28.4,329.3L28.4,329.3z M28.3,328.1h0.9c0.4,0,0.6-0.2,0.6-0.6V318h-1.5V328.1z M43.3,313.9v1.4H32v-1.4H43.3z M42.9,333.2h-1.5
				v-1h-7.6v1h-1.5v-9.9h10.6V333.2z M42,316.9v4.8h-8.8v-4.8H42z M36.9,327.1v-2.4h-3.1v2.4H36.9z M36.9,330.8v-2.5h-3.1v2.5H36.9z
				 M40.5,318.2h-5.8v2.3h5.8V318.2z M38.3,327.1h3.1v-2.4h-3.1V327.1z M41.4,330.8v-2.5h-3.1v2.5H41.4z"/>
			<path class="st2" d="M49.6,321.9c-0.1,4.7-0.9,8.4-2.4,11.2L46,332c1.3-2.4,1.9-5.8,2-10.2v-7.2h8.5c-0.3-0.6-0.5-1.1-0.8-1.6
				l1.7-0.3c0.3,0.6,0.5,1.2,0.8,1.8h7.5v1.5h-16v2.5h3.7V317h1.5v1.8h5.8V317h1.5v1.8h3.4v1.5h-3.4v3.4h-8.9v-3.4h-3.7
				C49.6,320.3,49.6,321.9,49.6,321.9z M63.8,325.1v1.2c-1.2,1.5-2.7,2.8-4.5,3.9c2,0.8,4.3,1.4,6.9,1.8l-0.7,1.4
				c-3-0.5-5.6-1.3-7.7-2.3c-2.2,1.1-4.8,1.8-7.7,2.3l-0.7-1.4c2.6-0.4,4.8-1,6.8-1.8c-1.6-1-3-2.2-4-3.6h-1.3v-1.4h12.9V325.1z
				 M57.7,329.4c1.5-0.8,2.9-1.8,4-2.9h-7.8C54.9,327.6,56.2,328.6,57.7,329.4z M54.8,322.3h5.8v-2.1h-5.8V322.3z"/>
			<path class="st2" d="M73.8,312.8c-0.9,1.5-1.6,3-2.1,4.6c-0.7,1.9-1,3.8-1,5.7c0,1.9,0.3,3.8,1,5.7c0.5,1.6,1.2,3.1,2.1,4.6h-1.5
				c-1-1.4-1.7-2.9-2.3-4.5c-0.7-1.9-1-3.8-1-5.7c0-2,0.3-3.9,1-5.8c0.6-1.6,1.3-3.1,2.3-4.5h1.5V312.8z"/>
			<path class="st2" d="M83.4,316.6c0.6,0.7,0.8,1.8,0.8,3s-0.3,2.2-0.8,3c-0.6,0.8-1.5,1.3-2.7,1.3s-2.1-0.4-2.7-1.3
				c-0.6-0.8-0.8-1.8-0.8-3c0-1.3,0.3-2.3,0.8-3c0.6-0.9,1.5-1.3,2.7-1.3C81.9,315.3,82.8,315.7,83.4,316.6z M79.2,317.4
				c-0.3,0.5-0.4,1.3-0.4,2.2c0,0.9,0.1,1.6,0.4,2.2s0.8,0.9,1.5,0.9s1.1-0.3,1.5-1c0.3-0.5,0.4-1.2,0.4-2.1s-0.2-1.7-0.4-2.2
				c-0.3-0.6-0.8-0.9-1.5-0.9S79.5,316.8,79.2,317.4z M91.4,315l-8.8,16.3h-1.4L90,315H91.4z M94.6,323.7c0.5,0.7,0.8,1.8,0.8,3
				s-0.3,2.2-0.8,3c-0.6,0.8-1.5,1.3-2.7,1.3s-2.1-0.4-2.7-1.3c-0.6-0.8-0.8-1.8-0.8-3c0-1.3,0.3-2.3,0.8-3c0.6-0.9,1.5-1.3,2.7-1.3
				C93,322.4,93.9,322.8,94.6,323.7z M90.4,324.5c-0.3,0.5-0.4,1.3-0.4,2.2c0,0.9,0.1,1.6,0.4,2.2s0.8,0.9,1.5,0.9s1.1-0.3,1.5-1
				c0.3-0.5,0.4-1.2,0.4-2.1s-0.2-1.6-0.4-2.2c-0.3-0.6-0.8-0.9-1.5-0.9C91.2,323.6,90.7,323.9,90.4,324.5z"/>
			<path class="st2" d="M100.3,312.8c0.9,1.4,1.7,2.9,2.3,4.5c0.6,1.9,1,3.8,1,5.8c0,1.9-0.3,3.8-1,5.7c-0.6,1.6-1.3,3.1-2.3,4.5
				h-1.5c0.9-1.5,1.6-3,2.1-4.6c0.6-1.9,1-3.9,1-5.7c0-1.9-0.3-3.8-1-5.7c-0.5-1.6-1.2-3.1-2.1-4.6h1.5V312.8z"/>
		</g>
	</g>
</g>
</svg>
