<?xml version="1.0" encoding="UTF-8"?>
<svg width="250px" height="276px" viewBox="0 0 250 276" version="1.1" xmlns="http://www.w3.org/2000/svg" xmlns:xlink="http://www.w3.org/1999/xlink">
    <!-- Generator: Sketch 49 (51002) - http://www.bohemiancoding.com/sketch -->
    <title>s2_f2</title>
    <desc>Created with Sketch.</desc>
    <defs>
        <polygon id="path-1" points="20 4 230 4 230 276 125 216 20 276"></polygon>
        <polygon id="path-3" points="20 -10 230 -10 230 276 125 216 20 276"></polygon>
    </defs>
    <g id="s2_f2" stroke="none" stroke-width="1" fill="none" fill-rule="evenodd">
        <g id="Group-35-Copy-4">
            <polygon id="Combined-Shape" fill="#D2BEA6" points="234 18 16 18 16 22 0 22 0 0 16 0 16 4 234 4 234 0 250 0 250 22 234 22"></polygon>
            <polygon id="Combined-Shape" fill="#B7956F" points="234 18 16 18 16 22 0 22 0 12 250 12 250 22 234 22"></polygon>
            <mask id="mask-2" fill="white">
                <use xlink:href="#path-1"></use>
            </mask>
            <g id="Combined-Shape"></g>
            <g id="Combined-Shape" mask="url(#mask-2)">
                <use fill="#60828B" fill-rule="evenodd" xlink:href="#path-3"></use>
                <path stroke="#FFBD46" stroke-width="10" d="M25,-5 L25,267.384102 L125,210.241244 L225,267.384102 L225,-5 L25,-5 Z"></path>
                <path stroke="#60828B" stroke-width="6" d="M23,-7 L23,270.830461 L125,212.544747 L227,270.830461 L227,-7 L23,-7 Z"></path>
            </g>
        </g>
        <g id="view" transform="translate(192.000000, 122.000000)" fill="#FFFFFF" opacity="0.7">
            <path d="M13.1451287,12.4380219 L17.0961941,16.3890873 C17.2914562,16.5843494 17.2914562,16.9009319 17.0961941,17.0961941 C16.9009319,17.2914562 16.5843494,17.2914562 16.3890873,17.0961941 L12.4380219,13.1451287 C11.1187738,14.3000688 9.39112573,15 7.5,15 C3.35786438,15 0,11.6421356 0,7.5 C0,3.35786438 3.35786438,0 7.5,0 C11.6421356,0 15,3.35786438 15,7.5 C15,9.39112573 14.3000688,11.1187738 13.1451287,12.4380219 Z M7,7 L7,3.5 C7,3.22385763 7.22385763,3 7.5,3 C7.77614237,3 8,3.22385763 8,3.5 L8,7 L11.5,7 C11.7761424,7 12,7.22385763 12,7.5 C12,7.77614237 11.7761424,8 11.5,8 L8,8 L8,11.5 C8,11.7761424 7.77614237,12 7.5,12 C7.22385763,12 7,11.7761424 7,11.5 L7,8 L3.5,8 C3.22385763,8 3,7.77614237 3,7.5 C3,7.22385763 3.22385763,7 3.5,7 L7,7 Z M7.5,14 C11.0898509,14 14,11.0898509 14,7.5 C14,3.91014913 11.0898509,1 7.5,1 C3.91014913,1 1,3.91014913 1,7.5 C1,11.0898509 3.91014913,14 7.5,14 Z" id="Combined-Shape"></path>
        </g>
        <path d="M100.876,138.062 L100.876,154.936 L98.8519999,154.936 L98.8519999,153.55 L95.3759999,153.55 L95.3759999,154.936 L93.3739999,154.936 L93.3739999,138.062 L100.876,138.062 Z M95.3759999,151.548 L98.8519999,151.548 L98.8519999,140.064 L95.3759999,140.064 L95.3759999,151.548 Z M85.1899999,135.026 L87.2579999,135.026 L87.2579999,139.294 L91.6799999,139.294 C91.6799999,146.466 91.5699999,150.888 91.3499999,152.582 C91.1299999,154.254 90.0299999,155.09 88.0939999,155.09 C87.7419999,155.09 87.1699999,155.046 86.3779999,154.98 L85.8499999,153.066 C86.5979999,153.132 87.2359999,153.176 87.7639999,153.176 C88.6879999,153.176 89.2379999,152.648 89.3919999,151.636 C89.5239999,150.602 89.5899999,147.17 89.6339999,141.318 L87.2579999,141.318 C87.1259999,147.72 85.6959999,152.406 82.9459999,155.398 L81.3839999,154.012 C83.8259999,151.372 85.1019999,147.126 85.1899999,141.318 L81.8459999,141.318 L81.8459999,139.294 L85.1899999,139.294 L85.1899999,135.026 Z M106.86,138.018 L104.726,138.018 L104.726,136.016 L111.92,136.016 L111.92,138.018 L108.84,138.018 C108.576,139.602 108.202,141.12 107.718,142.528 L111.502,142.528 L111.502,153.33 L107.96,153.33 L107.96,154.518 L106.068,154.518 L106.068,146.18 C105.76,146.752 105.408,147.28 105.056,147.808 L104,146.114 C105.408,143.716 106.376,141.01 106.86,138.018 Z M115.088,140.614 L115.088,142.198 L117.926,142.198 L117.926,140.614 L115.088,140.614 Z M115.088,143.892 L115.088,145.41 L117.926,145.41 L117.926,143.892 L115.088,143.892 Z M119.84,145.41 L123.998,145.41 C123.998,150.294 123.734,153.132 123.206,153.946 C122.7,154.76 121.71,155.178 120.258,155.178 C119.708,155.178 119.136,155.156 118.564,155.134 L118.124,153.286 C118.762,153.352 119.356,153.396 119.906,153.396 C121.006,153.396 121.666,152.978 121.842,152.164 C122.018,151.328 122.106,149.656 122.106,147.148 L113.152,147.148 L113.152,135.62 L123.624,135.62 L123.624,137.38 L119.84,137.38 L119.84,138.92 L123.206,138.92 L123.206,140.614 L119.84,140.614 L119.84,142.198 L123.272,142.198 L123.272,143.892 L119.84,143.892 L119.84,145.41 Z M117.926,137.38 L115.088,137.38 L115.088,138.92 L117.926,138.92 L117.926,137.38 Z M112.976,147.984 L114.516,148.38 C114.252,150.668 113.944,152.67 113.548,154.386 L111.832,153.792 C112.272,152.252 112.646,150.316 112.976,147.984 Z M116.606,148.182 C116.76,149.458 116.87,151.218 116.936,153.44 L115.352,153.638 C115.308,151.35 115.22,149.59 115.11,148.336 L116.606,148.182 Z M118.894,148.006 C119.158,149.062 119.312,150.492 119.4,152.34 L117.86,152.538 C117.772,150.668 117.64,149.216 117.442,148.182 L118.894,148.006 Z M121.094,147.654 C121.446,148.974 121.71,150.184 121.908,151.284 L120.478,151.834 C120.258,150.536 119.994,149.282 119.686,148.05 L121.094,147.654 Z M107.96,151.482 L109.698,151.482 L109.698,144.354 L107.96,144.354 L107.96,151.482 Z M131.28,134.872 L133.106,135.73 C132.688,137.116 132.182,138.458 131.566,139.734 L131.566,155.178 L129.542,155.178 L129.542,143.232 C128.904,144.156 128.2,145.036 127.452,145.916 L126.792,143.782 C128.816,141.23 130.312,138.26 131.28,134.872 Z M133.15,137.886 L137.484,137.886 C137.792,136.962 138.078,135.994 138.298,135.026 L140.19,135.378 C139.97,136.258 139.75,137.094 139.486,137.886 L146.812,137.886 L146.812,139.866 L138.782,139.866 C138.276,141.12 137.704,142.286 137.066,143.342 L139.75,143.342 L139.75,140.746 L141.664,140.746 L141.664,143.342 L146.174,143.342 L146.174,151.284 C146.174,152.538 145.492,153.176 144.15,153.176 L142.786,153.176 L142.302,151.394 L143.578,151.482 C144.018,151.482 144.238,151.262 144.238,150.866 L144.238,145.146 L141.664,145.146 L141.664,155.244 L139.75,155.244 L139.75,145.146 L137.286,145.146 L137.286,153.484 L135.372,153.484 L135.372,145.784 C134.624,146.686 133.832,147.522 132.952,148.27 L131.786,146.818 C133.876,144.926 135.526,142.594 136.736,139.866 L133.15,139.866 L133.15,137.886 Z M155.766,146.378 L163.928,146.378 L163.928,152.23 L155.766,152.23 L155.766,146.378 Z M162.058,150.492 L162.058,148.094 L157.658,148.094 L157.658,150.492 L162.058,150.492 Z M165.666,137.622 L154.138,137.622 L154.138,139.558 L165.666,139.558 L165.666,137.622 Z M154.138,141.45 L154.138,142.968 L168.746,142.968 C168.746,148.49 168.636,151.9 168.416,153.22 C168.196,154.496 167.184,155.134 165.38,155.134 C164.852,155.134 163.972,155.09 162.718,155.046 L162.256,153.286 C163.356,153.352 164.28,153.396 165.05,153.396 C165.886,153.396 166.37,153.044 166.524,152.34 C166.634,151.592 166.7,149.106 166.744,144.838 L154.138,144.838 C154.05,148.842 153.038,152.296 151.102,155.178 L149.452,153.704 C151.19,151.328 152.07,148.27 152.092,144.508 L152.092,135.664 L167.69,135.664 L167.69,141.45 L154.138,141.45 Z M71.9019999,163.18 C73.3319999,164.236 74.5419999,165.292 75.5319999,166.348 L74.0799999,167.822 C73.2219999,166.81 72.0119999,165.732 70.4279999,164.61 L71.9019999,163.18 Z M71.6599999,168.504 C73.0239999,169.56 74.1899999,170.616 75.1359999,171.672 L73.6619999,173.124 C72.8259999,172.134 71.6819999,171.078 70.1859999,169.934 L71.6599999,168.504 Z M73.6179999,174.488 L75.4659999,175.214 C74.6739999,178.052 73.7719999,180.714 72.7819999,183.222 L70.8239999,182.364 C71.9019999,179.79 72.8259999,177.172 73.6179999,174.488 Z M88.6439999,174.29 L88.6439999,183.244 L86.6859999,183.244 L86.6859999,182.32 L79.3599999,182.32 L79.3599999,183.244 L77.4019999,183.244 L77.4019999,174.29 L88.6439999,174.29 Z M79.3599999,180.56 L86.6859999,180.56 L86.6859999,179.152 L79.3599999,179.152 L79.3599999,180.56 Z M79.3599999,177.48 L86.6859999,177.48 L86.6859999,176.072 L79.3599999,176.072 L79.3599999,177.48 Z M75.8399999,163.664 L82.4839999,163.664 L82.4839999,165.248 L80.8779999,165.248 C80.8339999,166.04 80.7239999,166.788 80.5919999,167.47 L82.3959999,167.47 L82.3959999,169.01 L80.1739999,169.01 L79.9099999,169.67 L81.1419999,169.67 L81.1419999,171.496 C81.8019999,171.078 82.4399999,170.616 83.0559999,170.088 L83.3419999,171.386 C82.1979999,172.31 81.0539999,173.102 79.9099999,173.718 L79.2939999,172.486 C79.6239999,172.266 79.7999999,171.98 79.7999999,171.672 L79.7999999,169.912 C79.0079999,171.584 77.8419999,172.948 76.2579999,173.96 L75.3779999,172.574 C76.8299999,171.716 77.9079999,170.528 78.5679999,169.01 L75.6859999,169.01 C76.1259999,167.602 76.4779999,166.348 76.7199999,165.248 L75.8399999,165.248 L75.8399999,163.664 Z M79.0959999,167.47 C79.2719999,166.766 79.3819999,166.04 79.4259999,165.248 L78.1939999,165.248 C77.9739999,166.084 77.7539999,166.81 77.5339999,167.47 L79.0959999,167.47 Z M83.0339999,163.664 L89.7219999,163.664 L89.7219999,165.248 L87.7859999,165.248 C87.7419999,166.04 87.6539999,166.788 87.5219999,167.47 L89.8539999,167.47 L89.8539999,169.01 L87.1479999,169.01 C87.0599999,169.23 86.9939999,169.45 86.9279999,169.648 L87.8739999,169.648 L87.8739999,171.826 C87.8739999,172.156 88.0279999,172.332 88.3799999,172.332 L88.8199999,172.332 C88.9519999,172.332 89.0839999,172.288 89.1939999,172.2 C89.3039999,172.09 89.3919999,171.54 89.4359999,170.528 L90.6679999,170.924 C90.5359999,172.244 90.3819999,173.036 90.1619999,173.278 C89.9639999,173.476 89.6119999,173.586 89.0839999,173.608 L87.9179999,173.608 C87.4559999,173.608 87.1039999,173.454 86.8839999,173.19 C86.6199999,172.882 86.5099999,172.53 86.5099999,172.112 L86.5099999,170.594 C85.8059999,171.98 84.8599999,173.102 83.6279999,173.982 L82.7919999,172.618 C84.0679999,171.76 84.9919999,170.55 85.5639999,169.01 L82.8799999,169.01 C83.0999999,167.624 83.2979999,166.37 83.4299999,165.248 L83.0339999,165.248 L83.0339999,163.664 Z M86.0039999,167.47 C86.1359999,166.766 86.2459999,166.018 86.2899999,165.248 L84.8379999,165.248 L84.5519999,167.47 L86.0039999,167.47 Z M100.942,163.026 L103.054,163.026 L103.054,165.358 C103.032,166.018 103.01,166.656 102.966,167.294 L111.348,167.294 C111.26,171.166 111.128,174.29 110.908,176.688 C110.688,179.042 110.314,180.692 109.786,181.638 C109.258,182.54 108.422,183.024 107.256,183.112 L104.198,183.112 L103.626,181.088 C104.55,181.132 105.408,181.154 106.222,181.154 C107.388,181.154 108.158,180.428 108.51,178.998 C108.884,177.48 109.126,174.246 109.236,169.318 L102.79,169.318 C102.438,172.376 101.8,174.95 100.854,177.018 C99.534,179.724 97.4,181.814 94.452,183.266 L93.33,181.506 C96.234,179.922 98.192,177.92 99.248,175.478 C99.93,173.762 100.414,171.694 100.678,169.318 L94.496,169.318 L94.496,167.294 L100.854,167.294 C100.898,166.634 100.92,165.996 100.942,165.358 L100.942,163.026 Z M124.46,183.024 L121.226,183.024 L120.72,180.846 C121.776,180.934 122.744,181 123.668,181 C124.504,181 124.944,180.56 124.944,179.702 L124.944,163.29 L127.122,163.29 L127.122,180.252 C127.122,182.1 126.22,183.024 124.46,183.024 Z M119.026,168.394 L121.116,169.23 C120.104,173.564 118.762,176.886 117.112,179.174 L115.286,177.568 C116.958,175.28 118.212,172.222 119.026,168.394 Z M132.27,167.844 C133.854,171.716 135.086,175.082 135.944,177.986 L134.052,179.284 C133.128,176.226 131.896,172.816 130.356,169.032 L132.27,167.844 Z M139.288,163.796 L149.804,163.796 L149.804,165.644 L147.736,165.644 L147.736,168.482 L150.288,168.482 L150.288,170.418 L147.736,170.418 L147.736,175.082 L145.712,175.082 L145.712,170.418 L143.248,170.418 C142.984,172.596 142.192,174.246 140.828,175.346 L139.244,173.96 C140.3,173.146 140.96,171.958 141.202,170.418 L138.716,170.418 L138.716,168.482 L141.334,168.482 L141.334,165.644 L139.288,165.644 L139.288,163.796 Z M143.358,165.644 L143.358,168.482 L145.712,168.482 L145.712,165.644 L143.358,165.644 Z M151.256,164.456 L153.258,164.456 L153.258,172.002 L151.256,172.002 L151.256,164.456 Z M139.838,176.93 L147.384,176.93 L147.384,175.324 L149.452,175.324 L149.452,176.93 L156.844,176.93 L156.844,178.844 L149.452,178.844 L149.452,180.89 L158.054,180.89 L158.054,182.804 L138.606,182.804 L138.606,180.89 L147.384,180.89 L147.384,178.844 L139.838,178.844 L139.838,176.93 Z M155.26,175.324 L152.312,175.324 L151.85,173.388 C152.796,173.476 153.698,173.52 154.556,173.52 C154.996,173.52 155.238,173.168 155.238,172.486 L155.238,163.246 L157.24,163.246 L157.24,172.97 C157.24,174.532 156.58,175.324 155.26,175.324 Z M170.242,172.156 L179.724,172.156 L179.724,174.092 C179.196,176.072 178.294,177.788 177.018,179.218 C178.206,180.076 179.614,180.846 181.264,181.506 L180.142,183.31 C178.338,182.496 176.842,181.594 175.61,180.582 C174.224,181.726 172.552,182.628 170.594,183.332 L169.45,181.55 C171.254,180.912 172.772,180.098 174.026,179.13 C172.64,177.634 171.694,175.984 171.21,174.18 L170.242,174.18 L170.242,172.156 Z M173.124,174.18 C173.564,175.544 174.312,176.754 175.412,177.854 C176.402,176.776 177.172,175.544 177.7,174.18 L173.124,174.18 Z M171.43,163.62 L178.69,163.62 L178.69,168.196 C178.69,168.68 178.91,168.922 179.394,168.922 L180.912,168.922 L180.912,170.858 L178.822,170.858 C177.37,170.858 176.644,170.11 176.644,168.658 L176.644,165.6 L173.476,165.6 L173.476,166.634 C173.476,168.812 172.64,170.506 171.012,171.694 L169.604,170.11 C170.814,169.34 171.43,168.262 171.43,166.854 L171.43,163.62 Z M169.12,163.62 L169.12,181.066 C169.12,182.474 168.394,183.178 166.964,183.178 L165.292,183.178 L164.786,181.352 C165.358,181.396 165.908,181.44 166.392,181.44 C166.92,181.44 167.184,181.088 167.184,180.384 L167.184,175.786 C166.216,176.006 165.182,176.204 164.082,176.38 C163.862,179.152 163.29,181.462 162.322,183.31 L160.782,181.902 C161.75,179.966 162.234,177.502 162.278,174.51 L162.278,163.62 L169.12,163.62 Z M164.17,174.466 C165.27,174.312 166.26,174.136 167.184,173.938 L167.184,171.254 C166.172,170.99 165.182,170.748 164.17,170.572 L164.17,174.466 Z M164.17,168.834 C165.204,168.988 166.216,169.208 167.184,169.472 L167.184,165.512 L164.17,165.512 L164.17,168.834 Z" id="加碼佈局-潛力小型股" fill="#FFFFFF"></path>
        <g id="section_B_float_view_icon_2" transform="translate(85.000000, 30.000000)" fill="#FFFFFF" fill-rule="nonzero">
            <path d="M55.3178022,48.3434565 C54.4316484,48.3434565 53.7142857,47.6161522 53.7142857,46.7177174 L53.7142857,41.7896957 C53.7142857,40.8912609 54.4316484,40.1639565 55.3178022,40.1639565 C56.203956,40.1639565 56.9213187,40.8912609 56.9213187,41.7896957 L56.9213187,46.7177174 C56.9213187,47.6161522 56.203956,48.3434565 55.3178022,48.3434565 Z" id="XMLID_1946_"></path>
            <path d="M55.3178022,74.7768696 C54.4316484,74.7768696 53.7142857,74.0495652 53.7142857,73.1511304 L53.7142857,68.2222174 C53.7142857,67.3237826 54.4316484,66.5964783 55.3178022,66.5964783 C56.203956,66.5964783 56.9213187,67.3237826 56.9213187,68.2222174 L56.9213187,73.1511304 C56.9213187,74.0486739 56.203956,74.7768696 55.3178022,74.7768696 Z" id="XMLID_1945_"></path>
            <path d="M55.3195604,81.8003478 C42.0879121,81.8003478 31.3230769,70.8863261 31.3230769,57.4695217 C31.3230769,44.0527174 42.0879121,33.1386957 55.3195604,33.1386957 C68.5512088,33.1386957 79.316044,44.0527174 79.316044,57.4695217 C79.316044,70.8863261 68.5512088,81.8003478 55.3195604,81.8003478 Z M55.3195604,36.3910652 C43.8558242,36.3910652 34.5301099,45.8478043 34.5301099,57.470413 C34.5301099,69.0930217 43.8558242,78.5497609 55.3195604,78.5497609 C66.7832967,78.5497609 76.109011,69.0930217 76.109011,57.470413 C76.109011,45.8478043 66.7824176,36.3910652 55.3195604,36.3910652 Z" id="XMLID_1940_"></path>
            <path d="M56.2883516,69.0671739 C55.7046154,69.0671739 55.1032967,69.032413 54.487033,68.9628913 C52.4272527,68.727587 50.4351648,68.0546522 48.3279121,67.3398261 L47.8892308,67.1936522 C47.0496703,66.9111087 46.5942857,65.9903913 46.872967,65.1391957 C47.1516484,64.2853261 48.0597802,63.8245217 48.9010989,64.1070652 L49.3415385,64.255913 C51.3714286,64.9413261 53.1217582,65.5322609 54.8474725,65.7292391 C58.4386813,66.1392391 60.567033,65.0277826 61.3608791,63.845913 C61.8584615,63.1061304 61.9138462,62.2772174 61.5138462,61.5151522 C60.72,59.9972609 58.4474725,59.0952609 55.432967,59.0952609 C55.3969231,59.0952609 55.3643956,59.0952609 55.3283516,59.0952609 C50.952967,59.0952609 47.6562637,57.5898478 46.2795604,54.9640652 C45.3353846,53.1636304 45.4654945,51.0548043 46.6241758,49.3274565 C48.3613187,46.7426739 51.9551648,45.4823696 56.2575824,45.9770435 C58.3481319,46.2150217 60.3762637,46.9013261 62.5230769,47.6286304 L62.8720879,47.7462826 C63.7134066,48.0315 64.167033,48.9495435 63.8883516,49.8043043 C63.6079121,50.6519348 62.6997802,51.1216522 61.8602198,50.8328696 L61.5076923,50.7125435 C59.4391209,50.0137609 57.6518681,49.4103478 55.898022,49.2098043 C52.2646154,48.781087 50.0914286,49.9433478 49.2773626,51.1537391 C48.7841758,51.8908478 48.7261538,52.7001522 49.1112088,53.4372609 C49.9024176,54.9453478 52.2241758,55.8437826 55.3283516,55.8437826 C55.3626374,55.8402174 55.3969231,55.8402174 55.432967,55.8437826 C59.7195604,55.8437826 62.9661538,57.3518696 64.3472527,59.9910217 C65.3028571,61.8173043 65.1771429,63.9412826 64.0123077,65.6748696 C62.5512088,67.8532174 59.7336264,69.0671739 56.2883516,69.0671739 Z" id="XMLID_1936_"></path>
            <path d="M52.4703297,12.3739783 C51.5841758,12.3739783 50.8668132,11.6466739 50.8668132,10.7482391 L50.8668132,3.45113043 L8.50549451,3.45113043 L8.50549451,9.1225 L15.6483516,9.1225 C16.5345055,9.1225 17.2518681,9.84980435 17.2518681,10.7482391 C17.2518681,11.6466739 16.5345055,12.3739783 15.6483516,12.3739783 L6.90197802,12.3739783 C6.01582418,12.3739783 5.29846154,11.6466739 5.29846154,10.7482391 L5.29846154,1.8253913 C5.29846154,0.926956522 6.01582418,0.199652174 6.90197802,0.199652174 L52.4712088,0.199652174 C53.3573626,0.199652174 54.0747253,0.926956522 54.0747253,1.8253913 L54.0747253,10.7482391 C54.0738462,11.6475652 53.3573626,12.3739783 52.4703297,12.3739783 Z" id="XMLID_1934_"></path>
            <path d="M61.04,21.3003913 L48.0553846,21.3003913 C47.1692308,21.3003913 46.4518681,20.573087 46.4518681,19.6746522 C46.4518681,18.7762174 47.1692308,18.048913 48.0553846,18.048913 L59.4364835,18.048913 L59.4364835,12.3739783 L17.0751648,12.3739783 L17.0751648,19.6746522 C17.0751648,20.573087 16.3578022,21.3003913 15.4716484,21.3003913 C14.5854945,21.3003913 13.8681319,20.573087 13.8681319,19.6746522 L13.8681319,10.7482391 C13.8681319,9.84980435 14.5854945,9.1225 15.4716484,9.1225 L61.0408791,9.1225 C61.927033,9.1225 62.6443956,9.84980435 62.6443956,10.7482391 L62.6443956,19.6746522 C62.6435165,20.573087 61.9261538,21.3003913 61.04,21.3003913 Z" id="XMLID_1511_"></path>
            <path d="M47.8549451,30.2268043 C46.9687912,30.2268043 46.2514286,29.4995 46.2514286,28.6010652 L46.2514286,21.3003913 L3.89186813,21.3003913 L3.89186813,28.6010652 C3.89186813,29.4995 3.17450549,30.2268043 2.28835165,30.2268043 C1.4021978,30.2268043 0.684835165,29.4995 0.684835165,28.6010652 L0.684835165,19.6746522 C0.684835165,18.7762174 1.4021978,18.048913 2.28835165,18.048913 L47.8558242,18.048913 C48.741978,18.048913 49.4593407,18.7762174 49.4593407,19.6746522 L49.4593407,28.6010652 C49.4584615,29.4995 48.741978,30.2268043 47.8549451,30.2268043 Z" id="XMLID_1134_"></path>
            <path d="M2.28747253,39.1505435 C1.40131868,39.1505435 0.683956044,38.4232391 0.683956044,37.5248043 L0.683956044,28.6010652 C0.683956044,27.7026304 1.40131868,26.9753261 2.28747253,26.9753261 L47.8549451,26.9753261 C48.7410989,26.9753261 49.4584615,27.7026304 49.4584615,28.6010652 L49.4584615,35.1102609 C49.4584615,36.0086957 48.7410989,36.736 47.8549451,36.736 C46.9687912,36.736 46.2514286,36.0086957 46.2514286,35.1102609 L46.2514286,30.2268043 L3.89186813,30.2268043 L3.89186813,37.523913 C3.89186813,38.4232391 3.17450549,39.1505435 2.28747253,39.1505435 Z" id="XMLID_961_"></path>
            <path d="M2.28747253,48.0769565 C1.40131868,48.0769565 0.683956044,47.3496522 0.683956044,46.4512174 L0.683956044,37.5248043 C0.683956044,36.6263696 1.40131868,35.8990652 2.28747253,35.8990652 L44.2153846,35.8990652 C45.1015385,35.8990652 45.8189011,36.6263696 45.8189011,37.5248043 C45.8189011,38.4232391 45.1015385,39.1505435 44.2153846,39.1505435 L3.89186813,39.1505435 L3.89186813,46.4512174 C3.89186813,47.3496522 3.17450549,48.0769565 2.28747253,48.0769565 Z" id="XMLID_959_"></path>
            <path d="M2.28747253,56.9998043 C1.40131868,56.9998043 0.683956044,56.2725 0.683956044,55.3740652 L0.683956044,46.4503261 C0.683956044,45.5518913 1.40131868,44.824587 2.28747253,44.824587 L35.5208791,44.824587 C36.407033,44.824587 37.1243956,45.5518913 37.1243956,46.4503261 C37.1243956,47.3487609 36.407033,48.0760652 35.5208791,48.0760652 L3.89186813,48.0760652 L3.89186813,55.3731739 C3.89186813,56.2725 3.17450549,56.9998043 2.28747253,56.9998043 Z" id="XMLID_847_"></path>
            <path d="M2.28747253,65.9262174 C1.40131868,65.9262174 0.683956044,65.198913 0.683956044,64.3004783 L0.683956044,55.3740652 C0.683956044,54.4756304 1.40131868,53.7483261 2.28747253,53.7483261 L32.5846154,53.7483261 C33.4707692,53.7483261 34.1881319,54.4756304 34.1881319,55.3740652 C34.1881319,56.2725 33.4707692,56.9998043 32.5846154,56.9998043 L3.89186813,56.9998043 L3.89186813,64.3004783 C3.89186813,65.198913 3.17450549,65.9262174 2.28747253,65.9262174 Z" id="XMLID_813_"></path>
            <path d="M38.7015385,74.8490652 L2.28747253,74.8490652 C1.40131868,74.8490652 0.683956044,74.1217609 0.683956044,73.2233261 L0.683956044,64.3004783 C0.683956044,63.4020435 1.40131868,62.6747391 2.28747253,62.6747391 L33.7142857,62.6747391 C34.6004396,62.6747391 35.3178022,63.4020435 35.3178022,64.3004783 C35.3178022,65.198913 34.6004396,65.9262174 33.7142857,65.9262174 L3.89186813,65.9262174 L3.89186813,71.597587 L38.7024176,71.597587 C39.5885714,71.597587 40.3059341,72.3248913 40.3059341,73.2233261 C40.3050549,74.1226522 39.5885714,74.8490652 38.7015385,74.8490652 Z" id="XMLID_797_"></path>
        </g>
    </g>
</svg>