<?xml version="1.0" encoding="utf-8"?>
<!-- Generator: Adobe Illustrator 22.0.1, SVG Export Plug-In . SVG Version: 6.00 Build 0)  -->
<svg version="1.1" id="圖層_1" xmlns="http://www.w3.org/2000/svg" xmlns:xlink="http://www.w3.org/1999/xlink" x="0px" y="0px"
	 viewBox="0 0 1024 332" style="enable-background:new 0 0 1024 332;" xml:space="preserve">
<style type="text/css">
	.st0{enable-background:new    ;}
	.st1{fill:#4A4A4A;}
	.st2{fill:#ECECEC;}
	.st3{fill:none;stroke:#4A4A4A;stroke-width:2;}
	.st4{fill:#B7956F;}
	.st5{fill:#004483;}
	.st6{fill:none;stroke:#004483;stroke-width:2;}
	.st7{fill:#BCBCBC;}
</style>
<title>s3_1 copy</title>
<desc>Created with Sketch.</desc>
<g id="s3_1-copy">
	<g id="Group">
		<g class="st0">
			<path class="st1" d="M8.9,10.9V8.4h3.3v2.5h11.6V8.4h3.3v2.5h6.1v2.9h-6.1v11.3h6.6v3h-6.9c1.8,1.8,4.2,3.2,7.4,4.3l-1.4,3
				c-2.5-1.1-4.5-2.3-6.2-3.7v3h-7v2.8h12.1v3.2H4v-3.2h12.3v-2.8H9.3v-2.9c-1.6,1.3-3.5,2.5-5.7,3.6l-1.8-2.9
				C5,31.2,7.5,29.8,9.1,28H2.2v-3h6.6V13.8H2.8v-2.9H8.9z M16.3,31.5V29h3.3v2.5h6.9c-1.3-1.1-2.3-2.2-3.1-3.5h-11
				c-0.8,1.2-1.8,2.4-3.1,3.5H16.3z M23.8,15.9v-2.1H12.2v2.1H23.8z M23.8,20.5v-1.9H12.2v1.9H23.8z M23.8,25.1v-1.9H12.2v1.9H23.8z
				"/>
			<path class="st1" d="M40.5,21.9l-2-2.8c6.2-2.7,11.3-6.2,15.2-10.5h2.7c3.3,4.2,8.4,7.6,15,10.4l-1.9,2.8
				c-1.7-0.7-3.4-1.5-4.9-2.4v1.9h-7.9v4.4h12.5v3.2H56.8v8.8h3.4c1.1-2.2,2.1-4.6,3-7.2l3.1,1.1c-0.8,2.3-1.7,4.3-2.6,6.1h6.9v3.2
				h-31v-3.2h7.1c-0.7-2.1-1.5-4-2.6-5.8l3.1-1.1c1,1.9,1.9,4.2,2.8,6.9h3.5v-8.8H40.8v-3.2h12.6v-4.4h-7.9v-2
				C43.9,20.3,42.3,21.1,40.5,21.9z M55.1,11.8c-2.4,2.4-5,4.6-7.9,6.5h15.5C59.7,16.4,57.2,14.2,55.1,11.8z"/>
			<path class="st1" d="M87.9,36.6c-2.8,1.8-6.3,3.3-10.4,4.6L76.1,38c4-1,7.2-2.3,9.8-3.8L87.9,36.6z M87.3,41.6l-0.7-3.2
				c1,0.1,2,0.3,2.9,0.3c0.6,0,1-0.4,1-1.1v-4.1c-4.4,0.2-8.5,0.4-12.2,0.5l-0.7-3.1c1,0.1,2,0.1,3,0.1c3-0.6,6.1-1.7,9.4-3.2
				c-3.1,0.1-6.2,0.4-9.2,0.6l-0.6-2.9c1.4,0,2.5-0.1,3.1-0.4c1.4-0.8,2.8-1.7,4.3-2.7h-8.3V9.7h25.6v12.6H92
				c-1.8,1.4-3.6,2.6-5.4,3.6c2.6-0.1,5.3-0.3,7.8-0.5c1.3-0.8,2.7-1.5,4-2.3l2.8,1.9c-4.2,2.5-8.9,4.6-14,6.1
				c4.6-0.1,9.1-0.4,13.5-0.7c-0.7-0.7-1.4-1.4-2.1-2.1l2.6-1.7c2.7,2.4,4.7,4.5,6.1,6.2l-2.7,1.9c-0.6-0.7-1.2-1.5-1.8-2.2
				c-3.2,0.2-6.2,0.4-9.1,0.6v5.1c0,2.2-1.1,3.3-3.3,3.3H87.3z M90.4,14.6v-2.3h-7.8v2.3H90.4z M90.4,17.3h-7.8v2.3h7.8V17.3z
				 M101.6,14.6v-2.3h-7.8v2.3H101.6z M101.6,17.3h-7.8v2.3h7.8V17.3z M107.8,38.4l-1.8,2.8c-3.3-1.9-6.6-3.4-10.1-4.5l1.7-2.6
				C101.3,35.3,104.7,36.7,107.8,38.4z"/>
			<path class="st1" d="M117.4,17.4v-3.9c-1.2,0.2-2.3,0.4-3.6,0.5l-0.6-3c3.8-0.4,7.1-1.1,10.1-2.2l1.2,3c-1.2,0.4-2.5,0.8-3.8,1
				v4.6h3.7v3.2h-3.7v2.1c1.4,1.6,2.9,3.3,4.4,5.2l-1.9,2.8c-0.9-1.8-1.8-3.2-2.4-4.4v15.3h-3.3V27.1c-1,2.7-2.2,5.1-3.6,7.3
				l-1.5-3.9c2.3-2.9,3.9-6.2,5-10h-3.9v-3.2H117.4z M143.3,22.3v14.3h-4.7c2.5,0.6,4.9,1.4,7.2,2.4l-1.2,2.8
				c-2.6-1.2-5.3-2.2-8.1-2.8l1.2-2.3h-5.7l1.5,1.8c-2.2,1.4-5,2.5-8.2,3.5l-1.3-2.8c2.9-0.7,5.3-1.5,7.2-2.5h-4.6V22.3H143.3z
				 M136.7,8.4v1.8h7.9v2.7h-7.9v1.4h6.8V17h-6.8v1.5h8.7v2.7h-20.2v-2.7h8.3V17h-6.6v-2.7h6.6v-1.4h-7.7v-2.7h7.7V8.4H136.7z
				 M140.3,26.3v-1.4h-10.5v1.4H140.3z M140.3,30.2v-1.5h-10.5v1.5H140.3z M140.3,32.5h-10.5V34h10.5V32.5z"/>
			<path class="st1" d="M153.4,32.8c-0.1,3.1-0.5,5.9-1.1,8.3l-2.9-0.9c0.7-2.2,1.2-4.8,1.3-7.7L153.4,32.8z M162.6,29.7l-2.7,0.7
				c-0.1-0.6-0.3-1.1-0.4-1.6c-3.1,1-6.1,1.7-8.9,2.1l-0.8-3c0.6-0.3,1-0.5,1.4-0.9c1-1.1,2.3-3,3.8-5.6c-1.5,0.3-3,0.5-4.5,0.8
				l-0.8-3c0.5-0.2,1-0.6,1.4-1.2c1.4-3,2.7-6.2,3.8-9.8l3.1,1.2c-1.5,3.9-3.1,7.1-4.6,9.5c1.1-0.1,2.2-0.4,3.2-0.6l2.1-4.2l3.1,1.2
				c-3,5.5-5.4,9.6-7.5,12.1c1.5-0.3,3-0.6,4.4-1.1c-0.3-1-0.6-1.9-1-2.8l2.6-0.8C161.2,24.8,162,27.1,162.6,29.7z M158.3,39.2
				l-2.8,0.7c-0.3-2.8-0.6-5.3-1.1-7.5l2.5-0.5C157.5,34.1,157.9,36.6,158.3,39.2z M162.5,36.8l-2.4,1.1c-0.5-2.3-1.2-4.3-1.8-6
				l2.3-0.8C161.3,32.8,161.9,34.7,162.5,36.8z M180.6,22.2v14.4h-4.4c2.2,0.5,4.4,1.3,6.4,2.2l-1.2,2.8c-2.5-1.2-5.1-2.1-7.9-2.7
				l1.1-2.2h-5.7l1.5,1.7c-2.2,1.3-4.8,2.4-8,3.3l-1.3-2.8c2.7-0.6,4.9-1.4,6.7-2.3h-4.7V22.2H180.6z M173.7,8.4v1.7h8V13h-8v1.3
				h6.8V17h-6.8v1.3h8.9v2.8h-21.2v-2.8h8.9V17h-6.6v-2.7h6.6V13h-7.7v-2.8h7.7V8.4H173.7z M177.4,26.3v-1.4h-10.8v1.4H177.4z
				 M177.4,30.2v-1.4h-10.8v1.4H177.4z M177.4,32.6h-10.8v1.4h10.8V32.6z"/>
			<path class="st1" d="M194.4,17.7c-1.6,3.3-3.5,6.3-5.6,8.7l-2.7-1.9c2.1-2.3,3.9-5,5.4-8.2L194.4,17.7z M196,28.5
				c0.8-1.5,1.5-3.2,2.1-5l2.8,1.3c-0.6,2.2-1.5,4.2-2.4,6.1c1.4,1.4,2.7,2.8,3.9,4.2l-2.3,2.6c-1.2-1.4-2.3-2.6-3.4-3.8
				c-2.2,3.2-5,5.7-8.4,7.6l-2-3c3.2-1.7,5.9-4.1,8-7.1c-1.5-1.4-3-2.8-4.4-4L192,25C193.4,26.2,194.7,27.3,196,28.5z M197.2,12h6.7
				v3.3h-16.9V12h6.8c-0.5-1.2-1.1-2.2-1.7-3.1l3.5-0.6C196.2,9.4,196.7,10.6,197.2,12z M196.2,18.1l2.1-2c1.4,1.1,3,2.8,5,5.1
				l-2.2,2.2C199.5,21.5,197.9,19.8,196.2,18.1z M205.3,25.1c-0.5,0.7-0.9,1.4-1.4,2.1l-2.2-2.7c2.8-4,4.7-9.4,5.7-16.2l3.4,0.6
				c-0.3,1.8-0.6,3.5-1,5.1h9.7v3.3H217c-0.2,5.8-1.6,10.7-4.1,14.8c2,2.5,4.5,4.8,7.3,6.8l-2.4,2.7c-2.7-2-5-4.2-7-6.7
				c-2.2,2.6-5,4.8-8.4,6.6l-1.9-3.1c3.4-1.7,6.2-3.7,8.3-6.3C207.4,29.9,206.2,27.6,205.3,25.1z M206.3,23.5l1.4-0.8
				c0.8,2.3,1.9,4.5,3.2,6.5c1.9-3.4,2.9-7.3,3.1-11.8h-5.1C208.1,19.6,207.2,21.7,206.3,23.5z"/>
			<path class="st1" d="M235.4,14.4c0.9,1.2,1.4,2.9,1.4,4.9c0,2-0.5,3.7-1.4,4.9c-1.1,1.4-2.6,2.1-4.6,2.1c-2,0-3.6-0.7-4.6-2.1
				c-1-1.3-1.4-2.9-1.4-4.9c0-2.1,0.5-3.7,1.4-4.9c1.1-1.4,2.6-2.1,4.6-2.1C232.8,12.3,234.4,13,235.4,14.4z M228.8,16.2
				c-0.3,0.8-0.5,1.8-0.5,3.2c0,1.3,0.1,2.3,0.5,3.1c0.4,0.9,1.1,1.4,2.1,1.4c0.9,0,1.5-0.5,2-1.5c0.3-0.8,0.5-1.8,0.5-3.1
				c0-1.3-0.2-2.4-0.5-3.1c-0.4-1-1-1.4-1.9-1.4C229.9,14.8,229.2,15.3,228.8,16.2z M248.8,11.8l-14.4,26.7h-2.9l14.4-26.7H248.8z
				 M253.9,26c0.9,1.2,1.4,2.9,1.4,4.9c0,2-0.5,3.7-1.4,4.9c-1.1,1.4-2.6,2.1-4.6,2.1c-2,0-3.6-0.7-4.6-2.1c-1-1.3-1.4-2.9-1.4-4.9
				c0-2.1,0.5-3.7,1.4-4.9c1.1-1.4,2.6-2.1,4.6-2.1C251.3,23.9,252.9,24.6,253.9,26z M247.3,27.8c-0.3,0.8-0.5,1.8-0.5,3.2
				c0,1.3,0.1,2.3,0.5,3.1c0.4,0.9,1.1,1.4,2.1,1.4c0.9,0,1.5-0.5,2-1.5c0.3-0.8,0.5-1.8,0.5-3.1c0-1.3-0.2-2.4-0.5-3.1
				c-0.4-1-1-1.4-1.9-1.4C248.4,26.4,247.7,26.9,247.3,27.8z"/>
			<path class="st1" d="M282.3,8.2c-1.5,2.4-2.7,4.9-3.5,7.5c-1.1,3.1-1.6,6.2-1.6,9.4c0,3.1,0.5,6.2,1.6,9.4c0.8,2.5,1.9,5,3.5,7.5
				h-3.2c-1.7-2.4-3-4.8-3.9-7.3c-1.1-3.1-1.7-6.2-1.7-9.4c0-3.3,0.5-6.4,1.7-9.5c0.9-2.6,2.2-5,3.9-7.4H282.3z"/>
			<path class="st1" d="M291.5,12.3V38h-3.9V12.3H291.5z"/>
			<path class="st1" d="M308.9,36.6c-2.8,1.8-6.3,3.3-10.4,4.6l-1.5-3.1c4-1,7.2-2.3,9.8-3.8L308.9,36.6z M308.4,41.6l-0.7-3.2
				c1,0.1,2,0.3,2.9,0.3c0.6,0,1-0.4,1-1.1v-4.1c-4.4,0.2-8.5,0.4-12.2,0.5l-0.7-3.1c1,0.1,2,0.1,3,0.1c3-0.6,6.1-1.7,9.4-3.2
				c-3.1,0.1-6.2,0.4-9.2,0.6l-0.6-2.9c1.4,0,2.5-0.1,3.1-0.4c1.4-0.8,2.8-1.7,4.3-2.7h-8.3V9.7h25.6v12.6h-12.9
				c-1.8,1.4-3.6,2.6-5.4,3.6c2.6-0.1,5.3-0.3,7.8-0.5c1.3-0.8,2.7-1.5,4-2.3l2.8,1.9c-4.2,2.5-8.9,4.6-14,6.1
				c4.6-0.1,9.1-0.4,13.5-0.7c-0.7-0.7-1.4-1.4-2.1-2.1l2.6-1.7c2.7,2.4,4.7,4.5,6.1,6.2l-2.7,1.9c-0.6-0.7-1.2-1.5-1.8-2.2
				c-3.2,0.2-6.2,0.4-9.1,0.6v5.1c0,2.2-1.1,3.3-3.3,3.3H308.4z M311.4,14.6v-2.3h-7.8v2.3H311.4z M311.4,17.3h-7.8v2.3h7.8V17.3z
				 M322.7,14.6v-2.3h-7.8v2.3H322.7z M322.7,17.3h-7.8v2.3h7.8V17.3z M328.9,38.4l-1.8,2.8c-3.3-1.9-6.6-3.4-10.1-4.5l1.7-2.6
				C322.3,35.3,325.8,36.7,328.9,38.4z"/>
			<path class="st1" d="M338.4,17.4v-3.9c-1.2,0.2-2.3,0.4-3.6,0.5l-0.6-3c3.8-0.4,7.1-1.1,10.1-2.2l1.2,3c-1.2,0.4-2.5,0.8-3.8,1
				v4.6h3.7v3.2h-3.7v2.1c1.4,1.6,2.9,3.3,4.4,5.2l-1.9,2.8c-0.9-1.8-1.8-3.2-2.4-4.4v15.3h-3.3V27.1c-1,2.7-2.2,5.1-3.6,7.3
				l-1.5-3.9c2.3-2.9,3.9-6.2,5-10h-3.9v-3.2H338.4z M364.4,22.3v14.3h-4.7c2.5,0.6,4.9,1.4,7.2,2.4l-1.2,2.8
				c-2.6-1.2-5.3-2.2-8.1-2.8l1.2-2.3h-5.7l1.5,1.8c-2.2,1.4-5,2.5-8.2,3.5l-1.3-2.8c2.9-0.7,5.3-1.5,7.2-2.5h-4.6V22.3H364.4z
				 M357.7,8.4v1.8h7.9v2.7h-7.9v1.4h6.8V17h-6.8v1.5h8.7v2.7h-20.2v-2.7h8.3V17h-6.6v-2.7h6.6v-1.4h-7.7v-2.7h7.7V8.4H357.7z
				 M361.3,26.3v-1.4h-10.5v1.4H361.3z M361.3,30.2v-1.5h-10.5v1.5H361.3z M361.3,32.5h-10.5V34h10.5V32.5z"/>
			<path class="st1" d="M377.3,29.9c0-0.3,0-0.5,0-0.7v-3.3h3.2v3.3c0,0.3,0,0.5,0,0.7h3.5c-0.6-0.9-1.4-2-2.4-3.2l2.2-1.3
				c1.1,1.2,1.9,2.3,2.5,3.2l-1.9,1.3h2.6v2.8h-6.7l-0.1,0.4c2.6,1.9,4.8,3.9,6.6,5.8l-2.3,2.3c-1.3-1.7-3.1-3.5-5.2-5.4
				c-1.2,2.6-3.2,4.6-5.9,6.1l-2.5-2.2c3.2-1.7,5.3-4,6.2-7h-5.3v-2.8H377.3z M377.2,21.1c-1.3,1.9-2.8,3.6-4.7,5l-1.8-2.3
				c1.7-1.3,3.2-2.8,4.4-4.5L377.2,21.1z M377.9,15.4V8.7h3.2v6.7h5.9v2.8H381V25h-3.2v-6.9h-6.1v-2.8H377.9z M376.9,13.7l-2.4,1.1
				c-0.7-1.7-1.5-3.2-2.3-4.5l2.6-0.9C375.5,10.8,376.2,12.2,376.9,13.7z M387.7,23.3l-1.8,2.1c-1.4-1.8-2.8-3.3-4.2-4.5l1.7-1.9
				C384.9,20.4,386.4,21.8,387.7,23.3z M386.5,10.3c-0.6,1.6-1.4,3-2.3,4.2L382,13c0.8-1.1,1.5-2.4,2.1-3.9L386.5,10.3z M392.5,34.7
				l2.1,1.8c-1.5,2.1-3.5,3.9-5.7,5.4l-1.9-2.4c2.1-1.4,3.9-3,5.3-4.8h-3.6V15.2h4.9l0.2-2.6h-6.4v-3h16.1v3h-6.3l-0.2,2.6h5.5v19.5
				h-3.8c2.1,1.6,3.8,3.2,5.3,4.8l-2.2,2.2c-1.2-1.6-3-3.3-5.3-5.1l1.9-1.9H392.5z M399.2,20.8v-2.7h-7.3v2.7H399.2z M399.2,26.1
				v-2.6h-7.3v2.6H399.2z M399.2,28.9h-7.3v2.8h7.3V28.9z"/>
			<path class="st1" d="M421.2,38.1c0,2.3-1.2,3.5-3.5,3.5h-2.7l-0.8-3c0.9,0.1,1.8,0.1,2.6,0.1c0.9,0,1.3-0.6,1.3-1.7v-7.5
				c-1.6,0.4-3.3,0.7-5.1,1c-0.4,4.5-1.3,8.3-2.9,11.3l-2.5-2.3c1.6-3.2,2.4-7.2,2.4-12.1V9.6h11.2V38.1z M418,19.1v-6.5h-4.9v5.4
				C414.8,18.3,416.4,18.7,418,19.1z M418,26.4v-4.4c-1.7-0.4-3.3-0.8-4.9-1.1v6.4C414.9,27.1,416.5,26.8,418,26.4z M438.5,23.5v3.2
				c-0.9,3.2-2.3,6-4.4,8.4c1.9,1.4,4.2,2.7,6.9,3.7l-1.8,3c-3-1.3-5.4-2.8-7.4-4.5c-2.3,1.9-5,3.3-8.2,4.5l-1.9-2.9
				c3-1,5.4-2.4,7.5-4c-2.3-2.4-3.8-5.1-4.6-8.1H423v-3.3H438.5z M436.9,9.6v7.5c0,0.8,0.4,1.2,1.2,1.2h2.5v3.2h-3.4
				c-2.4,0-3.6-1.2-3.6-3.6v-5h-5.2v1.7c0,3.6-1.4,6.3-4,8.3l-2.3-2.6c2-1.3,3-3,3-5.3V9.6H436.9z M431.5,32.9
				c1.6-1.8,2.9-3.8,3.7-6h-7.5C428.5,29.1,429.7,31.1,431.5,32.9z"/>
			<path class="st1" d="M463.3,27.1v3.2h-18.2v-3.2H463.3z"/>
			<path class="st1" d="M486.2,27.7c-0.1,0.7-0.3,1.4-0.4,2h13.4v3.2h-14.5c-0.8,1.6-1.9,3-3.2,4.1c-2.4,2.1-6.6,3.7-12.6,5
				l-1.4-3.3c5.2-0.9,8.9-2.2,11.2-3.9c0.7-0.6,1.3-1.2,1.9-1.9h-11.4v-3.2h13.1c0.3-0.8,0.4-1.6,0.6-2.4L486.2,27.7z M477.1,11.9
				c-0.4-1-0.9-2-1.5-2.9l3.6-0.6c0.5,1,1,2.2,1.4,3.5h7.1c0.5-1.2,0.9-2.4,1.2-3.6l3.6,0.5c-0.3,1.1-0.7,2.1-1.3,3.1h7.5V15h-13
				v2.8h11.1v2.9h-11.1v2.8H500v3.2h-31.7v-3.2h14.1v-2.8h-10.9v-2.9h10.9V15h-13v-3.1H477.1z M500.8,39l-1.9,3
				c-4.3-2.4-8.7-4.3-13.2-5.7l1.8-2.7C492.4,35.2,496.8,36.9,500.8,39z"/>
			<path class="st1" d="M536.7,20.8v3.3H527v12.5c0,0.9,0.4,1.4,1.3,1.4h4c0.5,0,0.9-0.3,1.2-0.8c0.3-0.6,0.5-2.4,0.6-5.4l3.1,1
				c-0.3,4-0.7,6.4-1.4,7.2c-0.6,0.7-1.6,1.1-2.9,1.1h-5.6c-2.4,0-3.7-1.3-3.7-3.8V24.1H518v0.6c-0.1,4.6-1.2,8.3-3,11.1
				c-1.8,2.6-4.7,4.5-8.7,6l-1.8-2.9c3.9-1.4,6.5-3.2,7.9-5.3c1.4-2.3,2.1-5.3,2.3-8.9v-0.6h-9v-3.3H536.7z M533.6,10.2v3.3h-25.1
				v-3.3H533.6z"/>
			<path class="st1" d="M545,8.2c1.7,2.3,3,4.8,3.9,7.4c1.1,3,1.7,6.2,1.7,9.5c0,3.2-0.6,6.4-1.7,9.4c-0.9,2.5-2.2,5-3.9,7.3h-3.2
				c1.5-2.5,2.6-5,3.5-7.5c1-3.1,1.6-6.3,1.6-9.4c0-3.1-0.5-6.3-1.6-9.4c-0.8-2.5-2-5-3.5-7.5H545z"/>
		</g>
		<g id="Group-34" transform="translate(290.000000, 308.000000)">
			<g class="st0">
				<path class="st1" d="M167.9,18.5l-0.3-1.2l2.1,0c0.4,0,0.6-0.2,0.6-0.7v-11h-10.5v12.9h-1.2v-14h12.8V17c0,1-0.5,1.6-1.4,1.6
					H167.9z M169.1,7.5v1.1h-8.2V7.5H169.1z M168.2,10.3v5.2h-6.4v-5.2H168.2z M167.1,11.3h-4.2v3.1h4.2V11.3z"/>
				<path class="st1" d="M177.2,13.6c0-0.2,0-0.3,0-0.5v-1.4h1.1v1.4c0,0.2,0,0.3,0,0.5h3v1h-3.1c0,0.1,0,0.2-0.1,0.3
					c1.2,0.9,2.2,1.8,3.1,2.8l-0.8,0.8c-0.7-0.8-1.5-1.7-2.6-2.6c-0.5,1.2-1.5,2.2-2.8,2.9l-0.8-0.7c1.6-0.8,2.5-1.9,2.9-3.4h-2.5
					v-1H177.2z M177,9.3c-0.6,0.9-1.3,1.7-2.1,2.3l-0.6-0.8c0.8-0.6,1.5-1.3,2-2.2L177,9.3z M177.5,7.1V4h1.1v3.1h2.8V8h-2.8v3.2
					h-1.1V8h-2.8V7.1H177.5z M176.8,6.3L176,6.6c-0.3-0.8-0.7-1.4-1.1-2l0.9-0.3C176.2,4.9,176.5,5.6,176.8,6.3z M181,12.9l-0.7,0.5
					c-0.3-0.5-0.7-1-1.2-1.5l0.7-0.5C180.3,12,180.7,12.5,181,12.9z M181.6,10.6l-0.6,0.7c-0.6-0.8-1.2-1.5-1.9-2.1l0.6-0.6
					C180.4,9.2,181,9.9,181.6,10.6z M181.1,4.6c-0.3,0.7-0.7,1.4-1.1,1.9L179.2,6c0.4-0.5,0.7-1.1,1-1.8L181.1,4.6z M184.7,16.2
					c-0.7,1-1.6,1.8-2.6,2.5l-0.6-0.8c1-0.7,1.8-1.5,2.5-2.4L184.7,16.2z M188.7,4.5v1h-2.9c0,0.5-0.1,0.9-0.1,1.4h2.5v8.5h-5.9V6.9
					h2.2c0-0.4,0.1-0.9,0.1-1.4h-3v-1H188.7z M187.1,9.4V7.9h-3.7v1.5H187.1z M187.1,11.9v-1.5h-3.7v1.5H187.1z M187.1,12.8h-3.7
					v1.6h3.7V12.8z M188.9,17.8l-0.8,0.7c-0.6-0.7-1.4-1.5-2.5-2.4l0.7-0.7C187.3,16.3,188.2,17.1,188.9,17.8z"/>
				<path class="st1" d="M197.5,14.2v-1.4h1.2v1.4h5.5v1.1h-5.5v1.9h6.4v1.1h-14.1v-1.1h6.5v-1.9h-5.6v-1.1H197.5z M199,4.6v1h-1.6
					v2.4h2v1.1h-2v3.5h-1.1V9.1h-2.1c-0.2,1.6-0.8,2.9-1.8,3.7l-0.9-0.8c0.9-0.7,1.4-1.6,1.6-3h-2V8.1h2V5.7h-1.6v-1H199z
					 M194.2,8.1h2V5.7h-2V8.1z M201.4,5v5.5h-1.1V5H201.4z M200.8,12.8l-0.2-1.1c0.7,0,1.4,0.1,2,0.1c0.4,0,0.6-0.3,0.6-0.7V4.1h1.1
					v7.2c0,1-0.4,1.5-1.3,1.5H200.8z"/>
				<path class="st1" d="M220.9,4.6v1.1h-6v6h6.6v1.1H215v5.7h-1.2v-5.7h-6.4v-1.1h6.4v-6H208V4.6H220.9z M211.7,10.5l-1.1,0.5
					c-0.5-1.4-1.1-2.6-1.7-3.7l1.1-0.5C210.6,7.9,211.1,9.1,211.7,10.5z M220.1,7.2c-0.5,1.3-1.1,2.5-1.9,3.7l-1-0.5
					c0.8-1.2,1.4-2.5,1.9-3.7L220.1,7.2z"/>
				<path class="st1" d="M225.4,8.2V4h1.2v4.2h1.6v1.1h-1.6v5.4c0.8-0.2,1.5-0.5,2.2-0.8v1.2c-1.6,0.6-3.2,1.1-5,1.5l-0.3-1.2
					c0.7-0.1,1.3-0.2,1.9-0.4V9.3h-1.8V8.2H225.4z M232.5,4c-0.2,0.8-0.4,1.6-0.7,2.4h5.9c0,5.5-0.1,8.9-0.3,10.2
					c-0.2,1.3-0.9,1.9-2.3,1.9c-0.4,0-1.2,0-2.2-0.1l-0.3-1.1c0.9,0,1.7,0.1,2.3,0.1c0.8,0,1.3-0.4,1.4-1.2c0.1-0.9,0.2-3.8,0.3-8.6
					h-5.2c-0.5,1.2-1.2,2.2-2,3.1l-0.8-1c1.4-1.6,2.3-3.5,2.8-5.8L232.5,4z M235.5,13.1v1h-5.3v-1H235.5z M235.2,10.1v1h-4.7v-1
					H235.2z"/>
			</g>
			<g class="st0">
				<path class="st1" d="M319.4,6.9V4h1.2v2.9h6.2V8h-5.2c1.1,2.5,3,4.8,5.7,6.8l-0.8,1c-2.8-2.3-4.8-4.9-5.9-7.8h-0.1v6.2h3.4v1.1
					h-3.4v3.3h-1.2v-3.3h-3.3v-1.1h3.3V8h-0.1c-1.2,3.2-3.2,5.9-6.1,8l-0.7-1.1c2.7-1.8,4.6-4.1,5.8-6.9h-5.2V6.9H319.4z"/>
				<path class="st1" d="M332.6,5.1V3.9h1.1v1.2h5.5V3.9h1.1v1.2h2.8v1h-2.8v5.3h3.1v1h-3.3c0.8,1,2,1.7,3.6,2.3l-0.5,1
					c-2-0.8-3.4-1.9-4.2-3.2h-5c-0.8,1.3-2.2,2.4-4,3.3l-0.6-1c1.6-0.6,2.8-1.4,3.5-2.3h-3.3v-1h3.1V6.1h-2.8v-1H332.6z M337,13v1.3
					h3.2v1H337V17h5.5v1.1h-12.2V17h5.6v-1.7h-3.3v-1h3.3V13H337z M339.2,7.3V6.1h-5.5v1.2H339.2z M339.2,9.3V8.2h-5.5v1.1H339.2z
					 M339.2,11.4v-1.2h-5.5v1.2H339.2z"/>
				<path class="st1" d="M346.4,9.8l-0.7-1c2.8-1.2,5.1-2.8,6.8-4.8h0.9c1.5,1.9,3.8,3.5,6.8,4.7l-0.7,1c-0.8-0.4-1.6-0.8-2.4-1.2
					v0.9h-3.6v2.3h5.7v1.1h-5.7v4.3h1.8c0.5-1,1-2.2,1.4-3.4l1.1,0.4c-0.4,1.1-0.8,2.1-1.3,3h3.3v1.1h-13.7v-1.1h3.3
					c-0.3-1-0.8-2-1.3-2.9l1-0.4c0.5,0.9,0.9,2,1.4,3.2h1.8v-4.3h-5.7v-1.1h5.7V9.4h-3.6V8.5C348,9,347.2,9.4,346.4,9.8z M353,5.1
					c-1.2,1.2-2.5,2.3-4,3.2h8C355.3,7.5,354,6.4,353,5.1z"/>
				<path class="st1" d="M376,18.4h-1.2v-0.9H364v0.9h-1.2V4.9H376V18.4z M374.9,16.4V6h-3.2v6.1c0,0.3,0.2,0.5,0.6,0.5h2v1.1H372
					c-1,0-1.4-0.4-1.4-1.3V6h-2.4v3.5c0,2.2-0.9,3.9-2.7,4.9l-0.9-0.8c1.6-0.9,2.5-2.2,2.5-4.1V6H364v10.4H374.9z"/>
				<path class="st1" d="M384.1,5c-1.2,2.6-2.7,4.5-4.5,5.9l-0.9-0.8c2-1.4,3.4-3.2,4.4-5.5L384.1,5z M381,11.4v-1.1h9.5
					c0,2-0.1,3.6-0.3,4.9c-0.2,1.2-0.4,2.1-0.8,2.6c-0.4,0.5-0.9,0.7-1.7,0.8h-3l-0.3-1.1c1,0,1.9,0,2.7,0c0.9,0,1.4-0.4,1.7-1.1
					c0.3-0.8,0.5-2.4,0.5-4.9h-3.9c-0.4,1.7-0.9,3.1-1.6,4.2c-0.8,1.2-2.1,2.2-3.7,3.1l-0.7-1c1.5-0.8,2.6-1.7,3.4-2.6
					c0.7-0.9,1.2-2.1,1.5-3.6H381z M388.8,4.4c0.8,2.3,2.3,4.1,4.4,5.5l-0.7,1c-2-1.3-3.5-3.2-4.5-5.4h-2.3V4.4H388.8z"/>
				<path class="st1" d="M399.8,4.3c-0.4,1.2-0.9,2.4-1.6,3.5v10.8h-1.2v-9c-0.5,0.7-1.1,1.4-1.7,2l-0.4-1.2
					c1.7-1.9,2.9-4.1,3.7-6.6L399.8,4.3z M404.9,16.7c0.8-2.1,1.5-4.8,2.1-8.1l1.1,0.3c-0.6,2.9-1.2,5.5-2,7.8h3.6v1.1h-10.3v-1.1
					H404.9z M404,6.5c-0.2-0.8-0.5-1.6-0.8-2.3l1.2-0.2c0.3,0.7,0.5,1.6,0.7,2.5h4.2v1.1h-9.6V6.5H404z M403.3,15.9l-1.1,0.3
					c-0.4-2.4-1-4.8-1.7-7.1l1.1-0.3C402.3,10.9,402.9,13.3,403.3,15.9z"/>
				<path class="st1" d="M411.9,18.5l-0.3-1.1c0.5,0,0.9,0.1,1.4,0.1c0.4,0,0.7-0.2,0.7-0.5V13c-0.6,0.2-1.2,0.4-1.7,0.6l-0.3-1.2
					c0.7-0.2,1.3-0.4,2-0.6V8.1h-1.7V7h1.7V4h1.1v3h1.4v1.1h-1.4v3.3c0.5-0.2,1-0.5,1.5-0.8v1.2c-0.5,0.3-1,0.5-1.5,0.7v4.6
					c0,0.9-0.5,1.3-1.4,1.3H411.9z M419.2,6.5V3.9h1.1v7.9c0,3.1-1,5.4-2.8,6.8l-0.9-0.8c1-0.7,1.7-1.7,2.1-2.9
					c-0.7,0.2-1.7,0.4-2.8,0.5l-0.2-1.1c1.3-0.1,2.4-0.3,3.2-0.5c0.1-0.6,0.2-1.3,0.2-2v-0.6h-2.3v-1.1h2.3V7.5h-2.6v-1H419.2z
					 M423.3,3.9v2.6h2.8v1h-2.8v2.7h2.4v1.1h-2.4V14h2.9v1.1h-2.9v3.5h-1.1V3.9H423.3z"/>
				<path class="st1" d="M433,18.6h-1.2v-5.7c-1,0.3-2,0.6-3.2,0.9l-0.6-1.1c2.8-0.6,5.1-1.3,6.9-2.2c-0.7-0.6-1.7-1.2-2.9-1.9
					l1-0.6c1.2,0.8,2.2,1.4,2.9,2c1.6-1,2.8-2.1,3.6-3.4h-5.9c-1.1,1-2.5,1.9-4.2,2.7l-0.8-1c2.7-1.2,4.6-2.6,5.5-4.3l1.3,0.1
					c-0.3,0.5-0.5,0.9-0.9,1.4h6.2v1c-1.2,2.2-3.2,4-6.2,5.4h6.7v6.8h-1.2v-0.9H433V18.6z M440.2,12.9H433v3.6h7.2V12.9z"/>
			</g>
			<polygon id="Rectangle-14-Copy-3" class="st2" points="294,0 304,0 304,20 294,24 			"/>
			<path id="Rectangle-14-Copy-3_1_" class="st3" d="M285,1v18.3l9,3.6l9-3.6V1H285z"/>
			<g class="st0">
				<path class="st1" d="M35.4,6.9V4h1.2v2.9h6.2V8h-5.2c1.1,2.5,3,4.8,5.7,6.8l-0.8,1c-2.8-2.3-4.8-4.9-5.9-7.8h-0.1v6.2H40v1.1
					h-3.4v3.3h-1.2v-3.3h-3.3v-1.1h3.3V8h-0.1c-1.2,3.2-3.2,5.9-6.1,8l-0.7-1.1c2.7-1.8,4.6-4.1,5.8-6.9h-5.2V6.9H35.4z"/>
				<path class="st1" d="M48.6,5.1V3.9h1.1v1.2h5.5V3.9h1.1v1.2h2.8v1h-2.8v5.3h3.1v1h-3.3c0.8,1,2,1.7,3.6,2.3l-0.5,1
					c-2-0.8-3.4-1.9-4.2-3.2h-5c-0.8,1.3-2.2,2.4-4,3.3l-0.6-1c1.6-0.6,2.8-1.4,3.5-2.3h-3.3v-1h3.1V6.1h-2.8v-1H48.6z M53,13v1.3
					h3.2v1H53V17h5.5v1.1H46.3V17h5.6v-1.7h-3.3v-1h3.3V13H53z M55.2,7.3V6.1h-5.5v1.2H55.2z M55.2,9.3V8.2h-5.5v1.1H55.2z
					 M55.2,11.4v-1.2h-5.5v1.2H55.2z"/>
				<path class="st1" d="M62.4,9.8l-0.7-1c2.8-1.2,5.1-2.8,6.8-4.8h0.9C71,6,73.2,7.5,76.2,8.8l-0.7,1c-0.8-0.4-1.6-0.8-2.4-1.2v0.9
					h-3.6v2.3h5.7v1.1h-5.7v4.3h1.8c0.5-1,1-2.2,1.4-3.4l1.1,0.4c-0.4,1.1-0.8,2.1-1.3,3h3.3v1.1H62.1v-1.1h3.3
					c-0.3-1-0.8-2-1.3-2.9l1-0.4c0.5,0.9,0.9,2,1.4,3.2h1.8v-4.3h-5.7v-1.1h5.7V9.4h-3.6V8.5C64,9,63.2,9.4,62.4,9.8z M69,5.1
					c-1.2,1.2-2.5,2.3-4,3.2h8C71.3,7.5,70,6.4,69,5.1z"/>
			</g>
			<rect id="Rectangle-14" x="129" class="st4" width="20" height="20"/>
			<rect id="Rectangle-14-Copy" class="st5" width="20" height="20"/>
		</g>
		<g id="Group-37" transform="translate(0.000000, 67.000000)">
			<rect id="Rectangle-6-Copy-5" x="756" y="149" class="st4" width="60" height="34"/>
			<rect id="Rectangle-6-Copy-3" x="688" y="119" class="st5" width="60" height="64"/>
			<g class="st0">
				<path class="st1" d="M703.9,100.7V115h-1.6v-12.3c-0.9,0.9-2,1.6-3.4,2V103c0.6-0.2,1.3-0.5,2-0.9c0.7-0.4,1.2-0.9,1.7-1.5
					H703.9z"/>
				<path class="st1" d="M716.5,102.7c0.8,1.3,1.1,3,1.1,5.2s-0.4,3.9-1.1,5.2c-0.9,1.5-2.2,2.3-3.9,2.3c-1.7,0-3-0.8-3.9-2.3
					c-0.8-1.3-1.1-3-1.1-5.2s0.4-3.9,1.1-5.2c0.9-1.5,2.1-2.3,3.9-2.3C714.3,100.4,715.6,101.2,716.5,102.7z M709.9,103.9
					c-0.4,1-0.6,2.3-0.6,4c0,1.7,0.2,3,0.6,4c0.6,1.4,1.5,2.1,2.8,2.1s2.2-0.7,2.8-2.1c0.4-1,0.6-2.3,0.6-4c0-1.7-0.2-3-0.6-4
					c-0.6-1.4-1.5-2.1-2.8-2.1S710.4,102.5,709.9,103.9z"/>
				<path class="st1" d="M722.7,113c0.2,0.2,0.4,0.5,0.4,0.9c0,0.3-0.1,0.6-0.4,0.9s-0.5,0.4-0.9,0.4c-0.4,0-0.6-0.1-0.9-0.4
					c-0.2-0.2-0.4-0.5-0.4-0.9c0-0.4,0.1-0.6,0.4-0.9c0.2-0.2,0.5-0.4,0.9-0.4C722.2,112.6,722.5,112.7,722.7,113z"/>
				<path class="st1" d="M734.6,101.6c0.8,0.7,1.2,1.6,1.2,2.6c0,0.8-0.2,1.4-0.5,1.9c-0.4,0.6-1,1-1.7,1.2v0
					c0.7,0.2,1.4,0.6,1.9,1.2c0.6,0.7,0.8,1.5,0.8,2.4c0,1.3-0.4,2.3-1.3,3c-0.9,0.8-2.2,1.2-3.8,1.2c-1.7,0-2.9-0.4-3.8-1.2
					c-0.9-0.8-1.3-1.8-1.3-3c0-0.9,0.3-1.7,0.8-2.4c0.5-0.6,1.1-1.1,1.9-1.2v0c-0.8-0.3-1.3-0.7-1.7-1.2c-0.4-0.5-0.5-1.2-0.5-1.9
					c0-1,0.4-1.9,1.2-2.6c0.8-0.8,2-1.2,3.5-1.2C732.6,100.4,733.8,100.8,734.6,101.6z M728.4,109c-0.6,0.5-0.9,1.2-0.9,2.1
					c0,0.8,0.3,1.5,0.9,2.1c0.6,0.5,1.5,0.8,2.7,0.8c1.2,0,2-0.3,2.7-0.8c0.6-0.5,0.9-1.2,0.9-2c0-0.9-0.3-1.6-0.9-2.1
					c-0.6-0.6-1.5-0.9-2.7-0.9C729.9,108.1,729.1,108.4,728.4,109z M728.7,102.6c-0.5,0.4-0.7,1-0.7,1.7c0,0.7,0.2,1.3,0.7,1.8
					c0.5,0.5,1.3,0.8,2.5,0.8c1.1,0,1.9-0.3,2.5-0.8c0.4-0.4,0.7-1,0.7-1.8c0-0.7-0.3-1.3-0.7-1.7c-0.6-0.5-1.4-0.8-2.4-0.8
					C730.1,101.8,729.3,102,728.7,102.6z"/>
			</g>
			<g class="st0">
				<path class="st1" d="M777.5,131.6c0.8,0.7,1.2,1.6,1.2,2.6c0,0.8-0.2,1.4-0.5,1.9c-0.4,0.6-1,1-1.7,1.2v0
					c0.7,0.2,1.4,0.6,1.9,1.2c0.6,0.7,0.8,1.5,0.8,2.4c0,1.3-0.4,2.3-1.3,3c-0.9,0.8-2.2,1.2-3.8,1.2c-1.7,0-2.9-0.4-3.8-1.2
					c-0.9-0.8-1.3-1.8-1.3-3c0-0.9,0.3-1.7,0.8-2.4c0.5-0.6,1.1-1.1,1.9-1.2v0c-0.8-0.3-1.3-0.7-1.7-1.2c-0.4-0.5-0.5-1.2-0.5-1.9
					c0-1,0.4-1.9,1.2-2.6c0.8-0.8,2-1.2,3.5-1.2C775.5,130.4,776.7,130.8,777.5,131.6z M771.3,139c-0.6,0.5-0.9,1.2-0.9,2.1
					c0,0.8,0.3,1.5,0.9,2.1c0.6,0.5,1.5,0.8,2.7,0.8c1.2,0,2-0.3,2.7-0.8c0.6-0.5,0.9-1.2,0.9-2c0-0.9-0.3-1.6-0.9-2.1
					c-0.6-0.6-1.5-0.9-2.7-0.9C772.8,138.1,772,138.4,771.3,139z M771.6,132.6c-0.5,0.4-0.7,1-0.7,1.7c0,0.7,0.2,1.3,0.7,1.8
					c0.5,0.5,1.3,0.8,2.5,0.8c1.1,0,1.9-0.3,2.5-0.8c0.4-0.4,0.7-1,0.7-1.8c0-0.7-0.3-1.3-0.7-1.7c-0.6-0.5-1.4-0.8-2.4-0.8
					C773,131.8,772.2,132,771.6,132.6z"/>
				<path class="st1" d="M784.1,143c0.2,0.2,0.4,0.5,0.4,0.9c0,0.3-0.1,0.6-0.4,0.9c-0.2,0.2-0.5,0.4-0.9,0.4
					c-0.4,0-0.6-0.1-0.9-0.4c-0.2-0.2-0.4-0.5-0.4-0.9c0-0.4,0.1-0.6,0.4-0.9c0.2-0.2,0.5-0.4,0.9-0.4
					C783.6,142.6,783.9,142.7,784.1,143z"/>
				<path class="st1" d="M795.9,131.6c0.8,0.8,1.3,1.8,1.3,3s-0.5,2.4-1.4,3.4c-0.5,0.5-1.5,1.3-3,2.3c-1.8,1.2-2.9,2.3-3.1,3.3h7.5
					v1.5h-9.5c0-1.3,0.5-2.5,1.4-3.5c0.6-0.6,1.6-1.5,3.1-2.5c1.1-0.8,1.9-1.4,2.2-1.8c0.7-0.8,1.1-1.6,1.1-2.6c0-0.9-0.3-1.5-0.8-2
					c-0.5-0.5-1.3-0.7-2.2-0.7c-1,0-1.7,0.3-2.3,1c-0.6,0.6-0.9,1.6-0.9,2.9h-1.6c0-1.6,0.5-2.9,1.3-3.8c0.9-1,2.1-1.4,3.5-1.4
					C794,130.4,795.1,130.8,795.9,131.6z"/>
			</g>
			<g class="st0">
				<path class="st1" d="M750,221.5v1.4h-18v-1.4H750z M748.6,207.2v1.4h-15.1v-1.4H748.6z M747.2,214.1v1.4h-12.4v-1.4H747.2z"/>
				<path class="st1" d="M753.5,212.9l-1-1.2c2-1.5,3.4-3.6,4.1-6.2l1.5,0.3c-0.2,0.8-0.5,1.5-0.8,2.1h12.4v1.4h-6.3v3.2h5.6v1.4
					h-5.6v4.3h6.9v1.4h-6.9v4.5H762v-4.5h-9.2v-1.4h3.3v-5.7h5.9v-3.2h-5.4C755.8,210.7,754.8,211.9,753.5,212.9z M762,218.2v-4.3
					h-4.5v4.3H762z"/>
			</g>
			<rect id="Rectangle-6-Copy-4" x="496" y="53" class="st4" width="60" height="130"/>
			<rect id="Rectangle-6-Copy-2" x="428" y="25" class="st5" width="60" height="158"/>
			<g class="st0">
				<path class="st1" d="M446.5,7.5c0.8,0.7,1.2,1.6,1.2,2.8c0,1.6-0.8,2.7-2.3,3.2c0.8,0.3,1.5,0.7,1.9,1.2
					c0.5,0.6,0.7,1.3,0.7,2.1c0,1.3-0.5,2.4-1.4,3.2c-0.9,0.8-2.1,1.3-3.6,1.3c-1.4,0-2.5-0.4-3.3-1c-1-0.8-1.6-2.1-1.7-3.7h1.7
					c0,1.1,0.4,2,1.1,2.6c0.6,0.5,1.3,0.7,2.2,0.7c1,0,1.8-0.3,2.5-0.9c0.6-0.6,0.9-1.3,0.9-2.1c0-0.9-0.3-1.5-0.8-2
					c-0.6-0.5-1.3-0.7-2.3-0.7H442v-1.3h1.1c1,0,1.7-0.2,2.2-0.6c0.5-0.4,0.8-1.1,0.8-1.9c0-0.8-0.3-1.4-0.7-1.9
					c-0.5-0.5-1.3-0.7-2.2-0.7c-1,0-1.7,0.2-2.2,0.8c-0.6,0.5-0.9,1.3-1,2.2h-1.6c0.1-1.4,0.6-2.5,1.5-3.2c0.8-0.8,1.9-1.2,3.3-1.2
					C444.5,6.4,445.6,6.8,446.5,7.5z"/>
				<path class="st1" d="M459.1,7.6c0.8,0.8,1.3,1.8,1.3,3s-0.5,2.4-1.4,3.4c-0.5,0.5-1.5,1.3-3,2.3c-1.8,1.2-2.9,2.3-3.1,3.3h7.5
					V21h-9.5c0-1.3,0.5-2.5,1.4-3.5c0.6-0.6,1.6-1.5,3.1-2.5c1.1-0.8,1.9-1.4,2.2-1.8c0.7-0.8,1.1-1.6,1.1-2.6c0-0.9-0.3-1.5-0.8-2
					c-0.5-0.5-1.3-0.7-2.2-0.7c-1,0-1.7,0.3-2.3,1c-0.6,0.6-0.9,1.6-0.9,2.9H451c0-1.6,0.5-2.9,1.3-3.8c0.9-1,2.1-1.4,3.5-1.4
					C457.1,6.4,458.2,6.8,459.1,7.6z"/>
				<path class="st1" d="M465.7,19c0.2,0.2,0.4,0.5,0.4,0.9c0,0.3-0.1,0.6-0.4,0.9c-0.2,0.2-0.5,0.4-0.9,0.4c-0.4,0-0.6-0.1-0.9-0.4
					c-0.2-0.2-0.4-0.5-0.4-0.9c0-0.4,0.1-0.6,0.4-0.9c0.2-0.2,0.5-0.4,0.9-0.4C465.2,18.6,465.5,18.7,465.7,19z"/>
				<path class="st1" d="M477.8,8.4c0.8,1.2,1.3,2.9,1.3,5.1c0,2.3-0.5,4.1-1.3,5.6c-1,1.5-2.2,2.2-3.8,2.2c-2.7,0-4.2-1.3-4.6-3.8
					h1.6c0.3,1.6,1.3,2.4,3,2.4c1.1,0,2-0.6,2.6-1.7c0.6-1.1,0.9-2.4,0.9-4c0-0.1,0-0.3,0-0.5h-0.1c-0.4,0.7-0.9,1.3-1.5,1.7
					c-0.6,0.4-1.4,0.6-2.2,0.6c-1.4,0-2.5-0.5-3.3-1.4c-0.8-0.9-1.2-2-1.2-3.4c0-1.4,0.4-2.6,1.4-3.5c0.9-0.9,2.1-1.4,3.5-1.4
					C475.6,6.4,476.9,7.1,477.8,8.4z M471.6,8.8c-0.6,0.7-0.9,1.5-0.9,2.5c0,1,0.3,1.8,0.9,2.4c0.6,0.6,1.4,0.9,2.4,0.9
					c0.9,0,1.7-0.3,2.3-1c0.6-0.6,0.9-1.5,0.9-2.4c0-1-0.3-1.8-0.9-2.5c-0.6-0.7-1.4-1-2.4-1C473,7.8,472.2,8.1,471.6,8.8z"/>
			</g>
			<g class="st0">
				<path class="st1" d="M512.5,35.6c0.8,0.8,1.3,1.8,1.3,3s-0.5,2.4-1.4,3.4c-0.5,0.5-1.5,1.3-3,2.3c-1.8,1.2-2.9,2.3-3.1,3.3h7.5
					V49h-9.5c0-1.3,0.5-2.5,1.4-3.5c0.6-0.6,1.6-1.5,3.1-2.5c1.1-0.8,1.9-1.4,2.2-1.8c0.7-0.8,1.1-1.6,1.1-2.6c0-0.9-0.3-1.5-0.8-2
					c-0.5-0.5-1.3-0.7-2.2-0.7c-1,0-1.7,0.3-2.3,1c-0.6,0.6-0.9,1.6-0.9,2.9h-1.6c0-1.6,0.5-2.9,1.3-3.8c0.9-1,2.1-1.4,3.5-1.4
					C510.5,34.4,511.6,34.8,512.5,35.6z"/>
				<path class="st1" d="M525.3,36.4c0.8,1.2,1.3,2.9,1.3,5.1c0,2.3-0.5,4.1-1.3,5.6c-1,1.5-2.2,2.2-3.8,2.2c-2.7,0-4.2-1.3-4.6-3.8
					h1.6c0.3,1.6,1.3,2.4,3,2.4c1.1,0,2-0.6,2.6-1.7c0.6-1.1,0.9-2.4,0.9-4c0-0.1,0-0.3,0-0.5h-0.1c-0.4,0.7-0.9,1.3-1.5,1.7
					c-0.6,0.4-1.4,0.6-2.2,0.6c-1.4,0-2.5-0.5-3.3-1.4c-0.8-0.9-1.2-2-1.2-3.4c0-1.4,0.4-2.6,1.4-3.5c0.9-0.9,2.1-1.4,3.5-1.4
					C523.2,34.4,524.5,35.1,525.3,36.4z M519.1,36.8c-0.6,0.7-0.9,1.5-0.9,2.5c0,1,0.3,1.8,0.9,2.4c0.6,0.6,1.4,0.9,2.4,0.9
					c0.9,0,1.7-0.3,2.3-1c0.6-0.6,0.9-1.5,0.9-2.4c0-1-0.3-1.8-0.9-2.5c-0.6-0.7-1.4-1-2.4-1S519.7,36.1,519.1,36.8z"/>
				<path class="st1" d="M531.7,47c0.2,0.2,0.4,0.5,0.4,0.9c0,0.3-0.1,0.6-0.4,0.9c-0.2,0.2-0.5,0.4-0.9,0.4c-0.4,0-0.6-0.1-0.9-0.4
					c-0.2-0.2-0.4-0.5-0.4-0.9c0-0.4,0.1-0.6,0.4-0.9c0.2-0.2,0.5-0.4,0.9-0.4C531.2,46.6,531.5,46.7,531.7,47z"/>
				<path class="st1" d="M544.1,34.7v1.3L538.9,49h-1.7l5.3-12.8h-7.7v-1.5H544.1z"/>
			</g>
			<g class="st0">
				<path class="st1" d="M489.9,220.5v1.5h-17.9v-1.5H489.9z M488.1,207.9v1.4h-14.2v-1.4H488.1z"/>
				<path class="st1" d="M493.5,212.9l-1-1.2c2-1.5,3.4-3.6,4.1-6.2l1.5,0.3c-0.2,0.8-0.5,1.5-0.8,2.1h12.4v1.4h-6.3v3.2h5.6v1.4
					h-5.6v4.3h6.9v1.4h-6.9v4.5H502v-4.5h-9.2v-1.4h3.3v-5.7h5.9v-3.2h-5.4C495.8,210.7,494.8,211.9,493.5,212.9z M502,218.2v-4.3
					h-4.5v4.3H502z"/>
			</g>
			<rect id="Rectangle-6-Copy-6" x="236" y="117" class="st4" width="60" height="66"/>
			<rect id="Rectangle-6-Copy" x="168" y="95" class="st5" width="60" height="88"/>
			<g class="st0">
				<path class="st1" d="M183.9,76.7V91h-1.6V78.7c-0.9,0.9-2,1.6-3.4,2V79c0.6-0.2,1.3-0.5,2-0.9c0.7-0.4,1.2-0.9,1.7-1.5H183.9z"
					/>
				<path class="st1" d="M196.4,78.4c0.8,1.2,1.3,2.9,1.3,5.1c0,2.3-0.5,4.1-1.3,5.6c-1,1.5-2.2,2.2-3.8,2.2c-2.7,0-4.2-1.3-4.6-3.8
					h1.6c0.3,1.6,1.3,2.4,3,2.4c1.1,0,2-0.6,2.6-1.7c0.6-1.1,0.9-2.4,0.9-4c0-0.1,0-0.3,0-0.5h-0.1c-0.4,0.7-0.9,1.3-1.5,1.7
					c-0.6,0.4-1.4,0.6-2.2,0.6c-1.4,0-2.5-0.5-3.3-1.4c-0.8-0.9-1.2-2-1.2-3.4c0-1.4,0.4-2.6,1.4-3.5c0.9-0.9,2.1-1.4,3.5-1.4
					C194.2,76.4,195.5,77.1,196.4,78.4z M190.1,78.8c-0.6,0.7-0.9,1.5-0.9,2.5c0,1,0.3,1.8,0.9,2.4c0.6,0.6,1.4,0.9,2.4,0.9
					c0.9,0,1.7-0.3,2.3-1c0.6-0.6,0.9-1.5,0.9-2.4c0-1-0.3-1.8-0.9-2.5c-0.6-0.7-1.4-1-2.4-1C191.5,77.8,190.7,78.1,190.1,78.8z"/>
				<path class="st1" d="M202.7,89c0.2,0.2,0.4,0.5,0.4,0.9c0,0.3-0.1,0.6-0.4,0.9c-0.2,0.2-0.5,0.4-0.9,0.4c-0.4,0-0.6-0.1-0.9-0.4
					c-0.2-0.2-0.4-0.5-0.4-0.9c0-0.4,0.1-0.6,0.4-0.9c0.2-0.2,0.5-0.4,0.9-0.4C202.2,88.6,202.5,88.7,202.7,89z"/>
				<path class="st1" d="M215.9,80.3h-1.6c-0.3-1.6-1.3-2.4-3-2.4c-1.1,0-2,0.5-2.6,1.7c-0.6,1-0.9,2.4-0.9,4c0,0.1,0,0.3,0,0.5h0.1
					c0.4-0.7,0.9-1.3,1.5-1.7c0.6-0.4,1.4-0.6,2.2-0.6c1.4,0,2.5,0.4,3.3,1.3c0.8,0.9,1.2,2,1.2,3.4s-0.5,2.6-1.4,3.5
					c-0.9,0.9-2.1,1.4-3.5,1.4c-1.7,0-3-0.7-3.9-1.9c-0.8-1.2-1.2-2.9-1.2-5.1c0-2.3,0.4-4.1,1.3-5.6c0.9-1.5,2.2-2.2,3.8-2.2
					C213.9,76.4,215.5,77.7,215.9,80.3z M208.9,84c-0.6,0.6-0.9,1.4-0.9,2.4s0.3,1.8,0.9,2.5c0.6,0.7,1.4,1,2.4,1c1,0,1.7-0.3,2.3-1
					c0.6-0.7,0.9-1.5,0.9-2.5s-0.3-1.8-0.9-2.4c-0.6-0.6-1.4-0.9-2.4-0.9C210.3,83,209.5,83.3,208.9,84z"/>
			</g>
			<g class="st0">
				<path class="st1" d="M243.9,90.7V105h-1.6V92.7c-0.9,0.9-2,1.6-3.4,2V93c0.6-0.2,1.3-0.5,2-0.9c0.7-0.4,1.2-0.9,1.7-1.5H243.9z"
					/>
				<path class="st1" d="M257.4,94.3h-1.6c-0.3-1.6-1.3-2.4-3-2.4c-1.1,0-2,0.5-2.6,1.7c-0.6,1-0.9,2.4-0.9,4c0,0.1,0,0.3,0,0.5h0.1
					c0.4-0.7,0.9-1.3,1.5-1.7c0.6-0.4,1.4-0.6,2.2-0.6c1.4,0,2.5,0.4,3.3,1.3c0.8,0.9,1.2,2,1.2,3.4s-0.5,2.6-1.4,3.5
					c-0.9,0.9-2.1,1.4-3.5,1.4c-1.7,0-3-0.7-3.9-1.9c-0.8-1.2-1.2-2.9-1.2-5.1c0-2.3,0.4-4.1,1.3-5.6c0.9-1.5,2.2-2.2,3.8-2.2
					C255.5,90.4,257,91.7,257.4,94.3z M250.4,98c-0.6,0.6-0.9,1.4-0.9,2.4s0.3,1.8,0.9,2.5c0.6,0.7,1.4,1,2.4,1c1,0,1.7-0.3,2.3-1
					c0.6-0.7,0.9-1.5,0.9-2.5s-0.3-1.8-0.9-2.4c-0.6-0.6-1.4-0.9-2.4-0.9C251.8,97,251,97.3,250.4,98z"/>
				<path class="st1" d="M262.7,103c0.2,0.2,0.4,0.5,0.4,0.9c0,0.3-0.1,0.6-0.4,0.9c-0.2,0.2-0.5,0.4-0.9,0.4
					c-0.4,0-0.6-0.1-0.9-0.4c-0.2-0.2-0.4-0.5-0.4-0.9c0-0.4,0.1-0.6,0.4-0.9c0.2-0.2,0.5-0.4,0.9-0.4
					C262.2,102.6,262.5,102.7,262.7,103z"/>
				<path class="st1" d="M275.5,90.7v1.5h-7l-0.5,4.8h0.1c0.4-0.5,0.9-0.8,1.5-1.1c0.6-0.2,1.2-0.3,1.8-0.3c1.4,0,2.5,0.4,3.3,1.3
					c0.8,0.9,1.3,2.1,1.3,3.6c0,1.4-0.5,2.6-1.5,3.5c-1,0.9-2.2,1.3-3.6,1.3c-1.3,0-2.3-0.3-3.2-1c-1-0.8-1.5-1.8-1.6-3.1h1.6
					c0.1,0.9,0.4,1.6,1.1,2.1c0.6,0.4,1.3,0.6,2.2,0.6c1,0,1.8-0.3,2.5-1c0.6-0.6,1-1.5,1-2.5c0-1.1-0.3-2-0.9-2.6
					c-0.6-0.6-1.4-0.9-2.4-0.9c-0.7,0-1.3,0.1-1.8,0.4c-0.6,0.3-1,0.7-1.3,1.3h-1.6l0.8-7.9H275.5z"/>
				<path class="st1" d="M288.1,90.7v1.5h-7l-0.5,4.8h0.1c0.4-0.5,0.9-0.8,1.5-1.1c0.6-0.2,1.2-0.3,1.8-0.3c1.4,0,2.5,0.4,3.3,1.3
					c0.8,0.9,1.3,2.1,1.3,3.6c0,1.4-0.5,2.6-1.5,3.5c-1,0.9-2.2,1.3-3.6,1.3c-1.3,0-2.3-0.3-3.2-1c-1-0.8-1.5-1.8-1.6-3.1h1.6
					c0.1,0.9,0.4,1.6,1.1,2.1c0.6,0.4,1.3,0.6,2.2,0.6c1,0,1.8-0.3,2.5-1c0.6-0.6,1-1.5,1-2.5c0-1.1-0.3-2-0.9-2.6
					c-0.6-0.6-1.4-0.9-2.4-0.9c-0.7,0-1.3,0.1-1.8,0.4c-0.6,0.3-1,0.7-1.3,1.3H279l0.8-7.9H288.1z"/>
			</g>
			<g class="st0">
				<path class="st1" d="M230,213.9v1.4h-18v-1.4H230z"/>
				<path class="st1" d="M233.5,212.9l-1-1.2c2-1.5,3.4-3.6,4.1-6.2l1.5,0.3c-0.2,0.8-0.5,1.5-0.8,2.1h12.4v1.4h-6.3v3.2h5.6v1.4
					h-5.6v4.3h6.9v1.4h-6.9v4.5H242v-4.5h-9.2v-1.4h3.3v-5.7h5.9v-3.2h-5.4C235.8,210.7,234.8,211.9,233.5,212.9z M242,218.2v-4.3
					h-4.5v4.3H242z"/>
			</g>
			<g id="flag2-copy" transform="translate(824.000000, 156.396511)">
				<polygon id="Rectangle-14-Copy-3_2_" class="st2" points="10,0 20,0 20,20.8 10,25 				"/>
				<path id="Rectangle-14-Copy-3_3_" class="st6" d="M1,1v19.2l9,3.8l9-3.8V1H1z"/>
				<path id="Path" class="st5" d="M13.3,17.7H5.8c-0.4,0-0.6,0-0.7,0C5,17.6,5,17.6,5,17.5c0-0.1,0.1-0.3,0.3-0.4
					C6,16.6,7,15.8,8.2,14.6s2.1-2.3,2.6-3.3c0.5-1.1,0.8-2.1,0.8-3.2c0-0.6-0.1-1.1-0.4-1.5C11,6.2,10.6,6,10.2,6
					c-0.5,0-1,0.2-1.4,0.6C8.4,7,8,7.5,7.8,8.2c-0.3,0.7-0.4,1.4-0.4,2.1c0,0.4,0.1,0.7,0.2,0.9c0.1,0.2,0.3,0.3,0.5,0.3
					c0.3,0,0.6-0.2,0.9-0.5c0.3-0.3,0.5-0.6,0.6-0.9c0.1-0.2,0.2-0.4,0.4-0.4c0.2,0,0.3,0.1,0.3,0.3c0,0.3-0.3,0.8-0.8,1.6
					c-0.5,0.7-1.2,1.1-2.1,1.1c-0.7,0-1.2-0.2-1.6-0.7c-0.4-0.5-0.6-1-0.6-1.5c0-1.3,0.7-2.5,2-3.6s2.6-1.7,3.9-1.7
					c1,0,1.8,0.3,2.5,1c0.6,0.6,0.9,1.4,0.9,2.4c0,0.5-0.1,1-0.3,1.5c-0.2,0.5-0.5,1-0.8,1.4s-1,1-1.9,1.7c-1,0.8-1.9,1.5-2.8,2.1
					h2.1c1.1,0,1.8-0.1,2.1-0.2c0.3-0.1,0.6-0.4,1-0.9c0.2-0.3,0.4-0.5,0.5-0.5c0.2,0,0.3,0.1,0.3,0.3c0,0.1,0,0.2-0.1,0.4
					C14.2,15.3,13.8,16.4,13.3,17.7z"/>
			</g>
			<g id="flag1-copy-3" transform="translate(564.000000, 156.396511)">
				<polygon id="Rectangle-14-Copy-3_4_" class="st2" points="10,0 20,0 20,20.8 10,25 				"/>
				<path id="Rectangle-14-Copy-2" class="st6" d="M1,1v19.2l9,3.8l9-3.8V1H1z"/>
				<path id="Path_1_" class="st5" d="M11.8,5.9v8.4c0,1.2,0.1,1.9,0.3,2.2s0.5,0.5,1,0.5c0.3,0,0.5,0,0.6,0.1
					c0.1,0,0.1,0.1,0.1,0.3c0,0.2-0.1,0.3-0.4,0.3c-0.1,0-0.1,0-0.2,0c-1.1-0.1-1.9-0.1-2.5-0.1c-0.6,0-1.3,0-2.4,0.1
					c-0.4,0-0.6,0-0.8,0c-0.3,0-0.4-0.1-0.4-0.3c0-0.1,0-0.2,0.1-0.3c0.1,0,0.3-0.1,0.7-0.1c0.4,0,0.7-0.1,0.9-0.3s0.3-0.4,0.3-0.6
					c0-0.2,0.1-0.7,0.1-1.4v-5c0-0.9,0-1.5-0.1-1.8S9,7.4,8.8,7.2C8.6,7.1,8.2,7,7.8,6.9c-0.4,0-0.6-0.1-0.7-0.1C7,6.8,7,6.7,7,6.6
					c0-0.1,0-0.2,0.1-0.3s0.3-0.1,0.6-0.1c1.3-0.1,2.5-0.4,3.5-0.9c0.1-0.1,0.2-0.1,0.3-0.1C11.7,5.2,11.8,5.4,11.8,5.9z"/>
			</g>
			<g id="flag1-copy-3_1_" transform="translate(304.000000, 156.396511)">
				<polygon id="Rectangle-14-Copy-3_5_" class="st2" points="10,0 20,0 20,20.8 10,25 				"/>
				<path id="Rectangle-14-Copy-2_1_" class="st6" d="M1,1v19.2l9,3.8l9-3.8V1H1z"/>
				<path id="Path_2_" class="st5" d="M11.8,5.9v8.4c0,1.2,0.1,1.9,0.3,2.2s0.5,0.5,1,0.5c0.3,0,0.5,0,0.6,0.1
					c0.1,0,0.1,0.1,0.1,0.3c0,0.2-0.1,0.3-0.4,0.3c-0.1,0-0.1,0-0.2,0c-1.1-0.1-1.9-0.1-2.5-0.1c-0.6,0-1.3,0-2.4,0.1
					c-0.4,0-0.6,0-0.8,0c-0.3,0-0.4-0.1-0.4-0.3c0-0.1,0-0.2,0.1-0.3c0.1,0,0.3-0.1,0.7-0.1c0.4,0,0.7-0.1,0.9-0.3s0.3-0.4,0.3-0.6
					c0-0.2,0.1-0.7,0.1-1.4v-5c0-0.9,0-1.5-0.1-1.8S9,7.4,8.8,7.2C8.6,7.1,8.2,7,7.8,6.9c-0.4,0-0.6-0.1-0.7-0.1C7,6.8,7,6.7,7,6.6
					c0-0.1,0-0.2,0.1-0.3s0.3-0.1,0.6-0.1c1.3-0.1,2.5-0.4,3.5-0.9c0.1-0.1,0.2-0.1,0.3-0.1C11.7,5.2,11.8,5.4,11.8,5.9z"/>
			</g>
			<rect id="Rectangle-5" y="183" class="st7" width="1024" height="2"/>
		</g>
	</g>
</g>
</svg>
