<?xml version="1.0" encoding="utf-8"?>
<!-- Generator: Adobe Illustrator 22.0.1, SVG Export Plug-In . SVG Version: 6.00 Build 0)  -->
<svg version="1.1" id="圖層_1" xmlns="http://www.w3.org/2000/svg" xmlns:xlink="http://www.w3.org/1999/xlink" x="0px" y="0px"
	 viewBox="0 0 540 328" style="enable-background:new 0 0 540 328;" xml:space="preserve">
<style type="text/css">
	.st0{enable-background:new    ;}
	.st1{fill:#4A4A4A;}
	.st2{fill:#ECECEC;}
	.st3{fill:none;stroke:#4A4A4A;stroke-width:2;}
	.st4{fill:#B7956F;}
	.st5{fill:#004483;}
	.st6{fill:none;stroke:#004483;stroke-width:2;}
	.st7{fill:#BCBCBC;}
</style>
<title>s3_1_m copy</title>
<desc>Created with Sketch.</desc>
<g id="s3_1_m-copy">
	<g id="Group-34">
		<g id="Group-16" transform="translate(0.000000, 63.000000)">
			<g class="st0">
				<path class="st1" d="M215.9,259.5l-0.3-1.2l2.1,0c0.4,0,0.6-0.2,0.6-0.7v-11h-10.5v12.9h-1.2v-14h12.8V258c0,1-0.5,1.6-1.4,1.6
					H215.9z M217.1,248.5v1.1h-8.2v-1.1H217.1z M216.2,251.3v5.2h-6.4v-5.2H216.2z M215.1,252.3h-4.2v3.1h4.2V252.3z"/>
				<path class="st1" d="M225.2,254.6c0-0.2,0-0.3,0-0.5v-1.4h1.1v1.4c0,0.2,0,0.3,0,0.5h3v1h-3.1c0,0.1,0,0.2-0.1,0.3
					c1.2,0.9,2.2,1.8,3.1,2.8l-0.8,0.8c-0.7-0.8-1.5-1.7-2.6-2.6c-0.5,1.2-1.5,2.2-2.8,2.9l-0.8-0.7c1.6-0.8,2.5-1.9,2.9-3.4h-2.5
					v-1H225.2z M225,250.3c-0.6,0.9-1.3,1.7-2.1,2.3l-0.6-0.8c0.8-0.6,1.5-1.3,2-2.2L225,250.3z M225.5,248.1V245h1.1v3.1h2.8v0.9
					h-2.8v3.2h-1.1V249h-2.8v-0.9H225.5z M224.8,247.3l-0.8,0.4c-0.3-0.8-0.7-1.4-1.1-2l0.9-0.3
					C224.2,245.9,224.5,246.6,224.8,247.3z M229,253.9l-0.7,0.5c-0.3-0.5-0.7-1-1.2-1.5l0.7-0.5C228.3,253,228.7,253.5,229,253.9z
					 M229.6,251.6l-0.6,0.7c-0.6-0.8-1.2-1.5-1.9-2.1l0.6-0.6C228.4,250.2,229,250.9,229.6,251.6z M229.1,245.6
					c-0.3,0.7-0.7,1.4-1.1,1.9l-0.8-0.5c0.4-0.5,0.7-1.1,1-1.8L229.1,245.6z M232.7,257.2c-0.7,1-1.6,1.8-2.6,2.5l-0.6-0.8
					c1-0.7,1.8-1.5,2.5-2.4L232.7,257.2z M236.7,245.5v1h-2.9c0,0.5-0.1,0.9-0.1,1.4h2.5v8.5h-5.9v-8.5h2.2c0-0.4,0.1-0.9,0.1-1.4
					h-3v-1H236.7z M235.1,250.4v-1.5h-3.7v1.5H235.1z M235.1,252.9v-1.5h-3.7v1.5H235.1z M235.1,253.8h-3.7v1.6h3.7V253.8z
					 M236.9,258.8l-0.8,0.7c-0.6-0.7-1.4-1.5-2.5-2.4l0.7-0.7C235.3,257.3,236.2,258.1,236.9,258.8z"/>
				<path class="st1" d="M245.5,255.2v-1.4h1.2v1.4h5.5v1.1h-5.5v1.9h6.4v1.1h-14.1v-1.1h6.5v-1.9h-5.6v-1.1H245.5z M247,245.6v1
					h-1.6v2.4h2v1.1h-2v3.5h-1.1v-3.5h-2.1c-0.2,1.6-0.8,2.9-1.8,3.7l-0.9-0.8c0.9-0.7,1.4-1.6,1.6-3h-2v-1.1h2v-2.4h-1.6v-1H247z
					 M242.2,249.1h2v-2.4h-2V249.1z M249.4,246v5.5h-1.1V246H249.4z M248.8,253.8l-0.2-1.1c0.7,0,1.4,0.1,2,0.1
					c0.4,0,0.6-0.3,0.6-0.7v-6.9h1.1v7.2c0,1-0.4,1.5-1.3,1.5H248.8z"/>
				<path class="st1" d="M268.9,245.6v1.1h-6v6h6.6v1.1H263v5.7h-1.2v-5.7h-6.4v-1.1h6.4v-6H256v-1.1H268.9z M259.7,251.5l-1.1,0.5
					c-0.5-1.4-1.1-2.6-1.7-3.7l1.1-0.5C258.6,248.9,259.1,250.1,259.7,251.5z M268.1,248.2c-0.5,1.3-1.1,2.5-1.9,3.7l-1-0.5
					c0.8-1.2,1.4-2.5,1.9-3.7L268.1,248.2z"/>
				<path class="st1" d="M273.4,249.2V245h1.2v4.2h1.6v1.1h-1.6v5.4c0.8-0.2,1.5-0.5,2.2-0.8v1.2c-1.6,0.6-3.2,1.1-5,1.5l-0.3-1.2
					c0.7-0.1,1.3-0.2,1.9-0.4v-5.7h-1.8v-1.1H273.4z M280.5,245c-0.2,0.8-0.4,1.6-0.7,2.4h5.9c0,5.5-0.1,8.9-0.3,10.2
					c-0.2,1.3-0.9,1.9-2.3,1.9c-0.4,0-1.2,0-2.2-0.1l-0.3-1.1c0.9,0,1.7,0.1,2.3,0.1c0.8,0,1.3-0.4,1.4-1.2c0.1-0.9,0.2-3.8,0.3-8.6
					h-5.2c-0.5,1.2-1.2,2.2-2,3.1l-0.8-1c1.4-1.6,2.3-3.5,2.8-5.8L280.5,245z M283.5,254.1v1h-5.3v-1H283.5z M283.2,251.1v1h-4.7v-1
					H283.2z"/>
			</g>
			<g class="st0">
				<path class="st1" d="M367.4,247.9V245h1.2v2.9h6.2v1.1h-5.2c1.1,2.5,3,4.8,5.7,6.8l-0.8,1c-2.8-2.3-4.8-4.9-5.9-7.8h-0.1v6.2
					h3.4v1.1h-3.4v3.3h-1.2v-3.3h-3.3v-1.1h3.3V249h-0.1c-1.2,3.2-3.2,5.9-6.1,8l-0.7-1.1c2.7-1.8,4.6-4.1,5.8-6.9h-5.2v-1.1H367.4z
					"/>
				<path class="st1" d="M380.6,246.1v-1.2h1.1v1.2h5.5v-1.2h1.1v1.2h2.8v1h-2.8v5.3h3.1v1h-3.3c0.8,1,2,1.7,3.6,2.3l-0.5,1
					c-2-0.8-3.4-1.9-4.2-3.2h-5c-0.8,1.3-2.2,2.4-4,3.3l-0.6-1c1.6-0.6,2.8-1.4,3.5-2.3h-3.3v-1h3.1v-5.3h-2.8v-1H380.6z M385,254
					v1.3h3.2v1H385v1.7h5.5v1.1h-12.2V258h5.6v-1.7h-3.3v-1h3.3V254H385z M387.2,248.3v-1.2h-5.5v1.2H387.2z M387.2,250.3v-1.1h-5.5
					v1.1H387.2z M387.2,252.4v-1.2h-5.5v1.2H387.2z"/>
				<path class="st1" d="M394.4,250.8l-0.7-1c2.8-1.2,5.1-2.8,6.8-4.8h0.9c1.5,1.9,3.8,3.5,6.8,4.7l-0.7,1c-0.8-0.4-1.6-0.8-2.4-1.2
					v0.9h-3.6v2.3h5.7v1.1h-5.7v4.3h1.8c0.5-1,1-2.2,1.4-3.4l1.1,0.4c-0.4,1.1-0.8,2.1-1.3,3h3.3v1.1h-13.7v-1.1h3.3
					c-0.3-1-0.8-2-1.3-2.9l1-0.4c0.5,0.9,0.9,2,1.4,3.2h1.8v-4.3h-5.7v-1.1h5.7v-2.3h-3.6v-0.9C396,250,395.2,250.4,394.4,250.8z
					 M401,246.1c-1.2,1.2-2.5,2.3-4,3.2h8C403.3,248.5,402,247.4,401,246.1z"/>
				<path class="st1" d="M424,259.4h-1.2v-0.9H412v0.9h-1.2v-13.4H424V259.4z M422.9,257.4V247h-3.2v6.1c0,0.3,0.2,0.5,0.6,0.5h2
					v1.1H420c-1,0-1.4-0.4-1.4-1.3V247h-2.4v3.5c0,2.2-0.9,3.9-2.7,4.9l-0.9-0.8c1.6-0.9,2.5-2.2,2.5-4.1V247H412v10.4H422.9z"/>
				<path class="st1" d="M432.1,246c-1.2,2.6-2.7,4.5-4.5,5.9l-0.9-0.8c2-1.4,3.4-3.2,4.4-5.5L432.1,246z M429,252.4v-1.1h9.5
					c0,2-0.1,3.6-0.3,4.9c-0.2,1.2-0.4,2.1-0.8,2.6c-0.4,0.5-0.9,0.7-1.7,0.8h-3l-0.3-1.1c1,0,1.9,0,2.7,0c0.9,0,1.4-0.4,1.7-1.1
					c0.3-0.8,0.5-2.4,0.5-4.9h-3.9c-0.4,1.7-0.9,3.1-1.6,4.2c-0.8,1.2-2.1,2.2-3.7,3.1l-0.7-1c1.5-0.8,2.6-1.7,3.4-2.6
					c0.7-0.9,1.2-2.1,1.5-3.6H429z M436.8,245.4c0.8,2.3,2.3,4.1,4.4,5.5l-0.7,1c-2-1.3-3.5-3.2-4.5-5.4h-2.3v-1.1H436.8z"/>
				<path class="st1" d="M447.8,245.3c-0.4,1.2-0.9,2.4-1.6,3.5v10.8h-1.2v-9c-0.5,0.7-1.1,1.4-1.7,2l-0.4-1.2
					c1.7-1.9,2.9-4.1,3.7-6.6L447.8,245.3z M452.9,257.7c0.8-2.1,1.5-4.8,2.1-8.1l1.1,0.3c-0.6,2.9-1.2,5.5-2,7.8h3.6v1.1h-10.3
					v-1.1H452.9z M452,247.5c-0.2-0.8-0.5-1.6-0.8-2.3l1.2-0.2c0.3,0.7,0.5,1.6,0.7,2.5h4.2v1.1h-9.6v-1.1H452z M451.3,256.9
					l-1.1,0.3c-0.4-2.4-1-4.8-1.7-7.1l1.1-0.3C450.3,251.9,450.9,254.3,451.3,256.9z"/>
				<path class="st1" d="M459.9,259.5l-0.3-1.1c0.5,0,0.9,0.1,1.4,0.1c0.4,0,0.7-0.2,0.7-0.5V254c-0.6,0.2-1.2,0.4-1.7,0.6l-0.3-1.2
					c0.7-0.2,1.3-0.4,2-0.6v-3.7h-1.7V248h1.7v-3h1.1v3h1.4v1.1h-1.4v3.3c0.5-0.2,1-0.5,1.5-0.8v1.2c-0.5,0.3-1,0.5-1.5,0.7v4.6
					c0,0.9-0.5,1.3-1.4,1.3H459.9z M467.2,247.5v-2.6h1.1v7.9c0,3.1-1,5.4-2.8,6.8l-0.9-0.8c1-0.7,1.7-1.7,2.1-2.9
					c-0.7,0.2-1.7,0.4-2.8,0.5l-0.2-1.1c1.3-0.1,2.4-0.3,3.2-0.5c0.1-0.6,0.2-1.3,0.2-2v-0.6h-2.3v-1.1h2.3v-2.7h-2.6v-1H467.2z
					 M471.3,244.9v2.6h2.8v1h-2.8v2.7h2.4v1.1h-2.4v2.8h2.9v1.1h-2.9v3.5h-1.1v-14.7H471.3z"/>
				<path class="st1" d="M481,259.6h-1.2v-5.7c-1,0.3-2,0.6-3.2,0.9l-0.6-1.1c2.8-0.6,5.1-1.3,6.9-2.2c-0.7-0.6-1.7-1.2-2.9-1.9
					l1-0.6c1.2,0.8,2.2,1.4,2.9,2c1.6-1,2.8-2.1,3.6-3.4h-5.9c-1.1,1-2.5,1.9-4.2,2.7l-0.8-1c2.7-1.2,4.6-2.6,5.5-4.3l1.3,0.1
					c-0.3,0.5-0.5,0.9-0.9,1.4h6.2v1c-1.2,2.2-3.2,4-6.2,5.4h6.7v6.8h-1.2v-0.9H481V259.6z M488.2,253.9H481v3.6h7.2V253.9z"/>
			</g>
			<polygon id="Rectangle-14-Copy-3" class="st2" points="342,241 352,241 352,261 342,265 			"/>
			<path id="Rectangle-14-Copy-3_1_" class="st3" d="M333,242v18.3l9,3.6l9-3.6V242H333z"/>
			<g class="st0">
				<path class="st1" d="M83.4,247.9V245h1.2v2.9h6.2v1.1h-5.2c1.1,2.5,3,4.8,5.7,6.8l-0.8,1c-2.8-2.3-4.8-4.9-5.9-7.8h-0.1v6.2H88
					v1.1h-3.4v3.3h-1.2v-3.3h-3.3v-1.1h3.3V249h-0.1c-1.2,3.2-3.2,5.9-6.1,8l-0.7-1.1c2.7-1.8,4.6-4.1,5.8-6.9h-5.2v-1.1H83.4z"/>
				<path class="st1" d="M96.6,246.1v-1.2h1.1v1.2h5.5v-1.2h1.1v1.2h2.8v1h-2.8v5.3h3.1v1h-3.3c0.8,1,2,1.7,3.6,2.3l-0.5,1
					c-2-0.8-3.4-1.9-4.2-3.2h-5c-0.8,1.3-2.2,2.4-4,3.3l-0.6-1c1.6-0.6,2.8-1.4,3.5-2.3h-3.3v-1h3.1v-5.3h-2.8v-1H96.6z M101,254
					v1.3h3.2v1H101v1.7h5.5v1.1H94.3V258h5.6v-1.7h-3.3v-1h3.3V254H101z M103.2,248.3v-1.2h-5.5v1.2H103.2z M103.2,250.3v-1.1h-5.5
					v1.1H103.2z M103.2,252.4v-1.2h-5.5v1.2H103.2z"/>
				<path class="st1" d="M110.4,250.8l-0.7-1c2.8-1.2,5.1-2.8,6.8-4.8h0.9c1.5,1.9,3.8,3.5,6.8,4.7l-0.7,1c-0.8-0.4-1.6-0.8-2.4-1.2
					v0.9h-3.6v2.3h5.7v1.1h-5.7v4.3h1.8c0.5-1,1-2.2,1.4-3.4l1.1,0.4c-0.4,1.1-0.8,2.1-1.3,3h3.3v1.1h-13.7v-1.1h3.3
					c-0.3-1-0.8-2-1.3-2.9l1-0.4c0.5,0.9,0.9,2,1.4,3.2h1.8v-4.3h-5.7v-1.1h5.7v-2.3h-3.6v-0.9C112,250,111.2,250.4,110.4,250.8z
					 M117,246.1c-1.2,1.2-2.5,2.3-4,3.2h8C119.3,248.5,118,247.4,117,246.1z"/>
			</g>
			<rect id="Rectangle-14" x="177" y="241" class="st4" width="20" height="20"/>
			<rect id="Rectangle-14-Copy" x="48" y="241" class="st5" width="20" height="20"/>
			<rect id="Rectangle-6-Copy-5" x="424" y="149" class="st4" width="60" height="34"/>
			<rect id="Rectangle-6-Copy-3" x="356" y="119" class="st5" width="60" height="64"/>
			<g class="st0">
				<path class="st1" d="M371.9,100.7V115h-1.6v-12.3c-0.9,0.9-2,1.6-3.4,2V103c0.6-0.2,1.3-0.5,2-0.9c0.7-0.4,1.2-0.9,1.7-1.5
					H371.9z"/>
				<path class="st1" d="M384.5,102.7c0.8,1.3,1.1,3,1.1,5.2s-0.4,3.9-1.1,5.2c-0.9,1.5-2.2,2.3-3.9,2.3c-1.7,0-3-0.8-3.9-2.3
					c-0.8-1.3-1.1-3-1.1-5.2s0.4-3.9,1.1-5.2c0.9-1.5,2.1-2.3,3.9-2.3C382.3,100.4,383.6,101.2,384.5,102.7z M377.9,103.9
					c-0.4,1-0.6,2.3-0.6,4c0,1.7,0.2,3,0.6,4c0.6,1.4,1.5,2.1,2.8,2.1s2.2-0.7,2.8-2.1c0.4-1,0.6-2.3,0.6-4c0-1.7-0.2-3-0.6-4
					c-0.6-1.4-1.5-2.1-2.8-2.1S378.4,102.5,377.9,103.9z"/>
				<path class="st1" d="M390.7,113c0.2,0.2,0.4,0.5,0.4,0.9c0,0.3-0.1,0.6-0.4,0.9s-0.5,0.4-0.9,0.4c-0.4,0-0.6-0.1-0.9-0.4
					c-0.2-0.2-0.4-0.5-0.4-0.9c0-0.4,0.1-0.6,0.4-0.9c0.2-0.2,0.5-0.4,0.9-0.4C390.2,112.6,390.5,112.7,390.7,113z"/>
				<path class="st1" d="M402.6,101.6c0.8,0.7,1.2,1.6,1.2,2.6c0,0.8-0.2,1.4-0.5,1.9c-0.4,0.6-1,1-1.7,1.2v0
					c0.7,0.2,1.4,0.6,1.9,1.2c0.6,0.7,0.8,1.5,0.8,2.4c0,1.3-0.4,2.3-1.3,3c-0.9,0.8-2.2,1.2-3.8,1.2c-1.7,0-2.9-0.4-3.8-1.2
					c-0.9-0.8-1.3-1.8-1.3-3c0-0.9,0.3-1.7,0.8-2.4c0.5-0.6,1.1-1.1,1.9-1.2v0c-0.8-0.3-1.3-0.7-1.7-1.2c-0.4-0.5-0.5-1.2-0.5-1.9
					c0-1,0.4-1.9,1.2-2.6c0.8-0.8,2-1.2,3.5-1.2C400.6,100.4,401.8,100.8,402.6,101.6z M396.4,109c-0.6,0.5-0.9,1.2-0.9,2.1
					c0,0.8,0.3,1.5,0.9,2.1c0.6,0.5,1.5,0.8,2.7,0.8c1.2,0,2-0.3,2.7-0.8c0.6-0.5,0.9-1.2,0.9-2c0-0.9-0.3-1.6-0.9-2.1
					c-0.6-0.6-1.5-0.9-2.7-0.9C397.9,108.1,397.1,108.4,396.4,109z M396.7,102.6c-0.5,0.4-0.7,1-0.7,1.7c0,0.7,0.2,1.3,0.7,1.8
					c0.5,0.5,1.3,0.8,2.5,0.8c1.1,0,1.9-0.3,2.5-0.8c0.4-0.4,0.7-1,0.7-1.8c0-0.7-0.3-1.3-0.7-1.7c-0.6-0.5-1.4-0.8-2.4-0.8
					C398.1,101.8,397.3,102,396.7,102.6z"/>
			</g>
			<g class="st0">
				<path class="st1" d="M445.5,131.6c0.8,0.7,1.2,1.6,1.2,2.6c0,0.8-0.2,1.4-0.5,1.9c-0.4,0.6-1,1-1.7,1.2v0
					c0.7,0.2,1.4,0.6,1.9,1.2c0.6,0.7,0.8,1.5,0.8,2.4c0,1.3-0.4,2.3-1.3,3c-0.9,0.8-2.2,1.2-3.8,1.2c-1.7,0-2.9-0.4-3.8-1.2
					c-0.9-0.8-1.3-1.8-1.3-3c0-0.9,0.3-1.7,0.8-2.4c0.5-0.6,1.1-1.1,1.9-1.2v0c-0.8-0.3-1.3-0.7-1.7-1.2c-0.4-0.5-0.5-1.2-0.5-1.9
					c0-1,0.4-1.9,1.2-2.6c0.8-0.8,2-1.2,3.5-1.2C443.5,130.4,444.7,130.8,445.5,131.6z M439.3,139c-0.6,0.5-0.9,1.2-0.9,2.1
					c0,0.8,0.3,1.5,0.9,2.1c0.6,0.5,1.5,0.8,2.7,0.8c1.2,0,2-0.3,2.7-0.8c0.6-0.5,0.9-1.2,0.9-2c0-0.9-0.3-1.6-0.9-2.1
					c-0.6-0.6-1.5-0.9-2.7-0.9C440.8,138.1,440,138.4,439.3,139z M439.6,132.6c-0.5,0.4-0.7,1-0.7,1.7c0,0.7,0.2,1.3,0.7,1.8
					c0.5,0.5,1.3,0.8,2.5,0.8c1.1,0,1.9-0.3,2.5-0.8c0.4-0.4,0.7-1,0.7-1.8c0-0.7-0.3-1.3-0.7-1.7c-0.6-0.5-1.4-0.8-2.4-0.8
					C441,131.8,440.2,132,439.6,132.6z"/>
				<path class="st1" d="M452.1,143c0.2,0.2,0.4,0.5,0.4,0.9c0,0.3-0.1,0.6-0.4,0.9c-0.2,0.2-0.5,0.4-0.9,0.4
					c-0.4,0-0.6-0.1-0.9-0.4c-0.2-0.2-0.4-0.5-0.4-0.9c0-0.4,0.1-0.6,0.4-0.9c0.2-0.2,0.5-0.4,0.9-0.4
					C451.6,142.6,451.9,142.7,452.1,143z"/>
				<path class="st1" d="M463.9,131.6c0.8,0.8,1.3,1.8,1.3,3s-0.5,2.4-1.4,3.4c-0.5,0.5-1.5,1.3-3,2.3c-1.8,1.2-2.9,2.3-3.1,3.3h7.5
					v1.5h-9.5c0-1.3,0.5-2.5,1.4-3.5c0.6-0.6,1.6-1.5,3.1-2.5c1.1-0.8,1.9-1.4,2.2-1.8c0.7-0.8,1.1-1.6,1.1-2.6c0-0.9-0.3-1.5-0.8-2
					c-0.5-0.5-1.3-0.7-2.2-0.7c-1,0-1.7,0.3-2.3,1c-0.6,0.6-0.9,1.6-0.9,2.9h-1.6c0-1.6,0.5-2.9,1.3-3.8c0.9-1,2.1-1.4,3.5-1.4
					C462,130.4,463.1,130.8,463.9,131.6z"/>
			</g>
			<g class="st0">
				<path class="st1" d="M418,221.5v1.4h-18v-1.4H418z M416.6,207.2v1.4h-15.1v-1.4H416.6z M415.2,214.1v1.4h-12.4v-1.4H415.2z"/>
				<path class="st1" d="M421.5,212.9l-1-1.2c2-1.5,3.4-3.6,4.1-6.2l1.5,0.3c-0.2,0.8-0.5,1.5-0.8,2.1h12.4v1.4h-6.3v3.2h5.6v1.4
					h-5.6v4.3h6.9v1.4h-6.9v4.5H430v-4.5h-9.2v-1.4h3.3v-5.7h5.9v-3.2h-5.4C423.8,210.7,422.8,211.9,421.5,212.9z M430,218.2v-4.3
					h-4.5v4.3H430z"/>
			</g>
			<g id="flag2-copy" transform="translate(492.000000, 156.396511)">
				<polygon id="Rectangle-14-Copy-3_2_" class="st2" points="10,0 20,0 20,20.8 10,25 				"/>
				<path id="Rectangle-14-Copy-3_3_" class="st6" d="M1,1v19.2l9,3.8l9-3.8V1H1z"/>
				<path id="Path" class="st5" d="M13.3,17.7H5.8c-0.4,0-0.6,0-0.7,0C5,17.6,5,17.6,5,17.5c0-0.1,0.1-0.3,0.3-0.4
					C6,16.6,7,15.8,8.2,14.6s2.1-2.3,2.6-3.3c0.5-1.1,0.8-2.1,0.8-3.2c0-0.6-0.1-1.1-0.4-1.5C11,6.2,10.6,6,10.2,6
					c-0.5,0-1,0.2-1.4,0.6C8.4,7,8,7.5,7.8,8.2c-0.3,0.7-0.4,1.4-0.4,2.1c0,0.4,0.1,0.7,0.2,0.9c0.1,0.2,0.3,0.3,0.5,0.3
					c0.3,0,0.6-0.2,0.9-0.5c0.3-0.3,0.5-0.6,0.6-0.9c0.1-0.2,0.2-0.4,0.4-0.4c0.2,0,0.3,0.1,0.3,0.3c0,0.3-0.3,0.8-0.8,1.6
					c-0.5,0.7-1.2,1.1-2.1,1.1c-0.7,0-1.2-0.2-1.6-0.7c-0.4-0.5-0.6-1-0.6-1.5c0-1.3,0.7-2.5,2-3.6s2.6-1.7,3.9-1.7
					c1,0,1.8,0.3,2.5,1c0.6,0.6,0.9,1.4,0.9,2.4c0,0.5-0.1,1-0.3,1.5c-0.2,0.5-0.5,1-0.8,1.4s-1,1-1.9,1.7c-1,0.8-1.9,1.5-2.8,2.1
					h2.1c1.1,0,1.8-0.1,2.1-0.2c0.3-0.1,0.6-0.4,1-0.9c0.2-0.3,0.4-0.5,0.5-0.5c0.2,0,0.3,0.1,0.3,0.3c0,0.1,0,0.2-0.1,0.4
					C14.2,15.3,13.8,16.4,13.3,17.7z"/>
			</g>
			<rect id="Rectangle-6-Copy-4" x="254" y="53" class="st4" width="60" height="130"/>
			<rect id="Rectangle-6-Copy-2" x="186" y="25" class="st5" width="60" height="158"/>
			<g class="st0">
				<path class="st1" d="M204.5,7.5c0.8,0.7,1.2,1.6,1.2,2.8c0,1.6-0.8,2.7-2.3,3.2c0.8,0.3,1.5,0.7,1.9,1.2
					c0.5,0.6,0.7,1.3,0.7,2.1c0,1.3-0.5,2.4-1.4,3.2c-0.9,0.8-2.1,1.3-3.6,1.3c-1.4,0-2.5-0.4-3.3-1c-1-0.8-1.6-2.1-1.7-3.7h1.7
					c0,1.1,0.4,2,1.1,2.6c0.6,0.5,1.3,0.7,2.2,0.7c1,0,1.8-0.3,2.5-0.9c0.6-0.6,0.9-1.3,0.9-2.1c0-0.9-0.3-1.5-0.8-2
					c-0.6-0.5-1.3-0.7-2.3-0.7H200v-1.3h1.1c1,0,1.7-0.2,2.2-0.6c0.5-0.4,0.8-1.1,0.8-1.9c0-0.8-0.3-1.4-0.7-1.9
					c-0.5-0.5-1.3-0.7-2.2-0.7c-1,0-1.7,0.2-2.2,0.8c-0.6,0.5-0.9,1.3-1,2.2h-1.6c0.1-1.4,0.6-2.5,1.5-3.2c0.8-0.8,1.9-1.2,3.3-1.2
					C202.5,6.4,203.6,6.8,204.5,7.5z"/>
				<path class="st1" d="M217.1,7.6c0.8,0.8,1.3,1.8,1.3,3s-0.5,2.4-1.4,3.4c-0.5,0.5-1.5,1.3-3,2.3c-1.8,1.2-2.9,2.3-3.1,3.3h7.5
					V21h-9.5c0-1.3,0.5-2.5,1.4-3.5c0.6-0.6,1.6-1.5,3.1-2.5c1.1-0.8,1.9-1.4,2.2-1.8c0.7-0.8,1.1-1.6,1.1-2.6c0-0.9-0.3-1.5-0.8-2
					c-0.5-0.5-1.3-0.7-2.2-0.7c-1,0-1.7,0.3-2.3,1c-0.6,0.6-0.9,1.6-0.9,2.9H209c0-1.6,0.5-2.9,1.3-3.8c0.9-1,2.1-1.4,3.5-1.4
					C215.1,6.4,216.2,6.8,217.1,7.6z"/>
				<path class="st1" d="M223.7,19c0.2,0.2,0.4,0.5,0.4,0.9c0,0.3-0.1,0.6-0.4,0.9c-0.2,0.2-0.5,0.4-0.9,0.4c-0.4,0-0.6-0.1-0.9-0.4
					c-0.2-0.2-0.4-0.5-0.4-0.9c0-0.4,0.1-0.6,0.4-0.9c0.2-0.2,0.5-0.4,0.9-0.4C223.2,18.6,223.5,18.7,223.7,19z"/>
				<path class="st1" d="M235.8,8.4c0.8,1.2,1.3,2.9,1.3,5.1c0,2.3-0.5,4.1-1.3,5.6c-1,1.5-2.2,2.2-3.8,2.2c-2.7,0-4.2-1.3-4.6-3.8
					h1.6c0.3,1.6,1.3,2.4,3,2.4c1.1,0,2-0.6,2.6-1.7c0.6-1.1,0.9-2.4,0.9-4c0-0.1,0-0.3,0-0.5h-0.1c-0.4,0.7-0.9,1.3-1.5,1.7
					c-0.6,0.4-1.4,0.6-2.2,0.6c-1.4,0-2.5-0.5-3.3-1.4c-0.8-0.9-1.2-2-1.2-3.4c0-1.4,0.4-2.6,1.4-3.5c0.9-0.9,2.1-1.4,3.5-1.4
					C233.6,6.4,234.9,7.1,235.8,8.4z M229.6,8.8c-0.6,0.7-0.9,1.5-0.9,2.5c0,1,0.3,1.8,0.9,2.4c0.6,0.6,1.4,0.9,2.4,0.9
					c0.9,0,1.7-0.3,2.3-1c0.6-0.6,0.9-1.5,0.9-2.4c0-1-0.3-1.8-0.9-2.5c-0.6-0.7-1.4-1-2.4-1C231,7.8,230.2,8.1,229.6,8.8z"/>
			</g>
			<g class="st0">
				<path class="st1" d="M270.5,35.6c0.8,0.8,1.3,1.8,1.3,3s-0.5,2.4-1.4,3.4c-0.5,0.5-1.5,1.3-3,2.3c-1.8,1.2-2.9,2.3-3.1,3.3h7.5
					V49h-9.5c0-1.3,0.5-2.5,1.4-3.5c0.6-0.6,1.6-1.5,3.1-2.5c1.1-0.8,1.9-1.4,2.2-1.8c0.7-0.8,1.1-1.6,1.1-2.6c0-0.9-0.3-1.5-0.8-2
					c-0.5-0.5-1.3-0.7-2.2-0.7c-1,0-1.7,0.3-2.3,1c-0.6,0.6-0.9,1.6-0.9,2.9h-1.6c0-1.6,0.5-2.9,1.3-3.8c0.9-1,2.1-1.4,3.5-1.4
					C268.5,34.4,269.6,34.8,270.5,35.6z"/>
				<path class="st1" d="M283.3,36.4c0.8,1.2,1.3,2.9,1.3,5.1c0,2.3-0.5,4.1-1.3,5.6c-1,1.5-2.2,2.2-3.8,2.2c-2.7,0-4.2-1.3-4.6-3.8
					h1.6c0.3,1.6,1.3,2.4,3,2.4c1.1,0,2-0.6,2.6-1.7c0.6-1.1,0.9-2.4,0.9-4c0-0.1,0-0.3,0-0.5h-0.1c-0.4,0.7-0.9,1.3-1.5,1.7
					c-0.6,0.4-1.4,0.6-2.2,0.6c-1.4,0-2.5-0.5-3.3-1.4c-0.8-0.9-1.2-2-1.2-3.4c0-1.4,0.4-2.6,1.4-3.5c0.9-0.9,2.1-1.4,3.5-1.4
					C281.2,34.4,282.5,35.1,283.3,36.4z M277.1,36.8c-0.6,0.7-0.9,1.5-0.9,2.5c0,1,0.3,1.8,0.9,2.4c0.6,0.6,1.4,0.9,2.4,0.9
					c0.9,0,1.7-0.3,2.3-1c0.6-0.6,0.9-1.5,0.9-2.4c0-1-0.3-1.8-0.9-2.5c-0.6-0.7-1.4-1-2.4-1S277.7,36.1,277.1,36.8z"/>
				<path class="st1" d="M289.7,47c0.2,0.2,0.4,0.5,0.4,0.9c0,0.3-0.1,0.6-0.4,0.9c-0.2,0.2-0.5,0.4-0.9,0.4c-0.4,0-0.6-0.1-0.9-0.4
					c-0.2-0.2-0.4-0.5-0.4-0.9c0-0.4,0.1-0.6,0.4-0.9c0.2-0.2,0.5-0.4,0.9-0.4C289.2,46.6,289.5,46.7,289.7,47z"/>
				<path class="st1" d="M302.1,34.7v1.3L296.9,49h-1.7l5.3-12.8h-7.7v-1.5H302.1z"/>
			</g>
			<g class="st0">
				<path class="st1" d="M247.9,220.5v1.5h-17.9v-1.5H247.9z M246.1,207.9v1.4h-14.2v-1.4H246.1z"/>
				<path class="st1" d="M251.5,212.9l-1-1.2c2-1.5,3.4-3.6,4.1-6.2l1.5,0.3c-0.2,0.8-0.5,1.5-0.8,2.1h12.4v1.4h-6.3v3.2h5.6v1.4
					h-5.6v4.3h6.9v1.4h-6.9v4.5H260v-4.5h-9.2v-1.4h3.3v-5.7h5.9v-3.2h-5.4C253.8,210.7,252.8,211.9,251.5,212.9z M260,218.2v-4.3
					h-4.5v4.3H260z"/>
			</g>
			<g id="flag1-copy-3" transform="translate(322.000000, 156.396511)">
				<polygon id="Rectangle-14-Copy-3_4_" class="st2" points="10,0 20,0 20,20.8 10,25 				"/>
				<path id="Rectangle-14-Copy-2" class="st6" d="M1,1v19.2l9,3.8l9-3.8V1H1z"/>
				<path id="Path_1_" class="st5" d="M11.8,5.9v8.4c0,1.2,0.1,1.9,0.3,2.2s0.5,0.5,1,0.5c0.3,0,0.5,0,0.6,0.1
					c0.1,0,0.1,0.1,0.1,0.3c0,0.2-0.1,0.3-0.4,0.3c-0.1,0-0.1,0-0.2,0c-1.1-0.1-1.9-0.1-2.5-0.1c-0.6,0-1.3,0-2.4,0.1
					c-0.4,0-0.6,0-0.8,0c-0.3,0-0.4-0.1-0.4-0.3c0-0.1,0-0.2,0.1-0.3c0.1,0,0.3-0.1,0.7-0.1c0.4,0,0.7-0.1,0.9-0.3s0.3-0.4,0.3-0.6
					c0-0.2,0.1-0.7,0.1-1.4v-5c0-0.9,0-1.5-0.1-1.8S9,7.4,8.8,7.2C8.6,7.1,8.2,7,7.8,6.9c-0.4,0-0.6-0.1-0.7-0.1C7,6.8,7,6.7,7,6.6
					c0-0.1,0-0.2,0.1-0.3s0.3-0.1,0.6-0.1c1.3-0.1,2.5-0.4,3.5-0.9c0.1-0.1,0.2-0.1,0.3-0.1C11.7,5.2,11.8,5.4,11.8,5.9z"/>
			</g>
			<rect id="Rectangle-6-Copy-6" x="84" y="117" class="st4" width="60" height="66"/>
			<rect id="Rectangle-6-Copy" x="16" y="95" class="st5" width="60" height="88"/>
			<g class="st0">
				<path class="st1" d="M31.9,76.7V91h-1.6V78.7c-0.9,0.9-2,1.6-3.4,2V79c0.6-0.2,1.3-0.5,2-0.9c0.7-0.4,1.2-0.9,1.7-1.5H31.9z"/>
				<path class="st1" d="M44.4,78.4c0.8,1.2,1.3,2.9,1.3,5.1c0,2.3-0.5,4.1-1.3,5.6c-1,1.5-2.2,2.2-3.8,2.2c-2.7,0-4.2-1.3-4.6-3.8
					h1.6c0.3,1.6,1.3,2.4,3,2.4c1.1,0,2-0.6,2.6-1.7c0.6-1.1,0.9-2.4,0.9-4c0-0.1,0-0.3,0-0.5h-0.1c-0.4,0.7-0.9,1.3-1.5,1.7
					c-0.6,0.4-1.4,0.6-2.2,0.6c-1.4,0-2.5-0.5-3.3-1.4c-0.8-0.9-1.2-2-1.2-3.4c0-1.4,0.4-2.6,1.4-3.5c0.9-0.9,2.1-1.4,3.5-1.4
					C42.2,76.4,43.5,77.1,44.4,78.4z M38.1,78.8c-0.6,0.7-0.9,1.5-0.9,2.5c0,1,0.3,1.8,0.9,2.4c0.6,0.6,1.4,0.9,2.4,0.9
					c0.9,0,1.7-0.3,2.3-1c0.6-0.6,0.9-1.5,0.9-2.4c0-1-0.3-1.8-0.9-2.5c-0.6-0.7-1.4-1-2.4-1C39.5,77.8,38.7,78.1,38.1,78.8z"/>
				<path class="st1" d="M50.7,89c0.2,0.2,0.4,0.5,0.4,0.9c0,0.3-0.1,0.6-0.4,0.9c-0.2,0.2-0.5,0.4-0.9,0.4c-0.4,0-0.6-0.1-0.9-0.4
					c-0.2-0.2-0.4-0.5-0.4-0.9c0-0.4,0.1-0.6,0.4-0.9c0.2-0.2,0.5-0.4,0.9-0.4C50.2,88.6,50.5,88.7,50.7,89z"/>
				<path class="st1" d="M63.9,80.3h-1.6c-0.3-1.6-1.3-2.4-3-2.4c-1.1,0-2,0.5-2.6,1.7c-0.6,1-0.9,2.4-0.9,4c0,0.1,0,0.3,0,0.5h0.1
					c0.4-0.7,0.9-1.3,1.5-1.7c0.6-0.4,1.4-0.6,2.2-0.6c1.4,0,2.5,0.4,3.3,1.3c0.8,0.9,1.2,2,1.2,3.4s-0.5,2.6-1.4,3.5
					c-0.9,0.9-2.1,1.4-3.5,1.4c-1.7,0-3-0.7-3.9-1.9c-0.8-1.2-1.2-2.9-1.2-5.1c0-2.3,0.4-4.1,1.3-5.6c0.9-1.5,2.2-2.2,3.8-2.2
					C61.9,76.4,63.5,77.7,63.9,80.3z M56.9,84c-0.6,0.6-0.9,1.4-0.9,2.4s0.3,1.8,0.9,2.5c0.6,0.7,1.4,1,2.4,1c1,0,1.7-0.3,2.3-1
					c0.6-0.7,0.9-1.5,0.9-2.5s-0.3-1.8-0.9-2.4C61,83.3,60.2,83,59.2,83C58.3,83,57.5,83.3,56.9,84z"/>
			</g>
			<g class="st0">
				<path class="st1" d="M91.9,90.7V105h-1.6V92.7c-0.9,0.9-2,1.6-3.4,2V93c0.6-0.2,1.3-0.5,2-0.9c0.7-0.4,1.2-0.9,1.7-1.5H91.9z"/>
				<path class="st1" d="M105.4,94.3h-1.6c-0.3-1.6-1.3-2.4-3-2.4c-1.1,0-2,0.5-2.6,1.7c-0.6,1-0.9,2.4-0.9,4c0,0.1,0,0.3,0,0.5h0.1
					c0.4-0.7,0.9-1.3,1.5-1.7c0.6-0.4,1.4-0.6,2.2-0.6c1.4,0,2.5,0.4,3.3,1.3c0.8,0.9,1.2,2,1.2,3.4s-0.5,2.6-1.4,3.5
					c-0.9,0.9-2.1,1.4-3.5,1.4c-1.7,0-3-0.7-3.9-1.9c-0.8-1.2-1.2-2.9-1.2-5.1c0-2.3,0.4-4.1,1.3-5.6c0.9-1.5,2.2-2.2,3.8-2.2
					C103.5,90.4,105,91.7,105.4,94.3z M98.4,98c-0.6,0.6-0.9,1.4-0.9,2.4s0.3,1.8,0.9,2.5c0.6,0.7,1.4,1,2.4,1c1,0,1.7-0.3,2.3-1
					c0.6-0.7,0.9-1.5,0.9-2.5s-0.3-1.8-0.9-2.4c-0.6-0.6-1.4-0.9-2.4-0.9C99.8,97,99,97.3,98.4,98z"/>
				<path class="st1" d="M110.7,103c0.2,0.2,0.4,0.5,0.4,0.9c0,0.3-0.1,0.6-0.4,0.9c-0.2,0.2-0.5,0.4-0.9,0.4
					c-0.4,0-0.6-0.1-0.9-0.4c-0.2-0.2-0.4-0.5-0.4-0.9c0-0.4,0.1-0.6,0.4-0.9c0.2-0.2,0.5-0.4,0.9-0.4
					C110.2,102.6,110.5,102.7,110.7,103z"/>
				<path class="st1" d="M123.5,90.7v1.5h-7l-0.5,4.8h0.1c0.4-0.5,0.9-0.8,1.5-1.1c0.6-0.2,1.2-0.3,1.8-0.3c1.4,0,2.5,0.4,3.3,1.3
					c0.8,0.9,1.3,2.1,1.3,3.6c0,1.4-0.5,2.6-1.5,3.5c-1,0.9-2.2,1.3-3.6,1.3c-1.3,0-2.3-0.3-3.2-1c-1-0.8-1.5-1.8-1.6-3.1h1.6
					c0.1,0.9,0.4,1.6,1.1,2.1c0.6,0.4,1.3,0.6,2.2,0.6c1,0,1.8-0.3,2.5-1c0.6-0.6,1-1.5,1-2.5c0-1.1-0.3-2-0.9-2.6
					c-0.6-0.6-1.4-0.9-2.4-0.9c-0.7,0-1.3,0.1-1.8,0.4c-0.6,0.3-1,0.7-1.3,1.3h-1.6l0.8-7.9H123.5z"/>
				<path class="st1" d="M136.1,90.7v1.5h-7l-0.5,4.8h0.1c0.4-0.5,0.9-0.8,1.5-1.1c0.6-0.2,1.2-0.3,1.8-0.3c1.4,0,2.5,0.4,3.3,1.3
					c0.8,0.9,1.3,2.1,1.3,3.6c0,1.4-0.5,2.6-1.5,3.5c-1,0.9-2.2,1.3-3.6,1.3c-1.3,0-2.3-0.3-3.2-1c-1-0.8-1.5-1.8-1.6-3.1h1.6
					c0.1,0.9,0.4,1.6,1.1,2.1c0.6,0.4,1.3,0.6,2.2,0.6c1,0,1.8-0.3,2.5-1c0.6-0.6,1-1.5,1-2.5c0-1.1-0.3-2-0.9-2.6
					c-0.6-0.6-1.4-0.9-2.4-0.9c-0.7,0-1.3,0.1-1.8,0.4c-0.6,0.3-1,0.7-1.3,1.3H127l0.8-7.9H136.1z"/>
			</g>
			<g class="st0">
				<path class="st1" d="M78,213.9v1.4H60v-1.4H78z"/>
				<path class="st1" d="M81.5,212.9l-1-1.2c2-1.5,3.4-3.6,4.1-6.2l1.5,0.3c-0.2,0.8-0.5,1.5-0.8,2.1h12.4v1.4h-6.3v3.2h5.6v1.4
					h-5.6v4.3h6.9v1.4h-6.9v4.5H90v-4.5h-9.2v-1.4h3.3v-5.7H90v-3.2h-5.4C83.8,210.7,82.8,211.9,81.5,212.9z M90,218.2v-4.3h-4.5
					v4.3H90z"/>
			</g>
			<g id="flag1-copy-3_1_" transform="translate(152.000000, 156.396511)">
				<polygon id="Rectangle-14-Copy-3_5_" class="st2" points="10,0 20,0 20,20.8 10,25 				"/>
				<path id="Rectangle-14-Copy-2_1_" class="st6" d="M1,1v19.2l9,3.8l9-3.8V1H1z"/>
				<path id="Path_2_" class="st5" d="M11.8,5.9v8.4c0,1.2,0.1,1.9,0.3,2.2s0.5,0.5,1,0.5c0.3,0,0.5,0,0.6,0.1
					c0.1,0,0.1,0.1,0.1,0.3c0,0.2-0.1,0.3-0.4,0.3c-0.1,0-0.1,0-0.2,0c-1.1-0.1-1.9-0.1-2.5-0.1c-0.6,0-1.3,0-2.4,0.1
					c-0.4,0-0.6,0-0.8,0c-0.3,0-0.4-0.1-0.4-0.3c0-0.1,0-0.2,0.1-0.3c0.1,0,0.3-0.1,0.7-0.1c0.4,0,0.7-0.1,0.9-0.3s0.3-0.4,0.3-0.6
					c0-0.2,0.1-0.7,0.1-1.4v-5c0-0.9,0-1.5-0.1-1.8S9,7.4,8.8,7.2C8.6,7.1,8.2,7,7.8,6.9c-0.4,0-0.6-0.1-0.7-0.1C7,6.8,7,6.7,7,6.6
					c0-0.1,0-0.2,0.1-0.3s0.3-0.1,0.6-0.1c1.3-0.1,2.5-0.4,3.5-0.9c0.1-0.1,0.2-0.1,0.3-0.1C11.7,5.2,11.8,5.4,11.8,5.9z"/>
			</g>
			<rect id="Rectangle-5" y="183" class="st7" width="540" height="2"/>
		</g>
		<g class="st0">
			<path class="st1" d="M7.9,9.9V7.7h2.9v2.2h10.3V7.7h2.9v2.2h5.4v2.6h-5.4v10H30v2.6h-6.1c1.6,1.6,3.8,2.8,6.6,3.8l-1.2,2.6
				c-2.2-1-4-2-5.5-3.3v2.6h-6.2v2.5h10.7v2.8H3.6v-2.8h10.9v-2.5H8.2v-2.6c-1.4,1.2-3.1,2.2-5.1,3.2L1.6,29c2.9-1,5-2.3,6.5-3.8H2
				v-2.6h5.9v-10H2.5V9.9H7.9z M14.5,28.2V26h2.9v2.2h6.2c-1.2-1-2.1-2-2.8-3.1h-9.8c-0.7,1.1-1.6,2.1-2.7,3.1H14.5z M21.2,14.3
				v-1.8H10.8v1.8H21.2z M21.2,18.4v-1.7H10.8v1.7H21.2z M21.2,22.5v-1.7H10.8v1.7H21.2z"/>
			<path class="st1" d="M36.1,19.7l-1.8-2.5c5.5-2.4,10-5.5,13.5-9.3h2.4c3,3.7,7.4,6.8,13.4,9.2l-1.7,2.5c-1.5-0.6-3-1.3-4.4-2.1
				v1.7h-7v3.9h11.1v2.8H50.5v7.8h3c1-2,1.9-4.1,2.6-6.4l2.8,1c-0.7,2-1.5,3.8-2.3,5.4h6.2v2.9H35.2v-2.9h6.3
				c-0.6-1.8-1.4-3.6-2.3-5.2l2.7-1c0.9,1.7,1.7,3.8,2.5,6.2h3.1v-7.8H36.3v-2.8h11.2v-3.9h-7v-1.8C39.1,18.2,37.6,19,36.1,19.7z
				 M49,10.7c-2.1,2.2-4.4,4.1-7,5.8h13.8C53.1,14.8,50.9,12.9,49,10.7z"/>
			<path class="st1" d="M78.2,32.7c-2.5,1.6-5.6,3-9.2,4.1L67.7,34c3.5-0.9,6.4-2,8.7-3.4L78.2,32.7z M77.7,37.2l-0.6-2.9
				c0.9,0.1,1.8,0.2,2.6,0.2c0.6,0,0.9-0.4,0.9-1v-3.7c-3.9,0.2-7.5,0.3-10.8,0.4l-0.6-2.8c0.9,0.1,1.8,0.1,2.6,0.1
				c2.6-0.6,5.4-1.5,8.4-2.9c-2.8,0.1-5.5,0.3-8.2,0.5l-0.5-2.6c1.3,0,2.2-0.1,2.8-0.3c1.2-0.7,2.5-1.5,3.8-2.4h-7.4V8.8h22.8V20
				H81.9c-1.6,1.2-3.2,2.3-4.8,3.2c2.3-0.1,4.7-0.3,7-0.4c1.2-0.7,2.4-1.4,3.6-2.1l2.5,1.7c-3.8,2.2-7.9,4.1-12.4,5.4
				c4.1-0.1,8.1-0.4,12-0.6c-0.6-0.6-1.2-1.2-1.9-1.8l2.3-1.5c2.4,2.1,4.2,4,5.4,5.5l-2.4,1.7c-0.5-0.6-1-1.3-1.6-2
				c-2.8,0.2-5.5,0.4-8.1,0.5v4.5c0,2-1,2.9-2.9,2.9H77.7z M80.4,13.2v-2h-7v2H80.4z M80.4,15.6h-7v2h7V15.6z M90.4,13.2v-2h-7v2
				H90.4z M90.4,15.6h-7v2h7V15.6z M95.9,34.3l-1.6,2.5c-2.9-1.7-5.9-3-9-4l1.5-2.3C90.1,31.6,93.1,32.8,95.9,34.3z"/>
			<path class="st1" d="M104.4,15.7v-3.5c-1,0.2-2.1,0.3-3.2,0.4l-0.5-2.7c3.4-0.3,6.3-1,9-2l1,2.7c-1.1,0.4-2.2,0.7-3.4,0.9v4.1
				h3.3v2.8h-3.3v1.8c1.3,1.4,2.6,3,3.9,4.6l-1.7,2.5c-0.8-1.6-1.6-2.9-2.2-3.9v13.6h-2.9V24.3c-0.9,2.4-1.9,4.5-3.2,6.5l-1.4-3.5
				c2-2.6,3.5-5.5,4.4-8.9h-3.5v-2.8H104.4z M127.5,20v12.7h-4.2c2.2,0.5,4.4,1.2,6.4,2.1l-1,2.5c-2.3-1.1-4.7-2-7.2-2.5l1-2h-5.1
				l1.4,1.6c-2,1.2-4.4,2.2-7.3,3.1l-1.2-2.5c2.6-0.6,4.7-1.3,6.4-2.2h-4.1V20H127.5z M121.6,7.7v1.6h7v2.4h-7v1.2h6v2.4h-6v1.3h7.7
				V19h-18v-2.4h7.4v-1.3h-5.9v-2.4h5.9v-1.2h-6.9V9.3h6.9V7.7H121.6z M124.8,23.6v-1.3h-9.3v1.3H124.8z M124.8,27.1v-1.3h-9.3v1.3
				H124.8z M124.8,29.1h-9.3v1.3h9.3V29.1z"/>
			<path class="st1" d="M136.5,29.4c-0.1,2.8-0.5,5.2-1,7.4l-2.6-0.8c0.6-2,1.1-4.3,1.2-6.9L136.5,29.4z M144.7,26.6l-2.4,0.6
				c-0.1-0.5-0.2-1-0.4-1.4c-2.8,0.9-5.4,1.5-7.9,1.9l-0.7-2.6c0.5-0.2,0.9-0.5,1.3-0.8c0.9-1,2-2.6,3.4-5c-1.3,0.3-2.7,0.5-4,0.7
				l-0.7-2.7c0.4-0.2,0.9-0.6,1.2-1.1c1.3-2.6,2.4-5.5,3.4-8.7l2.8,1.1c-1.3,3.5-2.7,6.3-4.1,8.5c1-0.1,1.9-0.3,2.9-0.5l1.9-3.8
				l2.8,1c-2.6,4.9-4.8,8.5-6.6,10.8c1.3-0.3,2.6-0.6,3.9-1c-0.3-0.9-0.6-1.7-0.9-2.5l2.3-0.7C143.4,22.3,144.1,24.3,144.7,26.6z
				 M140.9,35.1l-2.5,0.6c-0.3-2.5-0.6-4.7-1-6.7l2.2-0.4C140.1,30.6,140.5,32.8,140.9,35.1z M144.6,32.9l-2.2,1
				c-0.5-2-1-3.8-1.6-5.4l2-0.7C143.5,29.4,144.1,31.1,144.6,32.9z M160.7,20v12.8h-3.9c2,0.5,3.9,1.1,5.7,1.9l-1,2.5
				c-2.2-1.1-4.6-1.9-7-2.4l1-2h-5.1l1.3,1.5c-1.9,1.2-4.3,2.2-7.1,3l-1.2-2.5c2.4-0.5,4.4-1.2,6-2h-4.2V20H160.7z M154.5,7.7v1.5
				h7.1v2.5h-7.1v1.2h6.1v2.4h-6.1v1.2h7.9V19h-18.8v-2.5h7.9v-1.2h-5.9v-2.4h5.9v-1.2h-6.9V9.3h6.9V7.7H154.5z M157.8,23.6v-1.2
				h-9.6v1.2H157.8z M157.8,27v-1.3h-9.6V27H157.8z M157.8,29.2h-9.6v1.2h9.6V29.2z"/>
			<path class="st1" d="M172.9,16c-1.4,3-3.1,5.6-5,7.7l-2.4-1.7c1.9-2,3.5-4.5,4.8-7.3L172.9,16z M174.4,25.6
				c0.7-1.4,1.3-2.8,1.8-4.4l2.5,1.1c-0.6,2-1.3,3.7-2.1,5.4c1.2,1.2,2.4,2.5,3.5,3.8l-2.1,2.3c-1-1.2-2-2.3-3-3.4
				c-2,2.8-4.4,5.1-7.4,6.7l-1.8-2.6c2.9-1.5,5.2-3.6,7.1-6.3c-1.3-1.3-2.6-2.5-3.9-3.6l1.9-2.1C172.1,23.5,173.2,24.5,174.4,25.6z
				 M175.5,10.9h6v2.9h-15v-2.9h6.1c-0.4-1-1-2-1.5-2.8l3.1-0.5C174.6,8.6,175,9.7,175.5,10.9z M174.6,16.3l1.8-1.8
				c1.2,1,2.7,2.5,4.4,4.5l-2,2C177.5,19.4,176.1,17.8,174.6,16.3z M182.7,22.6c-0.4,0.6-0.8,1.2-1.3,1.8l-1.9-2.4
				c2.5-3.6,4.2-8.4,5.1-14.4l3,0.5c-0.3,1.6-0.6,3.1-0.9,4.5h8.6v2.9h-2.1c-0.2,5.1-1.4,9.5-3.7,13.1c1.8,2.2,4,4.3,6.5,6l-2.1,2.4
				c-2.4-1.8-4.5-3.7-6.2-5.9c-2,2.3-4.5,4.3-7.5,5.9l-1.7-2.8c3-1.5,5.5-3.3,7.4-5.6C184.5,26.8,183.5,24.8,182.7,22.6z
				 M183.5,21.1l1.2-0.7c0.7,2,1.7,4,2.8,5.8c1.7-3,2.6-6.5,2.8-10.5h-4.5C185.2,17.6,184.4,19.5,183.5,21.1z"/>
			<path class="st1" d="M209.5,13c0.8,1.1,1.3,2.6,1.3,4.4c0,1.8-0.4,3.3-1.3,4.4c-1,1.2-2.3,1.9-4.1,1.9c-1.8,0-3.2-0.6-4.1-1.9
				c-0.9-1.2-1.3-2.6-1.3-4.4c0-1.8,0.4-3.3,1.3-4.4c1-1.3,2.3-1.9,4.1-1.9C207.2,11.2,208.5,11.8,209.5,13z M203.6,14.6
				c-0.3,0.7-0.4,1.6-0.4,2.8c0,1.2,0.1,2.1,0.4,2.8c0.4,0.8,1,1.2,1.8,1.2c0.8,0,1.4-0.4,1.8-1.3c0.3-0.7,0.4-1.6,0.4-2.7
				c0-1.2-0.2-2.1-0.4-2.8c-0.4-0.9-0.9-1.3-1.7-1.3C204.6,13.4,204,13.8,203.6,14.6z M221.3,10.7l-12.8,23.7h-2.6l12.8-23.7H221.3z
				 M225.9,23.4c0.8,1.1,1.3,2.6,1.3,4.4c0,1.8-0.4,3.3-1.3,4.4c-1,1.2-2.3,1.9-4.1,1.9c-1.8,0-3.2-0.6-4.1-1.9
				c-0.9-1.2-1.3-2.6-1.3-4.4c0-1.8,0.4-3.3,1.3-4.4c1-1.3,2.3-1.9,4.1-1.9C223.6,21.5,225,22.1,225.9,23.4z M220,24.9
				c-0.3,0.7-0.4,1.6-0.4,2.8c0,1.2,0.1,2.1,0.4,2.8c0.4,0.8,1,1.2,1.8,1.2c0.8,0,1.4-0.4,1.8-1.3c0.3-0.7,0.4-1.6,0.4-2.7
				c0-1.2-0.2-2.1-0.4-2.8c-0.4-0.9-0.9-1.3-1.7-1.3C221,23.7,220.4,24.1,220,24.9z"/>
			<path class="st1" d="M251.2,7.5c-1.3,2.2-2.4,4.4-3.1,6.6c-1,2.8-1.4,5.5-1.4,8.3c0,2.8,0.4,5.5,1.4,8.3c0.7,2.2,1.7,4.4,3.1,6.6
				h-2.8c-1.5-2.1-2.7-4.3-3.5-6.5c-1-2.7-1.5-5.5-1.5-8.4c0-2.9,0.5-5.7,1.5-8.4c0.8-2.3,2-4.5,3.5-6.6H251.2z"/>
			<path class="st1" d="M259.4,11.2V34h-3.5V11.2H259.4z"/>
			<path class="st1" d="M274.9,32.7c-2.5,1.6-5.6,3-9.2,4.1l-1.3-2.8c3.5-0.9,6.4-2,8.7-3.4L274.9,32.7z M274.4,37.2l-0.6-2.9
				c0.9,0.1,1.8,0.2,2.6,0.2c0.6,0,0.9-0.4,0.9-1v-3.7c-3.9,0.2-7.5,0.3-10.8,0.4l-0.6-2.8c0.9,0.1,1.8,0.1,2.6,0.1
				c2.6-0.6,5.4-1.5,8.4-2.9c-2.8,0.1-5.5,0.3-8.2,0.5l-0.5-2.6c1.3,0,2.2-0.1,2.8-0.3c1.2-0.7,2.5-1.5,3.8-2.4h-7.4V8.8H290V20
				h-11.4c-1.6,1.2-3.2,2.3-4.8,3.2c2.3-0.1,4.7-0.3,7-0.4c1.2-0.7,2.4-1.4,3.6-2.1l2.5,1.7c-3.8,2.2-7.9,4.1-12.4,5.4
				c4.1-0.1,8.1-0.4,12-0.6c-0.6-0.6-1.2-1.2-1.9-1.8l2.3-1.5c2.4,2.1,4.2,4,5.4,5.5l-2.4,1.7c-0.5-0.6-1-1.3-1.6-2
				c-2.8,0.2-5.5,0.4-8.1,0.5v4.5c0,2-1,2.9-2.9,2.9H274.4z M277.2,13.2v-2h-7v2H277.2z M277.2,15.6h-7v2h7V15.6z M287.1,13.2v-2h-7
				v2H287.1z M287.1,15.6h-7v2h7V15.6z M292.6,34.3l-1.6,2.5c-2.9-1.7-5.9-3-9-4l1.5-2.3C286.8,31.6,289.9,32.8,292.6,34.3z"/>
			<path class="st1" d="M301.2,15.7v-3.5c-1,0.2-2.1,0.3-3.2,0.4l-0.5-2.7c3.4-0.3,6.3-1,9-2l1,2.7c-1.1,0.4-2.2,0.7-3.4,0.9v4.1
				h3.3v2.8h-3.3v1.8c1.3,1.4,2.6,3,3.9,4.6l-1.7,2.5c-0.8-1.6-1.6-2.9-2.2-3.9v13.6h-2.9V24.3c-0.9,2.4-1.9,4.5-3.2,6.5l-1.4-3.5
				c2-2.6,3.5-5.5,4.4-8.9h-3.5v-2.8H301.2z M324.2,20v12.7h-4.2c2.2,0.5,4.4,1.2,6.4,2.1l-1,2.5c-2.3-1.1-4.7-2-7.2-2.5l1-2h-5.1
				l1.4,1.6c-2,1.2-4.4,2.2-7.3,3.1l-1.2-2.5c2.6-0.6,4.7-1.3,6.4-2.2h-4.1V20H324.2z M318.3,7.7v1.6h7v2.4h-7v1.2h6v2.4h-6v1.3h7.7
				V19h-18v-2.4h7.4v-1.3h-5.9v-2.4h5.9v-1.2h-6.9V9.3h6.9V7.7H318.3z M321.5,23.6v-1.3h-9.3v1.3H321.5z M321.5,27.1v-1.3h-9.3v1.3
				H321.5z M321.5,29.1h-9.3v1.3h9.3V29.1z"/>
			<path class="st1" d="M335.8,26.8c0-0.2,0-0.4,0-0.6v-3h2.8v3c0,0.2,0,0.4,0,0.6h3.1c-0.5-0.8-1.2-1.8-2.1-2.8l1.9-1.2
				c1,1.1,1.7,2,2.2,2.8l-1.7,1.2h2.3v2.5h-6l-0.1,0.4c2.3,1.7,4.2,3.4,5.8,5.2l-2,2c-1.2-1.5-2.7-3.1-4.6-4.8
				c-1.1,2.3-2.8,4.1-5.3,5.4l-2.2-2c2.9-1.5,4.7-3.6,5.5-6.2h-4.7v-2.5H335.8z M335.6,19c-1.2,1.7-2.5,3.2-4.2,4.5l-1.6-2
				c1.5-1.2,2.8-2.5,3.9-4L335.6,19z M336.3,13.9v-6h2.8v6h5.2v2.5h-5.2v6.1h-2.8v-6.1h-5.4v-2.5H336.3z M335.4,12.4l-2.1,1
				c-0.6-1.5-1.3-2.8-2.1-4l2.3-0.8C334.2,9.8,334.8,11.1,335.4,12.4z M345,21l-1.6,1.8c-1.2-1.6-2.5-2.9-3.7-4l1.5-1.7
				C342.5,18.3,343.8,19.6,345,21z M343.9,9.4c-0.6,1.4-1.3,2.7-2,3.8l-1.9-1.4c0.7-1,1.3-2.1,1.8-3.5L343.9,9.4z M349.3,31.1
				l1.9,1.6c-1.4,1.8-3.1,3.4-5.1,4.8l-1.7-2.1c1.9-1.2,3.4-2.7,4.7-4.3h-3.2V13.7h4.4l0.2-2.3h-5.7V8.8H359v2.7h-5.6l-0.2,2.3h4.9
				v17.3h-3.4c1.9,1.4,3.4,2.9,4.7,4.3l-2,1.9c-1.1-1.4-2.7-2.9-4.7-4.5l1.7-1.7H349.3z M355.2,18.7v-2.4h-6.5v2.4H355.2z
				 M355.2,23.4v-2.3h-6.5v2.3H355.2z M355.2,25.9h-6.5v2.5h6.5V25.9z"/>
			<path class="st1" d="M374.8,34.1c0,2-1.1,3.1-3.1,3.1h-2.4l-0.7-2.7c0.8,0.1,1.6,0.1,2.3,0.1c0.8,0,1.2-0.5,1.2-1.5v-6.7
				c-1.4,0.3-2.9,0.6-4.5,0.9c-0.3,4-1.2,7.4-2.6,10.1l-2.2-2c1.4-2.8,2.1-6.4,2.2-10.8V8.7h10V34.1z M372,17.2v-5.8h-4.4v4.8
				C369.1,16.5,370.6,16.8,372,17.2z M372,23.7v-3.9c-1.5-0.4-2.9-0.7-4.4-1v5.7C369.2,24.3,370.7,24,372,23.7z M390.2,21.1V24
				c-0.8,2.9-2.1,5.4-3.9,7.5c1.7,1.2,3.8,2.4,6.2,3.3l-1.6,2.6c-2.6-1.2-4.8-2.5-6.6-4c-2,1.7-4.4,3-7.3,4l-1.7-2.6
				c2.6-0.9,4.8-2.1,6.7-3.5c-2-2.2-3.4-4.6-4.1-7.2h-1.4v-2.9H390.2z M388.7,8.7v6.7c0,0.7,0.3,1.1,1,1.1h2.2v2.8h-3
				c-2.1,0-3.2-1.1-3.2-3.2v-4.4h-4.6v1.5c0,3.2-1.2,5.6-3.6,7.4l-2-2.3c1.8-1.1,2.7-2.7,2.7-4.7V8.7H388.7z M384,29.4
				c1.4-1.6,2.6-3.4,3.3-5.3h-6.7C381.3,26.1,382.4,27.8,384,29.4z"/>
			<path class="st1" d="M412.3,24.3v2.8h-16.2v-2.8H412.3z"/>
			<path class="st1" d="M432.6,24.8c-0.1,0.6-0.2,1.2-0.4,1.8h11.9v2.8h-12.9c-0.7,1.4-1.7,2.7-2.9,3.7c-2.1,1.9-5.8,3.3-11.2,4.4
				l-1.2-2.9c4.6-0.8,7.9-2,10-3.5c0.6-0.5,1.2-1.1,1.7-1.7h-10.1v-2.8h11.7c0.2-0.7,0.4-1.4,0.5-2.1L432.6,24.8z M424.6,10.8
				c-0.4-0.9-0.8-1.8-1.3-2.6l3.2-0.5c0.4,0.9,0.9,2,1.3,3.1h6.3c0.4-1,0.8-2.1,1.1-3.2l3.2,0.4c-0.3,1-0.6,1.9-1.2,2.8h6.7v2.8
				h-11.5V16h9.8v2.6h-9.8V21h12.6v2.8h-28.2V21h12.6v-2.5h-9.7V16h9.7v-2.5h-11.5v-2.8H424.6z M445.7,34.9l-1.7,2.7
				c-3.8-2.1-7.7-3.8-11.7-5l1.6-2.4C438.1,31.5,442.1,33,445.7,34.9z"/>
			<path class="st1" d="M477.6,18.7v2.9H469v11.1c0,0.8,0.4,1.3,1.2,1.3h3.5c0.5,0,0.8-0.3,1.1-0.7c0.3-0.5,0.5-2.1,0.5-4.8l2.8,0.9
				c-0.2,3.6-0.6,5.7-1.2,6.4c-0.6,0.6-1.4,1-2.6,1h-5c-2.2,0-3.3-1.1-3.3-3.4V21.6H461v0.6c-0.1,4.1-1,7.4-2.6,9.9
				c-1.6,2.3-4.2,4-7.7,5.3l-1.6-2.6c3.5-1.2,5.8-2.8,7-4.7c1.2-2,1.9-4.7,2-7.9v-0.6h-8v-2.9H477.6z M474.8,9.3v2.9h-22.3V9.3
				H474.8z"/>
			<path class="st1" d="M485,7.5c1.5,2.1,2.6,4.3,3.5,6.6c1,2.7,1.5,5.5,1.5,8.4c0,2.9-0.5,5.7-1.5,8.4c-0.8,2.2-2,4.4-3.5,6.5h-2.8
				c1.3-2.2,2.3-4.4,3.1-6.6c0.9-2.8,1.4-5.6,1.4-8.3c0-2.8-0.5-5.6-1.4-8.3c-0.7-2.2-1.8-4.4-3.1-6.6H485z"/>
		</g>
	</g>
</g>
</svg>
