<?xml version="1.0" encoding="UTF-8"?>
<svg width="250px" height="276px" viewBox="0 0 250 276" version="1.1" xmlns="http://www.w3.org/2000/svg" xmlns:xlink="http://www.w3.org/1999/xlink">
    <!-- Generator: Sketch 49 (51002) - http://www.bohemiancoding.com/sketch -->
    <title>s3_f3</title>
    <desc>Created with Sketch.</desc>
    <defs>
        <polygon id="path-1" points="20 4 230 4 230 276 125 216 20 276"></polygon>
        <polygon id="path-3" points="20 -10 230 -10 230 276 125 216 20 276"></polygon>
    </defs>
    <g id="s3_f3" stroke="none" stroke-width="1" fill="none" fill-rule="evenodd">
        <g id="Group-35-Copy-6">
            <polygon id="Combined-Shape" fill="#D2BEA6" points="234 18 16 18 16 22 0 22 0 0 16 0 16 4 234 4 234 0 250 0 250 22 234 22"></polygon>
            <polygon id="Combined-Shape" fill="#B7956F" points="234 18 16 18 16 22 0 22 0 12 250 12 250 22 234 22"></polygon>
            <mask id="mask-2" fill="white">
                <use xlink:href="#path-1"></use>
            </mask>
            <g id="Combined-Shape"></g>
            <g id="Combined-Shape" mask="url(#mask-2)">
                <use fill="#708CB1" fill-rule="evenodd" xlink:href="#path-3"></use>
                <path stroke="#FFBD46" stroke-width="10" d="M25,-5 L25,267.384102 L125,210.241244 L225,267.384102 L225,-5 L25,-5 Z"></path>
                <path stroke="#708CB1" stroke-width="6" d="M23,-7 L23,270.830461 L125,212.544747 L227,270.830461 L227,-7 L23,-7 Z"></path>
            </g>
        </g>
        <g id="view" transform="translate(192.000000, 122.000000)" fill="#FFFFFF" opacity="0.7">
            <path d="M13.1451287,12.4380219 L17.0961941,16.3890873 C17.2914562,16.5843494 17.2914562,16.9009319 17.0961941,17.0961941 C16.9009319,17.2914562 16.5843494,17.2914562 16.3890873,17.0961941 L12.4380219,13.1451287 C11.1187738,14.3000688 9.39112573,15 7.5,15 C3.35786438,15 0,11.6421356 0,7.5 C0,3.35786438 3.35786438,0 7.5,0 C11.6421356,0 15,3.35786438 15,7.5 C15,9.39112573 14.3000688,11.1187738 13.1451287,12.4380219 Z M7,7 L7,3.5 C7,3.22385763 7.22385763,3 7.5,3 C7.77614237,3 8,3.22385763 8,3.5 L8,7 L11.5,7 C11.7761424,7 12,7.22385763 12,7.5 C12,7.77614237 11.7761424,8 11.5,8 L8,8 L8,11.5 C8,11.7761424 7.77614237,12 7.5,12 C7.22385763,12 7,11.7761424 7,11.5 L7,8 L3.5,8 C3.22385763,8 3,7.77614237 3,7.5 C3,7.22385763 3.22385763,7 3.5,7 L7,7 Z M7.5,14 C11.0898509,14 14,11.0898509 14,7.5 C14,3.91014913 11.0898509,1 7.5,1 C3.91014913,1 1,3.91014913 1,7.5 C1,11.0898509 3.91014913,14 7.5,14 Z" id="Combined-Shape"></path>
        </g>
        <path d="M72.9359999,160.024 L71.0439999,160.024 L70.5819999,158 C71.1539999,158.066 71.7039999,158.11 72.2099999,158.11 C72.7379999,158.11 73.0239999,157.824 73.0239999,157.296 L73.0239999,152.544 C72.1879999,152.896 71.3739999,153.204 70.5599999,153.49 L70.0319999,151.378 C71.0439999,151.114 72.0559999,150.806 73.0239999,150.432 L73.0239999,145.834 L70.5159999,145.834 L70.5159999,143.832 L73.0239999,143.832 L73.0239999,139.982 L75.0919999,139.982 L75.0919999,143.832 L77.4239999,143.832 L77.4239999,145.834 L75.0919999,145.834 L75.0919999,149.508 C75.8399999,149.112 76.5879999,148.716 77.3139999,148.276 L77.3139999,150.41 C76.5659999,150.85 75.8399999,151.246 75.0919999,151.598 L75.0919999,157.824 C75.0919999,159.276 74.3659999,160.024 72.9359999,160.024 Z M78.0179999,149.2 L88.7759999,149.2 L88.7759999,151.136 C88.1599999,153.094 87.1039999,154.788 85.6519999,156.196 C87.0599999,157.076 88.7319999,157.846 90.6899999,158.506 L89.5679999,160.31 C87.4119999,159.452 85.6079999,158.506 84.1339999,157.472 C82.4619999,158.682 80.4159999,159.65 77.9739999,160.376 L76.8299999,158.616 C79.0299999,157.956 80.8999999,157.098 82.4179999,156.086 C80.8339999,154.634 79.7779999,153.006 79.2279999,151.224 L78.0179999,151.224 L78.0179999,149.2 Z M81.1639999,151.224 C81.6919999,152.588 82.5939999,153.842 83.8919999,154.942 C85.1019999,153.842 86.0259999,152.61 86.6639999,151.224 L81.1639999,151.224 Z M79.5359999,140.708 L87.4119999,140.708 L87.4119999,145.306 C87.4119999,145.79 87.7199999,146.032 88.3359999,146.032 L90.0079999,146.032 L90.0079999,147.968 L87.7639999,147.968 C86.1579999,147.968 85.3659999,147.242 85.3659999,145.79 L85.3659999,142.666 L81.5819999,142.666 L81.5819999,143.678 C81.5819999,145.79 80.5479999,147.44 78.5239999,148.606 L77.1379999,147 C78.7219999,146.274 79.5359999,145.24 79.5359999,143.898 L79.5359999,140.708 Z M103.208,142.798 C102.526,143.7 101.69,144.514 100.7,145.218 L99.556,143.7 C101.096,142.644 102.152,141.368 102.724,139.828 L104.638,140.048 C104.506,140.4 104.374,140.752 104.22,141.082 L111.942,141.082 L111.942,142.534 C111.37,143.7 110.732,144.668 110.05,145.416 L108.62,144.294 C109.038,143.854 109.412,143.37 109.764,142.798 L103.208,142.798 Z M93.748,141.104 L99.204,141.104 L99.204,142.864 L93.748,142.864 L93.748,141.104 Z M93.308,145.064 L99.666,145.064 L99.666,146.846 L93.308,146.846 L93.308,145.064 Z M105.452,142.996 L107.212,143.348 C107.124,143.656 107.036,143.942 106.926,144.228 C108.488,145.68 110.468,146.56 112.844,146.846 L111.986,148.562 C111.392,148.474 110.82,148.342 110.292,148.166 L110.292,157.186 L105.936,157.186 C108.29,157.56 110.556,158.088 112.734,158.77 L112.052,160.42 C109.72,159.584 107.256,158.946 104.704,158.506 L105.386,157.186 L100.326,157.186 L101.228,158.352 C99.6,159.21 97.268,159.892 94.232,160.398 L93.286,158.792 C96.102,158.352 98.258,157.824 99.798,157.186 L95.75,157.186 L95.75,148.1 L101.052,148.1 L100.216,146.824 C103.164,146.296 104.902,145.02 105.452,142.996 Z M102.108,148.1 L110.094,148.1 C108.576,147.572 107.256,146.758 106.112,145.636 C105.188,146.78 103.868,147.616 102.108,148.1 Z M108.246,155.514 L108.246,154.436 L97.796,154.436 L97.796,155.514 L108.246,155.514 Z M97.796,153.072 L108.246,153.072 L108.246,152.104 L97.796,152.104 L97.796,153.072 Z M97.796,150.718 L108.246,150.718 L108.246,149.684 L97.796,149.684 L97.796,150.718 Z M116.518,154.568 L118.234,154.788 C118.124,156.68 117.86,158.374 117.442,159.826 L115.638,159.276 C116.122,157.912 116.408,156.328 116.518,154.568 Z M120.522,154.238 C120.808,155.602 121.072,157.098 121.292,158.682 L119.51,159.078 C119.356,157.384 119.18,155.888 118.96,154.568 L120.522,154.238 Z M122.854,148.54 C123.338,149.816 123.778,151.29 124.174,152.918 L122.502,153.336 L122.282,152.368 C120.192,153.006 118.19,153.424 116.298,153.644 L115.792,151.862 C116.144,151.73 116.43,151.532 116.65,151.312 C117.398,150.652 118.3,149.486 119.378,147.858 C118.344,148.034 117.266,148.188 116.144,148.364 L115.66,146.582 C115.968,146.45 116.232,146.208 116.474,145.856 C117.508,144.14 118.41,142.226 119.202,140.114 L121.16,140.862 C120.148,143.106 119.114,144.954 118.058,146.384 C118.894,146.274 119.73,146.142 120.566,145.988 C121.028,145.196 121.534,144.338 122.062,143.414 L123.888,144.096 C121.82,147.528 120.104,150.014 118.74,151.554 C119.796,151.378 120.83,151.136 121.842,150.872 C121.666,150.256 121.468,149.64 121.248,149.068 L122.854,148.54 Z M122.788,153.666 C123.184,154.502 123.514,155.404 123.822,156.35 C124.9,153.402 125.45,149.486 125.494,144.558 L125.494,142.622 L123.8,142.622 L123.8,140.73 L133.7,140.73 L133.7,141.786 C133.392,143.832 132.996,145.57 132.534,146.978 L135.02,146.978 L135.02,148.848 C134.536,151.422 133.634,153.644 132.314,155.536 C133.37,156.658 134.58,157.67 135.922,158.55 L134.514,160.2 C133.238,159.232 132.094,158.176 131.082,157.054 C129.85,158.352 128.42,159.452 126.77,160.354 L125.472,158.748 C127.166,157.802 128.596,156.702 129.74,155.448 C128.662,154.04 127.76,152.5 127.034,150.872 C126.528,154.81 125.56,157.89 124.13,160.09 L122.656,158.792 C123.052,158.154 123.404,157.45 123.712,156.68 L122.392,157.252 C122.062,156.064 121.71,155.03 121.336,154.15 L122.788,153.666 Z M128.09,148.892 C128.816,150.74 129.762,152.412 130.928,153.93 C131.94,152.434 132.622,150.74 133.018,148.892 L128.09,148.892 Z M127.364,146.978 L130.576,146.978 C130.972,145.724 131.324,144.272 131.61,142.622 L127.43,142.622 L127.43,144.558 C127.43,145.394 127.408,146.208 127.364,146.978 Z M140.476,148.672 C139.904,149.42 139.31,150.168 138.65,150.916 L137.968,148.672 C139.992,146.12 141.51,143.128 142.5,139.74 L144.458,140.664 C143.952,142.292 143.314,143.876 142.522,145.394 L142.522,160.31 L140.476,160.31 L140.476,148.672 Z M144.062,142.622 L150.508,142.622 C150.222,141.874 149.892,141.148 149.518,140.444 L151.52,139.894 C151.982,140.884 152.334,141.786 152.576,142.622 L158.516,142.622 L158.516,144.58 L144.062,144.58 L144.062,142.622 Z M146.064,145.922 L156.646,145.922 L156.646,147.792 L146.064,147.792 L146.064,145.922 Z M146.064,149.024 L156.646,149.024 L156.646,150.916 L146.064,150.916 L146.064,149.024 Z M157.108,152.302 L157.108,160.266 L155.084,160.266 L155.084,159.122 L147.604,159.122 L147.604,160.266 L145.58,160.266 L145.58,152.302 L157.108,152.302 Z M147.604,157.164 L155.084,157.164 L155.084,154.238 L147.604,154.238 L147.604,157.164 Z M161.046,142.622 L164.258,142.622 C163.994,141.874 163.664,141.148 163.312,140.444 L165.314,139.894 C165.71,140.906 166.04,141.808 166.26,142.622 L169.01,142.622 L169.01,144.514 L161.046,144.514 L161.046,142.622 Z M161.926,148.914 L168.086,148.914 L168.086,150.784 L161.926,150.784 L161.926,148.914 Z M168.504,152.236 L168.504,159.914 L166.568,159.914 L166.568,158.946 L163.51,158.946 L163.51,160.244 L161.574,160.244 L161.574,152.236 L168.504,152.236 Z M163.51,157.098 L166.568,157.098 L166.568,154.084 L163.51,154.084 L163.51,157.098 Z M169.604,140.84 L180.56,140.84 L180.56,142.82 L176.094,142.82 L176.094,150.63 L181.198,150.63 L181.198,152.632 L176.094,152.632 L176.094,160.288 L174.092,160.288 L174.092,152.632 L168.966,152.632 L168.966,150.63 L174.092,150.63 L174.092,142.82 L169.604,142.82 L169.604,140.84 Z M171.518,143.744 C172.134,145.35 172.684,147.198 173.168,149.288 L171.386,149.728 C170.946,147.858 170.396,146.054 169.714,144.338 L171.518,143.744 Z M178.602,143.678 L180.428,144.162 C179.944,146.274 179.372,148.1 178.668,149.684 L176.93,149.068 C177.568,147.66 178.118,145.856 178.602,143.678 Z M161.926,145.878 L168.086,145.878 L168.086,147.704 L161.926,147.704 L161.926,145.878 Z M59.9119999,184.042 L59.2959999,182.282 C59.6479999,182.15 59.8239999,181.93 59.8239999,181.622 L59.8239999,169.918 L61.8699999,169.918 L61.8699999,181.556 C62.7719999,181.27 63.6739999,180.962 64.5759999,180.61 L64.5759999,168.07 L66.6439999,168.07 L66.6439999,186.264 C68.7779999,185.208 70.5159999,183.866 71.8359999,182.216 C70.7799999,180.61 69.9439999,178.872 69.3059999,177.002 L70.9999999,176.034 C71.5499999,177.574 72.2539999,179.026 73.0899999,180.346 C74.1899999,178.3 74.8279999,175.902 74.9819999,173.174 L71.0439999,173.174 C70.2959999,175.066 69.3499999,176.672 68.2279999,177.948 L66.9299999,176.364 C68.6019999,174.252 69.7239999,171.436 70.2959999,167.894 L72.3859999,168.246 C72.1879999,169.258 71.9679999,170.226 71.7259999,171.128 L78.6999999,171.128 L78.6999999,173.174 L76.9839999,173.174 C76.8079999,176.672 75.9279999,179.664 74.3659999,182.172 C75.6859999,183.866 77.2919999,185.384 79.1839999,186.726 L77.7539999,188.398 C75.9499999,187.078 74.4099999,185.582 73.0899999,183.954 C71.6819999,185.648 69.8999999,187.078 67.7439999,188.222 L66.6439999,186.44 L66.6439999,188.112 L64.5759999,188.112 L64.5759999,182.612 C63.0799999,183.14 61.5399999,183.624 59.9119999,184.042 Z M98.8519999,178.652 C97.2239999,177.464 95.5519999,176.474 93.8799999,175.704 L94.9579999,174.076 C97.4219999,175.198 99.6659999,176.54 101.69,178.124 L100.502,179.95 C99.9519999,179.51 99.4239999,179.092 98.9399999,178.718 L98.9399999,185.626 L101.492,185.626 L101.492,187.628 L81.8899999,187.628 L81.8899999,185.626 L84.5959999,185.626 L84.5959999,178.982 C83.9359999,179.334 83.2539999,179.642 82.5939999,179.928 L81.6919999,177.992 C84.3979999,176.98 86.6199999,175.66 88.3359999,174.01 L89.6559999,175.506 C88.3799999,176.694 86.9059999,177.75 85.2559999,178.652 L98.8519999,178.652 Z M86.5979999,185.626 L88.7099999,185.626 L88.7099999,180.632 L86.5979999,180.632 L86.5979999,185.626 Z M90.6459999,185.626 L92.8459999,185.626 L92.8459999,180.632 L90.6459999,180.632 L90.6459999,185.626 Z M94.7819999,185.626 L96.9159999,185.626 L96.9159999,180.632 L94.7819999,180.632 L94.7819999,185.626 Z M82.3519999,171.656 L87.4999999,171.656 C86.8619999,170.798 86.0699999,169.896 85.1239999,168.928 L86.8399999,167.85 C88.0059999,169.038 88.9079999,170.072 89.5239999,170.952 L88.5119999,171.656 L93.8579999,171.656 C94.6719999,170.468 95.3759999,169.214 95.9919999,167.894 L98.0159999,168.598 C97.4439999,169.742 96.8279999,170.776 96.1459999,171.656 L101.03,171.656 L101.03,173.68 L82.3519999,173.68 L82.3519999,171.656 Z M108.092,168.708 L120.588,168.708 L120.588,176.386 L108.092,176.386 L108.092,168.708 Z M118.498,174.406 L118.498,170.688 L110.182,170.688 L110.182,174.406 L118.498,174.406 Z M113.284,178.036 L113.284,187.936 L111.26,187.936 L111.26,186.88 L107.19,186.88 L107.19,187.936 L105.144,187.936 L105.144,178.036 L113.284,178.036 Z M107.19,184.922 L111.26,184.922 L111.26,180.016 L107.19,180.016 L107.19,184.922 Z M123.536,178.036 L123.536,187.936 L121.446,187.936 L121.446,186.88 L117.2,186.88 L117.2,187.936 L115.154,187.936 L115.154,178.036 L123.536,178.036 Z M117.2,184.922 L121.446,184.922 L121.446,180.016 L117.2,180.016 L117.2,184.922 Z M130.004,172.954 C129.784,174.406 129.278,175.616 128.442,176.584 L126.99,175.022 C127.738,174.252 128.134,173.174 128.2,171.788 L128.2,168.62 C131.192,168.576 133.854,168.378 136.186,167.982 L137.088,169.632 C134.998,169.94 132.666,170.138 130.114,170.226 L130.114,171.26 L136.89,171.26 L136.89,172.954 L134.448,172.954 L134.448,175.33 L132.424,175.33 L132.424,172.954 L130.004,172.954 Z M139.574,173.042 C139.31,174.142 138.804,175.066 138.078,175.814 L144.612,175.814 L144.612,185.076 L140.234,185.076 C142.522,185.472 144.722,186.022 146.812,186.704 L146.13,188.354 C143.842,187.54 141.466,186.924 139.002,186.484 L139.706,185.076 L134.316,185.076 L135.262,186.33 C133.7,187.144 131.478,187.804 128.574,188.288 L127.65,186.704 C130.466,186.264 132.622,185.736 134.118,185.076 L129.872,185.076 L129.872,175.814 L137.704,175.814 L136.45,174.472 C137.33,173.724 137.814,172.712 137.902,171.436 L137.902,168.642 C140.85,168.598 143.468,168.378 145.8,167.982 L146.702,169.632 C144.634,169.962 142.346,170.16 139.816,170.248 L139.816,171.304 L146.79,171.304 L146.79,173.042 L144.062,173.042 L144.062,175.352 L142.06,175.352 L142.06,173.042 L139.574,173.042 Z M142.5,183.404 L142.5,182.326 L131.962,182.326 L131.962,183.404 L142.5,183.404 Z M131.962,180.94 L142.5,180.94 L142.5,179.906 L131.962,179.906 L131.962,180.94 Z M131.962,178.498 L142.5,178.498 L142.5,177.464 L131.962,177.464 L131.962,178.498 Z M156.14,173.944 L150.2,173.944 L150.2,171.942 L155.678,171.942 C155.062,170.798 154.402,169.764 153.742,168.862 L155.546,168.004 C156.25,169.016 156.954,170.116 157.614,171.326 L156.404,171.942 L161.816,171.942 C162.586,170.71 163.246,169.39 163.818,168.004 L165.82,168.708 C165.314,169.896 164.764,170.974 164.148,171.942 L169.12,171.942 L169.12,173.944 L163.18,173.944 L163.18,185.538 L169.516,185.538 L169.516,187.54 L149.848,187.54 L149.848,185.538 L156.14,185.538 L156.14,173.944 Z M158.186,185.538 L161.134,185.538 L161.134,173.944 L158.186,173.944 L158.186,185.538 Z M153.214,175.704 C153.874,177.904 154.446,180.28 154.974,182.854 L153.06,183.25 C152.598,180.566 152.026,178.168 151.344,176.1 L153.214,175.704 Z M166.15,175.594 L168.086,176.1 C167.558,178.85 166.876,181.248 166.04,183.316 L164.148,182.656 C164.918,180.808 165.578,178.454 166.15,175.594 Z M174.51,174.362 L181.242,174.362 L181.242,173.284 L172.838,173.284 L172.838,171.524 L181.242,171.524 L181.242,170.314 C179.13,170.424 176.908,170.512 174.576,170.6 L174.224,168.928 C179.944,168.752 185.004,168.444 189.426,168.004 L190.064,169.698 C187.974,169.874 185.73,170.05 183.332,170.204 L183.332,171.524 L191.78,171.524 L191.78,173.284 L183.332,173.284 L183.332,174.362 L190.086,174.362 L190.086,181.93 L183.332,181.93 L183.332,183.096 L191.01,183.096 L191.01,184.746 L183.332,184.746 L183.332,186 L192.11,186 L192.11,187.782 L172.53,187.782 L172.53,186 L181.242,186 L181.242,184.746 L173.63,184.746 L173.63,183.096 L181.242,183.096 L181.242,181.93 L174.51,181.93 L174.51,174.362 Z M188.062,180.28 L188.062,178.916 L183.332,178.916 L183.332,180.28 L188.062,180.28 Z M181.242,180.28 L181.242,178.916 L176.512,178.916 L176.512,180.28 L181.242,180.28 Z M176.512,177.332 L181.242,177.332 L181.242,176.012 L176.512,176.012 L176.512,177.332 Z M183.332,176.012 L183.332,177.332 L188.062,177.332 L188.062,176.012 L183.332,176.012 Z" id="投資級信評-收益品質並重" fill="#FFFFFF"></path>
        <g id="Group-20" transform="translate(83.000000, 38.000000)">
            <path d="M41.273396,15.6494671 C39.8751084,15.6494671 38.7442077,14.5185664 38.7451234,13.1211945 L38.7451234,2.52827259 C38.7451234,1.13090063 39.8760241,0 41.273396,0 C42.670768,0 43.8016686,1.13090063 43.8016686,2.52827259 L43.8016686,13.1211945 C43.8016686,14.5185664 42.670768,15.6494671 41.273396,15.6494671 Z M61.656163,7.05645367 C62.354849,5.84680206 63.9033129,5.42191308 65.1102174,6.13250328 C66.319869,6.82935784 66.7346852,8.37507465 66.0359992,9.58472626 L60.7395383,18.7555521 C60.2706953,19.5659545 59.421833,20.0201462 58.5473309,20.0201462 C58.1178634,20.0201462 57.6829016,19.9111768 57.2854839,19.6795024 C56.0758323,18.9826479 55.6610161,17.4369311 56.359702,16.2272795 L61.656163,7.05645367 Z M79.2368604,22.4293766 C80.440102,21.7187864 81.9931445,22.1436754 82.6909148,23.353327 C83.3896008,24.5638943 82.9747846,26.1096112 81.765133,26.80555 L72.5924758,32.1047581 C72.195058,32.3364325 71.7600963,32.4454018 71.3306287,32.4454018 C70.4570423,32.4454018 69.6072644,31.9902945 69.1384214,31.1808077 C68.4397354,29.9702404 68.8545516,28.4245235 70.0642032,27.7285847 L79.2368604,22.4293766 Z M21.9345373,19.2399621 L16.6408235,10.0654735 C15.9421375,8.85490618 16.3569537,7.30918936 17.5666053,6.61325051 C18.7661841,5.9017446 20.3192266,6.32663359 21.0206597,7.5362852 L26.3143735,16.7116895 C27.0130595,17.9222568 26.5982433,19.4679737 25.3885917,20.1639125 C24.991174,20.3955869 24.5562122,20.5045563 24.1267447,20.5045563 C23.2531583,20.5045563 22.4033803,20.0494489 21.9345373,19.2399621 Z M10.4378106,32.938969 L1.26515343,27.6443395 C0.0555018185,26.9474849 -0.359314365,25.4017681 0.339371613,24.1921165 C1.03531046,22.9824649 2.58377441,22.5575759 3.79342602,23.2690818 L12.9660832,28.5627956 C14.1757348,29.2596502 14.590551,30.805367 13.891865,32.0150186 C13.423022,32.8254211 12.5741598,33.2796127 11.6996577,33.2796127 C11.2701901,33.2796127 10.8352283,33.1706434 10.4378106,32.938969 Z" id="Combined-Shape" fill="#FFFFFF" fill-rule="nonzero"></path>
            <g id="Group-19" transform="translate(2.000000, 26.000000)" stroke="#FFFFFF" stroke-linecap="round" stroke-linejoin="round" stroke-width="3">
                <polygon id="Rectangle-21" points="30.4666667 0 49.5333333 0 53 16 27 16"></polygon>
                <polygon id="Rectangle-21-Copy-4" points="30.4666667 32 49.5333333 32 53 48 27 48"></polygon>
                <polygon id="Rectangle-21-Copy-3" points="3.46666667 32 22.5333333 32 26 48 0 48"></polygon>
                <polygon id="Rectangle-21-Copy-5" points="57.4666667 32 76.5333333 32 80 48 54 48"></polygon>
                <polygon id="Rectangle-21-Copy" points="17.4666667 16 36.5333333 16 40 32 14 32"></polygon>
                <polygon id="Rectangle-21-Copy-2" points="44.4666667 16 63.5333333 16 67 32 41 32"></polygon>
            </g>
        </g>
    </g>
</svg>