<?xml version="1.0" encoding="UTF-8"?>
<svg width="250px" height="276px" viewBox="0 0 250 276" version="1.1" xmlns="http://www.w3.org/2000/svg" xmlns:xlink="http://www.w3.org/1999/xlink">
    <!-- Generator: Sketch 49 (51002) - http://www.bohemiancoding.com/sketch -->
    <title>s3_f1</title>
    <desc>Created with Sketch.</desc>
    <defs>
        <polygon id="path-1" points="20 4 230 4 230 276 125 216 20 276"></polygon>
        <polygon id="path-3" points="20 -10 230 -10 230 276 125 216 20 276"></polygon>
    </defs>
    <g id="s3_f1" stroke="none" stroke-width="1" fill="none" fill-rule="evenodd">
        <g id="Group-35-Copy-5">
            <polygon id="Combined-Shape" fill="#D2BEA6" points="234 18 16 18 16 22 0 22 0 0 16 0 16 4 234 4 234 0 250 0 250 22 234 22"></polygon>
            <polygon id="Combined-Shape" fill="#B7956F" points="234 18 16 18 16 22 0 22 0 12 250 12 250 22 234 22"></polygon>
            <mask id="mask-2" fill="white">
                <use xlink:href="#path-1"></use>
            </mask>
            <g id="Combined-Shape"></g>
            <g id="Combined-Shape" mask="url(#mask-2)">
                <use fill="#0B406C" fill-rule="evenodd" xlink:href="#path-3"></use>
                <path stroke="#FFBD46" stroke-width="10" d="M25,-5 L25,267.384102 L125,210.241244 L225,267.384102 L225,-5 L25,-5 Z"></path>
                <path stroke="#0B406C" stroke-width="6" d="M23,-7 L23,270.830461 L125,212.544747 L227,270.830461 L227,-7 L23,-7 Z"></path>
            </g>
        </g>
        <g id="view" transform="translate(192.000000, 122.000000)" fill="#FFFFFF" opacity="0.7">
            <path d="M13.1451287,12.4380219 L17.0961941,16.3890873 C17.2914562,16.5843494 17.2914562,16.9009319 17.0961941,17.0961941 C16.9009319,17.2914562 16.5843494,17.2914562 16.3890873,17.0961941 L12.4380219,13.1451287 C11.1187738,14.3000688 9.39112573,15 7.5,15 C3.35786438,15 0,11.6421356 0,7.5 C0,3.35786438 3.35786438,0 7.5,0 C11.6421356,0 15,3.35786438 15,7.5 C15,9.39112573 14.3000688,11.1187738 13.1451287,12.4380219 Z M7,7 L7,3.5 C7,3.22385763 7.22385763,3 7.5,3 C7.77614237,3 8,3.22385763 8,3.5 L8,7 L11.5,7 C11.7761424,7 12,7.22385763 12,7.5 C12,7.77614237 11.7761424,8 11.5,8 L8,8 L8,11.5 C8,11.7761424 7.77614237,12 7.5,12 C7.22385763,12 7,11.7761424 7,11.5 L7,8 L3.5,8 C3.22385763,8 3,7.77614237 3,7.5 C3,7.22385763 3.22385763,7 3.5,7 L7,7 Z M7.5,14 C11.0898509,14 14,11.0898509 14,7.5 C14,3.91014913 11.0898509,1 7.5,1 C3.91014913,1 1,3.91014913 1,7.5 C1,11.0898509 3.91014913,14 7.5,14 Z" id="Combined-Shape"></path>
        </g>
        <path d="M82.2319999,140.18 C83.6619999,141.236 84.8719999,142.292 85.8619999,143.348 L84.4099999,144.822 C83.5519999,143.81 82.3419999,142.732 80.7579999,141.61 L82.2319999,140.18 Z M81.9899999,145.504 C83.3539999,146.56 84.5199999,147.616 85.4659999,148.672 L83.9919999,150.124 C83.1559999,149.134 82.0119999,148.078 80.5159999,146.934 L81.9899999,145.504 Z M83.9479999,151.488 L85.7959999,152.214 C85.0039999,155.052 84.1019999,157.714 83.1119999,160.222 L81.1539999,159.364 C82.2319999,156.79 83.1559999,154.172 83.9479999,151.488 Z M98.9739999,151.29 L98.9739999,160.244 L97.0159999,160.244 L97.0159999,159.32 L89.6899999,159.32 L89.6899999,160.244 L87.7319999,160.244 L87.7319999,151.29 L98.9739999,151.29 Z M89.6899999,157.56 L97.0159999,157.56 L97.0159999,156.152 L89.6899999,156.152 L89.6899999,157.56 Z M89.6899999,154.48 L97.0159999,154.48 L97.0159999,153.072 L89.6899999,153.072 L89.6899999,154.48 Z M86.1699999,140.664 L92.8139999,140.664 L92.8139999,142.248 L91.2079999,142.248 C91.1639999,143.04 91.0539999,143.788 90.9219999,144.47 L92.7259999,144.47 L92.7259999,146.01 L90.5039999,146.01 L90.2399999,146.67 L91.4719999,146.67 L91.4719999,148.496 C92.1319999,148.078 92.7699999,147.616 93.3859999,147.088 L93.6719999,148.386 C92.5279999,149.31 91.3839999,150.102 90.2399999,150.718 L89.6239999,149.486 C89.9539999,149.266 90.1299999,148.98 90.1299999,148.672 L90.1299999,146.912 C89.3379999,148.584 88.1719999,149.948 86.5879999,150.96 L85.7079999,149.574 C87.1599999,148.716 88.2379999,147.528 88.8979999,146.01 L86.0159999,146.01 C86.4559999,144.602 86.8079999,143.348 87.0499999,142.248 L86.1699999,142.248 L86.1699999,140.664 Z M89.4259999,144.47 C89.6019999,143.766 89.7119999,143.04 89.7559999,142.248 L88.5239999,142.248 C88.3039999,143.084 88.0839999,143.81 87.8639999,144.47 L89.4259999,144.47 Z M93.3639999,140.664 L100.052,140.664 L100.052,142.248 L98.1159999,142.248 C98.0719999,143.04 97.9839999,143.788 97.8519999,144.47 L100.184,144.47 L100.184,146.01 L97.4779999,146.01 C97.3899999,146.23 97.3239999,146.45 97.2579999,146.648 L98.2039999,146.648 L98.2039999,148.826 C98.2039999,149.156 98.3579999,149.332 98.7099999,149.332 L99.1499999,149.332 C99.2819999,149.332 99.4139999,149.288 99.5239999,149.2 C99.6339999,149.09 99.7219999,148.54 99.7659999,147.528 L100.998,147.924 C100.866,149.244 100.712,150.036 100.492,150.278 C100.294,150.476 99.9419999,150.586 99.4139999,150.608 L98.2479999,150.608 C97.7859999,150.608 97.4339999,150.454 97.2139999,150.19 C96.9499999,149.882 96.8399999,149.53 96.8399999,149.112 L96.8399999,147.594 C96.1359999,148.98 95.1899999,150.102 93.9579999,150.982 L93.1219999,149.618 C94.3979999,148.76 95.3219999,147.55 95.8939999,146.01 L93.2099999,146.01 C93.4299999,144.624 93.6279999,143.37 93.7599999,142.248 L93.3639999,142.248 L93.3639999,140.664 Z M96.3339999,144.47 C96.4659999,143.766 96.5759999,143.018 96.6199999,142.248 L95.1679999,142.248 L94.8819999,144.47 L96.3339999,144.47 Z M111.272,140.026 L113.384,140.026 L113.384,142.358 C113.362,143.018 113.34,143.656 113.296,144.294 L121.678,144.294 C121.59,148.166 121.458,151.29 121.238,153.688 C121.018,156.042 120.644,157.692 120.116,158.638 C119.588,159.54 118.752,160.024 117.586,160.112 L114.528,160.112 L113.956,158.088 C114.88,158.132 115.738,158.154 116.552,158.154 C117.718,158.154 118.488,157.428 118.84,155.998 C119.214,154.48 119.456,151.246 119.566,146.318 L113.12,146.318 C112.768,149.376 112.13,151.95 111.184,154.018 C109.864,156.724 107.73,158.814 104.782,160.266 L103.66,158.506 C106.564,156.922 108.522,154.92 109.578,152.478 C110.26,150.762 110.744,148.694 111.008,146.318 L104.826,146.318 L104.826,144.294 L111.184,144.294 C111.228,143.634 111.25,142.996 111.272,142.358 L111.272,140.026 Z M129.356,143.854 C128.74,144.602 128.036,145.284 127.244,145.9 L125.968,144.228 C127.596,143.04 128.718,141.588 129.29,139.894 L131.314,140.158 C131.116,140.774 130.896,141.346 130.632,141.874 L144.866,141.874 L144.866,143.854 L129.356,143.854 Z M129.092,144.734 L131.094,144.734 L131.094,147.242 L133.14,147.242 L133.14,144.734 L135.164,144.734 L135.164,147.242 L137.254,147.242 L137.254,144.734 L139.256,144.734 L139.256,147.242 L141.302,147.242 L141.302,144.734 L143.326,144.734 L143.326,147.242 L145.328,147.242 L145.328,149.178 L143.326,149.178 L143.326,152.368 L145.614,152.368 L145.614,154.326 L126.386,154.326 L126.386,152.368 L129.092,152.368 L129.092,149.178 L126.694,149.178 L126.694,147.242 L129.092,147.242 L129.092,144.734 Z M131.094,152.368 L133.14,152.368 L133.14,149.178 L131.094,149.178 L131.094,152.368 Z M135.164,152.368 L137.254,152.368 L137.254,149.178 L135.164,149.178 L135.164,152.368 Z M139.256,152.368 L141.302,152.368 L141.302,149.178 L139.256,149.178 L139.256,152.368 Z M129.048,154.92 L130.786,155.756 C130.038,157.56 129.136,159.1 128.08,160.398 L126.386,159.144 C127.398,157.956 128.3,156.548 129.048,154.92 Z M134.218,155.426 C134.658,156.768 135.054,158.22 135.406,159.76 L133.316,160.244 C133.03,158.572 132.678,157.12 132.282,155.844 L134.218,155.426 Z M139.036,155.294 C139.608,156.636 140.114,158.088 140.554,159.65 L138.464,160.112 C138.09,158.44 137.65,156.988 137.122,155.712 L139.036,155.294 Z M142.996,154.81 C144.272,156.438 145.262,157.846 145.944,159.056 L144.206,160.288 C143.502,158.946 142.578,157.45 141.39,155.822 L142.996,154.81 Z M167.834,141.148 L167.834,144.074 L165.788,144.074 L165.788,142.864 L161.96,142.864 L161.96,143.788 C161.96,144.184 162.18,144.404 162.664,144.404 L167.218,144.404 L167.218,146.054 L161.806,146.054 C160.618,146.054 160.046,145.57 160.046,144.624 L160.046,142.864 L156.856,142.864 L157.626,143.326 C156.834,144.36 155.58,145.152 153.82,145.68 L155.338,145.9 C155.206,146.252 155.052,146.582 154.876,146.912 L158.022,146.912 L158.022,153.402 C158.286,153.16 158.528,152.918 158.77,152.698 L159.518,153.71 L160.068,150.278 L165.04,150.278 L165.04,148.518 L159.87,148.518 L159.87,146.824 L166.998,146.824 L166.998,151.928 L161.74,151.928 L161.388,153.732 L167.438,153.732 C167.438,156.262 167.306,157.956 167.086,158.792 C166.8,159.65 165.634,160.112 163.566,160.2 C163.192,160.2 162.818,160.156 162.444,160.112 L161.982,158.396 C162.356,158.44 162.73,158.484 163.126,158.484 C164.336,158.484 165.04,158.286 165.238,157.912 C165.414,157.516 165.524,156.68 165.524,155.404 L159.254,155.404 L159.474,153.996 C158.99,154.48 158.506,154.942 158.022,155.338 L158.022,158.066 C158.022,159.474 157.34,160.2 155.976,160.2 L153.93,160.2 L153.468,158.462 L155.404,158.528 C155.954,158.528 156.24,158.242 156.24,157.692 L156.24,156.636 C154.348,157.868 152.17,158.924 149.662,159.804 L148.716,158.176 C151.4,157.34 153.666,156.35 155.536,155.206 C153.622,155.514 151.554,155.778 149.31,155.998 L149.09,154.348 L150.278,154.26 L150.278,146.912 L152.962,146.912 C153.138,146.56 153.27,146.186 153.402,145.812 C152.566,146.032 151.642,146.208 150.652,146.34 L149.882,145.042 C152.742,144.69 154.7,143.964 155.8,142.864 L151.554,142.864 L151.554,144.272 L149.508,144.272 L149.508,141.148 L157.362,141.148 C157.142,140.796 156.944,140.466 156.724,140.158 L158.836,139.806 C159.034,140.202 159.232,140.664 159.43,141.148 L167.834,141.148 Z M152.104,150.718 L152.104,151.554 L156.24,151.554 L156.24,150.718 L152.104,150.718 Z M156.24,149.31 L156.24,148.452 L152.104,148.452 L152.104,149.31 L156.24,149.31 Z M152.104,152.962 L152.104,154.106 C153.6,153.952 154.964,153.798 156.24,153.622 L156.24,152.962 L152.104,152.962 Z M73.5199999,167.872 L75.3899999,168.752 C74.9939999,170.116 74.4879999,171.458 73.8719999,172.756 L73.8719999,188.31 L71.8039999,188.31 L71.8039999,176.32 C71.1879999,177.2 70.5059999,178.058 69.8019999,178.894 L69.1419999,176.76 C71.1219999,174.208 72.5739999,171.26 73.5199999,167.872 Z M76.4459999,176.408 L87.7319999,176.408 L87.7319999,185.12 L84.4979999,185.12 C86.2579999,185.472 87.9519999,185.956 89.5799999,186.594 L88.8759999,188.288 C87.0719999,187.518 85.1799999,186.924 83.2219999,186.528 L83.9259999,185.12 L80.1639999,185.12 L81.1099999,186.198 C79.5699999,187.056 77.6559999,187.782 75.3679999,188.354 L74.5759999,186.66 C76.5999999,186.264 78.2719999,185.736 79.6359999,185.12 L76.4459999,185.12 L76.4459999,176.408 Z M85.8399999,183.536 L85.8399999,182.656 L78.3379999,182.656 L78.3379999,183.536 L85.8399999,183.536 Z M78.3379999,181.226 L85.8399999,181.226 L85.8399999,180.302 L78.3379999,180.302 L78.3379999,181.226 Z M78.3379999,178.872 L85.8399999,178.872 L85.8399999,177.992 L78.3379999,177.992 L78.3379999,178.872 Z M81.1319999,167.938 L83.1119999,167.938 L83.1119999,169.038 L88.6779999,169.038 L88.6779999,170.666 L83.1119999,170.666 L83.1119999,171.524 L87.9299999,171.524 L87.9299999,173.152 L83.1119999,173.152 L83.1119999,174.054 L89.2499999,174.054 L89.2499999,175.704 L75.2579999,175.704 L75.2579999,174.054 L81.1319999,174.054 L81.1319999,173.152 L76.4679999,173.152 L76.4679999,171.524 L81.1319999,171.524 L81.1319999,170.666 L75.7199999,170.666 L75.7199999,169.038 L81.1319999,169.038 L81.1319999,167.938 Z M92.198,170.314 L100.866,170.314 C100.536,169.522 100.184,168.774 99.81,168.114 L102.054,167.762 C102.384,168.532 102.692,169.39 103,170.314 L111.822,170.314 L111.822,172.316 L103.066,172.316 L103.066,174.714 L110.216,174.714 L110.216,182.876 C110.216,184.284 109.468,185.01 108.016,185.01 L105.794,185.01 L105.266,183.03 L107.356,183.14 C107.884,183.14 108.148,182.876 108.148,182.392 L108.148,176.716 L103.066,176.716 L103.066,188.244 L100.954,188.244 L100.954,176.716 L96.136,176.716 L96.136,185.164 L94.09,185.164 L94.09,174.714 L100.954,174.714 L100.954,172.316 L92.198,172.316 L92.198,170.314 Z M131.072,173.262 C132.502,175.022 133.602,176.584 134.35,177.926 L132.788,179.004 C132.502,178.498 132.194,177.992 131.864,177.464 C130.192,177.706 128.212,177.926 125.902,178.124 L126.65,178.432 C126.496,178.784 126.342,179.114 126.166,179.466 L132.348,179.466 L132.348,181.16 C131.842,182.612 130.918,183.866 129.554,184.922 C131.16,185.604 132.986,186.154 135.01,186.594 L133.844,188.332 C131.512,187.76 129.466,187.034 127.706,186.132 C125.99,187.034 123.9,187.76 121.392,188.332 L120.446,186.638 C122.514,186.198 124.296,185.648 125.748,184.988 C124.956,184.46 124.23,183.91 123.592,183.316 C123.02,183.932 122.426,184.482 121.81,184.966 L120.314,183.668 C121.04,183.14 121.7,182.568 122.272,181.952 C121.854,181.468 121.48,180.984 121.15,180.478 L122.756,179.554 C122.954,179.862 123.174,180.17 123.416,180.478 C123.9,179.752 124.34,179.004 124.692,178.212 C123.812,178.256 122.888,178.322 121.942,178.388 L121.37,176.76 C122.954,176.232 124.714,175.132 126.672,173.416 C125.462,173.548 123.988,173.658 122.25,173.79 L121.964,172.118 C122.602,172.052 123.174,171.744 123.658,171.172 C124.274,170.468 125.066,169.346 126.012,167.806 L127.882,168.51 C126.98,169.808 126.056,170.952 125.11,171.942 C126.342,171.81 127.508,171.7 128.586,171.59 C129.158,171.018 129.73,170.424 130.302,169.786 L132.128,170.644 C129.664,173.262 127.42,175.242 125.44,176.584 C127.442,176.386 129.224,176.144 130.808,175.88 C130.412,175.308 129.994,174.758 129.576,174.208 L131.072,173.262 Z M127.618,183.954 C128.784,183.162 129.664,182.26 130.236,181.248 L125.176,181.248 C125.022,181.468 124.868,181.666 124.736,181.886 C125.572,182.634 126.518,183.338 127.618,183.954 Z M119.104,167.894 L120.952,168.752 C119.808,171.128 117.85,173.284 115.078,175.22 L114.462,173.196 C116.574,171.656 118.114,169.896 119.104,167.894 Z M119.61,173.504 L121.436,174.362 C120.908,175.462 120.226,176.518 119.412,177.508 L119.412,188.134 L117.388,188.134 L117.388,179.598 C116.728,180.17 116.024,180.742 115.254,181.292 L114.66,179.29 C116.882,177.618 118.532,175.704 119.61,173.504 Z M150.586,168.246 L152.588,168.246 L152.588,172.448 L156.768,172.448 C156.768,179.378 156.658,183.646 156.438,185.274 C156.218,187.078 155.184,188.002 153.38,188.002 C152.984,188.002 152.324,187.958 151.378,187.892 L150.894,186.088 C151.73,186.154 152.456,186.198 153.072,186.198 C153.908,186.198 154.37,185.582 154.502,184.394 C154.634,183.404 154.722,180.06 154.766,174.384 L152.544,174.384 C152.302,180.632 150.872,185.252 148.254,188.244 L146.714,186.902 C149.046,184.218 150.322,180.06 150.542,174.384 L148.144,174.384 L148.144,172.448 L150.586,172.448 L150.586,168.246 Z M146.934,184.174 L146.934,186.066 C144.162,186.638 141.016,187.122 137.474,187.474 L137.232,185.516 C138.728,185.384 140.158,185.23 141.5,185.054 L141.5,181.468 L137.804,181.468 L137.804,179.51 L147.22,179.51 L147.22,181.468 L143.524,181.468 L143.524,184.768 C144.712,184.592 145.856,184.394 146.934,184.174 Z M137.562,168.73 L147.44,168.73 L147.44,170.666 L137.562,170.666 L137.562,168.73 Z M139.19,171.106 L140.884,171.81 C140.29,173.13 139.674,174.208 139.058,175.044 C139.718,175.836 140.422,176.936 141.17,178.3 L139.586,179.224 C138.86,177.684 138.046,176.298 137.166,175.088 C138.002,173.812 138.684,172.47 139.19,171.106 Z M142.402,171.15 L144.096,171.854 C143.524,173.152 142.952,174.208 142.38,175.044 C143.018,175.792 143.678,176.826 144.382,178.124 L142.776,179.048 C142.116,177.552 141.346,176.232 140.51,175.088 C141.302,173.812 141.918,172.514 142.402,171.15 Z M145.812,171.194 L147.506,171.898 C146.912,173.174 146.296,174.208 145.68,175.044 C146.362,175.792 147.066,176.826 147.77,178.124 L146.186,179.048 C145.482,177.552 144.668,176.232 143.788,175.088 C144.624,173.834 145.306,172.536 145.812,171.194 Z M168.164,176.518 L172.542,176.518 L172.542,174.89 L174.566,174.89 L174.566,176.518 L178.834,176.518 L178.834,182.348 L174.566,182.348 L174.566,185.274 C175.49,185.142 176.348,184.988 177.118,184.856 C176.92,184.35 176.722,183.866 176.546,183.404 L178.306,182.942 C179.098,184.614 179.692,186.154 180.132,187.54 L178.196,188.266 C178.02,187.65 177.866,187.078 177.69,186.506 C175.534,187.034 172.256,187.518 167.878,187.914 L167.592,185.846 C169.396,185.758 171.046,185.626 172.542,185.494 L172.542,182.348 L168.164,182.348 L168.164,176.518 Z M176.964,180.522 L176.964,178.344 L174.566,178.344 L174.566,180.522 L176.964,180.522 Z M172.542,180.522 L172.542,178.344 L170.056,178.344 L170.056,180.522 L172.542,180.522 Z M162.796,175.66 L162.422,178.652 L167.108,178.652 C167.108,182.392 166.976,184.9 166.734,186.132 C166.47,187.408 165.326,188.09 163.302,188.2 C162.686,188.2 162.048,188.156 161.41,188.112 L160.904,186.154 C161.52,186.198 162.158,186.242 162.818,186.242 C163.962,186.242 164.6,185.868 164.776,185.142 C164.952,184.438 165.04,182.898 165.04,180.566 L160.222,180.566 L160.97,173.724 L165.018,173.724 L165.018,170.732 L160.442,170.732 L160.442,168.774 L167.02,168.774 L167.02,175.66 L162.796,175.66 Z M176.942,169.5 C177.998,170.952 179.01,172.558 179.978,174.318 L178.086,175.264 C177.866,174.802 177.646,174.362 177.426,173.944 C174.632,174.274 171.53,174.538 168.142,174.714 L167.79,172.866 C168.824,172.602 170.254,170.952 172.08,167.894 L174.214,168.642 C173.136,170.226 172.058,171.59 171.002,172.712 C172.85,172.58 174.654,172.404 176.414,172.184 C176.018,171.524 175.6,170.93 175.182,170.358 L176.942,169.5 Z" id="潛力無窮-債市後勁強" fill="#FFFFFF"></path>
        <path d="M164.46268,79.1476014 C164.761209,79.1476014 165.001419,79.3893876 165.001419,79.687601 C165.001419,79.7181789 164.998897,79.7481263 164.994168,79.777128 C164.353608,86.4572973 162.018339,92.9171165 158.239918,98.460229 C158.153544,98.586954 158.017362,98.6708068 157.865418,98.6909819 C157.84146,98.6944495 157.817502,98.6960257 157.793859,98.6960257 C157.666189,98.6960257 157.541355,98.6506317 157.443317,98.5667788 L144.575692,87.5852123 C144.37867,87.4171914 144.328862,87.1325332 144.456848,86.9074545 C145.751523,84.6339714 146.625673,82.1748142 147.05534,79.5987044 C147.098527,79.3386346 147.323921,79.1476014 147.587774,79.1476014 L164.460158,79.1476014 L164.46268,79.1476014 Z M140.501738,92.6268156 L153.311359,103.55889 C153.426105,103.656613 153.494826,103.798154 153.500185,103.949152 C153.506175,104.100151 153.448486,104.246105 153.341306,104.352655 C145.778791,111.863471 135.7464,116 125.092049,116 C102.985168,116 85,98.0148319 85,75.907951 C85,65.8676796 88.7295589,56.2621189 95.5014619,48.8600588 C102.229547,41.5059146 111.3777,36.9400342 121.261299,36.0025219 C121.278322,36.0006305 121.295345,36 121.312368,36 C121.446343,36 121.575905,36.0494921 121.67552,36.1405953 C121.788374,36.2427318 121.852367,36.3880557 121.852367,36.5399995 L121.852367,53.4120688 C121.852367,53.6759215 121.661334,53.9010001 121.400949,53.9445027 C110.633743,55.7407183 102.818723,64.977768 102.818723,75.907951 C102.818723,88.1895515 112.810449,98.1812765 125.092049,98.1812765 C130.505599,98.1812765 135.727171,96.2104201 139.794348,92.6321746 C139.896169,92.5423323 140.023524,92.4975687 140.151195,92.4975687 C140.275713,92.4975687 140.400547,92.5407561 140.501738,92.6268156 Z M138.468118,48.5365635 C138.91796,48.5365635 139.282688,48.9012917 139.282688,49.3511337 L139.282688,72.4368227 C139.282688,72.8866647 138.91796,73.2513929 138.468118,73.2513929 L129.967775,73.2513929 C129.517933,73.2513929 129.15352,72.8866647 129.15352,72.4368227 L129.15352,49.3511337 C129.15352,48.9012917 129.517933,48.5365635 129.967775,48.5365635 L138.468118,48.5365635 Z M150.783858,56.3697405 C151.2337,56.3697405 151.598113,56.7341535 151.598113,57.1839955 L151.598113,72.4370119 C151.598113,72.8868539 151.2337,73.2515821 150.783858,73.2515821 L142.283516,73.2515821 C141.833674,73.2515821 141.469261,72.8868539 141.469261,72.4370119 L141.469261,57.1839955 C141.469261,56.7341535 141.833674,56.3697405 142.283516,56.3697405 L150.783858,56.3697405 Z M163.09963,38.7454547 C163.549157,38.7454547 163.913885,39.1098677 163.913885,39.5597097 L163.913885,72.4369488 C163.913885,72.8867908 163.549157,73.251519 163.09963,73.251519 L154.599288,73.251519 C154.149446,73.251519 153.784717,72.8867908 153.784717,72.4369488 L153.784717,39.5597097 C153.784717,39.1098677 154.149446,38.7454547 154.599288,38.7454547 L163.09963,38.7454547 Z" id="Combined-Shape" stroke="#FFFFFF" stroke-width="3"></path>
    </g>
</svg>