<?xml version="1.0" encoding="UTF-8"?>
<svg width="250px" height="276px" viewBox="0 0 250 276" version="1.1" xmlns="http://www.w3.org/2000/svg" xmlns:xlink="http://www.w3.org/1999/xlink">
    <!-- Generator: Sketch 49 (51002) - http://www.bohemiancoding.com/sketch -->
    <title>s3_f4</title>
    <desc>Created with Sketch.</desc>
    <defs>
        <polygon id="path-1" points="20 4 230 4 230 276 125 216 20 276"></polygon>
        <polygon id="path-3" points="20 -10 230 -10 230 276 125 216 20 276"></polygon>
    </defs>
    <g id="s3_f4" stroke="none" stroke-width="1" fill="none" fill-rule="evenodd">
        <g id="Group-35-Copy-4">
            <polygon id="Combined-Shape" fill="#D2BEA6" points="234 18 16 18 16 22 0 22 0 0 16 0 16 4 234 4 234 0 250 0 250 22 234 22"></polygon>
            <polygon id="Combined-Shape" fill="#B7956F" points="234 18 16 18 16 22 0 22 0 12 250 12 250 22 234 22"></polygon>
            <mask id="mask-2" fill="white">
                <use xlink:href="#path-1"></use>
            </mask>
            <g id="Combined-Shape"></g>
            <g id="Combined-Shape" mask="url(#mask-2)">
                <use fill="#689BC8" fill-rule="evenodd" xlink:href="#path-3"></use>
                <path stroke="#FFBD46" stroke-width="10" d="M25,-5 L25,267.384102 L125,210.241244 L225,267.384102 L225,-5 L25,-5 Z"></path>
                <path stroke="#689BC8" stroke-width="6" d="M23,-7 L23,270.830461 L125,212.544747 L227,270.830461 L227,-7 L23,-7 Z"></path>
            </g>
        </g>
        <g id="view" transform="translate(192.000000, 122.000000)" fill="#FFFFFF" opacity="0.7">
            <path d="M13.1451287,12.4380219 L17.0961941,16.3890873 C17.2914562,16.5843494 17.2914562,16.9009319 17.0961941,17.0961941 C16.9009319,17.2914562 16.5843494,17.2914562 16.3890873,17.0961941 L12.4380219,13.1451287 C11.1187738,14.3000688 9.39112573,15 7.5,15 C3.35786438,15 0,11.6421356 0,7.5 C0,3.35786438 3.35786438,0 7.5,0 C11.6421356,0 15,3.35786438 15,7.5 C15,9.39112573 14.3000688,11.1187738 13.1451287,12.4380219 Z M7,7 L7,3.5 C7,3.22385763 7.22385763,3 7.5,3 C7.77614237,3 8,3.22385763 8,3.5 L8,7 L11.5,7 C11.7761424,7 12,7.22385763 12,7.5 C12,7.77614237 11.7761424,8 11.5,8 L8,8 L8,11.5 C8,11.7761424 7.77614237,12 7.5,12 C7.22385763,12 7,11.7761424 7,11.5 L7,8 L3.5,8 C3.22385763,8 3,7.77614237 3,7.5 C3,7.22385763 3.22385763,7 3.5,7 L7,7 Z M7.5,14 C11.0898509,14 14,11.0898509 14,7.5 C14,3.91014913 11.0898509,1 7.5,1 C3.91014913,1 1,3.91014913 1,7.5 C1,11.0898509 3.91014913,14 7.5,14 Z" id="Combined-Shape"></path>
        </g>
        <path d="M105.088,142.292 L116.374,142.292 L116.374,144.338 L107.486,144.338 L107.486,148.914 L115.846,148.914 L115.846,150.96 L107.486,150.96 L107.486,155.954 L116.748,155.954 L116.748,158 L105.088,158 L105.088,142.292 Z M125.35,141.984 C127.176,141.984 128.606,142.358 129.64,143.15 C130.74,143.964 131.356,145.218 131.51,146.934 L129.134,146.934 C128.914,145.922 128.518,145.174 127.902,144.734 C127.286,144.272 126.406,144.052 125.218,144.052 C124.184,144.052 123.392,144.206 122.842,144.514 C122.16,144.866 121.83,145.438 121.83,146.23 C121.83,146.934 122.204,147.484 122.996,147.902 C123.348,148.1 124.25,148.43 125.724,148.87 C127.836,149.53 129.222,150.036 129.838,150.41 C131.18,151.224 131.862,152.346 131.862,153.798 C131.862,155.206 131.312,156.306 130.212,157.12 C129.112,157.912 127.572,158.308 125.592,158.308 C123.678,158.308 122.182,157.912 121.104,157.164 C119.806,156.24 119.102,154.788 118.97,152.808 L121.346,152.808 C121.522,154.04 121.962,154.942 122.666,155.47 C123.304,155.954 124.272,156.196 125.592,156.196 C126.78,156.196 127.726,155.976 128.43,155.58 C129.134,155.184 129.486,154.634 129.486,153.93 C129.486,153.05 128.98,152.368 127.99,151.862 C127.638,151.686 126.604,151.334 124.866,150.806 C122.93,150.19 121.742,149.772 121.258,149.508 C120.048,148.782 119.454,147.726 119.454,146.362 C119.454,144.976 120.026,143.898 121.192,143.106 C122.292,142.358 123.678,141.984 125.35,141.984 Z M141.542,141.984 C143.544,141.984 145.128,142.424 146.294,143.348 C147.416,144.228 148.12,145.526 148.406,147.286 L145.986,147.286 C145.766,146.23 145.282,145.438 144.534,144.91 C143.786,144.36 142.774,144.096 141.542,144.096 C140.024,144.096 138.814,144.602 137.912,145.658 C136.944,146.758 136.482,148.276 136.482,150.212 C136.482,152.104 136.9,153.556 137.78,154.568 C138.704,155.668 140.156,156.218 142.114,156.218 C142.884,156.218 143.61,156.108 144.292,155.932 C144.952,155.756 145.524,155.492 146.052,155.162 L146.052,151.752 L141.718,151.752 L141.718,149.706 L148.45,149.706 L148.45,156.306 C147.636,156.944 146.69,157.428 145.612,157.78 C144.468,158.132 143.214,158.308 141.85,158.308 C139.342,158.308 137.406,157.516 136.02,155.932 C134.722,154.458 134.084,152.544 134.084,150.212 C134.084,147.858 134.722,145.922 136.02,144.404 C137.384,142.776 139.232,141.984 141.542,141.984 Z M67.8199999,167.828 C69.9319999,168.312 71.9559999,169.038 73.8919999,170.006 L73.1219999,171.898 C71.1419999,170.864 69.0959999,170.072 66.9619999,169.5 L67.8199999,167.828 Z M77.8959999,172.272 L79.5019999,173.614 C77.8739999,175.748 75.9819999,177.376 73.8479999,178.476 C75.4759999,180.962 77.6099999,183.074 80.2499999,184.812 L78.7759999,186.55 C75.6739999,184.152 73.2539999,181.27 71.5379999,177.882 L71.5379999,186.154 C71.5379999,187.562 70.7239999,188.288 69.1179999,188.288 L66.3019999,188.288 L65.7519999,186.264 L68.5019999,186.352 C69.1179999,186.352 69.4479999,186.044 69.4479999,185.472 L69.4479999,174.164 L63.0899999,174.164 L63.0899999,172.14 L71.5379999,172.14 L71.5379999,173.966 C71.9339999,175 72.3739999,175.968 72.8799999,176.892 C74.7939999,175.77 76.4659999,174.23 77.8959999,172.272 Z M60.3839999,176.452 L68.0839999,176.452 L68.0839999,178.058 C66.9619999,181.798 64.6079999,184.658 61.0439999,186.594 L59.7679999,184.922 C62.7599999,183.382 64.8279999,181.204 65.9719999,178.41 L60.3839999,178.41 L60.3839999,176.452 Z M83.2419999,182.568 L84.9139999,182.788 C84.8259999,184.702 84.5839999,186.396 84.2319999,187.848 L82.4939999,187.298 C82.8899999,185.934 83.1539999,184.35 83.2419999,182.568 Z M87.2679999,182.238 C87.5099999,183.602 87.7299999,185.098 87.9279999,186.726 L86.1899999,187.144 C86.0359999,185.428 85.8599999,183.888 85.6839999,182.568 L87.2679999,182.238 Z M89.5119999,176.672 C89.9079999,177.904 90.2599999,179.334 90.5679999,180.94 L88.9179999,181.358 L88.7419999,180.412 C86.8279999,180.984 85.0019999,181.402 83.2639999,181.622 L82.7579999,179.884 C83.1099999,179.752 83.3959999,179.576 83.6159999,179.356 C84.2979999,178.652 85.1339999,177.464 86.1459999,175.792 L82.9999999,176.254 L82.5379999,174.582 C82.8239999,174.45 83.0879999,174.23 83.3079999,173.9 C84.3639999,172.118 85.2879999,170.138 86.0799999,167.982 L87.9059999,168.686 C86.8939999,171.018 85.8599999,172.932 84.8039999,174.406 C85.5739999,174.318 86.3439999,174.208 87.1139999,174.076 C87.5539999,173.262 88.0159999,172.382 88.4999999,171.458 L90.3039999,172.118 C88.3679999,175.594 86.7619999,178.102 85.4859999,179.642 C86.4759999,179.466 87.4439999,179.224 88.4119999,178.96 C88.2579999,178.344 88.1039999,177.75 87.9499999,177.2 L89.5119999,176.672 Z M89.5779999,181.666 C89.9739999,182.81 90.3259999,184.042 90.6119999,185.34 L89.0719999,186.044 C88.7639999,184.592 88.4559999,183.294 88.1039999,182.172 L89.5779999,181.666 Z M90.7659999,169.016 L95.6279999,169.016 L95.6279999,167.938 L97.6299999,167.938 L97.6299999,169.016 L102.492,169.016 L102.492,170.446 L97.6299999,170.446 L97.6299999,171.326 L101.854,171.326 L101.854,172.646 L91.4039999,172.646 L91.4039999,171.326 L95.6279999,171.326 L95.6279999,170.446 L90.7659999,170.446 L90.7659999,169.016 Z M90.9199999,173.482 L102.272,173.482 L102.272,177.332 L90.9199999,177.332 L90.9199999,173.482 Z M100.534,176.078 L100.534,174.736 L98.7959999,174.736 L98.7959999,176.078 L100.534,176.078 Z M97.4319999,176.078 L97.4319999,174.736 L95.7159999,174.736 L95.7159999,176.078 L97.4319999,176.078 Z M94.3519999,176.078 L94.3519999,174.736 L92.6579999,174.736 L92.6579999,176.078 L94.3519999,176.078 Z M91.5579999,178.146 L101.678,178.146 L101.678,185.604 L99.1919999,185.604 C100.556,186 101.81,186.462 102.954,187.012 L102.03,188.42 C100.534,187.628 99.0159999,187.012 97.4539999,186.572 L98.0919999,185.604 L94.9239999,185.604 L95.7379999,186.528 C94.3739999,187.276 92.7019999,187.87 90.7219999,188.354 L89.9739999,186.836 C91.5799999,186.484 92.9219999,186.088 93.9999999,185.604 L91.5579999,185.604 L91.5579999,178.146 Z M99.7639999,184.262 L99.7639999,183.338 L93.4279999,183.338 L93.4279999,184.262 L99.7639999,184.262 Z M93.4279999,182.282 L99.7639999,182.282 L99.7639999,181.402 L93.4279999,181.402 L93.4279999,182.282 Z M93.4279999,180.346 L99.7639999,180.346 L99.7639999,179.378 L93.4279999,179.378 L93.4279999,180.346 Z M107.948,182.524 L106.694,182.524 L106.694,176.562 L114.108,176.562 L114.108,182.524 L112.612,182.524 L112.612,185.56 C113.382,185.208 114.13,184.812 114.834,184.394 L115.252,185.89 C114.02,186.704 112.502,187.43 110.742,188.046 L110.236,186.462 C110.588,186.198 110.786,185.802 110.786,185.252 L110.786,182.524 L109.774,182.524 C109.642,184.02 109.378,185.142 108.982,185.868 C108.454,186.836 107.552,187.65 106.32,188.354 L105.11,186.814 C106.122,186.286 106.848,185.692 107.288,185.01 C107.618,184.46 107.838,183.624 107.948,182.524 Z M107.354,171.48 L106.056,171.48 L106.056,169.698 L109.4,169.698 C109.224,169.17 109.026,168.664 108.806,168.224 L110.852,167.916 C110.984,168.444 111.138,169.038 111.292,169.698 L114.328,169.698 L114.328,171.48 L113.382,171.48 L112.898,173.658 L114.68,173.658 L114.68,175.418 L105.66,175.418 L105.66,173.658 L107.75,173.658 L107.354,171.48 Z M109.642,173.658 L111.006,173.658 L111.49,171.48 L109.246,171.48 L109.642,173.658 Z M112.194,180.83 L112.194,178.256 L108.608,178.256 L108.608,180.83 L112.194,180.83 Z M123.612,187.826 L122.116,187.826 C120.972,187.826 120.422,187.188 120.422,185.912 L120.422,182.524 L119.388,182.524 C119.256,183.998 119.014,185.098 118.618,185.824 C118.112,186.748 117.276,187.562 116.11,188.244 L114.922,186.704 C115.868,186.198 116.55,185.604 116.946,184.944 C117.254,184.394 117.474,183.58 117.584,182.524 L116.264,182.524 L116.264,176.562 L123.832,176.562 L123.832,182.524 L122.226,182.524 L122.226,185.516 C122.226,185.868 122.358,186.044 122.666,186.044 L123.282,186.044 C123.502,186.044 123.678,185.956 123.788,185.78 C123.92,185.56 123.986,184.944 124.03,183.932 L125.614,184.416 C125.482,186.066 125.262,187.056 124.954,187.386 C124.646,187.672 124.206,187.826 123.612,187.826 Z M116.968,171.48 L115.67,171.48 L115.67,169.698 L119.058,169.698 C118.86,169.17 118.662,168.664 118.442,168.224 L120.466,167.916 C120.642,168.444 120.796,169.038 120.95,169.698 L124.382,169.698 L124.382,171.48 L123.172,171.48 L122.666,173.658 L124.976,173.658 L124.976,175.418 L115.23,175.418 L115.23,173.658 L117.386,173.658 L116.968,171.48 Z M119.256,173.658 L120.774,173.658 L121.28,171.48 L118.838,171.48 L119.256,173.658 Z M121.896,180.83 L121.896,178.256 L118.178,178.256 L118.178,180.83 L121.896,180.83 Z M145.634,183.558 L138.924,183.558 L138.924,185.758 C138.924,187.232 138.176,187.98 136.68,187.98 L133.424,187.98 L132.984,186.022 C134.04,186.11 135.03,186.154 135.976,186.154 C136.592,186.154 136.9,185.846 136.9,185.252 L136.9,183.558 L129.64,183.558 L129.64,181.71 L136.9,181.71 L136.9,179.796 L128.056,179.796 L128.056,177.904 L136.9,177.904 L136.9,176.078 L129.86,176.078 L129.86,174.23 L131.466,174.23 C131.048,173.35 130.608,172.558 130.124,171.898 L131.994,171.26 C132.61,172.118 133.138,173.042 133.6,174.01 L133.116,174.23 L137.252,174.23 C136.812,173.262 136.306,172.404 135.778,171.656 L137.67,171.062 C138.264,171.854 138.792,172.734 139.232,173.68 L138.022,174.23 L142.774,174.23 L141.63,173.416 C142.466,172.514 143.192,171.458 143.808,170.226 C139.98,170.798 135.272,171.084 129.684,171.084 L129.09,169.324 C135.558,169.324 141.014,168.906 145.436,168.092 L146.426,169.764 C145.634,169.918 144.82,170.072 143.984,170.204 L145.678,171.04 C145.062,172.25 144.358,173.306 143.566,174.23 L145.634,174.23 L145.634,177.904 L147.944,177.904 L147.944,179.796 L145.634,179.796 L145.634,183.558 Z M138.924,176.078 L138.924,177.904 L143.61,177.904 L143.61,176.078 L138.924,176.078 Z M138.924,179.796 L138.924,181.71 L143.61,181.71 L143.61,179.796 L138.924,179.796 Z M158.988,181.336 C159.23,181.6 159.494,181.864 159.758,182.128 C160.198,181.798 160.616,181.446 161.012,181.05 C160.484,180.83 160.22,180.434 160.22,179.84 L160.22,177.97 L161.98,177.97 L161.98,179.466 C161.98,179.73 162.134,179.862 162.464,179.862 L164.686,179.862 C164.95,179.862 165.148,179.796 165.28,179.686 C165.456,179.576 165.566,179.224 165.632,178.608 L166.798,178.982 L167.744,178.08 C168.756,178.872 169.614,179.642 170.296,180.434 L169.13,181.6 C168.646,180.918 167.986,180.214 167.194,179.488 C167.04,180.28 166.82,180.764 166.512,180.94 C166.16,181.116 165.654,181.226 164.972,181.226 L162.948,181.226 C162.728,181.49 162.508,181.71 162.332,181.93 L168.404,181.93 L168.404,183.316 C167.788,184.196 166.864,184.966 165.654,185.648 C167.26,186.176 169.02,186.484 170.912,186.572 L170.45,188.288 C167.854,188.134 165.544,187.584 163.476,186.66 C161.628,187.342 159.384,187.914 156.7,188.354 L155.974,186.682 C158.108,186.374 159.956,186.022 161.496,185.582 C160.836,185.142 160.198,184.68 159.626,184.196 C158.988,184.592 158.262,184.988 157.448,185.428 L156.502,183.888 C157.162,183.646 157.8,183.36 158.372,183.03 C158.108,182.766 157.866,182.524 157.646,182.26 L158.988,181.336 Z M163.63,184.834 C164.664,184.394 165.5,183.91 166.138,183.382 L161.232,183.382 C161.98,183.932 162.772,184.416 163.63,184.834 Z M168.756,170.798 L168.756,176.056 L170.538,176.056 L170.538,178.784 L168.624,178.784 L168.624,177.486 L163.85,177.486 C164.334,177.904 164.752,178.344 165.082,178.828 L163.806,179.422 C163.41,178.806 162.97,178.278 162.486,177.838 L163.586,177.486 L158.196,177.486 L158.196,178.784 L156.282,178.784 L156.282,176.056 L158.02,176.056 L158.02,170.798 L161.738,170.798 C161.826,170.556 161.914,170.314 161.98,170.094 L156.81,170.094 L156.81,168.466 L170.098,168.466 L170.098,170.094 L164.048,170.094 C163.982,170.336 163.916,170.578 163.828,170.798 L168.756,170.798 Z M159.912,176.056 L166.864,176.056 L166.864,175.418 L159.912,175.418 L159.912,176.056 Z M159.912,174.34 L166.864,174.34 L166.864,173.746 L159.912,173.746 L159.912,174.34 Z M159.912,172.69 L166.864,172.69 L166.864,172.03 L159.912,172.03 L159.912,172.69 Z M158.856,178.212 L159.978,179.202 C159.274,180.17 158.394,181.006 157.338,181.732 L156.326,180.39 C157.316,179.774 158.152,179.048 158.856,178.212 Z M154.61,167.85 L156.414,168.708 C155.974,170.292 155.402,171.788 154.698,173.24 L154.698,188.31 L152.696,188.31 L152.696,176.672 C152.19,177.398 151.662,178.102 151.09,178.784 L150.43,176.606 C152.3,174.098 153.686,171.194 154.61,167.85 Z M174.74,168.862 L177.996,168.862 L177.996,167.894 L179.954,167.894 L179.954,168.862 L182.946,168.862 L182.946,170.358 L179.954,170.358 L179.954,171.37 L183.606,171.37 L183.606,172.998 L181.912,172.998 L181.912,173.306 C181.912,173.658 182.044,173.834 182.33,173.834 L183.54,173.834 L183.54,175 L181.736,175 C180.724,175 180.24,174.67 180.24,174.054 L180.24,172.998 L177.996,172.998 C177.556,174.01 176.83,174.868 175.796,175.572 L177.908,175.572 L177.908,174.252 L179.888,174.252 L179.888,175.572 L182.308,175.572 L182.308,177.024 L179.888,177.024 L179.888,178.058 C180.944,177.97 182,177.904 183.012,177.816 L183.012,179.356 C180.328,179.664 177.424,179.95 174.344,180.17 L173.882,178.344 C175.246,178.3 176.588,178.234 177.908,178.168 L177.908,177.024 L175.598,177.024 L175.598,175.704 C175.224,175.924 174.806,176.144 174.366,176.364 L173.508,174.736 C174.85,174.274 175.752,173.702 176.214,172.998 L173.684,172.998 L173.684,171.37 L177.996,171.37 L177.996,170.358 L174.74,170.358 L174.74,168.862 Z M191.46,180.368 C190.844,180.368 190.338,180.06 189.942,179.444 C189.524,178.806 189.326,177.618 189.326,175.858 L189.326,171.986 L187.896,171.986 C187.852,173.328 187.676,174.538 187.39,175.616 C187.984,175.99 188.556,176.386 189.106,176.826 L188.094,178.366 C187.654,178.014 187.192,177.662 186.752,177.354 C186.246,178.388 185.586,179.268 184.75,179.972 L183.298,178.674 C184.09,178.036 184.684,177.244 185.124,176.298 C184.552,175.968 184.002,175.682 183.452,175.44 L184.42,174.01 C184.86,174.208 185.278,174.406 185.696,174.626 C185.872,173.812 185.982,172.932 186.004,171.986 L184.112,171.986 L184.112,170.116 L186.004,170.116 L186.004,168.004 L187.896,168.004 L187.896,170.116 L191.086,170.116 L191.086,175.858 C191.108,177.508 191.262,178.344 191.526,178.344 C191.746,178.344 191.922,177.442 192.098,175.638 L193.616,176.408 C193.462,177.86 193.198,178.894 192.846,179.532 C192.45,180.082 191.988,180.368 191.46,180.368 Z M182.374,179.752 L184.508,179.972 C184.442,180.39 184.354,180.786 184.266,181.182 L191.79,181.182 C191.79,184.152 191.526,186.044 191.02,186.836 C190.514,187.65 189.612,188.068 188.292,188.068 C187.236,188.068 186.378,188.024 185.674,187.98 L185.146,185.978 C186.246,186.088 187.258,186.154 188.182,186.154 C188.974,186.132 189.414,185.802 189.502,185.186 C189.612,184.57 189.678,183.888 189.678,183.14 L183.54,183.14 C183.1,183.976 182.528,184.746 181.846,185.406 C180.548,186.616 178.26,187.584 174.96,188.288 L174.058,186.198 C176.874,185.67 178.876,184.922 180.108,183.954 C180.416,183.69 180.68,183.426 180.944,183.14 L174.542,183.14 L174.542,181.182 L182.022,181.182 C182.176,180.742 182.286,180.258 182.374,179.752 Z" id="ESG-永續競爭優勢" fill="#FFFFFF"></path>
        <g id="Group-28" transform="translate(85.000000, 36.000000)" stroke="#FFFFFF" stroke-width="3">
            <path d="M1.91488076,55.8017453 C2.21588555,55.5268364 2.82511939,55.0202743 3.55790879,54.4706286 C4.85539137,53.4974218 6.31573471,52.5499036 7.91223607,51.6970131 C12.5067863,49.2424908 17.3140835,48.0296049 22.1234271,48.6642342 L22.4082823,48.7036641 C25.2869165,49.1306026 27.3034526,49.8568411 30.567826,51.4057414 C30.7696914,51.5016211 30.7696914,51.5016211 30.971411,51.5976135 C33.4624313,52.7866237 34.5519776,53.2322411 36.0498572,53.5803646 C37.8727779,54.0020985 39.8479834,54.3973612 42.6635974,54.9194764 C43.2001472,55.0189718 43.6287243,55.0977546 44.5940337,55.2746839 C48.6269229,56.0124354 51.3662568,56.5445481 53.5280924,57.0541471 L55.394024,56.0825254 C57.3519489,55.0630012 59.3862087,53.9368617 61.3711097,52.7480688 C61.525415,52.6557238 61.6874675,52.5453751 62.0524699,52.2863536 C62.8189872,51.7465936 63.2420044,51.4591788 63.8204226,51.1016412 C64.9169782,50.4238273 65.9523561,49.9093857 66.9667085,49.5879556 C67.9375592,49.2803104 68.8601565,49.1611728 69.7357662,49.2770624 C70.1505821,49.3321265 70.5479022,49.440052 70.9199328,49.6002538 C72.8909874,49.0928084 75.0959117,48.9349555 76.9559619,49.1793362 C79.1578454,49.4716216 80.7816604,50.3109833 81.3231367,51.7795576 C81.837897,53.1734216 81.2398616,54.6681673 79.8800542,56.1797178 C71.6269649,65.358657 49.7682715,78.3765001 41.7491116,80.2825317 C40.3551212,80.6131183 38.8094504,80.6778991 37.2681632,80.4743326 C35.75253,80.2731868 34.2842444,79.8114894 33.0072828,79.1303755 C30.2561046,77.6640162 17.0538197,73.6037324 12.7049446,73.0292695 C12.6256629,73.0190761 12.5414456,73.009323 12.3793344,72.9907172 C10.5472502,72.7989008 7.75461294,73.51839 5.81548762,74.5540664 L-1.5,78.7230706 L-1.5,57.7657255 L1.88377941,55.817226 L1.91488076,55.8017453 Z" id="Fill-1"></path>
            <path d="M40.9004895,43.9951921 C38.789598,30.3011356 40.3899071,21.0390663 45.7014168,16.2089844 C54.2346199,8.44921875 62.8029793,7.49414063 69.2033699,0 C75.1997457,3.75642373 79.8498543,23.0722656 69.2033699,36.2675781 C62.5106719,44.5625456 53.8903356,48.2109207 43.3423609,47.2127033 C51.4578131,40.541843 59.5324407,33.1018819 63.1230469,19 C60.8612445,28.60323 49.3681282,35.1196957 40.9004895,43.9951921 Z" id="Combined-Shape" stroke-linejoin="round"></path>
            <path d="M15.4700194,34.9637252 C14.3682187,27.815977 15.2035159,22.9815485 17.9759108,20.4604395 C22.4299005,16.4101532 26.9022403,15.9116407 30.2429874,12 C33.372855,13.9607025 35.8000251,24.042797 30.2429874,30.9302207 C26.7496676,35.2598609 22.2501979,37.1641663 16.7445783,36.6431369 C20.9805188,33.1612154 25.1951504,29.2778542 27.0693027,21.9172377 C25.8887327,26.9297385 19.889787,30.3310721 15.4700194,34.9637252 Z" id="Combined-Shape-Copy-4" stroke-linejoin="round" transform="translate(24.280934, 24.363543) scale(-1, 1) translate(-24.280934, -24.363543) "></path>
        </g>
    </g>
</svg>