<?xml version="1.0" encoding="UTF-8"?>
<svg width="812px" height="48px" viewBox="0 0 812 48" version="1.1" xmlns="http://www.w3.org/2000/svg" xmlns:xlink="http://www.w3.org/1999/xlink">
    <!-- Generator: Sketch 49 (51002) - http://www.bohemiancoding.com/sketch -->
    <title>t1_2_chart</title>
    <desc>Created with Sketch.</desc>
    <defs></defs>
    <g id="t1_2_chart" stroke="none" stroke-width="1" fill="none" fill-rule="evenodd">
        <g id="Group-4">
            <polygon id="Rectangle-13-Copy-4" fill="#689BC8" points="0 0 180 0 200 24 180 48 0 48"></polygon>
            <polygon id="Combined-Shape" fill="#60828B" points="184 48 204 24 184 0 384 0 404 24 384 48"></polygon>
            <polygon id="Combined-Shape-Copy" fill="#B7956F" points="388 48 408 24 388 0 588 0 608 24 588 48"></polygon>
            <polygon id="Combined-Shape-Copy-2" fill="#9CA4AF" points="592 48 612 24 592 0 792 0 812 24 792 48"></polygon>
            <path d="M56.04,14.424 L62.976,14.424 L62.976,21.864 L60.744,21.864 L60.744,25.704 L63.216,25.704 L63.216,27.288 L60.744,27.288 L60.744,31.776 C61.752,31.44 62.736,31.104 63.672,30.768 L63.672,32.424 C61.32,33.288 58.584,34.128 55.464,34.896 L54.984,33.288 C55.32,33.192 55.632,33.12 55.968,33.072 L55.968,24.336 L57.504,24.336 L57.504,32.688 C58.08,32.544 58.608,32.4 59.136,32.256 L59.136,21.864 L56.04,21.864 L56.04,14.424 Z M61.344,20.304 L61.344,16.008 L57.672,16.008 L57.672,20.304 L61.344,20.304 Z M64.104,16.032 L68.496,16.032 C68.832,15.168 69.12,14.304 69.312,13.392 L70.848,13.56 C70.656,14.424 70.416,15.264 70.152,16.032 L76.104,16.032 L76.104,17.592 L72.336,17.592 C73.344,19.56 74.904,21.096 77.04,22.248 L76.296,23.76 C74.976,22.992 73.848,22.08 72.936,21.072 L72.936,22.272 L67.176,22.272 L67.176,21.096 C66.168,22.2 64.992,23.112 63.672,23.856 L62.88,22.416 C64.992,21.192 66.624,19.584 67.752,17.592 L64.104,17.592 L64.104,16.032 Z M72.672,20.784 C71.808,19.824 71.136,18.744 70.656,17.592 L69.504,17.592 C68.928,18.792 68.232,19.848 67.44,20.784 L72.672,20.784 Z M64.128,24.6 L75.96,24.6 L75.96,26.112 L68.352,26.112 L67.632,28.512 L74.88,28.512 C74.736,31.752 74.4,33.696 73.872,34.32 C73.344,34.896 72.336,35.208 70.848,35.208 C70.248,35.208 69.72,35.16 69.264,35.064 L68.712,33.6 C69.384,33.696 69.984,33.744 70.512,33.744 C71.592,33.744 72.264,33.528 72.528,33.144 C72.768,32.712 72.96,31.68 73.08,30.024 L65.616,30.024 L66.624,26.112 L64.128,26.112 L64.128,24.6 Z M94.2,13.488 L95.88,13.488 L95.88,15.984 L101.592,15.984 L101.592,17.544 L95.88,17.544 L95.88,20.328 L100.68,20.328 L100.68,21.912 L89.352,21.912 L89.352,20.328 L94.2,20.328 L94.2,17.544 L88.416,17.544 L88.416,15.984 L94.2,15.984 L94.2,13.488 Z M88.896,24.912 L96.936,24.912 L96.936,23.04 L98.616,23.04 L98.616,24.912 L101.592,24.912 L101.592,26.52 L98.616,26.52 L98.616,32.952 C98.616,34.464 97.896,35.232 96.456,35.232 L93.528,35.232 L93.168,33.6 C94.128,33.672 95.016,33.72 95.88,33.72 C96.576,33.72 96.936,33.312 96.936,32.52 L96.936,26.52 L88.896,26.52 L88.896,24.912 Z M90.648,27.504 C91.992,28.92 93.024,30.168 93.744,31.224 L92.4,32.184 C91.632,31.032 90.6,29.736 89.304,28.32 L90.648,27.504 Z M87.408,15.192 L87.408,32.88 L85.776,32.88 L85.776,31.272 L82.368,31.272 L82.368,33.456 L80.688,33.456 L80.688,15.192 L87.408,15.192 Z M82.368,29.664 L85.776,29.664 L85.776,23.88 L82.368,23.88 L82.368,29.664 Z M82.368,22.32 L85.776,22.32 L85.776,16.776 L82.368,16.776 L82.368,22.32 Z M111.264,17.544 L122.136,17.544 L122.136,23.184 L111.264,23.184 L111.264,17.544 Z M120.528,21.648 L120.528,19.08 L112.896,19.08 L112.896,21.648 L120.528,21.648 Z M109.464,24.912 L115.992,24.912 L115.992,31.44 L109.464,31.44 L109.464,24.912 Z M114.456,29.976 L114.456,26.4 L111,26.4 L111,29.976 L114.456,29.976 Z M118.008,24.912 L124.512,24.912 L124.512,31.44 L118.008,31.44 L118.008,24.912 Z M122.976,29.976 L122.976,26.4 L119.52,26.4 L119.52,29.976 L122.976,29.976 Z M104.832,14.352 L125.4,14.352 L125.4,16.032 L107.736,16.032 L107.736,31.872 C107.736,32.568 108.072,32.928 108.792,32.928 L125.904,32.928 L125.904,34.608 L108.312,34.608 C106.776,34.608 106.008,33.816 106.008,32.256 L106.008,16.032 L104.832,16.032 L104.832,14.352 Z" id="跨時區" fill="#FFFFFF"></path>
            <path d="M269.324,13.32 L270.86,14.136 C270.428,14.616 269.972,15.072 269.492,15.504 L276.38,15.504 L276.38,16.872 C273.788,21.48 268.964,24.072 261.956,24.624 L261.212,23.064 C263.372,22.92 265.292,22.608 267.02,22.104 C266.276,21.192 265.484,20.352 264.668,19.608 L266.18,18.888 C267.044,19.704 267.86,20.568 268.628,21.528 C271.124,20.52 273.068,19.008 274.412,17.04 L267.404,17.04 C265.532,18.144 263.324,18.984 260.756,19.56 L259.748,17.976 C264.02,17.16 267.212,15.624 269.324,13.32 Z M268.412,28.32 C269.324,29.256 270.212,30.264 271.028,31.344 C273.692,30.192 275.78,28.536 277.316,26.424 L270.212,26.424 C268.1,27.432 265.604,28.2 262.7,28.704 L261.668,27.168 C266.9,26.64 270.764,25.032 273.26,22.392 L274.748,23.208 C274.172,23.784 273.572,24.336 272.9,24.84 L279.476,24.84 L279.476,26.208 C276.068,31.872 269.732,34.8 260.42,35.016 L259.724,33.36 C263.468,33.336 266.708,32.88 269.42,31.968 C268.604,30.888 267.764,29.904 266.876,29.04 L268.412,28.32 Z M296.564,18.576 L292.82,18.576 L292.82,26.328 C292.82,29.88 292.076,32.928 290.612,35.424 L289.364,34.32 C290.588,32.256 291.236,29.592 291.284,26.376 L291.284,17.16 L296.54,17.16 L296.54,13.416 L298.172,13.416 L298.172,14.472 L303.524,14.472 L303.524,15.816 L298.172,15.816 L298.172,17.16 L304.652,17.16 L304.652,17.88 C304.484,18.912 304.244,19.944 303.908,20.952 L302.468,20.544 C302.708,19.944 302.9,19.296 303.068,18.576 L298.148,18.576 L298.148,20.016 L301.436,19.68 L301.604,20.736 L298.148,21.072 L298.148,21.672 C298.148,22.056 298.34,22.272 298.724,22.272 L303.404,22.272 L303.404,23.496 L298.1,23.496 C297.068,23.496 296.564,23.112 296.564,22.368 L296.564,21.432 L293.804,21.744 L293.636,20.544 L296.564,20.208 L296.564,18.576 Z M303.524,26.664 L304.508,27.648 C303.548,28.608 302.444,29.328 301.22,29.856 C302.276,31.08 303.62,32.136 305.276,33 L304.508,34.344 C303.092,33.504 301.916,32.52 300.98,31.368 C300.98,31.416 301.004,31.488 301.004,31.56 C301.004,32.952 300.86,33.936 300.572,34.488 C300.236,35.064 299.492,35.376 298.34,35.376 L297.02,35.376 L296.54,34.056 L298.124,34.056 C298.7,34.032 299.06,33.888 299.204,33.624 C299.372,33.264 299.468,32.568 299.468,31.56 C299.468,31.44 299.444,31.344 299.444,31.296 C297.74,32.688 295.796,33.768 293.636,34.536 L292.844,33.36 C295.34,32.568 297.476,31.44 299.252,29.976 C299.156,29.592 299.036,29.232 298.892,28.92 C297.428,30.12 295.748,31.032 293.876,31.68 L293.156,30.6 C295.172,29.976 296.924,29.088 298.364,27.984 C298.172,27.696 297.98,27.456 297.764,27.216 C296.804,27.888 295.604,28.488 294.188,29.016 L293.492,27.888 C295.532,27.264 296.996,26.568 297.86,25.8 L294.092,25.8 L294.092,24.504 L304.028,24.504 L304.028,25.8 L299.3,25.8 C299.132,25.992 298.964,26.184 298.772,26.376 C299.516,27.096 300.068,27.888 300.428,28.8 C301.508,28.32 302.54,27.6 303.524,26.664 Z M283.46,18 L286.364,18 L286.364,13.488 L288.044,13.488 L288.044,18 L290.18,18 L290.18,19.56 L288.044,19.56 L288.044,24.24 C288.764,23.952 289.484,23.616 290.18,23.256 L290.18,24.912 C289.46,25.248 288.764,25.584 288.044,25.872 L288.044,33.264 C288.044,34.512 287.372,35.16 286.052,35.16 L283.868,35.16 L283.532,33.6 C284.204,33.672 284.876,33.72 285.5,33.72 C286.076,33.72 286.364,33.432 286.364,32.856 L286.364,26.544 C285.452,26.88 284.492,27.168 283.532,27.456 L283.124,25.824 C284.228,25.584 285.308,25.272 286.364,24.888 L286.364,19.56 L283.46,19.56 L283.46,18 Z M308.732,24.552 L312.644,24.552 L312.644,22.8 L308.492,22.8 L308.492,14.28 L318.308,14.28 L318.308,22.8 L314.18,22.8 L314.18,24.552 L318.02,24.552 L318.02,25.944 L314.18,25.944 L314.18,27.84 L318.596,27.84 L318.596,29.376 L308.18,29.376 L308.18,27.84 L312.644,27.84 L312.644,25.944 L308.732,25.944 L308.732,24.552 Z M308.804,30.48 L310.148,30.648 C310.028,32.424 309.74,33.984 309.284,35.376 L307.868,34.944 C308.372,33.648 308.684,32.16 308.804,30.48 Z M312.572,30.624 C312.716,31.68 312.836,33.144 312.884,35.016 L311.468,35.184 C311.42,33.288 311.372,31.824 311.276,30.792 L312.572,30.624 Z M317.588,30.216 C318.044,31.608 318.404,32.904 318.644,34.056 L317.372,34.536 C317.084,33.192 316.724,31.872 316.316,30.576 L317.588,30.216 Z M315.068,30.528 C315.38,31.776 315.668,33.12 315.908,34.608 L314.492,34.896 C314.3,33.36 314.084,31.992 313.796,30.792 L315.068,30.528 Z M316.916,21.456 L316.916,15.624 L314.012,15.624 L314.012,21.456 L316.916,21.456 Z M312.74,21.456 L312.74,15.624 L309.908,15.624 L309.908,21.456 L312.74,21.456 Z M315.284,16.464 L316.292,16.728 C316.148,18.072 315.86,19.368 315.476,20.592 L314.516,20.256 C314.876,19.056 315.14,17.808 315.284,16.464 Z M311.324,16.68 C311.66,17.736 311.972,18.936 312.26,20.304 L311.3,20.568 C311.036,19.32 310.724,18.12 310.364,16.968 L311.324,16.68 Z M323.036,13.512 L324.716,13.512 L324.716,17.952 L329.828,17.952 L329.828,19.512 L324.716,19.512 L324.716,23.856 L328.82,23.856 L328.82,35.4 L327.188,35.4 L327.188,34.128 L321.284,34.128 L321.284,35.4 L319.652,35.4 L319.652,23.856 L323.036,23.856 L323.036,13.512 Z M321.284,32.544 L327.188,32.544 L327.188,25.416 L321.284,25.416 L321.284,32.544 Z" id="多據點" fill="#FFFFFF"></path>
            <path d="M454.46,21.48 C453.38,22.056 452.228,22.608 450.98,23.112 L449.996,21.504 C454.316,19.992 457.484,18.072 459.5,15.72 L454.916,15.72 L454.916,14.16 L461.996,14.16 C463.916,17.064 467.228,19.392 471.98,21.144 L470.828,22.704 C469.628,22.224 468.548,21.696 467.54,21.168 L467.54,22.752 L461.948,22.752 L461.948,26.976 L468.884,26.976 L468.884,28.632 L461.948,28.632 L461.948,32.976 L471.068,32.976 L471.068,34.68 L451.196,34.68 L451.196,32.976 L460.196,32.976 L460.196,28.632 L453.212,28.632 L453.212,26.976 L460.196,26.976 L460.196,22.752 L454.46,22.752 L454.46,21.48 Z M467.42,21.096 C464.78,19.608 462.692,17.88 461.156,15.888 C459.74,17.856 457.724,19.584 455.132,21.096 L467.42,21.096 Z M475.004,15.024 L482.612,15.024 L482.612,16.632 L479.78,16.632 L479.78,22.248 L482.108,22.248 L482.108,23.88 L479.78,23.88 L479.78,28.776 C480.74,28.368 481.7,27.912 482.66,27.432 L482.66,29.112 C480.308,30.312 477.788,31.32 475.076,32.136 L474.644,30.408 C475.796,30.144 476.9,29.832 478.004,29.448 L478.004,23.88 L475.244,23.88 L475.244,22.248 L478.004,22.248 L478.004,16.632 L475.004,16.632 L475.004,15.024 Z M482.972,17.544 L488.42,17.544 L488.42,13.44 L490.1,13.44 L490.1,17.544 L494.18,17.544 C493.412,16.632 492.452,15.696 491.252,14.712 L492.236,13.752 C493.46,14.688 494.492,15.624 495.308,16.56 L494.348,17.544 L495.788,17.544 L495.788,19.224 L490.1,19.224 L490.1,21.528 C490.46,22.68 490.892,23.784 491.396,24.84 C492.452,23.64 493.436,22.32 494.348,20.88 L495.644,21.84 C494.492,23.616 493.34,25.104 492.14,26.304 C493.364,28.512 494.9,30.456 496.748,32.112 L495.62,33.456 C493.268,31.2 491.42,28.488 490.1,25.296 L490.1,33.216 C490.1,34.512 489.428,35.184 488.108,35.184 L485.42,35.184 L485.084,33.552 C485.924,33.624 486.74,33.672 487.532,33.672 C488.108,33.672 488.42,33.36 488.42,32.784 L488.42,19.224 L482.972,19.224 L482.972,17.544 Z M484.364,21.144 C485.468,22.68 486.308,24.048 486.908,25.2 L485.708,26.04 C485.036,24.816 484.148,23.472 483.02,21.984 L484.364,21.144 Z M487.004,26.76 L487.388,28.224 C486.044,30 484.364,31.608 482.348,33 L481.652,31.392 C483.716,30.144 485.516,28.584 487.004,26.76 Z M511.556,28.8 L508.244,28.8 L508.244,24.12 C507.812,24.504 507.38,24.864 506.9,25.2 L506.036,24.072 C507.572,23.04 508.628,21.816 509.228,20.424 L501.668,20.424 L501.668,16.536 L507.068,16.536 L507.068,15.312 L500.324,15.312 L500.324,13.992 L520.724,13.992 L520.724,15.312 L513.956,15.312 L513.956,16.536 L519.356,16.536 L519.356,20.424 L510.764,20.424 C510.62,20.832 510.452,21.216 510.26,21.576 L520.268,21.576 L520.268,22.728 L509.54,22.728 C509.228,23.112 508.916,23.472 508.58,23.808 L519.14,23.808 L519.14,28.8 L513.092,28.8 C512.852,29.184 512.54,29.52 512.204,29.856 L519.212,29.856 L519.212,30.84 C518.3,31.896 517.124,32.76 515.684,33.432 C517.364,33.792 519.284,33.984 521.42,34.008 L520.868,35.28 C517.988,35.232 515.564,34.896 513.596,34.224 C511.604,34.848 509.252,35.232 506.54,35.376 L505.94,34.056 C508.076,33.96 509.972,33.744 511.604,33.408 C510.692,32.952 509.924,32.424 509.276,31.824 C508.58,32.16 507.836,32.472 507.044,32.784 L506.348,31.656 C507.092,31.392 507.764,31.128 508.388,30.888 C508.1,30.552 507.836,30.192 507.62,29.856 L508.748,29.52 C508.964,29.808 509.204,30.096 509.468,30.36 C510.404,29.832 511.1,29.328 511.556,28.8 Z M513.62,32.856 C515.084,32.376 516.284,31.728 517.22,30.96 L510.788,30.96 C510.644,31.056 510.5,31.128 510.404,31.2 C511.316,31.872 512.372,32.424 513.62,32.856 Z M512.372,16.536 L512.372,15.312 L508.652,15.312 L508.652,16.536 L512.372,16.536 Z M517.772,19.32 L517.772,17.664 L513.956,17.664 L513.956,19.32 L517.772,19.32 Z M512.372,19.32 L512.372,17.664 L508.652,17.664 L508.652,19.32 L512.372,19.32 Z M507.068,19.32 L507.068,17.664 L503.276,17.664 L503.276,19.32 L507.068,19.32 Z M517.604,27.792 L517.604,26.712 L509.756,26.712 L509.756,27.792 L517.604,27.792 Z M509.756,25.848 L517.604,25.848 L517.604,24.792 L509.756,24.792 L509.756,25.848 Z M504.764,20.712 L506.084,21.336 C504.956,23.064 503.132,24.6 500.612,25.944 L500.156,24.48 C502.268,23.376 503.804,22.128 504.764,20.712 Z M504.98,24.888 L506.348,25.512 C505.82,26.376 505.172,27.216 504.404,27.984 L504.404,35.472 L502.82,35.472 L502.82,29.376 C502.1,29.928 501.284,30.456 500.42,30.96 L499.964,29.448 C502.268,28.128 503.924,26.616 504.98,24.888 Z M526.676,19.08 L534.404,19.08 L534.404,17.688 L536.036,17.688 L536.036,19.08 L543.716,19.08 L543.716,20.52 L536.036,20.52 L536.036,22.32 L545.084,22.32 L545.084,23.808 L539.78,23.808 C541.748,25.344 543.308,26.688 544.412,27.84 L543.116,28.752 C542.588,28.176 541.988,27.576 541.316,26.976 C536.228,27.336 531.428,27.6 526.868,27.792 L526.556,26.472 C527.948,26.472 529.556,25.584 531.332,23.808 L525.308,23.808 L525.308,22.32 L534.404,22.32 L534.404,20.52 L526.676,20.52 L526.676,19.08 Z M533.3,23.808 C532.34,24.864 531.404,25.704 530.516,26.328 C534.788,26.088 537.932,25.896 539.9,25.752 C539.276,25.224 538.628,24.72 537.956,24.216 L538.604,23.808 L533.3,23.808 Z M543.188,28.896 L543.188,33.24 L545.828,33.24 L545.828,34.752 L524.588,34.752 L524.588,33.24 L527.204,33.24 L527.204,28.896 L543.188,28.896 Z M528.836,33.24 L532.004,33.24 L532.004,30.408 L528.836,30.408 L528.836,33.24 Z M533.564,33.24 L536.756,33.24 L536.756,30.408 L533.564,30.408 L533.564,33.24 Z M538.316,33.24 L541.556,33.24 L541.556,30.408 L538.316,30.408 L538.316,33.24 Z M524.876,15.048 L530.084,15.048 L530.084,13.392 L531.74,13.392 L531.74,15.048 L534.668,15.048 L534.668,16.56 L531.74,16.56 L531.74,18.024 L530.084,18.024 L530.084,16.56 L524.876,16.56 L524.876,15.048 Z M538.724,13.392 L540.38,13.392 L540.38,15.048 L545.588,15.048 L545.588,16.56 L540.38,16.56 L540.38,18.024 L538.724,18.024 L538.724,16.56 L535.772,16.56 L535.772,15.048 L538.724,15.048 L538.724,13.392 Z" id="全球覆蓋" fill="#FFFFFF"></path>
            <path d="M656.036,13.752 C657.812,14.976 659.324,16.2 660.524,17.4 L659.372,18.576 C658.268,17.424 656.78,16.176 654.884,14.88 L656.036,13.752 Z M655.484,19.392 C657.164,20.616 658.58,21.84 659.732,23.064 L658.58,24.24 C657.548,23.064 656.132,21.816 654.308,20.52 L655.484,19.392 Z M658.916,26.064 L660.332,26.64 C659.132,29.664 657.836,32.496 656.396,35.136 L654.788,34.416 C656.372,31.704 657.74,28.92 658.916,26.064 Z M665.78,26.496 L661.22,26.496 L661.22,24.936 L667.46,24.936 L667.46,22.248 L669.14,22.248 L669.14,24.936 L675.428,24.936 L675.428,26.496 L670.82,26.496 C671.9,28.704 673.7,30.672 676.244,32.424 L675.14,33.792 C672.5,31.608 670.652,29.184 669.596,26.496 L669.14,26.496 L669.14,35.304 L667.46,35.304 L667.46,26.496 L667.052,26.496 C665.756,29.544 663.644,32.04 660.692,34.008 L659.804,32.544 C662.54,30.96 664.532,28.944 665.78,26.496 Z M674.948,14.376 L674.948,18.864 L673.316,18.864 L673.316,15.96 L663.284,15.96 L663.284,18.96 L661.652,18.96 L661.652,14.376 L674.948,14.376 Z M665.78,16.992 L667.316,16.992 C667.196,18.816 666.788,20.136 666.092,20.976 C665.324,21.864 664.052,22.632 662.276,23.28 L661.268,21.984 C662.852,21.504 663.98,20.904 664.652,20.232 C665.3,19.56 665.684,18.48 665.78,16.992 Z M669.476,17.016 L671.06,17.016 L671.06,20.136 C671.06,20.544 671.3,20.76 671.78,20.76 L675.332,20.76 L675.332,22.224 L671.012,22.224 C669.98,22.224 669.476,21.744 669.476,20.832 L669.476,17.016 Z M689.228,16.056 L685.652,16.056 L685.652,14.376 L690.548,14.376 C691.22,21.696 694.58,28.128 700.628,33.648 L699.644,35.136 C694.556,30.576 691.292,25.296 689.876,19.296 C688.172,26.112 684.812,31.368 679.82,35.064 L678.788,33.6 C684.212,29.592 687.692,23.736 689.228,16.056 Z M721.028,16.224 L717.284,16.224 L717.284,22.872 L721.028,22.872 L721.028,16.224 Z M721.028,24.528 L717.26,24.528 C717.068,29.472 715.652,33.096 712.964,35.424 L711.692,34.272 C714.14,32.208 715.436,28.968 715.58,24.528 L712.964,24.528 L712.964,22.872 L715.604,22.872 L715.604,16.224 L713.492,16.224 L713.492,14.592 L724.892,14.592 L724.892,16.224 L722.684,16.224 L722.684,22.872 L725.54,22.872 L725.54,24.528 L722.684,24.528 L722.684,35.352 L721.028,35.352 L721.028,24.528 Z M707.012,16.368 L704.132,16.368 L704.132,14.688 L712.436,14.688 L712.436,16.368 L708.644,16.368 C708.308,18.288 707.804,20.112 707.156,21.792 L711.596,21.792 L711.596,32.664 L707.468,32.664 L707.468,34.56 L705.884,34.56 L705.884,24.528 C705.38,25.44 704.828,26.304 704.228,27.12 L703.316,25.632 C705.188,22.944 706.412,19.848 707.012,16.368 Z M707.468,31.152 L709.988,31.152 L709.988,23.328 L707.468,23.328 L707.468,31.152 Z M740.876,17.256 L731.324,17.256 L731.324,20.4 L729.572,20.4 L729.572,15.672 L738.308,15.672 C737.972,14.904 737.588,14.208 737.18,13.584 L739.076,13.296 C739.436,13.992 739.796,14.784 740.132,15.672 L748.868,15.672 L748.868,20.4 L747.116,20.4 L747.116,17.256 L742.532,17.256 L742.532,20.856 C742.532,21.384 742.796,21.672 743.372,21.672 L748.436,21.672 L748.436,23.136 L742.628,23.136 C741.452,23.136 740.876,22.608 740.876,21.576 L740.876,17.256 Z M736.748,17.424 L738.044,18.192 C736.796,20.928 734.348,22.704 730.676,23.52 L729.86,22.128 C733.316,21.408 735.596,19.848 736.748,17.424 Z M736.652,22.224 L738.404,22.224 L738.404,24.384 L738.356,25.344 L744.62,25.344 L744.62,32.832 C744.62,33.312 744.836,33.552 745.292,33.552 L747.116,33.552 C747.74,33.552 748.1,33.216 748.22,32.568 C748.316,31.608 748.388,30.576 748.388,29.52 L749.996,30 C749.852,31.968 749.708,33.168 749.564,33.624 C749.3,34.656 748.484,35.184 747.116,35.184 L745.028,35.184 C743.612,35.184 742.916,34.488 742.916,33.12 L742.916,26.976 L738.14,26.976 C737.804,28.752 737.156,30.216 736.196,31.416 C734.852,33.048 732.644,34.344 729.572,35.256 L728.636,33.768 C731.612,32.88 733.7,31.728 734.9,30.288 C735.572,29.328 736.052,28.224 736.34,26.976 L730.268,26.976 L730.268,25.344 L736.604,25.344 L736.652,24.384 L736.652,22.224 Z" id="深入研究" fill="#FFFFFF"></path>
        </g>
    </g>
</svg>