<?xml version="1.0" encoding="UTF-8"?>
<svg width="628px" height="800px" viewBox="0 0 628 800" version="1.1" xmlns="http://www.w3.org/2000/svg" xmlns:xlink="http://www.w3.org/1999/xlink">
    <!-- Generator: Sketch 49 (51002) - http://www.bohemiancoding.com/sketch -->
    <title>wm_left</title>
    <desc>Created with Sketch.</desc>
    <defs></defs>
    <g id="wm_left" stroke="none" stroke-width="1" fill="none" fill-rule="evenodd" opacity="0.1">
        <path d="M183.199414,108.596331 C182.92778,107.802876 182.716907,106.987977 182.570368,106.190948 L192.570758,112.731588 C191.634338,113.528617 190.680048,114.343517 189.765073,115.237047 C189.5542,115.465791 189.339753,115.69096 189.107435,115.944723 C187.377561,115.258492 185.865708,113.882455 184.80062,112.11684 C184.146556,111.037455 183.599715,109.829403 183.199414,108.596331 Z M334.087348,31.6237126 C336.185356,30.8266837 338.351273,30.2512503 340.535061,30.036803 C342.200601,29.8795417 343.862567,29.9224312 345.424458,30.2905656 C345.646054,30.4656975 345.878371,30.6408294 346.082096,30.8302578 C347.450984,32.0704777 348.423145,33.44294 349.002153,35.1084802 C350.138723,38.4610053 349.695532,42.514058 348.616148,46.2847552 C347.529615,50.0768972 345.724684,53.7510931 343.612379,57.1715265 C341.478629,60.5812376 338.958874,63.8193908 336.085281,66.5285742 C334.619892,67.8831659 333.079446,69.1198116 331.467517,70.0991207 C329.991405,71.0140956 328.40807,71.6681596 326.581694,71.7539385 C325.820407,68.7481031 324.894709,65.8244725 324.108403,62.8007664 C323.322096,59.7770604 322.59655,56.7283356 322.031839,53.6760366 C321.488573,50.6451823 321.059678,47.5678645 321.141883,44.6549562 C321.191921,43.225308 321.381349,41.774215 321.892448,40.8127766 C322.328491,40.055063 322.94324,39.2330153 323.615174,38.4645794 C324.837524,39.4474625 326.016983,40.4732352 327.135683,41.5204525 C328.690425,42.9322301 330.166537,44.4262125 331.585463,45.9845291 C332.965074,47.5392715 334.266054,49.183367 335.352586,50.9740014 C336.431971,52.7610617 337.343371,54.6982351 337.536374,56.8212627 C337.625727,54.6910868 336.910903,52.5859298 336.020947,50.6308859 C335.127417,48.6722678 333.983698,46.8244474 332.757775,45.0588319 C331.510407,43.2753457 330.170111,41.595509 328.790501,39.9549877 C327.782599,38.7862502 326.74253,37.653254 325.663145,36.527406 C327.335834,35.1084802 329.244414,33.9004274 331.278089,32.8853772 C332.579069,33.9040015 333.897919,34.9798118 335.120268,36.1271045 C336.614251,37.4816962 338.047473,38.897048 339.38062,40.3767339 C340.703045,41.8778645 341.979006,43.4612 343.083409,45.1481849 C344.159219,46.8172992 345.106361,48.6329524 345.696091,50.5808482 C345.363698,48.5650442 344.634577,46.5992778 343.70888,44.765754 C342.822498,42.928656 341.73954,41.1380216 340.556506,39.4510367 C339.373472,37.7676259 338.093937,36.1449751 336.753642,34.540195 C335.899427,33.5465895 335.002322,32.5922993 334.087348,31.6237126 Z M317.061309,19.2572554 C313.136925,14.9325695 308.533458,11.2941147 303.590449,8.2739828 C305.624123,7.71999411 307.714984,7.2660808 309.795122,6.99802175 C311.296253,6.80859336 312.815254,6.71209211 314.244902,6.84433457 C315.695995,6.95870643 317.093476,7.33041497 318.001303,8.02022024 C318.126397,8.09885089 318.205028,8.17390742 318.330122,8.29542752 L318.766165,8.69930315 L319.595361,9.47488732 C320.156498,9.99670892 320.678319,10.56142 321.196567,11.126131 C322.197321,12.2126637 323.119444,13.3849752 323.862861,14.5858798 C325.031598,16.4944601 325.646347,18.4995418 325.453344,20.3759551 C322.754883,20.1472114 320.034978,19.9792277 317.32222,19.9256159 C316.996975,19.9005971 316.661008,19.92919 316.339337,19.9041712 L317.061309,19.2572554 Z M187.642403,98.3067952 L187.456549,98.1745527 C186.924005,97.7885477 186.423628,97.3632273 186.030475,96.9164623 C185.23702,96.019358 184.940368,95.0078819 185.308502,93.9892575 C185.669488,92.9348919 186.580889,91.959157 187.599514,91.1621281 C188.61099,90.3257839 189.794024,89.6395527 191.019947,89.0355264 C193.489664,87.8060289 196.127365,86.9303693 198.832975,86.2405641 C203.968986,84.9788995 209.294425,84.4356332 214.59842,84.6143392 C215.113094,86.1047475 215.524118,87.6166005 215.677805,89.1177311 C215.874381,90.8547537 215.752861,92.5667575 215.202447,94.0321469 C214.92724,94.7862864 214.544809,95.4367763 214.065876,96.0372286 C213.833559,96.3267324 213.561925,96.6162361 213.272422,96.8521281 L212.257371,97.767103 C211.846348,98.1209409 211.417453,98.4569082 210.984984,98.7928756 C209.458835,97.4811733 207.653904,96.4196595 205.663119,95.8049108 C202.760933,94.8792135 199.651448,94.8827876 196.763559,95.486814 C193.864947,96.0014874 191.116448,97.1630766 188.539507,98.0959221 C188.239281,98.2067198 187.921184,98.2960728 187.703163,98.3246658 L187.642403,98.3067952 Z M224.357557,28.8523395 C222.581219,29.9174274 220.540396,30.6072327 218.846263,30.4213784 C217.012739,30.2283759 215.450848,29.1954551 214.178461,27.7729551 C213.531545,27.0116674 212.916797,26.0931184 212.441439,25.1459764 C213.202726,25.0387528 213.938995,24.8743433 214.657393,24.7278043 C216.369397,24.3453734 218.04566,24.0094061 219.686181,23.8342742 C222.820685,23.4196762 225.965911,23.7163282 229.011062,24.7385267 C227.588562,26.5506058 226.0088,27.8730304 224.357557,28.8523395 Z M171.953443,69.8710918 C170.505924,68.0125491 169.540912,65.6786483 168.801069,63.35547 C168.347156,61.9258217 168.000466,60.4747288 167.685943,58.9771722 C167.635906,58.6590755 167.582294,58.3374047 167.510811,58.0014373 C169.372928,58.494666 171.25649,58.8127627 173.129329,59.0129135 C173.007809,59.5597539 172.92203,60.0637049 172.839825,60.6069712 C172.682564,61.815024 172.543173,63.0480956 172.425227,64.2561484 C172.225076,66.1289875 172.110705,68.0018267 171.953443,69.8710918 Z M357.612209,404.431653 C353.248208,376.564235 376.53003,345.344291 360.324967,321.848023 C370.414709,349.072099 346.818365,379.116157 357.612209,404.431653 Z M348.376682,108.637433 C350.496135,113.155122 350.138723,115.785674 350.135149,122.115442 C357.869546,112.215128 367.433893,100.659996 358.03753,70.3192865 C361.111273,84.3048204 361.83682,99.3447198 353.627065,111.15004 C352.229584,105.281334 349.391732,102.450631 346.203616,98.6191733 C345.517385,103.655109 345.385143,107.751051 341.417869,112.529651 C341.217718,109.602446 341.164106,109.816893 338.433478,95.0379045 L336.946644,108.412264 C336.442693,112.933526 332.014358,117.519123 326.428007,117.880109 C330.137944,118.559192 334.28035,117.268935 337.361242,114.488269 C337.379113,117.061636 337.396983,116.150235 336.925199,121.586472 C340.928214,118.677138 345.631757,115.864305 348.376682,108.637433 Z M306.988365,325.822445 C323.543692,316.082966 339.312712,280.609819 318.243271,265.330454 C334.491223,289.498657 306.916883,312.541013 300.983843,320.068111 C297.456186,324.464279 290.969157,331.848412 284.113994,338.410497 C288.495865,336.065874 292.402379,333.792734 296.076575,331.633965 C300.601412,328.971245 303.428541,327.920454 306.988365,325.822445 Z M307.928359,126.718909 C313.039351,123.523646 317.478409,120.096064 317.710727,114.456102 C313.486117,119.470593 310.766211,119.188237 310.180055,119.870894 C310.101424,119.127477 308.686073,116.118068 308.771851,115.59982 C304.061161,121.675825 285.036117,118.723602 276.83351,116.178828 C282.798717,118.026648 297.273906,127.440882 305.70883,121.854531 C305.451493,122.640838 307.635281,123.902502 307.928359,126.718909 Z M295.218786,154.965184 C302.552882,154.825794 310.072831,156.162515 317.14959,159.050404 C302.599345,149.443168 289.421563,149.704079 279.892957,149.196554 C288.524458,156.466315 286.329948,154.525567 289.260727,157.374142 C268.952574,154.529142 255.67829,162.731748 248.787386,166.32374 L255.013504,168.464638 C248.801682,170.616258 243.579892,174.848017 240.54189,180.144864 C251.310715,168.489657 263.891619,173.000197 273.030646,174.944518 C267.269163,169.740599 264.838761,167.39955 262.89444,166.002069 C281.797963,158.828809 296.123039,164.801164 304.986858,167.596126 C299.421952,159.976101 298.271085,158.217634 295.218786,154.965184 Z M259.806399,116.193124 C263.948805,117.576309 268.734553,117.819349 273.220074,116.300348 C277.687725,114.842107 281.637128,111.732622 284.417794,107.965499 C287.280664,104.194801 289.117762,99.8129296 290.189999,95.3417047 C291.262235,90.8275904 291.623221,86.1955302 291.247938,81.5741922 C290.865507,76.9492802 289.482323,72.3565352 287.177015,68.3034825 C284.868133,64.2432815 281.722907,60.7942552 278.248862,57.9063657 C274.739075,55.0935328 270.904044,52.7524838 266.868862,50.9296823 C262.847976,49.0747138 258.648384,47.6772326 254.35944,46.8158695 C262.369044,50.2184323 269.906864,54.6574901 275.929257,60.5118996 C282.008837,66.3091232 286.044019,73.8397953 286.340671,81.9601973 C286.619452,86.0239724 286.20128,90.1771005 285.229119,94.1229296 C284.242662,98.0937776 282.727235,101.882345 280.550595,105.249167 C278.416845,108.612414 275.564697,111.500304 271.994151,113.365995 C268.427178,115.281723 264.198994,116.146661 259.806399,116.193124 Z M237.042825,13.5229363 C239.469653,14.1233886 241.810702,15.0276411 244.255401,16.1427667 C242.618454,14.0340355 240.31672,12.3863659 237.804113,11.2891109 C235.298655,10.1882818 232.550156,9.59855189 229.798083,9.51634712 C227.063881,9.40554938 224.347549,9.78083204 221.738441,10.492082 C219.136481,11.203332 216.641745,12.2505494 214.443661,13.8553295 C219.715489,12.9903923 224.694239,12.3184577 229.676563,12.5114602 C232.171299,12.6222579 234.630294,12.9010393 237.042825,13.5229363 Z M231.856776,73.3215478 C232.414339,70.6945692 233.064829,68.0854611 233.772505,65.2511835 C231.485068,67.1133003 229.801657,69.5401282 228.525696,72.1528104 C227.231864,74.7905114 226.406243,77.6676784 226.106016,80.6056056 C225.80579,83.5864221 226.09172,86.6530176 227.031714,89.4729987 C227.971707,92.3287211 229.58721,94.9235326 231.821035,96.8178165 C231.181268,93.9692424 230.688039,91.3744309 230.498611,88.7510264 C230.309182,86.1669372 230.35922,83.6150151 230.598686,81.0773895 C230.848874,78.5183191 231.284917,75.93423 231.856776,73.3215478 Z M199.149999,55.5903356 C200.408089,55.9084323 201.60542,56.2908632 202.770583,56.9163343 C202.048611,55.7761899 200.872725,54.9541421 199.768322,54.2285956 C198.59601,53.5209198 197.395106,52.9419122 196.151312,52.4451095 C193.688743,51.4193369 191.133247,50.6687715 188.584899,50.1112087 C185.993661,49.55722 183.413146,49.1676409 180.793316,48.9317489 C178.155615,48.7208758 175.546507,48.6493934 172.880213,48.9210266 C175.367801,49.882465 177.880407,50.6008632 180.393014,51.2370567 C182.902047,51.9125655 185.414654,52.5094436 187.920112,53.0634323 L195.425765,54.6789348 C196.680282,54.9541421 197.931224,55.2329235 199.149999,55.5903356 Z M200.869151,48.8102288 C199.121406,47.0982251 196.894729,46.0367113 194.678774,45.2039412 C192.462819,44.3783193 190.171808,43.7528482 187.891519,43.331102 C185.564767,42.9093557 183.248737,42.6448708 180.900539,42.5447954 C178.54162,42.4447201 176.214867,42.4804613 173.820206,42.887911 C176.079051,43.7135329 178.305728,44.3211334 180.575294,44.8465291 C182.823416,45.3897954 185.06439,45.8544311 187.308938,46.2797515 C189.571356,46.7265165 191.812329,47.0732062 194.074748,47.4770819 C196.337166,47.8773834 198.538824,48.2276472 200.869151,48.8102288 Z M177.065508,35.6681874 C174.57792,36.2936585 172.154666,37.1049839 169.874377,38.3452038 C175.028259,38.2701472 179.928378,37.7197327 184.857091,37.4302289 C187.31966,37.2836899 189.767932,37.1621698 192.19476,37.1764663 C194.646607,37.2157817 197.059138,37.3337276 199.625357,37.8305304 C197.584534,36.1935832 194.982574,35.3179236 192.437801,34.8425656 C189.850137,34.3672075 187.2589,34.2814287 184.653366,34.4458382 C182.094296,34.6138219 179.55667,35.0391422 177.065508,35.6681874 Z M271.980983,434.896529 C276.240902,436.004708 280.727236,437.332498 285.279103,438.923177 C276.198289,432.463289 243.078284,407.856188 226.617116,378.948173 C222.664138,372.010805 218.264396,364.612375 216.54167,356.702847 C214.879704,349.075673 211.573642,346.563067 207.384773,343.553657 C188.466953,320.868714 184.782034,315.085787 184.035043,275.477382 C198.206431,280.20237 212.131205,287.529317 243.633504,277.075014 C240.209496,282.850793 237.264421,285.127508 231.43503,290.499411 C240.238089,289.577288 250.267072,289.123375 263.251852,282.278934 C263.201814,282.328971 257.980024,287.825969 257.929986,287.876007 C266.318447,287.007495 282.880922,286.346283 300.118906,271.760297 C310.004923,263.411151 317.485557,252.277766 320.884546,239.989939 C313.16802,262.020818 292.66329,278.218733 270.557354,281.535517 C274.056418,276.960642 274.867744,274.741113 280.121701,263.686358 C270.407241,271.706685 262.075966,279.823513 245.331211,283.544172 C249.587989,277.918507 250.799616,274.04416 253.026293,268.321993 C209.061035,284.752225 201.887775,274.955561 180.160696,269.051113 C174.69944,265.10171 165.142242,256.370134 162.247204,251.809556 C155.649377,248.346233 152.332593,251.809556 130.380345,238.352992 C124.025558,234.453626 103.49581,218.466585 96.7585925,205.553287 C91.2258538,194.948871 74.2702258,171.559826 74.1701504,171.32036 C74.1808727,171.348953 69.4916265,173.186051 62.8937999,173.186051 C57.3467648,173.186051 50.4594344,171.888645 43.8794784,167.127917 C53.70831,163.217829 49.0798239,156.058865 49.0655274,155.840844 C49.6123678,163.217829 40.190986,164.990593 34.32228,167.127917 C28.2963127,169.322427 22.4419032,168.028595 18.8105966,164.568846 C22.288216,164.343677 25.0545853,162.892584 25.72652,159.565078 C19.4217713,163.139198 19.028618,160.215567 13.0133731,160.472904 C14.7360992,155.558488 17.9206406,152.323909 22.9780212,151.401786 C20.4868592,150.404606 17.5382097,151.097986 15.2186055,152.477596 C16.4552512,145.865473 22.5920162,144.489437 26.1303956,143.556591 C31.4379647,142.15911 38.4539634,145.122056 38.9650626,146.694669 C37.4603579,142.051887 34.9906405,141.769531 30.7124182,140.983225 C33.8147549,137.627125 37.0100187,136.923024 39.093731,136.923024 C40.4268779,136.923024 41.3061116,137.208953 41.4204835,137.276862 C33.5645664,132.844952 26.9846104,140.443532 22.8779459,142.527245 C19.7827574,142.848916 16.0585238,143.846095 11.7195414,145.936956 C10.8867713,145.586692 7.36268841,142.859638 5.07525123,139.056774 C8.34557157,137.216102 14.3715389,136.658539 14.3036306,132.173017 C11.2441834,135.811472 6.02239319,133.448978 0.614748741,137.044544 C0.836344217,134.199544 1.49040828,129.331591 9.39636302,124.645919 C8.3169786,124.685235 7.25189067,124.94972 6.22969218,125.339299 C9.71088563,121.629362 14.2786117,120.717961 17.8455841,120.717961 C20.776363,120.717961 38.9543403,124.549418 41.0023114,117.211749 C40.0372988,120.660775 23.5212876,119.567094 17.280873,118.373338 C14.3822612,118.373338 10.4364321,119.474167 7.4663379,120.442754 C7.49135675,119.570668 7.55926504,118.741472 7.65934041,117.95874 C10.343505,118.130298 13.3100251,117.587031 14.9433982,115.442559 C10.8152889,118.48771 5.98665198,114.699142 0,112.761968 C5.57205399,106.918281 14.0677386,107.876146 22.0308793,109.373702 C20.6548429,107.586642 18.585427,106.442923 16.3837688,105.728099 C18.3745539,105.013275 20.9514949,104.74879 22.8314823,105.681636 C27.1954835,107.829682 44.6121731,109.305794 49.2942711,109.984877 C58.7942836,111.350191 64.230521,116.378978 71.1464444,121.804494 C78.6592458,127.698218 87.5659543,131.493934 95.1037747,137.376937 C102.838172,143.402904 106.716092,152.627709 115.70858,158.896717 C128.446746,167.753388 146.610426,167.328067 166.764892,181.931924 C182.130037,193.072458 183.245162,223.202295 180.02488,229.864455 C184.481808,220.636076 186.615558,208.923683 185.053667,197.129085 C193.724484,193.108199 225.548454,182.039148 237.93993,187.282383 C229.944622,179.390724 210.780187,181.570938 199.81836,184.00134 C209.432744,167.546089 217.656795,159.304167 232.446506,149.196554 C228.236192,149.285907 225.519861,144.417954 221.366733,145.082741 C238.736959,137.712904 252.908347,128.377301 257.415313,121.404192 C258.330288,119.985266 260.160237,119.702911 261.8365,119.881617 C257.565426,118.176761 253.108497,117.086654 248.62655,116.35396 C246.389151,116.014418 244.194641,115.746359 241.835721,115.603394 C239.126538,115.517615 236.731877,116.543388 234.701776,117.755015 C230.673743,120.281918 227.553535,123.541516 224.42618,126.679594 C221.302398,129.821246 218.285841,133.09514 214.858259,135.600599 C213.153403,136.844393 211.284138,137.9345 209.400577,138.038149 C207.495571,138.198985 205.583416,137.380511 203.971488,136.072383 C201.140784,133.699167 199.035627,130.300178 197.430847,126.818985 C198.299358,126.347201 199.121406,125.80036 199.925583,125.232075 C201.473177,124.07406 202.895677,122.758784 204.128749,121.311265 C202.599025,122.40852 200.965652,123.4057 199.28939,124.245618 C197.652442,125.08911 195.911846,125.746749 194.18912,126.011233 C192.473542,126.31146 190.89378,125.961196 189.14961,124.174135 C189.08885,124.077634 188.874402,123.763112 189.067405,121.765178 C189.746488,120.49994 191.047468,119.231127 192.391337,118.08026 C193.735206,116.890078 195.22204,115.753507 196.712449,114.659826 C199.707562,112.411705 202.806324,110.252936 205.858623,107.944054 C208.914496,105.628024 211.920332,103.197622 214.718868,100.452697 C215.919773,99.1946067 216.627449,98.4071088 216.841896,98.0902035 C217.478089,97.1645062 217.98204,96.1244371 218.289415,95.0486268 C218.936331,92.9005804 218.882719,90.7132186 218.51101,88.6974146 C217.728278,84.6693807 215.905476,81.1381495 213.925414,77.8142174 C211.941777,74.4902852 209.629321,71.3950968 207.177474,68.4464473 C204.689886,65.501372 202.180853,62.5777413 199.257223,59.9221697 C198.513806,59.2716798 197.74537,58.6319122 196.905451,58.0386082 C196.472983,57.7097891 196.065533,57.4453042 193.981821,56.4731434 C191.887386,55.7583192 189.889453,55.4866861 187.937983,55.3329989 C184.052914,55.0041798 180.282216,55.0935328 176.579428,54.8576409 C172.915954,54.6217489 169.309666,54.1642615 166.114402,52.9669311 C164.509622,52.3593306 163.0764,51.5658758 161.875495,50.4829173 C161.275043,49.9610957 160.731777,49.3749399 160.270715,48.7494688 C159.74532,48.0668117 159.319999,47.3591359 158.951865,46.6300153 C158.26206,45.1646258 157.904647,43.6313281 158.119095,42.1623645 C158.269208,40.6683821 158.984032,39.2387339 160.102732,37.9985141 C162.30439,35.5109261 165.721249,33.7703294 169.13096,33.1091171 C169.570577,33.0555053 169.927989,33.0018935 172.047443,32.7266862 C172.622876,32.5694249 173.21618,32.2691988 174.449252,30.1568935 C174.652977,29.0274714 174.39564,28.0124211 174.081117,27.0974463 C173.752298,26.1646008 173.3377,25.2782189 172.812304,24.4704676 C173.294811,26.2825468 173.662945,28.2983508 171.625696,30.9396259 C171.26471,30.9932377 170.903724,30.9610706 168.873624,30.8895882 C166.807782,31.0182566 164.842016,31.59369 162.979899,32.3764224 C161.107059,33.223489 159.316425,34.3100216 157.800998,35.804004 C156.382072,37.2014852 155.259798,39.0278608 154.727254,41.0937025 C154.041023,40.9543118 153.372663,40.7577352 152.722173,40.4968243 C151.356859,39.9607063 150.088046,39.1636774 149.383944,38.084293 C148.665546,37.019205 148.558322,35.6789098 148.894289,34.2850028 C149.226683,32.9268369 149.905766,31.5793935 150.702794,30.3034324 C151.128115,29.6529425 151.564158,29.0131749 152.025219,28.4341674 C152.525596,27.7765292 152.947342,27.2404111 153.494183,26.6971448 C154.519955,25.6427792 155.717286,24.7385267 157.011117,23.9272013 C159.588058,22.3367177 162.479522,21.2323144 165.460338,20.3673772 C171.44699,18.6946888 177.76961,18.0406247 184.063636,17.7797139 C189.87873,17.5867114 195.786752,17.7439727 201.548234,18.2693684 C202.01287,19.5560518 202.656211,20.7390858 203.49613,21.7577101 C204.10373,22.5583131 204.850721,23.2552666 205.651324,23.887886 C206.005162,24.1773898 206.64493,24.5812654 207.495571,24.9100845 C208.403397,26.7686272 209.539968,28.3734073 209.747267,29.6565166 C205.697788,29.2490669 201.616142,29.1275468 197.5202,29.727999 C201.419566,31.0039601 205.268893,32.0368809 209.061035,33.1305618 C212.874622,34.2063721 216.645319,35.2821824 220.337386,36.4759387 C224.033027,37.7125844 227.675055,39.0171384 231.102637,40.6683821 C234.551663,42.3339223 237.832706,44.310411 240.627668,47.3055241 C239.462505,43.3096572 236.317279,40.0286146 232.925439,37.6339538 C229.758768,35.3715354 226.227537,33.7488847 222.631971,32.5229613 C223.718504,32.0297327 224.697813,31.3899651 225.62351,30.735901 C227.324792,29.4134764 229.369189,27.5585078 230.820282,25.4176096 C233.533039,26.5899212 236.077813,28.2304425 238.472474,30.0746887 C236.210055,27.3833759 233.497298,24.9672704 230.226977,23.2695631 C226.995972,21.57543 223.175238,20.8034199 219.486745,20.9678295 C217.642499,21.0321636 215.823272,21.3145192 214.089823,21.5539852 C212.367097,21.7755807 210.672964,22.0543621 207.88515,21.0822013 C207.349032,20.6211398 206.809339,20.034984 206.366148,19.4702729 C205.46547,18.3194061 204.893611,16.9719627 204.729201,15.6102227 C204.375363,12.8724463 205.987292,10.1847077 208.410545,8.17962602 C209.600728,7.15385341 210.955319,6.28534211 212.41356,5.50975794 C213.793171,4.74132201 215.30145,4.20520393 216.931249,3.70840117 C223.389685,1.8212655 230.344923,0.902716506 237.192939,0.384469022 C250.953303,-0.544802331 264.96743,0.119984098 278.313196,3.37600795 C284.953912,5.0343999 291.451663,7.26465115 297.502649,10.3491172 C302.506418,12.9260582 307.156349,16.1391926 310.919898,19.9277604 C309.85481,19.945631 308.79687,20.0814476 307.742505,20.3387842 C306.684565,20.5568056 305.630199,20.8891988 304.59013,21.5075217 C306.76677,22.4189224 308.843334,22.6512403 310.934194,22.7405933 C313.021481,22.7477415 315.112341,22.8370945 317.206776,22.969337 C321.367052,23.205229 325.520181,23.6234011 329.580382,24.3489475 C333.601267,25.074494 337.572115,26.1038408 340.413541,27.712195 C337.06459,27.7658068 333.797844,28.5592616 330.731248,29.8102038 C327.618189,31.0575719 324.708855,32.7695756 322.178378,35.0605869 C320.895268,36.2293244 319.747976,37.4516736 318.782963,39.1136397 C317.782209,40.9757565 317.603503,42.7842615 317.499854,44.4783947 C317.356889,47.9131246 317.789358,51.1512778 318.400532,54.3644122 C318.990262,57.5561019 319.758698,60.6798833 320.609339,63.7643494 C321.499295,66.8488154 322.585828,69.8796697 323.851066,72.8104486 C325.09486,75.7555239 326.51736,78.6398392 328.297272,81.3454485 C328.157882,79.5869812 327.896971,77.8678292 327.582448,76.2130114 C330.080758,75.9842676 332.060821,75.1157563 333.85503,74.0721131 C335.366883,73.1571383 336.735771,72.1456621 338.026028,71.0198141 L341.21057,67.9389222 C343.633824,65.3870001 345.746129,62.5813154 348.498202,58.0100152 C384.14648,76.6347576 385.962134,117.340417 381.637448,137.913055 C380.976236,136.140291 376.476418,122.115442 370.264596,120.585718 C368.613352,145.547377 380.129169,165.766177 380.122021,166.80982 C378.388572,165.237207 372.466254,160.480052 370.968698,158.746604 C370.714935,159.761654 366.011393,174.826572 362.969816,184.172898 C360.94329,181.113451 359.838886,177.635831 360.428616,172.928714 C358.191217,174.537069 356.657919,177.281993 356.55427,180.452238 C356.400582,191.928739 375.679389,199.720322 380.26856,219.245743 C376.004634,217.162031 373.191801,217.197772 366.215118,216.529411 C371.637058,223.498947 379.55731,232.848846 384.73621,249.318394 C382.505959,247.931635 381.455168,247.602816 377.226983,245.790737 C378.981876,266.556377 369.024376,261.967206 374.274759,300.060184 C374.557115,302.108155 375.161141,304.084643 376.022504,305.939612 C376.42638,313.313023 377.527209,320.132445 380.833271,330.347281 C386.056252,339.242076 402.98567,355.287495 431.621524,378.483537 C441.664803,387.476025 451.236298,396.818776 457.483861,407.416044 C461.847862,414.760861 464.92518,422.827652 466.887372,431.12676 C467.823792,435.101182 468.54219,438.964806 470.175563,442.735503 C471.944753,446.788556 474.142837,450.684347 476.380236,454.501508 C480.719219,461.853474 485.67295,469.076772 491.731084,475.127758 C503.050324,486.425553 518.283226,493.366495 534.306009,493.97767 C567.670424,495.235761 600.248533,473.876816 610.978043,442.088587 C616.550097,425.590447 616.496486,407.59475 613.933841,390.531898 C611.378345,373.519084 607.264532,355.905818 598.157673,341.26622 C574.000192,302.4334 556.526316,299.320341 533.033622,307.376408 C509.544501,315.428902 499.304646,360.030353 497.749903,365.030548 C496.195161,370.027168 489.157717,369.630441 490.837554,358.053864 C492.520965,346.480862 500.405475,325.425717 508.011203,314.460315 C515.620506,303.494913 534.93148,294.920598 547.801888,294.963488 C560.668722,295.006377 565.275764,296.571842 573.103088,300.492652 C587.378125,307.640893 598.325657,320.332596 606.345983,333.885661 C614.5057,347.660322 619.866881,363.014744 623.105035,378.662244 C626.611247,395.56426 628.4269,413.617143 625.656957,430.751477 C622.358043,451.109668 611.52131,470.334862 596.031071,483.809297 C587.664055,491.082632 577.763741,496.651112 567.434532,500.625534 C562.105519,502.673505 556.612095,504.339046 551.000726,505.396985 C524.970406,510.318549 502.521354,504.478436 497.674847,502.151684 C492.799746,499.814209 472.127033,489.845987 459.138679,481.646954 C458.234426,478.537469 456.776185,473.026175 455.825469,470.241935 C461.572655,476.593148 471.780343,484.266784 478.417485,488.988198 C469.675186,481.596916 463.052341,470.327714 459.72126,463.890723 C449.542165,447.081634 435.713892,444.143707 431.33202,441.137871 C428.133183,439.611722 426.056618,438.989825 426.056618,438.989825 C443.898628,453.522199 463.374012,479.237997 464.624954,526.112588 C465.225406,548.625974 441.918566,576.007312 437.383007,598.045339 C432.582963,618.564365 452.440777,628.157305 454.624564,634.705094 C523.404941,692.655885 508.49371,691.208366 505.037535,703.760678 C501.810104,715.494516 492.267202,725.752242 486.80952,735.895596 C486.337736,736.778404 484.568547,740.184541 482.606354,745.26694 C481.348264,725.805854 489.343572,727.507135 495.155092,714.09346 C497.338879,708.8538 498.800695,702.824258 496.066492,697.83836 C488.099778,683.059371 486.684426,683.906438 475.872711,679.671105 C461.061555,673.491451 452.372868,658.651702 444.231022,644.855596 C456.486681,683.677694 475.586782,685.118065 481.705676,689.381991 C485.104665,691.719466 486.763057,695.504459 489.604482,701.201607 C494.229395,710.826714 475.719024,724.780081 476.194382,736.317342 C476.526775,742.54346 478.399614,751.332223 477.759847,761.661431 C473.17425,789.06064 471.823233,784.206984 465.043126,792.052179 C462.541241,794.936494 460.768478,795.265313 453.07697,799.396996 C450.800255,800.62292 445.985915,799.772279 443.34464,798.685746 C450.746643,797.506287 452.719558,789.846946 449.220494,786.480125 C448.952435,790.66542 447.036706,793.310269 445.017328,794.357486 C442.683427,795.815728 439.062843,794.961513 436.757536,798.042405 C434.273522,791.734082 437.318672,785.665225 443.080155,782.334145 C441.246631,782.412775 439.423829,783.14547 437.894106,784.292763 C439.227253,778.609911 441.203742,772.119308 447.858754,770.875514 C457.097856,769.152788 453.477272,763.362713 456.601053,759.910112 C452.908986,761.143184 454.059853,765.367794 449.953189,766.933259 C446.243252,768.345037 435.771078,767.633787 434.770324,787.888328 C433.908961,789.450219 433.394288,790.994239 433.308509,793.170878 C431.571487,794.918623 427.068095,794.579082 424.73062,794.067983 C433.462196,790.182914 432.136198,782.502128 428.329759,780.393397 C430.48138,791.201538 421.496041,789.292958 419.340846,794.64699 C415.348553,789.228623 416.738886,782.637945 421.395965,777.991588 C420.538176,778.259647 419.726851,778.688542 418.976286,779.221086 C419.70898,775.943617 421.285167,772.912763 423.061505,771.111406 C420.46312,771.111406 414.576543,773.24873 415.491518,783.581513 C414.315632,786.258529 414.176242,789.028473 415.034031,791.809138 C411.892379,792.223736 410.380526,789.864817 409.419087,786.826814 C413.078987,785.608039 413.361342,783.270564 411.606449,781.197574 C411.291926,787.287876 406.080859,780.111042 403.986424,789.428774 C398.35361,782.913152 406.130896,773.177248 409.97665,773.10934 C412.071085,769.87476 415.527259,768.37363 417.92192,767.426488 C423.215193,765.335627 427.421933,769.974836 430.699401,761.643561 C433.497938,754.527487 444.123798,752.268642 444.377561,751.628875 C449.377755,738.883561 457.916329,730.319968 456.822648,713.171337 C456.601053,709.725885 457.205079,706.073134 456.558164,702.656275 C456.16501,700.597581 451.976141,699.750515 450.228396,699.057135 C444.709954,694.782487 388.746374,661.071382 382.459496,656.986162 C348.183679,634.722965 345.260049,617.635094 332.868572,588.781219 C325.97177,572.722968 324.307431,547.895958 326.068229,522.156473 C320.56635,527.172682 313.187752,531.253684 303.844586,533.890059 C289.019439,539.291808 270.066354,541.141346 256.574322,535.873869 C244.139957,524.704742 232.091596,510.179516 215.790032,507.699076 C231.991521,514.961689 236.183964,522.671068 249.343876,537.260628 C252.510547,544.398147 254.572815,552.5114 253.804379,560.281538 C251.148807,587.208963 265.330918,604.568467 258.765258,618.039327 C253.686433,628.457889 232.509768,628.557964 198.426954,627.021092 C183.901728,626.367028 146.956044,630.845401 143.428387,634.455263 C142.995918,634.89488 139.100127,638.422537 138.696251,638.358203 C133.506628,640.502675 127.948871,636.15297 124.410491,632.986299 C121.490435,630.366469 122.912935,630.93118 115.435874,629.440772 C112.251333,628.801004 112.079775,627.853862 108.913104,624.862323 C100.974983,617.360244 81.8498633,620.998699 84.7270304,604.564893 C89.2018293,607.39917 94.2055981,607.767305 97.6832175,602.273881 C88.3368921,608.607223 85.3953909,597.827675 79.0406045,597.591783 C81.2351145,593.427933 95.80323,588.209717 99.9241911,596.698253 C100.245862,592.920408 96.7289273,590.786658 93.4729034,590.225521 C96.246421,589.042487 100.113619,589.796626 103.433977,590.711601 C99.2844235,587.112462 92.9903971,585.353994 88.5835065,590.186205 C85.3274826,590.593655 81.810548,591.862468 79.0155857,594.274999 C79.0120115,592.813184 79.1835693,591.215552 79.558852,589.578605 C83.6297753,590.057537 86.6642037,587.927361 88.3511886,584.078033 C79.8805228,591.969692 75.1984249,581.411739 68.8221938,582.694849 C74.3013206,571.722298 89.7057803,576.701048 92.1290341,577.247889 C92.1290341,577.247889 91.8395303,576.93694 90.910259,576.250709 C93.2691786,575.389346 95.7281735,575.017638 98.1299826,574.964026 C102.050793,574.867525 107.394103,577.276482 107.394103,577.276482 C112.004719,576.940515 123.266773,573.630879 129.478594,580.00711 C133.117049,583.731344 128.656546,581.411739 138.935717,590.014648 C152.188556,593.792493 199.677897,597.527449 201.289825,586.973071 C202.376358,579.889164 190.939172,556.946884 180.495591,515.497808 C178.451194,503.864045 174.966427,482.605176 175.041483,470.80343 C175.148707,455.659881 181.246157,437.371106 196.750692,431.713273 C212.355302,426.019699 258.543663,430.015565 269.476898,433.807707 C270.220405,434.065421 271.060166,434.429458 271.980983,434.896529 Z M74.1161812,316.299915 C76.0319098,321.832654 79.7311246,324.38815 83.6233419,321.711134 C75.6566271,321.146423 77.9333419,315.627981 75.0668972,310.481247 C81.2108105,310.177447 87.4440768,314.173314 89.13821,320.774714 C89.2382854,319.598829 89.0738758,318.397924 88.7307602,317.243483 C99.3244536,325.517572 86.0430216,348.463426 100.914937,350.986756 C99.6461245,350.468508 97.9448431,347.984494 97.0084235,345.582685 C94.3492778,338.770411 96.5938255,332.001027 96.0398368,324.820619 C95.6180906,319.370085 92.0618406,314.605782 86.3003582,312.954538 C80.9427515,306.917849 75.0704714,307.607654 69.5806221,308.519055 C71.9645606,310.981624 72.186156,310.870826 73.3298746,313.958866 C72.332695,314.173314 71.3819789,314.448521 70.5527829,314.695135 C61.2243282,311.410518 71.0424375,303.229356 75.8031661,301.184959 C76.1212628,303.343728 76.6502327,304.562503 78.7375191,305.849187 C81.0249563,307.260964 85.8857602,308.218829 86.2896359,305.684777 C84.9100253,306.84994 81.9506535,304.923489 80.5781912,303.779771 C79.8490706,303.17217 79.3701384,302.618182 79.4416208,302.38229 C79.4416208,302.38229 79.3558419,302.057045 79.3129525,301.61028 C79.0699123,298.901096 79.9312754,298.389997 78.6517402,295.591461 C84.842117,295.155418 89.3955467,298.243458 92.7051823,303.526008 C92.6408482,302.618182 92.4406974,301.728226 92.133323,300.848992 C104.035145,305.423866 98.2164763,321.972045 105.765019,326.736347 C123.710678,338.06631 139.88,312.407698 179.209623,285.67685 C180.124598,308.486888 180.657142,325.092252 192.637594,339.692535 C188.555948,339.692535 175.485389,351.093979 168.594485,355.972654 C162.393385,360.365248 154.669711,363.67131 147.928919,365.186737 C141.041589,366.734331 139.701294,365.887264 136.774089,365.740725 C136.137896,365.708558 135.841244,366.101712 135.498128,366.648552 C126.259026,381.213093 113.888995,388.275556 98.8133544,379.894243 C82.0578771,370.583659 89.8387376,362.545462 78.0262691,345.261014 C77.1220166,343.935016 76.0104651,342.41244 74.6129839,341.565374 C68.9086875,338.112773 65.5025506,327.122352 66.671288,324.148684 C70.2203897,315.1419 71.2390141,316.578697 74.1161812,316.299915 Z M127.842362,340.135725 C121.50902,340.46097 109.625069,343.084375 108.824466,350.068207 C109.371307,345.307478 122.449014,343.359582 127.988901,343.084375 C131.784617,342.894947 134.450911,339.192158 136.077136,337.987679 C134.307946,339.299381 130.08691,340.021354 127.842362,340.135725 Z M143.175339,350.375581 C135.630371,360.222283 117.720452,362.870707 113.656677,358.28511 C115.47233,360.333081 117.434523,362.141586 120.054353,362.927892 C126.641457,364.900807 140.312469,358.967767 145.519962,352.176938 C150.91331,345.139494 157.346727,339.074212 164.888122,334.359947 C157.103687,339.224325 148.865339,342.952133 143.175339,350.375581 Z M234.35044,583.266708 C239.079002,589.339139 244.332959,595.661758 242.878292,602.76711 C241.473663,609.611551 234.521998,616.845571 216.808657,617.270891 C237.127532,626.184748 256.845955,609.336343 247.606854,590.936771 C245.255082,586.251099 241.620202,582.240935 238.553606,578.756168 C227.88843,566.661344 226.637488,558.519497 222.051891,541.935577 C222.219875,567.100961 228.088581,575.224937 234.35044,583.266708 Z M127.276936,590.429246 C118.470303,586.915885 104.27747,588.488498 100.84274,586.16532 C101.507527,586.143875 103.719907,585.800759 104.416861,585.700684 C127.609329,582.298121 132.355761,587.516337 137.54181,596.290803 C139.911452,600.300967 141.233877,603.875087 141.233877,603.875087 C137.852759,602.091601 135.533154,593.728159 127.276936,590.429246 Z" id="Combined-Shape" fill="#004483" transform="translate(313.502920, 400.000000) scale(-1, 1) translate(-313.502920, -400.000000) "></path>
    </g>
</svg>